<?xml version="1.0" standalone="no"?>
<!DOCTYPE svg PUBLIC "-//W3C//DTD SVG 1.1//EN" "http://www.w3.org/Graphics/SVG/1.1/DTD/svg11.dtd" >
<svg>
<metadata>
Created by FontForge 20090914 at Mon Oct 31 23:52:53 2011
 By www-data
Digitized Data (c) Copyright 1997 E+F Designstudios. ITC American Typewriter is a registered trademark of International Typeface Corporation.
</metadata>
<defs>
<font id="AmericanTypewriter-Condensed" horiz-adv-x="500" >
  <font-face 
    font-family="American Typewriter"
    font-weight="400"
    font-stretch="condensed"
    units-per-em="1000"
    panose-1="2 9 6 6 2 0 4 2 3 4"
    ascent="800"
    descent="-200"
    x-height="495"
    cap-height="671"
    bbox="-415 -362.001 1436 1085"
    underline-thickness="20"
    underline-position="-156"
    unicode-range="U+0008-U+FB02"
  />
<missing-glyph 
d="M63 0v760h375v-760h-375zM125 63h250v635h-250v-635z" />
    <glyph glyph-name="fi" unicode="fi" horiz-adv-x="476" 
d="M294 571c0 11.333 5.00098 24.666 15.001 39.999c-13.333 10 -29.333 15 -48 15c-60 0 -90 -35.667 -90 -107c0 -18 14 -28.333 42 -31c-3.33301 0 17.334 0.666992 62.001 2l42 1c22 0.666992 35.167 1.33398 39.5 2.00098s10.5 1 18.5 1c13.333 0 20 -6.66699 20 -20
v-9c-0.666992 -5.33301 -1 -9.33301 -1 -12l-1 -31v-54l-1 -53v-61l-1 -55c0 -5.33301 0.333008 -23 1 -53c0 -9.33301 0.333008 -21.666 1 -36.999c0 -26.667 2.66699 -42 8 -46c2.66699 -1.33301 6.66699 -2 12 -2c-2.66699 0 0 0.333008 8 1
c5.33301 0.666992 9.33301 1 12 1c18.667 0 28 -11 28 -33c0 -9.33301 -3.33301 -17.5 -10 -24.5s-14.667 -10.5 -24 -10.5c-4.66699 0 -14.334 1.33301 -29.001 4s-27.667 4 -39 4c-8 0 -19.333 -1.33301 -34 -4s-24.667 -4 -30 -4c-8.66699 0 -16.334 3.66699 -23.001 11
s-10 16 -10 26c0 20 7.33301 30 22 30c5.33301 -0.666992 9.66602 -1 12.999 -1h2c12.667 0 19.667 11.667 21 35l2 34l1 62l-2 183c-0.666992 25.333 -3.16699 40.666 -7.5 45.999s-16.5 8 -36.5 8h-34c-38 0 -59.833 -2.16699 -65.5 -6.5s-8.5 -18.166 -8.5 -41.499v-239
c0 -54 4.66699 -81 14 -81c1.33301 0 3 0.333008 5 1h5c2 0.666992 5 1 9 1c16.667 0 25 -9.33301 25 -28c0 -10.667 -3 -20 -9 -28s-13.333 -12 -22 -12c-7.33301 0 -18.5 1.33301 -33.5 4s-26.5 4 -34.5 4c-11.333 0 -22.666 -1 -33.999 -3
c-18.667 -3.33301 -29.334 -5 -32.001 -5c-21.333 0 -32 11 -32 33c0 23.333 10 35 30 35h5c2.66699 -0.666992 5 -1.16699 7 -1.5s4.66699 -0.5 8 -0.5c12 0 18.333 11.333 19 34l2 51l-1 259c-0.666992 12.667 -5.33398 19 -14.001 19c-2 0 -6.33301 -0.333008 -13 -1h-6
c-26 0 -39 12 -39 36c0 25.333 12.667 38 38 38c2.66699 0 6.83398 -0.333008 12.501 -1s9.83398 -1 12.501 -1c8.66699 0 13 5.33301 13 16v6c0 30.667 3 56.667 9 78c18.667 64.667 68 97 148 97c38 0 70 -9.33301 96 -28s39 -41.667 39 -69
c0 -18.667 -5.66699 -34.334 -17 -47.001s-25.333 -19 -42 -19c-28.667 0 -43 14 -43 42z" />
    <glyph glyph-name="fl" unicode="fl" horiz-adv-x="478" 
d="M394 470l1.99902 -382c0.666992 -16.667 7.33398 -25 20.001 -25h8c1.33301 0 2.66602 0.333008 3.99902 1h4c20.667 0 31 -11.667 31 -35c0 -9.33301 -3.5 -17.333 -10.5 -24s-15.5 -10 -25.5 -10c-5.33301 0 -17.666 1.66699 -36.999 5c-12 2 -23.667 3 -35 3
c-9.33301 0 -17.333 -0.666992 -24 -2c-19.333 -4 -32 -6 -38 -6c-9.33301 0 -17.166 3.5 -23.499 10.5s-9.5 15.833 -9.5 26.5c0 20.667 8.66699 31 26 31c4.66699 0 8.66699 -0.333008 12 -1h7c9.33301 0 14.666 11.333 15.999 34l2 38l2 119v213c0 78 -2 120.333 -6 127
c-10.667 18 -36 27 -76 27c-47.333 0 -71 -34.667 -71 -104c0 -15.333 6.33301 -23 19 -23c4 0 10 0.666992 18 2s14 2 18 2c22.667 0 34 -12 34 -36s-13.333 -36 -40 -36c-7.33301 0 -13 0.5 -17 1.5s-9.33301 1.5 -16 1.5c-12.667 0 -19 -15.333 -19 -46v-281
c0 -25.333 5 -38 15 -38c4 0 6.83301 0.166992 8.5 0.5s3.5 0.833008 5.5 1.5h4c16 0 24 -10 24 -30c0 -26.667 -10.667 -40 -32 -40c-8 0 -20.167 1.33301 -36.5 4s-28.5 4 -36.5 4c-10 0 -20.333 -1 -31 -3c-17.333 -3.33301 -28 -5 -32 -5c-19.333 0 -29 10.667 -29 32
c0 25.333 9.66699 38 29 38h5c2.66699 -0.666992 4.83398 -1.16699 6.50098 -1.5s4.5 -0.5 8.5 -0.5c12.667 0 19.334 12.333 20.001 37l2 54l1 63l-1 190c-0.666992 12 -5.66699 18 -15 18h-11c-2 -0.666992 -4.66699 -1 -8 -1c-25.333 0 -38 11.667 -38 35
c0 26 13.333 39 40 39h6c2.66699 -0.666992 4.66699 -1 6 -1c6.66699 -1.33301 10.667 -2 12 -2c8.66699 0 13 7 13 21v6c0 28.667 3 54 9 76c6.66699 25.333 20.667 46.333 42 63s44.666 25 69.999 25c16 0 39.333 -5.33301 70 -16c15.333 -5.33301 28 -8 38 -8
c5.33301 0 12.666 1 21.999 3c12.667 2.66699 22 4 28 4c10 0 15 -6.66699 15 -20c0 -8 -0.666992 -30 -2 -66c-2 -54 -3 -91.667 -3 -113z" />
    <glyph glyph-name=".notdef" 
d="M63 0v760h375v-760h-375zM125 63h250v635h-250v-635z" />
    <glyph glyph-name="controlNULL" horiz-adv-x="0" 
 />
    <glyph glyph-name="controlNULL" horiz-adv-x="0" 
 />
    <glyph glyph-name="controlBS" horiz-adv-x="0" 
 />
    <glyph glyph-name="controlHT" unicode="&#x9;" horiz-adv-x="250" 
 />
    <glyph glyph-name="controlCR" unicode="&#xd;" horiz-adv-x="250" 
 />
    <glyph glyph-name="controlGS" horiz-adv-x="0" 
 />
    <glyph glyph-name="space" unicode=" " horiz-adv-x="250" 
 />
    <glyph glyph-name="exclam" unicode="!" horiz-adv-x="236" 
d="M118 -11c-14.667 0 -26.834 5.83301 -36.501 17.5s-14.5 26.834 -14.5 45.501c0 18 4.83301 32.833 14.5 44.5s21.834 17.5 36.501 17.5s26.834 -5.83301 36.501 -17.5s14.5 -26.5 14.5 -44.5c0 -18.667 -4.83301 -33.834 -14.5 -45.501s-21.834 -17.5 -36.501 -17.5z
M118 152c-22 0 -33.332 16.667 -33.999 50l-5 434c-0.666992 30.667 11.666 46 36.999 46c28 0 41.667 -15.333 41 -46l-5 -434c-0.666992 -33.333 -12 -50 -34 -50z" />
    <glyph glyph-name="quotedbl" unicode="&#x22;" horiz-adv-x="320" 
d="M128 667l-12 -269h-50l-12 269h74zM265 667l-12 -269h-49l-12 269h73z" />
    <glyph glyph-name="numbersign" unicode="#" horiz-adv-x="600" 
d="M434 271h110l-9 -61h-111l-32 -210h-68l32 210h-140l-32 -210h-68l32 210h-113l10 61h112l21 138h-112l9 61h113l30 197h68l-30 -197h140l30 197h68l-30 -197h110l-9 -61h-110zM366 271l20 138h-140l-21 -138h141z" />
    <glyph glyph-name="dollar" unicode="$" 
d="M359 545c-6.66699 18 -14.832 31.167 -24.499 39.5s-26.5 15.833 -50.5 22.5l-4 -226c4.66699 -2 10.667 -4.33301 18 -7c51.333 -17.333 84 -31 98 -41s27.167 -28.333 39.5 -55s18.5 -55.667 18.5 -87c0 -54 -16 -99.667 -48 -137s-74.333 -59.333 -127 -66l1 -79
c0 -23.333 -9.66699 -35 -29 -35c-21.333 0 -32 11 -32 33v3l3 77c-44 6.66699 -79 19.667 -105 39c-47.333 36 -71 85.667 -71 149c0 60.667 21 91 63 91c14.667 0 26.5 -5 35.5 -15s13.5 -23 13.5 -39c0 -29.333 -13.667 -46.666 -41 -51.999c0 -55.333 36 -90 108 -104
l8 256c-44.667 12 -76.334 24 -95.001 36c-45.333 28 -68 74 -68 138c0 52.667 14.667 96 44 130s69.333 54 120 60l-2 84c-0.666992 21.333 9 32 29 32c20.667 0 31 -10 31 -30v-2l-5 -82c45.333 -8 81 -25.833 107 -53.5s39 -61.167 39 -100.5
c0 -45.333 -16.667 -68 -50 -68c-30 0 -45 16.333 -45 49c0 17.333 7 30.666 21 39.999zM233.002 396l2 212c-64 -14.667 -96 -51.667 -96 -111c0 -28 7.16699 -49.667 21.5 -65s38.5 -27.333 72.5 -36zM281.002 298l-1.00098 -241.999c66.667 18 100 60.667 100 128
c0 30 -5.66699 52.5 -17 67.5s-32.666 28.167 -63.999 39.5c-5.33301 1.33301 -11.333 3.66602 -18 6.99902z" />
    <glyph glyph-name="percent" unicode="%" horiz-adv-x="770" 
d="M168 251c-39.333 0 -71.666 20.167 -96.999 60.5s-38 91.833 -38 154.5c0 62 12.667 113.167 38 153.5s57.666 60.5 96.999 60.5c38.667 0 70.667 -20.167 96 -60.5s38 -91.5 38 -153.5c0 -62.667 -12.667 -114.167 -38 -154.5s-57.333 -60.5 -96 -60.5zM563 663
c0 -1.33301 -1.00098 -4.33301 -3.00098 -9l-292 -641c-6 -12.667 -18 -19 -36 -19c-14.667 0 -22 4.33301 -22 13c0 2 1.33301 6 4 12l290 637c6.66699 14 18.334 21 35.001 21c16 0 24 -4.66699 24 -14zM601.999 -13c-39.333 0 -71.5 20 -96.5 60s-37.5 91.333 -37.5 154
s12.667 114.167 38 154.5s57.333 60.5 96 60.5c39.333 0 71.666 -20.167 96.999 -60.5s38 -91.833 38 -154.5s-12.667 -114 -38 -154s-57.666 -60 -96.999 -60zM168.999 620c-20.667 0 -37.834 -14.5 -51.501 -43.5s-20.5 -65.833 -20.5 -110.5
c0 -44 6.66699 -80.833 20 -110.5s30 -44.5 50 -44.5c20.667 0 37.834 14.5 51.501 43.5s20.5 66.167 20.5 111.5c0 43.333 -6.83301 79.833 -20.5 109.5s-30.167 44.5 -49.5 44.5zM603.999 356c-20.667 0 -37.834 -14.667 -51.501 -44s-20.5 -66.333 -20.5 -111
c0 -44 6.66699 -80.833 20 -110.5s30 -44.5 50 -44.5c20.667 0 37.834 14.667 51.501 44s20.5 66.333 20.5 111c0 44 -6.83301 80.833 -20.5 110.5s-30.167 44.5 -49.5 44.5z" />
    <glyph glyph-name="ampersand" unicode="&#x26;" horiz-adv-x="672" 
d="M326 440c-15.333 -16.667 -36.667 -35.3359 -64 -56.0029l9 -18c22 -44 47.667 -91.667 77 -143l4 -7l34 113c36.667 122.667 91 184 163 184c32 0 58.333 -11.333 79 -34s31 -51.334 31 -86.001c0 -38 -9.66699 -69.333 -29 -94s-43.666 -37 -72.999 -37
c-20.667 0 -37.834 6.33301 -51.501 19s-20.5 28.667 -20.5 48c0 33.333 13.333 50 40 50c9.33301 0 17.333 -3.16699 24 -9.5s10 -14.166 10 -23.499c0 -4.66699 -1.33301 -10 -4 -16c5.33301 -1.33301 8.33301 -2 9 -2c8.66699 0 16 5.33301 22 16s9 23.667 9 39
c0 19.333 -4.83301 34.833 -14.5 46.5s-22.167 17.5 -37.5 17.5c-29.333 0 -52 -18.667 -68 -56c-14.667 -34 -31.667 -85 -51 -153c-12 -42 -22 -71.667 -30 -89c23.333 -33.333 42.666 -55.333 57.999 -66s35 -16 59 -16c4.66699 0 11.5 0.666992 20.5 2s15.833 2 20.5 2
c22 0 33 -12 33 -36c0 -23.333 -11 -35 -33 -35h-38l-43 1c-39.333 0.666992 -78.666 26.334 -117.999 77.001c-40 -56 -90.333 -84 -151 -84c-50 0 -90.667 18.333 -122 55s-47 84.334 -47 143.001c0 76 25.333 135.667 76 179c12.667 11.333 28.334 23 47.001 35l9 6
l-4 12c-22.667 68 -34 116.333 -34 145c0 38.667 11.667 69.834 35 93.501s53.666 35.5 90.999 35.5s67.333 -11.5 90 -34.5s34 -53.833 34 -92.5c0 -49.333 -17 -93 -51 -131zM199.999 569.998c0 -26 11.332 -66.333 33.999 -121c48 32 72 71.667 72 119
c0 18.667 -5.16699 34 -15.5 46s-23.166 18 -38.499 18s-27.833 -5.66699 -37.5 -17s-14.5 -26.333 -14.5 -45zM201.998 337.998l-4.99902 8.99902c-59.333 -29.333 -89 -80.666 -89 -153.999c0 -37.333 9.16699 -67.833 27.5 -91.5s41.833 -35.5 70.5 -35.5
c43.333 0 78 24.667 104 74l-6 11l-38 64c-10.667 18 -22.334 39.667 -35.001 65z" />
    <glyph glyph-name="quotesingle" unicode="'" horiz-adv-x="182" 
d="M128 667l-12 -269h-50l-12 269h74z" />
    <glyph glyph-name="parenleft" unicode="(" horiz-adv-x="335" 
d="M40 173c-4.66699 24 -6.99902 52.666 -6.99902 85.999c0 100 23 187.333 69 262c22 35.333 47 66 75 92c20 18.667 42 35 66 49s41.667 21 53 21c12.667 0 19 -5.66699 19 -17c0 -7.33301 -6.33301 -14.666 -19 -21.999c-58 -34.667 -105.333 -88 -142 -160
c-32.667 -64.667 -49 -134.667 -49 -210c0 -90 21.667 -170.333 65 -241c36 -58 81 -105 135 -141c6 -4 9 -8.33301 9 -13c0 -10.667 -6.33301 -16 -19 -16c-15.333 0 -39.333 11 -72 33c-26.667 18 -48 35 -64 51c-26.667 27.333 -51.334 62.5 -74.001 105.5
s-37.667 83.167 -45 120.5z" />
    <glyph glyph-name="parenright" unicode=")" horiz-adv-x="335" 
d="M291 381c7.33301 -36 11.0029 -76.667 11.0029 -122c0 -73.333 -18 -143.666 -54 -210.999c-22.667 -42 -46.334 -75.667 -71.001 -101c-16 -16.667 -37.333 -33.667 -64 -51c-32 -22 -56.333 -33 -73 -33c-12 0 -18 5.33301 -18 16c0 6 4.66699 11.667 14 17
c49.333 30 92.666 75.667 129.999 137c42.667 70.667 64 151 64 241c0 75.333 -16.333 145.333 -49 210c-18 36 -39.167 67.5 -63.5 94.5s-50.5 48.833 -78.5 65.5c-12.667 7.33301 -19 14.666 -19 21.999c0 11.333 6.33301 17 19 17c11.333 0 29 -7.16699 53 -21.5
s46 -30.5 66 -48.5c31.333 -28 59.166 -63.5 83.499 -106.5s40.833 -84.833 49.5 -125.5z" />
    <glyph glyph-name="asterisk" unicode="*" 
d="M292 497l-11 -26l47 -42c22.667 -20 34 -35.667 34 -47c0 -9.33301 -3.16699 -17.333 -9.5 -24s-14.166 -10 -23.499 -10c-16 0 -29.333 12.333 -40 37l-32 74l-28 2l-26 -57c-8.66699 -18.667 -14 -29.667 -16 -33c-7.33301 -10.667 -17 -16 -29 -16
c-22 0 -33 10.667 -33 32c0 12.667 8 26 24 40l61 53l-7 28l-62 6c-24.667 2.66699 -41.167 6.5 -49.5 11.5s-12.5 14.167 -12.5 27.5c0 21.333 11 32 33 32c10 0 21.667 -4 35 -12l68 -41l25 14l-13 62c-4 19.333 -6 32.333 -6 39c0 9.33301 3.33301 17.166 10 23.499
s14.334 9.5 23.001 9.5c22 0 33 -12.667 33 -38c0 -6 -1 -13.333 -3 -22l-18 -78l22 -19l54 32c21.333 12.667 36.666 19 45.999 19s17.166 -3.16699 23.499 -9.5s9.5 -14.166 9.5 -23.499c0 -22 -16.333 -34.333 -49 -37z" />
    <glyph glyph-name="plus" unicode="+" 
d="M33 301v62h184v173h66v-173h184v-62h-184v-172h-66v172h-184z" />
    <glyph glyph-name="comma" unicode="," horiz-adv-x="215" 
d="M114 -26c0 7.33301 -1 14 -3 20c-4.66699 -1.33301 -10 -2 -16 -2c-29.333 0 -44 20 -44 60c0 42.667 17.333 64 52 64c41.333 0 62 -32.667 62 -98c0 -48 -11 -92.333 -33 -133l-13 -24c-9.33301 -16.667 -18.333 -25 -27 -25c-13.333 0 -20 6.33301 -20 19
c0 4 1.66699 9 5 15l11 20c17.333 31.333 26 59.333 26 84z" />
    <glyph glyph-name="hyphen" unicode="-" horiz-adv-x="201" 
d="M0 289c0 24 11.666 35.667 34.999 35l28 -1c18.667 -0.666992 32.667 -1 42 -1c6.66699 0 16.667 0.333008 30 1s23.333 1 30 1c24 0 36 -11.667 36 -35s-12 -35 -36 -35c-2 0 -6 0.333008 -12 1s-11 1 -15 1c-9.33301 0.666992 -21.666 1 -36.999 1
c-16 0 -28.667 -0.333008 -38 -1c-4 0 -9 -0.333008 -15 -1s-10 -1 -12 -1c-24 0 -36 11.667 -36 35z" />
    <glyph glyph-name="period" unicode="." horiz-adv-x="215" 
d="M108 -11c-15.333 0 -27.833 5.83301 -37.5 17.5s-14.5 26.834 -14.5 45.501c0 18 4.83301 32.833 14.5 44.5s22.167 17.5 37.5 17.5c14.667 0 26.834 -5.83301 36.501 -17.5s14.5 -26.5 14.5 -44.5c0 -18.667 -4.83301 -33.834 -14.5 -45.501
s-21.834 -17.5 -36.501 -17.5z" />
    <glyph glyph-name="slash" unicode="/" horiz-adv-x="428" 
d="M394 660c0 -2.66699 -1.33398 -7 -4.00098 -13l-340 -740c-5.33301 -12 -17.666 -18 -36.999 -18c-13.333 0 -20 4.33301 -20 13c0 2.66699 1.33301 7 4 13l338 739c6 12.667 17.333 19 34 19s25 -4.33301 25 -13z" />
    <glyph glyph-name="zero" unicode="0" 
d="M35 334c0 108 21.167 192.667 63.5 254s92.166 92 149.499 92c62 0 113 -30.333 153 -91c42.667 -64 64 -149.333 64 -256c0 -108 -21.167 -192.667 -63.5 -254s-92.166 -92 -149.499 -92c-60.667 0 -112 30.833 -154 92.5s-63 146.5 -63 254.5zM250 609
c-39.333 0 -72 -26 -98 -78s-39 -117.667 -39 -197s13 -145.166 39 -197.499s58.667 -78.5 98 -78.5s72 26 98 78s39 117.667 39 197s-13 145.166 -39 197.499s-58.667 78.5 -98 78.5z" />
    <glyph glyph-name="one" unicode="1" 
d="M229 365l0.994141 154.999l-2 35c-2 32 -11 48 -27 48c-5.33301 0 -13.166 -1.16699 -23.499 -3.5s-18.166 -3.5 -23.499 -3.5c-21.333 0 -32 11.667 -32 35c0 10.667 3.66699 19.5 11 26.5s16.666 10.5 27.999 10.5c9.33301 0 21.333 -1.33301 36 -4s28 -4 40 -4
c10.667 0 19.334 1 26.001 3c13.333 5.33301 23 8 29 8c10 0 15 -8 15 -24v-10l-3 -38c-0.666992 -33.333 -2 -83.666 -4 -150.999l-2 -84l3 -237c1.33301 -28.667 3.83301 -46.5 7.5 -53.5s12.834 -10.5 27.501 -10.5c6 0 14.667 0.833008 26 2.5s20 2.5 26 2.5
c23.333 0 35 -11.667 35 -35c0 -25.333 -12 -38 -36 -38c-12.667 0 -32 2 -58 6s-45.667 6 -59 6c-21.333 0 -44.666 -2 -69.999 -6s-42.666 -6 -51.999 -6c-24 0 -36 12 -36 36c0 23.333 10.333 35 31 35c5.33301 0 13 -0.833008 23 -2.5s17.667 -2.5 23 -2.5
c22.667 0 34.334 18 35.001 54c0 7.33301 0.666992 23.333 2 48c2 48.667 3 116 3 202z" />
    <glyph glyph-name="two" unicode="2" 
d="M138 195c-20 -20.667 -33.001 -47.001 -39.001 -79.001c24.667 35.333 53 53 85 53c25.333 0 51.666 -12.667 78.999 -38l37 -34c22.667 -20.667 41.334 -31 56.001 -31c11.333 0 21.333 6 30 18s13 26 13 42v5c-0.666992 2.66699 -1 5 -1 7
c-7.33301 -5.33301 -15 -8 -23 -8c-11.333 0 -20.666 4.33301 -27.999 13s-11 19.667 -11 33c0 14.667 5.16699 27.334 15.5 38.001s22.166 16 35.499 16c19.333 0 34.833 -9.16699 46.5 -27.5s17.5 -43.166 17.5 -74.499c0 -40 -9.33301 -73.5 -28 -100.5
s-41.667 -40.5 -69 -40.5c-21.333 0 -50.333 14.333 -87 43l-41 32c-24.667 19.333 -46 29 -64 29c-12 0 -22.667 -2.83301 -32 -8.5s-14 -12.167 -14 -19.5c0 -2.66699 3 -5.66699 9 -9c12 -6.66699 18 -16.667 18 -30c0 -24.667 -11.667 -37 -35 -37
c-19.333 0 -34.833 9.5 -46.5 28.5s-17.5 44.167 -17.5 75.5c0 63.333 16.667 115.666 50 156.999c24 30 73.333 62 148 96c44.667 20 75.667 40.5 93 61.5s26 48.167 26 81.5c0 37.333 -10.833 67.5 -32.5 90.5s-49.834 34.5 -84.501 34.5
c-32 0 -58.833 -9.16699 -80.5 -27.5s-33.167 -41.833 -34.5 -70.5c28 -3.33301 42 -19.333 42 -48c0 -17.333 -5.5 -32 -16.5 -44s-24.167 -18 -39.5 -18c-18.667 0 -33.5 8.16699 -44.5 24.5s-16.5 37.833 -16.5 64.5c0 52.667 19.167 97 57.5 133s85.833 54 142.5 54
c52.667 0 95.834 -18.167 129.501 -54.5s50.5 -82.833 50.5 -139.5c0 -34.667 -7.33301 -67.5 -22 -98.5s-34.334 -54.5 -59.001 -70.5c-19.333 -12.667 -47.666 -26.667 -84.999 -42c-57.333 -24 -100.666 -50.667 -129.999 -80z" />
    <glyph glyph-name="three" unicode="3" 
d="M199 388l151 205h-151c-40.667 0 -61 -13.333 -61 -40c0 -6.66699 1 -18 3 -34c1.33301 -10.667 2 -21 2 -31c0 -32.667 -11 -49 -33 -49c-21.333 0 -32 14.333 -32 43c0 8.66699 0.666992 24 2 46c2 20 2.66699 35.667 2 47l-2 54c0 28.667 9 43 27 43
c9.33301 0 22.333 -0.666992 39 -2c19.333 -1.33301 32.333 -2 39 -2l66 -2l91 2l67 5h5c28 0 42 -12 42 -36c0 -12.667 -7.66699 -29 -23 -49l-136 -174h11c45.333 0 82 -17.333 110 -52s42 -80.334 42 -137.001c0 -70.667 -19.5 -128 -58.5 -172s-89.5 -66 -151.5 -66
c-56.667 0 -104.167 18 -142.5 54s-57.5 80.667 -57.5 134c0 33.333 7.16699 60.833 21.5 82.5s32.5 32.5 54.5 32.5c34.667 0 52 -19.333 52 -58c0 -34 -13 -51 -39 -51c-2 0 -7 0.666992 -15 2v-11c0 -30.667 12.333 -57.167 37 -79.5s54 -33.5 88 -33.5
c40 0 73 15.833 99 47.5s39 71.834 39 120.501c0 37.333 -9.5 66.833 -28.5 88.5s-45.167 32.5 -78.5 32.5c-10.667 0 -22 -1.66699 -34 -5c-18.667 -5.33301 -29.667 -8 -33 -8c-18 0 -27 9 -27 27c0 5.33301 4.33301 14 13 26z" />
    <glyph glyph-name="four" unicode="4" 
d="M296 172l-0.00292969 23h-207c-35.333 0 -53 14 -53 42c0 14.667 8 35.334 24 62.001l210 352c10.667 17.333 25.667 26 45 26c20 0 33.5 -5.33301 40.5 -16s10.5 -31.334 10.5 -62.001v-334h67c25.333 0 38 -11 38 -33c0 -24.667 -15.333 -37 -46 -37h-59v-23l1 -55
c0.666992 -37.333 11.667 -56 33 -56c4 0 10 0.666992 18 2s14 2 18 2c22 0 33 -11.333 33 -34c0 -10 -3.5 -18.5 -10.5 -25.5s-15.833 -10.5 -26.5 -10.5c-10 0 -25.5 2 -46.5 6s-37.5 6 -49.5 6c-13.333 0 -32.166 -2 -56.499 -6s-42.166 -6 -53.499 -6
c-23.333 0 -35 12 -35 36c0 22.667 10.667 34 32 34c3.33301 0 9.33301 -0.833008 18 -2.5s15.334 -2.5 20.001 -2.5c18.667 0 30 15 34 45c0.666992 6 1 28.333 1 67zM110.997 265h185v311z" />
    <glyph glyph-name="five" unicode="5" 
d="M155 557l-14.0068 -156.997c39.333 35.333 82 53 128 53c54.667 0 98.834 -20.5 132.501 -61.5s50.5 -94.167 50.5 -159.5c0 -71.333 -19.5 -130 -58.5 -176s-88.833 -69 -149.5 -69c-53.333 0 -98.666 16.333 -135.999 49s-56 72.667 -56 120
c0 26.667 5.66699 48.5 17 65.5s26 25.5 44 25.5c14.667 0 26.834 -5.33301 36.501 -16s14.5 -24 14.5 -40c0 -30.667 -14.333 -46.334 -43 -47.001c18 -58.667 58 -88 120 -88c40.667 0 73.834 16.333 99.501 49s38.5 74.667 38.5 126c0 45.333 -11.333 82 -34 110
s-52.667 42 -90 42c-45.333 0 -81 -20.667 -107 -62c-8 -12.667 -14 -20.334 -18 -23.001s-11.333 -4 -22 -4c-23.333 0 -35 12.667 -35 38c0 12.667 1.33301 29.334 4 50.001c2.66699 25.333 4.33398 42.333 5.00098 51c1.33301 15.333 3 38.333 5 69
c3.33301 46.667 5 85.667 5 117v24c0 11.333 1 19.166 3 23.499s7.66699 6.5 17 6.5c5.33301 0 9.33301 -0.333008 12 -1c52 -4 88 -6 108 -6l8 1l79 1c7.33301 0 18.5 0.666992 33.5 2s26.5 2 34.5 2c8.66699 0 14.334 -1.5 17.001 -4.5s4 -9.5 4 -19.5
c0 -8.66699 -0.333008 -15.334 -1 -20.001v-21c0 -10.667 1.66699 -26 5 -46s5 -35 5 -45c0 -19.333 -9.66699 -29 -29 -29s-29.666 10.333 -30.999 31l-2 32c-1.33301 18 -7 30.333 -17 37s-27.667 10 -53 10h-96c-13.333 0 -22 -2.16699 -26 -6.5s-6.66699 -15.5 -8 -33.5
z" />
    <glyph glyph-name="six" unicode="6" 
d="M274 614c-44 0 -79.501 -22.8311 -106.501 -68.498s-42.167 -108.167 -45.5 -187.5c26 32.667 50.333 55.667 73 69s49.667 20 81 20c54 0 98.167 -20.833 132.5 -62.5s51.5 -95.167 51.5 -160.5c0 -68.667 -18.667 -125.334 -56 -170.001s-84.666 -67 -141.999 -67
c-35.333 0 -68.333 9.83301 -99 29.5s-53.667 46.167 -69 79.5c-29.333 64 -44 141.667 -44 233c0 103.333 21 187.666 63 252.999s96.333 98 163 98c42.667 0 78.667 -13.833 108 -41.5s44 -61.834 44 -102.501c0 -44.667 -16.667 -67 -50 -67
c-13.333 0 -24.333 4.83301 -33 14.5s-13 21.834 -13 36.501c0 17.333 7.66699 32 23 44c-16 33.333 -43 50 -81 50zM263.999 375.002c-36 0 -65.833 -14.167 -89.5 -42.5s-35.5 -63.833 -35.5 -106.5c0 -47.333 12 -87 36 -119s53.667 -48 89 -48s64.5 15.5 87.5 46.5
s34.5 70.167 34.5 117.5c0 45.333 -11.167 82 -33.5 110s-51.833 42 -88.5 42z" />
    <glyph glyph-name="seven" unicode="7" 
d="M132 639l0.00292969 -9.00195c-0.666992 -5.33301 -1 -11 -1 -17c13.333 22.667 25.333 37.667 36 45s26 11 46 11c14.667 0 38 -7.83301 70 -23.5s57 -23.5 75 -23.5c6 0 14 1.33301 24 4c-6 6 -9 13.333 -9 22c0 21.333 11.333 32 34 32c34.667 0 52 -31 52 -93
c0 -50.667 -14 -96.667 -42 -138c-12.667 -19.333 -27.334 -38.666 -44.001 -57.999c-37.333 -44.667 -61.333 -83 -72 -115c-12 -36.667 -18 -81 -18 -133v-15c0.666992 -7.33301 1 -12.666 1 -15.999c0.666992 -20.667 1 -37.667 1 -51c0 -49.333 -14.333 -74 -43 -74
c-22.667 0 -36.667 14.333 -42 43c-1.33301 8 -2 31 -2 69c0 80 15 152 45 216c18 38 49 82.667 93 134c23.333 26.667 39.333 47.834 48 63.501s15.667 36.5 21 62.5c-22 -18 -42.333 -27 -61 -27c-8.66699 0 -18.334 2 -29.001 6c-5.33301 2 -18.333 7.33301 -39 16
c-28.667 12 -52.334 18 -71.001 18c-20.667 0 -38 -7.83301 -52 -23.5s-21 -34.834 -21 -57.501c0 -9.33301 0.666992 -20 2 -32c2 -18 3 -31 3 -39c0 -34 -11.667 -51 -35 -51s-35 12.667 -35 38c0 13.333 2 31 6 53c4.66699 26 7 50.667 7 74
c0 10.667 -1.33301 26.667 -4 48s-4 37.333 -4 48c0 22.667 10.333 34 31 34c19.333 0 29 -13.667 29 -41z" />
    <glyph glyph-name="eight" unicode="8" 
d="M97 322c17.333 20 43.332 34.665 77.999 43.998c-60.667 25.333 -91 72.333 -91 141c0 50 16.667 91.333 50 124s75.333 49 126 49c48.667 0 88.5 -15.667 119.5 -47s46.5 -71.666 46.5 -120.999c0 -66 -29.667 -114.667 -89 -146c76.667 -24.667 115 -81 115 -169
c0 -62 -18.833 -112.5 -56.5 -151.5s-86.5 -58.5 -146.5 -58.5c-57.333 0 -105.166 18.833 -143.499 56.5s-57.5 84.834 -57.5 141.501c0 53.333 16.333 99 49 137zM255.999 613.998c-28 0 -51 -9.83301 -69 -29.5s-27 -44.5 -27 -74.5c0 -29.333 9 -53.833 27 -73.5
s40.667 -29.5 68 -29.5c26.667 0 49.167 10 67.5 30s27.5 44.333 27.5 73c0 29.333 -9 54 -27 74s-40.333 30 -67 30zM249.999 327.998c-36.667 0 -67.167 -12.668 -91.5 -38.001s-36.5 -57.666 -36.5 -96.999c0 -41.333 11.833 -75 35.5 -101s53.834 -39 90.501 -39
c37.333 0 68 13 92 39s36 59.333 36 100c0 41.333 -11.333 74.333 -34 99s-53.334 37 -92.001 37z" />
    <glyph glyph-name="nine" unicode="9" 
d="M226 53c44 0 79.499 22.833 106.499 68.5s42.167 108.167 45.5 187.5c-25.333 -32.667 -49.5 -55.667 -72.5 -69s-50.167 -20 -81.5 -20c-54 0 -98.167 20.667 -132.5 62s-51.5 94.666 -51.5 159.999c0 68.667 18.833 125.5 56.5 170.5s84.834 67.5 141.501 67.5
c35.333 0 68.333 -9.83301 99 -29.5s53.667 -46.167 69 -79.5c29.333 -64 44 -142 44 -234c0 -103.333 -21 -187.5 -63 -252.5s-96.333 -97.5 -163 -97.5c-43.333 0 -79.5 13.667 -108.5 41s-43.5 61.333 -43.5 102c0 45.333 16.667 68 50 68
c13.333 0 24.333 -4.83301 33 -14.5s13 -22.167 13 -37.5c0 -17.333 -7.66699 -31.666 -23 -42.999c16 -33.333 43 -50 81 -50zM235.999 291c36 0 65.833 14.166 89.5 42.499s35.5 63.833 35.5 106.5c0 47.333 -12 87 -36 119s-53.667 48 -89 48s-64.5 -15.333 -87.5 -46
s-34.5 -69.667 -34.5 -117c0 -45.333 11.167 -82.166 33.5 -110.499s51.833 -42.5 88.5 -42.5z" />
    <glyph glyph-name="colon" unicode=":" horiz-adv-x="215" 
d="M108 -11c-15.333 0 -27.833 5.83301 -37.5 17.5s-14.5 26.834 -14.5 45.501c0 18 4.83301 32.833 14.5 44.5s22.167 17.5 37.5 17.5c14.667 0 26.834 -5.83301 36.501 -17.5s14.5 -26.5 14.5 -44.5c0 -18.667 -4.83301 -33.834 -14.5 -45.501
s-21.834 -17.5 -36.501 -17.5zM108 309c-15.333 0 -27.833 5.83301 -37.5 17.5s-14.5 26.5 -14.5 44.5c0 18.667 4.83301 33.834 14.5 45.501s22.167 17.5 37.5 17.5c14.667 0 26.834 -5.83301 36.501 -17.5s14.5 -26.834 14.5 -45.501c0 -18 -4.83301 -32.833 -14.5 -44.5
s-21.834 -17.5 -36.501 -17.5z" />
    <glyph glyph-name="semicolon" unicode=";" horiz-adv-x="215" 
d="M114 -26c0 7.33301 -1 14 -3 20c-4.66699 -1.33301 -10 -2 -16 -2c-29.333 0 -44 20 -44 60c0 42.667 17.333 64 52 64c41.333 0 62 -32.667 62 -98c0 -48 -11 -92.333 -33 -133l-13 -24c-9.33301 -16.667 -18.333 -25 -27 -25c-13.333 0 -20 6.33301 -20 19
c0 4 1.66699 9 5 15l11 20c17.333 31.333 26 59.333 26 84zM107 309c-14.667 0 -26.834 5.83301 -36.501 17.5s-14.5 26.5 -14.5 44.5c0 18.667 4.83301 33.834 14.5 45.501s21.834 17.5 36.501 17.5s26.834 -5.83301 36.501 -17.5s14.5 -26.834 14.5 -45.501
c0 -18 -4.83301 -32.833 -14.5 -44.5s-21.834 -17.5 -36.501 -17.5z" />
    <glyph glyph-name="less" unicode="&#x3c;" 
d="M33 359l434 201v-67l-362 -163l361 -164l1 -66l-434 201v58z" />
    <glyph glyph-name="equal" unicode="=" 
d="M33 388v59h434v-59h-434zM33 237v59h434v-59h-434z" />
    <glyph glyph-name="greater" unicode="&#x3e;" 
d="M467 300l-434 -200v66l362 164l-361 164l-1 66l434 -201v-59z" />
    <glyph glyph-name="question" unicode="?" horiz-adv-x="472" 
d="M223 -11c-14.667 0 -26.834 5.83301 -36.501 17.5s-14.5 26.834 -14.5 45.501c0 18 4.83301 32.833 14.5 44.5s21.834 17.5 36.501 17.5c15.333 0 27.833 -5.83301 37.5 -17.5s14.5 -26.5 14.5 -44.5c0 -18.667 -4.83301 -33.834 -14.5 -45.501
s-22.167 -17.5 -37.5 -17.5zM335 314c-31.333 -20 -52.668 -37.3311 -64.001 -51.998s-17.333 -34.334 -18 -59.001l-1 -25c-0.666992 -21.333 -12 -32 -34 -32c-22.667 0 -34 16.333 -34 49c0 39.333 9 73.333 27 102c14 22.667 41 47.334 81 74.001
c28.667 19.333 48.334 37 59.001 53s16 36 16 60c0 36 -10.833 65.5 -32.5 88.5s-49.5 34.5 -83.5 34.5s-63.5 -11.333 -88.5 -34s-37.5 -49.334 -37.5 -80.001c0 -11.333 2.66699 -17 8 -17c1.33301 0 4.33301 1.66699 9 5c8 7.33301 15.667 11 23 11
c11.333 0 20.833 -4.5 28.5 -13.5s11.5 -20.5 11.5 -34.5c0 -18.667 -6 -34.5 -18 -47.5s-26.667 -19.5 -44 -19.5c-24.667 0 -44.667 10.167 -60 30.5s-23 46.166 -23 77.499c0 54.667 18.167 99.667 54.5 135s82.5 53 138.5 53s101 -17.167 135 -51.5
s51 -79.833 51 -136.5c0 -70.667 -34.667 -127.667 -104 -171z" />
    <glyph glyph-name="at" unicode="@" horiz-adv-x="694" 
d="M397 201c0 2 0.665039 6.33301 1.99805 13c-26 -38.667 -65.333 -58 -118 -58c-31.333 0 -56.833 10.833 -76.5 32.5s-29.5 49.834 -29.5 84.501c0 60.667 22 114.167 66 160.5s95 69.5 153 69.5c16 0 30.667 -2 44 -6l20 -6c2 -0.666992 5.33301 -1 10 -1
c5.33301 0 11 1.66699 17 5c10.667 4.66699 18 7 22 7c10 0 15 -4.33301 15 -13c0 -4.66699 -0.333008 -8.33398 -1 -11.001l-5 -19l-58 -213c-2 -8 -3 -14.333 -3 -19c0 -12 6.33301 -18 19 -18c24.667 0 48 16 70 48c30 43.333 45 95 45 155
c0 55.333 -18.167 101.333 -54.5 138s-82.166 55 -137.499 55c-78 0 -145.833 -31.333 -203.5 -94s-86.5 -135.667 -86.5 -219c0 -65.333 21 -119.833 63 -163.5s94.667 -65.5 158 -65.5c36.667 0 67.334 4.5 92.001 13.5s55 26.5 91 52.5c14 10 25.333 15 34 15
c12.667 0 19 -6 19 -18c0 -11.333 -9 -24 -27 -38c-68 -52 -140.667 -78 -218 -78c-80.667 0 -147.667 26.833 -201 80.5s-80 120.834 -80 201.501c0 97.333 36.167 182.166 108.5 254.499s157.833 108.5 256.5 108.5c74.667 0 135.5 -22.167 182.5 -66.5
s70.5 -101.833 70.5 -172.5c0 -78 -29.333 -147 -88 -207c-35.333 -36 -72 -54 -110 -54c-17.333 0 -31.833 4.33301 -43.5 13s-17.5 19.667 -17.5 33zM418.998 337l27.002 100c-20.667 10 -40.334 15 -59.001 15c-38.667 0 -72.334 -17 -101.001 -51s-43 -73.667 -43 -119
c0 -46 20 -69 60 -69c55.333 0 94 41.333 116 124z" />
    <glyph glyph-name="A" unicode="A" horiz-adv-x="564" 
d="M123 202l116.002 423c6 20 11 32.667 15 38c7.33301 11.333 18.666 17 33.999 17c18.667 0 31.334 -4.5 38.001 -13.5s15 -33.833 25 -74.5l115 -457c8 -28.667 14.667 -47.5 20 -56.5s12.666 -13.5 21.999 -13.5c2.66699 0 8.66699 0.666992 18 2
c2 0 4.33301 0.333008 7 1h5c21.333 0 32 -11.333 32 -34c0 -26 -11.333 -39 -34 -39c-2.66699 0 -18 2.66699 -46 8c-14 2.66699 -28.667 4 -44 4c-12 0 -28.5 -2 -49.5 -6s-35.167 -6 -42.5 -6c-9.33301 0 -17.666 3.66699 -24.999 11s-11 16.333 -11 27
c0 23.333 11 35 33 35c4 0 7 -0.333008 9 -1h7c2.66699 -0.666992 4.33398 -1 5.00098 -1c15.333 0 23 10.667 23 32c0 11.333 -2 25.333 -6 42l-18 74c-2.66699 10.667 -5.33398 17.167 -8.00098 19.5s-8.33398 3.5 -17.001 3.5h-121c-14 0 -24 -11.667 -30 -35l-18 -71
c-4.66699 -18.667 -7 -33.667 -7 -45c0 -12.667 6 -19 18 -19c4.66699 0 8 0.166992 10 0.5s4.33301 0.833008 7 1.5h6c21.333 0 32 -12 32 -36c0 -25.333 -11 -38 -33 -38c-8.66699 0 -22.334 2 -41.001 6s-33.334 6 -44.001 6c-14.667 0 -32 -2 -52 -6s-34 -6 -42 -6
c-24 0 -36 12.333 -36 37c0 24 10.333 36 31 36c4 0 9.33301 -0.666992 16 -2s11.667 -2 15 -2c10.667 0 20.834 10 30.501 30s21.5 56 35.5 108zM346.002 327l-55 247l-64 -247c-1.33301 -5.33301 -2 -9 -2 -11c0 -8.66699 6.33301 -13 19 -13h87c11.333 0 17 4 17 12
c0 2 -0.666992 6 -2 12z" />
    <glyph glyph-name="B" unicode="B" horiz-adv-x="540" 
d="M467 509c0 -67.333 -30.001 -115.335 -90.001 -144.002c78 -31.333 117 -87.333 117 -168c0 -56.667 -18.333 -104.5 -55 -143.5s-81.334 -58.5 -134.001 -58.5c-18 0 -45 2.33301 -81 7c-26 3.33301 -48.667 5 -68 5c-10.667 0 -26.334 -2 -47.001 -6s-36 -6 -46 -6
c-10.667 0 -19.5 3.83301 -26.5 11.5s-10.5 17.167 -10.5 28.5c0 22 10.667 33 32 33c6.66699 0 11.667 -0.666992 15 -2c10.667 -1.33301 16.667 -2 18 -2c12.667 0 20.667 9.83301 24 29.5s5 67.834 5 144.501v190c0 77.333 -1.66699 125.833 -5 145.5
s-11.333 29.5 -24 29.5c-3.33301 0 -8.66602 -0.833008 -15.999 -2.5s-13 -2.5 -17 -2.5c-21.333 0 -32 11.333 -32 34c0 26 12.667 39 38 39c11.333 0 28.5 -1.83301 51.5 -5.5s40.167 -5.5 51.5 -5.5c24 0 48.333 1.33301 73 4s46.334 4 65.001 4
c48.667 0 87.834 -14.667 117.501 -44s44.5 -67.666 44.5 -114.999zM190.999 532.998l-0.000976562 -115c0 -10.667 1 -17.5 3 -20.5s7.33301 -4.5 16 -4.5h33c52.667 0 90.334 8.16699 113.001 24.5s34 43.833 34 82.5c0 67.333 -38.667 101 -116 101
c-33.333 0 -55.5 -4.5 -66.5 -13.5s-16.5 -27.167 -16.5 -54.5zM262.998 325.998c-28.667 0 -44.333 -0.333008 -47 -1c-16.667 -3.33301 -25 -13.333 -25 -30l1 -151c0.666992 -34 6.5 -56.5 17.5 -67.5s33.833 -16.5 68.5 -16.5c91.333 0 137 45 137 135
c0 57.333 -18.667 96 -56 116c-18.667 10 -50.667 15 -96 15z" />
    <glyph glyph-name="C" unicode="C" horiz-adv-x="514" 
d="M265 679c54 0 96.002 -21.6689 126.002 -65.002v10c0 22 2.16699 36.833 6.5 44.5s12.166 11.5 23.499 11.5c20 0 30 -12.667 30 -38c0 -12.667 -1.16699 -31.834 -3.5 -57.501s-3.5 -45.167 -3.5 -58.5c0 -15.333 1 -34.666 3 -57.999s3 -40.666 3 -51.999
c0 -28.667 -11.333 -43 -34 -43c-21.333 0 -32 13 -32 39c0 5.33301 0.333008 13 1 23s1 17.667 1 23c0 46 -10.667 82.667 -32 110s-49.666 41 -84.999 41c-47.333 0 -84.833 -24.5 -112.5 -73.5s-41.5 -115.167 -41.5 -198.5c0 -82.667 14.333 -149.5 43 -200.5
s66.667 -76.5 114 -76.5c36.667 0 66.5 13.333 89.5 40s36.5 63.334 40.5 110.001c2 23.333 5.66699 38.833 11 46.5s15 11.5 29 11.5c21.333 0 32 -12.667 32 -38c0 -68.667 -19.833 -126.167 -59.5 -172.5s-88.834 -69.5 -147.501 -69.5
c-69.333 0 -124.5 31.333 -165.5 94s-61.5 147.667 -61.5 255c0 102 20.667 184.5 62 247.5s95.666 94.5 162.999 94.5z" />
    <glyph glyph-name="D" unicode="D" horiz-adv-x="570" 
d="M91 64c12.667 0 20.667 9.83203 24 29.499s5 67.834 5 144.501v190c0 77.333 -1.66699 125.833 -5 145.5s-11.333 29.5 -24 29.5c-3.33301 0 -8.66602 -0.833008 -15.999 -2.5s-13 -2.5 -17 -2.5c-21.333 0 -32 11.333 -32 34c0 26 12.667 39 38 39
c12 0 31 -2.33301 57 -7c14.667 -2.66699 30 -4 46 -4c11.333 0 36 1.66699 74 5c15.333 1.33301 31.666 2 48.999 2c160 0 240 -111.667 240 -335s-82.667 -335 -248 -335c-14 0 -33 1.33301 -57 4c-36 4 -60 6 -72 6c-10.667 0 -25 -1.66699 -43 -5
c-25.333 -4.66699 -41 -7 -47 -7c-10.667 0 -19.5 3.83301 -26.5 11.5s-10.5 17.167 -10.5 28.5c0 22 10.667 33 32 33c6.66699 0 11.667 -0.666992 15 -2c10.667 -1.33301 16.667 -2 18 -2zM192 116.999c0.666992 -25.333 10.334 -41.3301 29.001 -47.9971
c10 -4 30.667 -6 62 -6c54.667 0 95.334 20.333 122.001 61c35.333 54 53 125.333 53 214c0 71.333 -10.833 129.166 -32.5 173.499s-51.834 71.166 -90.501 80.499c-22.667 5.33301 -46.334 8 -71.001 8c-34 0 -55.333 -6.66699 -64 -20c-6 -8.66699 -9 -30.334 -9 -65.001
v-6z" />
    <glyph glyph-name="E" unicode="E" horiz-adv-x="539" 
d="M191 497l-0.00292969 -62.0039l1 -21c0.666992 -18.667 7 -28 19 -28h39c27.333 0 41 15.667 41 47c0 10 -0.333008 18.333 -1 25c-2 19.333 -3 30.333 -3 33c0 25.333 10 38 30 38c19.333 0 29 -15.667 29 -47v-21l-4 -54c-1.33301 -18 -2 -36.333 -2 -55
c0 -32.667 1.66699 -65.334 5 -98.001c1.33301 -13.333 2 -22 2 -26c0 -26.667 -10 -40 -30 -40c-19.333 0 -29 13.667 -29 41c0 6 0.5 15.333 1.5 28s1.5 22 1.5 28c0 28 -12.667 42 -38 42h-42c-9.33301 0 -15 -2 -17 -6s-3 -15.333 -3 -34v-70
c0 -7.33301 0.333008 -24.333 1 -51v-48c0 -22.667 5.66699 -37 17 -43c8 -4 24.333 -6 49 -6h54c44 0 73 6 87 18s21 37 21 75c0 8.66699 -0.666992 21.5 -2 38.5s-2 29.833 -2 38.5c0 30 11 45 33 45s33 -13.333 33 -40c0 -4.66699 -0.666992 -15.667 -2 -33
c-4 -22.667 -6 -48.667 -6 -78c0 -9.33301 0.333008 -23.666 1 -42.999s1 -33.666 1 -42.999c0 -18 -3.66699 -30.5 -11 -37.5s-20.666 -10.5 -39.999 -10.5c-11.333 0 -25.666 1 -42.999 3c-28.667 3.33301 -70.667 5 -126 5c-4.66699 0 -31.667 -1 -81 -3
c-27.333 -1.33301 -46.666 -2.66602 -57.999 -3.99902c-24 -3.33301 -41.333 -5 -52 -5c-26 0 -39 13.333 -39 40c0 22 10.667 33 32 33c6.66699 0 11.667 -0.666992 15 -2c10.667 -1.33301 16.667 -2 18 -2c12.667 0 20.667 9.83301 24 29.5s5 67.834 5 144.501v190
c0 77.333 -1.66699 125.833 -5 145.5s-11.333 29.5 -24 29.5c-3.33301 0 -8.66602 -0.833008 -15.999 -2.5s-13 -2.5 -17 -2.5c-21.333 0 -32 11.333 -32 34c0 26 12.667 39 38 39c6 0 28 -2.66699 66 -8c14 -2 31.333 -3 52 -3c52.667 0 108.667 2.33301 168 7
c16.667 1.33301 38.334 2 65.001 2c29.333 0 45.666 -7.66699 48.999 -23c1.33301 -6.66699 2 -16 2 -28c0 -9.33301 -0.333008 -21.666 -1 -36.999c-2 -42.667 -2 -77.334 0 -104.001l3 -48c0 -27.333 -10.333 -41 -31 -41c-22.667 0 -34 15 -34 45
c0 8.66699 0.333008 21.167 1 37.5s1 28.833 1 37.5c0 36.667 -5.33301 61.334 -16 74.001s-31.334 19 -62.001 19h-77c-26.667 0 -43.167 -5.66699 -49.5 -17s-9.5 -40.333 -9.5 -87z" />
    <glyph glyph-name="F" unicode="F" horiz-adv-x="502" 
d="M193 529l-1.00293 -32.998v-82c0 -16 1.33301 -26 4 -30s9.66699 -6 21 -6h23c34 0 51 15 51 45c0 4 -1 14.333 -3 31v17c0 26 10 39 30 39s30 -11.333 30 -34c0 -18.667 -1.5 -46.667 -4.5 -84s-4.5 -65.333 -4.5 -84c0 -12 2 -32 6 -60c2 -14 3 -25.333 3 -34
c0 -27.333 -10 -41 -30 -41c-21.333 0 -32 15.667 -32 47c0 5.33301 0.333008 13.666 1 24.999s1 20 1 26c0 27.333 -12.667 41 -38 41h-34c-12 0 -19 -2.5 -21 -7.5s-3 -12.167 -3 -21.5v-55l2 -119c0.666992 -30 11.334 -45 32.001 -45
c4.66699 0 11.334 0.833008 20.001 2.5s15.334 2.5 20.001 2.5c20.667 0 31 -10.667 31 -32c0 -26 -11.667 -39 -35 -39c-10.667 0 -26.667 1.5 -48 4.5s-37.333 4.5 -48 4.5c-12.667 0 -30.167 -2 -52.5 -6s-38.833 -6 -49.5 -6s-19.667 3.83301 -27 11.5
s-11 17.167 -11 28.5c0 22 10.667 33 32 33c6.66699 0 11.667 -0.666992 15 -2c10.667 -1.33301 16.667 -2 18 -2c12.667 0 20.667 9.83301 24 29.5s5 67.834 5 144.501v190c0 77.333 -1.66699 125.833 -5 145.5s-11.333 29.5 -24 29.5
c-3.33301 0 -8.66602 -0.833008 -15.999 -2.5s-13 -2.5 -17 -2.5c-21.333 0 -32 11.333 -32 34c0 11.333 3.5 20.666 10.5 27.999s15.833 11 26.5 11c8.66699 0 28 -2.66699 58 -8c11.333 -2 28.333 -3 51 -3c9.33301 0 39 0.333008 89 1c16 0 42 1 78 3c33.333 2 59 3 77 3
c19.333 0 32.666 -2.5 39.999 -7.5s11 -17.167 11 -36.5c0 -10.667 -0.333008 -25.334 -1 -44.001l-2 -55l1 -45l3 -48v-7c0 -25.333 -10 -38 -30 -38c-24.667 0 -37 14.333 -37 43c0 4 0 5.66699 0 5l3 40c0.666992 2.66699 1 8.33398 1 17.001
c0 43.333 -4.66699 71.666 -14 84.999s-29.333 20 -60 20h-73c-43.333 0 -65 -13 -65 -39v-28z" />
    <glyph glyph-name="G" unicode="G" horiz-adv-x="546" 
d="M263 680c46 0 88.6631 -18.668 127.996 -56.001c-1.33301 7.33301 -2 14.666 -2 21.999c0 25.333 10 38 30 38s30 -12 30 -36c0 -6 -1 -22.667 -3 -50c-2.66699 -29.333 -4 -53.333 -4 -72c0 -9.33301 0.833008 -23.166 2.5 -41.499s2.5 -32.166 2.5 -41.499
c0 -26.667 -11.333 -40 -34 -40c-20 0 -30 12.667 -30 38v27c0 94.667 -38.333 142 -115 142c-49.333 0 -86 -22.667 -110 -68c-29.333 -55.333 -44 -123.333 -44 -204c0 -82.667 15.667 -153 47 -211c24.667 -45.333 59.334 -68 104.001 -68c35.333 0 63.833 14 85.5 42
s32.5 65.333 32.5 112c0 44 -10 66 -30 66c-5.33301 0 -13.333 -1 -24 -3s-18.667 -3 -24 -3c-8.66699 0 -16 3.5 -22 10.5s-9 15.5 -9 25.5c0 24 11.667 36 35 36c10.667 0 26.334 -1.66699 47.001 -5s36.334 -5 47.001 -5c12 0 29.333 2.16699 52 6.5s39.667 6.5 51 6.5
c22 0 33 -12.333 33 -37c0 -22.667 -10 -34 -30 -34c-3.33301 0 -6 0.333008 -8 1c-13.333 1.33301 -19.666 2 -18.999 2c-10.667 0 -18.167 -6.83301 -22.5 -20.5s-6.5 -38.167 -6.5 -73.5c0 -10.667 0.333008 -25.667 1 -45l2 -59l3 -48v-5c0 -26.667 -10.667 -40 -32 -40
s-32 11.667 -32 35c0 4 1 18 3 42c-37.333 -52.667 -83.333 -79 -138 -79c-66.667 0 -120 31.333 -160 94s-60 145.667 -60 249c0 106.667 20.167 191.667 60.5 255s94.5 95 162.5 95z" />
    <glyph glyph-name="H" unicode="H" horiz-adv-x="610" 
d="M416 238l-0.00390625 51.002c0 12 -1.16699 19.5 -3.5 22.5s-7.83301 4.5 -16.5 4.5c-3.33301 0.666992 -11 1 -23 1h-158c-7.33301 0 -12 -1.66699 -14 -5c-4 -4 -6 -18 -6 -42v-32v-99c3.33301 -50 13 -75 29 -75c1.33301 0 7.33301 0.666992 18 2c4 1.33301 9 2 15 2
c9.33301 0 17.166 -3.16699 23.499 -9.5s9.5 -14.166 9.5 -23.499c0 -11.333 -3.66699 -20.833 -11 -28.5s-16.333 -11.5 -27 -11.5c-7.33301 0 -23.666 2.33301 -48.999 7c-18 3.33301 -33 5 -45 5c-10.667 0 -26.334 -2 -47.001 -6s-36.334 -6 -47.001 -6
s-19.667 3.83301 -27 11.5s-11 17.167 -11 28.5c0 22 10.667 33 32 33c6.66699 0 11.667 -0.666992 15 -2c10.667 -1.33301 16.667 -2 18 -2c12.667 0 20.667 9.83301 24 29.5s5 67.834 5 144.501v190c0 77.333 -1.66699 125.833 -5 145.5s-11.333 29.5 -24 29.5
c-3.33301 0 -8.66602 -0.833008 -15.999 -2.5s-13 -2.5 -17 -2.5c-21.333 0 -32 11.333 -32 34c0 26 12.667 39 38 39c12 0 26 -1.66699 42 -5c18.667 -4 38.667 -6 60 -6c10 0 24.5 1.83301 43.5 5.5s33.167 5.5 42.5 5.5c10.667 0 19.667 -3.83301 27 -11.5
s11 -16.834 11 -27.501c0 -9.33301 -3.16699 -17.333 -9.5 -24s-14.166 -10 -23.499 -10c-4 0 -9.5 0.833008 -16.5 2.5s-12.5 2.5 -16.5 2.5c-16 0 -25.667 -25.333 -29 -76c0 0.666992 0 -32.333 0 -99v-8l1 -13c0.666992 -12.667 3.66699 -20.334 9 -23.001
s20.333 -4 45 -4h116c22.667 0 36.667 2.16699 42 6.5s8 15.5 8 33.5v8c0 66.667 0 99.667 0 99c-3.33301 50.667 -13 76 -29 76c-4.66699 0 -10.834 -0.833008 -18.501 -2.5s-12.5 -2.5 -14.5 -2.5c-9.33301 0 -17.166 3.33301 -23.499 10s-9.5 14.667 -9.5 24
c0 11.333 3.83301 20.666 11.5 27.999s16.834 11 27.501 11s26.834 -1.83301 48.501 -5.5s38.167 -5.5 49.5 -5.5c10.667 0 26 1.83301 46 5.5s34.333 5.5 43 5.5c10.667 0 19.667 -3.83301 27 -11.5s11 -16.834 11 -27.501c0 -9.33301 -3.16699 -17.333 -9.5 -24
s-14.166 -10 -23.499 -10c-4 0 -9.5 0.833008 -16.5 2.5s-12.5 2.5 -16.5 2.5c-16 0 -25.667 -25.333 -29 -76c0 0.666992 0 -32.333 0 -99v-190v-99c3.33301 -50 13 -75 29 -75c1.33301 0 7.33301 0.666992 18 2c4 1.33301 9 2 15 2c9.33301 0 17.166 -3.16699 23.499 -9.5
s9.5 -14.166 9.5 -23.499c0 -11.333 -3.66699 -20.833 -11 -28.5s-16.666 -11.5 -27.999 -11.5c-10 0 -25.667 2 -47 6s-38 6 -50 6c-10 0 -25 -2 -45 -6s-35 -6 -45 -6c-10.667 0 -19.667 3.83301 -27 11.5s-11 17.167 -11 28.5c0 9.33301 3.33301 17.166 10 23.499
s14.334 9.5 23.001 9.5c6 0 11 -0.666992 15 -2c9.33301 -1.33301 15.333 -2 18 -2c16 0 25.667 25 29 75v99z" />
    <glyph glyph-name="I" unicode="I" horiz-adv-x="313" 
d="M91 64c12.667 0 20.6641 9.83203 23.9971 29.499s5 67.834 5 144.501v190c0 77.333 -1.66699 125.833 -5 145.5s-11.333 29.5 -24 29.5c-3.33301 0 -8.66602 -0.833008 -15.999 -2.5s-13 -2.5 -17 -2.5c-21.333 0 -32 11.333 -32 34c0 26 12.667 39 38 39
c10 0 25 -1.83301 45 -5.5s35 -5.5 45 -5.5c10.667 0 26.334 1.83301 47.001 5.5s36.334 5.5 47.001 5.5c26 0 39 -13 39 -39c0 -22.667 -11 -34 -33 -34c-2 0 -6.66699 0.833008 -14 2.5s-13.666 2.5 -18.999 2.5c-12.667 0 -20.5 -9.83301 -23.5 -29.5
s-4.5 -68.167 -4.5 -145.5v-190c0 -76.667 1.5 -124.834 4.5 -144.501s10.833 -29.5 23.5 -29.5c2.66699 0 8.66699 0.666992 18 2c4 1.33301 9 2 15 2c9.33301 0 17.166 -3.16699 23.499 -9.5s9.5 -14.166 9.5 -23.499c0 -11.333 -3.66699 -20.833 -11 -28.5
s-16.333 -11.5 -27 -11.5c-3.33301 0 -19.333 2.66699 -48 8c-14.667 2.66699 -28.667 4 -42 4c-12 0 -28.5 -2 -49.5 -6s-36.167 -6 -45.5 -6c-10.667 0 -19.667 3.83301 -27 11.5s-11 17.167 -11 28.5c0 22 10.667 33 32 33c6.66699 0 11.667 -0.666992 15 -2
c10.667 -1.33301 16.667 -2 18 -2z" />
    <glyph glyph-name="J" unicode="J" horiz-adv-x="493" 
d="M118 238c0 10 3.3291 20 9.99609 30c-27.333 -13.333 -41 -39 -41 -77c0 -38.667 10 -69.667 30 -93s46 -35 78 -35c23.333 0 45 7 65 21s34.333 32.333 43 55c8 20.667 13 40.667 15 60s3 58.666 3 117.999v111c0 66.667 0 99.667 0 99c-3.33301 50.667 -13 76 -29 76
c-4 0 -9.5 -0.833008 -16.5 -2.5s-12.5 -2.5 -16.5 -2.5c-9.33301 0 -17.166 3.33301 -23.499 10s-9.5 14.667 -9.5 24c0 10.667 3.66699 19.834 11 27.501s16.333 11.5 27 11.5c10 0 24.833 -1.83301 44.5 -5.5s34.834 -5.5 45.501 -5.5c12 0 28.667 1.83301 50 5.5
s36.666 5.5 45.999 5.5c10.667 0 19.667 -3.83301 27 -11.5s11 -16.834 11 -27.501c0 -9.33301 -3.16699 -17.333 -9.5 -24s-14.166 -10 -23.499 -10c-2 0 -6.66699 0.833008 -14 2.5s-13.666 2.5 -18.999 2.5c-16 0 -25.667 -25.333 -29 -76c0 0.666992 0 -32.333 0 -99
v-181c0 -84.667 -18.833 -149.167 -56.5 -193.5s-85.167 -66.5 -142.5 -66.5c-51.333 0 -93.166 18.833 -125.499 56.5s-48.5 85.834 -48.5 144.501c0 43.333 10.333 79 31 107s46.667 42 78 42c21.333 0 39.333 -7.83301 54 -23.5s22 -35.5 22 -59.5
c0 -18 -4.33301 -32.667 -13 -44s-20 -17 -34 -17c-26.667 0 -40 15 -40 45z" />
    <glyph glyph-name="K" unicode="K" horiz-adv-x="607" 
d="M394 123l-128.006 231.999l-74 -87v-30v-99c3.33301 -50 13 -75 29 -75c2.66699 0 8.66699 0.666992 18 2c4 1.33301 9 2 15 2c9.33301 0 17.166 -3.16699 23.499 -9.5s9.5 -14.166 9.5 -23.499c0 -11.333 -3.66699 -20.833 -11 -28.5s-16.333 -11.5 -27 -11.5
c-5.33301 0 -20.333 2.33301 -45 7c-17.333 3.33301 -32.666 5 -45.999 5c-10.667 0 -26.334 -2 -47.001 -6s-36.334 -6 -47.001 -6s-19.667 3.83301 -27 11.5s-11 17.167 -11 28.5c0 22 10.667 33 32 33c6.66699 0 11.667 -0.666992 15 -2c10.667 -1.33301 16.667 -2 18 -2
c12.667 0 20.667 9.83301 24 29.5s5 67.834 5 144.501v190c0 77.333 -1.66699 125.833 -5 145.5s-11.333 29.5 -24 29.5c-3.33301 0 -8.66602 -0.833008 -15.999 -2.5s-13 -2.5 -17 -2.5c-21.333 0 -32 11.333 -32 34c0 26 13 39 39 39c12 0 27.333 -1.66699 46 -5
c22 -4 39 -6 51 -6c13.333 0 26.333 1.33301 39 4c22 4.66699 38 7 48 7c10.667 0 19.667 -3.83301 27 -11.5s11 -16.834 11 -27.501c0 -9.33301 -3.16699 -17.333 -9.5 -24s-14.166 -10 -23.499 -10c-2 0 -6.66699 0.833008 -14 2.5s-13.666 2.5 -18.999 2.5
c-16 0 -25.667 -25.333 -29 -76c0 0.666992 0 -32.333 0 -99v-63l125 136c46.667 50.667 70 80.667 70 90c0 6 -3.66699 9 -11 9c-2.66699 0 -6.5 -0.5 -11.5 -1.5s-8.83301 -1.5 -11.5 -1.5c-20.667 0 -31 12.667 -31 38c0 24 11.333 36 34 36c8 0 18 -1.33301 30 -4
c16 -3.33301 26.333 -5 31 -5c8.66699 -1.33301 19.334 -2 32.001 -2c10.667 0 26.334 1.83301 47.001 5.5s36 5.5 46 5.5c24.667 0 37 -12 37 -36c0 -10 -3.16699 -18.5 -9.5 -25.5s-14.166 -10.5 -23.499 -10.5c-6 0 -11 0.666992 -15 2
c-9.33301 1.33301 -14.666 2 -15.999 2c-10.667 0 -25 -9.66699 -43 -29l-34 -37l-121 -126l176 -309c9.33301 -16 16.5 -26.167 21.5 -30.5s11.833 -6.5 20.5 -6.5c7.33301 0 13 0.666992 17 2c10.667 1.33301 17 2 19 2c20.667 0 31 -12 31 -36c0 -25.333 -12 -38 -36 -38
c-10.667 0 -26.667 2 -48 6s-37.666 6 -48.999 6c-10.667 0 -26.5 -2 -47.5 -6s-36.833 -6 -47.5 -6c-24.667 0 -37 12.667 -37 38c0 24.667 11.667 37 35 37c3.33301 0 7.83301 -0.5 13.5 -1.5s10.167 -1.5 13.5 -1.5c8.66699 0 13 4 13 12c0 8.66699 -2.33301 17 -7 25z
" />
    <glyph glyph-name="L" unicode="L" horiz-adv-x="502" 
d="M190 428l1 -265.999c0.666992 -47.333 3.5 -75.833 8.5 -85.5s19.5 -14.5 43.5 -14.5h63c43.333 0 71.333 5 84 15s19 31.667 19 65v4c0 15.333 -0.333008 30 -1 44c0 8.66699 -0.333008 17.667 -1 27s-1 14.333 -1 15c0 31.333 11.667 47 35 47
c22.667 0 34 -13.667 34 -41c0 -6.66699 -0.666992 -18.334 -2 -35.001c-3.33301 -40.667 -5 -67.334 -5 -80.001c0 -16 0.666992 -31.667 2 -47c2 -23.333 3 -35.666 3 -36.999c0 -28 -14.333 -42 -43 -42c-8.66699 0 -22.334 1 -41.001 3
c-7.33301 0.666992 -29.666 2 -66.999 4c-40 2 -65.667 3 -77 3c-54.667 0 -95.334 -2 -122.001 -6s-46.334 -6 -59.001 -6c-25.333 0 -38 13.333 -38 40c0 22 10.667 33 32 33c6.66699 0 11.667 -0.666992 15 -2c10.667 -1.33301 16.667 -2 18 -2
c12.667 0 20.667 9.83301 24 29.5s5 67.834 5 144.501v190c0 77.333 -1.66699 125.833 -5 145.5s-11.333 29.5 -24 29.5c-3.33301 0 -8.66602 -0.833008 -15.999 -2.5s-13 -2.5 -17 -2.5c-21.333 0 -32 11.333 -32 34c0 26 12.667 39 38 39c9.33301 0 24 -1.83301 44 -5.5
s35.667 -5.5 47 -5.5c10.667 0 26 1.83301 46 5.5s35 5.5 45 5.5c10.667 0 19.667 -3.83301 27 -11.5s11 -16.834 11 -27.501c0 -22.667 -11 -34 -33 -34c-2 0 -6.66699 0.833008 -14 2.5s-13.666 2.5 -18.999 2.5c-12.667 0 -20.5 -9.83301 -23.5 -29.5
s-4.5 -68.167 -4.5 -145.5z" />
    <glyph glyph-name="M" unicode="M" horiz-adv-x="712" 
d="M244 612l113.001 -504.005l112 516c6.66699 29.333 17.334 44 32.001 44c-0.666992 0 11.333 -2 36 -6c7.33301 -1.33301 15.333 -2 24 -2c10 0 24.5 1.83301 43.5 5.5s33.5 5.5 43.5 5.5c11.333 0 20.666 -3.66699 27.999 -11s11 -16.666 11 -27.999
c0 -9.33301 -3.16699 -17.333 -9.5 -24s-14.166 -10 -23.499 -10c-4 0 -9 0.666992 -15 2c-8.66699 2 -14.667 3 -18 3c-16 0 -25.667 -25.333 -29 -76c0 0.666992 0 -32.333 0 -99v-190v-99c3.33301 -50 13 -75 29 -75c1.33301 0 7.33301 0.666992 18 2
c3.33301 1.33301 8.33301 2 15 2c9.33301 0 17.166 -3.16699 23.499 -9.5s9.5 -14.166 9.5 -23.499c0 -11.333 -3.66699 -20.833 -11 -28.5s-16.666 -11.5 -27.999 -11.5c-10.667 0 -26.167 2 -46.5 6s-35.833 6 -46.5 6c-10 0 -23.833 -2 -41.5 -6s-31.167 -6 -40.5 -6
c-8.66699 0 -16.167 3.66699 -22.5 11s-9.5 16 -9.5 26c0 22.667 11.667 34 35 34h13c1.33301 -0.666992 4 -1 8 -1c16.667 0 25.667 15 27 45l2 42l2 85v375l-130 -598c-4 -18 -17.333 -27 -40 -27c-24 0 -38 9 -42 27l-132 589v-358
c0 -79.333 1.66699 -129.166 5 -149.499s11.333 -30.5 24 -30.5c3.33301 0 8.33301 0.5 15 1.5s11.667 1.5 15 1.5c22 0 33 -11.667 33 -35c0 -25.333 -11.333 -38 -34 -38c-7.33301 0 -19.333 2 -36 6s-32.667 6 -48 6c-10.667 0 -26.334 -2 -47.001 -6
s-36.334 -6 -47.001 -6c-25.333 0 -38 13.333 -38 40c0 22 10.667 33 32 33c6.66699 0 11.667 -0.666992 15 -2c10.667 -1.33301 16.667 -2 18 -2c12.667 0 20.667 9.83301 24 29.5s5 67.834 5 144.501v184c0 76.667 -1.66699 124.834 -5 144.501s-11.333 29.5 -24 29.5
c-1.33301 0 -7.33301 -0.666992 -18 -2c-3.33301 -1.33301 -8.33301 -2 -15 -2c-21.333 0 -32 11 -32 33c0 11.333 3.66699 20.833 11 28.5s16.333 11.5 27 11.5c4.66699 0 15.334 -1 32.001 -3c6 -1.33301 17.667 -2 35 -2c9.33301 0 22.666 1 39.999 3s30 3 38 3
c12 0 20.667 -6.33301 26 -19c1.33301 -4 4.33301 -15.667 9 -35z" />
    <glyph glyph-name="N" unicode="N" horiz-adv-x="584" 
d="M230 640l182.999 -543v331c0 66.667 0 99.667 0 99c-3.33301 50.667 -13 76 -29 76c-4 0 -9.5 -0.833008 -16.5 -2.5s-12.5 -2.5 -16.5 -2.5c-9.33301 0 -17.166 3.33301 -23.499 10s-9.5 14.667 -9.5 24c0 10.667 3.66699 19.834 11 27.501s16.333 11.5 27 11.5
c8.66699 0 23.667 -2.33301 45 -7c12 -2.66699 27 -4 45 -4c20 0 35.333 1.33301 46 4c19.333 4.66699 32.666 7 39.999 7c8.66699 0 16.167 -3.66699 22.5 -11s9.5 -16.333 9.5 -27c0 -23.333 -10 -35 -30 -35c-2.66699 0 -7 0.5 -13 1.5s-10.667 1.5 -14 1.5
c-14.667 0 -23 -15.333 -25 -46l-3 -49l-1 -75v-367c0 -46.667 -17 -70 -51 -70c-30 0 -52 21 -66 63l-175 522v-341c0 -76.667 1.66699 -124.834 5 -144.501s11.333 -29.5 24 -29.5c2 0 7.66699 0.666992 17 2c4 1.33301 9.33301 2 16 2c21.333 0 32 -11 32 -33
c0 -10.667 -3.66699 -20 -11 -28s-16 -12 -26 -12c-2.66699 0 -16.667 3 -42 9c-8.66699 2 -23 3 -43 3c-16.667 0 -33.667 -1.66699 -51 -5c-24.667 -4.66699 -39.334 -7 -44.001 -7c-10.667 0 -19.5 3.83301 -26.5 11.5s-10.5 17.167 -10.5 28.5c0 22 10.667 33 32 33
c6.66699 0 11.667 -0.666992 15 -2c10.667 -1.33301 16.667 -2 18 -2c12.667 0 20.667 9.83301 24 29.5s5 67.834 5 144.501v190c0 77.333 -1.66699 125.833 -5 145.5s-11.333 29.5 -24 29.5c-3.33301 0 -8.66602 -0.833008 -15.999 -2.5s-13 -2.5 -17 -2.5
c-21.333 0 -32 11.333 -32 34c0 11.333 3.5 20.666 10.5 27.999s15.833 11 26.5 11c7.33301 0 20 -2 38 -6c14.667 -3.33301 30.334 -5 47.001 -5c2.66699 0 16.667 2 42 6c6 0.666992 11 1 15 1c10.667 0 19 -9 25 -27z" />
    <glyph glyph-name="O" unicode="O" horiz-adv-x="509" 
d="M255 -13c-65.333 0 -117.5 31.333 -156.5 94s-58.5 146.667 -58.5 252s19.5 189.5 58.5 252.5s91.167 94.5 156.5 94.5s117.333 -31.333 156 -94s58 -147 58 -253c0 -105.333 -19.333 -189.333 -58 -252s-90.667 -94 -156 -94zM256 610
c-44.667 0 -79.167 -24.334 -103.5 -73.001s-36.5 -116.667 -36.5 -204c0 -86 12.167 -153.5 36.5 -202.5s57.833 -73.5 100.5 -73.5c44 0 78.333 24.333 103 73s37 116.334 37 203.001c0 86 -12.167 153.667 -36.5 203s-57.833 74 -100.5 74z" />
    <glyph glyph-name="P" unicode="P" horiz-adv-x="497" 
d="M262 282l-50.002 -0.00195312c-9.33301 0 -15.166 -1.83301 -17.499 -5.5s-3.5 -12.167 -3.5 -25.5v-13v-99c3.33301 -50 13 -75 29 -75c1.33301 0 7.33301 0.666992 18 2c3.33301 1.33301 8.33301 2 15 2c9.33301 0 17.166 -3.16699 23.499 -9.5
s9.5 -14.166 9.5 -23.499c0 -11.333 -3.66699 -20.833 -11 -28.5s-16.333 -11.5 -27 -11.5c-2.66699 0 -19 2.66699 -49 8c-10 2.66699 -24.333 4 -43 4c-11.333 0 -27.5 -2 -48.5 -6s-35.833 -6 -44.5 -6c-10.667 0 -19.5 3.83301 -26.5 11.5s-10.5 17.167 -10.5 28.5
c0 22 10.667 33 32 33c6.66699 0 11.667 -0.666992 15 -2c10.667 -1.33301 16.667 -2 18 -2c12.667 0 20.667 9.83301 24 29.5s5 67.834 5 144.501v190c0 77.333 -1.66699 125.833 -5 145.5s-11.333 29.5 -24 29.5c-3.33301 0 -8.66602 -0.833008 -15.999 -2.5
s-13 -2.5 -17 -2.5c-21.333 0 -32 11.333 -32 34c0 26 12.667 39 38 39c10.667 0 26.5 -1.83301 47.5 -5.5s36.833 -5.5 47.5 -5.5c17.333 0 44.333 1.33301 81 4c18.667 1.33301 40.334 2 65.001 2c55.333 0 97.833 -16.667 127.5 -50s44.5 -81 44.5 -143
c0 -79.333 -26 -134 -78 -164c-31.333 -18 -77 -27 -137 -27zM275.998 600.998c-33.333 0 -55.833 -3.83203 -67.5 -11.499s-17.5 -22.834 -17.5 -45.501v-153c0 -20.667 1.16699 -32.5 3.5 -35.5s7.83301 -4.5 16.5 -4.5c22 -2 41.667 -3 59 -3c90.667 0 136 41 136 123
c0 45.333 -10.333 78.333 -31 99s-53.667 31 -99 31z" />
    <glyph glyph-name="Q" unicode="Q" horiz-adv-x="508" 
d="M427 114c-18.667 -40 -43.334 -71.335 -74.001 -94.002v-64c0 -58 12.667 -87 38 -87c24.667 0 37 22.333 37 67c0 31.333 10 47 30 47s30 -15.667 30 -47c0 -38.667 -9 -69.5 -27 -92.5s-42 -34.5 -72 -34.5c-34.667 0 -59 10.667 -73 32s-21.667 58.333 -23 111l-1 41
c-17.333 -3.33301 -31 -5 -41 -5c-28.667 0 -57.5 9 -86.5 27s-51.833 41 -68.5 69c-37.333 62.667 -56 146.334 -56 251.001c0 101.333 20.333 184.333 61 249s93.334 97 158.001 97c65.333 0 116.833 -31.667 154.5 -95s56.5 -150.333 56.5 -261
c0 -79.333 -14.333 -149.666 -43 -210.999zM351 153.998c0 -8 -1.00098 -22.999 -3.00098 -44.999c15.333 27.333 26 52.666 32 75.999c12 46.667 18 99.667 18 159c0 81.333 -12.667 146.5 -38 195.5s-59 73.5 -101 73.5c-49.333 0 -85.666 -27 -108.999 -81
c-26 -60 -39 -126 -39 -198c0 -84 11.333 -149.667 34 -197c2.66699 -6 8 -14.667 16 -26c-3.33301 22.667 -5 41.667 -5 57c0 32.667 9.33301 59.167 28 79.5s43 30.5 73 30.5c62.667 0 94 -41.333 94 -124zM262.999 51.999c6 0 15.667 1.66699 29 5v76
c0 53.333 -13.667 80 -41 80c-15.333 0 -28.333 -7.66699 -39 -23s-16 -34 -16 -56c0 -22.667 6.5 -42 19.5 -58s28.833 -24 47.5 -24z" />
    <glyph glyph-name="R" unicode="R" horiz-adv-x="550" 
d="M477 495c0 -82.667 -34.3359 -134.332 -103.003 -154.999c29.333 -11.333 48.333 -24.166 57 -38.499s14 -41.5 16 -81.5l2 -46l1 -41c1.33301 -46 11.666 -69 30.999 -69c3.33301 0 9 0.666992 17 2s12.333 2 13 2c21.333 0 32 -11.333 32 -34
c0 -24.667 -14 -37 -42 -37h-10l-24 3l-26 1c-24.667 0.666992 -41.334 12.167 -50.001 34.5s-13.667 66.5 -15 132.5l-1 47c-0.666992 35.333 -8 59.166 -22 71.499s-40.667 18.5 -80 18.5h-8l-50 -2c-9.33301 -0.666992 -15.333 -3.33398 -18 -8.00098s-4 -15.667 -4 -33
v-24c0 -76.667 1.66699 -124.834 5 -144.501s11.333 -29.5 24 -29.5c1.33301 0 7.33301 0.666992 18 2c3.33301 1.33301 8.33301 2 15 2c21.333 0 32 -11 32 -33c0 -11.333 -3.66699 -20.833 -11 -28.5s-16.333 -11.5 -27 -11.5c-9.33301 0 -24.666 2 -45.999 6
s-37.666 6 -48.999 6c-10.667 0 -26 -2 -46 -6s-35 -6 -45 -6c-10.667 0 -19.5 3.83301 -26.5 11.5s-10.5 17.167 -10.5 28.5c0 22 10.667 33 32 33c6.66699 0 11.667 -0.666992 15 -2c10.667 -1.33301 16.667 -2 18 -2c12.667 0 20.667 9.83301 24 29.5s5 67.834 5 144.501
v190c0 77.333 -1.66699 125.833 -5 145.5s-11.333 29.5 -24 29.5c-3.33301 0 -8.66602 -0.833008 -15.999 -2.5s-13 -2.5 -17 -2.5c-21.333 0 -32 11.333 -32 34c0 26 12.667 39 38 39c10.667 0 26.834 -1.83301 48.501 -5.5s38.167 -5.5 49.5 -5.5
c17.333 0 43.333 1.16699 78 3.5s60.667 3.5 78 3.5c50.667 0 89.834 -14.833 117.501 -44.5s41.5 -72.167 41.5 -127.5zM192.997 397.002c0 -14.667 7 -22.334 21 -23.001l20 -1c2 -0.666992 5.33301 -1 10 -1c3.33301 0 9 0.333008 17 1c30 2 54 4 72 6
c21.333 5.33301 38.333 18 51 38s19 44.333 19 73c0 76 -38.667 114 -116 114c-34.667 0 -59 -3.66699 -73 -11s-21 -19.666 -21 -36.999v-159z" />
    <glyph glyph-name="S" unicode="S" horiz-adv-x="480" 
d="M225 681c46 0 85 -17.999 117 -53.999v8c-0.666992 4 -1 6.66699 -1 8c0 22 10 33 30 33c22 0 33 -13.667 33 -41c0 -10 -0.5 -24.833 -1.5 -44.5s-1.5 -34.5 -1.5 -44.5s0.666992 -24.667 2 -44s2 -34 2 -44c0 -28.667 -11.667 -43 -35 -43c-21.333 0 -32 13 -32 39v4
l1 25v8c0 35.333 -10 64 -30 86s-46.333 33 -79 33c-30.667 0 -55.667 -10.833 -75 -32.5s-29 -49.167 -29 -82.5c0 -31.333 9.33301 -54.5 28 -69.5s56.667 -29.833 114 -44.5c48 -12.667 82.333 -25.334 103 -38.001s36.667 -30.667 48 -54c12.667 -26 19 -56.333 19 -91
c0 -60 -17.5 -109.667 -52.5 -149s-79.5 -59 -133.5 -59c-52.667 0 -99 23 -139 69c0.666992 -8.66699 1 -17 1 -25c0 -28.667 -10.667 -43 -32 -43c-20.667 0 -31 14.333 -31 43v3c0 14 1.33301 35.5 4 64.5s4 50.833 4 65.5c0 9.33301 -1 23 -3 41s-3 31.333 -3 40
c0 27.333 11.667 41 35 41c22.667 0 34 -14.333 34 -43c0 -1.33301 -0.666992 -9.33301 -2 -24s-2 -24.334 -2 -29.001c0 -36.667 12.5 -67.667 37.5 -93s55.5 -38 91.5 -38s65.333 11.667 88 35s34 53.333 34 90c0 52.667 -23.667 87.667 -71 105
c-20.667 7.33301 -44 14 -70 20c-78.667 17.333 -130 48.666 -154 93.999c-14 26.667 -21 55.334 -21 86.001c0 52.667 16.667 97.334 50 134.001s74 55 122 55z" />
    <glyph glyph-name="T" unicode="T" horiz-adv-x="491" 
d="M283 519l-0.000976562 -280.999c0 -76.667 1.66699 -124.834 5 -144.501s11.333 -29.5 24 -29.5c2 0 7.66699 0.666992 17 2c4 1.33301 9.33301 2 16 2c21.333 0 32 -11 32 -33c0 -11.333 -3.66699 -20.833 -11 -28.5s-16.333 -11.5 -27 -11.5
c-6 0 -21.667 2.33301 -47 7c-18 3.33301 -33.667 5 -47 5c-10.667 0 -26.167 -2 -46.5 -6s-35.166 -6 -44.499 -6c-10.667 0 -19.667 3.83301 -27 11.5s-11 17.167 -11 28.5c0 22 11 33 33 33c6 0 11 -0.666992 15 -2c9.33301 -1.33301 15.333 -2 18 -2
c12.667 0 20.5 9.83301 23.5 29.5s4.5 67.834 4.5 144.501v235c0 56 -2.66699 91 -8 105s-19.333 21 -42 21c-23.333 0 -39.333 -3.5 -48 -10.5s-13 -20.167 -13 -39.5c0 -6.66699 0.666992 -24 2 -52s2 -46.667 2 -56c0 -35.333 -12 -53 -36 -53
c-22.667 0 -34 14.667 -34 44c0 -0.666992 0.666992 9.66602 2 30.999c2 32 3 56.667 3 74c0 10.667 -0.666992 30 -2 58c-0.666992 14 -1 26.667 -1 38c0 23.333 10 35 30 35c6 0 20.667 -1.33301 44 -4s58.666 -4 105.999 -4h30l58 1
c28.667 0.666992 49.334 1.66699 62.001 3c22.667 2.66699 43.667 4 63 4c20 0 30 -11.333 30 -34c0 -4 -0.666992 -15 -2 -33c-2 -27.333 -3 -51 -3 -71c0 -15.333 0.666992 -37 2 -65c0.666992 -14 1 -24.333 1 -31c0 -30 -11.667 -45 -35 -45c-22 0 -33 16.667 -33 50
c0 2 0.333008 8.5 1 19.5s1 19.833 1 26.5l2 60c0 20.667 -3.83301 35 -11.5 43s-21.167 12 -40.5 12c-28 0 -45.333 -7.33301 -52 -22c-3.33301 -8 -5 -27.667 -5 -59z" />
    <glyph glyph-name="U" unicode="U" horiz-adv-x="575" 
d="M102 379l-0.00195312 156.004c0 45.333 -9.66699 68 -29 68c-2.66699 0 -6.66699 -0.5 -12 -1.5s-9.33301 -1.5 -12 -1.5c-8.66699 0 -16 3.16699 -22 9.5s-9 14.166 -9 23.499c0 26 12.333 39 37 39c9.33301 0 21 -1.66699 35 -5c20 -4.66699 36.667 -7 50 -7
c10.667 0 25.667 1.83301 45 5.5s33.333 5.5 42 5.5c10.667 0 19.667 -3.83301 27 -11.5s11 -16.834 11 -27.501c0 -9.33301 -3.16699 -17.333 -9.5 -24s-14.166 -10 -23.499 -10c-4 0 -9.5 0.833008 -16.5 2.5s-12.5 2.5 -16.5 2.5c-16 0 -25.667 -25.333 -29 -76
c0 0.666992 0 -32.333 0 -99v-145c0 -71.333 3.66699 -121.666 11 -150.999c5.33301 -22.667 18 -41.167 38 -55.5s42.667 -21.5 68 -21.5s47.666 7.16699 66.999 21.5s32.333 33.833 39 58.5c7.33301 27.333 11 76.666 11 147.999v145c0 66.667 0 99.667 0 99
c-3.33301 50.667 -13 76 -29 76c-4 0 -9.5 -0.833008 -16.5 -2.5s-12.5 -2.5 -16.5 -2.5c-9.33301 0 -17.166 3.33301 -23.499 10s-9.5 14.667 -9.5 24c0 11.333 3.83301 20.666 11.5 27.999s16.834 11 27.501 11c9.33301 0 23.333 -1.83301 42 -5.5s32.667 -5.5 42 -5.5
c10 0 24.667 2.16699 44 6.5s34 6.5 44 6.5c23.333 0 35 -12.667 35 -38c0 -22 -10.667 -33 -32 -33h-18c-14 0 -22.833 -6 -26.5 -18s-5.5 -42 -5.5 -90v-93c0 -17.333 0.333008 -43.5 1 -78.5s1 -61.167 1 -78.5c0 -76 -8.66699 -131.667 -26 -167
c-14 -28 -36.167 -50 -66.5 -66s-64.5 -24 -102.5 -24c-34.667 0 -66 7.16699 -94 21.5s-48 33.166 -60 56.499c-17.333 34.667 -26 94 -26 178v45c1.33301 46 2 76.333 2 91z" />
    <glyph glyph-name="V" unicode="V" horiz-adv-x="523" 
d="M167 511l101.004 -405.999l95 445c2.66699 13.333 4 23.333 4 30c0 14.667 -6 22 -18 22h-5c-2.66699 -0.666992 -4.33398 -1 -5.00098 -1c-8 -2 -14.333 -3 -19 -3c-18.667 0 -28 11.667 -28 35c0 25.333 12 38 36 38c8.66699 0 22.334 -2 41.001 -6
c16 -3.33301 30.667 -5 44 -5c10 0 24 1.83301 42 5.5s31 5.5 39 5.5c22.667 0 34 -12.333 34 -37c0 -22.667 -9.66699 -34 -29 -34c-3.33301 0 -7.83301 0.5 -13.5 1.5s-10.167 1.5 -13.5 1.5c-13.333 0 -26.333 -25.667 -39 -77l-18 -73l-103 -426
c-6 -24 -21.333 -36 -46 -36c-16 0 -27 3.33301 -33 10c-5.33301 4.66699 -10.333 16 -15 34l-128 480c-14.667 56.667 -30.334 85 -47.001 85h-3c-2 -0.666992 -3.33301 -1 -4 -1c-4 -0.666992 -8.33301 -1.33398 -13 -2.00098c-8 0 -14.833 3.83301 -20.5 11.5
s-8.5 16.5 -8.5 26.5c0 24 12 36 36 36c9.33301 0 23 -1.83301 41 -5.5s31.667 -5.5 41 -5.5c15.333 0 28.333 1.66699 39 5c21.333 4 35.666 6 42.999 6c22.667 0 34 -12 34 -36c0 -10 -3.33301 -18.5 -10 -25.5s-14.667 -10.5 -24 -10.5
c-2.66699 0 -6.83398 0.5 -12.501 1.5s-9.83398 1.5 -12.501 1.5c-12 0 -18 -6.66699 -18 -20c0 -6 2.66699 -19.333 8 -40z" />
    <glyph glyph-name="W" unicode="W" horiz-adv-x="687" 
d="M153 539l61.998 -409.998l82 482c4 23.333 9.16699 39.166 15.5 47.499s16.166 12.5 29.499 12.5c16.667 0 28.334 -6 35.001 -18c2.66699 -5.33301 6 -19.333 10 -42l83 -492l60 411c2.66699 18 4 31.333 4 40c0 22.667 -9.66699 34 -29 34h-6
c-2.66699 -0.666992 -4.66699 -1 -6 -1c-8.66699 -2 -15.334 -3 -20.001 -3c-20 0 -30 12 -30 36c0 23.333 12 35 36 35c10 0 25 -1.83301 45 -5.5s35 -5.5 45 -5.5s25 1.83301 45 5.5s35 5.5 45 5.5c22.667 0 34 -12 34 -36c0 -23.333 -10 -35 -30 -35
c-2 0 -7 0.666992 -15 2c-3.33301 1.33301 -7.66602 2 -12.999 2c-13.333 0 -22.333 -16.333 -27 -49c0 -4 -2 -17.333 -6 -40l-10 -56l-78 -424c-5.33301 -29.333 -19.666 -44 -42.999 -44c-28 0 -44.333 17.333 -49 52l-4 31l-77 450l-84 -484
c-4 -18.667 -7.33301 -30.667 -10 -36c-6 -8.66699 -16.333 -13 -31 -13c-16.667 0 -27.5 2.66699 -32.5 8s-9.16699 17.333 -12.5 36l-83 445c-10 55.333 -17.667 89.666 -23 102.999s-13.333 20 -24 20h-2l-16 -2h-2c-18 0 -27 11.333 -27 34c0 10 3.5 18.5 10.5 25.5
s15.167 10.5 24.5 10.5s23 -1.83301 41 -5.5s31.667 -5.5 41 -5.5c10.667 0 26.334 1.83301 47.001 5.5s36 5.5 46 5.5c22.667 0 34 -12.333 34 -37c0 -22.667 -10.667 -34 -32 -34c-4 0 -9.5 0.666992 -16.5 2s-12.5 2 -16.5 2c-16.667 0 -25 -9.66699 -25 -29v-5z" />
    <glyph glyph-name="X" unicode="X" horiz-adv-x="598" 
d="M162 183l101 164.002l-88 147c-42.667 71.333 -71.667 107 -87 107h-10c-5.33301 -1.33301 -10.666 -2 -15.999 -2c-20.667 0 -31 11.667 -31 35c0 24.667 12.333 37 37 37c13.333 0 26.333 -1.33301 39 -4c21.333 -4.66699 39 -7 53 -7c9.33301 0 21 1.33301 35 4
c18.667 3.33301 30 5.33301 34 6c6.66699 0.666992 13 1 19 1c22.667 0 34 -12 34 -36c0 -24.667 -10.333 -37 -31 -37c-3.33301 0 -8.66602 0.666992 -15.999 2s-12.666 2 -15.999 2c-10.667 0 -16 -4.33301 -16 -13c0 -3.33301 3 -10.333 9 -21l17 -31l72 -125l74 125
c17.333 29.333 26 46.666 26 51.999c0 8 -5.66699 12 -17 12c-3.33301 0 -7.83301 -0.5 -13.5 -1.5s-10.167 -1.5 -13.5 -1.5c-8 0 -15 3.66699 -21 11s-9 15.666 -9 24.999c0 10 3.5 18.667 10.5 26s15.5 11 25.5 11c9.33301 0 23.333 -1.83301 42 -5.5s33 -5.5 43 -5.5
c10.667 0 26.167 1.83301 46.5 5.5s35.5 5.5 45.5 5.5c24 0 36 -12.333 36 -37c0 -23.333 -10.667 -35 -32 -35c-2.66699 0 -7 0.333008 -13 1s-10.333 1 -13 1c-10.667 0 -21 -5.83301 -31 -17.5s-28.333 -39.167 -55 -82.5l-95 -154l129 -209l27 -39
c16 -23.333 29.667 -35 41 -35c3.33301 0 8.66602 0.666992 15.999 2s12.666 2 15.999 2c20 0 30 -11 30 -33c0 -26.667 -12.333 -40 -37 -40c-6 0 -16.667 1.33301 -32 4c-30.667 5.33301 -54 8 -70 8c-10 0 -24.333 -2 -43 -6s-32.667 -6 -42 -6
c-10 0 -18.667 3.83301 -26 11.5s-11 16.834 -11 27.501c0 23.333 11.667 35 35 35c3.33301 0 8.5 -0.666992 15.5 -2s12.167 -2 15.5 -2c9.33301 0 14 5 14 15c0 4 -4 13.333 -12 28l-14 26l-88 149l-92 -149l-17 -31c-6 -10.667 -9 -18.334 -9 -23.001c0 -10 6 -15 18 -15
c6.66699 0 12.167 0.5 16.5 1.5s9.5 1.5 15.5 1.5c21.333 0 32 -11.667 32 -35c0 -10.667 -3.33301 -19.667 -10 -27s-14.667 -11 -24 -11c-7.33301 0 -18 1.33301 -32 4c-16.667 4 -27.334 6.33301 -32.001 7c-8 0.666992 -15.667 1 -23 1c-18 0 -36 -1.66699 -54 -5
c-25.333 -4.66699 -41.333 -7 -48 -7c-26.667 0 -40 12.667 -40 38c0 24 10.667 36 32 36c4 0 9.33301 -0.666992 16 -2s11.667 -2 15 -2c12 0 23.667 9.33301 35 28c0.666992 1.33301 10.667 15.333 30 42c11.333 16 22 32 32 48z" />
    <glyph glyph-name="Y" unicode="Y" horiz-adv-x="542" 
d="M183 537l88.998 -205l102 232c4.66699 11.333 7 18.333 7 21c0 8.66699 -4 13 -12 13c-3.33301 0 -8 -0.666992 -14 -2s-10.667 -2 -14 -2c-19.333 0 -29 12.667 -29 38c0 26 11.333 39 34 39c6.66699 0 18.834 -1.83301 36.501 -5.5s31.834 -5.5 42.501 -5.5
c16.667 0 34.334 2 53.001 6c16 3.33301 27.667 5 35 5c23.333 0 35 -13 35 -39c0 -24.667 -10.667 -37 -32 -37c-4.66699 0 -10 1 -16 3c-8 1.33301 -12.667 2 -14 2c-9.33301 0 -18 -7 -26 -21l-10 -18l-11 -24l-126 -266c-3.33301 -6.66699 -5.33301 -15.334 -6 -26.001
c-1.33301 -6 -2 -13.667 -2 -23v-104c0 -37.333 10.333 -56 31 -56c7.33301 0 13.666 0.666992 18.999 2c9.33301 1.33301 15.666 2 18.999 2c20.667 0 31 -11 31 -33c0 -10.667 -3.33301 -19.667 -10 -27s-15 -11 -25 -11c-11.333 0 -27.833 2 -49.5 6s-38.167 6 -49.5 6
c-12.667 0 -30.834 -2 -54.501 -6s-41.167 -6 -52.5 -6c-24.667 0 -37 12.667 -37 38c0 22 11 33 33 33c4.66699 0 11.5 -0.666992 20.5 -2s15.5 -2 19.5 -2c17.333 0 28 21 32 63c1.33301 10 2 35.667 2 77v23c0 16.667 -2.33301 30.667 -7 42l-13 30l-132 278
c-8.66699 16 -18 24 -28 24c-3.33301 0 -8.16602 -0.5 -14.499 -1.5s-11.166 -1.5 -14.499 -1.5c-20.667 0 -31 12.333 -31 37c0 26 12 39 36 39c7.33301 0 21 -2 41 -6s36 -6 48 -6c10.667 0 24.667 1.83301 42 5.5s29.333 5.5 36 5.5c10 0 18.5 -3.83301 25.5 -11.5
s10.5 -17.167 10.5 -28.5c0 -24.667 -11 -37 -33 -37c-3.33301 0 -7.83301 0.666992 -13.5 2s-9.83398 2 -12.501 2c-6.66699 0 -10 -4 -10 -12c0 -0.666992 0.333008 -2.16699 1 -4.5s3.33398 -9.16602 8.00098 -20.499z" />
    <glyph glyph-name="Z" unicode="Z" horiz-adv-x="495" 
d="M142 69l27.001 -0.999023h143c26.667 0 45.5 6.16699 56.5 18.5s16.5 33.166 16.5 62.499c0 0.666992 -0.666992 17 -2 49s-2 46.333 -2 43c0 25.333 11.333 38 34 38s34 -12.667 34 -38c0 -8.66699 -0.833008 -21.334 -2.5 -38.001s-2.5 -28.667 -2.5 -36l-1 -46v-44
l2 -37c0 -28.667 -15.667 -43 -47 -43c-14 0 -29.333 0.666992 -46 2c-42 3.33301 -90.333 5 -145 5c-22 0 -57 -1.33301 -105 -4h-16c-38 0 -57 15 -57 45c0 16.667 9.33301 39.667 28 69l293 461c3.33301 5.33301 5 9.33301 5 12c0 8.66699 -10.333 13 -31 13h-137
c-29.333 0 -48.5 -6.66699 -57.5 -20s-13.5 -41.666 -13.5 -84.999c0 -4.66699 0.333008 -14.334 1 -29.001v-32v-5c0 -30 -10.667 -45 -32 -45c-23.333 0 -35 14 -35 42c0 6.66699 0.333008 11.667 1 15c3.33301 36.667 5 68.667 5 96v28
c-0.666992 10.667 -1 17.334 -1 20.001v39c0 17.333 3.33301 29.5 10 36.5s19 10.5 37 10.5c4.66699 0 8 -0.333008 10 -1c39.333 -3.33301 96.333 -5 171 -5c23.333 0 39.666 0.333008 48.999 1l70 5c33.333 0 50 -14 50 -42c0 -14 -5.66699 -30 -17 -48l-307 -479
c-6 -9.33301 -9 -16 -9 -20c0 -8 7.66699 -12.333 23 -13z" />
    <glyph glyph-name="bracketleft" unicode="[" horiz-adv-x="266" 
d="M130 421l2.00195 -415.001c0.666992 -23.333 1 -36.333 1 -39c3.33301 -15.333 11.333 -23 24 -23c6 0 11.333 0.333008 16 1h11c23.333 0 35 -10.667 35 -32c0 -23.333 -11.667 -35 -35 -35c-6 0 -14.667 1 -26 3s-19.666 3 -24.999 3
c-6.66699 0 -15.834 -1.16699 -27.501 -3.5s-20.5 -3.5 -26.5 -3.5c-10 0 -16 4 -18 12c-0.666992 2 -1 10.333 -1 25v720c0 14.667 0.333008 23.334 1 26.001c2 8 8 12 18 12c1.33301 0 12.666 -1.66699 33.999 -5c8 -1.33301 14.667 -2 20 -2s13.666 1 24.999 3s20 3 26 3
c23.333 0 35 -11.667 35 -35c0 -21.333 -11.667 -32 -35 -32h-11c-4.66699 0.666992 -10 1 -16 1c-12.667 0 -20.667 -7.66699 -24 -23c0 -2.66699 -0.333008 -15.667 -1 -39z" />
    <glyph glyph-name="backslash" unicode="\" 
d="M25 750h66l362 -833h-65z" />
    <glyph glyph-name="bracketright" unicode="]" horiz-adv-x="266" 
d="M187 672c9.33301 0 15.3311 -4.33301 17.998 -13c0.666992 -2.66699 1 -11 1 -25v-720c0 -21.333 -3 -33.333 -9 -36c-2 -0.666992 -5.33301 -1 -10 -1c-1.33301 0 -12.666 1.66699 -33.999 5c-8 1.33301 -14.667 2 -20 2s-13.666 -1 -24.999 -3s-20 -3 -26 -3
c-23.333 0 -35 11.667 -35 35c0 21.333 11.667 32 35 32h11c4 -0.666992 9 -1 15 -1c13.333 0 21.333 7.66699 24 23c0.666992 2.66699 1.33398 15.667 2.00098 39l2 122v293c0 14.667 -0.333008 38.667 -1 72l-1 50c-0.666992 23.333 -1.33398 36.333 -2.00098 39
c-2.66699 15.333 -10.667 23 -24 23c-6 0 -11 -0.333008 -15 -1h-11c-23.333 0 -35 10.667 -35 32c0 23.333 11.667 35 35 35c6 0 14.667 -1 26 -3s19.666 -3 24.999 -3c6.66699 0 15.834 1.16699 27.501 3.5s20.5 3.5 26.5 3.5z" />
    <glyph glyph-name="asciicircum" unicode="^" 
d="M249 615l-149 -247h-73l179 300h88l179 -300h-74z" />
    <glyph glyph-name="underscore" unicode="_" 
d="M0 -129v60h500v-60h-500z" />
    <glyph glyph-name="grave" unicode="`" 
d="M303 565c-4 0 -10.332 1.99805 -18.999 5.99805l-87 40c-25.333 11.333 -38 27.333 -38 48c0 12.667 3.66699 23.334 11 32.001s16.333 13 27 13c11.333 0 25.666 -8.66699 42.999 -26l66 -67c9.33301 -9.33301 14 -18.666 14 -27.999c0 -12 -5.66699 -18 -17 -18z" />
    <glyph glyph-name="a" unicode="a" horiz-adv-x="443" 
d="M354 -13c-38 0 -62.333 19.999 -73 59.999c-28.667 -40 -67 -60 -115 -60c-38.667 0 -70.5 13.667 -95.5 41s-37.5 62.333 -37.5 105c0 54.667 17 93.334 51 116.001c24 16 61 27.333 111 34c28.667 4 48.334 11.5 59.001 22.5s16 29.5 16 55.5c0 54 -23 81 -69 81
c-12 0 -25.667 -3.33301 -41 -10c-17.333 -8 -26 -17.667 -26 -29c0 -3.33301 2 -8.33301 6 -15c8 -12.667 12 -24.667 12 -36c0 -28.667 -15 -43 -45 -43c-34.667 0 -52 21.667 -52 65c0 36.667 13.833 67.167 41.5 91.5s62.5 36.5 104.5 36.5c28 0 53.333 -5.66699 76 -17
c25.333 -13.333 42.666 -32 51.999 -56c7.33301 -20 11 -53.667 11 -101l1 -245c0.666992 -19.333 6.33398 -29 17.001 -29c14.667 0 22 23.667 22 71c0 8.66699 -0.333008 15 -1 19v10c0 28.667 9.66699 43 29 43c22 0 33 -19 33 -57c0 -58 -6.33301 -98 -19 -120
s-35.334 -33 -68.001 -33zM269 148.999c2.66699 15.333 4.33398 45.334 5.00098 90.001c-18.667 -8 -37 -13.667 -55 -17l-45 -8c-48.667 -8.66699 -73 -36.334 -73 -83.001c0 -24 6.83301 -43.333 20.5 -58s31.5 -22 53.5 -22c23.333 0 43.666 9 60.999 27
s28.333 41.667 33 71z" />
    <glyph glyph-name="b" unicode="b" horiz-adv-x="437" 
d="M139 628l-4.00195 -175c28 32.667 61.667 49 101 49c50 0 89.833 -23.333 119.5 -70s44.5 -109.334 44.5 -188.001c0 -76 -15.667 -137.833 -47 -185.5s-71.666 -71.5 -120.999 -71.5c-38.667 0 -70.334 17.667 -95.001 53v-15c0 -25.333 -11 -38 -33 -38
c-22.667 0 -34 13 -34 39v25l1 28l-3 482c-1.33301 18.667 -3.16602 30.334 -5.49902 35.001s-7.83301 7 -16.5 7h-7c-16 0 -24 10 -24 30c0 24 10 36 30 36c6 0 12 -1 18 -3c14.667 -2.66699 22.334 -4 23.001 -4c2 0 9 1.33301 21 4c6 2 11.333 3 16 3
c11.333 0 17 -7.66699 17 -23v-8c-0.666992 -4 -1 -7.33301 -1 -10zM230.998 434c-63.333 0 -95 -61.667 -95 -185c0 -128.667 30.667 -193 92 -193c30.667 0 55.334 17.333 74.001 52s28 80 28 136c0 58 -8.83301 104.167 -26.5 138.5s-41.834 51.5 -72.501 51.5z" />
    <glyph glyph-name="c" unicode="c" horiz-adv-x="405" 
d="M250 318c0 28 11.9971 45.002 35.9971 51.002c-12.667 44.667 -37 67 -73 67c-31.333 0 -56.666 -18 -75.999 -54s-29 -83.667 -29 -143c0 -56.667 9.33301 -101.334 28 -134.001s44.334 -49 77.001 -49c23.333 0 42.833 9.16699 58.5 27.5s24.5 42.166 26.5 71.499
c2 34 13.667 51 35 51c23.333 0 35 -15.667 35 -47c0 -46.667 -15.667 -87 -47 -121s-68.666 -51 -111.999 -51c-53.333 0 -95.333 22.5 -126 67.5s-46 106.167 -46 183.5c0 82 15.667 146.5 47 193.5s74.333 70.5 129 70.5c42.667 0 77.5 -14.167 104.5 -42.5
s40.5 -64.5 40.5 -108.5c0 -56.667 -20 -85 -60 -85c-14 0 -25.5 4.83301 -34.5 14.5s-13.5 22.167 -13.5 37.5z" />
    <glyph glyph-name="d" unicode="d" horiz-adv-x="455" 
d="M211 502c36 0 67.6709 -14.667 95.0039 -44l-1 59c0 10 -0.333008 20.667 -1 32s-1 18 -1 20c0 22.667 -8 34 -24 34h-6c-2 -0.666992 -5.33301 -1 -10 -1c-19.333 0 -29 10.667 -29 32c0 9.33301 3.16699 17.5 9.5 24.5s13.833 10.5 22.5 10.5
c5.33301 0 13.166 -1.16699 23.499 -3.5s18.166 -3.5 23.499 -3.5c6 0 15 1 27 3c8.66699 2.66699 16 4 22 4c10.667 0 16 -7 16 -21v-4c0 -12 -0.333008 -28.667 -1 -50c-0.666992 -26 -1 -46 -1 -60l-1 -71l-2 -73v-231v-57c3.33301 -26.667 11.666 -40 24.999 -40h4
c5.33301 0.666992 10.666 1 15.999 1c18 0 27 -10.667 27 -32c0 -23.333 -10.333 -35 -31 -35c-4 0 -11 1 -21 3c-20 2 -29.667 3 -29 3c-7.33301 0 -14.666 -1 -21.999 -3c-9.33301 -2.66699 -16 -4 -20 -4c-11.333 0 -17 8 -17 24c0 6 0.333008 13.333 1 22
c-32 -36 -66.333 -54 -103 -54c-48.667 0 -88.5 23.333 -119.5 70s-46.5 107 -46.5 181c0 78 16.167 141.5 48.5 190.5s74.166 73.5 125.499 73.5zM210.004 431c-29.333 0 -53.167 -16.499 -71.5 -49.499s-27.5 -76.167 -27.5 -129.5v-8c0 -58.667 8.5 -104.167 25.5 -136.5
s40.833 -48.5 71.5 -48.5s54.667 16.167 72 48.5s26 77.166 26 134.499c0 61.333 -6.66699 106.333 -20 135c-16.667 36 -42 54 -76 54z" />
    <glyph glyph-name="e" unicode="e" horiz-adv-x="414" 
d="M377 286c0 -24.667 -1.66602 -39.834 -4.99902 -45.501s-12.333 -8.5 -27 -8.5h-199c-16 0 -26 -1.5 -30 -4.5s-6 -10.833 -6 -23.5c0 -44 9.33301 -79.667 28 -107s43.334 -41 74.001 -41c19.333 0 36.666 6.33301 51.999 19s25.666 29 30.999 49l9 34
c4.66699 18.667 16.334 28 35.001 28c21.333 0 32 -12 32 -36c0 -43.333 -16.167 -81.333 -48.5 -114s-69.833 -49 -112.5 -49c-52.667 0 -94.667 22.833 -126 68.5s-47 107.167 -47 184.5s16.667 140.333 50 189s76.666 73 129.999 73c47.333 0 85.833 -20.167 115.5 -60.5
s44.5 -92.166 44.5 -155.499zM115.001 316c0 -12 8.66504 -18.001 25.998 -18.001h126c16 0 26 1.33301 30 4s6 9.33398 6 20.001c0 32 -8.66699 58.667 -26 80s-38.666 32 -63.999 32c-39.333 0 -67.666 -22 -84.999 -66c-6.66699 -16.667 -10.667 -31 -12 -43
c-0.666992 -2.66699 -1 -5.66699 -1 -9z" />
    <glyph glyph-name="f" unicode="f" horiz-adv-x="296" 
d="M249 582c0 8 2.99902 16.668 8.99902 26.001c-9.33301 10 -19 15 -29 15c-17.333 0 -31.833 -8.83301 -43.5 -26.5s-17.5 -40.167 -17.5 -67.5c0 -18 1.33301 -28.5 4 -31.5s6.66699 -4.5 12 -4.5c4 0 10.167 0.666992 18.5 2s14.5 2 18.5 2c24 0 36 -12.333 36 -37
c0 -23.333 -14.333 -35 -43 -35c-6 0 -10.333 0.333008 -13 1l-16 2c-10.667 0 -16.667 -12 -18 -36l-1 -22v-220c0 -40.667 1.33301 -65.667 4 -75s9.66699 -14 21 -14h9c12 1.33301 18.667 2 20 2c20.667 0 31 -11 31 -33c0 -23.333 -10.667 -35 -32 -35
c-5.33301 0 -18 1.66699 -38 5c-12 2 -30 3 -54 3c-8 0 -19.667 -1.33301 -35 -4s-26.666 -4 -33.999 -4c-20.667 0 -31 11.333 -31 34s9.33301 34 28 34c4 0 7.66699 -0.333008 11 -1h9c10.667 0 17.167 4.83301 19.5 14.5s3.5 36.167 3.5 79.5v233
c0 24 -4.33301 36 -13 36c-4.66699 0 -8.33398 -0.333008 -11.001 -1s-6 -1 -10 -1c-26 0 -39 12 -39 36c0 26 13.333 39 40 39c2.66699 0 6.66699 -0.333008 12 -1s9.33301 -1 12 -1c8.66699 0 13 5.33301 13 16c0 43.333 5 77.333 15 102
c8.66699 21.333 22.834 38.666 42.501 51.999s41.834 20 66.501 20c29.333 0 54.666 -9 75.999 -27s32 -39.667 32 -65c0 -15.333 -4.16699 -28.333 -12.5 -39s-18.833 -16 -31.5 -16c-11.333 0 -21 4.16699 -29 12.5s-12 18.5 -12 30.5z" />
    <glyph glyph-name="g" unicode="g" horiz-adv-x="420" 
d="M225 502c6 0 15.335 -1.00098 28.002 -3.00098c6 60.667 34.667 91 86 91c24 0 44.5 -9 61.5 -27s25.5 -39.667 25.5 -65c0 -35.333 -13.667 -53 -41 -53c-10.667 0 -19.667 3.66699 -27 11s-11 16.333 -11 27c0 10 4.33301 21 13 33c-5.33301 9.33301 -11.333 14 -18 14
c-8.66699 0 -16.167 -4.33301 -22.5 -13s-9.5 -18.667 -9.5 -30c0 -5.33301 0.333008 -10 1 -14c35.333 -30 53 -72.667 53 -128c0 -47.333 -13.333 -86.5 -40 -117.5s-60.334 -46.5 -101.001 -46.5c-27.333 0 -56.333 8.33301 -87 25c-4.66699 2.66699 -9 4 -13 4
c-13.333 0 -20 -11.667 -20 -35c0 -29.333 21.5 -44 64.5 -44s73.167 -1.33301 90.5 -4c34.667 -4 62.667 -13.333 84 -28c40.667 -27.333 61 -66.666 61 -117.999c0 -48 -17.5 -86.5 -52.5 -115.5s-81.167 -43.5 -138.5 -43.5c-56.667 0 -102.334 13.333 -137.001 40
s-52 61.667 -52 105c0 52 23.667 90.333 71 115c-39.333 20.667 -59 51.667 -59 93c0 40.667 19.667 72.334 59 95.001c-11.333 26 -17 51.333 -17 76c0 45.333 13.833 82.666 41.5 111.999s63.167 44 106.5 44zM218.002 435.999c-47.333 0 -72.001 -29.667 -74.001 -89
l-1 -6c0 -27.333 7.16699 -49.333 21.5 -66s33.5 -25 57.5 -25c22.667 0 40.834 8.33301 54.501 25s20.5 39 20.5 67s-7.33301 50.667 -22 68s-33.667 26 -57 26zM216.001 62.999c-37.333 0 -66.833 -7.66602 -88.5 -22.999s-32.5 -36 -32.5 -62
c0 -27.333 10.5 -48.833 31.5 -64.5s49.833 -23.5 86.5 -23.5c38 0 67.833 7.66699 89.5 23s32.5 36.666 32.5 63.999c0 26 -10.833 46.833 -32.5 62.5s-50.5 23.5 -86.5 23.5z" />
    <glyph glyph-name="h" unicode="h" horiz-adv-x="491" 
d="M153 642l-2.00098 -197.001c35.333 38 74.666 57 117.999 57c53.333 0 92.666 -20.667 117.999 -62c17.333 -26.667 26 -68 26 -124v-160c0 -43.333 1.16699 -69.833 3.5 -79.5s8.83301 -14.5 19.5 -14.5h9c3.33301 0.666992 7 1 11 1c18 0 27 -11.333 27 -34
s-10.667 -34 -32 -34c-8 0 -19 1.33301 -33 4c-17.333 3.33301 -34.666 5 -51.999 5c-3.33301 0 -14 -1 -32 -3c-16.667 -4 -26.334 -6 -29.001 -6c-20.667 0 -31 11.333 -31 34s9 34 27 34c4.66699 0 8.33398 -0.333008 11.001 -1h9c10.667 0 17.167 4.83301 19.5 14.5
s3.5 36.167 3.5 79.5v146c0 88 -28.667 132 -86 132c-42.667 0 -71.334 -19.333 -86.001 -58c-12.667 -33.333 -19 -70 -19 -110v-14l1 -53v-43c0 -43.333 1.16699 -69.833 3.5 -79.5s8.83301 -14.5 19.5 -14.5h9c2.66699 0.666992 6.33398 1 11.001 1
c18 0 27 -11.333 27 -34s-10.667 -34 -32 -34c-5.33301 0 -17 2 -35 6c-13.333 1.33301 -24.666 2 -33.999 2c-8.66699 0 -21.5 -1.33301 -38.5 -4s-29.833 -4 -38.5 -4c-21.333 0 -32 11.333 -32 34s9 34 27 34c4.66699 0 8.33398 -0.333008 11.001 -1h9
c10 0 16 4.5 18 13.5s3.66699 35.833 5 80.5l1 43v245c0 4.66699 -0.333008 14.334 -1 29.001c-0.666992 17.333 -1 32 -1 44l-1 52c-0.666992 22.667 -8.66699 34 -24 34h-6c-2.66699 -0.666992 -6 -1 -10 -1c-20 0 -30 10.667 -30 32c0 9.33301 3.16699 17.5 9.5 24.5
s13.833 10.5 22.5 10.5c5.33301 0 13 -1.16699 23 -3.5s17.667 -3.5 23 -3.5c10 0 19 1.16699 27 3.5s14.667 3.5 20 3.5c10.667 0 16 -8.33301 16 -25v-2z" />
    <glyph glyph-name="i" unicode="i" horiz-adv-x="248" 
d="M166 316v-64l1 -53v-43c0 -43.333 1.16699 -69.833 3.5 -79.5s8.83301 -14.5 19.5 -14.5h9c2.66699 0.666992 6.33398 1 11.001 1c18 0 27 -11.333 27 -34s-10.667 -34 -32 -34c-8.66699 0 -21.667 1.33301 -39 4s-30.333 4 -39 4s-20.5 -1.33301 -35.5 -4
s-25.833 -4 -32.5 -4c-21.333 0 -32 11.333 -32 34s9.33301 34 28 34c4 0 7.66699 -0.333008 11 -1h9c10.667 0 17.167 4.83301 19.5 14.5s3.5 36.167 3.5 79.5v115c0 4 -0.333008 13.833 -1 29.5s-1 29.834 -1 42.501c-0.666992 36.667 -1 54 -1 52c0 22.667 -8 34 -24 34
h-6h-5c-2 -0.666992 -3.66699 -1 -5 -1c-19.333 0 -29 10.667 -29 32c0 9.33301 3.16699 17.666 9.5 24.999s13.833 11 22.5 11c2 0 9.66699 -1.66699 23 -5c8 -2 15 -3 21 -3s14.667 1.16699 26 3.5s19.666 3.5 24.999 3.5c10.667 0 16 -8 16 -24v-12v-14
c-0.666992 -9.33301 -1 -18 -1 -26zM125 535c-13.333 0 -24.5 5.66895 -33.5 17.002s-13.5 25.666 -13.5 42.999c0 15.333 5 29.166 15 41.499s21.333 18.5 34 18.5c13.333 0 24.833 -5.83301 34.5 -17.5s14.5 -25.5 14.5 -41.5c0 -16.667 -5 -31 -15 -43s-22 -18 -36 -18z
" />
    <glyph glyph-name="j" unicode="j" horiz-adv-x="225" 
d="M6 -81c0 -11.333 -3.66602 -23 -10.999 -35c12.667 -9.33301 25 -14 37 -14c26 0 43.5 11 52.5 33s13.5 65.333 13.5 130v238c0 4 -0.333008 13.833 -1 29.5s-1 29.834 -1 42.501c-0.666992 36.667 -1 54 -1 52c0 22.667 -8 34 -24 34h-6h-5
c-2 -0.666992 -3.66699 -1 -5 -1c-19.333 0 -29 10.667 -29 32c0 9.33301 3.16699 17.666 9.5 24.999s13.833 11 22.5 11c2 0 9.66699 -1.66699 23 -5c8 -2 15 -3 21 -3c10 0 20 1.33301 30 4c7.33301 2 14 3 20 3c11.333 0 17 -7.66699 17 -23v-10
c-0.666992 -2 -1 -13.333 -1 -34l-1 -70v-325c0 -78.667 -9.66699 -133.667 -29 -165c-26 -41.333 -62.667 -62 -110 -62c-30.667 0 -56.167 9.16699 -76.5 27.5s-30.5 41.166 -30.5 68.499c0 16.667 4.66699 30.834 14 42.501s20.666 17.5 33.999 17.5
c10.667 0 19.5 -4.16699 26.5 -12.5s10.5 -18.5 10.5 -30.5zM117.001 535c-13.333 0 -24.498 5.83301 -33.498 17.5s-13.5 25.834 -13.5 42.501c0 15.333 5.16699 29.166 15.5 41.499s21.833 18.5 34.5 18.5c13.333 0 24.666 -5.83301 33.999 -17.5s14 -25.5 14 -41.5
c0 -17.333 -4.83301 -31.833 -14.5 -43.5s-21.834 -17.5 -36.501 -17.5z" />
    <glyph glyph-name="k" unicode="k" horiz-adv-x="468" 
d="M153 476v-215.003l114 129c10.667 12 16 21 16 27c0 8 -4.66699 12 -14 12c-2 0 -5 -0.333008 -9 -1s-7 -1 -9 -1c-21.333 0 -32 10.333 -32 31c0 10 3.33301 18.667 10 26s14.667 11 24 11c8 0 21 -1.5 39 -4.5s32 -4.5 42 -4.5c8.66699 0 21.5 1.5 38.5 4.5
s29.5 4.5 37.5 4.5c21.333 0 32 -10.667 32 -32c0 -9.33301 -2.83301 -17.666 -8.5 -24.999s-12.5 -10.666 -20.5 -9.99902l-14 1c-0.666992 0.666992 -1.66699 1 -3 1c-10.667 0 -27.667 -13.333 -51 -40l-65 -74c-7.33301 -8.66699 -11 -15 -11 -19
c0 -2 2.33301 -7.33301 7 -16l11 -20l99 -176c9.33301 -16.667 20.666 -25 33.999 -25h4c5.33301 0.666992 10 1 14 1c18 0 27 -11 27 -33s-10.333 -33 -31 -33c-4 0 -13 1.33301 -27 4s-31.667 4 -53 4c-8.66699 0 -21 -1.33301 -37 -4s-28 -4 -36 -4
c-21.333 0 -32 12 -32 36c0 21.333 10 32 30 32c4.66699 0 8.66699 -0.333008 12 -1h4c8.66699 0 13 3.66699 13 11c0 4 -1.66699 9 -5 15l-11 20l-51 96c-12.667 23.333 -22 35 -28 35c-3.33301 0 -7.33301 -2.66699 -12 -8l-9 -10l-25 -28
c-9.33301 -10.667 -14 -22 -14 -34v-58l1 -15c1.33301 -16 6.66602 -24 15.999 -24h9c4 1.33301 8.33301 2 13 2c18 0 27 -10 27 -30c0 -10 -3.66699 -19 -11 -27s-15.333 -12 -24 -12c-7.33301 0 -18.333 1.33301 -33 4s-26 4 -34 4c-8.66699 0 -21 -1.33301 -37 -4
s-27.667 -4 -35 -4c-20.667 0 -31 11.333 -31 34s9 34 27 34c4.66699 0 8.33398 -0.333008 11.001 -1h9c10 0 16 4.5 18 13.5s3.66699 35.833 5 80.5l1 43v245c0 4.66699 -0.333008 14.334 -1 29.001c-0.666992 17.333 -1 32 -1 44l-1 52
c-0.666992 22.667 -8.66699 34 -24 34h-6c-2.66699 -0.666992 -6 -1 -10 -1c-20 0 -30 10.667 -30 32c0 9.33301 3.16699 17.5 9.5 24.5s13.833 10.5 22.5 10.5c4.66699 0 12.667 -1.66699 24 -5c4.66699 -1.33301 11.667 -2 21 -2c10.667 0 20.334 1 29.001 3
c12 2.66699 18.667 4 20 4c12 0 18 -7.66699 18 -23c0 -5.33301 -0.333008 -9.33301 -1 -12v-35c0 -14 -0.333008 -34.5 -1 -61.5s-1 -47.5 -1 -61.5z" />
    <glyph glyph-name="l" unicode="l" horiz-adv-x="234" 
d="M153 465l-0.00195312 -309.001c0 -43.333 1.16699 -69.833 3.5 -79.5s8.83301 -14.5 19.5 -14.5h9c3.33301 0.666992 7.33301 1 12 1c7.33301 0 13.666 -3.33301 18.999 -10s8 -14.667 8 -24c0 -22.667 -11 -34 -33 -34c-5.33301 0 -19 1.66699 -41 5
c-13.333 2 -28 3 -44 3c-11.333 0 -22.333 -1 -33 -3c-17.333 -3.33301 -26.666 -5 -27.999 -5c-20.667 0 -31 11.333 -31 34s9 34 27 34c4.66699 0 8.33398 -0.333008 11.001 -1h9c10 0 16 4.5 18 13.5s3.66699 35.833 5 80.5l1 43v245
c0 4.66699 -0.333008 14.334 -1 29.001c-0.666992 17.333 -1 32 -1 44l-1 52c-0.666992 22.667 -8.66699 34 -24 34h-6c-2.66699 -0.666992 -6 -1 -10 -1c-20 0 -30 10.667 -30 32c0 9.33301 3.16699 17.5 9.5 24.5s13.833 10.5 22.5 10.5c4.66699 0 12.667 -1.66699 24 -5
c6.66699 -2 13.334 -3 20.001 -3c6 0 14.833 1.33301 26.5 4s19.834 4 24.501 4c12.667 0 19 -7.33301 19 -22v-13c-0.666992 -6 -1.33398 -19 -2.00098 -39l-2 -62z" />
    <glyph glyph-name="m" unicode="m" horiz-adv-x="701" 
d="M164 464c0 -4.66699 -0.331055 -9.99902 -0.998047 -15.999c34 36 68 54 102 54c23.333 0 42.5 -4.66699 57.5 -14s30.5 -26 46.5 -50c24 42.667 63 64 117 64c57.333 0 96.666 -21.333 117.999 -64c12.667 -26 19 -70.667 19 -134v-148
c0 -43.333 1.16699 -69.833 3.5 -79.5s8.83301 -14.5 19.5 -14.5h9c3.33301 0.666992 7 1 11 1c18 0 27 -11.333 27 -34s-10.667 -34 -32 -34c-7.33301 0 -18.166 1.33301 -32.499 4s-25.166 4 -32.499 4c-9.33301 0 -21.333 -1.33301 -36 -4s-25 -4 -31 -4
c-24 0 -36 12.333 -36 37c0 20 8.66699 30 26 30c2 0 7 -0.333008 15 -1h3c6 0 9.83301 2 11.5 6s2.5 14 2.5 30v3c0 21.333 0.333008 40.666 1 57.999l2 58v69c0 58 -5.33301 97.333 -16 118s-31.334 31 -62.001 31c-29.333 0 -50 -11 -62 -33s-18 -59.667 -18 -113l1 -200
c0 -12 1.5 -19.667 4.5 -23s8.16699 -5 15.5 -5h8c22.667 0 34 -11 34 -33c0 -21.333 -10 -32 -30 -32c-7.33301 0 -18.666 1.33301 -33.999 4s-27 4 -35 4c-13.333 0 -27 -1.33301 -41 -4s-23.333 -4 -28 -4c-19.333 0 -29 11.667 -29 35c0 20.667 8 31 24 31h16
c13.333 0 20.666 12.333 21.999 37l3 46v141c0 57.333 -5.5 96.833 -16.5 118.5s-31.167 32.5 -60.5 32.5c-30.667 0 -52.834 -14.333 -66.501 -43s-20.5 -74.667 -20.5 -138l1 -154c0.666992 -27.333 4.66699 -41 12 -41c2.66699 0 6.5 0.5 11.5 1.5s8.83301 1.5 11.5 1.5
c18.667 0 28 -10.667 28 -32c0 -24 -12 -36 -36 -36c-7.33301 0 -18.833 1.33301 -34.5 4s-27.5 4 -35.5 4c-7.33301 0 -17.833 -1.33301 -31.5 -4s-23.834 -4 -30.501 -4c-21.333 0 -32 11.333 -32 34s9.33301 34 28 34c4 0 7.66699 -0.333008 11 -1h9
c10.667 0 17.167 4.83301 19.5 14.5s3.5 36.167 3.5 79.5v176c0 42 -1.5 68.667 -4.5 80s-9.83301 17 -20.5 17h-2c-0.666992 -0.666992 -1.33398 -1 -2.00098 -1h-9c-4 -0.666992 -6.33301 -1 -7 -1c-18 0 -27 10.667 -27 32c0 10 3 18.5 9 25.5s13.333 10.5 22 10.5
c5.33301 0 13.5 -1 24.5 -3s19.5 -3 25.5 -3c8.66699 0 18.334 1.33301 29.001 4c5.33301 1.33301 9.33301 2 12 2c10.667 0 16 -10.333 16 -31z" />
    <glyph glyph-name="n" unicode="n" horiz-adv-x="503" 
d="M165 450c28.667 34.667 67.668 52 117.001 52c55.333 0 94.666 -19 117.999 -57c16.667 -27.333 25 -76 25 -146v-143c0 -43.333 1.16699 -69.833 3.5 -79.5s8.83301 -14.5 19.5 -14.5h9c3.33301 0.666992 7 1 11 1c18 0 27 -11.333 27 -34s-10.333 -34 -31 -34
c-7.33301 0 -18.5 1.33301 -33.5 4s-26.5 4 -34.5 4c-8.66699 0 -21.5 -1.33301 -38.5 -4s-29.833 -4 -38.5 -4c-21.333 0 -32 11.333 -32 34c0 9.33301 2.66699 17.333 8 24s11.666 10 18.999 10c4.66699 0 8.66699 -0.333008 12 -1h9c10 0 15.833 4.5 17.5 13.5
s3.16699 35.833 4.5 80.5l1 43v98c0 50.667 -7 87 -21 109s-36.667 33 -68 33c-32 0 -57.333 -14.5 -76 -43.5s-28 -68.167 -28 -117.5v-122c0 -43.333 1.16699 -69.833 3.5 -79.5s8.83301 -14.5 19.5 -14.5h9c2.66699 0.666992 6.33398 1 11.001 1c18 0 27 -11.333 27 -34
s-10.333 -34 -31 -34c-5.33301 0 -18 2 -38 6c-13.333 1.33301 -25.666 2 -36.999 2c-14 0 -26.667 -1 -38 -3c-18.667 -3.33301 -29.667 -5 -33 -5c-20.667 0 -31 11.333 -31 34s9.33301 34 28 34c4 0 7.66699 -0.333008 11 -1h9c10.667 0 17.167 4.83301 19.5 14.5
s3.5 36.167 3.5 79.5v176c0 42 -1.5 68.667 -4.5 80s-9.83301 17 -20.5 17h-2c-0.666992 -0.666992 -1.33398 -1 -2.00098 -1h-9c-4 -0.666992 -6.33301 -1 -7 -1c-18 0 -27 10.667 -27 32c0 10 3 18.5 9 25.5s13.333 10.5 22 10.5c5.33301 0 13.5 -1 24.5 -3
s19.5 -3 25.5 -3c10 0 17.333 0.666992 22 2c9.33301 2.66699 16 4 20 4c10.667 0 16 -7.66699 16 -23v-22z" />
    <glyph glyph-name="o" unicode="o" horiz-adv-x="430" 
d="M215 -13c-54.667 0 -98 23.167 -130 69.5s-48 108.833 -48 187.5s16 141.334 48 188.001s75.333 70 130 70s98 -23.333 130 -70s48 -109.334 48 -188.001s-16 -141.167 -48 -187.5s-75.333 -69.5 -130 -69.5zM215 435c-32.667 0 -58.667 -17.5 -78 -52.5
s-29 -81.167 -29 -138.5s9.66699 -103.333 29 -138s45.333 -52 78 -52s58.834 17.333 78.501 52s29.5 80.667 29.5 138s-9.83301 103.5 -29.5 138.5s-45.834 52.5 -78.501 52.5z" />
    <glyph glyph-name="p" unicode="p" horiz-adv-x="442" 
d="M135 465c0 -6 -0.334961 -12 -1.00195 -18c38.667 36.667 76.334 55 113.001 55c48 0 86.333 -22.5 115 -67.5s43 -105.833 43 -182.5c0 -79.333 -15.667 -143.333 -47 -192s-72.666 -73 -123.999 -73c-35.333 0 -67.666 14.667 -96.999 44v-36
c0 -43.333 1.16699 -69.833 3.5 -79.5s8.83301 -14.5 19.5 -14.5h9c6.66699 1.33301 10.334 2 11.001 2c18 0 27 -11.667 27 -35c0 -22.667 -10.333 -34 -31 -34c-6 0 -17 1.66699 -33 5s-28.667 5 -38 5c-14.667 0 -29.5 -1.66699 -44.5 -5s-24.5 -5 -28.5 -5
c-20.667 0 -31 11.333 -31 34c0 23.333 9 35 27 35c2 0 5.66699 -0.666992 11 -2h9c10.667 0 17.167 4.83301 19.5 14.5s3.5 36.167 3.5 79.5v337c0 42 -1.33301 68.667 -4 80s-9.33398 17 -20.001 17h-2c-1.33301 -0.666992 -2.33301 -1 -3 -1h-9
c-3.33301 -0.666992 -5.66602 -1 -6.99902 -1c-17.333 0 -26 10.667 -26 32c0 24 10 36 30 36c5.33301 0 12.666 -1 21.999 -3s19 -3 29 -3c5.33301 0 15.666 1.66699 30.999 5c3.33301 0.666992 6.33301 1 9 1c9.33301 0 14 -10 14 -30zM231.998 55
c31.333 0 56 17.501 74 52.501s27 83.167 27 144.5c0 56.667 -8.66699 100.667 -26 132s-41.333 47 -72 47c-31.333 0 -55.5 -16.5 -72.5 -49.5s-25.5 -79.833 -25.5 -140.5c0 -58.667 8.33301 -104.334 25 -137.001s40 -49 70 -49z" />
    <glyph glyph-name="q" unicode="q" horiz-adv-x="428" 
d="M211 502c33.333 0 66.333 -14.333 99 -43v14c0 23.333 11 35 33 35c20.667 0 31 -13.667 31 -41v-7l-2 -58l-2 -75v-332c0 -43.333 1.16699 -69.833 3.5 -79.5s8.83301 -14.5 19.5 -14.5h9c6.66699 1.33301 10.334 2 11.001 2c18 0 27 -11.667 27 -35
c0 -22.667 -10.333 -34 -31 -34c-8 0 -20 1.5 -36 4.5s-28.333 4.5 -37 4.5s-21 -1.5 -37 -4.5s-28 -4.5 -36 -4.5c-20.667 0 -31 11.333 -31 34c0 23.333 9 35 27 35c1.33301 0 5.33301 -0.666992 12 -2h8c10.667 0 17.167 5 19.5 15s3.5 36.333 3.5 79
c0 1.33301 0.333008 5.33301 1 12v18v16c-34 -36 -69.667 -54 -107 -54c-48.667 0 -87.334 21.667 -116.001 65s-43 102 -43 176c0 81.333 16 147.333 48 198s74 76 126 76zM212 433c-30.667 0 -55.168 -16.832 -73.501 -50.499s-28.166 -80.834 -29.499 -141.501v-11
c0 -52.667 8.66699 -94.5 26 -125.5s40.666 -46.5 69.999 -46.5c30.667 0 54.834 17 72.501 51s26.5 80.667 26.5 140c0 122.667 -30.667 184 -92 184z" />
    <glyph glyph-name="r" unicode="r" horiz-adv-x="391" 
d="M157 467l0.000976562 -13.001c27.333 32 59 48 95 48c35.333 0 64 -12.5 86 -37.5s33 -57.167 33 -96.5c0 -29.333 -5.83301 -53.333 -17.5 -72s-26.5 -28 -44.5 -28c-14 0 -25.667 4.66699 -35 14s-14 21 -14 35c0 26.667 14.667 42 44 46
c0.666992 4.66699 1 10.334 1 17.001c0 16 -5.5 29.833 -16.5 41.5s-24.167 17.5 -39.5 17.5c-56.667 0 -85 -56.333 -85 -169v-82c0 -57.333 1.33301 -92.833 4 -106.5s9.33398 -20.5 20.001 -20.5c2.66699 0 8.66699 0.666992 18 2c4.66699 1.33301 11 2 19 2
c20 0 30 -11 30 -33c0 -24.667 -11 -37 -33 -37c-7.33301 0 -22 2 -44 6c-14.667 1.33301 -28.667 2 -42 2c-10 0 -23.667 -1.33301 -41 -4s-29.333 -4 -36 -4c-21.333 0 -32 11.333 -32 34s9.33301 34 28 34c4 0 7.66699 -0.333008 11 -1h9
c10.667 0 17.167 4.83301 19.5 14.5s3.5 36.167 3.5 79.5v176c0 42 -1.5 68.667 -4.5 80s-9.83301 17 -20.5 17h-2c-0.666992 -0.666992 -1.33398 -1 -2.00098 -1h-9c-4 -0.666992 -6.33301 -1 -7 -1c-18 0 -27 10.667 -27 32c0 10 3 18.5 9 25.5s13.333 10.5 22 10.5
c5.33301 0 13.666 -1 24.999 -3s20 -3 26 -3s16.333 1.66699 31 5c3.33301 0.666992 6 1 8 1c6 0 9.33301 -9.33301 10 -28z" />
    <glyph glyph-name="s" unicode="s" horiz-adv-x="410" 
d="M198 501c30 0 59.668 -11.668 89.001 -35.001c0 26.667 9.66699 40 29 40c21.333 0 32 -12.333 32 -37c0 -2.66699 -0.666992 -9.66699 -2 -21c-2.66699 -22.667 -4 -40.667 -4 -54c0 -6.66699 0.666992 -17 2 -31s2 -24.333 2 -31c0 -22 -9.66699 -33 -29 -33
c-22.667 0 -34 16 -34 48c0 28.667 -7.33301 51.167 -22 67.5s-35 24.5 -61 24.5c-22.667 0 -41.167 -7 -55.5 -21s-21.5 -32.333 -21.5 -55c0 -22 6.66699 -38.333 20 -49s38.666 -20 75.999 -28c50.667 -10.667 85.667 -23.667 105 -39c30.667 -23.333 46 -57.333 46 -102
s-14.5 -81.667 -43.5 -111s-65.833 -44 -110.5 -44c-37.333 0 -72.333 15.333 -105 46v-8c0 -29.333 -10.333 -44 -31 -44c-21.333 0 -32 12.667 -32 38c0 8.66699 0.666992 19.334 2 32.001c0.666992 6.66699 1 22.334 1 47.001c0 8 -0.666992 20.333 -2 37s-2 29 -2 37
c0 21.333 9.66699 32 29 32c21.333 0 32.666 -13.667 33.999 -41c2.66699 -75.333 38.334 -113 107.001 -113c24 0 43.833 7.5 59.5 22.5s23.5 33.833 23.5 56.5c0 23.333 -7.16699 41 -21.5 53s-39.833 21.333 -76.5 28c-48.667 8.66699 -84 21 -106 37
c-30 21.333 -45 54.666 -45 99.999c0 43.333 14 79.333 42 108s63 43 105 43z" />
    <glyph glyph-name="t" unicode="t" horiz-adv-x="323" 
d="M69 508l1 12v79c0 29.333 11.333 44 34 44s34 -14.667 34 -44v-80c0 -11.333 1.16699 -18.5 3.5 -21.5s8.16602 -4.5 17.499 -4.5c11.333 0 21.666 0.333008 30.999 1l33 2c26.667 0 40 -12 40 -36c0 -25.333 -13.333 -38 -40 -38c-7.33301 0 -18.5 1.16699 -33.5 3.5
s-26.167 3.5 -33.5 3.5c-8 0 -13 -1.83301 -15 -5.5s-3 -12.167 -3 -25.5v-201c0 -46 0.666992 -73 2 -81c5.33301 -36.667 19.333 -55 42 -55c30 0 45 35 45 105v10c0 22 1 36 3 42c4 15.333 13.667 23 29 23c22.667 0 34 -20 34 -60c0 -14.667 -1.33301 -36 -4 -64
c-8 -85.333 -45.333 -128 -112 -128c-52 0 -84.667 23.667 -98 71c-6 21.333 -9 56.333 -9 105v238c0 14.667 -4 22 -12 22c-0.666992 0 -4.33398 -0.666992 -11.001 -2h-5c-2.66699 -0.666992 -4.66699 -1 -6 -1c-20 0 -30 12.667 -30 38c0 23.333 10 35 30 35
c2.66699 0 6.33398 -0.333008 11.001 -1s8.33398 -1 11.001 -1c6.66699 0 10.334 5 11.001 15z" />
    <glyph glyph-name="u" unicode="u" horiz-adv-x="480" 
d="M332 46c-29.333 -39.333 -66.666 -58.998 -111.999 -58.998c-25.333 0 -50 7 -74 21s-41.167 31.833 -51.5 53.5s-15.833 45.5 -16.5 71.5v66v133c0 42 -1.5 68.667 -4.5 80s-9.83301 17 -20.5 17h-2c-0.666992 -0.666992 -1.33398 -1 -2.00098 -1h-9
c-4 -0.666992 -6.33301 -1 -7 -1c-18 0 -27 10.667 -27 32c0 10 3 18.5 9 25.5s13.333 10.5 22 10.5c5.33301 0 13.5 -1 24.5 -3s19.167 -3 24.5 -3c10 0 17.667 0.666992 23 2l17 4c1.33301 0 2.66602 0.333008 3.99902 1h3c10.667 0 16 -6 16 -18v-10l-1 -43l-2 -130v-86
c0 -55.333 6.66699 -94.5 20 -117.5s36 -34.5 68 -34.5c65.333 0 98 62 98 186v28c0 29.333 -0.333008 53.333 -1 72l-2 52c-0.666992 22.667 -8.66699 34 -24 34h-6h-5c-2 -0.666992 -3.66699 -1 -5 -1c-19.333 0 -29 10.667 -29 32c0 9.33301 3.16699 17.666 9.5 24.999
s13.833 11 22.5 11c4 0 11.167 -1.33301 21.5 -4s18.166 -4 23.499 -4s13.333 1.16699 24 3.5s18.667 3.5 24 3.5c10.667 0 16 -9 16 -27v-14c-1.33301 -20.667 -2 -47.334 -2 -80.001v-215c0 -42 1.33301 -68.667 4 -80s9.33398 -17 20.001 -17h5
c4.66699 0.666992 10 1 16 1c17.333 0 26 -10.667 26 -32c0 -23.333 -10 -35 -30 -35c-5.33301 0 -13.666 1 -24.999 3s-20 3 -26 3c-4.66699 0 -11.5 -1.16699 -20.5 -3.5s-15.5 -3.5 -19.5 -3.5c-11.333 0 -17 10 -17 30v21z" />
    <glyph glyph-name="v" unicode="v" horiz-adv-x="463" 
d="M152 379l78.999 -284l80 284c5.33301 18.667 8 31 8 37c0 10 -6 15 -18 15h-8c-2.66699 -0.666992 -6.33398 -1 -11.001 -1c-20 0 -30 10.333 -30 31c0 22.667 10.333 34 31 34c6.66699 0 18.334 -1.66699 35.001 -5c14.667 -1.33301 27.334 -2 38.001 -2
c9.33301 0 23 1.16699 41 3.5s31.333 3.5 40 3.5c20 0 30 -11.333 30 -34c0 -21.333 -9 -32 -27 -32c-6.66699 0 -11.167 0.333008 -13.5 1s-4.5 1 -6.5 1c-11.333 0 -20.333 -7.33301 -27 -22c0 -0.666992 -3.66699 -13 -11 -37l-103 -331
c-6.66699 -21.333 -13.167 -35.666 -19.5 -42.999s-15.5 -11 -27.5 -11c-12.667 0 -22.167 3.66699 -28.5 11s-12.833 21.666 -19.5 42.999l-102 331l-12 37c-6.66699 14.667 -15.667 22 -27 22c-1.33301 0 -3.33301 -0.333008 -6 -1s-7.33398 -1 -14.001 -1
c-18 0 -27 10.667 -27 32c0 22.667 10 34 30 34c9.33301 0 22.833 -1.16699 40.5 -3.5s31.167 -3.5 40.5 -3.5c10.667 0 23.834 1.16699 39.501 3.5s26.834 3.5 33.501 3.5c20.667 0 31 -11.667 31 -35c0 -20 -10 -30 -30 -30c-4.66699 0 -8.33398 0.333008 -11.001 1h-9
c-11.333 0 -17 -5.33301 -17 -16c0 -4.66699 2.66699 -16.667 8 -36z" />
    <glyph glyph-name="w" unicode="w" horiz-adv-x="629" 
d="M150 370l57.001 -283l61 355c6 35.333 22.333 53 49 53c14.667 0 25.5 -3.66699 32.5 -11s12.5 -21.333 16.5 -42l70 -355l48 276c3.33301 19.333 5 34 5 44c0 14.667 -7 22 -21 22h-2c-2.66699 0 -7.33398 -0.333008 -14.001 -1c-17.333 0 -26 11 -26 33
c0 22.667 9.33301 34 28 34c8.66699 0 21.334 -1.66699 38.001 -5s29.667 -5 39 -5s22 1.66699 38 5s28 5 36 5c18.667 0 28 -11 28 -33c0 -21.333 -12.333 -32 -37 -32c-12.667 0 -22.5 -7 -29.5 -21s-14.5 -41.333 -22.5 -82l-55 -285c-7.33301 -36.667 -25 -55 -53 -55
c-26.667 0 -44.334 21.333 -53.001 64l-66 319l-63 -328c-7.33301 -36.667 -24 -55 -50 -55c-24.667 0 -41.334 18.333 -50.001 55l-80 338c-4.66699 18.667 -8 29.667 -10 33c-5.33301 11.333 -13.666 17 -24.999 17h-3l-14 -1
c-6.66699 -0.666992 -12.667 2.83301 -18 10.5s-8 15.167 -8 22.5c0 22 10.667 33 32 33c4 0 15.333 -1.66699 34 -5c10 -2.66699 22 -4 36 -4c9.33301 0 22.833 1.5 40.5 4.5s31.167 4.5 40.5 4.5c19.333 0 29 -10.667 29 -32c0 -22.667 -10 -34 -30 -34h-13
c-13.333 0 -20 -7.33301 -20 -22c0 -8 1.66699 -20.333 5 -37z" />
    <glyph glyph-name="x" unicode="x" horiz-adv-x="487" 
d="M123 137l77.9971 120.001l-70 114c-12.667 20 -21 32.667 -25 38c-12 14 -25 21 -39 21h-5c-4.66699 -0.666992 -9.66699 -1 -15 -1c-20 0 -30 10.333 -30 31c0 9.33301 3.33301 17.5 10 24.5s14.334 10.5 23.001 10.5c7.33301 0 18.333 -1 33 -3s26.334 -3 35.001 -3
c15.333 0 30.5 1 45.5 3s26.167 3 33.5 3c23.333 0 35 -11 35 -33s-11.667 -33 -35 -33c-7.33301 0 -11 -3 -11 -9c0 -0.666992 5 -9.33398 15 -26.001l46 -77l63 95c2.66699 4.66699 4 8.66699 4 12c0 4 -2.33301 6 -7 6h-4c-2.66699 -0.666992 -5.66699 -1 -9 -1
c-20.667 0 -31 10.667 -31 32c0 22.667 10.667 34 32 34c8.66699 0 21.5 -1.33301 38.5 -4s29.833 -4 38.5 -4s21.167 1.33301 37.5 4s28.166 4 35.499 4c20.667 0 31 -11 31 -33c0 -9.33301 -3.16699 -17.333 -9.5 -24s-13.833 -10 -22.5 -10
c2.66699 0 -0.666016 0.333008 -9.99902 1c-6.66699 0.666992 -11.334 1 -14.001 1c-11.333 0 -23 -8 -35 -24l-19 -25l-81 -124l105 -168c12 -18 25.333 -27 40 -27h4c4.66699 0.666992 9.66699 1 15 1c19.333 0 29 -11 29 -33c0 -9.33301 -3.33301 -17.5 -10 -24.5
s-14.334 -10.5 -23.001 -10.5c-6 0 -20 2 -42 6c-7.33301 1.33301 -19 2 -35 2c-21.333 0 -34.666 -0.666992 -39.999 -2l-40 -6c-21.333 0 -32 11.667 -32 35c0 22.667 11 34 33 34h6c2.66699 -0.666992 6 -1 10 -1c6.66699 0 10 2.66699 10 8s-4.33301 15 -13 29l-17 27
l-44 68l-63 -93l-13 -17c-3.33301 -4.66699 -5 -9 -5 -13c0 -7.33301 5 -11 15 -11h5c2.66699 0.666992 6.33398 1 11.001 1c20 0 30 -11 30 -33c0 -22.667 -10.667 -34 -32 -34c-6.66699 0 -15.334 1 -26.001 3c-14 2 -23 3.33301 -27 4c-9.33301 0.666992 -20 1 -32 1
c-9.33301 0 -20.666 -0.666992 -33.999 -2c-20.667 -4 -33.334 -6 -38.001 -6c-9.33301 0 -17.166 3.33301 -23.499 10s-9.5 14.667 -9.5 24c0 22.667 10.667 34 32 34c4.66699 0 8.33398 -0.333008 11.001 -1h6c2.66699 -0.666992 4.66699 -1 6 -1
c13.333 0 36.333 25.333 69 76z" />
    <glyph glyph-name="y" unicode="y" horiz-adv-x="470" 
d="M166 378l77.0029 -297.001l77 320c2 8.66699 3 14.334 3 17.001c0 8.66699 -6 13 -18 13c-2.66699 0 -4.66699 -0.333008 -6 -1c-4 -0.666992 -8.66699 -1 -14 -1c-8 0 -15 3.33301 -21 10s-9 14.334 -9 23.001c0 22 11.333 33 34 33c8.66699 0 21.834 -1 39.501 -3
s31.167 -3 40.5 -3c8.66699 0 21.167 1 37.5 3s28.5 3 36.5 3c21.333 0 32 -11 32 -33c0 -21.333 -11 -32 -33 -32c-0.666992 0 -2.33398 0.333008 -5.00098 1h-6c-6.66699 1.33301 -10.667 2 -12 2c-10 0 -18 -10.333 -24 -31l-12 -41l-84 -290
c-28.667 -98 -57.5 -167 -86.5 -207s-65.5 -60 -109.5 -60c-31.333 0 -57.5 10.333 -78.5 31s-31.5 46.667 -31.5 78c0 19.333 5 35.5 15 48.5s22.667 19.5 38 19.5c13.333 0 24.166 -4.66699 32.499 -14s12.5 -21.333 12.5 -36c0 -18 -6.33301 -31.667 -19 -41
c8 -10.667 19 -16 33 -16c23.333 0 44.5 13.5 63.5 40.5s28.5 57.5 28.5 91.5c0 8 -1.33301 16.333 -4 25l-10 32l-97 326c-8.66699 28 -21.334 42 -38.001 42h-6c-6 -1.33301 -11 -2 -15 -2c-7.33301 0 -13.833 3.33301 -19.5 10s-8.5 14.667 -8.5 24
c0 21.333 10.667 32 32 32c8.66699 0 21.667 -1.66699 39 -5s30.666 -5 39.999 -5s23.166 1.66699 41.499 5s31.833 5 40.5 5c20.667 0 31 -10.667 31 -32c0 -23.333 -9.66699 -35 -29 -35c-4.66699 0 -9 0.333008 -13 1c-1.33301 0.666992 -3.66602 1 -6.99902 1
c-10 0 -15 -4.66699 -15 -14c0 -4.66699 0.333008 -8.33398 1 -11.001z" />
    <glyph glyph-name="z" unicode="z" horiz-adv-x="428" 
d="M59 118l240.999 316.001h-114c-27.333 0 -45.666 -2 -54.999 -6c-14.667 -6.66699 -22 -21.667 -22 -45c0 -8 0.166992 -13.833 0.5 -17.5s0.833008 -7.83398 1.5 -12.501v-11c0 -26 -10.667 -39 -32 -39s-32 11.667 -32 35c0 8 0.833008 20.167 2.5 36.5
s2.5 28.5 2.5 36.5c0 6 -0.666992 15.167 -2 27.5s-2 21.5 -2 27.5c0 22.667 12 34 36 34c3.33301 0 12.333 -0.666992 27 -2c6 -1.33301 22.667 -2 50 -2h17c11.333 -0.666992 20.666 -1 27.999 -1c16 0 38 0.333008 66 1c31.333 0.666992 53 1 65 1
c34 0 51 -13.333 51 -40c0 -16.667 -6 -32.667 -18 -48l-264 -343h133c28.667 0 46.667 1.33301 54 4c17.333 5.33301 26 19.333 26 42c0 -5.33301 -0.666992 6.66699 -2 36c-0.666992 12 -1 19.333 -1 22c0 33.333 11.333 50 34 50c19.333 0 29 -11.667 29 -35
c0 -10.667 -0.833008 -27 -2.5 -49s-2.5 -38.333 -2.5 -49c0 -5.33301 0.333008 -13.833 1 -25.5s1 -20.167 1 -25.5c0 -26.667 -13 -40 -39 -40h-12c-6 0.666992 -11.667 1.16699 -17 1.5s-21.666 0.833008 -48.999 1.5l-47 1l-124 -3c-39.333 0 -59 17 -59 51
c0 20.667 10 44 30 70z" />
    <glyph glyph-name="braceleft" unicode="{" 
d="M272 360c0 -32 -4.50098 -56.168 -13.501 -72.501s-25.167 -30.5 -48.5 -42.5c23.333 -12 39.5 -26.667 48.5 -44s13.5 -41.666 13.5 -72.999v-166c0 -37.333 6.16699 -62 18.5 -74s37.833 -18.333 76.5 -19v-56c-8 -0.666992 -15.667 -1 -23 -1
c-50.667 0 -86.5 11.333 -107.5 34s-31.5 60.667 -31.5 114v166c0 29.333 -4.16699 51 -12.5 65s-23.166 24 -44.499 30v53c38 10 57 40 57 90v178c0 48.667 10.833 83.667 32.5 105s57.167 32 106.5 32h23v-57c-38 -0.666992 -63.333 -7 -76 -19s-19 -35.333 -19 -70v-173z
" />
    <glyph glyph-name="bar" unicode="|" 
d="M217 -250v1000h66v-1000h-66z" />
    <glyph glyph-name="braceright" unicode="}" 
d="M238 131c0 32 4.33203 56.168 12.999 72.501s25 30.5 49 42.5c-23.333 12 -39.5 26.667 -48.5 44s-13.5 41.666 -13.5 72.999v167c0 36.667 -6.33301 61 -19 73s-38 18.333 -76 19v57h23c50 0 85.667 -11.333 107 -34s32 -60.667 32 -114v-166
c0 -29.333 4.33301 -51 13 -65s23.334 -23.667 44.001 -29v-53c-38 -11.333 -57 -41.333 -57 -90v-179c0 -48 -11 -82.833 -33 -104.5s-57.333 -32.5 -106 -32.5c-7.33301 0 -15 0.333008 -23 1v56c38 0.666992 63.333 7 76 19s19 35.333 19 70v173z" />
    <glyph glyph-name="asciitilde" unicode="~" horiz-adv-x="667" 
d="M224 658c-33.333 0 -63.666 -24.333 -90.999 -73l-40 26c21.333 41.333 42 70.333 62 87s44.667 25 74 25c25.333 0 63 -11.667 113 -35c45.333 -21.333 77.666 -32 96.999 -32c34.667 0 65.667 23 93 69l41 -24c-36.667 -73.333 -83.667 -110 -141 -110
c-22 0 -49.333 7.33301 -82 22l-58 26c-28 12.667 -50.667 19 -68 19z" />
    <glyph glyph-name="nonbreakingspace" unicode="&#xa0;" horiz-adv-x="250" 
 />
    <glyph glyph-name="exclamdown" unicode="&#xa1;" horiz-adv-x="236" 
d="M118 495c14.667 0 26.834 -5.83301 36.501 -17.5s14.5 -26.5 14.5 -44.5c0 -18.667 -4.83301 -33.834 -14.5 -45.501s-21.834 -17.5 -36.501 -17.5s-26.834 5.83301 -36.501 17.5s-14.5 26.834 -14.5 45.501c0 18 4.83301 32.833 14.5 44.5s21.834 17.5 36.501 17.5z
M118 332c21.333 0 32.332 -16.333 32.999 -49l6 -435c0.666992 -30.667 -11.666 -46 -36.999 -46c-28.667 0 -42.667 15.333 -42 46l6 435c0.666992 32.667 12 49 34 49z" />
    <glyph glyph-name="cent" unicode="&#xa2;" 
d="M346 459c-11.333 39.333 -34.332 61.333 -68.999 66v-378c43.333 6.66699 68.333 31.667 75 75l6 40c3.33301 21.333 14.666 32 33.999 32c22.667 0 34 -15 34 -45c0 -33.333 -8.66699 -64.666 -26 -93.999c-25.333 -42.667 -65.333 -69.334 -120 -80.001l2 -88
c0 -18 -9.66699 -27 -29 -27c-18 0 -27 9 -27 27v4l2 84c-102.667 16.667 -154 99 -154 247c0 95.333 21.333 168.333 64 219c20 24 50.333 41 91 51l-5 96c0 18.667 9.33301 28 28 28c20.667 0 31 -10.667 31 -32v-2l-3 -89c35.333 -6.66699 62 -16.334 80 -29.001
c38.667 -28 58 -70 58 -126c0 -25.333 -5.5 -45.833 -16.5 -61.5s-25.833 -23.5 -44.5 -23.5c-13.333 0 -24.5 5 -33.5 15s-13.5 22.667 -13.5 38c0 26.667 12 44.334 36 53.001zM230.001 148v374c-26 -13.333 -45 -32.666 -57 -57.999
c-18.667 -40.667 -28 -87.334 -28 -140.001c0 -97.333 28.333 -156 85 -176z" />
    <glyph glyph-name="sterling" unicode="&#xa3;" 
d="M211 498c0 -26 6.66895 -58.6709 20.002 -98.0039h131c24.667 0 39 -4 43 -12c2 -4 3 -10 3 -18c0 -18.667 -14 -28 -42 -28h-117c23.333 -50 35 -96.333 35 -139c0 -23.333 -4 -48.666 -12 -75.999c3.33301 -3.33301 7.66602 -8 12.999 -14
c38 -40.667 64.667 -61 80 -61c26.667 0 47.667 22.333 63 67c5.33301 16 8 30.667 8 44c0 27.333 -10 41 -30 41c-10 0 -19.333 -6.5 -28 -19.5s-17 -19.5 -25 -19.5c-7.33301 0 -14 2.83301 -20 8.5s-9 11.834 -9 18.501c0 15.333 9.66699 31.333 29 48
s38.666 25 57.999 25c24.667 0 45 -9.66699 61 -29s24 -43.666 24 -72.999c0 -45.333 -13.667 -86 -41 -122s-58 -54 -92 -54c-32 0 -70 26 -114 78c-34 -52 -77 -78 -129 -78c-30.667 0 -57.334 10.333 -80.001 31s-34 44.667 -34 72s11.5 50.833 34.5 70.5
s50.833 29.5 83.5 29.5c28.667 0 60.334 -9.33301 95.001 -28c1.33301 11.333 2 22.666 2 33.999c0 36.667 -12.667 85.334 -38 146.001h-95c-16.667 0 -27.167 2 -31.5 6s-6.5 11 -6.5 21c0 12.667 3 21 9 25c4 2 13.333 3.66699 28 5l13 1h60c-12 30 -18 59.333 -18 88
c0 56.667 15 102.834 45 138.501s69 53.5 117 53.5c41.333 0 75.5 -13.5 102.5 -40.5s40.5 -61.167 40.5 -102.5c0 -52.667 -16.667 -79 -50 -79c-28.667 0 -43 15.667 -43 47c0 22 9.66699 36.667 29 44c-18 44 -45 66 -81 66c-26 0 -47.667 -11 -65 -33s-26 -50 -26 -84z
M121.002 44.9961c36 0 64 20 84 60c-24.667 19.333 -50 29 -76 29c-18 0 -33 -4 -45 -12s-18 -18.333 -18 -31s5.5 -23.5 16.5 -32.5s23.833 -13.5 38.5 -13.5z" />
    <glyph glyph-name="currency" unicode="&#xa4;" horiz-adv-x="667" 
d="M97 83l-38 38.001l93 94c-34.667 43.333 -52 91 -52 143c0 49.333 17 96.666 51 141.999l-94 94l38 38l94 -94c46 34.667 94.333 52 145 52c50 0 97.667 -17 143 -51l94 92l38 -37l-93 -94c34 -46.667 51 -94 51 -142c0 -48.667 -17 -96 -51 -142l94 -94l-37 -38l-95 94
c-45.333 -34.667 -93.333 -52 -144 -52c-48 0 -96 17 -144 51zM505 358.001c0 47.333 -16.833 87.833 -50.5 121.5s-74.167 50.5 -121.5 50.5s-87.666 -16.833 -120.999 -50.5s-50 -74.167 -50 -121.5s16.667 -87.833 50 -121.5s73.666 -50.5 120.999 -50.5
s87.833 16.833 121.5 50.5s50.5 74.167 50.5 121.5z" />
    <glyph glyph-name="yen" unicode="&#xa5;" horiz-adv-x="567" 
d="M197 532l85.002 -200.001l96 200c4 8 7.33301 17.333 10 28c2 6.66699 3.66699 13 5 19c0 0.666992 0.333008 1.33398 1 2.00098v2c0 9.33301 -4.66699 14 -14 14c-3.33301 0 -7.83301 -0.666992 -13.5 -2s-10.167 -2 -13.5 -2c-18 0 -27 12.667 -27 38
c0 26.667 11.667 40 35 40c10 0 21.333 -1.66699 34 -5c15.333 -4 30.666 -6 45.999 -6c10 0 24.5 1.83301 43.5 5.5s33.5 5.5 43.5 5.5c23.333 0 35 -12.333 35 -37c0 -26 -10.667 -39 -32 -39c-0.666992 0 -6.33398 0.666992 -17.001 2
c-2.66699 0.666992 -6.66699 1 -12 1c-13.333 0 -26 -13.333 -38 -40l-12 -26l-45 -90h122c21.333 0 32 -9 32 -27c0 -17.333 -10.667 -26 -32 -26h-151l-41 -92h192c21.333 0 32 -9 32 -27c0 -17.333 -10.667 -26 -32 -26h-209l-1 -42l-1 -42v-48c0 -34 10.333 -51 31 -51
c2.66699 0 8.33398 0.833008 17.001 2.5s15.667 2.5 21 2.5c20 0 30 -10.667 30 -32c0 -26 -13 -39 -39 -39c-8 0 -21.667 1.66699 -41 5c-27.333 4.66699 -47.333 7 -60 7c-11.333 0 -28.333 -2 -51 -6s-39.667 -6 -51 -6c-24.667 0 -37 11.667 -37 35s11.667 35 35 35h8
c4 -0.666992 6.66699 -1 8 -1c7.33301 -1.33301 15 -2 23 -2c17.333 0 27 17 29 51c3.33301 51.333 4.66602 81 3.99902 89l-2 42h-208c-21.333 0 -32 8.66699 -32 26c0 18 10.667 27 32 27h193l-42 92h-151c-21.333 0 -32 8.66699 -32 26c0 18 10.667 27 32 27h123l-48 104
l-16 29c-8.66699 16 -17.667 24 -27 24c-3.33301 0 -8.5 -0.666992 -15.5 -2s-12.167 -2 -15.5 -2c-20 0 -30 12.667 -30 38s12 38 36 38c10 0 25 -1.83301 45 -5.5s35.333 -5.5 46 -5.5c8.66699 0 21.5 1.83301 38.5 5.5s29.5 5.5 37.5 5.5c10 0 18.667 -4 26 -12
s11 -17.667 11 -29c0 -24.667 -11.333 -37 -34 -37c-1.33301 0 -3.33301 0.333008 -6 1h-5c-6 2 -10.667 3 -14 3c-6.66699 0 -10 -3.33301 -10 -10c0 -4.66699 3.33301 -15 10 -31z" />
    <glyph glyph-name="brokenbar" unicode="&#xa6;" 
d="M217 -250v400h66v-400h-66zM217 350v400h66v-400h-66z" />
    <glyph glyph-name="section" unicode="&#xa7;" 
d="M62 323c0 54 25.998 95 77.998 123c-26.667 32.667 -40 64.334 -40 95.001c0 39.333 15.167 72.666 45.5 99.999s67.166 41 110.499 41c39.333 0 73.833 -11.833 103.5 -35.5s44.5 -51.5 44.5 -83.5c0 -17.333 -5.33301 -32 -16 -44s-24.334 -18 -41.001 -18
c-13.333 0 -24.333 4.33301 -33 13s-13 19.334 -13 32.001c0 15.333 8.66699 30.333 26 45c-19.333 16.667 -44 25 -74 25c-22 0 -40.167 -6.83301 -54.5 -20.5s-21.5 -30.834 -21.5 -51.501c0 -19.333 5.16699 -34.833 15.5 -46.5s35.5 -29.834 75.5 -54.501l45 -29
c12 -8 30 -20.667 54 -38c47.333 -34.667 71 -75.334 71 -122.001c0 -24.667 -6 -46.167 -18 -64.5s-33.667 -38.166 -65 -59.499c36 -38.667 54 -78.667 54 -120c0 -43.333 -15.833 -79 -47.5 -107s-72.167 -42 -121.5 -42c-47.333 0 -87 12.667 -119 38
s-48 56.666 -48 93.999c0 23.333 5.66699 42.333 17 57s26 22 44 22c14.667 0 26.834 -5 36.501 -15s14.5 -22.667 14.5 -38c0 -23.333 -13.333 -38.666 -40 -45.999c22.667 -33.333 54.334 -50 95.001 -50c26.667 0 48.834 8 66.501 24s26.5 36.333 26.5 61
c0 36.667 -21.333 69.334 -64 98.001l-108 73c-41.333 28 -68.166 51 -80.499 69s-18.5 43 -18.5 75zM130.998 325c0 -36.667 41.333 -77.332 124 -121.999l24 -13c10 -5.33301 16.333 -8 19 -8c8.66699 0 18.667 4.33301 30 13c22.667 17.333 34 37.333 34 60
c0 17.333 -5.33301 32.166 -16 44.499s-32 28.5 -64 48.5l-46 28c-24.667 15.333 -40 23 -46 23s-16 -5.66699 -30 -17c-19.333 -15.333 -29 -34.333 -29 -57z" />
    <glyph glyph-name="dieresis" unicode="&#xa8;" 
d="M172 562c-32 0 -48 20 -48 60c0 39.333 16 59 48 59c32.667 0 49 -19.667 49 -59c0 -40 -16.333 -60 -49 -60zM328 562c-32.667 0 -49 20 -49 60c0 39.333 16.333 59 49 59c32 0 48 -19.667 48 -59c0 -40 -16 -60 -48 -60z" />
    <glyph glyph-name="copyright" unicode="&#xa9;" horiz-adv-x="773" 
d="M387 680c95.333 0 176.833 -33.833 244.5 -101.5s101.5 -149.5 101.5 -245.5c0 -95.333 -33.833 -176.833 -101.5 -244.5s-149.167 -101.5 -244.5 -101.5c-96 0 -177.833 33.833 -245.5 101.5s-101.5 149.167 -101.5 244.5c0 96 33.833 177.833 101.5 245.5
s149.5 101.5 245.5 101.5zM387 31c82.667 0 153.167 29.5 211.5 88.5s87.5 130.167 87.5 213.5s-29.167 154.666 -87.5 213.999s-128.833 89 -211.5 89s-153.167 -29.667 -211.5 -89s-87.5 -130.666 -87.5 -213.999s29.167 -154.5 87.5 -213.5s128.833 -88.5 211.5 -88.5z
M392 540c32.667 0 57.6699 -10.666 75.0029 -31.999c0 22 7.33301 33 22 33s22 -8.66699 22 -26c0 -7.33301 -0.666992 -18.5 -2 -33.5s-2 -26.5 -2 -34.5c0 -16.667 0.333008 -28 1 -34c1.33301 -12.667 2 -23.334 2 -32.001c0 -18.667 -8 -28 -24 -28s-24 9 -24 27
c0.666992 6.66699 1 12 1 16c0.666992 2 1 5.66699 1 11c0 26 -6.33301 46.667 -19 62s-29.334 23 -50.001 23c-28.667 0 -51.334 -14 -68.001 -42s-25 -66.333 -25 -115c0 -47.333 8.66699 -85.833 26 -115.5s40 -44.5 68 -44.5c46 0 72 28.667 78 86
c2.66699 24.667 12 37 28 37c15.333 0 23 -9 23 -27c0 -40.667 -12.833 -75 -38.5 -103s-56.834 -42 -93.501 -42c-44 0 -79 18.833 -105 56.5s-39 88.5 -39 152.5c0 60.667 13.167 110 39.5 148s60.833 57 103.5 57z" />
    <glyph glyph-name="ordfeminine" unicode="&#xaa;" horiz-adv-x="333" 
d="M241 393c-22 0 -36 9.33301 -42 28c-16.667 -18.667 -37.667 -28 -63 -28c-22.667 0 -41.334 7.5 -56.001 22.5s-22 34.167 -22 57.5c0 26 7 45.333 21 58s38 21.334 72 26.001c14.667 2 24.834 5.33301 30.501 10s8.5 14 8.5 28c0 26 -11.667 39 -35 39
c-12.667 0 -22.667 -3.66699 -30 -11c-2.66699 -2.66699 -4 -4.66699 -4 -6c0.666992 -2.66699 1.66699 -4.66699 3 -6c4.66699 -8.66699 7 -15.667 7 -21c0 -17.333 -9.66699 -26 -29 -26c-21.333 0 -32 12.667 -32 38c0 20 8 36.833 24 50.5s36 20.5 60 20.5
c29.333 0 50.333 -7.33301 63 -22s19 -39.334 19 -74.001v-116c0 -17.333 2.33301 -26 7 -26c6 0 9 11 9 33v12l-1 4c0 18 6.66699 27 20 27c14.667 0 22 -12 22 -36c0 -54.667 -17.333 -82 -52 -82zM57 330h237v-33h-237v33zM141 434c34 0 51.333 30.333 52 91
c-5.33301 -2 -14.333 -4.66699 -27 -8l-25 -4c-26 -4 -39 -17.667 -39 -41c0 -25.333 13 -38 39 -38z" />
    <glyph glyph-name="guillemotleft" unicode="&#xab;" horiz-adv-x="335" 
d="M157 438l-52 -150.003l49 -138c2 -5.33301 3 -10.666 3 -15.999c0 -10.667 -4.66699 -16 -14 -16c-6 0 -12 4.66699 -18 14l-89 146c-4 6.66699 -6 10.334 -6 11.001c0 2 2 6.33301 6 13l96 153c1.33301 2.66699 3 5.33398 5 8.00098s5 4 9 4
c8.66699 0 13 -5.33301 13 -16c0 -6 -0.666992 -10.333 -2 -13zM276 437.997l-53 -150.004l50 -138c2 -5.33301 3 -10.666 3 -15.999c0 -10.667 -4.66699 -16 -14 -16c-6 0 -12 4.66699 -18 14l-89 146c-4 6.66699 -6 10.334 -6 11.001c0 2 1.66699 6.33301 5 13l97 153
c1.33301 2.66699 3 5.33398 5 8.00098s5 4 9 4c8.66699 0 13 -5.33301 13 -16c0 -3.33301 -0.666992 -7.66602 -2 -12.999z" />
    <glyph glyph-name="logicalnot" unicode="&#xac;" 
d="M467 0h-67v206h-367v61h434v-267z" />
    <glyph glyph-name="softhyphen" unicode="&#xad;" horiz-adv-x="549" 
d="M46 205v62h457v-62h-457z" />
    <glyph glyph-name="registered" unicode="&#xae;" 
d="M247 754c56 0 103.833 -19.332 143.5 -57.999s59.5 -85.334 59.5 -140.001c0 -55.333 -19.833 -102.833 -59.5 -142.5s-87.5 -59.5 -143.5 -59.5c-54.667 0 -101.167 20 -139.5 60s-57.5 88.333 -57.5 145c0 54 19.167 100 57.5 138s84.833 57 139.5 57zM249 390.001
c45.333 0 84.167 15.835 116.5 47.502s48.5 70.167 48.5 115.5s-16 84.166 -48 116.499s-70.667 48.5 -116 48.5s-84 -15.667 -116 -47s-48 -69 -48 -113c0 -46.667 15.833 -86.334 47.5 -119.001s70.167 -49 115.5 -49zM315.001 609.003
c0 -26 -9.6709 -42.667 -29.0039 -50c12.667 -7.33301 19 -20.333 19 -39v-15l1 -13c0.666992 -12.667 3 -19 7 -19h5c1.33301 0.666992 3 1 5 1c9.33301 0 14 -4.66699 14 -14s-5.66699 -14 -17 -14h-4l-8 1h-8c-16 0 -24 18.667 -24 56v15c0 12 -2.5 19.5 -7.5 22.5
s-13.833 4.5 -26.5 4.5h-8c-2 -0.666992 -4.66699 -1 -8 -1s-5 -3.33301 -5 -10v-8c0 -35.333 2.33301 -53 7 -53h5c1.33301 0.666992 3.33301 1 6 1c8.66699 0 13 -4.33301 13 -13c0 -10.667 -5 -16 -15 -16c-3.33301 0 -8.66602 0.666992 -15.999 2s-12.666 2 -15.999 2
s-8.33301 -0.666992 -15 -2s-11.667 -2 -15 -2c-10 0 -15 5 -15 15c0 9.33301 4.33301 14 13 14c2.66699 0 4.66699 -0.333008 6 -1h5c4.66699 0 7 17.667 7 53v61c0 36 -2.33301 54 -7 54c-1.33301 0 -3.16602 -0.333008 -5.49902 -1s-4.16602 -1 -5.49902 -1
c-8.66699 0 -13 4.66699 -13 14c0 10 5 15 15 15c4 0 9.66699 -0.666992 17 -2s12.666 -2 15.999 -2c2 0 5.66699 0.333008 11 1s10 1 14 1c8.66699 0.666992 17.334 1 26.001 1c37.333 0 56 -19.333 56 -58zM224.997 572.003h10c33.333 0 50 11.667 50 35
c0 22.667 -12 34 -36 34c-18.667 0 -28 -4.33301 -28 -13v-51c0 -2.66699 0.333008 -4.16699 1 -4.5s1.66699 -0.5 3 -0.5z" />
    <glyph glyph-name="macron" unicode="&#xaf;" 
d="M155 640l45.001 -2h51c14 0 27 -0.333008 39 -1h14l36 2c26 0 39 -10.333 39 -31c0 -22.667 -13.333 -34 -40 -34c-8 0 -21 1 -39 3h-100c-20.667 -2 -35.334 -3 -44.001 -3c-23.333 0 -35 11 -35 33c0 23.333 11.333 34.333 34 33z" />
    <glyph glyph-name="degree" unicode="&#xb0;" 
d="M250 396c-38.667 0 -71.667 13.5 -99 40.5s-41 59.167 -41 96.5c0 38 13.667 70.333 41 97s60.333 40 99 40s71.667 -13.333 99 -40s41 -59 41 -97c0 -37.333 -13.667 -69.5 -41 -96.5s-60.333 -40.5 -99 -40.5zM250 627c-26.667 0 -49.334 -9.16699 -68.001 -27.5
s-28 -40.5 -28 -66.5s9.33301 -48.167 28 -66.5s41.334 -27.5 68.001 -27.5s49.334 9.16699 68.001 27.5s28 40.5 28 66.5s-9.33301 48.167 -28 66.5s-41.334 27.5 -68.001 27.5z" />
    <glyph glyph-name="plusminus" unicode="&#xb1;" 
d="M22 345v62h195v181h66v-181h195v-62h-198v-182h-63v182h-195zM22 57v62h456v-62h-456z" />
    <glyph glyph-name="twosuperior" unicode="&#xb2;" horiz-adv-x="330" 
d="M91 379c-13.333 -14 -21.999 -31.335 -25.999 -52.002c16.667 23.333 35.334 35 56.001 35c17.333 0 35 -8.66699 53 -26l24 -22c14.667 -13.333 27 -20 37 -20c7.33301 0 13.833 3.83301 19.5 11.5s8.5 16.834 8.5 27.501v3v5c-5.33301 -3.33301 -10.333 -5 -15 -5
c-8 0 -14.333 2.83301 -19 8.5s-7 12.834 -7 21.501c0 10 3.33301 18.5 10 25.5s14.334 10.5 23.001 10.5c13.333 0 23.833 -6 31.5 -18s11.5 -28.667 11.5 -50c0 -26 -6.16699 -48 -18.5 -66s-27.5 -27 -45.5 -27c-14 0 -33.333 9.66699 -58 29l-27 21
c-16 12.667 -30 19 -42 19c-8 0 -15 -1.83301 -21 -5.5s-9 -7.83398 -9 -12.501c0 -2 2 -4 6 -6c7.33301 -4.66699 11 -11.334 11 -20.001c0 -16.667 -7.66699 -25 -23 -25c-12.667 0 -22.834 6.33301 -30.501 19s-11.5 29.334 -11.5 50.001c0 42 11 76.667 33 104
c16 19.333 48.667 40.333 98 63c29.333 13.333 49.666 26.833 60.999 40.5s17 31.5 17 53.5c0 24.667 -7.16699 44.667 -21.5 60s-32.833 23 -55.5 23c-21.333 0 -39.166 -6 -53.499 -18s-21.833 -27.667 -22.5 -47c18.667 -2 28 -12.333 28 -31
c0 -12 -3.66699 -21.833 -11 -29.5s-16 -11.5 -26 -11.5c-12.667 0 -22.5 5.33301 -29.5 16s-10.5 24.667 -10.5 42c0 35.333 12.667 64.833 38 88.5s56.666 35.5 93.999 35.5c34.667 0 63 -12 85 -36s33 -54.667 33 -92c0 -23.333 -4.83301 -45.166 -14.5 -65.499
s-22.5 -35.833 -38.5 -46.5c-12.667 -8 -31.334 -17 -56.001 -27c-38 -16 -66.667 -33.667 -86 -53z" />
    <glyph glyph-name="threesuperior" unicode="&#xb3;" horiz-adv-x="330" 
d="M131 506l99.999 135.001h-100c-26.667 0 -40 -8.66699 -40 -26c0 -4.66699 0.666992 -12 2 -22c0.666992 -7.33301 1 -14.333 1 -21c0 -21.333 -7 -32 -21 -32c-14.667 0 -22 9.33301 -22 28c0 6 0.666992 16 2 30c1.33301 13.333 1.66602 24 0.999023 32l-1 35
c0 19.333 6 29 18 29c6 0 14.333 -0.666992 25 -2c13.333 -0.666992 22 -1 26 -1l44 -1l60 1l44 3h3c18.667 0 28 -8 28 -24c0 -8 -5 -18.667 -15 -32l-90 -115h7c30 0 54.333 -11.333 73 -34s28 -52.667 28 -90c0 -46.667 -13 -84.667 -39 -114s-59.333 -44 -100 -44
c-37.333 0 -68.666 12 -93.999 36s-38 53.667 -38 89c0 22 4.66699 40 14 54s21.333 21 36 21c22.667 0 34 -12.667 34 -38c0 -22.667 -8.33301 -34 -25 -34c-1.33301 0 -4.66602 0.666992 -9.99902 2v-7c0 -20.667 8.16699 -38.334 24.5 -53.001s35.5 -22 57.5 -22
c26.667 0 48.5 10.5 65.5 31.5s25.5 47.5 25.5 79.5c0 24.667 -6.16699 44.167 -18.5 58.5s-29.5 21.5 -51.5 21.5c-7.33301 0 -15 -1.33301 -23 -4c-12 -3.33301 -19 -5 -21 -5c-12 0 -18 6 -18 18c0 3.33301 2.66699 9 8 17z" />
    <glyph glyph-name="acute" unicode="&#xb4;" 
d="M180 583c0 9.33301 4.66797 18.668 14.001 28.001l66 67c17.333 17.333 31.666 26 42.999 26c10.667 0 19.667 -4.33301 27 -13s11 -19.334 11 -32.001c0 -20.667 -12.667 -36.667 -38 -48l-87 -40c-8.66699 -4 -15 -6 -19 -6c-11.333 0 -17 6 -17 18z" />
    <glyph glyph-name="mu" unicode="&#xb5;" 
d="M115 -167h-66.999v646h67v-273c0 -40.667 4.16699 -71.5 12.5 -92.5s23 -38.333 44 -52s45.5 -20.5 73.5 -20.5c49.333 0 87.666 23 114.999 69c15.333 26 23 61.333 23 106v263h66v-479h-66v89c-31.333 -68 -78 -102 -140 -102c-54 0 -96.667 25 -128 75v-229z" />
    <glyph glyph-name="paragraph" unicode="&#xb6;" horiz-adv-x="571" 
d="M278 -99l-59.001 0.00195312v413h-15c-54 0 -98.167 16.167 -132.5 48.5s-51.5 74.166 -51.5 125.499c0 38 9.83301 71.667 29.5 101s45.834 49.666 78.501 60.999s70 17 112 17h261v-53h-58v-713h-58v713h-107v-713z" />
    <glyph glyph-name="periodcentered" unicode="&#xb7;" horiz-adv-x="109" 
d="M54 270c-15.333 0 -28.166 6.16504 -38.499 18.498s-15.5 28.166 -15.5 47.499c0 18.667 5.16699 34.334 15.5 47.001s23.166 19 38.499 19c16 0 29.167 -6.16699 39.5 -18.5s15.5 -28.166 15.5 -47.499s-5.16699 -35.166 -15.5 -47.499s-23.5 -18.5 -39.5 -18.5z" />
    <glyph glyph-name="cedilla" unicode="&#xb8;" 
d="M234 0h41.9971l-10 -38c46.667 -0.666992 70 -22 70 -64c0 -22 -7.16699 -39.667 -21.5 -53s-33.166 -20 -56.499 -20c-18.667 0 -34.5 4.33301 -47.5 13s-19.5 19.334 -19.5 32.001c0 14 6.66699 21 20 21c4.66699 0 9.33398 -1.66699 14.001 -5l13 -13
c4 -4 9.33301 -6 16 -6c19.333 0 29 10 29 30c0 16 -8.33301 24 -25 24c-5.33301 0 -9.66602 -1 -12.999 -3l-12 -7c-2 -1.33301 -5 -2 -9 -2c-10 0 -15 5 -15 15c0 3.33301 1.66699 9.66602 5 18.999z" />
    <glyph glyph-name="onesuperior" unicode="&#xb9;" horiz-adv-x="330" 
d="M151 491l0.999023 101.998l-2 23c-0.666992 21.333 -6.33398 32 -17.001 32c-4 0 -9.33301 -0.833008 -16 -2.5s-11.667 -2.5 -15 -2.5c-14 0 -21 7.66699 -21 23c0 7.33301 2.33301 13.333 7 18s10.667 7 18 7c6.66699 0 14.834 -0.833008 24.501 -2.5
s18.167 -2.5 25.5 -2.5s13.333 0.666992 18 2c8.66699 3.33301 15 5 19 5c6.66699 0 10 -5.33301 10 -16v-7l-2 -25l-3 -99l-1 -56l2 -156c0.666992 -19.333 2.16699 -31.166 4.5 -35.499s8.5 -6.5 18.5 -6.5c4 0 9.66699 0.5 17 1.5s13 1.5 17 1.5
c15.333 0 23 -7.66699 23 -23c0 -16.667 -8 -25 -24 -25c-8 0 -20.667 1.33301 -38 4s-30.333 4 -39 4c-14 0 -29.333 -1.33301 -46 -4s-28 -4 -34 -4c-16 0 -24 7.66699 -24 23c0 16 6.66699 24 20 24c4 0 9.16699 -0.666992 15.5 -2s11.5 -2 15.5 -2
c14.667 0 22.334 12 23.001 36c0 4.66699 0.333008 15.334 1 32.001c1.33301 32 2 76.333 2 133z" />
    <glyph glyph-name="ordmasculine" unicode="&#xba;" horiz-adv-x="333" 
d="M167 393c-31.333 0 -56.333 12.667 -75 38s-28 59.333 -28 102s9.33301 76.667 28 102s43.667 38 75 38s56.333 -12.667 75 -38s28 -59.333 28 -102s-9.33301 -76.667 -28 -102s-43.667 -38 -75 -38zM65 330h203v-33h-203v33zM167 630
c-17.333 0 -31.167 -8.83301 -41.5 -26.5s-15.5 -41.167 -15.5 -70.5s5.16699 -53 15.5 -71s24.166 -27 41.499 -27c38 0 57 32.667 57 98c0 29.333 -5.16699 52.833 -15.5 70.5s-24.166 26.5 -41.499 26.5z" />
    <glyph glyph-name="guillemotright" unicode="&#xbb;" horiz-adv-x="335" 
d="M178 147l51.999 150.002l-49 138c-2 5.33301 -3 10.666 -3 15.999c0 10.667 4.66699 16 14 16c6 0 12 -4.66699 18 -14l89 -146c4 -6.66699 6 -10.334 6 -11.001c0 -2 -2 -6.33301 -6 -13l-101 -161c-1.33301 -2.66699 -4.66602 -4 -9.99902 -4c-8 0 -12 5.33301 -12 16
c0 6 0.666992 10.333 2 13zM58.999 147.002l52 150.003l-49 138c-2 5.33301 -3 10.666 -3 15.999c0 10.667 4.66699 16 14 16c6 0 12 -4.66699 18 -14l89 -146c4 -6.66699 6 -10.334 6 -11.001c0 -2 -2 -6.33301 -6 -13l-96 -153c-1.33301 -2.66699 -3 -5.33398 -5 -8.00098
s-5.33301 -4 -10 -4c-8 0 -12 5.33301 -12 16c0 6 0.666992 10.333 2 13z" />
    <glyph glyph-name="onequarter" unicode="&#xbc;" horiz-adv-x="656" 
d="M489 661c0 -4 -0.666992 -7 -2 -9l-292 -641c-6 -12.667 -18 -19 -36 -19c-14.667 0 -22 4 -22 12c0 0.666992 1.33301 5 4 13l289 637c6.66699 14 18.667 21 36 21c15.333 0 23 -4.66699 23 -14zM79 583v77.001l-1 18c-0.666992 16 -5 24 -13 24
c-2.66699 0 -6.66699 -0.666992 -12 -2s-9.33301 -2 -12 -2c-10.667 0 -16 6 -16 18c0 5.33301 1.83301 9.66602 5.5 12.999s8.5 5 14.5 5c4.66699 0 10.667 -0.666992 18 -2s14 -2 20 -2c5.33301 0 9.66602 0.666992 12.999 2c6.66699 2.66699 11.334 4 14.001 4
c5.33301 0 8 -4 8 -12v-5l-2 -19c0 -16.667 -0.666992 -42 -2 -76l-1 -42l2 -118c0.666992 -14.667 1.83398 -23.667 3.50098 -27s6.16699 -5 13.5 -5c3.33301 0 7.83301 0.333008 13.5 1s9.83398 1 12.501 1c12 0 18 -5.66699 18 -17c0 -13.333 -6 -20 -18 -20
c-6.66699 0 -16.5 1.16699 -29.5 3.5s-22.833 3.5 -29.5 3.5c-10.667 0 -22.334 -1.16699 -35.001 -3.5s-21.334 -3.5 -26.001 -3.5c-12 0 -18 6.33301 -18 19c0 11.333 5.33301 17 16 17c2.66699 0 6.5 -0.333008 11.5 -1s8.83301 -1 11.5 -1c11.333 0 17 9 17 27
c0 3.33301 0.333008 11.333 1 24c1.33301 24 2 57.667 2 101zM548 86.001l0.00195312 12h-103c-18 0 -27 7 -27 21c0 7.33301 4 17.666 12 30.999l105 176c5.33301 8.66699 13 13 23 13s16.667 -2.66699 20 -8s5 -15.666 5 -30.999v-167h34c12.667 0 19 -5.66699 19 -17
c0 -12 -7.66699 -18 -23 -18h-30v-12l1 -27c0 -18.667 5.33301 -28 16 -28c2 0 5 0.333008 9 1s7 1 9 1c11.333 0 17 -5.66699 17 -17c0 -5.33301 -1.83301 -9.83301 -5.5 -13.5s-8.16699 -5.5 -13.5 -5.5c-4.66699 0 -12.334 1.16699 -23.001 3.5s-19 3.5 -25 3.5
c-6.66699 0 -16 -1.16699 -28 -3.5s-21 -3.5 -27 -3.5c-11.333 0 -17 6.33301 -17 19c0 11.333 5.33301 17 16 17c1.33301 0 4.16602 -0.5 8.49902 -1.5s7.83301 -1.5 10.5 -1.5c9.33301 0 15 7.66699 17 23v33zM456.002 133.001h92v155z" />
    <glyph glyph-name="onehalf" unicode="&#xbd;" horiz-adv-x="646" 
d="M489 661c0 -4 -0.666992 -7 -2 -9l-292 -641c-6 -12.667 -18 -19 -36 -19c-14.667 0 -22 4 -22 12c0 0.666992 1.33301 5 4 13l289 637c6.66699 14 18.667 21 36 21c15.333 0 23 -4.66699 23 -14zM79 583v77.001l-1 18c-0.666992 16 -5 24 -13 24
c-2.66699 0 -6.66699 -0.666992 -12 -2s-9.33301 -2 -12 -2c-10.667 0 -16 6 -16 18c0 5.33301 1.83301 9.66602 5.5 12.999s8.5 5 14.5 5c4.66699 0 10.667 -0.666992 18 -2s14 -2 20 -2c5.33301 0 9.66602 0.666992 12.999 2c6.66699 2.66699 11.334 4 14.001 4
c5.33301 0 8 -4 8 -12v-5l-2 -19c0 -16.667 -0.666992 -42 -2 -76l-1 -42l2 -118c0.666992 -14.667 1.83398 -23.667 3.50098 -27s6.16699 -5 13.5 -5c3.33301 0 7.83301 0.333008 13.5 1s9.83398 1 12.501 1c12 0 18 -5.66699 18 -17c0 -13.333 -6 -20 -18 -20
c-6.66699 0 -16.5 1.16699 -29.5 3.5s-22.833 3.5 -29.5 3.5c-10.667 0 -22.334 -1.16699 -35.001 -3.5s-21.334 -3.5 -26.001 -3.5c-12 0 -18 6.33301 -18 19c0 11.333 5.33301 17 16 17c2.66699 0 6.5 -0.333008 11.5 -1s8.83301 -1 11.5 -1c11.333 0 17 9 17 27
c0 3.33301 0.333008 11.333 1 24c1.33301 24 2 57.667 2 101zM469 98.001c-10 -10.667 -16.332 -24 -18.999 -40c12 18 26 27 42 27c12.667 0 26 -6.33301 40 -19l18 -17c11.333 -10.667 20.666 -16 27.999 -16c6 0 11.167 3 15.5 9s6.5 13 6.5 21v3
c-0.666992 1.33301 -1 2.33301 -1 3c-3.33301 -2.66699 -7 -4 -11 -4c-6 0 -10.833 2.16699 -14.5 6.5s-5.5 9.83301 -5.5 16.5c0 7.33301 2.66699 13.666 8 18.999s11.333 8 18 8c9.33301 0 17 -4.5 23 -13.5s9 -21.5 9 -37.5c0 -20 -4.66699 -36.833 -14 -50.5
s-21 -20.5 -35 -20.5c-10.667 0 -25 7.33301 -43 22l-21 16c-12 10 -22.667 15 -32 15c-6 0 -11.333 -1.5 -16 -4.5s-7 -6.16699 -7 -9.5c0 -1.33301 1.66699 -3 5 -5c6 -3.33301 9 -8.33301 9 -15c0 -12.667 -6 -19 -18 -19c-9.33301 0 -17 4.83301 -23 14.5
s-9 22.5 -9 38.5c0 31.333 8.33301 57.333 25 78c12 15.333 36.667 31.333 74 48c22.667 10 38.334 20.333 47.001 31s13 24.334 13 41.001c0 18.667 -5.5 33.667 -16.5 45s-25.167 17 -42.5 17c-16 0 -29.333 -4.5 -40 -13.5s-16.334 -20.833 -17.001 -35.5
c14 -1.33301 21 -9.33301 21 -24c0 -8.66699 -2.83301 -16 -8.5 -22s-12.167 -9 -19.5 -9c-9.33301 0 -16.833 4.16699 -22.5 12.5s-8.5 19.166 -8.5 32.499c0 26 9.66699 48 29 66s43 27 71 27c26.667 0 48.334 -9 65.001 -27s25 -41.333 25 -70
c0 -17.333 -3.66699 -33.666 -11 -48.999s-17 -27 -29 -35c-10 -6.66699 -24.333 -13.667 -43 -21c-28.667 -12 -50.334 -25.333 -65.001 -40z" />
    <glyph glyph-name="threequarters" unicode="&#xbe;" horiz-adv-x="681" 
d="M514 661c0 -4 -0.666992 -7 -2 -9l-292 -641c-6 -12.667 -18 -19 -36 -19c-14.667 0 -22 4 -22 12c0 0.666992 1.33301 5 4 13l289 637c6.66699 14 18.667 21 36 21c15.333 0 23 -4.66699 23 -14zM573 86l0.00195312 12h-103c-18 0 -27 7 -27 21
c0 7.33301 4 17.666 12 30.999l105 176c5.33301 8.66699 13 13 23 13s16.667 -2.66699 20 -8s5 -15.666 5 -30.999v-167h34c12.667 0 19 -5.66699 19 -17c0 -12 -7.66699 -18 -23 -18h-30v-12l1 -27c0 -18.667 5.33301 -28 16 -28c2 0 5 0.333008 9 1s7 1 9 1
c11.333 0 17 -5.66699 17 -17c0 -5.33301 -1.83301 -9.83301 -5.5 -13.5s-8.16699 -5.5 -13.5 -5.5c-4.66699 0 -12.334 1.16699 -23.001 3.5s-19 3.5 -25 3.5c-6.66699 0 -16 -1.16699 -28 -3.5s-21 -3.5 -27 -3.5c-11.333 0 -17 6.33301 -17 19c0 11.333 5.33301 17 16 17
c1.33301 0 4.16602 -0.5 8.49902 -1.5s7.83301 -1.5 10.5 -1.5c9.33301 0 15 7.66699 17 23v33zM481.002 133h92v155zM95.002 594l75.001 102.994h-75c-20.667 0 -31 -6.66699 -31 -20c0 -3.33301 0.666992 -9 2 -17c0.666992 -5.33301 1 -10.666 1 -15.999
c0 -16 -5.66699 -24 -17 -24c-10.667 0 -16 7 -16 21c0 4.66699 0.333008 12.334 1 23.001c1.33301 10 1.66602 18 0.999023 24l-1 27c0 14 4.66699 21 14 21c4.66699 0 11 -0.333008 19 -1c10 -0.666992 16.667 -1 20 -1l33 -1l45 1l34 3h2c14 0 21 -6 21 -18
c0 -6.66699 -3.66699 -15 -11 -25l-68 -87h5c22.667 0 41 -8.66699 55 -26s21 -40 21 -68c0 -35.333 -9.66699 -64.166 -29 -86.499s-44.666 -33.5 -75.999 -33.5c-28 0 -51.667 9.16699 -71 27.5s-29 40.833 -29 67.5c0 16.667 3.66699 30.334 11 41.001s16.333 16 27 16
c17.333 0 26 -9.66699 26 -29c0 -16.667 -6.33301 -25 -19 -25c-1.33301 0 -4 0.333008 -8 1v-6c0 -15.333 6.16699 -28.5 18.5 -39.5s27.166 -16.5 44.499 -16.5c20 0 36.5 7.83301 49.5 23.5s19.5 35.834 19.5 60.501c0 18.667 -4.83301 33.334 -14.5 44.001
s-22.834 16 -39.501 16c-5.33301 0 -11 -0.666992 -17 -2c-9.33301 -2.66699 -14.666 -4 -15.999 -4c-9.33301 0 -14 4.33301 -14 13c0 2.66699 2.33301 7 7 13z" />
    <glyph glyph-name="questiondown" unicode="&#xbf;" horiz-adv-x="472" 
d="M249 495c14.667 0 26.834 -5.83301 36.501 -17.5s14.5 -26.5 14.5 -44.5c0 -18.667 -4.83301 -33.834 -14.5 -45.501s-21.834 -17.5 -36.501 -17.5s-26.834 5.83301 -36.501 17.5s-14.5 26.834 -14.5 45.501c0 18 4.83301 32.833 14.5 44.5s21.834 17.5 36.501 17.5z
M137 170c32 20 53.5 37.333 64.5 52s16.833 34.334 17.5 59.001l1 26c0.666992 20.667 12.334 31 35.001 31c22 0 33 -16 33 -48c0 -40 -9 -74.333 -27 -103c-14.667 -23.333 -41.667 -48 -81 -74c-28.667 -19.333 -48.334 -36.833 -59.001 -52.5s-16 -35.834 -16 -60.501
c0 -36 10.833 -65.5 32.5 -88.5s49.834 -34.5 84.501 -34.5c33.333 0 62.666 11.5 87.999 34.5s38 49.5 38 79.5c0 11.333 -3 17 -9 17c-2 0 -4.66699 -1.66699 -8 -5c-8 -6.66699 -16 -10 -24 -10c-26 0 -39 16 -39 48c0 18 6 33.5 18 46.5s26.333 19.5 43 19.5
c24.667 0 44.667 -10 60 -30s23 -46 23 -78c0 -54.667 -18.167 -99.667 -54.5 -135s-82.5 -53 -138.5 -53s-101 17.167 -135 51.5s-51 79.833 -51 136.5c0 70 34.667 127 104 171z" />
    <glyph glyph-name="Agrave" unicode="&#xc0;" horiz-adv-x="564" 
d="M123 202l116.002 423c6 20 11 32.667 15 38c7.33301 11.333 18.666 17 33.999 17c18.667 0 31.334 -4.5 38.001 -13.5s15 -33.833 25 -74.5l115 -457c8 -28.667 14.667 -47.5 20 -56.5s12.666 -13.5 21.999 -13.5c2.66699 0 8.66699 0.666992 18 2
c2 0 4.33301 0.333008 7 1h5c21.333 0 32 -11.333 32 -34c0 -26 -11.333 -39 -34 -39c-2.66699 0 -18 2.66699 -46 8c-14 2.66699 -28.667 4 -44 4c-12 0 -28.5 -2 -49.5 -6s-35.167 -6 -42.5 -6c-9.33301 0 -17.666 3.66699 -24.999 11s-11 16.333 -11 27
c0 23.333 11 35 33 35c4 0 7 -0.333008 9 -1h7c2.66699 -0.666992 4.33398 -1 5.00098 -1c15.333 0 23 10.667 23 32c0 11.333 -2 25.333 -6 42l-18 74c-2.66699 10.667 -5.33398 17.167 -8.00098 19.5s-8.33398 3.5 -17.001 3.5h-121c-14 0 -24 -11.667 -30 -35l-18 -71
c-4.66699 -18.667 -7 -33.667 -7 -45c0 -12.667 6 -19 18 -19c4.66699 0 8 0.166992 10 0.5s4.33301 0.833008 7 1.5h6c21.333 0 32 -12 32 -36c0 -25.333 -11 -38 -33 -38c-8.66699 0 -22.334 2 -41.001 6s-33.334 6 -44.001 6c-14.667 0 -32 -2 -52 -6s-34 -6 -42 -6
c-24 0 -36 12.333 -36 37c0 24 10.333 36 31 36c4 0 9.33301 -0.666992 16 -2s11.667 -2 15 -2c10.667 0 20.834 10 30.501 30s21.5 56 35.5 108zM369.002 705c-2.66699 0 -10.999 3.66797 -24.999 11.001l-100 53c-24 12.667 -39.833 23 -47.5 31s-11.5 17.667 -11.5 29
s3.83301 21.166 11.5 29.499s16.5 12.5 26.5 12.5c15.333 0 31.666 -8 48.999 -24l72 -66c2 -2 11 -10 27 -24c14 -12 21 -22.333 21 -31c0 -14 -7.66699 -21 -23 -21zM346.003 327.001l-55 247l-64 -247c-1.33301 -5.33301 -2 -9 -2 -11c0 -8.66699 6.33301 -13 19 -13h87
c11.333 0 17 4 17 12c0 2 -0.666992 6 -2 12z" />
    <glyph glyph-name="Aacute" unicode="&#xc1;" horiz-adv-x="564" 
d="M123 202l116.002 423c6 20 11 32.667 15 38c7.33301 11.333 18.666 17 33.999 17c18.667 0 31.334 -4.5 38.001 -13.5s15 -33.833 25 -74.5l115 -457c8 -28.667 14.667 -47.5 20 -56.5s12.666 -13.5 21.999 -13.5c2.66699 0 8.66699 0.666992 18 2
c2 0 4.33301 0.333008 7 1h5c21.333 0 32 -11.333 32 -34c0 -26 -11.333 -39 -34 -39c-2.66699 0 -18 2.66699 -46 8c-14 2.66699 -28.667 4 -44 4c-12 0 -28.5 -2 -49.5 -6s-35.167 -6 -42.5 -6c-9.33301 0 -17.666 3.66699 -24.999 11s-11 16.333 -11 27
c0 23.333 11 35 33 35c4 0 7 -0.333008 9 -1h7c2.66699 -0.666992 4.33398 -1 5.00098 -1c15.333 0 23 10.667 23 32c0 11.333 -2 25.333 -6 42l-18 74c-2.66699 10.667 -5.33398 17.167 -8.00098 19.5s-8.33398 3.5 -17.001 3.5h-121c-14 0 -24 -11.667 -30 -35l-18 -71
c-4.66699 -18.667 -7 -33.667 -7 -45c0 -12.667 6 -19 18 -19c4.66699 0 8 0.166992 10 0.5s4.33301 0.833008 7 1.5h6c21.333 0 32 -12 32 -36c0 -25.333 -11 -38 -33 -38c-8.66699 0 -22.334 2 -41.001 6s-33.334 6 -44.001 6c-14.667 0 -32 -2 -52 -6s-34 -6 -42 -6
c-24 0 -36 12.333 -36 37c0 24 10.333 36 31 36c4 0 9.33301 -0.666992 16 -2s11.667 -2 15 -2c10.667 0 20.834 10 30.501 30s21.5 56 35.5 108zM234.002 781l71.001 66c17.333 16 33.666 24 48.999 24c10 0 18.833 -4.16699 26.5 -12.5s11.5 -18.166 11.5 -29.499
c0 -14 -6.66699 -26.333 -20 -37c-5.33301 -4.66699 -18 -12.334 -38 -23.001l-100 -53c-14 -7.33301 -22.667 -11 -26 -11c-15.333 0 -23 6.66699 -23 20c0 9.33301 7 20 21 32zM346.003 327l-55 247l-64 -247c-1.33301 -5.33301 -2 -9 -2 -11
c0 -8.66699 6.33301 -13 19 -13h87c11.333 0 17 4 17 12c0 2 -0.666992 6 -2 12z" />
    <glyph glyph-name="Acircumflex" unicode="&#xc2;" horiz-adv-x="564" 
d="M123 202l116.002 423c6 20 11 32.667 15 38c7.33301 11.333 18.666 17 33.999 17c18.667 0 31.334 -4.5 38.001 -13.5s15 -33.833 25 -74.5l115 -457c8 -28.667 14.667 -47.5 20 -56.5s12.666 -13.5 21.999 -13.5c2.66699 0 8.66699 0.666992 18 2
c2 0 4.33301 0.333008 7 1h5c21.333 0 32 -11.333 32 -34c0 -26 -11.333 -39 -34 -39c-2.66699 0 -18 2.66699 -46 8c-14 2.66699 -28.667 4 -44 4c-12 0 -28.5 -2 -49.5 -6s-35.167 -6 -42.5 -6c-9.33301 0 -17.666 3.66699 -24.999 11s-11 16.333 -11 27
c0 23.333 11 35 33 35c4 0 7 -0.333008 9 -1h7c2.66699 -0.666992 4.33398 -1 5.00098 -1c15.333 0 23 10.667 23 32c0 11.333 -2 25.333 -6 42l-18 74c-2.66699 10.667 -5.33398 17.167 -8.00098 19.5s-8.33398 3.5 -17.001 3.5h-121c-14 0 -24 -11.667 -30 -35l-18 -71
c-4.66699 -18.667 -7 -33.667 -7 -45c0 -12.667 6 -19 18 -19c4.66699 0 8 0.166992 10 0.5s4.33301 0.833008 7 1.5h6c21.333 0 32 -12 32 -36c0 -25.333 -11 -38 -33 -38c-8.66699 0 -22.334 2 -41.001 6s-33.334 6 -44.001 6c-14.667 0 -32 -2 -52 -6s-34 -6 -42 -6
c-24 0 -36 12.333 -36 37c0 24 10.333 36 31 36c4 0 9.33301 -0.666992 16 -2s11.667 -2 15 -2c10.667 0 20.834 10 30.501 30s21.5 56 35.5 108zM418.002 728l-127 54l-125 -54c-5.33301 -1.33301 -9.33301 -2 -12 -2c-10 0 -15 4.33301 -15 13c0 4.66699 3 9.66699 9 15
l13 11l106 95c8.66699 8 17 12 25 12s16.333 -4 25 -12l119 -106c6 -5.33301 9 -10.333 9 -15c0 -8.66699 -5.33301 -13 -16 -13c-2 0 -5.66699 0.666992 -11 2zM346.002 327l-55 247l-64 -247c-1.33301 -5.33301 -2 -9 -2 -11c0 -8.66699 6.33301 -13 19 -13h87
c11.333 0 17 4 17 12c0 2 -0.666992 6 -2 12z" />
    <glyph glyph-name="Atilde" unicode="&#xc3;" horiz-adv-x="564" 
d="M123 202l116.002 423c6 20 11 32.667 15 38c7.33301 11.333 18.666 17 33.999 17c18.667 0 31.334 -4.5 38.001 -13.5s15 -33.833 25 -74.5l115 -457c8 -28.667 14.667 -47.5 20 -56.5s12.666 -13.5 21.999 -13.5c2.66699 0 8.66699 0.666992 18 2
c2 0 4.33301 0.333008 7 1h5c21.333 0 32 -11.333 32 -34c0 -26 -11.333 -39 -34 -39c-2.66699 0 -18 2.66699 -46 8c-14 2.66699 -28.667 4 -44 4c-12 0 -28.5 -2 -49.5 -6s-35.167 -6 -42.5 -6c-9.33301 0 -17.666 3.66699 -24.999 11s-11 16.333 -11 27
c0 23.333 11 35 33 35c4 0 7 -0.333008 9 -1h7c2.66699 -0.666992 4.33398 -1 5.00098 -1c15.333 0 23 10.667 23 32c0 11.333 -2 25.333 -6 42l-18 74c-2.66699 10.667 -5.33398 17.167 -8.00098 19.5s-8.33398 3.5 -17.001 3.5h-121c-14 0 -24 -11.667 -30 -35l-18 -71
c-4.66699 -18.667 -7 -33.667 -7 -45c0 -12.667 6 -19 18 -19c4.66699 0 8 0.166992 10 0.5s4.33301 0.833008 7 1.5h6c21.333 0 32 -12 32 -36c0 -25.333 -11 -38 -33 -38c-8.66699 0 -22.334 2 -41.001 6s-33.334 6 -44.001 6c-14.667 0 -32 -2 -52 -6s-34 -6 -42 -6
c-24 0 -36 12.333 -36 37c0 24 10.333 36 31 36c4 0 9.33301 -0.666992 16 -2s11.667 -2 15 -2c10.667 0 20.834 10 30.501 30s21.5 56 35.5 108zM370.002 819c11.333 0 19.3359 2.33203 24.0029 6.99902l18 17c4.66699 3.33301 9 5 13 5c9.33301 0 14 -4 14 -12
c0 -11.333 -8.33301 -30.166 -25 -56.499s-37.334 -39.5 -62.001 -39.5c-22.667 0 -48 6 -76 18l-35 15c-12.667 5.33301 -24.334 8 -35.001 8s-23 -6.33301 -37 -19c-6.66699 -6 -12 -9 -16 -9c-9.33301 0 -14 5.66699 -14 17c0 12 8 29.5 24 52.5s36 34.5 60 34.5
c22.667 0 48.667 -6 78 -18l32 -13c11.333 -4.66699 23.666 -7 36.999 -7zM346.005 326.999l-55 247l-64 -247c-1.33301 -5.33301 -2 -9 -2 -11c0 -8.66699 6.33301 -13 19 -13h87c11.333 0 17 4 17 12c0 2 -0.666992 6 -2 12z" />
    <glyph glyph-name="Adieresis" unicode="&#xc4;" horiz-adv-x="564" 
d="M123 202l116.002 423c6 20 11 32.667 15 38c7.33301 11.333 18.666 17 33.999 17c18.667 0 31.334 -4.5 38.001 -13.5s15 -33.833 25 -74.5l115 -457c8 -28.667 14.667 -47.5 20 -56.5s12.666 -13.5 21.999 -13.5c2.66699 0 8.66699 0.666992 18 2
c2 0 4.33301 0.333008 7 1h5c21.333 0 32 -11.333 32 -34c0 -26 -11.333 -39 -34 -39c-2.66699 0 -18 2.66699 -46 8c-14 2.66699 -28.667 4 -44 4c-12 0 -28.5 -2 -49.5 -6s-35.167 -6 -42.5 -6c-9.33301 0 -17.666 3.66699 -24.999 11s-11 16.333 -11 27
c0 23.333 11 35 33 35c4 0 7 -0.333008 9 -1h7c2.66699 -0.666992 4.33398 -1 5.00098 -1c15.333 0 23 10.667 23 32c0 11.333 -2 25.333 -6 42l-18 74c-2.66699 10.667 -5.33398 17.167 -8.00098 19.5s-8.33398 3.5 -17.001 3.5h-121c-14 0 -24 -11.667 -30 -35l-18 -71
c-4.66699 -18.667 -7 -33.667 -7 -45c0 -12.667 6 -19 18 -19c4.66699 0 8 0.166992 10 0.5s4.33301 0.833008 7 1.5h6c21.333 0 32 -12 32 -36c0 -25.333 -11 -38 -33 -38c-8.66699 0 -22.334 2 -41.001 6s-33.334 6 -44.001 6c-14.667 0 -32 -2 -52 -6s-34 -6 -42 -6
c-24 0 -36 12.333 -36 37c0 24 10.333 36 31 36c4 0 9.33301 -0.666992 16 -2s11.667 -2 15 -2c10.667 0 20.834 10 30.501 30s21.5 56 35.5 108zM214.002 726c-13.333 0 -24.666 5.66699 -33.999 17s-14 25.333 -14 42c0 17.333 4.66699 31.666 14 42.999
s20.666 17 33.999 17c14 0 25.5 -5.5 34.5 -16.5s13.5 -25.167 13.5 -42.5s-4.5 -31.666 -13.5 -42.999s-20.5 -17 -34.5 -17zM370.002 726c-13.333 0 -24.666 5.66699 -33.999 17s-14 25.333 -14 42c0 17.333 4.66699 31.666 14 42.999s20.666 17 33.999 17
c14 0 25.5 -5.5 34.5 -16.5s13.5 -25.167 13.5 -42.5s-4.5 -31.666 -13.5 -42.999s-20.5 -17 -34.5 -17zM346.002 327l-55 247l-64 -247c-1.33301 -5.33301 -2 -9 -2 -11c0 -8.66699 6.33301 -13 19 -13h87c11.333 0 17 4 17 12c0 2 -0.666992 6 -2 12z" />
    <glyph glyph-name="Aring" unicode="&#xc5;" horiz-adv-x="564" 
d="M123 202l116.002 423c6 20 11 32.667 15 38c7.33301 11.333 18.666 17 33.999 17c18.667 0 31.334 -4.5 38.001 -13.5s15 -33.833 25 -74.5l115 -457c8 -28.667 14.667 -47.5 20 -56.5s12.666 -13.5 21.999 -13.5c2.66699 0 8.66699 0.666992 18 2
c2 0 4.33301 0.333008 7 1h5c21.333 0 32 -11.333 32 -34c0 -26 -11.333 -39 -34 -39c-2.66699 0 -18 2.66699 -46 8c-14 2.66699 -28.667 4 -44 4c-12 0 -28.5 -2 -49.5 -6s-35.167 -6 -42.5 -6c-9.33301 0 -17.666 3.66699 -24.999 11s-11 16.333 -11 27
c0 23.333 11 35 33 35c4 0 7 -0.333008 9 -1h7c2.66699 -0.666992 4.33398 -1 5.00098 -1c15.333 0 23 10.667 23 32c0 11.333 -2 25.333 -6 42l-18 74c-2.66699 10.667 -5.33398 17.167 -8.00098 19.5s-8.33398 3.5 -17.001 3.5h-121c-14 0 -24 -11.667 -30 -35l-18 -71
c-4.66699 -18.667 -7 -33.667 -7 -45c0 -12.667 6 -19 18 -19c4.66699 0 8 0.166992 10 0.5s4.33301 0.833008 7 1.5h6c21.333 0 32 -12 32 -36c0 -25.333 -11 -38 -33 -38c-8.66699 0 -22.334 2 -41.001 6s-33.334 6 -44.001 6c-14.667 0 -32 -2 -52 -6s-34 -6 -42 -6
c-24 0 -36 12.333 -36 37c0 24 10.333 36 31 36c4 0 9.33301 -0.666992 16 -2s11.667 -2 15 -2c10.667 0 20.834 10 30.501 30s21.5 56 35.5 108zM289.002 711c-18.667 0 -34.334 7 -47.001 21s-19 31.667 -19 53s6.33301 38.833 19 52.5s28.334 20.5 47.001 20.5
s34.334 -6.83301 47.001 -20.5s19 -31.167 19 -52.5s-6.33301 -39 -19 -53s-28.334 -21 -47.001 -21zM346.002 327l-55 247l-64 -247c-1.33301 -5.33301 -2 -9 -2 -11c0 -8.66699 6.33301 -13 19 -13h87c11.333 0 17 4 17 12c0 2 -0.666992 6 -2 12zM289.002 824
c-8 0 -15 -3.83301 -21 -11.5s-9 -16.834 -9 -27.501c0 -26 10 -39 30 -39c19.333 0 29 13 29 39c0 10.667 -2.83301 19.834 -8.5 27.501s-12.5 11.5 -20.5 11.5z" />
    <glyph glyph-name="AE" unicode="&#xc6;" horiz-adv-x="807" 
d="M89 160l241.999 475c11.333 22 29.666 33 54.999 33h7c2.66699 -0.666992 18.334 -2 47.001 -4c25.333 -2 54 -3 86 -3c22.667 0 38 0.333008 46 1l60 5c8 0.666992 25.667 1 53 1c19.333 0 32.333 -3.33301 39 -10s10 -19 10 -37v-45l-1 -50c0 -11.333 0.5 -27 1.5 -47
s1.5 -34.667 1.5 -44c0 -32.667 -11.333 -49 -34 -49c-20.667 0 -31 14 -31 42c0 16 0.333008 30 1 42c1.33301 24 2 37.333 2 40c0 36 -6.16699 59.833 -18.5 71.5s-37.833 17.5 -76.5 17.5h-73c-20.667 0 -35 -5.33301 -43 -16s-12 -29.667 -12 -57v-110
c0 -20.667 7.33301 -31 22 -31h39c31.333 0 47 15 47 45v7l-2 29c-0.666992 4 -1 9.66699 -1 17c0 30 10 45 30 45s30 -13.333 30 -40c0 -0.666992 -0.666992 -15 -2 -43c-2.66699 -56 -4 -92.667 -4 -110c0 -16 0.666992 -32 2 -48l4 -48v-8c0 -29.333 -10 -44 -30 -44
s-30 15 -30 45c0 4 0.333008 10 1 18c0.666992 6 1.33398 13.333 2.00098 22c0.666992 6.66699 1 11 1 13c0 25.333 -14.667 38 -44 38h-38c-11.333 0 -18.666 -1.83301 -21.999 -5.5s-5 -10.834 -5 -21.501v-163c0 -25.333 3 -42 9 -50c7.33301 -10.667 23 -16 47 -16h49
l55 3c32 2 52.833 8.83301 62.5 20.5s14.5 36.834 14.5 75.501c0 8.66699 -0.333008 19 -1 31l-2 36c-0.666992 2 -1 4.33301 -1 7c0 29.333 11 44 33 44s33 -12.333 33 -37c0 -5.33301 -0.666992 -14.333 -2 -27c-3.33301 -30.667 -5 -61 -5 -91
c0 -9.33301 0.333008 -22.833 1 -40.5s1 -31.167 1 -40.5c0 -32.667 -15.333 -49 -46 -49c-14 0 -32.667 0.666992 -56 2c-28.667 2 -47.334 3.33301 -56.001 4c-34 1.33301 -65 2 -93 2c-58.667 0 -106 -2.66699 -142 -8c-18 -2.66699 -31.667 -4 -41 -4
c-24 0 -36 13.333 -36 40c0 21.333 10.333 32 31 32c4.66699 0 11.667 -0.833008 21 -2.5s16.333 -2.5 21 -2.5c18.667 0 28 17 28 51l1 15l2 40c0.666992 16.667 1 39.334 1 68.001v43c0 10.667 -1.33301 17.667 -4 21s-9.66699 5 -21 5h-86
c-13.333 0 -22.833 -2.5 -28.5 -7.5s-13.5 -17.167 -23.5 -36.5l-55 -110l-15.5 -38c-7.66699 -18.667 -11.5 -30.334 -11.5 -35.001c0 -8.66699 5.33301 -13 16 -13c3.33301 0 8 0.5 14 1.5s10.667 1.5 14 1.5c21.333 0 32 -12 32 -36c0 -24.667 -11.667 -37 -35 -37
c-8 0 -19 1.66699 -33 5c-19.333 4.66699 -37.666 7 -54.999 7c-13.333 0 -29.333 -2 -48 -6s-32.334 -6 -41.001 -6c-24.667 0 -37 12.333 -37 37c0 23.333 11 35 33 35c4.66699 0 9 -0.333008 13 -1h3c12.667 0 24 6.16699 34 18.5s24.667 37.5 44 75.5zM379.999 393v199
l-99 -199c-3.33301 -6.66699 -5 -11.667 -5 -15c0 -6 6 -9 18 -9h68c12 0 18 8 18 24z" />
    <glyph glyph-name="Ccedilla" unicode="&#xc7;" horiz-adv-x="514" 
d="M420 65c-33.333 -44.667 -81.3301 -70.002 -143.997 -76.002l-11 -39h10c4 0.666992 7 1 9 1c25.333 0 46 -7.5 62 -22.5s24 -34.5 24 -58.5c0 -27.333 -9.66699 -49.666 -29 -66.999s-44 -26 -74 -26c-25.333 0 -47.666 6 -66.999 18s-29 25.667 -29 41
c0 16 6.66699 24 20 24c4.66699 0 8 -1.33301 10 -4l18 -14c14.667 -11.333 31 -17 49 -17c12 0 21.833 4 29.5 12s11.5 17.667 11.5 29s-4 21 -12 29s-17.667 12 -29 12c-9.33301 0 -20.333 -2.33301 -33 -7c-6.66699 -1.33301 -10.334 -2 -11.001 -2
c-9.33301 0 -14 5.33301 -14 16c0 3.33301 1 7 3 11l22 64c-62 14 -108 47 -138 99c-38 65.333 -57 146.333 -57 243c0 104 20.667 188.167 62 252.5s95.666 96.5 162.999 96.5c50 0 92.333 -21.667 127 -65l-2 18c0 31.333 10.667 47 32 47c19.333 0 29 -12.667 29 -38
c0 -0.666992 -1.66699 -22.334 -5 -65.001c-1.33301 -14 -2 -30 -2 -48c0 -14 1 -34 3 -60c2.66699 -34.667 4 -52.667 4 -54c0 -28.667 -11 -43 -33 -43c-23.333 0 -35 13 -35 39c0 4.66699 0.5 11.667 1.5 21s1.5 16.333 1.5 21c0 48.667 -10.5 86.834 -31.5 114.501
s-49.833 41.5 -86.5 41.5c-46.667 0 -83.834 -24.667 -111.501 -74s-41.5 -115.333 -41.5 -198s14.333 -149.5 43 -200.5s66.667 -76.5 114 -76.5c36.667 0 66.5 13.333 89.5 40s36.5 63.334 40.5 110.001c2 22 5.66699 37 11 45s14.666 12 27.999 12
c22 0 33 -11.333 33 -34c0 -64 -18 -120 -54 -168z" />
    <glyph glyph-name="Egrave" unicode="&#xc8;" horiz-adv-x="539" 
d="M191 497l-0.00292969 -62.0039l1 -21c0.666992 -18.667 7 -28 19 -28h39c27.333 0 41 15.667 41 47c0 10 -0.333008 18.333 -1 25c-2 19.333 -3 30.333 -3 33c0 25.333 10 38 30 38c19.333 0 29 -15.667 29 -47v-21l-4 -54c-1.33301 -18 -2 -36.333 -2 -55
c0 -32.667 1.66699 -65.334 5 -98.001c1.33301 -13.333 2 -22 2 -26c0 -26.667 -10 -40 -30 -40c-19.333 0 -29 13.667 -29 41c0 6 0.5 15.333 1.5 28s1.5 22 1.5 28c0 28 -12.667 42 -38 42h-42c-9.33301 0 -15 -2 -17 -6s-3 -15.333 -3 -34v-70
c0 -7.33301 0.333008 -24.333 1 -51v-48c0 -22.667 5.66699 -37 17 -43c8 -4 24.333 -6 49 -6h54c44 0 73 6 87 18s21 37 21 75c0 8.66699 -0.666992 21.5 -2 38.5s-2 29.833 -2 38.5c0 30 11 45 33 45s33 -13.333 33 -40c0 -4.66699 -0.666992 -15.667 -2 -33
c-4 -22.667 -6 -48.667 -6 -78c0 -9.33301 0.333008 -23.666 1 -42.999s1 -33.666 1 -42.999c0 -18 -3.66699 -30.5 -11 -37.5s-20.666 -10.5 -39.999 -10.5c-11.333 0 -25.666 1 -42.999 3c-28.667 3.33301 -70.667 5 -126 5c-4.66699 0 -31.667 -1 -81 -3
c-27.333 -1.33301 -46.666 -2.66602 -57.999 -3.99902c-24 -3.33301 -41.333 -5 -52 -5c-26 0 -39 13.333 -39 40c0 22 10.667 33 32 33c6.66699 0 11.667 -0.666992 15 -2c10.667 -1.33301 16.667 -2 18 -2c12.667 0 20.667 9.83301 24 29.5s5 67.834 5 144.501v190
c0 77.333 -1.66699 125.833 -5 145.5s-11.333 29.5 -24 29.5c-3.33301 0 -8.66602 -0.833008 -15.999 -2.5s-13 -2.5 -17 -2.5c-21.333 0 -32 11.333 -32 34c0 26 12.667 39 38 39c6 0 28 -2.66699 66 -8c14 -2 31.333 -3 52 -3c52.667 0 108.667 2.33301 168 7
c16.667 1.33301 38.334 2 65.001 2c29.333 0 45.666 -7.66699 48.999 -23c1.33301 -6.66699 2 -16 2 -28c0 -9.33301 -0.333008 -21.666 -1 -36.999c-2 -42.667 -2 -77.334 0 -104.001l3 -48c0 -27.333 -10.333 -41 -31 -41c-22.667 0 -34 15 -34 45
c0 8.66699 0.333008 21.167 1 37.5s1 28.833 1 37.5c0 36.667 -5.33301 61.334 -16 74.001s-31.334 19 -62.001 19h-77c-26.667 0 -43.167 -5.66699 -49.5 -17s-9.5 -40.333 -9.5 -87zM327.997 704.996c-2.66699 0 -10.999 3.66797 -24.999 11.001l-100 53
c-24 12.667 -39.833 23 -47.5 31s-11.5 17.667 -11.5 29s3.83301 21.166 11.5 29.499s16.5 12.5 26.5 12.5c15.333 0 31.666 -8 48.999 -24l72 -66l18 -16c20 -16.667 30 -29.667 30 -39c0 -14 -7.66699 -21 -23 -21z" />
    <glyph glyph-name="Eacute" unicode="&#xc9;" horiz-adv-x="539" 
d="M191 497l-0.00292969 -62.0039l1 -21c0.666992 -18.667 7 -28 19 -28h39c27.333 0 41 15.667 41 47c0 10 -0.333008 18.333 -1 25c-2 19.333 -3 30.333 -3 33c0 25.333 10 38 30 38c19.333 0 29 -15.667 29 -47v-21l-4 -54c-1.33301 -18 -2 -36.333 -2 -55
c0 -32.667 1.66699 -65.334 5 -98.001c1.33301 -13.333 2 -22 2 -26c0 -26.667 -10 -40 -30 -40c-19.333 0 -29 13.667 -29 41c0 6 0.5 15.333 1.5 28s1.5 22 1.5 28c0 28 -12.667 42 -38 42h-42c-9.33301 0 -15 -2 -17 -6s-3 -15.333 -3 -34v-70
c0 -7.33301 0.333008 -24.333 1 -51v-48c0 -22.667 5.66699 -37 17 -43c8 -4 24.333 -6 49 -6h54c44 0 73 6 87 18s21 37 21 75c0 8.66699 -0.666992 21.5 -2 38.5s-2 29.833 -2 38.5c0 30 11 45 33 45s33 -13.333 33 -40c0 -4.66699 -0.666992 -15.667 -2 -33
c-4 -22.667 -6 -48.667 -6 -78c0 -9.33301 0.333008 -23.666 1 -42.999s1 -33.666 1 -42.999c0 -18 -3.66699 -30.5 -11 -37.5s-20.666 -10.5 -39.999 -10.5c-11.333 0 -25.666 1 -42.999 3c-28.667 3.33301 -70.667 5 -126 5c-4.66699 0 -31.667 -1 -81 -3
c-27.333 -1.33301 -46.666 -2.66602 -57.999 -3.99902c-24 -3.33301 -41.333 -5 -52 -5c-26 0 -39 13.333 -39 40c0 22 10.667 33 32 33c6.66699 0 11.667 -0.666992 15 -2c10.667 -1.33301 16.667 -2 18 -2c12.667 0 20.667 9.83301 24 29.5s5 67.834 5 144.501v190
c0 77.333 -1.66699 125.833 -5 145.5s-11.333 29.5 -24 29.5c-3.33301 0 -8.66602 -0.833008 -15.999 -2.5s-13 -2.5 -17 -2.5c-21.333 0 -32 11.333 -32 34c0 26 12.667 39 38 39c6 0 28 -2.66699 66 -8c14 -2 31.333 -3 52 -3c52.667 0 108.667 2.33301 168 7
c16.667 1.33301 38.334 2 65.001 2c29.333 0 45.666 -7.66699 48.999 -23c1.33301 -6.66699 2 -16 2 -28c0 -9.33301 -0.333008 -21.666 -1 -36.999c-2 -42.667 -2 -77.334 0 -104.001l3 -48c0 -27.333 -10.333 -41 -31 -41c-22.667 0 -34 15 -34 45
c0 8.66699 0.333008 21.167 1 37.5s1 28.833 1 37.5c0 36.667 -5.33301 61.334 -16 74.001s-31.334 19 -62.001 19h-77c-26.667 0 -43.167 -5.66699 -49.5 -17s-9.5 -40.333 -9.5 -87zM219.997 780.996l71.001 65.999c17.333 16 33.666 24 48.999 24
c10 0 18.833 -4.16699 26.5 -12.5s11.5 -18.166 11.5 -29.499s-3.83301 -21 -11.5 -29s-23.5 -18.333 -47.5 -31l-99 -53c-14 -7.33301 -22.667 -11 -26 -11c-15.333 0 -23 6.66699 -23 20c0 9.33301 7 20 21 32z" />
    <glyph glyph-name="Ecircumflex" unicode="&#xca;" horiz-adv-x="539" 
d="M191 497l-0.00292969 -62.0039l1 -21c0.666992 -18.667 7 -28 19 -28h39c27.333 0 41 15.667 41 47c0 10 -0.333008 18.333 -1 25c-2 19.333 -3 30.333 -3 33c0 25.333 10 38 30 38c19.333 0 29 -15.667 29 -47v-21l-4 -54c-1.33301 -18 -2 -36.333 -2 -55
c0 -32.667 1.66699 -65.334 5 -98.001c1.33301 -13.333 2 -22 2 -26c0 -26.667 -10 -40 -30 -40c-19.333 0 -29 13.667 -29 41c0 6 0.5 15.333 1.5 28s1.5 22 1.5 28c0 28 -12.667 42 -38 42h-42c-9.33301 0 -15 -2 -17 -6s-3 -15.333 -3 -34v-70
c0 -7.33301 0.333008 -24.333 1 -51v-48c0 -22.667 5.66699 -37 17 -43c8 -4 24.333 -6 49 -6h54c44 0 73 6 87 18s21 37 21 75c0 8.66699 -0.666992 21.5 -2 38.5s-2 29.833 -2 38.5c0 30 11 45 33 45s33 -13.333 33 -40c0 -4.66699 -0.666992 -15.667 -2 -33
c-4 -22.667 -6 -48.667 -6 -78c0 -9.33301 0.333008 -23.666 1 -42.999s1 -33.666 1 -42.999c0 -18 -3.66699 -30.5 -11 -37.5s-20.666 -10.5 -39.999 -10.5c-11.333 0 -25.666 1 -42.999 3c-28.667 3.33301 -70.667 5 -126 5c-4.66699 0 -31.667 -1 -81 -3
c-27.333 -1.33301 -46.666 -2.66602 -57.999 -3.99902c-24 -3.33301 -41.333 -5 -52 -5c-26 0 -39 13.333 -39 40c0 22 10.667 33 32 33c6.66699 0 11.667 -0.666992 15 -2c10.667 -1.33301 16.667 -2 18 -2c12.667 0 20.667 9.83301 24 29.5s5 67.834 5 144.501v190
c0 77.333 -1.66699 125.833 -5 145.5s-11.333 29.5 -24 29.5c-3.33301 0 -8.66602 -0.833008 -15.999 -2.5s-13 -2.5 -17 -2.5c-21.333 0 -32 11.333 -32 34c0 26 12.667 39 38 39c6 0 28 -2.66699 66 -8c14 -2 31.333 -3 52 -3c52.667 0 108.667 2.33301 168 7
c16.667 1.33301 38.334 2 65.001 2c29.333 0 45.666 -7.66699 48.999 -23c1.33301 -6.66699 2 -16 2 -28c0 -9.33301 -0.333008 -21.666 -1 -36.999c-2 -42.667 -2 -77.334 0 -104.001l3 -48c0 -27.333 -10.333 -41 -31 -41c-22.667 0 -34 15 -34 45
c0 8.66699 0.333008 21.167 1 37.5s1 28.833 1 37.5c0 36.667 -5.33301 61.334 -16 74.001s-31.334 19 -62.001 19h-77c-26.667 0 -43.167 -5.66699 -49.5 -17s-9.5 -40.333 -9.5 -87zM393.997 727.996l-127 54l-125 -54c-5.33301 -1.33301 -9.33301 -2 -12 -2
c-10 0 -15 4.33301 -15 13c0 4.66699 3 9.66699 9 15l13 11l106 95c8.66699 8 17 12 25 12s16.333 -4 25 -12l118 -106c6.66699 -6 10 -11 10 -15c0 -8.66699 -5.33301 -13 -16 -13c-4 0 -7.66699 0.666992 -11 2z" />
    <glyph glyph-name="Edieresis" unicode="&#xcb;" horiz-adv-x="539" 
d="M191 497l-0.00292969 -62.0039l1 -21c0.666992 -18.667 7 -28 19 -28h39c27.333 0 41 15.667 41 47c0 10 -0.333008 18.333 -1 25c-2 19.333 -3 30.333 -3 33c0 25.333 10 38 30 38c19.333 0 29 -15.667 29 -47v-21l-4 -54c-1.33301 -18 -2 -36.333 -2 -55
c0 -32.667 1.66699 -65.334 5 -98.001c1.33301 -13.333 2 -22 2 -26c0 -26.667 -10 -40 -30 -40c-19.333 0 -29 13.667 -29 41c0 6 0.5 15.333 1.5 28s1.5 22 1.5 28c0 28 -12.667 42 -38 42h-42c-9.33301 0 -15 -2 -17 -6s-3 -15.333 -3 -34v-70
c0 -7.33301 0.333008 -24.333 1 -51v-48c0 -22.667 5.66699 -37 17 -43c8 -4 24.333 -6 49 -6h54c44 0 73 6 87 18s21 37 21 75c0 8.66699 -0.666992 21.5 -2 38.5s-2 29.833 -2 38.5c0 30 11 45 33 45s33 -13.333 33 -40c0 -4.66699 -0.666992 -15.667 -2 -33
c-4 -22.667 -6 -48.667 -6 -78c0 -9.33301 0.333008 -23.666 1 -42.999s1 -33.666 1 -42.999c0 -18 -3.66699 -30.5 -11 -37.5s-20.666 -10.5 -39.999 -10.5c-11.333 0 -25.666 1 -42.999 3c-28.667 3.33301 -70.667 5 -126 5c-4.66699 0 -31.667 -1 -81 -3
c-27.333 -1.33301 -46.666 -2.66602 -57.999 -3.99902c-24 -3.33301 -41.333 -5 -52 -5c-26 0 -39 13.333 -39 40c0 22 10.667 33 32 33c6.66699 0 11.667 -0.666992 15 -2c10.667 -1.33301 16.667 -2 18 -2c12.667 0 20.667 9.83301 24 29.5s5 67.834 5 144.501v190
c0 77.333 -1.66699 125.833 -5 145.5s-11.333 29.5 -24 29.5c-3.33301 0 -8.66602 -0.833008 -15.999 -2.5s-13 -2.5 -17 -2.5c-21.333 0 -32 11.333 -32 34c0 26 12.667 39 38 39c6 0 28 -2.66699 66 -8c14 -2 31.333 -3 52 -3c52.667 0 108.667 2.33301 168 7
c16.667 1.33301 38.334 2 65.001 2c29.333 0 45.666 -7.66699 48.999 -23c1.33301 -6.66699 2 -16 2 -28c0 -9.33301 -0.333008 -21.666 -1 -36.999c-2 -42.667 -2 -77.334 0 -104.001l3 -48c0 -27.333 -10.333 -41 -31 -41c-22.667 0 -34 15 -34 45
c0 8.66699 0.333008 21.167 1 37.5s1 28.833 1 37.5c0 36.667 -5.33301 61.334 -16 74.001s-31.334 19 -62.001 19h-77c-26.667 0 -43.167 -5.66699 -49.5 -17s-9.5 -40.333 -9.5 -87zM189.997 725.996c-14 0 -25.5 5.5 -34.5 16.5s-13.5 25.167 -13.5 42.5
s4.5 31.666 13.5 42.999s20.5 17 34.5 17c13.333 0 24.666 -5.66699 33.999 -17s14 -25.333 14 -42c0 -17.333 -4.66699 -31.666 -14 -42.999s-20.666 -17 -33.999 -17zM345.997 725.996c-14 0 -25.5 5.5 -34.5 16.5s-13.5 25.167 -13.5 42.5s4.5 31.666 13.5 42.999
s20.5 17 34.5 17c13.333 0 24.666 -5.66699 33.999 -17s14 -25.333 14 -42c0 -17.333 -4.66699 -31.666 -14 -42.999s-20.666 -17 -33.999 -17z" />
    <glyph glyph-name="Igrave" unicode="&#xcc;" horiz-adv-x="313" 
d="M91 64c12.667 0 20.6641 9.83203 23.9971 29.499s5 67.834 5 144.501v190c0 77.333 -1.66699 125.833 -5 145.5s-11.333 29.5 -24 29.5c-3.33301 0 -8.66602 -0.833008 -15.999 -2.5s-13 -2.5 -17 -2.5c-21.333 0 -32 11.333 -32 34c0 26 12.667 39 38 39
c10 0 25 -1.83301 45 -5.5s35 -5.5 45 -5.5c10.667 0 26.334 1.83301 47.001 5.5s36.334 5.5 47.001 5.5c26 0 39 -13 39 -39c0 -22.667 -11 -34 -33 -34c-2 0 -6.66699 0.833008 -14 2.5s-13.666 2.5 -18.999 2.5c-12.667 0 -20.5 -9.83301 -23.5 -29.5
s-4.5 -68.167 -4.5 -145.5v-190c0 -76.667 1.5 -124.834 4.5 -144.501s10.833 -29.5 23.5 -29.5c2.66699 0 8.66699 0.666992 18 2c4 1.33301 9 2 15 2c9.33301 0 17.166 -3.16699 23.499 -9.5s9.5 -14.166 9.5 -23.499c0 -11.333 -3.66699 -20.833 -11 -28.5
s-16.333 -11.5 -27 -11.5c-3.33301 0 -19.333 2.66699 -48 8c-14.667 2.66699 -28.667 4 -42 4c-12 0 -28.5 -2 -49.5 -6s-36.167 -6 -45.5 -6c-10.667 0 -19.667 3.83301 -27 11.5s-11 17.167 -11 28.5c0 22 10.667 33 32 33c6.66699 0 11.667 -0.666992 15 -2
c10.667 -1.33301 16.667 -2 18 -2zM229.997 704.999c-2.66699 0 -10.999 3.66797 -24.999 11.001l-100 53c-24 12.667 -39.833 23 -47.5 31s-11.5 17.667 -11.5 29s3.83301 21.166 11.5 29.499s16.5 12.5 26.5 12.5c15.333 0 31.666 -8 48.999 -24l72 -66
c2 -2 11 -10 27 -24c14 -12 21 -22.333 21 -31c0 -14 -7.66699 -21 -23 -21z" />
    <glyph glyph-name="Iacute" unicode="&#xcd;" horiz-adv-x="313" 
d="M91 64c12.667 0 20.6641 9.83203 23.9971 29.499s5 67.834 5 144.501v190c0 77.333 -1.66699 125.833 -5 145.5s-11.333 29.5 -24 29.5c-3.33301 0 -8.66602 -0.833008 -15.999 -2.5s-13 -2.5 -17 -2.5c-21.333 0 -32 11.333 -32 34c0 26 12.667 39 38 39
c10 0 25 -1.83301 45 -5.5s35 -5.5 45 -5.5c10.667 0 26.334 1.83301 47.001 5.5s36.334 5.5 47.001 5.5c26 0 39 -13 39 -39c0 -22.667 -11 -34 -33 -34c-2 0 -6.66699 0.833008 -14 2.5s-13.666 2.5 -18.999 2.5c-12.667 0 -20.5 -9.83301 -23.5 -29.5
s-4.5 -68.167 -4.5 -145.5v-190c0 -76.667 1.5 -124.834 4.5 -144.501s10.833 -29.5 23.5 -29.5c2.66699 0 8.66699 0.666992 18 2c4 1.33301 9 2 15 2c9.33301 0 17.166 -3.16699 23.499 -9.5s9.5 -14.166 9.5 -23.499c0 -11.333 -3.66699 -20.833 -11 -28.5
s-16.333 -11.5 -27 -11.5c-3.33301 0 -19.333 2.66699 -48 8c-14.667 2.66699 -28.667 4 -42 4c-12 0 -28.5 -2 -49.5 -6s-36.167 -6 -45.5 -6c-10.667 0 -19.667 3.83301 -27 11.5s-11 17.167 -11 28.5c0 22 10.667 33 32 33c6.66699 0 11.667 -0.666992 15 -2
c10.667 -1.33301 16.667 -2 18 -2zM89.9971 764.999c3.33301 2.66699 9.33203 7.99902 17.999 15.999l72 66c17.333 16 33.333 24 48 24c10.667 0 19.834 -4.16699 27.501 -12.5s11.5 -18.166 11.5 -29.499s-3.83301 -21 -11.5 -29s-23.5 -18.333 -47.5 -31l-100 -53
c-14 -7.33301 -22.667 -11 -26 -11c-14.667 0 -22 6.66699 -22 20c0 10.667 10 24 30 40z" />
    <glyph glyph-name="Icircumflex" unicode="&#xce;" horiz-adv-x="313" 
d="M91 64c12.667 0 20.6641 9.83203 23.9971 29.499s5 67.834 5 144.501v190c0 77.333 -1.66699 125.833 -5 145.5s-11.333 29.5 -24 29.5c-3.33301 0 -8.66602 -0.833008 -15.999 -2.5s-13 -2.5 -17 -2.5c-21.333 0 -32 11.333 -32 34c0 26 12.667 39 38 39
c10 0 25 -1.83301 45 -5.5s35 -5.5 45 -5.5c10.667 0 26.334 1.83301 47.001 5.5s36.334 5.5 47.001 5.5c26 0 39 -13 39 -39c0 -22.667 -11 -34 -33 -34c-2 0 -6.66699 0.833008 -14 2.5s-13.666 2.5 -18.999 2.5c-12.667 0 -20.5 -9.83301 -23.5 -29.5
s-4.5 -68.167 -4.5 -145.5v-190c0 -76.667 1.5 -124.834 4.5 -144.501s10.833 -29.5 23.5 -29.5c2.66699 0 8.66699 0.666992 18 2c4 1.33301 9 2 15 2c9.33301 0 17.166 -3.16699 23.499 -9.5s9.5 -14.166 9.5 -23.499c0 -11.333 -3.66699 -20.833 -11 -28.5
s-16.333 -11.5 -27 -11.5c-3.33301 0 -19.333 2.66699 -48 8c-14.667 2.66699 -28.667 4 -42 4c-12 0 -28.5 -2 -49.5 -6s-36.167 -6 -45.5 -6c-10.667 0 -19.667 3.83301 -27 11.5s-11 17.167 -11 28.5c0 22 10.667 33 32 33c6.66699 0 11.667 -0.666992 15 -2
c10.667 -1.33301 16.667 -2 18 -2zM281.997 727.999l-126 54l-126 -54c-3.33301 -1.33301 -7 -2 -11 -2c-10.667 0 -16 4.33301 -16 13c0 4 3.33301 9 10 15l12 11l106 95c8.66699 8 17 12 25 12s16.333 -4 25 -12l119 -106c6 -5.33301 9 -10.333 9 -15
c0 -8.66699 -5 -13 -15 -13c-2.66699 0 -6.66699 0.666992 -12 2z" />
    <glyph glyph-name="Idieresis" unicode="&#xcf;" horiz-adv-x="313" 
d="M91 64c12.667 0 20.6641 9.83203 23.9971 29.499s5 67.834 5 144.501v190c0 77.333 -1.66699 125.833 -5 145.5s-11.333 29.5 -24 29.5c-3.33301 0 -8.66602 -0.833008 -15.999 -2.5s-13 -2.5 -17 -2.5c-21.333 0 -32 11.333 -32 34c0 26 12.667 39 38 39
c10 0 25 -1.83301 45 -5.5s35 -5.5 45 -5.5c10.667 0 26.334 1.83301 47.001 5.5s36.334 5.5 47.001 5.5c26 0 39 -13 39 -39c0 -22.667 -11 -34 -33 -34c-2 0 -6.66699 0.833008 -14 2.5s-13.666 2.5 -18.999 2.5c-12.667 0 -20.5 -9.83301 -23.5 -29.5
s-4.5 -68.167 -4.5 -145.5v-190c0 -76.667 1.5 -124.834 4.5 -144.501s10.833 -29.5 23.5 -29.5c2.66699 0 8.66699 0.666992 18 2c4 1.33301 9 2 15 2c9.33301 0 17.166 -3.16699 23.499 -9.5s9.5 -14.166 9.5 -23.499c0 -11.333 -3.66699 -20.833 -11 -28.5
s-16.333 -11.5 -27 -11.5c-3.33301 0 -19.333 2.66699 -48 8c-14.667 2.66699 -28.667 4 -42 4c-12 0 -28.5 -2 -49.5 -6s-36.167 -6 -45.5 -6c-10.667 0 -19.667 3.83301 -27 11.5s-11 17.167 -11 28.5c0 22 10.667 33 32 33c6.66699 0 11.667 -0.666992 15 -2
c10.667 -1.33301 16.667 -2 18 -2zM88.9971 724.999c-13.333 0 -24.499 5.66895 -33.499 17.002s-13.5 25.666 -13.5 42.999c0 15.333 5 29.166 15 41.499s21.667 18.5 35 18.5s24.666 -5.83301 33.999 -17.5s14 -25.5 14 -41.5c0 -16.667 -5 -31 -15 -43s-22 -18 -36 -18z
M219.998 725.001c-13.333 0 -24.499 5.83301 -33.499 17.5s-13.5 25.834 -13.5 42.501c0 15.333 5.16699 29.166 15.5 41.499s21.833 18.5 34.5 18.5c13.333 0 24.666 -5.83301 33.999 -17.5s14 -25.5 14 -41.5c0 -16.667 -5 -31 -15 -43s-22 -18 -36 -18z" />
    <glyph glyph-name="Eth" unicode="&#xd0;" horiz-adv-x="570" 
d="M91 64c12.667 0 20.667 9.83203 24 29.499s5 67.834 5 144.501v78c-16.667 -0.666992 -25.667 -1 -27 -1c-2.66699 -0.666992 -6 -1 -10 -1c-26 0 -39 12 -39 36c0 26 13.333 39 40 39c2.66699 0 6.66699 -0.333008 12 -1s9.33301 -1 12 -1c4 0 8 -0.333008 12 -1v42
c0 77.333 -1.66699 125.833 -5 145.5s-11.333 29.5 -24 29.5c-3.33301 0 -8.66602 -0.833008 -15.999 -2.5s-13 -2.5 -17 -2.5c-21.333 0 -32 11.333 -32 34c0 26 12.667 39 38 39c12 0 31 -2.33301 57 -7c14.667 -2.66699 30 -4 46 -4c11.333 0 36 1.66699 74 5
c15.333 1.33301 31.666 2 48.999 2c160 0 240 -111.667 240 -335s-82.667 -335 -248 -335c-14 0 -33 1.33301 -57 4c-36 4 -60 6 -72 6c-10.667 0 -25 -1.66699 -43 -5c-25.333 -4.66699 -41 -7 -47 -7c-10.667 0 -19.5 3.83301 -26.5 11.5s-10.5 17.167 -10.5 28.5
c0 22 10.667 33 32 33c6.66699 0 11.667 -0.666992 15 -2c10.667 -1.33301 16.667 -2 18 -2zM204 318.999l-13 0.00292969l1 -202c0.666992 -25.333 10.334 -41.333 29.001 -48c10 -4 30.667 -6 62 -6c54.667 0 95.334 20.333 122.001 61c35.333 54 53 125.333 53 214
c0 71.333 -10.833 129.166 -32.5 173.499s-51.834 71.166 -90.501 80.499c-22.667 5.33301 -46.334 8 -71.001 8c-34 0 -55.333 -6.66699 -64 -20c-6 -8.66699 -9 -30.334 -9 -65.001v-6v-125h12c4 0 10.167 0.666992 18.5 2s14.5 2 18.5 2c24 0 36 -12.333 36 -37
c0 -23.333 -14.333 -35 -43 -35c-6 0 -10.333 0.333008 -13 1z" />
    <glyph glyph-name="Ntilde" unicode="&#xd1;" horiz-adv-x="584" 
d="M230 640l182.999 -543v331c0 66.667 0 99.667 0 99c-3.33301 50.667 -13 76 -29 76c-4 0 -9.5 -0.833008 -16.5 -2.5s-12.5 -2.5 -16.5 -2.5c-9.33301 0 -17.166 3.33301 -23.499 10s-9.5 14.667 -9.5 24c0 10.667 3.66699 19.834 11 27.501s16.333 11.5 27 11.5
c8.66699 0 23.667 -2.33301 45 -7c12 -2.66699 27 -4 45 -4c20 0 35.333 1.33301 46 4c19.333 4.66699 32.666 7 39.999 7c8.66699 0 16.167 -3.66699 22.5 -11s9.5 -16.333 9.5 -27c0 -23.333 -10 -35 -30 -35c-2.66699 0 -7 0.5 -13 1.5s-10.667 1.5 -14 1.5
c-14.667 0 -23 -15.333 -25 -46l-3 -49l-1 -75v-367c0 -46.667 -17 -70 -51 -70c-30 0 -52 21 -66 63l-175 522v-341c0 -76.667 1.66699 -124.834 5 -144.501s11.333 -29.5 24 -29.5c2 0 7.66699 0.666992 17 2c4 1.33301 9.33301 2 16 2c21.333 0 32 -11 32 -33
c0 -10.667 -3.66699 -20 -11 -28s-16 -12 -26 -12c-2.66699 0 -16.667 3 -42 9c-8.66699 2 -23 3 -43 3c-16.667 0 -33.667 -1.66699 -51 -5c-24.667 -4.66699 -39.334 -7 -44.001 -7c-10.667 0 -19.5 3.83301 -26.5 11.5s-10.5 17.167 -10.5 28.5c0 22 10.667 33 32 33
c6.66699 0 11.667 -0.666992 15 -2c10.667 -1.33301 16.667 -2 18 -2c12.667 0 20.667 9.83301 24 29.5s5 67.834 5 144.501v190c0 77.333 -1.66699 125.833 -5 145.5s-11.333 29.5 -24 29.5c-3.33301 0 -8.66602 -0.833008 -15.999 -2.5s-13 -2.5 -17 -2.5
c-21.333 0 -32 11.333 -32 34c0 11.333 3.5 20.666 10.5 27.999s15.833 11 26.5 11c7.33301 0 20 -2 38 -6c14.667 -3.33301 30.334 -5 47.001 -5c2.66699 0 16.667 2 42 6c6 0.666992 11 1 15 1c10.667 0 19 -9 25 -27zM376.999 819c9.33301 0 17.3281 2.33301 23.9951 7
l17 17c4.66699 3.33301 9.33398 5 14.001 5c8.66699 0 13 -4 13 -12c0 -13.333 -8.16699 -32.666 -24.5 -57.999s-37.166 -38 -62.499 -38c-23.333 0 -48.666 6 -75.999 18l-34 15c-12 5.33301 -23.667 8 -35 8c-12 0 -24.333 -6.33301 -37 -19
c-7.33301 -6 -12.666 -9 -15.999 -9c-10 0 -15 5.66699 -15 17s7.83301 28.666 23.5 51.999s35.834 35 60.501 35c21.333 0 47.333 -6 78 -18l33 -13c12 -4.66699 24.333 -7 37 -7z" />
    <glyph glyph-name="Ograve" unicode="&#xd2;" horiz-adv-x="509" 
d="M255 -13c-65.333 0 -117.5 31.333 -156.5 94s-58.5 146.667 -58.5 252s19.5 189.5 58.5 252.5s91.167 94.5 156.5 94.5s117.333 -31.333 156 -94s58 -147 58 -253c0 -105.333 -19.333 -189.333 -58 -252s-90.667 -94 -156 -94zM329 705
c-3.33301 0 -12.001 3.66797 -26.001 11.001l-100 53c-24 12.667 -39.833 23 -47.5 31s-11.5 17.667 -11.5 29s3.83301 21.166 11.5 29.499s16.834 12.5 27.501 12.5c14.667 0 30.667 -8 48 -24l72 -66c2.66699 -2.66699 9 -8 19 -16c19.333 -16 29 -29 29 -39
c0 -14 -7.33301 -21 -22 -21zM255.999 610.001c-44.667 0 -79.167 -24.334 -103.5 -73.001s-36.5 -116.667 -36.5 -204c0 -86 12.167 -153.5 36.5 -202.5s57.833 -73.5 100.5 -73.5c44 0 78.333 24.333 103 73s37 116.334 37 203.001c0 86 -12.167 153.667 -36.5 203
s-57.833 74 -100.5 74z" />
    <glyph glyph-name="Oacute" unicode="&#xd3;" horiz-adv-x="509" 
d="M255 -13c-65.333 0 -117.5 31.333 -156.5 94s-58.5 146.667 -58.5 252s19.5 189.5 58.5 252.5s91.167 94.5 156.5 94.5s117.333 -31.333 156 -94s58 -147 58 -253c0 -105.333 -19.333 -189.333 -58 -252s-90.667 -94 -156 -94zM175 765
c3.33301 2.66699 9.33203 7.99902 17.999 15.999l72 66c17.333 16 33.333 24 48 24c10.667 0 19.834 -4.16699 27.501 -12.5s11.5 -18.166 11.5 -29.499s-3.83301 -21 -11.5 -29s-23.5 -18.333 -47.5 -31l-100 -53c-14 -7.33301 -22.667 -11 -26 -11
c-14.667 0 -22 6.66699 -22 20c0 10.667 10 24 30 40zM255.999 609.999c-44.667 0 -79.167 -24.334 -103.5 -73.001s-36.5 -116.667 -36.5 -204c0 -86 12.167 -153.5 36.5 -202.5s57.833 -73.5 100.5 -73.5c44 0 78.333 24.333 103 73s37 116.334 37 203.001
c0 86 -12.167 153.667 -36.5 203s-57.833 74 -100.5 74z" />
    <glyph glyph-name="Ocircumflex" unicode="&#xd4;" horiz-adv-x="509" 
d="M255 -13c-65.333 0 -117.5 31.333 -156.5 94s-58.5 146.667 -58.5 252s19.5 189.5 58.5 252.5s91.167 94.5 156.5 94.5s117.333 -31.333 156 -94s58 -147 58 -253c0 -105.333 -19.333 -189.333 -58 -252s-90.667 -94 -156 -94zM381 728l-127 54l-125 -54
c-5.33301 -1.33301 -9.33301 -2 -12 -2c-10 0 -15 4.33301 -15 13c0 4.66699 3 9.66699 9 15l13 11l106 95c8.66699 8 17 12 25 12s16.333 -4 25 -12l118 -106c6.66699 -6 10 -11 10 -15c0 -8.66699 -5.33301 -13 -16 -13c-4 0 -7.66699 0.666992 -11 2zM256 610
c-44.667 0 -79.167 -24.334 -103.5 -73.001s-36.5 -116.667 -36.5 -204c0 -86 12.167 -153.5 36.5 -202.5s57.833 -73.5 100.5 -73.5c44 0 78.333 24.333 103 73s37 116.334 37 203.001c0 86 -12.167 153.667 -36.5 203s-57.833 74 -100.5 74z" />
    <glyph glyph-name="Otilde" unicode="&#xd5;" horiz-adv-x="509" 
d="M255 -13c-65.333 0 -117.5 31.333 -156.5 94s-58.5 146.667 -58.5 252s19.5 189.5 58.5 252.5s91.167 94.5 156.5 94.5s117.333 -31.333 156 -94s58 -147 58 -253c0 -105.333 -19.333 -189.333 -58 -252s-90.667 -94 -156 -94zM337 819
c9.33301 0 17.3311 2.33301 23.998 7l17 17c4.66699 3.33301 9.33398 5 14.001 5c8.66699 0 13 -4 13 -12c0 -11.333 -8.33301 -30.166 -25 -56.499s-37.334 -39.5 -62.001 -39.5c-23.333 0 -48.666 6 -75.999 18l-34 15c-12 5.33301 -24 8 -36 8
c-11.333 0 -23.333 -6.33301 -36 -19c-7.33301 -6 -13 -9 -17 -9c-9.33301 0 -14 5.66699 -14 17s7.83301 28.666 23.5 51.999s35.834 35 60.501 35c21.333 0 47.333 -6 78 -18l33 -13c12 -4.66699 24.333 -7 37 -7zM255.998 610c-44.667 0 -79.167 -24.334 -103.5 -73.001
s-36.5 -116.667 -36.5 -204c0 -86 12.167 -153.5 36.5 -202.5s57.833 -73.5 100.5 -73.5c44 0 78.333 24.333 103 73s37 116.334 37 203.001c0 86 -12.167 153.667 -36.5 203s-57.833 74 -100.5 74z" />
    <glyph glyph-name="Odieresis" unicode="&#xd6;" horiz-adv-x="509" 
d="M255 -13c-65.333 0 -117.5 31.333 -156.5 94s-58.5 146.667 -58.5 252s19.5 189.5 58.5 252.5s91.167 94.5 156.5 94.5s117.333 -31.333 156 -94s58 -147 58 -253c0 -105.333 -19.333 -189.333 -58 -252s-90.667 -94 -156 -94zM177 726c-14 0 -25.5 5.5 -34.5 16.5
s-13.5 25.167 -13.5 42.5s4.5 31.666 13.5 42.999s20.5 17 34.5 17c13.333 0 24.666 -5.66699 33.999 -17s14 -25.333 14 -42c0 -17.333 -4.66699 -31.666 -14 -42.999s-20.666 -17 -33.999 -17zM333 726c-14 0 -25.5 5.5 -34.5 16.5s-13.5 25.167 -13.5 42.5
s4.5 31.666 13.5 42.999s20.5 17 34.5 17c13.333 0 24.666 -5.66699 33.999 -17s14 -25.333 14 -42c0 -17.333 -4.66699 -31.666 -14 -42.999s-20.666 -17 -33.999 -17zM256 610c-44.667 0 -79.167 -24.334 -103.5 -73.001s-36.5 -116.667 -36.5 -204
c0 -86 12.167 -153.5 36.5 -202.5s57.833 -73.5 100.5 -73.5c44 0 78.333 24.333 103 73s37 116.334 37 203.001c0 86 -12.167 153.667 -36.5 203s-57.833 74 -100.5 74z" />
    <glyph glyph-name="multiply" unicode="&#xd7;" 
d="M74 464l44 44l130 -131l123 123l46 -47l-122 -122l130 -130l-44 -44l-130 130l-122 -122l-46 47l121 122z" />
    <glyph glyph-name="Oslash" unicode="&#xd8;" horiz-adv-x="524" 
d="M478 705l-59 -99.998c43.333 -70.667 65 -153.667 65 -249c0 -106.667 -21.167 -194.667 -63.5 -264s-95.833 -104 -160.5 -104c-45.333 0 -87 18 -125 54l-35 -71c-5.33301 -10.667 -15.333 -16 -30 -16c-20 0 -30 6 -30 18c0 4 1.33301 8.33301 4 13l56 102
c-12.667 29.333 -22 55.666 -28 78.999c-12 44.667 -18 91.667 -18 141c0 113.333 20 204 60 272s93.333 102 160 102c36 0 72.667 -12.333 110 -37l35 70c7.33301 15.333 19.333 23 36 23c18 0 27 -6.33301 27 -19c0 -4.66699 -1.33301 -9.33398 -4 -14.001zM144 165.002
l209 415c-20 24.667 -47 37 -81 37c-63.333 0 -107.333 -57.667 -132 -173c-10.667 -50.667 -16 -96.667 -16 -138c0 -54.667 6.66699 -101.667 20 -141zM384 528.002l-217 -418c26 -35.333 56 -53 90 -53c44.667 0 81.667 27.5 111 82.5s44 124.5 44 208.5
c0 80 -9.33301 140 -28 180z" />
    <glyph glyph-name="Ugrave" unicode="&#xd9;" horiz-adv-x="575" 
d="M102 379l-0.00195312 156.004c0 45.333 -9.66699 68 -29 68c-2.66699 0 -6.66699 -0.5 -12 -1.5s-9.33301 -1.5 -12 -1.5c-8.66699 0 -16 3.16699 -22 9.5s-9 14.166 -9 23.499c0 26 12.333 39 37 39c9.33301 0 21 -1.66699 35 -5c20 -4.66699 36.667 -7 50 -7
c10.667 0 25.667 1.83301 45 5.5s33.333 5.5 42 5.5c10.667 0 19.667 -3.83301 27 -11.5s11 -16.834 11 -27.501c0 -9.33301 -3.16699 -17.333 -9.5 -24s-14.166 -10 -23.499 -10c-4 0 -9.5 0.833008 -16.5 2.5s-12.5 2.5 -16.5 2.5c-16 0 -25.667 -25.333 -29 -76
c0 0.666992 0 -32.333 0 -99v-145c0 -71.333 3.66699 -121.666 11 -150.999c5.33301 -22.667 18 -41.167 38 -55.5s42.667 -21.5 68 -21.5s47.666 7.16699 66.999 21.5s32.333 33.833 39 58.5c7.33301 27.333 11 76.666 11 147.999v145c0 66.667 0 99.667 0 99
c-3.33301 50.667 -13 76 -29 76c-4 0 -9.5 -0.833008 -16.5 -2.5s-12.5 -2.5 -16.5 -2.5c-9.33301 0 -17.166 3.33301 -23.499 10s-9.5 14.667 -9.5 24c0 11.333 3.83301 20.666 11.5 27.999s16.834 11 27.501 11c9.33301 0 23.333 -1.83301 42 -5.5s32.667 -5.5 42 -5.5
c10 0 24.667 2.16699 44 6.5s34 6.5 44 6.5c23.333 0 35 -12.667 35 -38c0 -22 -10.667 -33 -32 -33h-18c-14 0 -22.833 -6 -26.5 -18s-5.5 -42 -5.5 -90v-93c0 -17.333 0.333008 -43.5 1 -78.5s1 -61.167 1 -78.5c0 -76 -8.66699 -131.667 -26 -167
c-14 -28 -36.167 -50 -66.5 -66s-64.5 -24 -102.5 -24c-34.667 0 -66 7.16699 -94 21.5s-48 33.166 -60 56.499c-17.333 34.667 -26 94 -26 178v45c1.33301 46 2 76.333 2 91zM360.998 705.004c-3.33301 0 -11.999 3.66699 -25.999 11l-100 53
c-20 10.667 -32.667 18.334 -38 23.001c-13.333 10.667 -20 23 -20 37c0 11.333 3.83301 21.166 11.5 29.499s16.5 12.5 26.5 12.5c15.333 0 31.666 -8 48.999 -24l71 -66l29 -25c13.333 -11.333 20 -21.333 20 -30c0 -14 -7.66699 -21 -23 -21z" />
    <glyph glyph-name="Uacute" unicode="&#xda;" horiz-adv-x="575" 
d="M102 379l-0.00195312 156.004c0 45.333 -9.66699 68 -29 68c-2.66699 0 -6.66699 -0.5 -12 -1.5s-9.33301 -1.5 -12 -1.5c-8.66699 0 -16 3.16699 -22 9.5s-9 14.166 -9 23.499c0 26 12.333 39 37 39c9.33301 0 21 -1.66699 35 -5c20 -4.66699 36.667 -7 50 -7
c10.667 0 25.667 1.83301 45 5.5s33.333 5.5 42 5.5c10.667 0 19.667 -3.83301 27 -11.5s11 -16.834 11 -27.501c0 -9.33301 -3.16699 -17.333 -9.5 -24s-14.166 -10 -23.499 -10c-4 0 -9.5 0.833008 -16.5 2.5s-12.5 2.5 -16.5 2.5c-16 0 -25.667 -25.333 -29 -76
c0 0.666992 0 -32.333 0 -99v-145c0 -71.333 3.66699 -121.666 11 -150.999c5.33301 -22.667 18 -41.167 38 -55.5s42.667 -21.5 68 -21.5s47.666 7.16699 66.999 21.5s32.333 33.833 39 58.5c7.33301 27.333 11 76.666 11 147.999v145c0 66.667 0 99.667 0 99
c-3.33301 50.667 -13 76 -29 76c-4 0 -9.5 -0.833008 -16.5 -2.5s-12.5 -2.5 -16.5 -2.5c-9.33301 0 -17.166 3.33301 -23.499 10s-9.5 14.667 -9.5 24c0 11.333 3.83301 20.666 11.5 27.999s16.834 11 27.501 11c9.33301 0 23.333 -1.83301 42 -5.5s32.667 -5.5 42 -5.5
c10 0 24.667 2.16699 44 6.5s34 6.5 44 6.5c23.333 0 35 -12.667 35 -38c0 -22 -10.667 -33 -32 -33h-18c-14 0 -22.833 -6 -26.5 -18s-5.5 -42 -5.5 -90v-93c0 -17.333 0.333008 -43.5 1 -78.5s1 -61.167 1 -78.5c0 -76 -8.66699 -131.667 -26 -167
c-14 -28 -36.167 -50 -66.5 -66s-64.5 -24 -102.5 -24c-34.667 0 -66 7.16699 -94 21.5s-48 33.166 -60 56.499c-17.333 34.667 -26 94 -26 178v45c1.33301 46 2 76.333 2 91zM224.998 781.004l72.001 66c17.333 16 33.666 24 48.999 24c10 0 18.833 -4.16699 26.5 -12.5
s11.5 -18.166 11.5 -29.499s-3.83301 -21 -11.5 -29s-23.5 -18.333 -47.5 -31l-100 -53c-14 -7.33301 -22.667 -11 -26 -11c-14.667 0 -22 6.66699 -22 20c0 9.33301 6 19.666 18 30.999z" />
    <glyph glyph-name="Ucircumflex" unicode="&#xdb;" horiz-adv-x="575" 
d="M102 379l-0.00195312 156.004c0 45.333 -9.66699 68 -29 68c-2.66699 0 -6.66699 -0.5 -12 -1.5s-9.33301 -1.5 -12 -1.5c-8.66699 0 -16 3.16699 -22 9.5s-9 14.166 -9 23.499c0 26 12.333 39 37 39c9.33301 0 21 -1.66699 35 -5c20 -4.66699 36.667 -7 50 -7
c10.667 0 25.667 1.83301 45 5.5s33.333 5.5 42 5.5c10.667 0 19.667 -3.83301 27 -11.5s11 -16.834 11 -27.501c0 -9.33301 -3.16699 -17.333 -9.5 -24s-14.166 -10 -23.499 -10c-4 0 -9.5 0.833008 -16.5 2.5s-12.5 2.5 -16.5 2.5c-16 0 -25.667 -25.333 -29 -76
c0 0.666992 0 -32.333 0 -99v-145c0 -71.333 3.66699 -121.666 11 -150.999c5.33301 -22.667 18 -41.167 38 -55.5s42.667 -21.5 68 -21.5s47.666 7.16699 66.999 21.5s32.333 33.833 39 58.5c7.33301 27.333 11 76.666 11 147.999v145c0 66.667 0 99.667 0 99
c-3.33301 50.667 -13 76 -29 76c-4 0 -9.5 -0.833008 -16.5 -2.5s-12.5 -2.5 -16.5 -2.5c-9.33301 0 -17.166 3.33301 -23.499 10s-9.5 14.667 -9.5 24c0 11.333 3.83301 20.666 11.5 27.999s16.834 11 27.501 11c9.33301 0 23.333 -1.83301 42 -5.5s32.667 -5.5 42 -5.5
c10 0 24.667 2.16699 44 6.5s34 6.5 44 6.5c23.333 0 35 -12.667 35 -38c0 -22 -10.667 -33 -32 -33h-18c-14 0 -22.833 -6 -26.5 -18s-5.5 -42 -5.5 -90v-93c0 -17.333 0.333008 -43.5 1 -78.5s1 -61.167 1 -78.5c0 -76 -8.66699 -131.667 -26 -167
c-14 -28 -36.167 -50 -66.5 -66s-64.5 -24 -102.5 -24c-34.667 0 -66 7.16699 -94 21.5s-48 33.166 -60 56.499c-17.333 34.667 -26 94 -26 178v45c1.33301 46 2 76.333 2 91zM412.998 728.004l-127 54l-125 -54c-5.33301 -1.33301 -9 -2 -11 -2
c-10.667 0 -16 4.33301 -16 13c0 4.66699 3 9.66699 9 15l13 11l106 95c8.66699 8 17 12 25 12s16.333 -4 25 -12l119 -106c6 -5.33301 9 -10.333 9 -15c0 -8.66699 -5.33301 -13 -16 -13c-2 0 -5.66699 0.666992 -11 2z" />
    <glyph glyph-name="Udieresis" unicode="&#xdc;" horiz-adv-x="575" 
d="M102 379l-0.00195312 156.004c0 45.333 -9.66699 68 -29 68c-2.66699 0 -6.66699 -0.5 -12 -1.5s-9.33301 -1.5 -12 -1.5c-8.66699 0 -16 3.16699 -22 9.5s-9 14.166 -9 23.499c0 26 12.333 39 37 39c9.33301 0 21 -1.66699 35 -5c20 -4.66699 36.667 -7 50 -7
c10.667 0 25.667 1.83301 45 5.5s33.333 5.5 42 5.5c10.667 0 19.667 -3.83301 27 -11.5s11 -16.834 11 -27.501c0 -9.33301 -3.16699 -17.333 -9.5 -24s-14.166 -10 -23.499 -10c-4 0 -9.5 0.833008 -16.5 2.5s-12.5 2.5 -16.5 2.5c-16 0 -25.667 -25.333 -29 -76
c0 0.666992 0 -32.333 0 -99v-145c0 -71.333 3.66699 -121.666 11 -150.999c5.33301 -22.667 18 -41.167 38 -55.5s42.667 -21.5 68 -21.5s47.666 7.16699 66.999 21.5s32.333 33.833 39 58.5c7.33301 27.333 11 76.666 11 147.999v145c0 66.667 0 99.667 0 99
c-3.33301 50.667 -13 76 -29 76c-4 0 -9.5 -0.833008 -16.5 -2.5s-12.5 -2.5 -16.5 -2.5c-9.33301 0 -17.166 3.33301 -23.499 10s-9.5 14.667 -9.5 24c0 11.333 3.83301 20.666 11.5 27.999s16.834 11 27.501 11c9.33301 0 23.333 -1.83301 42 -5.5s32.667 -5.5 42 -5.5
c10 0 24.667 2.16699 44 6.5s34 6.5 44 6.5c23.333 0 35 -12.667 35 -38c0 -22 -10.667 -33 -32 -33h-18c-14 0 -22.833 -6 -26.5 -18s-5.5 -42 -5.5 -90v-93c0 -17.333 0.333008 -43.5 1 -78.5s1 -61.167 1 -78.5c0 -76 -8.66699 -131.667 -26 -167
c-14 -28 -36.167 -50 -66.5 -66s-64.5 -24 -102.5 -24c-34.667 0 -66 7.16699 -94 21.5s-48 33.166 -60 56.499c-17.333 34.667 -26 94 -26 178v45c1.33301 46 2 76.333 2 91zM208.998 726.004c-13.333 0 -24.667 5.66699 -34 17s-14 25.333 -14 42
c0 17.333 4.5 31.666 13.5 42.999s20.5 17 34.5 17s25.5 -5.5 34.5 -16.5s13.5 -25.167 13.5 -42.5s-4.5 -31.666 -13.5 -42.999s-20.5 -17 -34.5 -17zM364.997 726.004c-13.333 0 -24.667 5.66699 -34 17s-14 25.333 -14 42c0 17.333 4.5 31.666 13.5 42.999
s20.5 17 34.5 17s25.5 -5.5 34.5 -16.5s13.5 -25.167 13.5 -42.5s-4.5 -31.666 -13.5 -42.999s-20.5 -17 -34.5 -17z" />
    <glyph glyph-name="Yacute" unicode="&#xdd;" horiz-adv-x="542" 
d="M183 537l88.998 -205l102 232c4.66699 11.333 7 18.333 7 21c0 8.66699 -4 13 -12 13c-3.33301 0 -8 -0.666992 -14 -2s-10.667 -2 -14 -2c-19.333 0 -29 12.667 -29 38c0 26 11.333 39 34 39c6.66699 0 18.834 -1.83301 36.501 -5.5s31.834 -5.5 42.501 -5.5
c16.667 0 34.334 2 53.001 6c16 3.33301 27.667 5 35 5c23.333 0 35 -13 35 -39c0 -24.667 -10.667 -37 -32 -37c-4.66699 0 -10 1 -16 3c-8 1.33301 -12.667 2 -14 2c-9.33301 0 -18 -7 -26 -21l-10 -18l-11 -24l-126 -266c-3.33301 -6.66699 -5.33301 -15.334 -6 -26.001
c-1.33301 -6 -2 -13.667 -2 -23v-104c0 -37.333 10.333 -56 31 -56c7.33301 0 13.666 0.666992 18.999 2c9.33301 1.33301 15.666 2 18.999 2c20.667 0 31 -11 31 -33c0 -10.667 -3.33301 -19.667 -10 -27s-15 -11 -25 -11c-11.333 0 -27.833 2 -49.5 6s-38.167 6 -49.5 6
c-12.667 0 -30.834 -2 -54.501 -6s-41.167 -6 -52.5 -6c-24.667 0 -37 12.667 -37 38c0 22 11 33 33 33c4.66699 0 11.5 -0.666992 20.5 -2s15.5 -2 19.5 -2c17.333 0 28 21 32 63c1.33301 10 2 35.667 2 77v23c0 16.667 -2.33301 30.667 -7 42l-13 30l-132 278
c-8.66699 16 -18 24 -28 24c-3.33301 0 -8.16602 -0.5 -14.499 -1.5s-11.166 -1.5 -14.499 -1.5c-20.667 0 -31 12.333 -31 37c0 26 12 39 36 39c7.33301 0 21 -2 41 -6s36 -6 48 -6c10.667 0 24.667 1.83301 42 5.5s29.333 5.5 36 5.5c10 0 18.5 -3.83301 25.5 -11.5
s10.5 -17.167 10.5 -28.5c0 -24.667 -11 -37 -33 -37c-3.33301 0 -7.83301 0.666992 -13.5 2s-9.83398 2 -12.501 2c-6.66699 0 -10 -4 -10 -12c0 -0.666992 0.333008 -2.16699 1 -4.5s3.33398 -9.16602 8.00098 -20.499zM189.998 740
c0 9.33301 4.66797 18.668 14.001 28.001l66 67c17.333 17.333 31.666 26 42.999 26c10.667 0 19.667 -4.33301 27 -13s11 -19.334 11 -32.001c0 -20.667 -12.667 -36.667 -38 -48l-87 -40c-8.66699 -4 -15 -6 -19 -6c-11.333 0 -17 6 -17 18z" />
    <glyph glyph-name="Thorn" unicode="&#xde;" horiz-adv-x="497" 
d="M91 64c2.66699 0 5 0.331055 7 0.998047h1l1 1l4 2l2 2l1 2l1 1l4 8c1.33301 4 2.33301 8 3 12c0 2 0.333008 4.33301 1 7c2 10.667 3.33301 14.667 4 12v83v43v77c2 71.333 15 143 39 215c9.33301 0 21 0.333008 35 1c-0.666992 -24 -1 -56 -1 -96
c-1.33301 -6 -2 -13 -2 -21v-153c0 -16.667 0.666992 -27.667 2 -33c0 -33.333 0.333008 -61 1 -83c-1.33301 -2 -2.33301 -6 -3 -12c1.33301 -16.667 3.33301 -30.334 6 -41.001c3.33301 -16.667 10 -26 20 -28h3h1c2.66699 0 8.66699 0.666992 18 2
c2.66699 0.666992 6.33398 1.33398 11.001 2.00098h3h1c8.66699 -0.666992 16 -4 22 -10c6.66699 -6 10 -13.667 10 -23c0 -11.333 -3.66699 -20.666 -11 -27.999s-16 -11.333 -26 -12c-2.66699 0 -13.334 1.66699 -32.001 5c-5.33301 0.666992 -11.333 1.66699 -18 3
c-2 0.666992 -4.33301 1 -7 1c-8 1.33301 -16.333 2.33301 -25 3h-8h-3h-5c-11.333 -0.666992 -25.333 -2.66699 -42 -6c-20.667 -4 -35.667 -6 -45 -6h-1c-10.667 0 -19.667 3.66699 -27 11c-6 6.66699 -9.33301 14.667 -10 24v5v5c1.33301 15.333 9 24.333 23 27
c2.66699 0.666992 5.66699 1 9 1h5c4 -0.666992 7.33301 -1.33398 10 -2.00098c10.667 -1.33301 16.667 -2 18 -2c2.66699 0 5 0.333008 7 1h1l1 1l4 2l2 2l1 2l1 1l4 8c1.33301 4 2.33301 8 3 12c0 2.66699 0.333008 5 1 7c2 18 3.33301 49.667 4 95v103v17v113
c0 77.333 -1.66699 125.833 -5 145.5s-11.333 29.5 -24 29.5c-3.33301 0 -8.66602 -0.833008 -15.999 -2.5s-13 -2.5 -17 -2.5c-21.333 0 -32 11.333 -32 34c0 26 12.667 39 38 39c10 0 25 -1.83301 45 -5.5s35 -5.5 45 -5.5c10.667 0 26.334 1.83301 47.001 5.5
s36.334 5.5 47.001 5.5c26 0 39 -13 39 -39c0 -22.667 -11 -34 -33 -34c-2 0 -6.66699 0.833008 -14 2.5s-13.666 2.5 -18.999 2.5c-12.667 0 -20.667 -10 -24 -30c-1.33301 -8.66699 -2.33301 -22.667 -3 -42c13.333 0.666992 28.666 1.66699 45.999 3
c18.667 1.33301 40.334 2 65.001 2c55.333 0 97.833 -16.667 127.5 -50s44.5 -81 44.5 -143c0 -79.333 -26 -134 -78 -164c-31.333 -18 -77 -27 -137 -27h-50c-9.33301 0 -15.333 -2 -18 -6v-1c0.666992 -24.667 1.66699 -42 3 -52v-1
c4.66699 -16.667 11.334 -26 20.001 -28h3c1.33301 0 7.33301 0.666992 18 2c2.66699 0.666992 6.66699 1.33398 12 2.00098h3h1c9.33301 0 17.166 -3.16699 23.499 -9.5s9.5 -14.166 9.5 -23.499c0 -11.333 -3.66699 -20.833 -11 -28.5s-16.333 -11.5 -27 -11.5h-1
c-2 0 -12.333 1.66699 -31 5c-4.66699 0.666992 -10 1.66699 -16 3c-2.66699 0.666992 -5.66699 1 -9 1c-6.66699 1.33301 -15 2.33301 -25 3h-8h-3h-5c-10.667 -0.666992 -25.334 -2.66699 -44.001 -6c-20.667 -4 -35.334 -6 -44.001 -6
c-10.667 0.666992 -19.334 4.33398 -26.001 11.001s-10.334 14.667 -11.001 24v5v5c1.33301 15.333 9 24.333 23 27c2.66699 0.666992 5.66699 1 9 1h5c4 -0.666992 7.33301 -1.33398 10 -2.00098c10.667 -1.33301 16.667 -2 18 -2zM276 470.998
c-33.333 0 -56.001 -4 -68.001 -12c-7.33301 -4.66699 -12.333 -12.667 -15 -24v-7v-190v-10c0.666992 -1.33301 1 -2.33301 1 -3c2.66699 -2.66699 8.33398 -4 17.001 -4c22 -2 41.667 -3 59 -3c90.667 0 136 41 136 123c0 45.333 -10.333 78.333 -31 99s-53.667 31 -99 31
zM190.999 134.998v-2v-3v5z" />
    <glyph glyph-name="germandbls" unicode="&#xdf;" horiz-adv-x="508" 
d="M346 -8c-23.333 0 -50.3311 12 -80.998 36c-2 -24 -11.667 -36 -29 -36c-22 0 -33 16.333 -33 49c0 7.33301 0.666992 19.333 2 36c2 24.667 3 40.334 3 47.001c0 8 -0.833008 19.667 -2.5 35s-2.5 27 -2.5 35c0 26 11 39 33 39c21.333 0 32 -14 32 -42
c0 -4.66699 -0.333008 -8 -1 -10c-0.666992 -8.66699 -1 -18 -1 -28c0 -24.667 6.66699 -46.334 20 -65.001s29 -28 47 -28c18.667 0 34.5 9 47.5 27s19.5 40 19.5 66c0 46 -29.667 92.333 -89 139c-28 22 -46.5 39.167 -55.5 51.5s-13.5 26.5 -13.5 42.5
c0 22.667 15.167 49.5 45.5 80.5s45.5 57.167 45.5 78.5c0 18 -7 33.167 -21 45.5s-30.667 18.5 -50 18.5c-54 0 -85.667 -31.667 -95 -95c-2.66699 -20 -4.66699 -41 -6 -63c-2 -39.333 -3 -64.666 -3 -75.999l1 -279c0 -20.667 1.33301 -45 4 -73v-7
c0 -14 -6.33301 -21 -19 -21c-4.66699 0 -11 1.33301 -19 4c-10 2 -19.667 3 -29 3c-5.33301 0 -13 -1.16699 -23 -3.5s-17.333 -3.5 -22 -3.5c-8.66699 0 -16.167 3.5 -22.5 10.5s-9.5 15.167 -9.5 24.5c0 21.333 10 32 30 32c4 0 7.33301 -0.333008 10 -1h6
c15.333 0 23.333 11.333 24 34c0 10.667 0.333008 28 1 52c0.666992 18 1 42.333 1 73v145c0 35.333 -7 53 -21 53h-7c-6 -1.33301 -10.333 -2 -13 -2c-20.667 0 -31 10.667 -31 32c0 23.333 11 35 33 35c7.33301 0 12.666 -0.5 15.999 -1.5s7.66602 -1.5 12.999 -1.5
c10.667 0 16.334 9 17.001 27c2.66699 51.333 19.167 92.5 49.5 123.5s69.166 46.5 116.499 46.5c41.333 0 75.333 -12 102 -36s40 -55 40 -93c0 -41.333 -18.667 -80.666 -56 -117.999c-18 -18 -27 -30.333 -27 -37c0 -10.667 10.667 -23.334 32 -38.001
c46 -32 78 -65 96 -99c13.333 -24.667 20 -56.667 20 -96c0 -46.667 -12.167 -86.334 -36.5 -119.001s-53.833 -49 -88.5 -49z" />
    <glyph glyph-name="agrave" unicode="&#xe0;" horiz-adv-x="443" 
d="M354 -13c-38 0 -62.333 19.999 -73 59.999c-28.667 -40 -67 -60 -115 -60c-38.667 0 -70.5 13.667 -95.5 41s-37.5 62.333 -37.5 105c0 54.667 17 93.334 51 116.001c24 16 61 27.333 111 34c28.667 4 48.334 11.5 59.001 22.5s16 29.5 16 55.5c0 54 -23 81 -69 81
c-12 0 -25.667 -3.33301 -41 -10c-17.333 -8 -26 -17.667 -26 -29c0 -3.33301 2 -8.33301 6 -15c8 -12.667 12 -24.667 12 -36c0 -28.667 -15 -43 -45 -43c-34.667 0 -52 21.667 -52 65c0 36.667 13.833 67.167 41.5 91.5s62.5 36.5 104.5 36.5c28 0 53.333 -5.66699 76 -17
c25.333 -13.333 42.666 -32 51.999 -56c7.33301 -20 11 -53.667 11 -101l1 -245c0.666992 -19.333 6.33398 -29 17.001 -29c14.667 0 22 23.667 22 71c0 8.66699 -0.333008 15 -1 19v10c0 28.667 9.66699 43 29 43c22 0 33 -19 33 -57c0 -58 -6.33301 -98 -19 -120
s-35.334 -33 -68.001 -33zM273 564.999c-3.33301 0 -9.33203 1.99805 -17.999 5.99805l-88 40c-24.667 11.333 -37 27.333 -37 48c0 12.667 3.5 23.334 10.5 32.001s15.833 13 26.5 13c11.333 0 25.666 -8.66699 42.999 -26l66 -67c9.33301 -9.33301 14 -18.666 14 -27.999
c0 -12 -5.66699 -18 -17 -18zM269.001 148.997c2.66699 15.333 4.33398 45.334 5.00098 90.001c-18.667 -8 -37 -13.667 -55 -17l-45 -8c-48.667 -8.66699 -73 -36.334 -73 -83.001c0 -24 6.83301 -43.333 20.5 -58s31.5 -22 53.5 -22c23.333 0 43.666 9 60.999 27
s28.333 41.667 33 71z" />
    <glyph glyph-name="aacute" unicode="&#xe1;" horiz-adv-x="443" 
d="M354 -13c-38 0 -62.333 19.999 -73 59.999c-28.667 -40 -67 -60 -115 -60c-38.667 0 -70.5 13.667 -95.5 41s-37.5 62.333 -37.5 105c0 54.667 17 93.334 51 116.001c24 16 61 27.333 111 34c28.667 4 48.334 11.5 59.001 22.5s16 29.5 16 55.5c0 54 -23 81 -69 81
c-12 0 -25.667 -3.33301 -41 -10c-17.333 -8 -26 -17.667 -26 -29c0 -3.33301 2 -8.33301 6 -15c8 -12.667 12 -24.667 12 -36c0 -28.667 -15 -43 -45 -43c-34.667 0 -52 21.667 -52 65c0 36.667 13.833 67.167 41.5 91.5s62.5 36.5 104.5 36.5c28 0 53.333 -5.66699 76 -17
c25.333 -13.333 42.666 -32 51.999 -56c7.33301 -20 11 -53.667 11 -101l1 -245c0.666992 -19.333 6.33398 -29 17.001 -29c14.667 0 22 23.667 22 71c0 8.66699 -0.333008 15 -1 19v10c0 28.667 9.66699 43 29 43c22 0 33 -19 33 -57c0 -58 -6.33301 -98 -19 -120
s-35.334 -33 -68.001 -33zM130 582.999c0 9.33301 4.66699 18.668 14 28.001l66 67c17.333 17.333 32 26 44 26c10.667 0 19.5 -4.33301 26.5 -13s10.5 -19.334 10.5 -32.001c0 -20.667 -12.667 -36.667 -38 -48l-87 -40c-8.66699 -4 -15 -6 -19 -6c-11.333 0 -17 6 -17 18z
M269 149.001c2.66699 15.333 4.33398 45.334 5.00098 90.001c-18.667 -8 -37 -13.667 -55 -17l-45 -8c-48.667 -8.66699 -73 -36.334 -73 -83.001c0 -24 6.83301 -43.333 20.5 -58s31.5 -22 53.5 -22c23.333 0 43.666 9 60.999 27s28.333 41.667 33 71z" />
    <glyph glyph-name="acircumflex" unicode="&#xe2;" horiz-adv-x="443" 
d="M354 -13c-38 0 -62.333 19.999 -73 59.999c-28.667 -40 -67 -60 -115 -60c-38.667 0 -70.5 13.667 -95.5 41s-37.5 62.333 -37.5 105c0 54.667 17 93.334 51 116.001c24 16 61 27.333 111 34c28.667 4 48.334 11.5 59.001 22.5s16 29.5 16 55.5c0 54 -23 81 -69 81
c-12 0 -25.667 -3.33301 -41 -10c-17.333 -8 -26 -17.667 -26 -29c0 -3.33301 2 -8.33301 6 -15c8 -12.667 12 -24.667 12 -36c0 -28.667 -15 -43 -45 -43c-34.667 0 -52 21.667 -52 65c0 36.667 13.833 67.167 41.5 91.5s62.5 36.5 104.5 36.5c28 0 53.333 -5.66699 76 -17
c25.333 -13.333 42.666 -32 51.999 -56c7.33301 -20 11 -53.667 11 -101l1 -245c0.666992 -19.333 6.33398 -29 17.001 -29c14.667 0 22 23.667 22 71c0 8.66699 -0.333008 15 -1 19v10c0 28.667 9.66699 43 29 43c22 0 33 -19 33 -57c0 -58 -6.33301 -98 -19 -120
s-35.334 -33 -68.001 -33zM307 569.999l-95.999 43l-94 -43c-6 -2.66699 -12 -4 -18 -4c-13.333 0 -20 4.66699 -20 14c0 7.33301 4 14.333 12 21l102 87c7.33301 6 13.666 9 18.999 9c4 0 9.66699 -3 17 -9l101 -87c7.33301 -6 11 -12 11 -18c0 -11.333 -6 -17 -18 -17
c-4.66699 0 -10 1.33301 -16 4zM269.001 148.999c2.66699 15.333 4.33398 45.334 5.00098 90.001c-18.667 -8 -37 -13.667 -55 -17l-45 -8c-48.667 -8.66699 -73 -36.334 -73 -83.001c0 -24 6.83301 -43.333 20.5 -58s31.5 -22 53.5 -22c23.333 0 43.666 9 60.999 27
s28.333 41.667 33 71z" />
    <glyph glyph-name="atilde" unicode="&#xe3;" horiz-adv-x="443" 
d="M354 -13c-38 0 -62.333 19.999 -73 59.999c-28.667 -40 -67 -60 -115 -60c-38.667 0 -70.5 13.667 -95.5 41s-37.5 62.333 -37.5 105c0 54.667 17 93.334 51 116.001c24 16 61 27.333 111 34c28.667 4 48.334 11.5 59.001 22.5s16 29.5 16 55.5c0 54 -23 81 -69 81
c-12 0 -25.667 -3.33301 -41 -10c-17.333 -8 -26 -17.667 -26 -29c0 -3.33301 2 -8.33301 6 -15c8 -12.667 12 -24.667 12 -36c0 -28.667 -15 -43 -45 -43c-34.667 0 -52 21.667 -52 65c0 36.667 13.833 67.167 41.5 91.5s62.5 36.5 104.5 36.5c28 0 53.333 -5.66699 76 -17
c25.333 -13.333 42.666 -32 51.999 -56c7.33301 -20 11 -53.667 11 -101l1 -245c0.666992 -19.333 6.33398 -29 17.001 -29c14.667 0 22 23.667 22 71c0 8.66699 -0.333008 15 -1 19v10c0 28.667 9.66699 43 29 43c22 0 33 -19 33 -57c0 -58 -6.33301 -98 -19 -120
s-35.334 -33 -68.001 -33zM300 647.999c11.333 0 19.998 3.33301 25.998 10l18 21c4 4.66699 9 7 15 7c10 0 15 -5 15 -15c0 -16 -8.83301 -36.667 -26.5 -62s-40.167 -38 -67.5 -38c-18.667 0 -43 6.66699 -73 20l-39 17c-9.33301 4 -18.666 6 -27.999 6
c-16 0 -32.667 -8.33301 -50 -25c-6.66699 -6.66699 -12 -10 -16 -10c-9.33301 0 -14 5.33301 -14 16c0 10 6.33301 26.667 19 50c16.667 30 39.334 45 68.001 45c14.667 0 41 -7 79 -21c10 -4 23.333 -9 40 -15c12 -4 23.333 -6 34 -6zM268.998 148.999
c2.66699 15.333 4.33398 45.334 5.00098 90.001c-18.667 -8 -37 -13.667 -55 -17l-45 -8c-48.667 -8.66699 -73 -36.334 -73 -83.001c0 -24 6.83301 -43.333 20.5 -58s31.5 -22 53.5 -22c23.333 0 43.666 9 60.999 27s28.333 41.667 33 71z" />
    <glyph glyph-name="adieresis" unicode="&#xe4;" horiz-adv-x="443" 
d="M354 -13c-38 0 -62.333 19.999 -73 59.999c-28.667 -40 -67 -60 -115 -60c-38.667 0 -70.5 13.667 -95.5 41s-37.5 62.333 -37.5 105c0 54.667 17 93.334 51 116.001c24 16 61 27.333 111 34c28.667 4 48.334 11.5 59.001 22.5s16 29.5 16 55.5c0 54 -23 81 -69 81
c-12 0 -25.667 -3.33301 -41 -10c-17.333 -8 -26 -17.667 -26 -29c0 -3.33301 2 -8.33301 6 -15c8 -12.667 12 -24.667 12 -36c0 -28.667 -15 -43 -45 -43c-34.667 0 -52 21.667 -52 65c0 36.667 13.833 67.167 41.5 91.5s62.5 36.5 104.5 36.5c28 0 53.333 -5.66699 76 -17
c25.333 -13.333 42.666 -32 51.999 -56c7.33301 -20 11 -53.667 11 -101l1 -245c0.666992 -19.333 6.33398 -29 17.001 -29c14.667 0 22 23.667 22 71c0 8.66699 -0.333008 15 -1 19v10c0 28.667 9.66699 43 29 43c22 0 33 -19 33 -57c0 -58 -6.33301 -98 -19 -120
s-35.334 -33 -68.001 -33zM128 561.999c-32 0 -48 20 -48 60c0 39.333 16 59 48 59c32.667 0 49 -19.667 49 -59c0 -40 -16.333 -60 -49 -60zM284 561.999c-32.667 0 -49 20 -49 60c0 39.333 16.333 59 49 59c32 0 48 -19.667 48 -59c0 -40 -16 -60 -48 -60zM269 148.999
c2.66699 15.333 4.33398 45.334 5.00098 90.001c-18.667 -8 -37 -13.667 -55 -17l-45 -8c-48.667 -8.66699 -73 -36.334 -73 -83.001c0 -24 6.83301 -43.333 20.5 -58s31.5 -22 53.5 -22c23.333 0 43.666 9 60.999 27s28.333 41.667 33 71z" />
    <glyph glyph-name="aring" unicode="&#xe5;" horiz-adv-x="443" 
d="M354 -13c-38 0 -62.333 19.999 -73 59.999c-28.667 -40 -67 -60 -115 -60c-38.667 0 -70.5 13.667 -95.5 41s-37.5 62.333 -37.5 105c0 54.667 17 93.334 51 116.001c24 16 61 27.333 111 34c28.667 4 48.334 11.5 59.001 22.5s16 29.5 16 55.5c0 54 -23 81 -69 81
c-12 0 -25.667 -3.33301 -41 -10c-17.333 -8 -26 -17.667 -26 -29c0 -3.33301 2 -8.33301 6 -15c8 -12.667 12 -24.667 12 -36c0 -28.667 -15 -43 -45 -43c-34.667 0 -52 21.667 -52 65c0 36.667 13.833 67.167 41.5 91.5s62.5 36.5 104.5 36.5c28 0 53.333 -5.66699 76 -17
c25.333 -13.333 42.666 -32 51.999 -56c7.33301 -20 11 -53.667 11 -101l1 -245c0.666992 -19.333 6.33398 -29 17.001 -29c14.667 0 22 23.667 22 71c0 8.66699 -0.333008 15 -1 19v10c0 28.667 9.66699 43 29 43c22 0 33 -19 33 -57c0 -58 -6.33301 -98 -19 -120
s-35.334 -33 -68.001 -33zM204 555.999c-21.333 0 -39 7.66699 -53 23s-21 34.666 -21 57.999s7 42.5 21 57.5s31.667 22.5 53 22.5s38.833 -7.66699 52.5 -23s20.5 -34.666 20.5 -57.999s-7 -42.5 -21 -57.5s-31.333 -22.5 -52 -22.5zM269 148.999
c2.66699 15.333 4.33398 45.334 5.00098 90.001c-18.667 -8 -37 -13.667 -55 -17l-45 -8c-48.667 -8.66699 -73 -36.334 -73 -83.001c0 -24 6.83301 -43.333 20.5 -58s31.5 -22 53.5 -22c23.333 0 43.666 9 60.999 27s28.333 41.667 33 71zM203 677
c-8.66699 0 -16 -4 -22 -12s-9 -17.333 -9 -28c0 -11.333 3 -21 9 -29s13.333 -12 22 -12c21.333 0 32 13.667 32 41c0 11.333 -3.16699 20.833 -9.5 28.5s-13.833 11.5 -22.5 11.5z" />
    <glyph glyph-name="ae" unicode="&#xe6;" horiz-adv-x="646" 
d="M445 -13c-64 0 -108.003 29.3311 -132.003 87.998c-11.333 -26.667 -29.166 -48 -53.499 -64s-51.166 -24 -80.499 -24c-42.667 0 -77.667 14.167 -105 42.5s-41 64.5 -41 108.5c0 108.667 63.333 163 190 163h33c9.33301 0 15.5 1.83301 18.5 5.5s4.5 10.5 4.5 20.5
c0 34.667 -7.66699 62 -23 82s-36.333 30 -63 30c-16 0 -29.667 -4.33301 -41 -13c-13.333 -10 -20 -17.667 -20 -23c0 -2 1.66699 -5.33301 5 -10c7.33301 -10.667 11 -21 11 -31c0 -12.667 -4.83301 -23.667 -14.5 -33s-21.167 -14 -34.5 -14c-30 0 -45 20.667 -45 62
c0 34.667 13.833 64.167 41.5 88.5s61.167 36.5 100.5 36.5c58.667 0 101.334 -27 128.001 -81c28 54 70.333 81 127 81c46.667 0 84.667 -20.167 114 -60.5s44 -92.166 44 -155.499c0 -19.333 -1.33301 -32 -4 -38c-4 -11.333 -14 -17 -30 -17h-201
c-17.333 0 -26 -7 -26 -21c0 -47.333 8.83301 -84.833 26.5 -112.5s41.5 -41.5 71.5 -41.5c19.333 0 37 7.33301 53 22s26.667 33.334 32 56.001c4 17.333 6.66699 27.333 8 30c4.66699 13.333 15.667 20 33 20c20 0 30 -13 30 -39c0 -42 -15.833 -78.833 -47.5 -110.5
s-68.167 -47.5 -109.5 -47.5zM368.997 295.998l137.001 -0.000976562c14.667 0 23.667 2.33301 27 7c2 2.66699 3 7.33398 3 14.001c0 32 -8.33301 59.333 -25 82s-37 34 -61 34c-24.667 0 -46.834 -12.5 -66.501 -37.5s-29.5 -52.833 -29.5 -83.5c0 -10.667 5 -16 15 -16z
M181.998 52.9971c28 0 51 12.834 69 38.501s27 58.167 27 97.5v25c0 10 -1.33301 16.333 -4 19s-9 4 -19 4h-38c-42 0 -72 -6.83301 -90 -20.5s-27 -36.834 -27 -69.501c0 -28.667 7.5 -51.5 22.5 -68.5s34.833 -25.5 59.5 -25.5z" />
    <glyph glyph-name="ccedilla" unicode="&#xe7;" horiz-adv-x="405" 
d="M232 -12l-8.00391 -25h5c2 0.666992 3.33301 1 4 1c41.333 0 62 -21.667 62 -65c0 -21.333 -7.16699 -38.833 -21.5 -52.5s-32.833 -20.5 -55.5 -20.5c-18.667 0 -34.834 4.5 -48.501 13.5s-20.5 19.5 -20.5 31.5c0 14 7 21 21 21c4.66699 0 9.33398 -2 14.001 -6l14 -12
c4.66699 -4 10 -6 16 -6c7.33301 0 13.833 3.16699 19.5 9.5s8.5 13.5 8.5 21.5c0 15.333 -8.33301 23 -25 23c-6.66699 0 -11 -0.666992 -13 -2l-11 -7c-1.33301 -1.33301 -3.66602 -2 -6.99902 -2c-12 0 -18 5 -18 15c0 2.66699 1.33301 7.66699 4 15l17 47
c-48.667 8 -86.167 34 -112.5 78s-39.5 102.667 -39.5 176c0 80 15.833 143.333 47.5 190s74.834 70 129.501 70c42.667 0 77.5 -14.333 104.5 -43s40.5 -65 40.5 -109c0 -24.667 -5.5 -45 -16.5 -61s-25.167 -24 -42.5 -24c-13.333 0 -24.833 5.16699 -34.5 15.5
s-14.5 22.833 -14.5 37.5c0 26.667 11.667 44 35 52c-11.333 44.667 -35 67 -71 67c-32.667 0 -58.667 -18 -78 -54s-29 -84.333 -29 -145c0 -52.667 10 -96.167 30 -130.5s45.333 -51.5 76 -51.5c20.667 0 39.334 9.66699 56.001 29s26.334 43 29.001 71
c2 18.667 4 30.667 6 36c5.33301 10 15 15 29 15c23.333 0 35 -15.333 35 -46c0 -40 -11.833 -76.5 -35.5 -109.5s-57.5 -54.167 -101.5 -63.5z" />
    <glyph glyph-name="egrave" unicode="&#xe8;" horiz-adv-x="414" 
d="M377 286c0 -24.667 -1.66602 -39.834 -4.99902 -45.501s-12.333 -8.5 -27 -8.5h-199c-16 0 -26 -1.5 -30 -4.5s-6 -10.833 -6 -23.5c0 -44 9.33301 -79.667 28 -107s43.334 -41 74.001 -41c19.333 0 36.666 6.33301 51.999 19s25.666 29 30.999 49l9 34
c4.66699 18.667 16.334 28 35.001 28c21.333 0 32 -12 32 -36c0 -43.333 -16.167 -81.333 -48.5 -114s-69.833 -49 -112.5 -49c-52.667 0 -94.667 22.833 -126 68.5s-47 107.167 -47 184.5s16.667 140.333 50 189s76.666 73 129.999 73c47.333 0 85.833 -20.167 115.5 -60.5
s44.5 -92.166 44.5 -155.499zM270.001 565c-4 0 -10.333 1.99805 -19 5.99805l-87 40c-25.333 11.333 -38 27.333 -38 48c0 12.667 3.5 23.334 10.5 32.001s15.833 13 26.5 13c12 0 26.667 -8.66699 44 -26l66 -67c9.33301 -9.33301 14 -18.666 14 -27.999
c0 -12 -5.66699 -18 -17 -18zM115.001 315.998c0 -12 8.66504 -18.001 25.998 -18.001h126c16 0 26 1.33301 30 4s6 9.33398 6 20.001c0 32 -8.66699 58.667 -26 80s-38.666 32 -63.999 32c-39.333 0 -67.666 -22 -84.999 -66c-6.66699 -16.667 -10.667 -31 -12 -43
c-0.666992 -2.66699 -1 -5.66699 -1 -9z" />
    <glyph glyph-name="eacute" unicode="&#xe9;" horiz-adv-x="414" 
d="M377 286c0 -24.667 -1.66602 -39.834 -4.99902 -45.501s-12.333 -8.5 -27 -8.5h-199c-16 0 -26 -1.5 -30 -4.5s-6 -10.833 -6 -23.5c0 -44 9.33301 -79.667 28 -107s43.334 -41 74.001 -41c19.333 0 36.666 6.33301 51.999 19s25.666 29 30.999 49l9 34
c4.66699 18.667 16.334 28 35.001 28c21.333 0 32 -12 32 -36c0 -43.333 -16.167 -81.333 -48.5 -114s-69.833 -49 -112.5 -49c-52.667 0 -94.667 22.833 -126 68.5s-47 107.167 -47 184.5s16.667 140.333 50 189s76.666 73 129.999 73c47.333 0 85.833 -20.167 115.5 -60.5
s44.5 -92.166 44.5 -155.499zM127.001 583c0 9.33301 4.66797 18.668 14.001 28.001l66 67c17.333 17.333 31.666 26 42.999 26c10.667 0 19.5 -4.33301 26.5 -13s10.5 -19.334 10.5 -32.001c0 -20.667 -12.333 -36.667 -37 -48l-87 -40c-8.66699 -4 -15 -6 -19 -6
c-11.333 0 -17 6 -17 18zM115.002 316.002c0 -12 8.66504 -18.001 25.998 -18.001h126c16 0 26 1.33301 30 4s6 9.33398 6 20.001c0 32 -8.66699 58.667 -26 80s-38.666 32 -63.999 32c-39.333 0 -67.666 -22 -84.999 -66c-6.66699 -16.667 -10.667 -31 -12 -43
c-0.666992 -2.66699 -1 -5.66699 -1 -9z" />
    <glyph glyph-name="ecircumflex" unicode="&#xea;" horiz-adv-x="414" 
d="M377 286c0 -24.667 -1.66602 -39.834 -4.99902 -45.501s-12.333 -8.5 -27 -8.5h-199c-16 0 -26 -1.5 -30 -4.5s-6 -10.833 -6 -23.5c0 -44 9.33301 -79.667 28 -107s43.334 -41 74.001 -41c19.333 0 36.666 6.33301 51.999 19s25.666 29 30.999 49l9 34
c4.66699 18.667 16.334 28 35.001 28c21.333 0 32 -12 32 -36c0 -43.333 -16.167 -81.333 -48.5 -114s-69.833 -49 -112.5 -49c-52.667 0 -94.667 22.833 -126 68.5s-47 107.167 -47 184.5s16.667 140.333 50 189s76.666 73 129.999 73c47.333 0 85.833 -20.167 115.5 -60.5
s44.5 -92.166 44.5 -155.499zM317.001 570l-95.999 43l-94 -43c-6 -2.66699 -12 -4 -18 -4c-13.333 0 -20 4.66699 -20 14c0 7.33301 4 14.333 12 21l102 87c7.33301 6 13.666 9 18.999 9c4 0 9.66699 -3 17 -9l101 -87c7.33301 -6 11 -12 11 -18c0 -11.333 -6 -17 -18 -17
c-4.66699 0 -10 1.33301 -16 4zM115.002 316c0 -12 8.66504 -18.001 25.998 -18.001h126c16 0 26 1.33301 30 4s6 9.33398 6 20.001c0 32 -8.66699 58.667 -26 80s-38.666 32 -63.999 32c-39.333 0 -67.666 -22 -84.999 -66c-6.66699 -16.667 -10.667 -31 -12 -43
c-0.666992 -2.66699 -1 -5.66699 -1 -9z" />
    <glyph glyph-name="edieresis" unicode="&#xeb;" horiz-adv-x="414" 
d="M377 286c0 -24.667 -1.66602 -39.834 -4.99902 -45.501s-12.333 -8.5 -27 -8.5h-199c-16 0 -26 -1.5 -30 -4.5s-6 -10.833 -6 -23.5c0 -44 9.33301 -79.667 28 -107s43.334 -41 74.001 -41c19.333 0 36.666 6.33301 51.999 19s25.666 29 30.999 49l9 34
c4.66699 18.667 16.334 28 35.001 28c21.333 0 32 -12 32 -36c0 -43.333 -16.167 -81.333 -48.5 -114s-69.833 -49 -112.5 -49c-52.667 0 -94.667 22.833 -126 68.5s-47 107.167 -47 184.5s16.667 140.333 50 189s76.666 73 129.999 73c47.333 0 85.833 -20.167 115.5 -60.5
s44.5 -92.166 44.5 -155.499zM141.001 562c-32 0 -48 20 -48 60c0 39.333 16 59 48 59c32.667 0 49 -19.667 49 -59c0 -40 -16.333 -60 -49 -60zM297.001 562c-32.667 0 -49 20 -49 60c0 39.333 16.333 59 49 59c32 0 48 -19.667 48 -59c0 -40 -16 -60 -48 -60zM115.001 316
c0 -12 8.66504 -18.001 25.998 -18.001h126c16 0 26 1.33301 30 4s6 9.33398 6 20.001c0 32 -8.66699 58.667 -26 80s-38.666 32 -63.999 32c-39.333 0 -67.666 -22 -84.999 -66c-6.66699 -16.667 -10.667 -31 -12 -43c-0.666992 -2.66699 -1 -5.66699 -1 -9z" />
    <glyph glyph-name="igrave" unicode="&#xec;" horiz-adv-x="253" 
d="M169 316l0.000976562 -160.001c0 -42.667 1.33301 -69 4 -79s9 -15 19 -15h9c3.33301 0.666992 7.33301 1 12 1c7.33301 0 13.666 -3.33301 18.999 -10s8 -14.667 8 -24c0 -22.667 -10.667 -34 -32 -34c-8 0 -20.667 1.33301 -38 4s-30.666 4 -39.999 4
c-8.66699 0 -20.834 -1.33301 -36.501 -4s-26.5 -4 -32.5 -4c-20.667 0 -31 11.333 -31 34s9 34 27 34c4.66699 0 8.33398 -0.333008 11.001 -1h9c10 0 16 4.5 18 13.5s3.66699 35.833 5 80.5l1 43v72c0 4 -0.333008 13.833 -1 29.5s-1 29.834 -1 42.501l-1 52
c-0.666992 22.667 -8.66699 34 -24 34h-6h-5c-2.66699 -0.666992 -4.33398 -1 -5.00098 -1c-20 0 -30 10.667 -30 32c0 9.33301 3.33301 17.666 10 24.999s14.334 11 23.001 11c2 0 9.66699 -1.66699 23 -5c8 -2 14.667 -3 20 -3c3.33301 0 16 2 38 6
c5.33301 0.666992 9.66602 1 12.999 1c11.333 0 17 -8 17 -24v-12c0 -1.33301 -0.333008 -14.666 -1 -39.999zM173.001 564.999c-3.33301 0 -9.33301 1.99805 -18 5.99805l-88 40c-24.667 11.333 -37 27.333 -37 48c0 12.667 3.5 23.334 10.5 32.001s15.833 13 26.5 13
c12 0 26.667 -8.66699 44 -26l66 -67c9.33301 -9.33301 14 -18.666 14 -27.999c0 -12 -6 -18 -18 -18z" />
    <glyph glyph-name="iacute" unicode="&#xed;" horiz-adv-x="248" 
d="M166 316v-64l1 -53v-43c0 -43.333 1.16699 -69.833 3.5 -79.5s8.83301 -14.5 19.5 -14.5h9c2.66699 0.666992 6.33398 1 11.001 1c18 0 27 -11.333 27 -34s-10.667 -34 -32 -34c-8.66699 0 -21.667 1.33301 -39 4s-30.333 4 -39 4s-20.5 -1.33301 -35.5 -4
s-25.833 -4 -32.5 -4c-21.333 0 -32 11.333 -32 34s9.33301 34 28 34c4 0 7.66699 -0.333008 11 -1h9c10.667 0 17.167 4.83301 19.5 14.5s3.5 36.167 3.5 79.5v115c0 4 -0.333008 13.833 -1 29.5s-1 29.834 -1 42.501c-0.666992 36.667 -1 54 -1 52c0 22.667 -8 34 -24 34
h-6h-5c-2 -0.666992 -3.66699 -1 -5 -1c-19.333 0 -29 10.667 -29 32c0 9.33301 3.16699 17.666 9.5 24.999s13.833 11 22.5 11c2 0 9.66699 -1.66699 23 -5c8 -2 15 -3 21 -3s14.667 1.16699 26 3.5s19.666 3.5 24.999 3.5c10.667 0 16 -8 16 -24v-12v-14
c-0.666992 -9.33301 -1 -18 -1 -26zM38 583c0 9.33301 4.66797 18.668 14.001 28.001l66 67c17.333 17.333 31.666 26 42.999 26c10.667 0 19.5 -4.33301 26.5 -13s10.5 -19.334 10.5 -32.001c0 -20.667 -12.333 -36.667 -37 -48l-87 -40c-8.66699 -4 -15 -6 -19 -6
c-11.333 0 -17 6 -17 18z" />
    <glyph glyph-name="icircumflex" unicode="&#xee;" horiz-adv-x="253" 
d="M169 316l0.000976562 -160.001c0 -42.667 1.33301 -69 4 -79s9 -15 19 -15h9c3.33301 0.666992 7.33301 1 12 1c7.33301 0 13.666 -3.33301 18.999 -10s8 -14.667 8 -24c0 -22.667 -10.667 -34 -32 -34c-8 0 -20.667 1.33301 -38 4s-30.666 4 -39.999 4
c-8.66699 0 -20.834 -1.33301 -36.501 -4s-26.5 -4 -32.5 -4c-20.667 0 -31 11.333 -31 34s9 34 27 34c4.66699 0 8.33398 -0.333008 11.001 -1h9c10 0 16 4.5 18 13.5s3.66699 35.833 5 80.5l1 43v72c0 4 -0.333008 13.833 -1 29.5s-1 29.834 -1 42.501l-1 52
c-0.666992 22.667 -8.66699 34 -24 34h-6h-5c-2.66699 -0.666992 -4.33398 -1 -5.00098 -1c-20 0 -30 10.667 -30 32c0 9.33301 3.33301 17.666 10 24.999s14.334 11 23.001 11c2 0 9.66699 -1.66699 23 -5c8 -2 14.667 -3 20 -3c3.33301 0 16 2 38 6
c5.33301 0.666992 9.66602 1 12.999 1c11.333 0 17 -8 17 -24v-12c0 -1.33301 -0.333008 -14.666 -1 -39.999zM198.001 569.999l-77 43l-75 -43c-4.66699 -2.66699 -9.66699 -4 -15 -4c-10.667 0 -16 4.66699 -16 14c0 6.66699 3.33301 13.667 10 21l82 87
c5.33301 6 10.333 9 15 9c4 0 8.66699 -3 14 -9l81 -87c6 -6.66699 9 -12.667 9 -18c0 -11.333 -5 -17 -15 -17c-4 0 -8.33301 1.33301 -13 4z" />
    <glyph glyph-name="idieresis" unicode="&#xef;" horiz-adv-x="248" 
d="M166 316v-64l1 -53v-43c0 -43.333 1.16699 -69.833 3.5 -79.5s8.83301 -14.5 19.5 -14.5h9c2.66699 0.666992 6.33398 1 11.001 1c18 0 27 -11.333 27 -34s-10.667 -34 -32 -34c-8.66699 0 -21.667 1.33301 -39 4s-30.333 4 -39 4s-20.5 -1.33301 -35.5 -4
s-25.833 -4 -32.5 -4c-21.333 0 -32 11.333 -32 34s9.33301 34 28 34c4 0 7.66699 -0.333008 11 -1h9c10.667 0 17.167 4.83301 19.5 14.5s3.5 36.167 3.5 79.5v115c0 4 -0.333008 13.833 -1 29.5s-1 29.834 -1 42.501c-0.666992 36.667 -1 54 -1 52c0 22.667 -8 34 -24 34
h-6h-5c-2 -0.666992 -3.66699 -1 -5 -1c-19.333 0 -29 10.667 -29 32c0 9.33301 3.16699 17.666 9.5 24.999s13.833 11 22.5 11c2 0 9.66699 -1.66699 23 -5c8 -2 15 -3 21 -3s14.667 1.16699 26 3.5s19.666 3.5 24.999 3.5c10.667 0 16 -8 16 -24v-12v-14
c-0.666992 -9.33301 -1 -18 -1 -26zM45 535c-13.333 0 -24.5 5.66895 -33.5 17.002s-13.5 25.666 -13.5 42.999c0 15.333 5 29.166 15 41.499s21.333 18.5 34 18.5c13.333 0 24.833 -5.83301 34.5 -17.5s14.5 -25.5 14.5 -41.5c0 -16.667 -5 -31 -15 -43s-22 -18 -36 -18z
M176 535.002c-13.333 0 -24.499 5.83301 -33.499 17.5s-13.5 25.834 -13.5 42.501c0 15.333 5.16699 29.166 15.5 41.499s21.833 18.5 34.5 18.5c13.333 0 24.666 -5.83301 33.999 -17.5s14 -25.5 14 -41.5c0 -16.667 -5 -31 -15 -43s-22 -18 -36 -18z" />
    <glyph glyph-name="eth" unicode="&#xf0;" horiz-adv-x="430" 
d="M304 587c-6 -6 -11.3311 -11.665 -15.998 -16.998c15.333 -18.667 29.666 -40 42.999 -64c24.667 -42.667 41.334 -84.334 50.001 -125.001c7.33301 -36 11 -76.667 11 -122v0c0.666992 -16.667 1 -34 1 -52c0 -66.667 -16 -119.667 -48 -159s-75.333 -59 -130 -59
s-98 19.667 -130 59s-48 92.333 -48 159c0 67.333 16 120.833 48 160.5s75.333 59.5 130 59.5c33.333 0 62.333 -7.33301 87 -22c-8 27.333 -18.333 53.666 -31 78.999c-7.33301 14.667 -15.333 28.667 -24 42c-12 -12.667 -18.333 -19.667 -19 -21
c-1.33301 -2 -3.33301 -4.33301 -6 -7c-18.667 -18.667 -36.334 -19.667 -53.001 -3c-18.667 18.667 -18.334 37.334 0.999023 56.001c2 2 5 4.66699 9 8s7 6 9 8c6 5.33301 11.333 10.333 16 15c-23.333 25.333 -48.333 46 -75 62c-12.667 7.33301 -19 14.666 -19 21.999
c0 11.333 6.33301 17 19 17c11.333 0 29 -7.33301 53 -22c22 -12.667 42.333 -27.334 61 -44.001c8 8 12.667 13 14 15c3.33301 2.66699 7.5 7.5 12.5 14.5s8.83301 11.833 11.5 14.5c16.667 16.667 33.667 16.334 51 -0.999023c16.667 -16.667 15 -35 -5 -55
c-4.66699 -4 -8 -6.66699 -10 -8zM215.002 370.002c-32.667 0 -58.667 -14.833 -78 -44.5s-29 -69.167 -29 -118.5c0 -48.667 9.66699 -87.667 29 -117s45.333 -44 78 -44s58.834 14.667 78.501 44s29.5 68.333 29.5 117c0 49.333 -9.83301 88.833 -29.5 118.5
s-45.834 44.5 -78.501 44.5z" />
    <glyph glyph-name="ntilde" unicode="&#xf1;" horiz-adv-x="503" 
d="M165 450c28.667 34.667 67.668 52 117.001 52c55.333 0 94.666 -19 117.999 -57c16.667 -27.333 25 -76 25 -146v-143c0 -43.333 1.16699 -69.833 3.5 -79.5s8.83301 -14.5 19.5 -14.5h9c3.33301 0.666992 7 1 11 1c18 0 27 -11.333 27 -34s-10.333 -34 -31 -34
c-7.33301 0 -18.5 1.33301 -33.5 4s-26.5 4 -34.5 4c-8.66699 0 -21.5 -1.33301 -38.5 -4s-29.833 -4 -38.5 -4c-21.333 0 -32 11.333 -32 34c0 9.33301 2.66699 17.333 8 24s11.666 10 18.999 10c4.66699 0 8.66699 -0.333008 12 -1h9c10 0 15.833 4.5 17.5 13.5
s3.16699 35.833 4.5 80.5l1 43v98c0 50.667 -7 87 -21 109s-36.667 33 -68 33c-32 0 -57.333 -14.5 -76 -43.5s-28 -68.167 -28 -117.5v-122c0 -43.333 1.16699 -69.833 3.5 -79.5s8.83301 -14.5 19.5 -14.5h9c2.66699 0.666992 6.33398 1 11.001 1c18 0 27 -11.333 27 -34
s-10.333 -34 -31 -34c-5.33301 0 -18 2 -38 6c-13.333 1.33301 -25.666 2 -36.999 2c-14 0 -26.667 -1 -38 -3c-18.667 -3.33301 -29.667 -5 -33 -5c-20.667 0 -31 11.333 -31 34s9.33301 34 28 34c4 0 7.66699 -0.333008 11 -1h9c10.667 0 17.167 4.83301 19.5 14.5
s3.5 36.167 3.5 79.5v176c0 42 -1.5 68.667 -4.5 80s-9.83301 17 -20.5 17h-2c-0.666992 -0.666992 -1.33398 -1 -2.00098 -1h-9c-4 -0.666992 -6.33301 -1 -7 -1c-18 0 -27 10.667 -27 32c0 10 3 18.5 9 25.5s13.333 10.5 22 10.5c5.33301 0 13.5 -1 24.5 -3
s19.5 -3 25.5 -3c10 0 17.333 0.666992 22 2c9.33301 2.66699 16 4 20 4c10.667 0 16 -7.66699 16 -23v-22zM334.001 635c9.33301 0 16.6689 3 22.002 9l15 17c5.33301 4 9.66602 6 12.999 6c8 0 12 -4.33301 12 -13c0 -12.667 -7.33301 -29.667 -22 -51
s-33.667 -32 -57 -32c-14.667 0 -34.667 5.66699 -60 17c-8.66699 4 -19.667 8.66699 -33 14c-8.66699 3.33301 -16.667 5 -24 5c-12.667 0 -26 -7 -40 -21c-5.33301 -5.33301 -10 -8 -14 -8c-7.33301 0 -11 4.33301 -11 13c0 10 5 24 15 42c14 24.667 33 37 57 37
c13.333 0 35.333 -6 66 -18c8.66699 -2.66699 19.667 -6.66699 33 -12c11.333 -3.33301 20.666 -5 27.999 -5z" />
    <glyph glyph-name="ograve" unicode="&#xf2;" horiz-adv-x="430" 
d="M215 -13c-54.667 0 -98 23.167 -130 69.5s-48 108.833 -48 187.5s16 141.334 48 188.001s75.333 70 130 70s98 -23.333 130 -70s48 -109.334 48 -188.001s-16 -141.167 -48 -187.5s-75.333 -69.5 -130 -69.5zM268 565c-4 0 -10.332 1.99902 -18.999 5.99902l-87 40
c-25.333 11.333 -38 27.333 -38 48c0 30 12.667 45 38 45c11.333 0 25.666 -8.66699 42.999 -26l66 -67c9.33301 -9.33301 14 -18.666 14 -27.999c0 -12 -5.66699 -18 -17 -18zM215.001 434.999c-32.667 0 -58.667 -17.5 -78 -52.5s-29 -81.167 -29 -138.5
s9.66699 -103.333 29 -138s45.333 -52 78 -52s58.834 17.333 78.501 52s29.5 80.667 29.5 138s-9.83301 103.5 -29.5 138.5s-45.834 52.5 -78.501 52.5z" />
    <glyph glyph-name="oacute" unicode="&#xf3;" horiz-adv-x="430" 
d="M215 -13c-54.667 0 -98 23.167 -130 69.5s-48 108.833 -48 187.5s16 141.334 48 188.001s75.333 70 130 70s98 -23.333 130 -70s48 -109.334 48 -188.001s-16 -141.167 -48 -187.5s-75.333 -69.5 -130 -69.5zM135 583c0 9.33301 4.66797 18.668 14.001 28.001l66 67
c17.333 17.333 31.666 26 42.999 26c10.667 0 19.5 -4.33301 26.5 -13s10.5 -19.334 10.5 -32.001c0 -20.667 -12.333 -36.667 -37 -48l-87 -40c-8.66699 -4 -15 -6 -19 -6c-11.333 0 -17 6 -17 18zM215.001 435.002c-32.667 0 -58.667 -17.5 -78 -52.5
s-29 -81.167 -29 -138.5s9.66699 -103.333 29 -138s45.333 -52 78 -52s58.834 17.333 78.501 52s29.5 80.667 29.5 138s-9.83301 103.5 -29.5 138.5s-45.834 52.5 -78.501 52.5z" />
    <glyph glyph-name="ocircumflex" unicode="&#xf4;" horiz-adv-x="430" 
d="M215 -13c-54.667 0 -98 23.167 -130 69.5s-48 108.833 -48 187.5s16 141.334 48 188.001s75.333 70 130 70s98 -23.333 130 -70s48 -109.334 48 -188.001s-16 -141.167 -48 -187.5s-75.333 -69.5 -130 -69.5zM312 570l-96.999 43l-93 -43c-6 -2.66699 -12 -4 -18 -4
c-14 0 -21 4.66699 -21 14c0 6.66699 4.33301 13.667 13 21l102 87c7.33301 6 13.666 9 18.999 9c4 0 9.66699 -3 17 -9l101 -87c7.33301 -6 11 -12 11 -18c0 -11.333 -6 -17 -18 -17c-4.66699 0 -10 1.33301 -16 4zM215.001 435c-32.667 0 -58.667 -17.5 -78 -52.5
s-29 -81.167 -29 -138.5s9.66699 -103.333 29 -138s45.333 -52 78 -52s58.834 17.333 78.501 52s29.5 80.667 29.5 138s-9.83301 103.5 -29.5 138.5s-45.834 52.5 -78.501 52.5z" />
    <glyph glyph-name="otilde" unicode="&#xf5;" horiz-adv-x="430" 
d="M215 -13c-54.667 0 -98 23.167 -130 69.5s-48 108.833 -48 187.5s16 141.334 48 188.001s75.333 70 130 70s98 -23.333 130 -70s48 -109.334 48 -188.001s-16 -141.167 -48 -187.5s-75.333 -69.5 -130 -69.5zM298 648c11.333 0 19.998 3.33301 25.998 10l18 21
c4 4.66699 9 7 15 7c10 0 15 -5 15 -15c0 -16 -8.83301 -36.667 -26.5 -62s-40.167 -38 -67.5 -38c-18.667 0 -43 6.66699 -73 20l-39 17c-9.33301 4 -18.666 6 -27.999 6c-16 0 -32.667 -8.33301 -50 -25c-6.66699 -6.66699 -12 -10 -16 -10c-9.33301 0 -14 5.33301 -14 16
c0 10 6.33301 26.667 19 50c16.667 30 39.334 45 68.001 45c14.667 0 41 -7 79 -21c10 -4 23.333 -9 40 -15c12 -4 23.333 -6 34 -6zM214.998 435c-32.667 0 -58.667 -17.5 -78 -52.5s-29 -81.167 -29 -138.5s9.66699 -103.333 29 -138s45.333 -52 78 -52
s58.834 17.333 78.501 52s29.5 80.667 29.5 138s-9.83301 103.5 -29.5 138.5s-45.834 52.5 -78.501 52.5z" />
    <glyph glyph-name="odieresis" unicode="&#xf6;" horiz-adv-x="430" 
d="M215 -13c-54.667 0 -98 23.167 -130 69.5s-48 108.833 -48 187.5s16 141.334 48 188.001s75.333 70 130 70s98 -23.333 130 -70s48 -109.334 48 -188.001s-16 -141.167 -48 -187.5s-75.333 -69.5 -130 -69.5zM137 562c-32 0 -48 20 -48 60c0 39.333 16 59 48 59
c32.667 0 49 -19.667 49 -59c0 -40 -16.333 -60 -49 -60zM293 562c-32.667 0 -49 20 -49 60c0 39.333 16.333 59 49 59c32 0 48 -19.667 48 -59c0 -40 -16 -60 -48 -60zM215 435c-32.667 0 -58.667 -17.5 -78 -52.5s-29 -81.167 -29 -138.5s9.66699 -103.333 29 -138
s45.333 -52 78 -52s58.834 17.333 78.501 52s29.5 80.667 29.5 138s-9.83301 103.5 -29.5 138.5s-45.834 52.5 -78.501 52.5z" />
    <glyph glyph-name="divide" unicode="&#xf7;" 
d="M203 516c0 12.667 4.66699 23.5 14 32.5s20.333 13.5 33 13.5s23.667 -4.5 33 -13.5s14 -19.833 14 -32.5s-4.66699 -23.667 -14 -33s-20.333 -14 -33 -14s-23.667 4.66699 -33 14s-14 20.333 -14 33zM203 149c0 13.333 4.66699 24.5 14 33.5s20.333 13.5 33 13.5
c13.333 0 24.5 -4.66699 33.5 -14s13.5 -20.333 13.5 -33s-4.66699 -23.667 -14 -33s-20.333 -14 -33 -14s-23.667 4.66699 -33 14s-14 20.333 -14 33zM33 301v62h434v-62h-434z" />
    </font>
</defs>
</svg>
