<?xml version="1.0" standalone="no"?>
<!DOCTYPE svg PUBLIC "-//W3C//DTD SVG 1.1//EN" "http://www.w3.org/Graphics/SVG/1.1/DTD/svg11.dtd" >
<svg>
<metadata>
Created by FontForge 20090914 at Mon Oct 31 23:53:17 2011
 By www-data
Digitized data (c) Copyright 1997 E+F Designstudios. ITC American Typewriter is a registered trademark of International Typeface Corporation.
</metadata>
<defs>
<font id="AmericanTypewriter-CondensedBold" horiz-adv-x="500" >
  <font-face 
    font-family="American Typewriter"
    font-weight="700"
    font-stretch="condensed"
    units-per-em="1000"
    panose-1="2 9 8 6 2 0 4 2 3 4"
    ascent="800"
    descent="-200"
    x-height="496.998"
    cap-height="670"
    bbox="-440 -433 1572 1132"
    underline-thickness="20"
    underline-position="-156"
    unicode-range="U+0008-U+FB02"
  />
<missing-glyph 
d="M63 0v750h375v-750h-375zM125 63h250v625h-250v-625z" />
    <glyph glyph-name="fi" unicode="fi" horiz-adv-x="639" 
d="M247 566c0 6 0.998047 14.002 2.99805 24.002c-25.333 -3.33301 -38 -26.333 -38 -69c0 -14.667 1.5 -23.334 4.5 -26.001s7.16699 -4 12.5 -4c2 0 3.66699 0.333008 5 1l26 2h3c29.333 0 44 -17.667 44 -53c0 -36 -16.667 -54 -50 -54c-3.33301 0 -9 0.666992 -17 2
c-1.33301 0 -3.33301 0.333008 -6 1h-6c-6.66699 0 -10.834 -1.83301 -12.501 -5.5s-2.5 -13.167 -2.5 -28.5v-244c0.666992 -4.66699 3.66699 -7.66699 9 -9h2c2.66699 0 7 0.666992 13 2s11 2 15 2c34 0 51 -17.667 51 -53c0 -16.667 -4.33301 -30.334 -13 -41.001
s-19.667 -16 -33 -16c-7.33301 0 -22.333 1 -45 3c-15.333 1.33301 -32.666 2 -51.999 2c-18 0 -34 -0.666992 -48 -2c-21.333 -2 -36 -3 -44 -3c-32.667 0 -49 21 -49 63c0 32 10.667 48 32 48c4 0 7.33301 -0.333008 10 -1h5c2 -0.666992 3.33301 -1 4 -1
c10 0 15 14 15 42v216c0 16 -3.66699 23.667 -11 23l-21 -1c-10.667 0 -19.5 5.16699 -26.5 15.5s-10.5 23.833 -10.5 40.5c0 15.333 3.83301 28.5 11.5 39.5s16.834 16.167 27.501 15.5l17 -1c9.33301 -0.666992 14 5.33301 14 18v3c-0.666992 2.66699 -1 7 -1 13
c0 45.333 8 78.333 24 99c26.667 34.667 66.334 52 119.001 52c38.667 0 69.5 -9.16699 92.5 -27.5s34.5 -42.833 34.5 -73.5c0 -19.333 -5.33301 -35.333 -16 -48s-24 -19 -40 -19c-14.667 0 -27 5.16699 -37 15.5s-15 22.833 -15 37.5zM542.998 496.002
c18.667 0 28.002 -12 28.002 -36v-312c0 -28 5 -42 15 -42c2 0 5.16699 0.333008 9.5 1s7.5 1 9.5 1c21.333 0 32 -16 32 -48c0 -18.667 -4.5 -34 -13.5 -46s-20.833 -18 -35.5 -18c-7.33301 0 -19 1 -35 3s-28 3 -36 3c-14 0 -34.333 -1.33301 -61 -4
c-6.66699 -0.666992 -16 -1 -28 -1c-34 0 -51 21 -51 63c0 32 10.333 48 31 48c4.66699 0 8 -0.333008 10 -1h5c2 -0.666992 3.33301 -1 4 -1c10.667 0 16 14 16 42v196c0 28 -4.33301 42 -13 42c-2 0 -5.33301 -0.5 -10 -1.5s-8.33398 -1.5 -11.001 -1.5
c-23.333 0 -35 18 -35 54c0 40 15.333 60 46 60c6.66699 0 19 -1 37 -3c15.333 -2 27.666 -2.66699 36.999 -2zM492 526.002c-22.667 0 -41 8.16699 -55 24.5s-21 37.166 -21 62.499c0 26 7 47.333 21 64s32.333 25 55 25c22 0 40.333 -8.5 55 -25.5s22 -38.167 22 -63.5
s-7.16699 -46.166 -21.5 -62.499s-32.833 -24.5 -55.5 -24.5z" />
    <glyph glyph-name="fl" unicode="fl" horiz-adv-x="636" 
d="M247 566c0 6 0.998047 14.002 2.99805 24.002c-25.333 -3.33301 -38 -26.333 -38 -69c0 -14.667 1.5 -23.334 4.5 -26.001s7.16699 -4 12.5 -4c2 0 3.66699 0.333008 5 1l26 2h3c29.333 0 44 -17.667 44 -53c0 -36 -16.667 -54 -50 -54c-3.33301 0 -9 0.666992 -17 2
c-1.33301 0 -3.33301 0.333008 -6 1h-6c-6.66699 0 -10.834 -1.83301 -12.501 -5.5s-2.5 -13.167 -2.5 -28.5v-244c0.666992 -4.66699 3.66699 -7.66699 9 -9h2c2.66699 0 7 0.666992 13 2s11 2 15 2c34 0 51 -17.667 51 -53c0 -16.667 -4.33301 -30.334 -13 -41.001
s-19.667 -16 -33 -16c-7.33301 0 -22.333 1 -45 3c-15.333 1.33301 -32.666 2 -51.999 2c-18 0 -34 -0.666992 -48 -2c-21.333 -2 -36 -3 -44 -3c-32.667 0 -49 21 -49 63c0 32 10.667 48 32 48c4 0 7.33301 -0.333008 10 -1h5c2 -0.666992 3.33301 -1 4 -1
c10 0 15 14 15 42v216c0 16 -3.66699 23.667 -11 23l-21 -1c-10.667 0 -19.5 5.16699 -26.5 15.5s-10.5 23.833 -10.5 40.5c0 15.333 3.83301 28.5 11.5 39.5s16.834 16.167 27.501 15.5l17 -1c9.33301 -0.666992 14 5.33301 14 18v3c-0.666992 2.66699 -1 7 -1 13
c0 45.333 8 78.333 24 99c26.667 34.667 66.334 52 119.001 52c38.667 0 69.5 -9.16699 92.5 -27.5s34.5 -42.833 34.5 -73.5c0 -19.333 -5.33301 -35.333 -16 -48s-24 -19 -40 -19c-14.667 0 -27 5.16699 -37 15.5s-15 22.833 -15 37.5zM538.998 670.002
c18.667 0 28 -11.667 28 -35v-487c0 -28 5.33301 -42 16 -42c0.666992 0 2 0.333008 4 1h5c2 0.666992 5 1 9 1c21.333 0 32 -15.667 32 -47c0 -42.667 -16.667 -64 -50 -64c-7.33301 0 -21.333 1 -42 3c-14 1.33301 -29.333 2 -46 2c-8 0 -20.333 -0.833008 -37 -2.5
s-29 -2.5 -37 -2.5c-32 0 -48 21 -48 63c0 32 10.333 48 31 48c4.66699 0 8 -0.333008 10 -1h5c2 -0.666992 3.33301 -1 4 -1c10.667 0 16 14 16 42v369c0 28 -4.33301 42 -13 42c-2.66699 0 -6.33398 -0.5 -11.001 -1.5s-8 -1.5 -10 -1.5c-23.333 0 -35 18 -35 54
c0 40 15.667 60 47 60c6.66699 0 20.334 -1.33301 41.001 -4c16.667 -2 30 -2.33301 40 -1l38 5h3z" />
    <glyph glyph-name=".notdef" 
d="M63 0v750h375v-750h-375zM125 63h250v625h-250v-625z" />
    <glyph glyph-name="controlNULL" horiz-adv-x="0" 
 />
    <glyph glyph-name="controlNULL" horiz-adv-x="0" 
 />
    <glyph glyph-name="controlBS" horiz-adv-x="0" 
 />
    <glyph glyph-name="controlHT" unicode="&#x9;" horiz-adv-x="250" 
 />
    <glyph glyph-name="controlCR" unicode="&#xd;" horiz-adv-x="250" 
 />
    <glyph glyph-name="controlGS" horiz-adv-x="0" 
 />
    <glyph glyph-name="space" unicode=" " horiz-adv-x="250" 
 />
    <glyph glyph-name="exclam" unicode="!" horiz-adv-x="290" 
d="M143 -15c-24 0 -43.833 9.83105 -59.5 29.498s-23.5 44.167 -23.5 73.5c0 28.667 8.16699 52.834 24.5 72.501s36.5 29.5 60.5 29.5s43.833 -9.66699 59.5 -29s23.5 -44 23.5 -74c0 -29.333 -8 -53.666 -24 -72.999s-36.333 -29 -61 -29zM149 223.998
c-23.333 0 -39.334 2.66797 -48.001 8.00098c-11.333 7.33301 -17.666 21.333 -18.999 42l-19 335c-0.666992 1.33301 -1 3.66602 -1 6.99902c0 43.333 27.333 65 82 65c57.333 0 86 -20.333 86 -61v-4l-23 -344c-2 -32 -21.333 -48 -58 -48z" />
    <glyph glyph-name="quotedbl" unicode="&#x22;" horiz-adv-x="408" 
d="M182 667l-24 -268h-93l-24 268h141zM367 667l-24 -268h-93l-24 268h141z" />
    <glyph glyph-name="numbersign" unicode="#" horiz-adv-x="600" 
d="M473 297h102l-18 -114h-102l-29 -183h-130l29 183h-87l-29 -183h-129l30 183h-102l17 114h102l14 86h-101l17 114h101l28 170h128l-27 -170h87l27 170h130l-27 -170h100l-17 -114h-101zM343 297l13 86h-87l-13 -86h87z" />
    <glyph glyph-name="dollar" unicode="$" 
d="M301 721l-0.000976562 -69.9961c85.333 -20.667 128 -65.334 128 -134.001c0 -24.667 -7 -45.667 -21 -63s-31 -26 -51 -26c-16.667 0 -30.5 6.33301 -41.5 19s-16.5 28.667 -16.5 48c0 9.33301 2 19.666 6 30.999c-19.333 8 -35.333 12 -48 12
c-15.333 0 -28.666 -5.33301 -39.999 -16s-17 -23.334 -17 -38.001c0 -16.667 6 -30.5 18 -41.5s36.667 -24.5 74 -40.5c40.667 -17.333 70 -32.666 88 -45.999s32.667 -30.333 44 -51c15.333 -28 23 -58.333 23 -91c0 -61.333 -19.667 -110.333 -59 -147
c-20 -18.667 -50 -34.334 -90 -47.001v-72c0 -20 -13.333 -30 -40 -30c-24.667 0 -37 9.33301 -37 28v68c-53.333 8.66699 -94.666 27.5 -123.999 56.5s-44 65.167 -44 108.5c0 27.333 7.5 50.666 22.5 69.999s33.5 29 55.5 29c17.333 0 32.666 -7.16699 45.999 -21.5
s20 -30.833 20 -49.5c0 -13.333 -5 -31 -15 -53c23.333 -16.667 45 -25 65 -25c18 0 33.5 6.66699 46.5 20s19.5 29.333 19.5 48s-6 33.667 -18 45s-33.667 23 -65 35c-109.333 41.333 -164 104 -164 188c0 48.667 14.5 89.667 43.5 123s67.833 53.333 116.5 60v71
c0 22 12.333 33 37 33c25.333 0 38 -10.333 38 -31z" />
    <glyph glyph-name="percent" unicode="%" horiz-adv-x="675" 
d="M147 324c-78 0 -117 59.001 -117 177.001c0 55.333 10.333 98.166 31 128.499s49.667 45.5 87 45.5c36 0 64.167 -15 84.5 -45s30.5 -71.333 30.5 -124c0 -121.333 -38.667 -182 -116 -182zM512 642.001c0 -5.33301 -3 -14.667 -9 -28l-262 -590
c-12.667 -28.667 -30.667 -43 -54 -43c-21.333 0 -32 9.33301 -32 28c0 6.66699 1.66699 13.667 5 21l272 607c10 22.667 25.333 34 46 34c22.667 0 34 -9.66699 34 -29zM529 -9c-78 0 -117 59 -117 177c0 116 39.333 174 118 174c36 0 64.167 -15 84.5 -45
s30.5 -71.333 30.5 -124c0 -121.333 -38.667 -182 -116 -182zM147 602c-26.667 0 -40.667 -32.333 -42 -97l-1 -6c0 -66 14.333 -99 43 -99c27.333 0 41 33 41 99c0 68.667 -13.667 103 -41 103zM529 268c-28.667 0 -43 -32 -43 -96v-7c0 -66 14.333 -99 43 -99
c27.333 0 41 33 41 99c0 68.667 -13.667 103 -41 103z" />
    <glyph glyph-name="ampersand" unicode="&#x26;" horiz-adv-x="650" 
d="M508 379c15.333 0 27.667 3.99902 37 11.999c-40.667 3.33301 -61 24 -61 62c0 22.667 6.83301 42 20.5 58s30.167 24 49.5 24c26.667 0 48.334 -11.167 65.001 -33.5s25 -51.166 25 -86.499c0 -45.333 -11 -82.666 -33 -111.999s-50.333 -44 -85 -44
c-20.667 0 -44.334 8.33301 -71.001 25c14.667 -44.667 22 -81 22 -109c0 -56.667 -20.833 -102.834 -62.5 -138.501s-96.167 -53.5 -163.5 -53.5c-70 0 -124.833 20.667 -164.5 62s-59.5 98.333 -59.5 171c0 70 18.333 120 55 150
c12.667 10.667 32.334 21.334 59.001 32.001c-32.667 26.667 -49 63.334 -49 110.001c0 51.333 16.667 93.666 50 126.999s76.333 50 129 50c44 0 79.333 -12 106 -36s40 -55.667 40 -95c0 -30.667 -6.16699 -55.167 -18.5 -73.5s-29.166 -27.5 -50.499 -27.5
c-14.667 0 -27.334 4.5 -38.001 13.5s-16.667 20.833 -18 35.5l-3 30c-1.33301 16.667 -10.666 25 -27.999 25c-9.33301 0 -17.5 -5 -24.5 -15s-10.5 -21.667 -10.5 -35c0 -21.333 6 -38.333 18 -51c7.33301 -7.33301 22.666 -17.333 45.999 -30c14.667 -8 22 -20 22 -36
c0 -56.667 -24 -86.334 -72 -89.001s-72 -30.334 -72 -83.001c0 -27.333 8 -48.833 24 -64.5s38 -23.5 66 -23.5c25.333 0 45.5 7.5 60.5 22.5s22.5 34.833 22.5 59.5c0 12 -1.66699 22.333 -5 31l-13 34c-3.33301 8.66699 -5 17.334 -5 26.001c0 26.667 8.5 49.5 25.5 68.5
s37.167 28.5 60.5 28.5c13.333 0 26.666 -2 39.999 -6l39 -12c6.66699 -2 15 -3 25 -3z" />
    <glyph glyph-name="quotesingle" unicode="'" horiz-adv-x="223" 
d="M182 667l-24 -268h-93l-24 268h141z" />
    <glyph glyph-name="parenleft" unicode="(" horiz-adv-x="405" 
d="M174 255c0 -82.667 13.332 -153.169 39.999 -211.502s61.334 -93.166 104.001 -104.499l42 -11c20 -5.33301 30 -22.333 30 -51c0 -44 -22.667 -66 -68 -66c-78 0 -146.667 44.333 -206 133s-89 190.667 -89 306c0 112 31 212.833 93 302.5s132 134.5 210 134.5
c41.333 0 62 -20.333 62 -61c0 -22 -4 -37 -12 -45s-24 -15.333 -48 -22c-35.333 -9.33301 -62 -24.333 -80 -45c-52 -59.333 -78 -145.666 -78 -258.999z" />
    <glyph glyph-name="parenright" unicode=")" horiz-adv-x="405" 
d="M15 -127c0 31.333 9.99902 49.666 29.999 54.999l42 11c42 10.667 76.5 45.334 103.5 104.001s40.5 128 40.5 208c0 69.333 -9.5 129.5 -28.5 180.5s-45.833 87.5 -80.5 109.5c-8 5.33301 -17.333 9.66602 -28 12.999c-3.33301 0.666992 -10.333 2.33398 -21 5.00098
c-24 6 -40 12.833 -48 20.5s-12 22.5 -12 44.5c0 42 20.333 63 61 63c78 0 148.167 -44.667 210.5 -134s93.5 -190.333 93.5 -303c0 -114.667 -29.667 -216.5 -89 -305.5s-127.666 -133.5 -204.999 -133.5c-46 0 -69 20.667 -69 62z" />
    <glyph glyph-name="asterisk" unicode="*" 
d="M138 583l77.002 -44.999l9 8l-13 81c-1.33301 8 -2 13.333 -2 16c0 26.667 14.333 40 43 40c12 0 22.333 -3.83301 31 -11.5s13 -16.834 13 -27.501c0 -1.33301 -0.666992 -5 -2 -11l-20 -87l10 -7l74 37c12 6 21.333 9 28 9c10.667 0 20 -4.5 28 -13.5
s12 -19.833 12 -32.5c0 -24.667 -12.333 -38 -37 -40l-89 -8l-3 -11l58 -59c12.667 -12.667 19 -24.334 19 -35.001c0 -11.333 -4.66699 -21.5 -14 -30.5s-20.333 -13.5 -33 -13.5c-16 0 -27.667 8.66699 -35 26l-36 82l-11 -1l-38 -73c-10.667 -20 -23.334 -30 -38.001 -30
c-12.667 0 -23.667 4.33301 -33 13s-14 18.667 -14 30c0 12 5 22.333 15 31l67 59l-4 11l-82 13c-28.667 4.66699 -43 18.667 -43 42c0 12.667 4.16699 23.334 12.5 32.001s18.166 13 29.499 13c6 0 13 -2.33301 21 -7z" />
    <glyph glyph-name="plus" unicode="+" 
d="M33 281v117h154v154h126v-154h154v-117h-154v-154h-126v154h-154z" />
    <glyph glyph-name="comma" unicode="," horiz-adv-x="263" 
d="M85 -68c8 16.667 16.001 35.667 24.001 57c-42 17.333 -63 50.666 -63 99.999c0 27.333 8.66699 51.333 26 72s37.666 31 60.999 31c25.333 0 45.666 -11 60.999 -33s23 -51.667 23 -89c0 -61.333 -19.667 -125.666 -59 -192.999
c-21.333 -36.667 -41.666 -55 -60.999 -55c-10.667 0 -20 3.83301 -28 11.5s-12 16.5 -12 26.5c0 8 2.33301 17 7 27z" />
    <glyph glyph-name="hyphen" unicode="-" horiz-adv-x="245" 
d="M0 261l-0.00390625 8c2 44.667 19.333 67 52 67c0.666992 0 4.5 -0.333008 11.5 -1s13.5 -1 19.5 -1c18 -0.666992 32 -1 42 -1c4.66699 0 10.334 0.333008 17.001 1h14c19.333 2 30.333 3 33 3h3c35.333 0 53 -22 53 -66c0 -48.667 -16.667 -73 -50 -73
c-5.33301 0 -16.333 1 -33 3c-5.33301 0.666992 -16.666 1 -33.999 1c-15.333 0 -30.666 -0.333008 -45.999 -1c-5.33301 0 -11.666 -0.333008 -18.999 -1s-12 -1 -14 -1c-32.667 0 -49 20.667 -49 62z" />
    <glyph glyph-name="period" unicode="." horiz-adv-x="263" 
d="M131 -15c-24 0 -43.832 9.83105 -59.499 29.498s-23.5 44.167 -23.5 73.5c0 28.667 8.16699 52.834 24.5 72.501s36.5 29.5 60.5 29.5s43.667 -9.66699 59 -29s23 -44 23 -74c0 -29.333 -7.83301 -53.666 -23.5 -72.999s-35.834 -29 -60.501 -29z" />
    <glyph glyph-name="slash" unicode="/" horiz-adv-x="444" 
d="M418 649c0 -5.33301 -1.99902 -12.667 -5.99902 -22l-323 -736c-10.667 -24.667 -30.334 -37 -59.001 -37c-29.333 0 -44 10 -44 30c0 5.33301 2.66699 14 8 26l326 738c8.66699 20 27 30 55 30c28.667 0 43 -9.66699 43 -29z" />
    <glyph glyph-name="zero" unicode="0" 
d="M251 -19c-73.333 0 -129.833 30.5 -169.5 91.5s-59.5 148.5 -59.5 262.5c0 111.333 20 197.333 60 258s96.667 91 170 91c70.667 0 126 -29.833 166 -89.5s60 -142.5 60 -248.5c0 -118.667 -19.333 -209.167 -58 -271.5s-95 -93.5 -169 -93.5zM251 545
c-28.667 0 -51 -17.5 -67 -52.5s-24 -84.833 -24 -149.5v-13c0 -64 8.16699 -114.333 24.5 -151s38.5 -55 66.5 -55c58.667 0 88 68.667 88 206c0 143.333 -29.333 215 -88 215z" />
    <glyph glyph-name="one" unicode="1" 
d="M190 140l1 20.001v341c0 20 -2 31.667 -6 35c-1.33301 2 -4 3 -8 3s-9.66699 -1 -17 -3s-13.333 -3 -18 -3c-33.333 0 -50 21.667 -50 65c0 21.333 5.83301 38.666 17.5 51.999s26.834 20 45.501 20c7.33301 0 18.166 -0.833008 32.499 -2.5s25.166 -2.5 32.499 -2.5
c8 0 19.667 0.833008 35 2.5s27 2.5 35 2.5c30.667 0 46 -18.333 46 -55v-449c0 -25.333 5 -38 15 -38c6 0 11.333 0.666992 16 2s9.66699 2 15 2c30.667 0 46 -20.667 46 -62c0 -48.667 -21 -73 -63 -73c-16 0 -30.667 0.666992 -44 2c-27.333 2.66699 -46.333 4 -57 4
c-11.333 0 -28.5 -1 -51.5 -3s-40.167 -3 -51.5 -3c-45.333 0 -68 24.333 -68 73c0 40.667 14 61 42 61c4.66699 0 11.5 -1 20.5 -3s15.833 -3 20.5 -3c8.66699 0 13.334 5 14.001 15z" />
    <glyph glyph-name="two" unicode="2" 
d="M267 272c-76 -27.333 -115.332 -59.666 -117.999 -96.999c16.667 22.667 40.667 34 72 34c32 0 62 -10.667 90 -32l47 -36l-6 13l-12 25c-3.33301 6.66699 -5 15 -5 25c0 19.333 5.5 35 16.5 47s25.167 18 42.5 18c24.667 0 44.834 -10.667 60.501 -32
s23.5 -48.333 23.5 -81c0 -48 -12.333 -88.5 -37 -121.5s-55 -49.5 -91 -49.5c-36.667 0 -65.667 13 -87 39l-29 35c-22.667 27.333 -44.667 42.333 -66 45l4 -8c10.667 -17.333 16 -32.333 16 -45c0 -42.667 -21.667 -64 -65 -64c-28.667 0 -52.667 13.667 -72 41
s-29 61.666 -29 102.999c0 36 8.66699 72.667 26 110s39.666 67.333 66.999 90c24 20 59.333 41.667 106 65c32.667 16.667 55 31.334 67 44.001s18 27.667 18 45s-6.33301 32 -19 44s-28.334 18 -47.001 18s-33.334 -6.33301 -44.001 -19c-4 -4.66699 -6 -9 -6 -13
c0 -3.33301 1.33301 -7 4 -11c8.66699 -12.667 13 -24.334 13 -35.001c0 -20.667 -7.5 -38 -22.5 -52s-33.167 -21 -54.5 -21c-26.667 0 -48.167 9.16699 -64.5 27.5s-24.5 42.833 -24.5 73.5c0 51.333 19.833 94.5 59.5 129.5s88.834 52.5 147.501 52.5
c62.667 0 113.167 -18 151.5 -54s57.5 -83.333 57.5 -142c0 -76.667 -32 -133 -96 -169c-26.667 -14.667 -58 -28.667 -94 -42z" />
    <glyph glyph-name="three" unicode="3" 
d="M206 411l88.999 128.001l-90 1c-22.667 0 -34 -8.66699 -34 -26c0 -7.33301 1.16699 -18.5 3.5 -33.5s3.5 -26.833 3.5 -35.5c0 -44 -21.333 -66 -64 -66c-41.333 0 -62 20.333 -62 61c0 8.66699 0.833008 22 2.5 40s2.5 31.333 2.5 40
c0 11.333 -0.833008 28.333 -2.5 51s-2.5 39.667 -2.5 51c0 18 3.83301 30.5 11.5 37.5s21.167 10.5 40.5 10.5c16.667 0 41.334 -1.16699 74.001 -3.5s57.334 -3.5 74.001 -3.5c10.667 0 39.667 1.33301 87 4c35.333 2 60 3 74 3c19.333 0 33 -5.33301 41 -16
s12 -29.334 12 -56.001c0 -26 -7.66699 -49.667 -23 -71l-86 -121c26 -10 46 -21.333 60 -34c38 -34.667 57 -85 57 -151c0 -70.667 -20.667 -128 -62 -172s-94.666 -66 -159.999 -66c-60.667 0 -111.834 19.5 -153.501 58.5s-62.5 86.833 -62.5 143.5
c0 33.333 8.16699 60.833 24.5 82.5s37.166 32.5 62.499 32.5c21.333 0 39 -7.83301 53 -23.5s21 -35.5 21 -59.5c0 -22 -6 -44 -18 -66c15.333 -17.333 35.333 -26 60 -26c26.667 0 48.334 8.33301 65.001 25s25 38.334 25 65.001c0 56 -26.667 85.667 -80 89
c-22.667 1.33301 -37.834 6.5 -45.501 15.5s-11.5 26.167 -11.5 51.5c0 13.333 4.66699 26.666 14 39.999z" />
    <glyph glyph-name="four" unicode="4" 
d="M382 598l0.00488281 -285h12l12 0.5c8 0.333008 16.667 0.833008 26 1.5c1.33301 0 2.66602 0.333008 3.99902 1h4c36.667 0 55 -21.333 55 -64c0 -46.667 -17.667 -70 -53 -70c-1.33301 0 -4.66602 0.333008 -9.99902 1h-14h-26l-10 -1v-34c0 -15.333 5 -23 15 -23
c2.66699 0 7.66699 1 15 3s13 3 17 3c33.333 0 50 -19 50 -57c0 -51.333 -21 -77 -63 -77c-11.333 0 -28.333 1 -51 3s-39.667 3 -51 3c-12.667 0 -31.334 -1 -56.001 -3s-43.334 -3 -56.001 -3c-44.667 0 -67 23.333 -67 70c0 42.667 16.667 64 50 64
c5.33301 0 13.166 -1 23.499 -3s18.166 -3 23.499 -3c12.667 0 19 7.66699 19 23v34l-192 -4c-24.667 -0.666992 -41.334 5.33301 -50.001 18s-13 36 -13 70c0 32 6.33301 58.333 19 79l140 225c28.667 46 50.5 75.167 65.5 87.5s36.5 18.5 64.5 18.5
c64.667 0 97 -26 97 -78zM135.005 308h116v185z" />
    <glyph glyph-name="five" unicode="5" 
d="M265 552l-67.0039 -1.99902l-9 -125c33.333 16.667 65 25 95 25c52.667 0 95.667 -21 129 -63s50 -96 50 -162c0 -72.667 -21.333 -131.334 -64 -176.001s-98.667 -67 -168 -67c-56.667 0 -103.834 17 -141.501 51s-56.5 76.667 -56.5 128c0 27.333 8 50.333 24 69
s35.667 28 59 28c20.667 0 37.834 -7.5 51.501 -22.5s20.5 -33.833 20.5 -56.5c0 -12 -3 -25.333 -9 -40c12 -12 30 -18 54 -18c24.667 0 44.834 8.66699 60.501 26s23.5 39.333 23.5 66c0 27.333 -8.16699 50.833 -24.5 70.5s-35.833 29.5 -58.5 29.5
c-16 0 -35.667 -4 -59 -12c-13.333 -4.66699 -20.333 -7 -21 -7c-6.66699 -2 -15.667 -3 -27 -3c-52 0 -78 28.667 -78 86c0 16.667 1.33301 38.667 4 66c4 34 6.33301 55.667 7 65l4 63c0.666992 7.33301 1.33398 21 2.00098 41s3.33398 34 8.00098 42
c6 10.667 17.667 16 35 16h5c-6.66699 0 11 -1.66699 53 -5c16.667 -1.33301 38.334 -2 65.001 -2c54 0 107.333 2.33301 160 7h10c25.333 0 37.333 -14 36 -42l-2 -50l2 -54c1.33301 -41.333 -20 -62 -64 -62c-38 0 -57 16 -57 48v19c0 11.333 -5.33301 18.333 -16 21
c-4.66699 1.33301 -15 2 -31 2h-5z" />
    <glyph glyph-name="six" unicode="6" 
d="M283 551c-55.333 0 -88.667 -50.9971 -100 -152.997c32.667 26 67.667 39 105 39c53.333 0 97 -20.167 131 -60.5s51 -92.166 51 -155.499c0 -71.333 -19 -129 -57 -173s-88 -66 -150 -66c-74.667 0 -131.667 27.167 -171 81.5s-59 133.166 -59 236.499
c0 117.333 22.667 210.666 68 279.999s106.333 104 183 104c45.333 0 83.833 -13.333 115.5 -40s47.5 -59.334 47.5 -98.001c0 -24 -7.66699 -44.5 -23 -61.5s-34 -25.5 -56 -25.5c-18 0 -33.333 7.16699 -46 21.5s-19 31.833 -19 52.5
c0 1.33301 0.333008 3.66602 1 6.99902v8c-8.66699 2 -15.667 3 -21 3zM254.999 123.003c20 0 37.334 9.16797 52.001 27.501s22 40.166 22 65.499c0 23.333 -7.33301 43.833 -22 61.5s-31.334 26.5 -50.001 26.5c-20 0 -37.167 -9 -51.5 -27s-21.5 -39.667 -21.5 -65
c0 -24.667 7 -45.667 21 -63s30.667 -26 50 -26z" />
    <glyph glyph-name="seven" unicode="7" 
d="M95 678c15.333 0 26.167 -3.16797 32.5 -9.50098s10.166 -18.166 11.499 -35.499c20 30.667 49.667 46 89 46c24.667 0 57 -12.667 97 -38c14.667 -9.33301 24.334 -14 29.001 -14s8 2.33301 10 7l9 21c6.66699 15.333 21.667 23 45 23c42.667 0 64 -28.333 64 -85
c0 -55.333 -13 -105 -39 -149c-8 -14 -22.333 -35.667 -43 -65c-36.667 -52.667 -61.667 -94.5 -75 -125.5s-20 -62.167 -20 -93.5c0 -16 1 -30.667 3 -44c4.66699 -31.333 7 -49 7 -53c0 -22 -7.16699 -40.5 -21.5 -55.5s-31.833 -22.5 -52.5 -22.5
c-28.667 0 -51.334 13.667 -68.001 41s-25 64.333 -25 111c0 95.333 46 193 138 293l51 57l11 15c-25.333 -12.667 -45.666 -19 -60.999 -19c-34 0 -62.667 12 -86 36c-15.333 16 -25 24 -29 24c-8.66699 0 -13 -6 -13 -18c0 -4.66699 0.333008 -8 1 -10
c4 -24 6 -47.333 6 -70v-6c0 -48 -21.667 -72 -65 -72c-44.667 0 -67 20.667 -67 62c0 12.667 1.83301 31.667 5.5 57s5.5 44.666 5.5 57.999c0 12.667 -0.666992 25.334 -2 38.001c-2.66699 25.333 -4 39 -4 41c0 36.667 18.667 55 56 55z" />
    <glyph glyph-name="eight" unicode="8" 
d="M22 201c0 71.333 29.332 127 87.999 167c-44 34 -66 76 -66 126c0 53.333 19.833 98 59.5 134s88.834 54 147.501 54c58 0 107 -17.833 147 -53.5s60 -79.167 60 -130.5c0 -48 -21 -91 -63 -129c30.667 -25.333 52.167 -50.5 64.5 -75.5s18.5 -55.167 18.5 -90.5
c0 -65.333 -21.5 -118.833 -64.5 -160.5s-98.167 -62.5 -165.5 -62.5c-66.667 0 -121 20.5 -163 61.5s-63 94.167 -63 159.5zM248.999 554c-16.667 0 -30.667 -6.33301 -42 -19s-17 -28.334 -17 -47.001c0 -19.333 5.83301 -35.666 17.5 -48.999s25.834 -20 42.501 -20
c17.333 0 31.666 6.33301 42.999 19s17 28.667 17 48c0 18.667 -5.83301 34.667 -17.5 48s-26.167 20 -43.5 20zM249.999 298c-24 0 -43.667 -8.16699 -59 -24.5s-23 -37.5 -23 -63.5c0 -25.333 7.33301 -46 22 -62s33.667 -24 57 -24c24.667 0 44.667 8.16699 60 24.5
s23 37.833 23 64.5c0 25.333 -7.5 45.833 -22.5 61.5s-34.167 23.5 -57.5 23.5z" />
    <glyph glyph-name="nine" unicode="9" 
d="M128 195c40 0 61.667 -24.666 65 -73.999c14 -4.66699 24.667 -7 32 -7c54 0 84.667 49 92 147c-26 -31.333 -63.667 -47 -113 -47c-52 0 -94.333 20.5 -127 61.5s-49 94.167 -49 159.5c0 73.333 19.167 132.833 57.5 178.5s88.166 68.5 149.499 68.5
c72.667 0 129.834 -30.333 171.501 -91s62.5 -144.334 62.5 -251.001c0 -112.667 -22.667 -201 -68 -265s-107.666 -96 -186.999 -96c-46.667 0 -85.834 12.167 -117.501 36.5s-47.5 54.833 -47.5 91.5c0 24 7.83301 44.667 23.5 62s34.167 26 55.5 26zM241 542.001
c-21.333 0 -38.667 -9.33203 -52 -27.999s-20 -42.334 -20 -71.001c0 -27.333 6.66699 -49.833 20 -67.5s30.333 -26.5 51 -26.5c21.333 0 38.5 9.33301 51.5 28s19.5 43 19.5 73c0 26.667 -6.5 48.667 -19.5 66s-29.833 26 -50.5 26z" />
    <glyph glyph-name="colon" unicode=":" horiz-adv-x="263" 
d="M131 -15c-24 0 -43.832 9.83105 -59.499 29.498s-23.5 44.167 -23.5 73.5c0 28.667 8.16699 52.834 24.5 72.501s36.5 29.5 60.5 29.5s43.667 -9.66699 59 -29s23 -44 23 -74c0 -29.333 -7.83301 -53.666 -23.5 -72.999s-35.834 -29 -60.501 -29zM131.001 261.998
c-24 0 -43.832 9.83105 -59.499 29.498s-23.5 44.5 -23.5 74.5c0 28.667 8.16699 52.834 24.5 72.501s36.5 29.5 60.5 29.5s43.667 -9.83301 59 -29.5s23 -44.5 23 -74.5c0 -29.333 -7.83301 -53.666 -23.5 -72.999s-35.834 -29 -60.501 -29z" />
    <glyph glyph-name="semicolon" unicode=";" horiz-adv-x="263" 
d="M84 -68c4.66699 10 12.999 29 24.999 57c-42 17.333 -63 50.666 -63 99.999c0 27.333 8.66699 51.333 26 72s37.333 31 60 31c25.333 0 45.833 -11.167 61.5 -33.5s23.5 -51.833 23.5 -88.5c-0.666992 -61.333 -20.667 -125.666 -60 -192.999
c-21.333 -36.667 -41.666 -55 -60.999 -55c-10 0 -19.167 3.83301 -27.5 11.5s-12.5 16.5 -12.5 26.5c0 6 2.66699 15 8 27zM132.999 262c-24 0 -43.833 9.83105 -59.5 29.498s-23.5 44.5 -23.5 74.5c0 28.667 8.16699 52.834 24.5 72.501s36.5 29.5 60.5 29.5
s43.833 -9.83301 59.5 -29.5s23.5 -44.5 23.5 -74.5c0 -29.333 -8 -53.666 -24 -72.999s-36.333 -29 -61 -29z" />
    <glyph glyph-name="less" unicode="&#x3c;" 
d="M33 387l434 220v-126l-300 -148l299 -148l1 -124l-434 220v106z" />
    <glyph glyph-name="equal" unicode="=" 
d="M33 371v110h434v-110h-434zM33 199v110h434v-110h-434z" />
    <glyph glyph-name="greater" unicode="&#x3e;" 
d="M467 280l-434 -219v125l300 148l-299 148l-1 125l434 -220v-107z" />
    <glyph glyph-name="question" unicode="?" horiz-adv-x="501" 
d="M246 -15c-24 0 -43.999 9.83105 -59.999 29.498s-24 44.167 -24 73.5c0 28.667 8.16699 52.834 24.5 72.501s36.5 29.5 60.5 29.5s43.833 -9.66699 59.5 -29s23.5 -44 23.5 -74c0 -29.333 -7.83301 -53.666 -23.5 -72.999s-35.834 -29 -60.501 -29zM258.001 553.998
c-23.333 0 -43.002 -11.001 -59.002 -33.001c16 -16 24 -33.667 24 -53c0 -22 -7.66699 -41 -23 -57s-33.666 -24 -54.999 -24c-25.333 0 -47 10.5 -65 31.5s-27 46.167 -27 75.5c0 51.333 21.333 95.5 64 132.5s93.334 55.5 152.001 55.5c60 0 109.167 -18.5 147.5 -55.5
s57.5 -84.5 57.5 -142.5c0 -91.333 -46.667 -153.666 -140 -186.999c-12.667 -4.66699 -19.667 -13 -21 -25c-2 -21.333 -9 -35.333 -21 -42c-8 -4.66699 -24 -7 -48 -7c-28.667 0 -47.667 3.66699 -57 11s-14 22.333 -14 45c0 62.667 18.333 100.667 55 114l38 14
c38.667 14 58 39.333 58 76c0 19.333 -6.5 36 -19.5 50s-28.5 21 -46.5 21z" />
    <glyph glyph-name="at" unicode="@" horiz-adv-x="733" 
d="M466 453l6.99805 39.0039l87 -1l-37 -190c-4 -20.667 -6 -35.334 -6 -44.001c0 -21.333 7.66699 -32 23 -32c16 0 31.333 10.667 46 32c24.667 36 37 78.333 37 127c0 63.333 -21.833 115.166 -65.5 155.499s-99.834 60.5 -168.501 60.5c-76.667 0 -141 -26.333 -193 -79
s-78 -117.667 -78 -195c0 -56 14.833 -106.667 44.5 -152s67.834 -76 114.501 -92c32 -10.667 69.333 -16 112 -16c63.333 0 124 10.333 182 31l20 -78c-58.667 -20.667 -126.667 -31 -204 -31c-102.667 0 -185.667 30 -249 90c-70 66 -105 149.333 -105 250
c0 98 34 180.833 102 248.5s151 101.5 249 101.5c90.667 0 166 -27.833 226 -83.5s90 -125.834 90 -210.501c0 -60.667 -16.667 -114.334 -50 -161.001s-71.333 -70 -114 -70c-42 0 -68 18.333 -78 55c-29.333 -42 -70.666 -63 -123.999 -63c-40 0 -73.5 15 -100.5 45
s-40.5 67.333 -40.5 112c0 53.333 17.5 100 52.5 140s75.833 60 122.5 60c44.667 0 77.334 -16.333 98.001 -49zM443.998 341.004l0.000976562 4.00098c0 19.333 -6.16699 35.166 -18.5 47.499s-27.5 18.5 -45.5 18.5c-23.333 0 -43.833 -10.333 -61.5 -31
s-26.5 -45.334 -26.5 -74.001c0 -21.333 6.16699 -38.666 18.5 -51.999s28.166 -20 47.499 -20c23.333 0 43.5 10.667 60.5 32s25.5 46.333 25.5 75z" />
    <glyph glyph-name="A" unicode="A" horiz-adv-x="601" 
d="M376 145l-10.0029 60.002h-131l-9 -54c-2 -12 -3 -17.333 -3 -16c0 -8 3.66699 -12 11 -12c2 0 3.66699 0.166992 5 0.5l6 1.5h4c9.33301 0 17.333 -6 24 -18s10 -26 10 -42c0 -19.333 -5.66699 -35.5 -17 -48.5s-25.666 -19.5 -42.999 -19.5c-9.33301 0 -23.5 1 -42.5 3
s-33.167 3 -42.5 3c-14 0 -28.833 -1 -44.5 -3s-27.834 -3 -36.501 -3c-18 0 -33.167 6.66699 -45.5 20s-18.5 30.333 -18.5 51c0 18 3.83301 33.167 11.5 45.5s17.167 18.5 28.5 18.5c2.66699 0 6.66699 -0.5 12 -1.5s9.33301 -1.5 12 -1.5c6 0 11.667 9.33301 17 28
l129 476c6.66699 24.667 24.334 37 53.001 37h49l49 -1c26.667 -0.666992 43 -12.667 49 -36l126 -476c4.66699 -18 9.66699 -27 15 -27c2.66699 0 6.5 0.333008 11.5 1s8.83301 1 11.5 1c27.333 0 41 -20 41 -60c0 -22.667 -6 -40.834 -18 -54.501s-27.667 -20.5 -47 -20.5
c-9.33301 0 -22.833 1 -40.5 3s-31.167 3 -40.5 3s-23.166 -1 -41.499 -3s-32.166 -3 -41.499 -3c-41.333 0 -62 23.667 -62 71c0 37.333 11 56 33 56h13c9.33301 0 14 4.66699 14 14c0 3.33301 -0.333008 5.66602 -1 6.99902zM257.997 328.002h85l-43 215z" />
    <glyph glyph-name="B" unicode="B" horiz-adv-x="564" 
d="M508 505c0 -68.667 -32.667 -116.669 -98 -144.002c80.667 -21.333 121 -75.666 121 -162.999c0 -60 -15.833 -108.5 -47.5 -145.5s-73.167 -55.5 -124.5 -55.5c-16 0 -39.667 1 -71 3s-55 3 -71 3c-14.667 0 -36.667 -1 -66 -3s-51.333 -3 -66 -3
c-19.333 0 -35 7 -47 21s-18 32.333 -18 55c0 17.333 4 32 12 44s17.333 18 28 18h5c2.66699 -0.666992 4.83398 -1.16699 6.50098 -1.5s4.16699 -0.5 7.5 -0.5c9.33301 0 14 6 14 18v365c0 12 -4.66699 18 -14 18c-2 0 -5.16699 -0.333008 -9.5 -1s-7.5 -1 -9.5 -1
c-11.333 0 -20.833 6 -28.5 18s-11.5 26.667 -11.5 44c0 22 6 40.167 18 54.5s27.333 21.5 46 21.5c17.333 0 39.666 -1.33301 66.999 -4c20.667 -2 40.667 -3 60 -3c16 0 40.333 1.16699 73 3.5s57 3.5 73 3.5c45.333 0 81.833 -15.167 109.5 -45.5
s41.5 -70.166 41.5 -119.499zM244 499.998v-93c6 -0.666992 12 -1 18 -1c25.333 0 45.5 6.33301 60.5 19s22.5 29.667 22.5 51c0 18.667 -6.5 34.5 -19.5 47.5s-28.833 19.5 -47.5 19.5c-22.667 0 -34 -14.333 -34 -43zM264 286.998
c-6.66699 0 -13.332 -0.332031 -19.999 -0.999023v-130c0 -21.333 13 -32 39 -32c57.333 0 86 25.333 86 76c0 25.333 -9.83301 46.166 -29.5 62.499s-44.834 24.5 -75.501 24.5z" />
    <glyph glyph-name="C" unicode="C" horiz-adv-x="520" 
d="M261 683c40 0 78.333 -15.667 115 -47c8.66699 27.333 26 41 52 41c40 0 60 -20.667 60 -62c0 -9.33301 -1 -23.333 -3 -42s-3 -32.667 -3 -42c0 -12 1.33301 -30.333 4 -55c1.33301 -12.667 2 -23.667 2 -33c0 -51.333 -23.333 -77 -70 -77c-41.333 0 -63 21 -65 63
l-2 39c-1.33301 20 -8.5 37.333 -21.5 52s-27.833 22 -44.5 22c-32 0 -56.833 -17 -74.5 -51s-26.5 -82 -26.5 -144c0 -148.667 32 -223 96 -223c43.333 0 65 29.667 65 89v9c0 54 22.667 81 68 81c24 0 42.833 -8.83301 56.5 -26.5s20.5 -42.167 20.5 -73.5
c0 -46 -11.5 -87.833 -34.5 -125.5s-53.167 -64.5 -90.5 -80.5c-24.667 -10.667 -54.334 -16 -89.001 -16c-78 0 -138.5 30 -181.5 90s-64.5 144.667 -64.5 254c0 112 20.333 199.667 61 263s97.334 95 170.001 95z" />
    <glyph glyph-name="D" unicode="D" horiz-adv-x="570" 
d="M93 151l-0.000976562 365c0 12 -4.66699 18 -14 18c-2 0 -5.16699 -0.333008 -9.5 -1s-7.5 -1 -9.5 -1c-11.333 0 -20.833 6 -28.5 18s-11.5 26.667 -11.5 44c0 22 6 40.167 18 54.5s27.333 21.5 46 21.5c14 0 33.333 -1.33301 58 -4c18.667 -2 37 -3 55 -3
c28 0 52.333 1 73 3c28 2.66699 47 4 57 4c63.333 0 114.666 -30.5 153.999 -91.5s59 -140.167 59 -237.5c0 -104.667 -21 -188.167 -63 -250.5s-98.333 -93.5 -169 -93.5c-13.333 0 -33 1 -59 3s-45.667 3 -59 3c-16 0 -34.667 -1 -56 -3s-37.333 -3 -48 -3
c-19.333 0 -35.166 7 -47.499 21s-18.5 32.333 -18.5 55c0 17.333 4 32 12 44s17.333 18 28 18h5c2.66699 -0.666992 4.83398 -1.16699 6.50098 -1.5s4.16699 -0.5 7.5 -0.5c9.33301 0 14 6 14 18zM279.999 547c-18 0 -29.334 -7.33398 -34.001 -22.001
c-2 -6.66699 -3 -22 -3 -46v-311c0 -32.667 11.667 -49 35 -49c32.667 0 58.334 19.333 77.001 58s28 91.334 28 158.001c0 64.667 -9.33301 116.167 -28 154.5s-43.667 57.5 -75 57.5z" />
    <glyph glyph-name="E" unicode="E" horiz-adv-x="563" 
d="M241 499v-100.998c5.33301 -2 11.333 -3 18 -3c18 0 27 8.66699 27 26c0 7.33301 -0.333008 12.666 -1 15.999c-2 10.667 -3 18 -3 22c0 10.667 4.16699 20 12.5 28s18.166 12 29.499 12c30.667 0 46 -15.333 46 -46c0 -12.667 -1.66699 -31 -5 -55
c-1.33301 -9.33301 -2 -24.333 -2 -45c0 -22.667 1.33301 -46.334 4 -71.001c2 -18.667 3 -34.334 3 -47.001c0 -33.333 -16 -50 -48 -50c-27.333 0 -41 13 -41 39c0 6.66699 1 14.334 3 23.001c1.33301 4 2 9.66699 2 17c0 15.333 -10.667 23 -32 23
c-0.666992 0 -5 -0.666992 -13 -2v-119c0 -20 4.66699 -32.333 14 -37c5.33301 -2.66699 13.333 -4 24 -4h83c18 0 30.5 2.5 37.5 7.5s10.5 15.5 10.5 31.5c0 8.66699 -1.33301 22 -4 40c-3.33301 22.667 -5 38.334 -5 47.001c0 17.333 5.66699 31.833 17 43.5
s25.666 17.5 42.999 17.5c39.333 0 59 -26.333 59 -79c0 -12.667 -0.666992 -26.334 -2 -41.001c-2 -21.333 -3 -41 -3 -59c0 -10 0.833008 -25.333 2.5 -46s2.5 -36 2.5 -46c0 -18.667 -4.5 -30.834 -13.5 -36.501s-24.167 -8.5 -45.5 -8.5
c-10.667 0 -21.334 0.333008 -32.001 1c-65.333 4 -125.333 6 -180 6c-18 0 -45.167 -1 -81.5 -3s-63.5 -3 -81.5 -3c-19.333 0 -35.166 7 -47.499 21s-18.5 32.333 -18.5 55c0 17.333 4 32 12 44s17.333 18 28 18h5c2.66699 -0.666992 4.83398 -1.16699 6.50098 -1.5
s4.16699 -0.5 7.5 -0.5c9.33301 0 14 6 14 18v364c0 12.667 -4.66699 19 -14 19h-4c-1.33301 -0.666992 -2.66602 -1 -3.99902 -1c-5.33301 -1.33301 -9 -2 -11 -2c-10.667 0 -20 6 -28 18s-12 26.667 -12 44c0 22.667 6.16699 41.167 18.5 55.5s28.166 21.5 47.499 21.5
c14.667 0 42 -1.33301 82 -4c30 -2 62 -3 96 -3c22 0 54.667 1.16699 98 3.5s76 3.5 98 3.5c36 0 54 -15 54 -45c0 -7.33301 -1 -23 -3 -47c-1.33301 -16 -2 -44.667 -2 -86v-20l3 -45c0 -40.667 -20.333 -61 -61 -61c-38 0 -57 17.333 -57 52c0 10 1.33301 24.5 4 43.5
s4 33.167 4 42.5c0 16.667 -3 27.334 -9 32.001s-16.667 7 -32 7h-72c-21.333 0 -34.666 -2.5 -39.999 -7.5s-8 -17.167 -8 -36.5z" />
    <glyph glyph-name="F" unicode="F" horiz-adv-x="534" 
d="M253 287l-5.99902 -0.000976562c-2.66699 -0.666992 -5 -1 -7 -1v-130c0 -18.667 4.66699 -28 14 -28c4 0 10 0.666992 18 2s14 2 18 2c32 0 48 -20.333 48 -61c0 -21.333 -5.5 -39 -16.5 -53s-25.167 -21 -42.5 -21c-10 0 -24.667 1 -44 3s-34 3 -44 3
c-26.667 0 -46.667 -0.666992 -60 -2c-26.667 -2.66699 -42.667 -4 -48 -4c-18 0 -33 7.16699 -45 21.5s-18 32.5 -18 54.5c0 17.333 4 32 12 44s17.333 18 28 18h5c2.66699 -0.666992 4.83398 -1.16699 6.50098 -1.5s4.16699 -0.5 7.5 -0.5c9.33301 0 14 6 14 18v364
c0 12.667 -4.66699 19 -14 19c-2 0 -5.16699 -0.333008 -9.5 -1s-7.5 -1 -9.5 -1c-11.333 0 -20.833 6 -28.5 18s-11.5 26.667 -11.5 44c0 22.667 6.16699 41 18.5 55s28.166 21 47.499 21c18 0 44.5 -1.16699 79.5 -3.5s61.5 -3.5 79.5 -3.5
c17.333 0 49.666 0.666992 96.999 2c29.333 0.666992 53 1.66699 71 3c20.667 1.33301 35.667 2 45 2c37.333 0 56 -14.667 56 -44c0 -9.33301 -1.33301 -25.333 -4 -48c-0.666992 -5.33301 -1 -26.333 -1 -63v-40c1.33301 -20.667 2 -36.334 2 -47.001
c0 -42.667 -20 -64 -60 -64c-38 0 -57 18.667 -57 56c0 9.33301 1.33301 23.833 4 43.5s4 34.5 4 44.5c0 24 -13.667 36 -41 36h-82c-14.667 0 -24.834 -3.33301 -30.501 -10s-8.5 -18.667 -8.5 -36v-101c5.33301 -1.33301 11 -2 17 -2c19.333 0 29 7.33301 29 22
c0 4.66699 -0.833008 11.334 -2.5 20.001s-2.5 15.334 -2.5 20.001c0 12 4.16699 22 12.5 30s18.833 12 31.5 12c29.333 0 44 -17 44 -51c0 -11.333 -1.16699 -28.5 -3.5 -51.5s-3.5 -40.5 -3.5 -52.5s1.16699 -30 3.5 -54s3.5 -42 3.5 -54c0 -34 -16 -51 -48 -51
c-27.333 0 -40.666 12.667 -39.999 38c0 4.66699 0.833008 11.5 2.5 20.5s2.5 15.833 2.5 20.5c0 15.333 -11 23 -33 23z" />
    <glyph glyph-name="G" unicode="G" horiz-adv-x="553" 
d="M254 683c53.333 0 94.001 -16.666 122.001 -49.999c10 29.333 27.667 44 53 44c16.667 0 30.167 -5.5 40.5 -16.5s15.5 -25.167 15.5 -42.5c0 -8.66699 -0.833008 -22 -2.5 -40s-2.5 -31.667 -2.5 -41c0 -6 0.666992 -16 2 -30c2 -20.667 3 -34.334 3 -41.001
c0 -19.333 -5.83301 -35 -17.5 -47s-27.167 -18 -46.5 -18c-38 0 -60 16.333 -66 49l-9 48c-2.66699 13.333 -9.83398 25 -21.501 35s-24.5 15 -38.5 15c-34 0 -60 -22 -78 -66c-14.667 -35.333 -22 -84.333 -22 -147c0 -142 31 -213 93 -213c19.333 0 35.833 7.5 49.5 22.5
s20.5 33.833 20.5 56.5c0 23.333 -5 35 -15 35h-1c-1.33301 0 -4.66602 -0.666992 -9.99902 -2h-3c-1.33301 -0.666992 -2.33301 -1 -3 -1c-28 0 -42 19.667 -42 59c0 49.333 20.333 74 61 74c9.33301 0 23.666 -0.833008 42.999 -2.5s33.666 -2.5 42.999 -2.5
c8.66699 0 22 0.833008 40 2.5s31.333 2.5 40 2.5c34 0 51 -24 51 -72c0 -38.667 -12.333 -58 -37 -58h-3c-13.333 0 -21.666 -5.33301 -24.999 -16c-1.33301 -4.66699 -2 -16 -2 -34c0 -19.333 1 -38 3 -56c4 -36.667 6 -59.667 6 -69c0 -50 -22.333 -75 -67 -75
c-32.667 0 -52.667 16.667 -60 50c-28 -36 -69.333 -54 -124 -54c-68 0 -120.667 30.667 -158 92s-56 148 -56 260c0 111.333 19.5 197.333 58.5 258s94.167 91 165.5 91z" />
    <glyph glyph-name="H" unicode="H" horiz-adv-x="623" 
d="M530 516v-364.997c0 -12.667 4.66699 -19 14 -19c0.666992 0 2 0.333008 4 1h4c5.33301 1.33301 9 2 11 2c10.667 0 20 -6 28 -18s12 -26.667 12 -44c0 -22 -6 -40.333 -18 -55s-27 -22 -45 -22c1.33301 0 -13.334 1.66699 -44.001 5c-12.667 1.33301 -27.667 2 -45 2
c-8.66699 0 -21.667 -1 -39 -3s-30.333 -3 -39 -3c-32 0 -48 23 -48 69c0 37.333 12 58.666 36 63.999c8 2 13 5 15 9s3 13 3 27v93c0 14 -6 21 -18 21h-98c-13.333 0 -20 -5.33301 -20 -16v-101c0 -13.333 0.833008 -21.833 2.5 -25.5s6.83398 -6.16699 15.501 -7.5
c22.667 -4.66699 34 -23.667 34 -57c0 -50.667 -17.667 -76 -53 -76c-8.66699 0 -21.667 1 -39 3s-30.333 3 -39 3c-13.333 0 -25.666 -0.666992 -36.999 -2c-22.667 -2.66699 -37.334 -4 -44.001 -4c-18 0 -33 7.16699 -45 21.5s-18 32.5 -18 54.5c0 17.333 4 32 12 44
s17.333 18 28 18h5c2.66699 -0.666992 4.83398 -1.16699 6.50098 -1.5s4.16699 -0.5 7.5 -0.5c9.33301 0 14 6 14 18v365c0 12 -4.66699 18 -14 18c-2 0 -5.16699 -0.333008 -9.5 -1s-7.5 -1 -9.5 -1c-11.333 0 -20.833 6 -28.5 18s-11.5 26.667 -11.5 44
c0 22 6 40.167 18 54.5s27 21.5 45 21.5c9.33301 0 23.666 -1.16699 42.999 -3.5s34 -3.5 44 -3.5c9.33301 0 22.5 1.16699 39.5 3.5s29.833 3.5 38.5 3.5c32 0 48 -23.667 48 -71c0 -35.333 -10.667 -56.333 -32 -63c-12.667 -4 -19.334 -9.66699 -20.001 -17
c-0.666992 -2.66699 -1 -9.33398 -1 -20.001v-63c0 -8 1.16699 -14 3.5 -18s8.83301 -6 19.5 -6h92c14 0 21 8 21 24v66c0 18 -2 28 -6 30c-0.666992 0.666992 -5.66699 1.66699 -15 3c-20 3.33301 -30 22.666 -30 57.999c0 51.333 17 77 51 77
c8.66699 0 21.5 -1.16699 38.5 -3.5s29.833 -3.5 38.5 -3.5c12.667 0 28.334 1.33301 47.001 4c14 2 26 3 36 3c18.667 0 34 -7.16699 46 -21.5s18 -32.5 18 -54.5c0 -17.333 -4 -32 -12 -44s-17.333 -18 -28 -18c-2 0 -5.16699 0.333008 -9.5 1s-7.5 1 -9.5 1
c-9.33301 0 -14 -6 -14 -18z" />
    <glyph glyph-name="I" unicode="I" horiz-adv-x="337" 
d="M244 516l-1.00195 -21l1 -344c0.666992 -12 5 -18 13 -18c4 0 6.83301 0.166992 8.5 0.5s3.5 0.833008 5.5 1.5h5c11.333 0 21 -6 29 -18s12 -26.667 12 -44c0 -22 -6 -40.167 -18 -54.5s-27 -21.5 -45 -21.5c-9.33301 0 -23.666 1 -42.999 3s-33.666 3 -42.999 3
c-17.333 0 -32 -0.666992 -44 -2l-26 -3c-7.33301 -0.666992 -12.666 -1 -15.999 -1c-17.333 0 -32 7.33301 -44 22s-18 32.667 -18 54c0 17.333 4 32 12 44s17.333 18 28 18h5c2.66699 -0.666992 4.83398 -1.16699 6.50098 -1.5s4.16699 -0.5 7.5 -0.5
c9.33301 0 14 6 14 18v365c0 12 -4.66699 18 -14 18c-3.33301 0 -6 -0.333008 -8 -1h-6c-2.66699 -0.666992 -4.33398 -1 -5.00098 -1c-11.333 0 -20.833 6 -28.5 18s-11.5 26.667 -11.5 44c0 22 6 40.167 18 54.5s27.333 21.5 46 21.5c9.33301 0 23.333 -1.16699 42 -3.5
s32.667 -3.5 42 -3.5s23.5 1.16699 42.5 3.5s33.167 3.5 42.5 3.5c18.667 0 34 -7.16699 46 -21.5s18 -32.5 18 -54.5c0 -17.333 -4 -32 -12 -44s-17.333 -18 -28 -18c-2 0 -5.16699 0.333008 -9.5 1s-7.5 1 -9.5 1c-8.66699 0 -13.334 -6 -14.001 -18z" />
    <glyph glyph-name="J" unicode="J" horiz-adv-x="514" 
d="M182 169c-16.667 0 -31.332 10.666 -43.999 31.999c-2 -8.66699 -3 -15 -3 -19c0 -18 7.16699 -33.5 21.5 -46.5s31.166 -19.5 50.499 -19.5c53.333 0 80 38 80 114v265c0 16.667 -1 27.167 -3 31.5s-7 6.5 -15 6.5h-5c-10.667 -1.33301 -15.667 -2 -15 -2
c-12 0 -22 6 -30 18s-12 27.333 -12 46c0 22.667 5.66699 40.834 17 54.501s26.333 20.5 45 20.5c8.66699 0 21.667 -1.16699 39 -3.5s30.333 -3.5 39 -3.5c22.667 0 40.667 1 54 3c18 2.66699 32 4 42 4c36 0 54 -24 54 -72c0 -42 -13 -63 -39 -63l-1 1
c-13.333 0 -20 -12 -20 -36v-282c0 -71.333 -20.5 -128.833 -61.5 -172.5s-95.167 -65.5 -162.5 -65.5c-62 0 -111.833 19.333 -149.5 58s-56.5 90 -56.5 154c0 50.667 13 92.167 39 124.5s59.333 48.5 100 48.5c28 0 51.333 -10 70 -30s28 -45.333 28 -76
c0 -26 -5.83301 -47.5 -17.5 -64.5s-26.5 -25.5 -44.5 -25.5z" />
    <glyph glyph-name="K" unicode="K" horiz-adv-x="629" 
d="M242 502l-0.000976562 -109l108 125c8.66699 10 13 18 13 24c0 1.33301 -4 7 -12 17s-12 25.333 -12 46c0 43.333 16.667 65 50 65c8.66699 0 21.667 -1.16699 39 -3.5s30.333 -3.5 39 -3.5c9.33301 0 23 1.16699 41 3.5s31.333 3.5 40 3.5c37.333 0 56 -23.667 56 -71
c0 -19.333 -3.83301 -35.166 -11.5 -47.499s-17.834 -18.166 -30.501 -17.499l-18 1c-4 0 -8.33301 -2.66699 -13 -8l-9 -9l-107 -125l124 -245c5.33301 -10 12.333 -15.333 21 -16l18 -1c23.333 -1.33301 35 -21.333 35 -60c0 -22.667 -5.16699 -40.667 -15.5 -54
s-24.166 -20 -41.499 -20c-9.33301 0 -23.5 1 -42.5 3s-33.167 3 -42.5 3s-23.5 -1 -42.5 -3s-33.167 -3 -42.5 -3c-32.667 0 -49 23 -49 69c0 27.333 8.33301 46.666 25 57.999c4.66699 3.33301 7 7 7 11c0 4.66699 -1.66699 10.667 -5 18l-63 141l-59 -66v-75
c0 -15.333 3.33301 -22.666 10 -21.999l13 1c10.667 0.666992 19.834 -5.33301 27.501 -18s11.5 -27.667 11.5 -45c0 -20.667 -5.33301 -37.834 -16 -51.501s-24.334 -20.5 -41.001 -20.5c-4.66699 0 -17.334 1.66699 -38.001 5c-4 0.666992 -14 1 -30 1
c-26 0 -45 -0.666992 -57 -2c-24 -2.66699 -37.333 -4 -40 -4c-17.333 0 -32 7.33301 -44 22s-18 32.667 -18 54c0 17.333 4 32 12 44s17.333 18 28 18h5c2.66699 -0.666992 4.83398 -1.16699 6.50098 -1.5s4.16699 -0.5 7.5 -0.5c9.33301 0 14 6 14 18v365
c0 12 -4.66699 18 -14 18c-2 0 -5.16699 -0.333008 -9.5 -1s-7.5 -1 -9.5 -1c-11.333 0 -20.833 6 -28.5 18s-11.5 26.667 -11.5 44c0 21.333 6 39.333 18 54s26.667 22 44 22c7.33301 0 21 -1.33301 41 -4c15.333 -2 31 -3 47 -3c7.33301 0 27.333 2 60 6
c8.66699 0.666992 15.667 1 21 1c16 0 29.5 -7.33301 40.5 -22s16.5 -33 16.5 -55c0 -37.333 -13 -56.666 -39 -57.999c-11.333 -0.666992 -17.666 -1.33398 -18.999 -2.00098c-4.66699 -1.33301 -7 -5 -7 -11c-0.666992 -2.66699 -1 -9.33398 -1 -20.001z" />
    <glyph glyph-name="L" unicode="L" horiz-adv-x="526" 
d="M93 151l-0.00390625 365c0 12 -4.66699 18 -14 18c-2 0 -5.16699 -0.333008 -9.5 -1s-7.5 -1 -9.5 -1c-11.333 0 -20.833 6 -28.5 18s-11.5 26.667 -11.5 44c0 22.667 6 41 18 55s27.667 21 47 21c10.667 0 27 -1.16699 49 -3.5s38.667 -3.5 50 -3.5
c9.33301 0 23 0.666992 41 2s31.667 2 41 2c47.333 0 71 -24.333 71 -73c0 -42.667 -16.667 -64 -50 -64c-3.33301 0 -8.66602 0.833008 -15.999 2.5s-12.666 2.5 -15.999 2.5c-8.66699 0 -13 -9 -13 -27v-320c0 -42 21.333 -63 64 -63c44 0 66 13.667 66 41
c0 8 -1.5 20.167 -4.5 36.5s-4.5 28.833 -4.5 37.5c0 24 6.66699 43.5 20 58.5s31 22.5 53 22.5c46.667 0 70 -29.667 70 -89c0 -14.667 -0.333008 -26.667 -1 -36c-2 -27.333 -3 -48.333 -3 -63c0 -8 0.5 -20.333 1.5 -37s1.5 -29 1.5 -37c0 -24 -3.33301 -40.333 -10 -49
s-19 -13 -37 -13c-19.333 0 -48.5 1 -87.5 3s-68.167 3 -87.5 3c-22 0 -54.833 -1 -98.5 -3s-76.5 -3 -98.5 -3c-19.333 0 -35.166 7 -47.499 21s-18.5 32.333 -18.5 55c0 17.333 4 32 12 44s17.333 18 28 18h5c2.66699 -0.666992 4.83398 -1.16699 6.50098 -1.5
s4.16699 -0.5 7.5 -0.5c9.33301 0 14 6 14 18z" />
    <glyph glyph-name="M" unicode="M" horiz-adv-x="776" 
d="M330 614l57.0059 -317.001l58 331c4.66699 28 17.334 42 38.001 42c9.33301 0 23.5 -1.16699 42.5 -3.5s33.5 -3.5 43.5 -3.5c14 0 34.667 1.16699 62 3.5s47.666 3.5 60.999 3.5c18.667 0 34 -7.16699 46 -21.5s18 -32.5 18 -54.5c0 -17.333 -3.83301 -32 -11.5 -44
s-16.834 -18 -27.501 -18c-2 0 -5.33301 0.333008 -10 1s-8 1 -10 1c-9.33301 0 -14 -6 -14 -18v-365c0 -12 4.66699 -18 14 -18c3.33301 0 6 0.166992 8 0.5s4 0.833008 6 1.5h5c11.333 0 20.833 -6 28.5 -18s11.5 -26.667 11.5 -44c0 -22.667 -6 -41 -18 -55
s-27.333 -21 -46 -21c-8 0 -20.333 1 -37 3s-29 3 -37 3c-6.66699 0 -20.667 -1.33301 -42 -4c-10.667 -1.33301 -22.334 -2 -35.001 -2c-42.667 0 -64 23.333 -64 70c0 17.333 3.83301 31.833 11.5 43.5s17.167 17.5 28.5 17.5c4 0 9.66699 0.333008 17 1
c5.33301 2.66699 8.33301 7 9 13c1.33301 4 2 13.333 2 28v371l-108 -502c-3.33301 -17.333 -8.5 -28.666 -15.5 -33.999s-19.167 -8 -36.5 -8s-29.5 3.33301 -36.5 10s-12.167 18.667 -15.5 36l-102 485v-358c0 -17.333 1.16699 -28 3.5 -32s8.83301 -6.33301 19.5 -7
c28 -2 42 -23.333 42 -64c0 -20 -5.33301 -36.667 -16 -50s-24.334 -20 -41.001 -20c-9.33301 0 -23 1 -41 3s-31.667 3 -41 3c-10 0 -22.833 -1 -38.5 -3s-27.834 -3 -36.501 -3c-17.333 0 -32 7.33301 -44 22s-18 32.667 -18 54c0 17.333 4 32 12 44s17.333 18 28 18h5
c2.66699 -0.666992 4.83398 -1.16699 6.50098 -1.5s4.16699 -0.5 7.5 -0.5c9.33301 0 14 6 14 18v365c0 12 -4.66699 18 -14 18c-2 0 -5.16699 -0.333008 -9.5 -1s-7.5 -1 -9.5 -1c-11.333 0 -20.833 6 -28.5 18s-11.5 26.667 -11.5 44c0 22.667 6.16699 41 18.5 55
s28.166 21 47.499 21c13.333 0 33.166 -1.16699 59.499 -3.5s46.166 -3.5 59.499 -3.5c9.33301 0 23 1.16699 41 3.5s31.667 3.5 41 3.5c22 0 36.333 -18.667 43 -56z" />
    <glyph glyph-name="N" unicode="N" horiz-adv-x="638" 
d="M360 37l-142.996 444.001l1 -330c0.666992 -12 5 -18 13 -18c4 0 6.83301 0.166992 8.5 0.5s3.5 0.833008 5.5 1.5h5c11.333 0 21 -6 29 -18s12 -26.667 12 -44c0 -22 -6 -40.167 -18 -54.5s-27 -21.5 -45 -21.5c-8 0 -19 1 -33 3s-26.667 3 -38 3
c-8 0 -20.333 -1 -37 -3s-29 -3 -37 -3c-18 0 -33 7.16699 -45 21.5s-18 32.5 -18 54.5c0 17.333 4 32 12 44s17.333 18 28 18h5c2.66699 -0.666992 4.83398 -1.16699 6.50098 -1.5s4.16699 -0.5 7.5 -0.5c9.33301 0 14 6 14 18v365c0 12 -4.66699 18 -14 18
c-2 0 -5.16699 -0.333008 -9.5 -1s-7.5 -1 -9.5 -1c-11.333 0 -20.833 6 -28.5 18s-11.5 26.667 -11.5 44c0 22 6 40.167 18 54.5s27.333 21.5 46 21.5c9.33301 0 23.666 -1.16699 42.999 -3.5s33.666 -3.5 42.999 -3.5c14.667 0 30 1 46 3c21.333 2.66699 34.333 4 39 4
c21.333 0 35.666 -11.667 42.999 -35l126 -440v305c0 15.333 -1.16699 25 -3.5 29s-6.16602 6 -11.499 6h-5c-2.66699 -0.666992 -5.33398 -1 -8.00098 -1c-12.667 0 -22.834 5.66699 -30.501 17s-11.5 25.666 -11.5 42.999c0 50.667 19.333 76 58 76
c5.33301 0 13.333 -0.666992 24 -2c26 -3.33301 43.667 -5 53 -5c13.333 0 25.666 1 36.999 3c14.667 2.66699 27 4 37 4c15.333 0 28 -7 38 -21s15 -31.667 15 -53c0 -17.333 -3.5 -32 -10.5 -44s-15.833 -18 -26.5 -18h-11c-8.66699 0 -13.667 -3.66699 -15 -11
c-0.666992 -2.66699 -1 -10.334 -1 -23.001v-444c0 -24 -4 -40.167 -12 -48.5s-22.667 -12.5 -44 -12.5h-79c-17.333 0 -29.833 2.83301 -37.5 8.5s-14.167 16.834 -19.5 33.501z" />
    <glyph glyph-name="O" unicode="O" horiz-adv-x="555" 
d="M274 -19c-76.667 0 -136.5 30.668 -179.5 92.001s-64.5 146.666 -64.5 255.999c0 110.667 22 197.167 66 259.5s104.667 93.5 182 93.5c76.667 0 137 -30.667 181 -92s66 -145.333 66 -252c0 -150.667 -39 -255 -117 -313c-39.333 -29.333 -84 -44 -134 -44zM277 548.001
c-60 0 -92.332 -69.001 -96.999 -207.001v-22c0 -62.667 8.5 -112.167 25.5 -148.5s39.833 -54.5 68.5 -54.5c17.333 0 33.5 6.66699 48.5 20s26.167 31 33.5 53c12 36.667 18 87 18 151c0 64.667 -6.66699 113.334 -20 146.001c-16.667 41.333 -42.334 62 -77.001 62z" />
    <glyph glyph-name="P" unicode="P" horiz-adv-x="524" 
d="M264 230c-4 0 -11.0029 -0.333008 -21.0029 -1v-65l1 -15c0.666992 -13.333 6.33398 -20 17.001 -20c5.33301 0 10 0.333008 14 1c8 1.33301 14.333 2 19 2c32.667 0 49 -20.333 49 -61c0 -22 -5.83301 -39.833 -17.5 -53.5s-26.167 -20.5 -43.5 -20.5
c-9.33301 0 -23.666 1 -42.999 3s-34 3 -44 3c-12 0 -30.333 -1 -55 -3s-43 -3 -55 -3c-19.333 0 -35 7 -47 21s-18 32.333 -18 55c0 17.333 4 32 12 44s17.333 18 28 18h5c2.66699 -0.666992 4.83398 -1.16699 6.50098 -1.5s4.16699 -0.5 7.5 -0.5c9.33301 0 14 6 14 18
v365c0 12 -4.66699 18 -14 18c-2 0 -5.16699 -0.333008 -9.5 -1s-7.5 -1 -9.5 -1c-11.333 0 -20.833 6 -28.5 18s-11.5 26.667 -11.5 44c0 22.667 6 41 18 55s27.667 21 47 21c14 0 34.833 -1.16699 62.5 -3.5s48.5 -3.5 62.5 -3.5s34.667 1.16699 62 3.5s48 3.5 62 3.5
c52.667 0 95.167 -20 127.5 -60s48.5 -91.667 48.5 -155c0 -80.667 -23 -140.667 -69 -180c-23.333 -20 -51.333 -33 -84 -39c-18 -3.33301 -49 -5.33301 -93 -6zM242.997 484v-127.999c8 -1.33301 16.333 -2 25 -2c57.333 0 86 29.667 86 89
c0 28.667 -6.5 51.167 -19.5 67.5s-30.833 24.5 -53.5 24.5c-16 0 -26.333 -3.83301 -31 -11.5s-7 -20.834 -7 -39.501z" />
    <glyph glyph-name="Q" unicode="Q" horiz-adv-x="555" 
d="M408 -153c-80 0 -121.665 45.332 -124.998 135.999c-6 -0.666992 -13 -1 -21 -1c-71.333 0 -127.833 31.167 -169.5 93.5s-62.5 146.833 -62.5 253.5c0 110.667 22 197.334 66 260.001s105 94 183 94c77.333 0 137.833 -30.667 181.5 -92s65.5 -146.333 65.5 -255
c0 -162.667 -44 -269 -132 -319v-9c0 -20.667 7 -31 21 -31c7.33301 0 12.666 3 15.999 9c0 12.667 4.66699 24.5 14 35.5s20.666 16.5 33.999 16.5c34 0 51 -22.333 51 -67c0 -39.333 -10.667 -69.833 -32 -91.5s-51.333 -32.5 -90 -32.5zM277.002 271.999
c20.667 0 37.833 -8.16797 51.5 -24.501s21.167 -37.833 22.5 -64.5c15.333 32.667 23 87 23 163c0 135.333 -32.333 203 -97 203c-64 0 -96 -72.667 -96 -218c0 -142 32.333 -213 97 -213c-6 16.667 -18 36.667 -36 60c-15.333 20.667 -23 36.334 -23 47.001
c0 12.667 5.83301 23.667 17.5 33s25.167 14 40.5 14z" />
    <glyph glyph-name="R" unicode="R" horiz-adv-x="575" 
d="M264 277c-3.33301 0 -10.667 -1 -22 -3l1 -126c0 -12 4 -18 12 -18h2l20 1c12 0 22.333 -6.33301 31 -19s13 -28 13 -46c0 -20 -5.83301 -36.5 -17.5 -49.5s-26.167 -19.5 -43.5 -19.5c-10 0 -24.667 1 -44 3s-34 3 -44 3s-24.833 -1 -44.5 -3s-34.167 -3 -43.5 -3
c-18.667 0 -34 7.16699 -46 21.5s-18 32.5 -18 54.5c0 17.333 4 32 12 44s17.333 18 28 18h5c2.66699 -0.666992 4.83398 -1.16699 6.50098 -1.5s4.16699 -0.5 7.5 -0.5c9.33301 0 14 6 14 18v365c0 12 -4.66699 18 -14 18c-2 0 -5.16699 -0.333008 -9.5 -1s-7.5 -1 -9.5 -1
c-11.333 0 -20.833 6 -28.5 18s-11.5 26.667 -11.5 44c0 21.333 6 39.333 18 54s26.667 22 44 22h4l61 -5c8 -0.666992 13.333 -1 16 -1c23.333 0 63.333 1.33301 120 4c28.667 1.33301 51 2 67 2c48 0 85.833 -15.5 113.5 -46.5s41.5 -73.167 41.5 -126.5
c0 -40 -7.83301 -71.333 -23.5 -94s-41.834 -40.667 -78.501 -54c64 -12.667 96 -51 96 -115v-86c0 -12.667 4 -19 12 -19c2.66699 0 6.5 0.333008 11.5 1s8.5 1 10.5 1c28 0 42 -21 42 -63c0 -21.333 -5.33301 -38.5 -16 -51.5s-24.667 -19.5 -42 -19.5h-100
c-44 0 -66 32.667 -66 98v86c0 64 -29 96 -87 96zM241.999 493l0.00195312 -102.999c7.33301 -0.666992 14.666 -1 21.999 -1c60 0 90 26.667 90 80c0 19.333 -6.83301 35.666 -20.5 48.999s-30.834 20 -51.501 20c-26.667 0 -40 -15 -40 -45z" />
    <glyph glyph-name="S" unicode="S" horiz-adv-x="490" 
d="M216 681c42 0 79.333 -15.335 112 -46.002c7.33301 26 24.333 39 51 39c38 0 57 -17.667 57 -53c0 -9.33301 -0.666992 -21.333 -2 -36c-2 -22 -3 -35.667 -3 -41c0 -8 0.666992 -19.667 2 -35s2 -27 2 -35c0 -34 -19.333 -51 -58 -51
c-35.333 0 -55.666 15.5 -60.999 46.5s-13 52.167 -23 63.5s-26 17 -48 17c-16.667 0 -30.5 -5.16699 -41.5 -15.5s-16.5 -23.833 -16.5 -40.5c0 -20.667 5.83301 -35.667 17.5 -45s37.167 -19 76.5 -29c122 -31.333 183 -101.666 183 -210.999
c0 -62.667 -18.333 -115.167 -55 -157.5s-82 -63.5 -136 -63.5c-46.667 0 -90.667 14.333 -132 43c-6.66699 -26.667 -23.334 -40 -50.001 -40c-38.667 0 -58 20 -58 60c0 9.33301 1 24.666 3 45.999c1.33301 14.667 2 27.667 2 39c0 8.66699 -0.833008 21.334 -2.5 38.001
s-2.5 29.334 -2.5 38.001c0 34.667 23.333 52 70 52c38 0 58.333 -18.333 61 -55c4.66699 -60 30 -90 76 -90c20.667 0 38.167 6.66699 52.5 20s21.5 30 21.5 50c0 20.667 -7.33301 37.167 -22 49.5s-41.334 23.833 -80.001 34.5c-81.333 23.333 -133.666 60 -156.999 110
c-13.333 28.667 -20 59.667 -20 93c0 58.667 17.167 107.5 51.5 146.5s77.5 58.5 129.5 58.5z" />
    <glyph glyph-name="T" unicode="T" horiz-adv-x="530" 
d="M190 152l0.00292969 335.005c0 18 -0.666992 30 -2 36c-4 13.333 -12.333 20 -25 20c-16.667 0 -25 -12.333 -25 -37v-8l4 -34c0.666992 -6 1 -13.667 1 -23c0 -56.667 -21 -85 -63 -85c-40 0 -60 23.333 -60 70c0 12 0.833008 29.667 2.5 53s2.5 41 2.5 53
c0 9.33301 -0.5 23.666 -1.5 42.999s-1.5 33.666 -1.5 42.999c0 34.667 16.333 52 49 52h4l94 -4c46.667 -2 90 -3 130 -3c35.333 0 63.666 1 84.999 3c28 2.66699 53 4 75 4c34 0 51 -18.667 51 -56c0 -0.666992 -0.333008 -5.33398 -1 -14.001s-1 -19 -1 -31
c-0.666992 -30 -1 -43 -1 -39c0 -10.667 0.5 -26.334 1.5 -47.001s1.5 -36.334 1.5 -47.001c0 -54.667 -19.667 -82 -59 -82c-42.667 0 -64 27.333 -64 82c0 16.667 0.666992 30.667 2 42l4 35c0 20.667 -8.66699 31 -26 31c-18 0 -27 -17.667 -27 -53l1 -339
c0.666992 -14.667 5 -22 13 -22c3.33301 0 8.33301 0.833008 15 2.5s11.667 2.5 15 2.5c32 0 48 -21.333 48 -64c0 -22 -5.83301 -39.833 -17.5 -53.5s-27.167 -20.5 -46.5 -20.5c-11.333 0 -28.5 1 -51.5 3s-40.167 3 -51.5 3c-12 0 -29.667 -1 -53 -3s-41 -3 -53 -3
c-18 0 -32.667 6.66699 -44 20s-17 31 -17 53c0 42.667 16.667 64 50 64c3.33301 0 8.16602 -0.666992 14.499 -2s11.166 -2 14.499 -2c8.66699 0 13 7.33301 13 22z" />
    <glyph glyph-name="U" unicode="U" horiz-adv-x="587" 
d="M511 516l0.000976562 -308.002c0 -73.333 -18.833 -129.5 -56.5 -168.5s-92.167 -58.5 -163.5 -58.5c-67.333 0 -119.833 19.167 -157.5 57.5s-56.5 91.833 -56.5 160.5v308c0 15.333 -2.66699 24 -8 26c-2 0 -7.66699 0.333008 -17 1c-23.333 1.33301 -35 21.333 -35 60
c0 22 5.5 40.167 16.5 54.5s24.833 21.5 41.5 21.5c8 0 20.667 -1.16699 38 -3.5s30.666 -3.5 39.999 -3.5c12.667 0 25.667 1 39 3c17.333 2.66699 29.666 4 36.999 4c34.667 0 52 -25.667 52 -77c0 -35.333 -8.33301 -54.666 -25 -57.999l-20 -4
c-5.33301 -2 -8 -12 -8 -30v-271c0 -41.333 4.5 -69.833 13.5 -85.5s25.833 -23.5 50.5 -23.5c26.667 0 44.667 8 54 24s14 46.667 14 92v270c0 14.667 -2.66699 22.667 -8 24l-20 6c-14.667 4.66699 -22 22.667 -22 54c0 52.667 17.333 79 52 79
c8.66699 0 21.834 -1.16699 39.501 -3.5s31.167 -3.5 40.5 -3.5c14 0 31.667 1.66699 53 5c10 1.33301 17.667 2 23 2c15.333 0 28 -6.5 38 -19.5s15 -29.833 15 -50.5c0 -37.333 -10.333 -58.666 -31 -63.999l-22 -6z" />
    <glyph glyph-name="V" unicode="V" horiz-adv-x="581" 
d="M228 502l61 -325.001l64 328c1.33301 6.66699 2 11.334 2 14.001c0 10.667 -2.66699 16.667 -8 18l-13 4c-17.333 5.33301 -26 25.666 -26 60.999c0 45.333 16.667 68 50 68c10 0 24.5 -1.16699 43.5 -3.5s33.5 -3.5 43.5 -3.5c12.667 0 32.667 1.66699 60 5
c8.66699 1.33301 16.334 2 23.001 2c17.333 0 31.666 -7.16699 42.999 -21.5s17 -31.833 17 -52.5c0 -17.333 -4 -32.166 -12 -44.499s-17.667 -18.5 -29 -18.5h-17c-7.33301 0 -13 -8 -17 -24l-126 -466c-8.66699 -31.333 -21.667 -47 -39 -47
c-6 0 -15.167 0.666992 -27.5 2s-21.5 2 -27.5 2c-14 -0 -27.333 -0.666992 -40 -2s-20.667 -2 -24 -2c-21.333 0 -36 15.667 -44 47l-118 466c-4 16.667 -10 24.667 -18 24l-20 -1c-8.66699 -0.666992 -16.834 5.66602 -24.501 18.999s-11.5 28 -11.5 44
c0 22 5.83301 40 17.5 54s26.834 21 45.501 21c8.66699 0 22 -1.16699 40 -3.5s31.667 -3.5 41 -3.5c18 0 33.667 1 47 3c18 2.66699 31 4 39 4c34.667 0 52 -22 52 -66c0 -33.333 -10 -54 -30 -62c-12.667 -5.33301 -19 -12.333 -19 -21
c0 -5.33301 0.666992 -11.666 2 -18.999z" />
    <glyph glyph-name="W" unicode="W" horiz-adv-x="743" 
d="M199 500l32.001 -347.997l80 478c4.66699 26.667 22.667 40 54 40c23.333 0 39 -1.66699 47 -5c14 -5.33301 22.333 -17 25 -35l70 -478l39 352c1.33301 12 2 17.333 2 16c0 7.33301 -2.33301 12 -7 14h-21c-11.333 0 -21 6.16699 -29 18.5s-12 27.5 -12 45.5
c0 19.333 5.66699 36.166 17 50.499s25 21.5 41 21.5c8 0 20.167 -1.16699 36.5 -3.5s28.833 -3.5 37.5 -3.5c9.33301 0 22.666 1.16699 39.999 3.5s30.333 3.5 39 3.5c17.333 0 31.666 -6.5 42.999 -19.5s17 -29.5 17 -49.5c0 -40 -13.333 -60.667 -40 -62
c-8 -0.666992 -13.333 -2.5 -16 -5.5s-5 -10.833 -7 -23.5l-83 -481c-4 -21.333 -17.333 -32 -40 -32c-6.66699 0 -16.667 0.5 -30 1.5s-23.333 1.5 -30 1.5c-6 0 -14.833 -0.666992 -26.5 -2s-20.5 -2 -26.5 -2c-19.333 0 -31 13 -35 39l-46 312l-49 -312
c-4 -26 -19.333 -39 -46 -39c-4.66699 0 -8 0.333008 -10 1l-37 3c-4 0 -17.667 -1 -41 -3c-3.33301 -0.666992 -7.66602 -1 -12.999 -1c-22.667 0 -36 13 -40 39l-78 475c-2.66699 16 -7.33398 24.333 -14.001 25l-16 2c-9.33301 1.33301 -17.166 7.66602 -23.499 18.999
s-9.5 24.666 -9.5 39.999c0 20.667 5.66699 38.167 17 52.5s25.666 21.5 42.999 21.5c8.66699 0 21.5 -1.16699 38.5 -3.5s29.833 -3.5 38.5 -3.5s21.334 1.16699 38.001 3.5s29.334 3.5 38.001 3.5c17.333 0 31.666 -7 42.999 -21s17 -31.667 17 -53
c0 -39.333 -15 -59.666 -45 -60.999c-15.333 -0.666992 -23 -7.33398 -23 -20.001c0 -2.66699 0.333008 -7.66699 1 -15z" />
    <glyph glyph-name="X" unicode="X" horiz-adv-x="589" 
d="M97 155l98.999 182.003l-101 179c-7.33301 12.667 -14.666 19 -21.999 19h-12l-3 -1c-27.333 0 -41 19.667 -41 59c0 23.333 5.5 42 16.5 56s25.833 21 44.5 21c8.66699 0 21.667 -1.16699 39 -3.5s30.333 -3.5 39 -3.5c9.33301 0 24 1.33301 44 4
c15.333 2 25.333 3 30 3c33.333 0 50 -20.667 50 -62c0 -25.333 -6.66699 -41.666 -20 -48.999l-9 -5c-4 -2 -6 -5 -6 -9c0 -0.666992 0.333008 -1.33398 1 -2.00098v-2l8 -18l41 -107l47 113c2 4.66699 3 9.66699 3 15c0 4.66699 -1.66699 8 -5 10
c-0.666992 0.666992 -3 2.33398 -7 5.00098c-14 7.33301 -21 23 -21 47c0 42.667 17.333 64 52 64c8 0 19.667 -1 35 -3c20.667 -2.66699 35 -4 43 -4c8.66699 0 21.167 1.16699 37.5 3.5s28.833 3.5 37.5 3.5c16.667 0 30.5 -7.16699 41.5 -21.5s16.5 -32.833 16.5 -55.5
c0 -21.333 -3.66699 -36.333 -11 -45s-20.333 -13.334 -39 -14.001c-11.333 -0.666992 -21 -7.66699 -29 -21l-100 -176l102 -192c6.66699 -12 13.334 -18 20.001 -18h2l19 2c1.33301 0.666992 2.66602 1 3.99902 1c26.667 0 40 -20.333 40 -61
c0 -20.667 -5.33301 -37.834 -16 -51.501s-24.334 -20.5 -41.001 -20.5c-9.33301 0 -21 1.33301 -35 4c-16 1.33301 -29.667 2 -41 2c-19.333 0 -34.666 -0.666992 -45.999 -2c-22.667 -2.66699 -36.667 -4 -42 -4c-34 0 -51 21.667 -51 65c0 23.333 4.33301 38.333 13 45
l18 11c2.66699 2.66699 4 5.66699 4 9c0 1.33301 -2 7.33301 -6 18l-45 119l-52 -126c-1.33301 -5.33301 -2 -8.33301 -2 -9c0 -4.66699 1.33301 -7.33398 4 -8.00098l16 -12c12 -8.66699 18 -24.334 18 -47.001c0 -43.333 -16.667 -65 -50 -65
c-3.33301 0 -17 1.33301 -41 4c-12 1.33301 -27 2 -45 2c-9.33301 0 -22.666 -1 -39.999 -3s-30.333 -3 -39 -3c-16.667 0 -30.334 6.83301 -41.001 20.5s-16 31.167 -16 52.5c0 40 14 60 42 60h5c12 -2 18.333 -3 19 -3c6 0 14 9.33301 24 28z" />
    <glyph glyph-name="Y" unicode="Y" horiz-adv-x="562" 
d="M237 510l42.998 -113.999l47 114c4 10 6 16.333 6 19c0 4 -1.33301 7.33301 -4 10l-16 12c-10 7.33301 -15 22.666 -15 45.999c0 22 4.83301 39.667 14.5 53s22.167 20 37.5 20c8 0 20 -1.16699 36 -3.5s28.333 -3.5 37 -3.5c13.333 0 30.333 1.66699 51 5
c8 1.33301 18.333 2 31 2c42.667 0 64 -25.333 64 -76c0 -41.333 -13.333 -61.333 -40 -60l-23 1l-17 -10l-9 -19l-105 -209c-13.333 -26.667 -20 -54.334 -20 -83.001v-47l2 -18c1.33301 -10.667 2.5 -17 3.5 -19s4.16699 -3 9.5 -3c3.33301 0 8 0.666992 14 2
s10.667 2 14 2c32 0 48 -21.333 48 -64c0 -46.667 -20.333 -70 -61 -70c-7.33301 0 -24 1.33301 -50 4c-13.333 1.33301 -35.666 2 -66.999 2c-18.667 0 -31.334 -0.333008 -38.001 -1l-48 -5c-1.33301 -0.666992 -3.66602 -1 -6.99902 -1c-18 0 -32.667 6.83301 -44 20.5
s-17 31.167 -17 52.5c0 41.333 16 62 48 62c3.33301 0 8 -0.666992 14 -2s10.667 -2 14 -2c8.66699 0 13.334 7.33301 14.001 22l1 25v32c0 32.667 -5.33301 59.334 -16 80.001l-11 21l-99 203c-8 16 -15 24 -21 24h-21c-29.333 0 -44 20.333 -44 61c0 50 21 75 63 75
c6.66699 0 15.667 -0.666992 27 -2c28 -3.33301 46.333 -5 55 -5s21.667 1.16699 39 3.5s30.333 3.5 39 3.5c33.333 0 50 -23 50 -69c0 -24 -5 -40 -15 -48l-16 -13c-3.33301 -2 -5 -5.33301 -5 -10c0 -1.33301 2.33301 -8 7 -20z" />
    <glyph glyph-name="Z" unicode="Z" horiz-adv-x="506" 
d="M37 149l246.996 393.998h-85c-26.667 0 -40 -11.333 -40 -34c0 -9.33301 0.666992 -19 2 -29c0.666992 -5.33301 1 -14 1 -26c0 -47.333 -22 -71 -66 -71c-40 0 -60 22 -60 66c0 10 0.5 25.333 1.5 46s1.5 36 1.5 46v44c-0.666992 16.667 -1 26.334 -1 29.001
c0 22 4.66699 37 14 45s27 12 53 12c16.667 0 41.334 -1.33301 74.001 -4s57.334 -4 74.001 -4c17.333 0 43 1.16699 77 3.5s59.667 3.5 77 3.5c23.333 0 40 -5 50 -15s15 -27 15 -51c0 -31.333 -9.66699 -62.333 -29 -93l-240 -380h95c20 0 33.833 2.66699 41.5 8
s11.5 17 11.5 35c0 7.33301 -0.666992 20.333 -2 39c-2.66699 15.333 -4 28 -4 38c0 44 22.667 66 68 66c43.333 0 65 -23 65 -69c0 -10 -0.666992 -21 -2 -33c-3.33301 -30 -5 -65.667 -5 -107l1 -20c0.666992 -13.333 1 -24.666 1 -33.999c0 -20 -4.16699 -34 -12.5 -42
s-23.166 -12 -44.499 -12c-19.333 0 -48.666 0.666992 -87.999 2c-20 0.666992 -44 1 -72 1c-45.333 0 -76 -0.333008 -92 -1c-31.333 -1.33301 -59.333 -2 -84 -2c-46.667 0 -70 23.667 -70 71c0 23.333 9 49.333 27 78z" />
    <glyph glyph-name="bracketleft" unicode="[" horiz-adv-x="321" 
d="M195 532l-0.00195312 -575c0 -12 5.66699 -18 17 -18c2 0 7.66699 0.666992 17 2h6c2.66699 0.666992 4.66699 1 6 1c25.333 0 38 -18.333 38 -55c0 -39.333 -18.667 -59 -56 -59c-5.33301 0 -19.666 1.33301 -42.999 4c-17.333 2 -30 3 -38 3
c-6.66699 0 -15 -0.666992 -25 -2l-30 -4c-1.33301 -0.666992 -3 -1 -5 -1c-19.333 0 -29 17 -29 51v742c0 22.667 3.66699 37 11 43c4.66699 3.33301 12.334 5 23.001 5c8 0 19.5 -0.833008 34.5 -2.5s26.5 -2.5 34.5 -2.5c8.66699 0 21.5 1 38.5 3s29.833 3 38.5 3
c32 0 48 -20.333 48 -61c0 -35.333 -14.333 -53 -43 -53c-3.33301 0 -8 0.333008 -14 1s-10.333 1 -13 1c-10.667 0 -16 -8.66699 -16 -26z" />
    <glyph glyph-name="backslash" unicode="\" 
d="M27 750h124l306 -833h-123z" />
    <glyph glyph-name="bracketright" unicode="]" horiz-adv-x="321" 
d="M126 -33l-0.00292969 573c0 12.667 -5.66699 19 -17 19c-2 0 -7.66699 -0.666992 -17 -2h-6c-2.66699 -0.666992 -4.66699 -1 -6 -1c-25.333 0 -38 18.333 -38 55c0 39.333 18.333 59 55 59c6.66699 0 21.334 -1.33301 44.001 -4c16.667 -2 29.334 -3 38.001 -3
c8 0 16 0.666992 24 2l31 5h5c18.667 0 28 -17 28 -51v-742c0 -20 -2.16699 -33 -6.5 -39s-13.166 -9 -26.499 -9c-8 0 -19.5 0.833008 -34.5 2.5s-26.5 2.5 -34.5 2.5c-8.66699 0 -22 -1 -40 -3s-30.333 -3 -37 -3c-32 0 -48 20.333 -48 61c0 35.333 14 53 42 53
c8 0 13.667 -0.333008 17 -1c1.33301 0 3 -0.333008 5 -1h5c11.333 0 17 9 17 27z" />
    <glyph glyph-name="asciicircum" unicode="^" 
d="M250 569l-112 -233h-132l161 334h166l161 -334h-132z" />
    <glyph glyph-name="underscore" unicode="_" 
d="M0 -161v114h500v-114h-500z" />
    <glyph glyph-name="grave" unicode="`" 
d="M195 719c5.33301 0 13 -2.33398 23 -7.00098l88 -42c19.333 -9.33301 30.333 -15 33 -17c10.667 -7.33301 16 -17.333 16 -30c0 -11.333 -4 -22.833 -12 -34.5s-17.667 -17.5 -29 -17.5c-5.33301 0 -18 3.33301 -38 10l-92 31c-26 8.66699 -39 22.334 -39 41.001
c0 18 5 33.5 15 46.5s21.667 19.5 35 19.5z" />
    <glyph glyph-name="a" unicode="a" horiz-adv-x="446" 
d="M361 -14c-36.667 0 -61.333 16.999 -74 50.999c-34.667 -34 -75.667 -51 -123 -51c-42 0 -75.5 13.5 -100.5 40.5s-37.5 63.5 -37.5 109.5c0 48.667 11.167 85.167 33.5 109.5s61.166 41.833 116.499 52.5c29.333 6 49.5 13.333 60.5 22s16.5 21.667 16.5 39
c0 33.333 -12.667 50 -38 50c-14.667 0 -22 -6.33301 -22 -19c0 -6.66699 0.333008 -13 1 -19v-3c0 -16.667 -5.83301 -30.667 -17.5 -42s-26.167 -17 -43.5 -17c-22 0 -40.333 7.83301 -55 23.5s-22 35.167 -22 58.5c0 34.667 14.667 62.5 44 83.5s68.333 31.5 117 31.5
c56.667 0 98.167 -13.167 124.5 -39.5s39.5 -68.166 39.5 -125.499v-198c0 -22.667 4 -34 12 -34c2.66699 0 5.33398 0.333008 8.00098 1c0.666992 0 2 0.333008 4 1h3c21.333 0 32 -15.667 32 -47c0 -22 -7.5 -40.5 -22.5 -55.5s-33.833 -22.5 -56.5 -22.5z
M253.001 195.999l0.999023 19l-8 -2l-30 -9c-23.333 -6.66699 -39.166 -14.167 -47.499 -22.5s-12.5 -20.833 -12.5 -37.5c0 -32.667 14 -49 42 -49c16 0 29.167 6 39.5 18s15.5 27.333 15.5 46v37z" />
    <glyph glyph-name="b" unicode="b" horiz-adv-x="478" 
d="M188 631l-1 -173c28 32 64 48 108 48c46.667 0 84 -22.167 112 -66.5s42 -103.5 42 -177.5c0 -85.333 -15.5 -152.333 -46.5 -201s-73.5 -73 -127.5 -73c-43.333 0 -80 17 -110 51c-9.33301 -31.333 -27 -47 -53 -47c-14.667 0 -27 5.33301 -37 16s-15 24 -15 40v479
c0 20.667 -5.33301 31 -16 31h-13c-17.333 0 -26 17.667 -26 53c0 39.333 15.333 59 46 59c9.33301 0 21 -1 35 -3s25.333 -2.66699 34 -2l41 3c18 0 27 -12.333 27 -37zM248 383c-42 0 -63 -45.001 -63 -135.001c0 -40 5.83301 -72.333 17.5 -97s27.167 -37 46.5 -37
c20 0 35.667 12.333 47 37s17 58.334 17 101.001c0 39.333 -6 71 -18 95s-27.667 36 -47 36z" />
    <glyph glyph-name="c" unicode="c" horiz-adv-x="420" 
d="M252 331c0 13.333 4.33301 26.668 13 40.001c-10 14.667 -21.333 22 -34 22c-22 0 -40 -13.333 -54 -40s-21 -61.334 -21 -104.001c0 -44 6.16699 -79.333 18.5 -106s28.833 -40 49.5 -40c22.667 0 38.667 18.667 48 56c5.33301 22 12.333 37.333 21 46
s21.334 13 38.001 13c40 0 60 -23 60 -69c0 -45.333 -16.167 -83.833 -48.5 -115.5s-71.833 -47.5 -118.5 -47.5c-60.667 0 -108.5 21.833 -143.5 65.5s-52.5 103.167 -52.5 178.5c0 85.333 18.167 152.833 54.5 202.5s85.833 74.5 148.5 74.5c44 0 81 -14.333 111 -43
s45 -63.667 45 -105c0 -26 -6.83301 -46.833 -20.5 -62.5s-31.834 -23.5 -54.501 -23.5c-18 0 -32.5 5.33301 -43.5 16s-16.5 24.667 -16.5 42z" />
    <glyph glyph-name="d" unicode="d" horiz-adv-x="480" 
d="M186 506c30.667 0 62.332 -13.333 94.999 -40v62c0 22 -4 33 -12 33c-0.666992 0 -4.33398 -0.666992 -11.001 -2h-5c-2 -0.666992 -3.66699 -1 -5 -1c-24.667 0 -37 17.333 -37 52c0 40 16.333 60 49 60c6.66699 0 19.667 -1 39 -3c16 -2 28.333 -2.66699 37 -2l46 4
c19.333 0 29 -13 29 -39v-482c0 -28 5 -42 15 -42c0.666992 0 2.33398 0.333008 5.00098 1h5c2 0.666992 5 1 9 1c21.333 0 32 -16 32 -48c0 -42 -16.333 -63 -49 -63c-5.33301 0 -15.166 1.16699 -29.499 3.5s-25.5 2.83301 -33.5 1.5l-39 -5h-4
c-19.333 0 -29 10.667 -29 32c0 0.666992 0.333008 2 1 4v7c-30 -37.333 -66.667 -56 -110 -56c-47.333 0 -85 23.333 -113 70s-42 109.667 -42 189c0 81.333 14 145.5 42 192.5s66.333 70.5 115 70.5zM222.998 381c-18.667 0 -33.833 -11.832 -45.5 -35.499
s-17.5 -55.167 -17.5 -94.5c0 -42.667 5.5 -76.334 16.5 -101.001s25.833 -37 44.5 -37c40.667 0 61 43 61 129c0 42.667 -5.33301 76.5 -16 101.5s-25 37.5 -43 37.5z" />
    <glyph glyph-name="e" unicode="e" horiz-adv-x="432" 
d="M361 217h-203v-16c0 -70.667 21.667 -106 65 -106c30 0 49.333 17 58 51c4.66699 18.667 10.334 30.667 17.001 36s19 8 37 8c42 0 63 -21 63 -63c0 -40.667 -15.833 -74.334 -47.5 -101.001s-71.5 -40 -119.5 -40c-64 0 -113.833 21.833 -149.5 65.5
s-53.5 104.834 -53.5 183.501c0 85.333 17.167 151.833 51.5 199.5s82.166 71.5 143.499 71.5c55.333 0 99.333 -20 132 -60s49 -93.667 49 -161c0 -26.667 -3 -44.667 -9 -54s-17.333 -14 -34 -14zM164 317h108.998v11c0 20 -4.66699 36.333 -14 49s-21.666 19 -36.999 19
c-35.333 0 -54.666 -26.333 -57.999 -79z" />
    <glyph glyph-name="f" unicode="f" horiz-adv-x="320" 
d="M247 566c0 6 0.998047 14.002 2.99805 24.002c-25.333 -3.33301 -38 -26.333 -38 -69c0 -14.667 1.5 -23.334 4.5 -26.001s7.16699 -4 12.5 -4c2 0 3.66699 0.333008 5 1l26 2h3c29.333 0 44 -17.667 44 -53c0 -36 -16.667 -54 -50 -54c-3.33301 0 -9 0.666992 -17 2
c-1.33301 0 -3.33301 0.333008 -6 1h-6c-6.66699 0 -10.834 -1.83301 -12.501 -5.5s-2.5 -13.167 -2.5 -28.5v-244c0.666992 -4.66699 3.66699 -7.66699 9 -9h2c2.66699 0 7 0.666992 13 2s11 2 15 2c34 0 51 -17.667 51 -53c0 -16.667 -4.33301 -30.334 -13 -41.001
s-19.667 -16 -33 -16c-7.33301 0 -22.333 1 -45 3c-15.333 1.33301 -32.666 2 -51.999 2c-18 0 -34 -0.666992 -48 -2c-21.333 -2 -36 -3 -44 -3c-32.667 0 -49 21 -49 63c0 32 10.667 48 32 48c4 0 7.33301 -0.333008 10 -1h5c2 -0.666992 3.33301 -1 4 -1
c10 0 15 14 15 42v216c0 16 -3.66699 23.667 -11 23l-21 -1c-10.667 0 -19.5 5.16699 -26.5 15.5s-10.5 23.833 -10.5 40.5c0 15.333 3.83301 28.5 11.5 39.5s16.834 16.167 27.501 15.5l17 -1c9.33301 -0.666992 14 5.33301 14 18v3c-0.666992 2.66699 -1 7 -1 13
c0 45.333 8 78.333 24 99c26.667 34.667 66.334 52 119.001 52c38.667 0 69.5 -9.16699 92.5 -27.5s34.5 -42.833 34.5 -73.5c0 -19.333 -5.33301 -35.333 -16 -48s-24 -19 -40 -19c-14.667 0 -27 5.16699 -37 15.5s-15 22.833 -15 37.5z" />
    <glyph glyph-name="g" unicode="g" horiz-adv-x="419" 
d="M309 483l-0.00195312 -6.00391c48.667 -30 73 -78.333 73 -145c0 -51.333 -15.167 -93.166 -45.5 -125.499s-69.5 -48.5 -117.5 -48.5c-27.333 0 -52.666 6.33301 -75.999 19c-10 -7.33301 -15 -15 -15 -23c0 -19.333 28.667 -30.333 86 -33
c24 -1.33301 44 -2.33301 60 -3c24 -1.33301 46.333 -6.66602 67 -15.999c52 -22.667 78 -64 78 -124c0 -53.333 -19.833 -96.666 -59.5 -129.999s-91.834 -50 -156.501 -50c-60.667 0 -108.5 13 -143.5 39s-52.5 61 -52.5 105c0 43.333 19 79 57 107
c-30 23.333 -45 52.333 -45 87s17.667 69.667 53 105c-14.667 30 -22 63.333 -22 100c0 49.333 15.333 88.833 46 118.5s71.667 44.5 123 44.5h6c3.33301 67.333 36.333 101 99 101c26.667 0 48.334 -6.83301 65.001 -20.5s25 -31.5 25 -53.5
c0 -17.333 -4.66699 -31.666 -14 -42.999s-20.666 -17 -33.999 -17c-14.667 0 -24.667 3.66699 -30 11l-9 10c-2 3.33301 -5 5 -9 5c-6 0 -9 -4.66699 -9 -14zM215.998 398.996c-26.667 0 -39.998 -23.667 -39.998 -71c0 -44.667 13.333 -67 40 -67
c11.333 0 20.666 6.66699 27.999 20s11 30 11 50c0 19.333 -3.83301 35.5 -11.5 48.5s-16.834 19.5 -27.501 19.5zM218 9.99609c-14 0.666992 -29.332 2 -45.999 4c-26 -11.333 -39 -27.333 -39 -48c0 -14.667 7.16699 -26.667 21.5 -36s32.166 -14 53.499 -14
c52 0 78 16.333 78 49c0 27.333 -22.667 42.333 -68 45z" />
    <glyph glyph-name="h" unicode="h" horiz-adv-x="488" 
d="M199 628l-0.000976562 -170c26.667 32.667 61 49 103 49c37.333 0 66.833 -15.167 88.5 -45.5s32.5 -71.833 32.5 -124.5v-189c0 -28 5 -42 15 -42c0.666992 0 2.33398 0.333008 5.00098 1h5c2 0.666992 5 1 9 1c21.333 0 32 -16 32 -48c0 -42 -16 -63 -48 -63
c-7.33301 0 -18.333 0.833008 -33 2.5s-25.667 2.5 -33 2.5s-18.5 -0.833008 -33.5 -2.5s-26.167 -2.5 -33.5 -2.5c-30.667 0 -46 20.667 -46 62c0 22.667 5.5 37 16.5 43s16.5 19.667 16.5 41v139c0 36 -3.5 61.167 -10.5 75.5s-19.167 21.5 -36.5 21.5
c-32.667 0 -49 -35 -49 -105v-126c0 -15.333 1 -25 3 -29s7.66699 -8.66699 17 -14c12 -6.66699 18 -22.667 18 -48c0 -40 -14 -60 -42 -60c-6.66699 0 -17 0.833008 -31 2.5s-24.667 2.5 -32 2.5c-8.66699 0 -21.5 -0.833008 -38.5 -2.5s-29.833 -2.5 -38.5 -2.5
c-32.667 0 -49 21 -49 63c0 32 10.333 48 31 48c4.66699 0 8 -0.333008 10 -1h5c2 -0.666992 3.33301 -1 4 -1c10.667 0 16 14 16 42v369c0 28 -4.33301 42 -13 42h-5c-2 -0.666992 -3.66699 -1 -5 -1c-5.33301 -1.33301 -9 -2 -11 -2c-23.333 0 -35 18 -35 54
c0 40 15.333 60 46 60c6.66699 0 18.667 -1 36 -3c15.333 -2 27.333 -2.66699 36 -2l39 3h5c22.667 0 34 -13.333 34 -40z" />
    <glyph glyph-name="i" unicode="i" horiz-adv-x="282" 
d="M185 496c18.667 0 28.002 -12 28.002 -36v-312c0 -28 5.33301 -42 16 -42c2 0 5 0.333008 9 1s7 1 9 1c21.333 0 32 -16 32 -48c0 -42.667 -16 -64 -48 -64c-8 0 -19.833 1 -35.5 3s-27.5 3 -35.5 3c-15.333 0 -36 -1.33301 -62 -4c-6.66699 -0.666992 -16 -1 -28 -1
c-34 0 -51 21 -51 63c0 32 10.667 48 32 48c4 0 7.33301 -0.333008 10 -1h5c2 -0.666992 3.33301 -1 4 -1c10 0 15 14 15 42v196c0 28 -4.33301 42 -13 42c-2 0 -5.33301 -0.5 -10 -1.5s-8.33398 -1.5 -11.001 -1.5c-22.667 0 -34 18 -34 54c0 40 15 60 45 60
c6.66699 0 19 -1 37 -3c15.333 -2 27.666 -2.66699 36.999 -2zM135.002 526c-22.667 0 -41.167 8.16895 -55.5 24.502s-21.5 37.166 -21.5 62.499c0 26 7.16699 47.333 21.5 64s32.5 25 54.5 25s40.5 -8.5 55.5 -25.5s22.5 -38.167 22.5 -63.5
c0 -24.667 -7.33301 -45.334 -22 -62.001s-33 -25 -55 -25z" />
    <glyph glyph-name="j" unicode="j" horiz-adv-x="271" 
d="M54 -76c0 -12 -3.66602 -26.665 -10.999 -43.998c18.667 7.33301 31.5 21.166 38.5 41.499s10.5 54.166 10.5 101.499v321c0 28 -4.33301 42 -13 42c-2 0 -5.33301 -0.5 -10 -1.5s-8.33398 -1.5 -11.001 -1.5c-23.333 0 -35 18 -35 54c0 40 15 60 45 60c8 0 22 -1 42 -3
c18 -2 32.333 -2.66699 43 -2l37 3h3c19.333 0 29 -10.333 29 -31v-459c0 -142.667 -55.667 -214 -167 -214c-38 0 -69.333 10.167 -94 30.5s-37 46.5 -37 78.5c0 24.667 6.66699 45 20 61s30.333 24 51 24c16.667 0 30.667 -5.83301 42 -17.5s17 -26.167 17 -43.5z
M142.001 526.002c-22.667 0 -41.167 8.16895 -55.5 24.502s-21.5 37.166 -21.5 62.499c0 26 7.16699 47.333 21.5 64s32.5 25 54.5 25s40.5 -8.5 55.5 -25.5s22.5 -38.167 22.5 -63.5c0 -24.667 -7.33301 -45.334 -22 -62.001s-33 -25 -55 -25z" />
    <glyph glyph-name="k" unicode="k" horiz-adv-x="505" 
d="M202 638l-0.00292969 -335.999l47 63c8.66699 11.333 13 19.666 13 24.999c0 3.33301 -1 5.33301 -3 6l-15 10c-10 6.66699 -15 20.334 -15 41.001c0 33.333 14.667 50 44 50c9.33301 0 23.666 -0.833008 42.999 -2.5s34 -2.5 44 -2.5
c8.66699 0 21.834 0.833008 39.501 2.5s30.834 2.5 39.501 2.5c33.333 0 50 -18.667 50 -56c0 -35.333 -12.333 -53 -37 -53h-5l-16 3l-18 -9l-17 -17l-55 -54l84 -178c7.33301 -16 14.333 -24 21 -24l19 2c24.667 0 37 -18.333 37 -55c0 -39.333 -15.667 -59 -47 -59
c-7.33301 0 -18.5 0.833008 -33.5 2.5s-26.167 2.5 -33.5 2.5c-12.667 0 -25.667 -1 -39 -3c-21.333 -1.33301 -32.333 -2 -33 -2c-31.333 0 -47 20.333 -47 61c0 22 2.66699 35.333 8 40l12 11c1.33301 1.33301 2 3.66602 2 6.99902v4c-0.666992 0.666992 -3 5 -7 13
l-42 81l-40 -42v-42c0 -10.667 3.33301 -17.667 10 -21c12.667 -6 20.834 -11.833 24.501 -17.5s5.5 -15.167 5.5 -28.5c0 -44 -14 -66 -42 -66c-3.33301 0 -13.666 0.666992 -30.999 2c-12 2 -24.667 3 -38 3c-10 0 -24 -1 -42 -3c-12 -1.33301 -23 -2 -33 -2
c-33.333 0 -50 21 -50 63c0 32 10.333 48 31 48c4.66699 0 8 -0.333008 10 -1h5c2 -0.666992 3.33301 -1 4 -1c10.667 0 16 14 16 42v369c0 28 -4.33301 42 -13 42c-1.33301 0 -4.66602 -0.666992 -9.99902 -2h-6c-2.66699 -0.666992 -4.33398 -1 -5.00098 -1
c-23.333 0 -35 18 -35 54c0 40 15.333 60 46 60c6.66699 0 19.334 -1.33301 38.001 -4c15.333 -2 27.666 -2.33301 36.999 -1l49 5c19.333 0 29 -10.667 29 -32z" />
    <glyph glyph-name="l" unicode="l" horiz-adv-x="269" 
d="M172 670c18.667 0 28 -11.667 28 -35v-487c0 -28 5.33301 -42 16 -42c0.666992 0 2 0.333008 4 1h5c2 0.666992 5 1 9 1c21.333 0 32 -15.667 32 -47c0 -42.667 -16.667 -64 -50 -64c-7.33301 0 -21.333 1 -42 3c-14 1.33301 -29.333 2 -46 2
c-8 0 -20.333 -0.833008 -37 -2.5s-29 -2.5 -37 -2.5c-32 0 -48 21 -48 63c0 32 10.333 48 31 48c4.66699 0 8 -0.333008 10 -1h5c2 -0.666992 3.33301 -1 4 -1c10.667 0 16 14 16 42v369c0 28 -4.33301 42 -13 42c-2.66699 0 -6.33398 -0.5 -11.001 -1.5s-8 -1.5 -10 -1.5
c-23.333 0 -35 18 -35 54c0 40 15.667 60 47 60c6.66699 0 20.334 -1.33301 41.001 -4c16.667 -2 30 -2.33301 40 -1l38 5h3z" />
    <glyph glyph-name="m" unicode="m" horiz-adv-x="715" 
d="M195 483l0.00195312 -29c24.667 34.667 57.667 52 99 52c35.333 0 68 -18.333 98 -55c38 38 78.667 57 122 57c39.333 0 71.666 -14 96.999 -42s38 -63.667 38 -107v-211c0 -28 5.33301 -42 16 -42c0.666992 0 2 0.333008 4 1h5c2.66699 0.666992 6 1 10 1
c21.333 0 32 -16 32 -48c0 -18.667 -4.5 -33.834 -13.5 -45.501s-20.833 -17.5 -35.5 -17.5c-1.33301 0 -10.666 0.666992 -27.999 2c-12 2 -25.667 3 -41 3c-8 0 -19.667 -0.833008 -35 -2.5s-26.666 -2.5 -33.999 -2.5c-29.333 0 -44 21 -44 63c0 26 6.66699 42 20 48
c10.667 4.66699 16 18.334 16 41.001v145c0 59.333 -14.667 89 -44 89c-30.667 0 -46 -29 -46 -87l1 -166c0.666992 -12 5 -20 13 -24c13.333 -7.33301 20 -22.666 20 -45.999c0 -42 -14 -63 -42 -63c-6.66699 0 -16.334 0.833008 -29.001 2.5s-22.334 2.5 -29.001 2.5
c-8 0 -16.333 -0.666992 -25 -2c-16.667 -2.66699 -25.334 -4 -26.001 -4c-30 0 -45 24 -45 72c0 20.667 6 34.667 18 42c9.33301 5.33301 14.333 12.666 15 21.999v22v140c0 58 -14.333 87 -43 87c-30.667 0 -46 -29 -46 -87l1 -161
c1.33301 -8.66699 2.66602 -14 3.99902 -16s5.33301 -4.66699 12 -8c12.667 -6.66699 19 -21.667 19 -45c0 -44.667 -16 -67 -48 -67c-7.33301 0 -18.166 0.833008 -32.499 2.5s-25.166 2.5 -32.499 2.5s-18.5 -0.833008 -33.5 -2.5s-26.167 -2.5 -33.5 -2.5
c-33.333 0 -50 21 -50 63c0 32 10.667 48 32 48c4 0 7.33301 -0.333008 10 -1h5c2 -0.666992 3.33301 -1 4 -1c10 0 15 14 15 42v196c0 28 -4.33301 42 -13 42c-2 0 -5.33301 -0.5 -10 -1.5s-8.33398 -1.5 -11.001 -1.5c-22.667 0 -34 18 -34 54c0 40 15 60 45 60
c9.33301 0 21 -1 35 -3c9.33301 -1.33301 20 -2 32 -2c8.66699 0 19 0.666992 31 2c8 2 14.333 3 19 3c10.667 0 16 -4.66699 16 -14z" />
    <glyph glyph-name="n" unicode="n" horiz-adv-x="499" 
d="M187 469l0.000976562 -21.001c34 40.667 73 61 117 61c39.333 0 70.833 -14 94.5 -42s35.5 -66 35.5 -114v-205c0 -28 5 -42 15 -42c1.33301 0 3 0.333008 5 1h4c2.66699 0.666992 6 1 10 1c21.333 0 32 -16 32 -48c0 -18.667 -4.5 -33.834 -13.5 -45.501
s-20.833 -17.5 -35.5 -17.5c-5.33301 0 -17 1 -35 3c-12 1.33301 -24 2 -36 2c-7.33301 0 -18.333 -0.833008 -33 -2.5s-25.667 -2.5 -33 -2.5c-28 0 -42 19.333 -42 58c0 24.667 5.83301 40.334 17.5 47.001s17.5 21 17.5 43v155c0 52.667 -15.333 79 -46 79
c-32.667 0 -49 -29.333 -49 -88v-143c0 -24 5.83301 -39.167 17.5 -45.5s17.5 -20.166 17.5 -41.499c0 -42.667 -14.667 -64 -44 -64c-8 0 -19.5 0.833008 -34.5 2.5s-26.5 2.5 -34.5 2.5c-7.33301 0 -18.333 -0.833008 -33 -2.5s-25.667 -2.5 -33 -2.5
c-32.667 0 -49 21 -49 63c0 32 10.667 48 32 48c4 0 7.33301 -0.333008 10 -1h5c2 -0.666992 3.33301 -1 4 -1c10 0 15 14 15 42v196c0 28 -4.33301 42 -13 42c-2 0 -5.33301 -0.5 -10 -1.5s-8.33398 -1.5 -11.001 -1.5c-22.667 0 -34 18 -34 54c0 40 15.333 60 46 60
c4.66699 0 13.334 -0.666992 26.001 -2c19.333 -2 33.666 -3 42.999 -3c4 0 9.5 0.333008 16.5 1s12.5 1 16.5 1c14.667 0 22 -8.33301 22 -25z" />
    <glyph glyph-name="o" unicode="o" horiz-adv-x="448" 
d="M224 -16c-62 0 -110.165 22.668 -144.498 68.001s-51.5 109.333 -51.5 192c0 84 17.167 148.833 51.5 194.5s83.166 68.5 146.499 68.5c61.333 0 108.833 -22.167 142.5 -66.5s50.5 -106.5 50.5 -186.5c0 -86.667 -16.833 -153.334 -50.5 -200.001
s-81.834 -70 -144.501 -70zM226.002 387.001c-42.667 0 -65 -44.3311 -67 -132.998c-0.666992 -2.66699 -1 -6.33398 -1 -11.001c0 -42.667 5.83301 -76.5 17.5 -101.5s27.5 -37.5 47.5 -37.5c43.333 0 65 47.333 65 142c0 43.333 -5.5 77.666 -16.5 102.999
s-26.167 38 -45.5 38z" />
    <glyph glyph-name="p" unicode="p" horiz-adv-x="477" 
d="M296 -15c-28.667 0 -63.002 15.333 -103.002 46v-81c0 -12 1.33301 -20.167 4 -24.5s8.33398 -6.5 17.001 -6.5c2 0 7.33301 0.666992 16 2s15.334 2 20.001 2c26.667 0 40 -18.333 40 -55s-15 -55 -45 -55c-12 0 -29.833 1 -53.5 3s-41.5 3 -53.5 3
c-4.66699 0 -30.667 -1.66699 -78 -5c-10 -0.666992 -18.667 -1 -26 -1c-33.333 0 -50 20 -50 60c0 34.667 13.333 52 40 52c6.66699 0 11.667 -0.5 15 -1.5s7.33301 -1.5 12 -1.5c9.33301 0 14 13.667 14 41v391c0 13.333 -1.16699 22 -3.5 26s-7.5 6 -15.5 6l-5 -1h-2
c-22 0 -33 15.667 -33 47c0 43.333 12.667 65 38 65c6 0 15 -1 27 -3s21 -3 27 -3c5.33301 0 18.666 1.33301 39.999 4h10c16 0 24 -8 24 -24v-30c36 42 76 63 120 63c48.667 0 86.834 -22.5 114.501 -67.5s41.5 -106.167 41.5 -183.5c0 -80.667 -14 -145.5 -42 -194.5
s-64.667 -73.5 -110 -73.5zM257.998 386c-20 0 -35.833 -12.167 -47.5 -36.5s-17.5 -56.833 -17.5 -97.5c0 -41.333 5.66699 -74.833 17 -100.5s26.333 -38.5 45 -38.5c40.667 0 61 47 61 141c0 88 -19.333 132 -58 132z" />
    <glyph glyph-name="q" unicode="q" horiz-adv-x="463" 
d="M284 -48v82.999c-33.333 -33.333 -68.333 -50 -105 -50c-46 0 -82.5 23.333 -109.5 70s-40.5 109.334 -40.5 188.001c0 81.333 14.333 145.5 43 192.5s67.667 70.5 117 70.5c35.333 0 68.666 -16.667 99.999 -50c2.66699 18.667 8.16699 30.834 16.5 36.501
s22.5 8.5 42.5 8.5c25.333 0 42.666 -3.33301 51.999 -10s14 -19.334 14 -38.001v-483c0 -21.333 0.833008 -34.333 2.5 -39s5.83398 -7 12.501 -7c2 0 7 1 15 3h5c2 0.666992 3.33301 1 4 1c26 0 39 -18.667 39 -56c0 -39.333 -17 -59 -51 -59
c-13.333 0 -27.666 1.33301 -42.999 4s-36 4 -62 4c-20 0 -35.667 -0.666992 -47 -2l-18 -2c-22.667 -2.66699 -35.667 -4 -39 -4c-14 0 -25.333 5.66699 -34 17s-13 26 -13 44c0 34 14 51 42 51c4.66699 0 11.167 -0.833008 19.5 -2.5s14.833 -2.5 19.5 -2.5
c8 0 13 1.83301 15 5.5s3 12.5 3 26.5zM227 385.999c-20 0 -36 -12.167 -48 -36.5s-18 -56.833 -18 -97.5s5.83301 -74 17.5 -100s26.5 -39 44.5 -39c40.667 0 61 47 61 141c0 88 -19 132 -57 132z" />
    <glyph glyph-name="r" unicode="r" horiz-adv-x="384" 
d="M189 475l0.000976562 -22.001c30 34 62.333 51 97 51c26 0 47.667 -11.333 65 -34s26 -51 26 -85c0 -28.667 -6.33301 -52.167 -19 -70.5s-28.667 -27.5 -48 -27.5c-16.667 0 -30.5 6.66699 -41.5 20s-16.5 29.666 -16.5 48.999c0 10 2 22.333 6 37
c-30 -23.333 -45 -78.666 -45 -165.999v-74c0 -31.333 4.33301 -47 13 -47c2 0 5.66699 0.666992 11 2c9.33301 1.33301 15 2 17 2c10 0 18.5 -5.33301 25.5 -16s10.5 -23.667 10.5 -39c0 -16.667 -4.33301 -30.5 -13 -41.5s-19.667 -16.5 -33 -16.5
c-6.66699 0 -19.334 1 -38.001 3c-12.667 1.33301 -28.667 2 -48 2c-18 0 -34 -0.666992 -48 -2c-20.667 -2 -34.667 -3 -42 -3c-14.667 0 -26.5 5.83301 -35.5 17.5s-13.5 26.834 -13.5 45.501c0 32 10.667 48 32 48c4 0 7.33301 -0.333008 10 -1h5
c2 -0.666992 3.33301 -1 4 -1c10 0 15 14 15 42v196c0 28 -4.33301 42 -13 42c-2 0 -5.33301 -0.5 -10 -1.5s-8.33398 -1.5 -11.001 -1.5c-22.667 0 -34 18 -34 54c0 40 15.333 60 46 60c6.66699 0 16.167 -0.833008 28.5 -2.5s21.833 -2.5 28.5 -2.5
c10.667 0 22.667 1.33301 36 4c6.66699 1.33301 11.334 2 14.001 2c12.667 0 19 -7.66699 19 -23z" />
    <glyph glyph-name="s" unicode="s" horiz-adv-x="404" 
d="M175 505c28.667 0 61.665 -12.332 98.998 -36.999c4.66699 22.667 19.334 34 44.001 34c32.667 0 48.667 -12.667 48 -38l-1 -50l1 -48c0.666992 -26.667 -14 -40 -44 -40c-18 0 -30.167 1.83301 -36.5 5.5s-13.166 12.5 -20.499 26.5c-15.333 28.667 -34.333 43 -57 43
c-30 0 -45 -12.667 -45 -38c0 -14.667 5.5 -25.167 16.5 -31.5s34.833 -13.5 71.5 -21.5c60 -12.667 98 -36.667 114 -72c10.667 -23.333 16 -49.666 16 -78.999c0 -50.667 -14.5 -91.834 -43.5 -123.501s-66.167 -47.5 -111.5 -47.5c-40.667 0 -77 15.667 -109 47
c-3.33301 -22 -17.333 -33 -42 -33c-33.333 0 -49.333 14.667 -48 44l3 53v28v16c-0.666992 6 -1 9.66699 -1 11c0 28.667 16.333 43 49 43c18 0 30.5 -2.33301 37.5 -7s13.833 -16 20.5 -34c14 -36.667 36 -55 66 -55c32.667 0 49 14.667 49 44c0 24 -15.667 39.333 -47 46
l-43 9c-82 17.333 -123 66.666 -123 147.999c0 46.667 12.833 84.5 38.5 113.5s58.5 43.5 98.5 43.5z" />
    <glyph glyph-name="t" unicode="t" horiz-adv-x="344" 
d="M194 358l-0.00195312 -222c0 -16.667 6 -25 18 -25c13.333 0 20 11.333 20 34v56c0 30 13.333 45 40 45c20 0 33.667 -6.33301 41 -19s11 -36.334 11 -71.001c0 -44 -5 -77.667 -15 -101c-19.333 -45.333 -57.333 -68 -114 -68c-38.667 0 -70 12.333 -94 37
s-36 57.334 -36 98.001v236c0 20.667 -6 31 -18 31h-25c-27.333 0 -41 16.333 -41 49c0 22.667 3.5 38.334 10.5 47.001s19.833 13 38.5 13h18c11.333 0 17 6 17 18v75c0 30.667 22 46 66 46c24.667 0 41.334 -3.33301 50.001 -10s13 -19.667 13 -39v-72c0 -12 8 -18 24 -18
h46c32.667 0 49 -18.333 49 -55c0 -20.667 -3.16699 -34.834 -9.5 -42.501s-17.166 -11.5 -32.499 -11.5h-42c-16 0 -25.833 -1.66699 -29.5 -5s-5.5 -12 -5.5 -26z" />
    <glyph glyph-name="u" unicode="u" horiz-adv-x="461" 
d="M306 18v25.001c-36 -36.667 -75 -55 -117 -55c-82.667 0 -124 54.667 -124 164v193c0 28 -5 42 -15 42c-2 0 -5.16699 -0.333008 -9.5 -1s-7.5 -1 -9.5 -1c-21.333 0 -32 16 -32 48c0 42.667 16.667 64 50 64c6.66699 0 18.334 -1 35.001 -3c14 -2 25.333 -2.66699 34 -2
l41 4c1.33301 0.666992 3.66602 1 6.99902 1c19.333 0 29 -9 29 -27v-280c0 -49.333 15 -74 45 -74c34 0 51 30 51 90v139c0 28 -5.33301 42 -16 42c-2 0 -5 -0.333008 -9 -1s-7 -1 -9 -1c-22 0 -33 16 -33 48c0 18.667 4.5 34 13.5 46s20.833 18 35.5 18
c6.66699 0 16.5 -1 29.5 -3s22.833 -3 29.5 -3l48 5c2 0.666992 5.33301 1 10 1c20 0 30 -9 30 -27v-322c0 -28 5 -42 15 -42c1.33301 0 3 0.333008 5 1h4c2.66699 0.666992 6 1 10 1c21.333 0 32 -16 32 -48c0 -18.667 -4.5 -33.834 -13.5 -45.501
s-20.833 -17.5 -35.5 -17.5c-6.66699 0 -17 0.833008 -31 2.5s-24.667 2.5 -32 2.5c-6.66699 0 -18.667 -0.666992 -36 -2c-2 -0.666992 -5 -1 -9 -1c-15.333 0 -23 6.33301 -23 19z" />
    <glyph glyph-name="v" unicode="v" horiz-adv-x="438" 
d="M171 354l45.9971 -201.001l47 207c1.33301 6 2 10.667 2 14c0 6.66699 -3.66699 11.334 -11 14.001c-16 6 -24 21.667 -24 47c0 41.333 15.667 62 47 62c6.66699 0 16.334 -1 29.001 -3c8 -1.33301 20 -2 36 -2c7.33301 0 17.5 0.833008 30.5 2.5s22.833 2.5 29.5 2.5
c12.667 0 23.334 -5.66699 32.001 -17s13 -25.333 13 -42c0 -35.333 -11.333 -53.333 -34 -54c-10.667 0 -18.667 -10 -24 -30l-92 -326c-6 -21.333 -19.667 -32 -41 -32c-4.66699 0 -8 0.333008 -10 1c-22.667 1.33301 -34.667 2 -36 2
c-4.66699 0 -15.667 -0.666992 -33 -2c-2 -0.666992 -5.66699 -1 -11 -1c-16 0 -27 10.667 -33 32l-88 326c-1.33301 6.66699 -2.83301 13 -4.5 19s-5.5 9.66699 -11.5 11l-17 3c-15.333 2.66699 -23 18.334 -23 47.001c0 42 15.667 63 47 63c7.33301 0 16.333 -1 27 -3
c18.667 -1.33301 31.334 -2 38.001 -2c7.33301 0 20.666 1.33301 39.999 4c6.66699 0.666992 12.334 1 17.001 1c29.333 0 44 -21.667 44 -65c0 -25.333 -8 -41 -24 -47c-7.33301 -3.33301 -11 -8 -11 -14c0 -2.66699 1 -8.33398 3 -17.001z" />
    <glyph glyph-name="w" unicode="w" horiz-adv-x="639" 
d="M173 352l29.001 -190l48 293c4.66699 26.667 19 40 43 40h48c26.667 0 42 -13.333 46 -40l43 -293l38 190c0.666992 3.33301 1 7.66602 1 12.999c0 10 -2.33301 16 -7 18l-18 5c-14.667 4 -22 20.333 -22 49c0 40 16 60 48 60c8.66699 0 19 -1 31 -3
c18.667 -1.33301 30.334 -2 35.001 -2c9.33301 0 21.333 1 36 3c10 1.33301 19.333 2 28 2c32.667 0 49 -19 49 -57c0 -35.333 -10 -53.666 -30 -54.999c-12.667 -0.666992 -20.167 -4 -22.5 -10s-4.83301 -14.667 -7.5 -26l-75 -324
c-4.66699 -19.333 -18.334 -29 -41.001 -29c-4.66699 0 -8 0.333008 -10 1c-21.333 1.33301 -31.333 2 -30 2l-37 -2c-24.667 0 -39.334 14.333 -44.001 43l-36 219l-40 -227c-4 -24 -18.333 -36 -43 -36c-5.33301 0 -9 0.333008 -11 1l-32 2l-36 -2
c-21.333 0 -34.333 11.667 -39 35l-69 333c-3.33301 14.667 -7.66602 22 -12.999 22h-10c-22 0 -33 17 -33 51c0 39.333 16 59 48 59c6.66699 0 17 -1 31 -3c9.33301 -1.33301 20.666 -2 33.999 -2c7.33301 0 18 0.833008 32 2.5s24.667 2.5 32 2.5c30 0 45 -20.667 45 -62
c0 -25.333 -8 -41.333 -24 -48c-10.667 -4.66699 -16 -11 -16 -19c0 -6 0.333008 -11.333 1 -16z" />
    <glyph glyph-name="x" unicode="x" horiz-adv-x="466" 
d="M69 131l71.999 121.998l-65 108c-4 6.66699 -6.66699 11.334 -8 14.001c-4 5.33301 -8 8.66602 -12 9.99902l-19 5c-16 4 -24 20.333 -24 49c0 38.667 16 58 48 58c2.66699 0 9.66699 -0.666992 21 -2c17.333 -2 31.333 -3 42 -3c8.66699 0 20 1 34 3
c8.66699 1.33301 15.334 2 20.001 2c28.667 0 43 -20 43 -60c0 -15.333 -3.83301 -26.166 -11.5 -32.499s-11.5 -10.833 -11.5 -13.5s0.333008 -4.66699 1 -6l4 -10l28 -66l28 61l5 15c2 2.66699 3 5.33398 3 8.00098c0 1.33301 -0.666992 2.66602 -2 3.99902l-10 7
c-8 5.33301 -12 16.666 -12 33.999c0 39.333 13 59 39 59c6 0 14 -1 24 -3c17.333 -1.33301 29 -2 35 -2c7.33301 0 18 0.833008 32 2.5s24.333 2.5 31 2.5c31.333 0 47 -20 47 -60c0 -27.333 -11 -44.333 -33 -51c-8.66699 -2.66699 -14.5 -5.16699 -17.5 -7.5
s-6.83301 -8.16602 -11.5 -17.499l-69 -108l69 -122c8 -14 14.333 -21.667 19 -23h15c24 0 36 -17 36 -51c0 -40 -16 -60 -48 -60c-6.66699 0 -17 0.833008 -31 2.5s-24.333 2.5 -31 2.5c-4.66699 0 -16.667 -1 -36 -3c-6.66699 -1.33301 -16 -2 -28 -2
c-29.333 0 -44 19.667 -44 59c0 17.333 4.33301 28.333 13 33l11 6c3.33301 1.33301 5 4 5 8c0 2.66699 -2 8.33398 -6 17.001l-33 74l-34 -77c-2.66699 -4.66699 -4 -8.66699 -4 -12c0 -4 4 -9 12 -15s12 -17.333 12 -34c0 -39.333 -14 -59 -42 -59
c-8.66699 0 -17 0.666992 -25 2c-12 2 -23.333 3 -34 3c-7.33301 0 -18.5 -0.833008 -33.5 -2.5s-26.5 -2.5 -34.5 -2.5c-32 0 -48 18.667 -48 56c0 34 12.667 52 38 54c12 0.666992 22.333 8.66699 31 24z" />
    <glyph glyph-name="y" unicode="y" horiz-adv-x="455" 
d="M190 358l44.001 -193l46 193c2 8.66699 3 14.334 3 17.001c0 5.33301 -5 10.333 -15 15c-14 6 -21 20 -21 42c0 43.333 17.667 65 53 65c7.33301 0 17 -1 29 -3c8 -1.33301 17.667 -2 29 -2c6.66699 0 18.667 1 36 3c11.333 1.33301 18 2 20 2c34 0 51 -19 51 -57
c0 -36.667 -11.667 -55 -35 -55l-12 1c-6.66699 0 -11.334 -4.66699 -14.001 -14l-4 -14l-87 -295c-19.333 -65.333 -43.333 -123 -72 -173c-17.333 -30 -40.333 -54.333 -69 -73s-57.667 -28 -87 -28c-32.667 0 -60 10.5 -82 31.5s-33 47.167 -33 78.5
c0 23.333 7 43.166 21 59.499s31.333 24.5 52 24.5c18 0 32.5 -6.5 43.5 -19.5s16.5 -29.833 16.5 -50.5v-17c22 8.66699 39.667 34 53 76c4 12.667 6 23.667 6 33c0 4 -0.666992 9.33301 -2 16l-104 343c-4 12.667 -8.66699 19.667 -14 21h-17c-26 0 -39 18.333 -39 55
c0 38 15.667 57 47 57c8 0 19.667 -0.833008 35 -2.5s27 -2.5 35 -2.5c19.333 0 33.333 0.666992 42 2c13.333 2 23 3 29 3c32 0 48 -20.333 48 -61c0 -26 -8 -42 -24 -48c-8 -4 -12 -8.33301 -12 -13v-1z" />
    <glyph glyph-name="z" unicode="z" horiz-adv-x="415" 
d="M74 171l161.003 226.001h-83c-22 0 -33 -6.66699 -33 -20c0 -5.33301 0.333008 -9.33301 1 -12v-13c0 -40.667 -18 -61 -54 -61c-32 0 -48 18.667 -48 56v9c2 26.667 2.66699 41 2 43l-1 50c0 32 15 48 45 48l59 -4c10 -0.666992 25.667 -1 47 -1
c47.333 0 78.333 0.666992 93 2c43.333 4 66.666 6 69.999 6c35.333 0 53 -24.667 53 -74c0 -26.667 -9.66699 -53.334 -29 -80.001l-180 -251h65c16.667 0 27.667 1 33 3c10.667 4 15.667 12.667 15 26l-2 38c-2 33.333 15.333 50 52 50c32.667 0 49 -18 49 -54
c0 -6 -0.5 -16 -1.5 -30s-1.5 -24.667 -1.5 -32l2 -54c0 -30 -17 -45 -51 -45h-106c-18.667 0 -46.334 -1 -83.001 -3s-64 -3 -82 -3c-32.667 0 -49 19 -49 57c0 18.667 3.16699 35 9.5 49s22.166 38.667 47.499 74z" />
    <glyph glyph-name="braceleft" unicode="{" 
d="M302 366c0 -34 -4.00098 -59.3311 -12.001 -75.998s-24 -33.334 -48 -50.001c22.667 -14.667 38.334 -31 47.001 -49s13 -43.667 13 -77v-138c0 -26.667 7.33301 -43.667 22 -51c8.66699 -4 28 -6 58 -6h20v-112h-33l-32 -2h-10c-54.667 0 -93.5 11.167 -116.5 33.5
s-34.5 59.5 -34.5 111.5v155c0 50 -18.333 78.667 -55 86v107c36.667 8 55 33.667 55 77v156c0 52 11.5 89 34.5 111s61.833 33 116.5 33h10c2 -0.666992 12.667 -1.33398 32 -2.00098h33v-112h-20c-30 0 -49.333 -2 -58 -6c-14.667 -7.33301 -22 -24.333 -22 -51v-138z" />
    <glyph glyph-name="bar" unicode="|" 
d="M187 -250v1000h126v-1000h-126z" />
    <glyph glyph-name="braceright" unicode="}" 
d="M220 114c0 34 4.00098 59.332 12.001 75.999s24 33.334 48 50.001c-22.667 14.667 -38.334 31 -47.001 49s-13 43.667 -13 77v138c0 27.333 -7.66699 44.333 -23 51c-8 4 -27.333 6 -58 6h-18v112h32l32 2h10c54.667 0 93.5 -11.167 116.5 -33.5s34.5 -59.5 34.5 -111.5
v-155c0 -50 18.333 -78.667 55 -86v-107c-36.667 -8 -55 -33.667 -55 -77v-156c0 -52 -11.667 -89 -35 -111s-62.333 -33 -117 -33h-9l-32 2h-32v112h20c29.333 0 48.333 2 57 6c14.667 7.33301 22 24.333 22 51v138z" />
    <glyph glyph-name="asciitilde" unicode="~" horiz-adv-x="667" 
d="M233 623c-16.667 0 -29.832 -4.16797 -39.499 -12.501s-20.834 -24.833 -33.501 -49.5l-70 46c1.33301 2.66699 4 8.33398 8 17.001c20 45.333 40.333 76.833 61 94.5s48 26.5 82 26.5c20 0 54.667 -9 104 -27c44 -16 73 -24 87 -24c16.667 0 30 3.66699 40 11
s21 21.333 33 42l72 -42c-17.333 -36 -32.333 -61.833 -45 -77.5s-28.667 -28.5 -48 -38.5c-22 -11.333 -44 -17 -66 -17c-16 0 -49.667 9.33301 -101 28c-42 15.333 -70 23 -84 23z" />
    <glyph glyph-name="nonbreakingspace" unicode="&#xa0;" horiz-adv-x="250" 
 />
    <glyph glyph-name="exclamdown" unicode="&#xa1;" horiz-adv-x="290" 
d="M145 290c-24 0 -44.167 9.83203 -60.5 29.499s-24.5 43.834 -24.5 72.501c0 30 7.83301 54.833 23.5 74.5s35.5 29.5 59.5 29.5c24.667 0 45 -9.66699 61 -29s24 -44 24 -74s-7.83301 -54.667 -23.5 -74s-35.5 -29 -59.5 -29zM139 256.999
c24.667 0 41.833 -3.5 51.5 -10.5s15.167 -19.5 16.5 -37.5l23 -345v-4c0 -40.667 -27.333 -61 -82 -61c-57.333 0 -86 22 -86 66c0 2.66699 0.333008 4.66699 1 6l19 335c2 34 21 51 57 51z" />
    <glyph glyph-name="cent" unicode="&#xa2;" 
d="M296 623l-1.00293 -63.999c74.667 -18 112 -57 112 -117c0 -24.667 -6.66699 -45 -20 -61s-30.666 -24 -51.999 -24c-16 0 -29.167 4.83301 -39.5 14.5s-15.5 21.834 -15.5 36.501c0 11.333 3 23.333 9 36c-9.33301 6 -17.666 9 -24.999 9
c-17.333 0 -31.333 -10.333 -42 -31s-16 -48.334 -16 -83.001s4.83301 -62.334 14.5 -83.001s22.834 -31 39.501 -31c20 0 33.333 11.667 40 35c5.33301 17.333 10.333 29 15 35c7.33301 9.33301 19 14 35 14c40 0 60 -21.667 60 -65c0 -68 -38.667 -112.667 -116 -134
l1 -59c0.666992 -26.667 -13 -40 -41 -40c-30 0 -44.667 12.667 -44 38l1 67c-38 11.333 -67.667 36.333 -89 75s-32 86.667 -32 144c0 121.333 40.333 194 121 218v67c0 22.667 14 34 42 34c28.667 0 43 -10.333 43 -31z" />
    <glyph glyph-name="sterling" unicode="&#xa3;" horiz-adv-x="607" 
d="M288 503c0 -24.667 9.99805 -54.998 29.998 -90.998h36l53 2h24c20 0 33.833 -3 41.5 -9s11.5 -18.333 11.5 -37c0 -38 -14.667 -57 -44 -57c-7.33301 0 -18.5 1.16699 -33.5 3.5s-26.167 3.5 -33.5 3.5h-8c-4 -0.666992 -7.66699 -1 -11 -1c8 -27.333 12 -52.333 12 -75
c0 -22 -2.33301 -48.667 -7 -80c33.333 -30 67 -45 101 -45c8.66699 0 16.334 3.33301 23.001 10s10 14.334 10 23.001c0 0.666992 -2 9 -6 25c-11.333 -10.667 -21.666 -16 -30.999 -16c-14.667 0 -27.167 5.16699 -37.5 15.5s-15.5 23.166 -15.5 38.499
c0 18 6.5 33.5 19.5 46.5s28.5 19.5 46.5 19.5c32 0 59 -12.5 81 -37.5s33 -55.5 33 -91.5c0 -44.667 -13.167 -83.334 -39.5 -116.001s-57.5 -49 -93.5 -49c-38.667 0 -87 23.333 -145 70c-52.667 -45.333 -101.334 -68 -146.001 -68c-36.667 0 -68.5 12.667 -95.5 38
s-40.5 55.666 -40.5 90.999c0 34.667 12.5 64.5 37.5 89.5s54.5 37.5 88.5 37.5c26 0 56.667 -9.66699 92 -29c-5.33301 43.333 -15.666 78.666 -30.999 105.999c-22.667 -1.33301 -48.667 -4.33301 -78 -9c-16.667 -2.66699 -29 -4 -37 -4c-32 0 -48 18.667 -48 56
c0 34 15 51 45 51h6l31 -3h22l18 1c-1.33301 4 -2.66602 8.66699 -3.99902 14c-8 32.667 -12 57 -12 73c0 55.333 15.833 99.166 47.5 131.499s74.5 48.5 128.5 48.5c46.667 0 84.5 -12.333 113.5 -37s43.5 -57 43.5 -97c0 -27.333 -7.16699 -49.666 -21.5 -66.999
s-32.833 -26 -55.5 -26c-32.667 0 -49.334 20.333 -50.001 61c-0.666992 31.333 -10.334 47 -29.001 47c-11.333 0 -21.166 -5.66699 -29.499 -17s-12.5 -24.666 -12.5 -39.999zM159.998 87.002c24.667 0 45 13.667 61 41c-22 13.333 -40.667 20 -56 20
c-27.333 0 -41 -10.667 -41 -32c0 -19.333 12 -29 36 -29z" />
    <glyph glyph-name="currency" unicode="&#xa4;" horiz-adv-x="667" 
d="M91 68l-69.001 68.999l103 102c-30 43.333 -45 89.333 -45 138c0 46.667 15 92.334 45 137.001l-104 104l69 69l104 -104c44.667 29.333 91.334 44 140.001 44s94.667 -14.333 138 -43l102 102l68 -69l-101 -101c30.667 -49.333 46 -96 46 -140
c0 -46 -14.667 -91.333 -44 -136l102 -103l-68 -69l-102 102c-44.667 -30 -92 -45 -142 -45c-45.333 0 -92 15 -140 45zM470.999 375.999c0 38.667 -13.332 71.5 -39.999 98.5s-59 40.5 -97 40.5c-38.667 0 -71.334 -13.5 -98.001 -40.5s-40 -59.833 -40 -98.5
c0 -38 13.5 -70.5 40.5 -97.5s59.5 -40.5 97.5 -40.5s70.333 13.5 97 40.5s40 59.5 40 97.5z" />
    <glyph glyph-name="yen" unicode="&#xa5;" horiz-adv-x="589" 
d="M252 510l40.9971 -113.999l46 114c3.33301 8 5 14.333 5 19s-1 8 -3 10l-16 12c-9.33301 7.33301 -14 22.666 -14 45.999c0 22 4.5 39.667 13.5 53s21.167 20 36.5 20c8 0 19.667 -1.16699 35 -3.5s27.333 -3.5 36 -3.5c12.667 0 29 1.66699 49 5c8 1.33301 18 2 30 2
c40.667 0 61 -25.333 61 -76c0 -41.333 -12.667 -61.333 -38 -60l-23 1l-16 -10l-9 -19l-60 -126l6 1h24c20.667 0 34.667 -3.33301 42 -10s11 -20 11 -40c0 -30 -6.66699 -47.667 -20 -53c-6.66699 -2.66699 -18 -4 -34 -4h-23l-56 2c-6.66699 -18 -10 -38.667 -10 -62v-47
l1 -18c0.666992 -14.667 5 -22 13 -22c3.33301 0 7.83301 0.666992 13.5 2s10.167 2 13.5 2c31.333 0 47 -21.667 47 -65c0 -46 -19.667 -69 -59 -69c-6.66699 0 -22.667 1.33301 -48 4c-12.667 1.33301 -34.334 2 -65.001 2c-18.667 0 -31 -0.333008 -37 -1l-46 -5
c-1.33301 -0.666992 -3.66602 -1 -6.99902 -1c-17.333 0 -31.5 6.83301 -42.5 20.5s-16.5 31.167 -16.5 52.5c0 41.333 15.667 62 47 62c2 0 6.33301 -0.666992 13 -2s11.334 -2 14.001 -2c8 0 12.333 7.33301 13 22l1 25v32c0 24.667 -3.66699 48.334 -11 71.001h-56
l-32 -3h-6c-29.333 0 -44 16 -44 48c0 22 3.16699 37.333 9.5 46s17.833 13 34.5 13h6l32 -3h8l-63 132c-7.33301 16 -13.666 24 -18.999 24h-21c-28 0 -42 20.333 -42 61c0 50 20 75 60 75c7.33301 0 16.333 -0.666992 27 -2c27.333 -3.33301 45 -5 53 -5
c8.66699 0 21.334 1.16699 38.001 3.5s29 3.5 37 3.5c32 0 48 -23 48 -69c0 -23.333 -5 -39.333 -15 -48l-15 -13c-3.33301 -2 -5 -5.33301 -5 -10c0 -0.666992 2.33301 -7.33398 7 -20.001z" />
    <glyph glyph-name="brokenbar" unicode="&#xa6;" 
d="M187 -250v400h126v-400h-126zM187 350v400h126v-400h-126z" />
    <glyph glyph-name="section" unicode="&#xa7;" 
d="M455 259c0 -49.333 -21.001 -90.3311 -63.001 -122.998c2.66699 -5.33301 5.33398 -10.333 8.00098 -15c19.333 -38 29 -69.667 29 -95c0 -49.333 -17.333 -89.833 -52 -121.5s-79 -47.5 -133 -47.5c-52 0 -96.333 15.167 -133 45.5s-55 66.833 -55 109.5
c0 26 8.5 48 25.5 66s37.5 27 61.5 27c21.333 0 38.833 -6.66699 52.5 -20s20.5 -30.333 20.5 -51c0 -16.667 -5.66699 -33.334 -17 -50.001c14 -8.66699 28.667 -13 44 -13c17.333 0 31.5 4.66699 42.5 14s16.5 21.333 16.5 36c0 30.667 -30 63.334 -90 98.001
c-54 31.333 -88.167 52.833 -102.5 64.5s-28.166 28.5 -41.499 50.5c-15.333 26 -23 54 -23 84c0 46 20 87.667 60 125c-16.667 29.333 -25 56.666 -25 81.999c0 46 16.167 83.833 48.5 113.5s73.166 44.5 122.499 44.5c47.333 0 87.166 -12.833 119.499 -38.5
s48.5 -56.834 48.5 -93.501c0 -23.333 -8 -43.5 -24 -60.5s-35 -25.5 -57 -25.5c-18 0 -33.167 7.16699 -45.5 21.5s-18.5 31.833 -18.5 52.5c0 8 0.666992 15.333 2 22c-8.66699 3.33301 -16.334 5 -23.001 5c-28.667 0 -43 -12.333 -43 -37c0 -20.667 17 -41 51 -61
l64 -38c34.667 -20.667 58.834 -37 72.501 -49s25.834 -27.333 36.501 -46c14 -24.667 21 -50 21 -76zM325.999 254.002c0 26 -43.333 61.667 -130 107c-18.667 -8.66699 -28 -21.667 -28 -39c0 -26 42 -61 126 -105c21.333 10 32 22.333 32 37z" />
    <glyph glyph-name="dieresis" unicode="&#xa8;" 
d="M157 558c-22.667 0 -40.999 8.16797 -54.999 24.501s-21 37.166 -21 62.499s7.16699 46.333 21.5 63s32.833 25 55.5 25c21.333 0 39.166 -8.16699 53.499 -24.5s21.5 -36.833 21.5 -61.5c0 -25.333 -7.33301 -46.5 -22 -63.5s-32.667 -25.5 -54 -25.5zM343.001 558.001
c-22.667 0 -40.999 8.16797 -54.999 24.501s-21 37.166 -21 62.499s7.16699 46.333 21.5 63s32.833 25 55.5 25c21.333 0 39.166 -8.16699 53.499 -24.5s21.5 -36.833 21.5 -61.5c0 -25.333 -7.33301 -46.5 -22 -63.5s-32.667 -25.5 -54 -25.5z" />
    <glyph glyph-name="copyright" unicode="&#xa9;" horiz-adv-x="755" 
d="M377 684c97.333 0 180.168 -34.1689 248.501 -102.502s102.5 -151.166 102.5 -248.499c0 -96.667 -34.333 -179.167 -103 -247.5s-151.334 -102.5 -248.001 -102.5s-179.167 34.167 -247.5 102.5s-102.5 150.833 -102.5 247.5s34.167 179.334 102.5 248.001
s150.833 103 247.5 103zM377.002 50.998c76.667 0 141.834 27.5 195.501 82.5s80.5 121.5 80.5 199.5s-26.833 144.667 -80.5 200s-118.834 83 -195.501 83c-76 0 -141 -27.667 -195 -83s-81 -122 -81 -200s27 -144.5 81 -199.5s119 -82.5 195 -82.5zM371.002 543.998
c25.333 0 50.334 -9.33398 75.001 -28.001c5.33301 16 16.666 24 33.999 24c25.333 0 38 -12.333 38 -37c0 -5.33301 -0.5 -13.666 -1.5 -24.999s-1.5 -19.666 -1.5 -24.999c0 -11.333 0.666992 -22.333 2 -33s2 -17.667 2 -21c0 -30 -15.667 -45 -47 -45
c-26 0 -39.667 12.333 -41 37l-1 24c-0.666992 12 -5.33398 22.333 -14.001 31s-18.667 13 -30 13c-43.333 0 -65 -38.667 -65 -116c0 -90 21 -135 63 -135c28 0 42 19.333 42 58c0 32.667 14.333 49 43 49c34 0 51 -20 51 -60c0 -38.667 -13 -70.334 -39 -95.001
s-59.333 -37 -100 -37c-50.667 0 -90 18 -118 54s-42 86.667 -42 152c0 67.333 13.333 120 40 158s63.334 57 110.001 57z" />
    <glyph glyph-name="ordfeminine" unicode="&#xaa;" horiz-adv-x="333" 
d="M244 393c-22 0 -37 9 -45 27c-21.333 -18.667 -46 -28 -74 -28c-26 0 -46.667 7.33301 -62 22s-23 34.334 -23 59.001c0 26.667 7 46.5 21 59.5s37.667 22.5 71 28.5c31.333 5.33301 47 16.333 47 33c0 18 -7.66699 27 -23 27c-9.33301 0 -14 -3.33301 -14 -10
c0 -4 0.333008 -7.66699 1 -11v-1c0 -8.66699 -3.66699 -16.167 -11 -22.5s-16.333 -9.5 -27 -9.5c-12.667 0 -23.5 4.16699 -32.5 12.5s-13.5 18.5 -13.5 30.5c0 19.333 8.83301 34.666 26.5 45.999s41.5 17 71.5 17c66 0 99 -29.667 99 -89v-107c0 -12 2.66699 -18 8 -18
h5c0.666992 0.666992 2 1 4 1c13.333 0 20 -8.33301 20 -25c0 -12 -4.66699 -22 -14 -30s-21 -12 -35 -12zM40 330h253v-33h-253v33zM179 516l-5 -0.999023l-18 -5c-24 -6.66699 -36 -17.334 -36 -32.001c0 -18 8.33301 -27 25 -27c22.667 0 34 11.667 34 35v30z" />
    <glyph glyph-name="guillemotleft" unicode="&#xab;" horiz-adv-x="452" 
d="M400 386l-85.001 -120l61 -119c2.66699 -5.33301 4 -10.666 4 -15.999c0 -20.667 -16.333 -31 -49 -31c-19.333 0 -34.666 8.33301 -45.999 25l-77 113c-7.33301 10.667 -11 21 -11 31c0 10.667 4.33301 21 13 31l92 103c18 20 35 30 51 30
c14.667 0 27.167 -2.83301 37.5 -8.5s15.5 -12.834 15.5 -21.501c0 -6 -2 -11.667 -6 -17zM222.999 386l-85 -120l61 -119c2.66699 -5.33301 4 -10.666 4 -15.999c0 -20.667 -16.667 -31 -50 -31c-18.667 0 -33.667 8.33301 -45 25l-77 113c-7.33301 10.667 -11 21 -11 31
c0 10.667 4.33301 21 13 31l92 103c18 20 35 30 51 30c14.667 0 27.167 -2.83301 37.5 -8.5s15.5 -12.834 15.5 -21.501c0 -6 -2 -11.667 -6 -17z" />
    <glyph glyph-name="logicalnot" unicode="&#xac;" 
d="M467 0h-127v153h-307v114h434v-267z" />
    <glyph glyph-name="softhyphen" unicode="&#xad;" horiz-adv-x="549" 
d="M46 205v62h457v-62h-457z" />
    <glyph glyph-name="registered" unicode="&#xae;" 
d="M247 768c60 0 111 -20.667 153 -62s63 -91.333 63 -150c0 -59.333 -21 -110 -63 -152s-93 -63 -153 -63c-58 0 -107.5 21.333 -148.5 64s-61.5 94 -61.5 154c0 57.333 20.5 106.5 61.5 147.5s90.5 61.5 148.5 61.5zM249 390c45.333 0 84.167 15.835 116.5 47.502
s48.5 70.167 48.5 115.5s-16 84.166 -48 116.499s-70.667 48.5 -116 48.5s-84 -15.667 -116 -47s-48 -69 -48 -113c0 -46.667 15.833 -86.334 47.5 -119.001s70.167 -49 115.5 -49zM255.001 538.002c-5.33301 0 -9.66797 -0.333984 -13.001 -1.00098v-42
c0 -3.33301 1.33301 -5 4 -5h1l6 1c6.66699 0 10 -7 10 -21c0 -16 -5.33301 -24 -16 -24c-5.33301 0 -9.16602 0.166992 -11.499 0.5s-5.16602 0.833008 -8.49902 1.5h-7.5h-8.5c-4 -0.666992 -7.33301 -1.16699 -10 -1.5s-6.33398 -0.5 -11.001 -0.5
c-14 0 -21 8.33301 -21 25c0 13.333 4.33301 20 13 20h3c1.33301 0 2.33301 -0.333008 3 -1c3.33301 0 5 2.33301 5 7v120c0 4 -1.66699 6 -5 6h-3c-0.666992 -0.666992 -1.66699 -1 -3 -1c-8.66699 0 -13 7 -13 21c0 16.667 6.66699 25 20 25h1l20 -2h5
c7.33301 0 18 0.333008 32 1s24.333 1 31 1c34 0 51 -19 51 -57c0 -25.333 -11.333 -41.666 -34 -48.999c21.333 -4 32 -16.667 32 -38v-29c0 -4 1.33301 -6 4 -6c1.33301 0 3.33301 0.333008 6 1h1c9.33301 0 14 -7 14 -21c0 -15.333 -6.33301 -23 -19 -23h-27
c-14.667 0 -22 10.667 -22 32v29c0 20.667 -9.66699 31 -29 31zM241.999 610.001v-35h7c20 0 30 8.66699 30 26c0 15.333 -8 23 -24 23c-8.66699 0 -13 -4.66699 -13 -14z" />
    <glyph glyph-name="macron" unicode="&#xaf;" 
d="M83 635c0 43.333 17 63.667 51 61l43 -3c9.33301 -0.666992 30.333 -1 63 -1h20c34 0 55 0.333008 63 1c23.333 2 38.333 3 45 3c32.667 0 49 -18.667 49 -56c0 -38 -17.667 -57 -53 -57c-12.667 0 -31.667 0.666992 -57 2s-44.333 2 -57 2s-31.667 -0.666992 -57 -2
s-44.333 -2 -57 -2c-35.333 0 -53 17.333 -53 52z" />
    <glyph glyph-name="degree" unicode="&#xb0;" 
d="M250 358c-42.667 0 -79 14.833 -109 44.5s-45 65.5 -45 107.5c0 41.333 15 76.833 45 106.5s66.333 44.5 109 44.5s79 -14.833 109 -44.5s45 -65.167 45 -106.5c0 -42 -15 -77.833 -45 -107.5s-66.333 -44.5 -109 -44.5zM250 586c-21.333 0 -39.666 -7.5 -54.999 -22.5
s-23 -32.833 -23 -53.5c0 -21.333 7.66699 -39.5 23 -54.5s33.666 -22.5 54.999 -22.5s39.666 7.5 54.999 22.5s23 33.167 23 54.5c0 20.667 -7.66699 38.5 -23 53.5s-33.666 22.5 -54.999 22.5z" />
    <glyph glyph-name="plusminus" unicode="&#xb1;" 
d="M7 357v117h180v174h126v-174h180v-117h-186v-174h-120v174h-180zM7 27v117h486v-117h-486z" />
    <glyph glyph-name="twosuperior" unicode="&#xb2;" horiz-adv-x="330" 
d="M176 430c-50 -18.667 -75.9971 -39.9971 -77.9971 -63.9971c11.333 14.667 27.333 22 48 22c21.333 0 41 -7 59 -21l31 -24l-4 9l-8 16c-2 4.66699 -3 10.334 -3 17.001c0 12.667 3.66699 23 11 31s16.666 12 27.999 12c16 0 29.167 -7.16699 39.5 -21.5
s15.5 -32.166 15.5 -53.499c0 -32 -8 -58.833 -24 -80.5s-36 -32.5 -60 -32.5s-43 8.66699 -57 26l-20 23c-14.667 18 -29 28 -43 30l3 -6c6.66699 -11.333 10 -21 10 -29c0 -28.667 -14.333 -43 -43 -43c-18.667 0 -34.334 9.16699 -47.001 27.5s-19 40.833 -19 67.5
c0 24 5.66699 48.333 17 73s26 44.334 44 59.001c16 13.333 39.333 27.666 70 42.999c21.333 11.333 36 21.166 44 29.499s12 18.166 12 29.499s-4.16699 21 -12.5 29s-18.833 12 -31.5 12c-12 0 -21.667 -4.33301 -29 -13c-2.66699 -2.66699 -4 -5.33398 -4 -8.00098
c0 -2 1 -4.33301 3 -7c6 -8.66699 9 -16.334 9 -23.001c0 -14 -5 -25.667 -15 -35s-22 -14 -36 -14c-18 0 -32.333 6.16699 -43 18.5s-16 28.5 -16 48.5c0 34 13.167 62.5 39.5 85.5s58.833 34.5 97.5 34.5c41.333 0 74.666 -11.833 99.999 -35.5s38 -54.834 38 -93.501
c0 -50.667 -21.333 -88 -64 -112c-17.333 -9.33301 -38 -18.333 -62 -27z" />
    <glyph glyph-name="threesuperior" unicode="&#xb3;" horiz-adv-x="330" 
d="M136 521l58.998 84.9971h-60c-14.667 0 -22 -5.66699 -22 -17c0 -4.66699 0.666992 -12 2 -22s2 -17.667 2 -23c0 -29.333 -14 -44 -42 -44c-27.333 0 -41 13.333 -41 40c0 6 0.666992 15 2 27s2 20.667 2 26c0 7.33301 -0.666992 18.5 -2 33.5s-2 26.5 -2 34.5
c0 11.333 2.66699 19.333 8 24s14.333 7 27 7c10.667 0 26.834 -0.666992 48.501 -2s37.834 -2 48.501 -2c7.33301 0 26.666 0.666992 57.999 2c23.333 1.33301 39.666 2 48.999 2c12.667 0 21.667 -3.5 27 -10.5s8 -19.167 8 -36.5s-5.33301 -33 -16 -47l-56 -80
c16.667 -6.66699 29.667 -14 39 -22c25.333 -23.333 38 -56.666 38 -99.999c0 -46.667 -13.667 -84.5 -41 -113.5s-62.666 -43.5 -105.999 -43.5c-40 0 -73.667 12.833 -101 38.5s-41 57.167 -41 94.5c0 22 5.33301 40.167 16 54.5s24.334 21.5 41.001 21.5
c14 0 25.667 -5.16699 35 -15.5s14 -23.5 14 -39.5c0 -14.667 -4 -29 -12 -43c10 -11.333 23.333 -17 40 -17c17.333 0 31.5 5.5 42.5 16.5s16.5 25.167 16.5 42.5c0 36.667 -17.667 56.334 -53 59.001c-14.667 0.666992 -24.5 4 -29.5 10s-7.5 17.333 -7.5 34
c0 8.66699 3 17.334 9 26.001z" />
    <glyph glyph-name="acute" unicode="&#xb4;" 
d="M355 653c0 -18.667 -13 -32.333 -39 -41l-92 -31c-20 -6.66699 -32.667 -10 -38 -10c-16 0 -28.333 10 -37 30c-2.66699 6 -4 13 -4 21c0 12.667 5.33301 23 16 31c2.66699 2 13.667 7.66699 33 17l88 42c10 4.66699 17.333 7 22 7c14 0 26 -6.5 36 -19.5
s15 -28.5 15 -46.5z" />
    <glyph glyph-name="mu" unicode="&#xb5;" 
d="M154 -173h-125.999v653h126v-255c0 -90 33 -135 99 -135c63.333 0 95 46.333 95 139v251h126v-480h-126v58c-22.667 -45.333 -55.334 -68 -98.001 -68c-40.667 0 -72.667 20.333 -96 61v-224z" />
    <glyph glyph-name="paragraph" unicode="&#xb6;" horiz-adv-x="662" 
d="M325 -92h-108v413h-7c-2 -0.666992 -3.33301 -1 -4 -1c-53.333 0 -96.5 15.667 -129.5 47s-49.5 72.333 -49.5 123c0 118 76.667 177 230 177h332v-98h-73v-661h-107v661h-84v-661z" />
    <glyph glyph-name="periodcentered" unicode="&#xb7;" horiz-adv-x="184" 
d="M92 217c-26.667 0 -48.667 10.833 -66 32.5s-26 48.834 -26 81.501c0 31.333 9 57.833 27 79.5s40.333 32.5 67 32.5c26 0 47.5 -10.833 64.5 -32.5s25.5 -48.834 25.5 -81.501s-8.66699 -59.5 -26 -80.5s-39.333 -31.5 -66 -31.5z" />
    <glyph glyph-name="cedilla" unicode="&#xb8;" 
d="M218 0l75.999 0.00195312l-18 -40c59.333 -4.66699 89 -30.334 89 -77.001c0 -26.667 -9.83301 -48.334 -29.5 -65.001s-45.167 -25 -76.5 -25c-30 0 -56 6.83301 -78 20.5s-33 29.834 -33 48.501c0 20.667 9.33301 31 28 31c6.66699 0 15.334 -3.33301 26.001 -10
c19.333 -12 36.333 -18 51 -18c17.333 0 26 6.33301 26 19c0 15.333 -10.333 23 -31 23c-4 0 -10.333 -0.333008 -19 -1s-15 -1 -19 -1c-16 0 -24 7.33301 -24 22c0 9.33301 10.667 33.666 32 72.999z" />
    <glyph glyph-name="onesuperior" unicode="&#xb9;" horiz-adv-x="330" 
d="M125 342l1.00098 13.999v225c0 12.667 -1.33301 20.334 -4 23.001c-0.666992 1.33301 -2.33398 2 -5.00098 2s-6.5 -0.666992 -11.5 -2s-8.83301 -2 -11.5 -2c-22 0 -33 14.333 -33 43c0 14 3.83301 25.333 11.5 34s17.5 13 29.5 13c5.33301 0 12.666 -0.5 21.999 -1.5
s16.333 -1.5 21 -1.5c5.33301 0 13 0.5 23 1.5s17.667 1.5 23 1.5c20.667 0 31 -12 31 -36v-296c0 -17.333 3.33301 -26 10 -26c4 0 7.5 0.5 10.5 1.5s6.16699 1.5 9.5 1.5c20 0 30 -13.667 30 -41c0 -32 -13.667 -48 -41 -48c-10.667 0 -20.334 0.333008 -29.001 1
c-18 2 -30.667 3 -38 3s-18.666 -0.666992 -33.999 -2s-26.666 -2 -33.999 -2c-30 0 -45 16 -45 48c0 26.667 9.33301 40 28 40c3.33301 0 8 -0.5 14 -1.5s10.333 -1.5 13 -1.5c6 0 9 3 9 9z" />
    <glyph glyph-name="ordmasculine" unicode="&#xba;" horiz-adv-x="333" 
d="M168 391c-38.667 0 -68.5 12.332 -89.5 36.999s-31.5 59.334 -31.5 104.001c0 45.333 10.5 80.333 31.5 105s50.833 37 89.5 37c37.333 0 66.333 -12.167 87 -36.5s31 -57.833 31 -100.5c0 -46.667 -10.333 -82.667 -31 -108s-49.667 -38 -87 -38zM48 329.999h237v-33
h-237v33zM167 608.999c-26.667 0 -40 -24 -40 -72v-6c0 -50 13 -75 39 -75c26.667 0 40 25.667 40 77c0 50.667 -13 76 -39 76z" />
    <glyph glyph-name="guillemotright" unicode="&#xbb;" horiz-adv-x="452" 
d="M53 147l84 119.001l-61 119c-2.66699 5.33301 -4 10.666 -4 15.999c0 21.333 16.667 32 50 32c18.667 0 33.667 -8.33301 45 -25l77 -113c7.33301 -10.667 11 -21 11 -31c0 -10.667 -4.33301 -21 -13 -31l-92 -104c-17.333 -19.333 -34.333 -29 -51 -29
c-14.667 0 -27 2.83301 -37 8.5s-15 12.5 -15 20.5c0 6.66699 2 12.667 6 18zM230 147.001l84 119.001l-61 119c-2.66699 5.33301 -4 10.666 -4 15.999c0 21.333 16.667 32 50 32c18.667 0 33.667 -8.33301 45 -25l77 -113c7.33301 -10.667 11 -21 11 -31
c0 -12 -4 -22.333 -12 -31l-93 -104c-17.333 -19.333 -34.333 -29 -51 -29c-14.667 0 -27 2.83301 -37 8.5s-15 12.5 -15 20.5c0 6.66699 2 12.667 6 18z" />
    <glyph glyph-name="onequarter" unicode="&#xbc;" horiz-adv-x="668" 
d="M503 642c0 -6.66699 -2.66602 -16 -7.99902 -28l-263 -590c-12.667 -28.667 -30.334 -43 -53.001 -43c-21.333 0 -32 9.33301 -32 28c0 6.66699 1.66699 13.667 5 21l271 607c10 22.667 25.333 34 46 34c22.667 0 34 -9.66699 34 -29zM69.001 470l1.00293 9.99902v171
c0 10 -1 15.667 -3 17c-0.666992 1.33301 -2 2 -4 2s-4.83301 -0.5 -8.5 -1.5s-6.83398 -1.5 -9.50098 -1.5c-16.667 0 -25 10.667 -25 32c0 10.667 3 19.334 9 26.001s13.667 10 23 10c3.33301 0 8.66602 -0.333008 15.999 -1s12.666 -1 15.999 -1
c4 0 9.83301 0.333008 17.5 1s13.5 1 17.5 1c15.333 0 23 -9 23 -27v-225c0 -12.667 2.66699 -19 8 -19c2.66699 0 5.16699 0.333008 7.5 1s4.83301 1 7.5 1c15.333 0 23 -10.333 23 -31c0 -24.667 -10.333 -37 -31 -37c-8 0 -15.333 0.333008 -22 1c-14 2 -23.667 3 -29 3
s-13.833 -0.666992 -25.5 -2s-20.167 -2 -25.5 -2c-22.667 0 -34 12.333 -34 37c0 20.667 7 31 21 31c2 0 5.33301 -0.5 10 -1.5s8 -1.5 10 -1.5c4.66699 0 7 2.33301 7 7zM591.004 298.999v-142h6h6c4 0 8.33301 0.333008 13 1h2h2c18.667 0 28 -10.667 28 -32
c0 -23.333 -9 -35 -27 -35c-0.666992 0 -2.33398 0.333008 -5.00098 1h-7h-13l-5 -1v-17c0 -7.33301 2.66699 -11 8 -11c1.33301 0 3.83301 0.5 7.5 1.5s6.5 1.5 8.5 1.5c16.667 0 25 -9.66699 25 -29c0 -26 -10.667 -39 -32 -39c-5.33301 0 -13.666 0.666992 -24.999 2
s-20 2 -26 2s-15.167 -0.666992 -27.5 -2s-21.833 -2 -28.5 -2c-22 0 -33 12 -33 36c0 21.333 8.33301 32 25 32c2.66699 0 6.5 -0.5 11.5 -1.5s8.83301 -1.5 11.5 -1.5c6.66699 0 10 3.66699 10 11v17l-96 -2c-12.667 0 -21.167 3.16699 -25.5 9.5s-6.5 17.833 -6.5 34.5
c0 16 3.33301 29.333 10 40l70 112c14 23.333 24.833 38 32.5 44s18.5 9 32.5 9c32 0 48 -13 48 -39zM468.004 153.999h58v93z" />
    <glyph glyph-name="onehalf" unicode="&#xbd;" horiz-adv-x="659" 
d="M503 642c0 -6.66699 -2.66602 -16 -7.99902 -28l-263 -590c-12.667 -28.667 -30.334 -43 -53.001 -43c-21.333 0 -32 9.33301 -32 28c0 6.66699 1.66699 13.667 5 21l271 607c10 22.667 25.333 34 46 34c22.667 0 34 -9.66699 34 -29zM69.001 470l1.00293 9.99902v171
c0 10 -1 15.667 -3 17c-0.666992 1.33301 -2 2 -4 2s-4.83301 -0.5 -8.5 -1.5s-6.83398 -1.5 -9.50098 -1.5c-16.667 0 -25 10.667 -25 32c0 10.667 3 19.334 9 26.001s13.667 10 23 10c3.33301 0 8.66602 -0.333008 15.999 -1s12.666 -1 15.999 -1
c4 0 9.83301 0.333008 17.5 1s13.5 1 17.5 1c15.333 0 23 -9 23 -27v-225c0 -12.667 2.66699 -19 8 -19c2.66699 0 5.16699 0.333008 7.5 1s4.83301 1 7.5 1c15.333 0 23 -10.333 23 -31c0 -24.667 -10.333 -37 -31 -37c-8 0 -15.333 0.333008 -22 1c-14 2 -23.667 3 -29 3
s-13.833 -0.666992 -25.5 -2s-20.167 -2 -25.5 -2c-22.667 0 -34 12.333 -34 37c0 20.667 7 31 21 31c2 0 5.33301 -0.5 10 -1.5s8 -1.5 10 -1.5c4.66699 0 7 2.33301 7 7zM534.004 135.999c-38 -13.333 -57.667 -29.3301 -59 -47.9971c8 11.333 20 17 36 17
s31 -5.33301 45 -16l23 -18l-3 6l-6 13c-1.33301 3.33301 -2 7.33301 -2 12c0 10 2.66699 18 8 24s12.333 9 21 9c12.667 0 22.834 -5.33301 30.501 -16s11.5 -24.334 11.5 -41.001c0 -24 -6.16699 -44.333 -18.5 -61s-27.5 -25 -45.5 -25s-32.333 6.66699 -43 20l-15 18
c-11.333 13.333 -22.333 20.666 -33 21.999l2 -4c5.33301 -8.66699 8 -16 8 -22c0 -22 -10.667 -33 -32 -33c-14.667 0 -26.834 7 -36.501 21s-14.5 31.333 -14.5 52c0 18 4.33301 36.333 13 55s20 33.667 34 45c12 10 29.667 20.667 53 32c16 8.66699 27 16.167 33 22.5
s9 13.833 9 22.5s-3.16699 16 -9.5 22s-14.166 9 -23.499 9s-16.666 -3.33301 -21.999 -10c-2 -2 -3 -4 -3 -6s0.666992 -4 2 -6c4.66699 -6 7 -11.667 7 -17c0 -10.667 -3.83301 -19.5 -11.5 -26.5s-16.834 -10.5 -27.501 -10.5c-13.333 0 -24 4.66699 -32 14
s-12 21.666 -12 36.999c0 25.333 9.83301 46.833 29.5 64.5s44.167 26.5 73.5 26.5c31.333 0 56.666 -9 75.999 -27s29 -41.667 29 -71c0 -38.667 -16 -67 -48 -85c-13.333 -7.33301 -29 -14.333 -47 -21z" />
    <glyph glyph-name="threequarters" unicode="&#xbe;" horiz-adv-x="700" 
d="M535 642c0 -6.66699 -2.66602 -16 -7.99902 -28l-263 -590c-12.667 -28.667 -30.334 -43 -53.001 -43c-21.333 0 -32 9.33301 -32 28c0 6.66699 1.66699 13.667 5 21l271 607c10 22.667 25.333 34 46 34c22.667 0 34 -9.66699 34 -29zM623.001 299v-142h6h6
c4 0 8.33301 0.333008 13 1h2h2c18.667 0 28 -10.667 28 -32c0 -23.333 -9 -35 -27 -35c-0.666992 0 -2.33398 0.333008 -5.00098 1h-7h-13l-5 -1v-17c0 -7.33301 2.66699 -11 8 -11c1.33301 0 3.83301 0.5 7.5 1.5s6.5 1.5 8.5 1.5c16.667 0 25 -9.66699 25 -29
c0 -26 -10.667 -39 -32 -39c-5.33301 0 -13.666 0.666992 -24.999 2s-20 2 -26 2s-15.167 -0.666992 -27.5 -2s-21.833 -2 -28.5 -2c-22 0 -33 12 -33 36c0 21.333 8.33301 32 25 32c2.66699 0 6.5 -0.5 11.5 -1.5s8.83301 -1.5 11.5 -1.5c6.66699 0 10 3.66699 10 11v17
l-96 -2c-12.667 0 -21.167 3.16699 -25.5 9.5s-6.5 17.833 -6.5 34.5c0 16 3.33301 29.333 10 40l70 112c14 23.333 24.833 38 32.5 44s18.5 9 32.5 9c32 0 48 -13 48 -39zM500.001 154h58v93zM105.001 606l45.0029 63.998h-45c-11.333 0 -17 -4.33301 -17 -13
c0 -3.33301 0.5 -8.83301 1.5 -16.5s1.5 -13.5 1.5 -17.5c0 -22 -10.667 -33 -32 -33c-20.667 0 -31 10 -31 30c0 4.66699 0.5 11.5 1.5 20.5s1.5 15.5 1.5 19.5c0 6 -0.5 14.667 -1.5 26s-1.5 19.666 -1.5 24.999c0 9.33301 2 15.666 6 18.999s10.667 5 20 5
c8.66699 0 21.167 -0.5 37.5 -1.5s28.5 -1.5 36.5 -1.5c5.33301 0 20 0.666992 44 2c17.333 0.666992 29.666 1 36.999 1c9.33301 0 16 -2.66699 20 -8s6 -14.666 6 -27.999c0 -12.667 -3.66699 -24.334 -11 -35.001l-43 -61c12.667 -4.66699 22.667 -10.334 30 -17.001
c18.667 -17.333 28 -42.333 28 -75c0 -35.333 -10.333 -64.166 -31 -86.499s-47.334 -33.5 -80.001 -33.5c-30 0 -55.5 9.83301 -76.5 29.5s-31.5 43.834 -31.5 72.501c0 16.667 4.16699 30.334 12.5 41.001s18.833 16 31.5 16c10.667 0 19.5 -3.83301 26.5 -11.5
s10.5 -17.5 10.5 -29.5c0 -11.333 -3 -22.333 -9 -33c7.33301 -8.66699 17.333 -13 30 -13c13.333 0 24.166 4.16699 32.499 12.5s12.5 19.166 12.5 32.499c0 28 -13.333 42.667 -40 44c-11.333 0.666992 -19 3.33398 -23 8.00098s-6 13.334 -6 26.001
c0 6.66699 2.33301 13.334 7 20.001z" />
    <glyph glyph-name="questiondown" unicode="&#xbf;" horiz-adv-x="501" 
d="M255 496c24 0 43.999 -9.83203 59.999 -29.499s24 -44.5 24 -74.5c0 -28.667 -8.16699 -52.834 -24.5 -72.501s-36.5 -29.5 -60.5 -29.5s-43.833 9.66699 -59.5 29s-23.5 44 -23.5 74s7.83301 54.667 23.5 74s35.834 29 60.501 29zM242.999 -72.999
c24 0 43.6689 11.002 59.002 33.002c-16 15.333 -24 32.666 -24 51.999c0 22 7.66699 41 23 57s33.666 24 54.999 24c25.333 0 47 -10.5 65 -31.5s27 -46.167 27 -75.5c0 -50.667 -21.333 -94.5 -64 -131.5s-93.334 -55.5 -152.001 -55.5
c-60.667 0 -110.167 18.333 -148.5 55s-57.5 84 -57.5 142c0 92 47 154.333 141 187c12.667 4.66699 19.667 13 21 25c2 21.333 9 35.333 21 42c8 4.66699 24 7 48 7c28.667 0 47.667 -3.66699 57 -11s14 -22.333 14 -45c0 -62 -18.333 -99.667 -55 -113l-38 -14
c-39.333 -14.667 -59 -40.334 -59 -77.001c0 -18.667 6.66699 -35 20 -49s29 -21 47 -21z" />
    <glyph glyph-name="Agrave" unicode="&#xc0;" horiz-adv-x="601" 
d="M376 145l-10.0029 60.002h-131l-9 -54c-2 -12 -3 -17.333 -3 -16c0 -8 3.66699 -12 11 -12c2 0 3.66699 0.166992 5 0.5l6 1.5h4c9.33301 0 17.333 -6 24 -18s10 -26 10 -42c0 -19.333 -5.66699 -35.5 -17 -48.5s-25.666 -19.5 -42.999 -19.5c-9.33301 0 -23.5 1 -42.5 3
s-33.167 3 -42.5 3c-14 0 -28.833 -1 -44.5 -3s-27.834 -3 -36.501 -3c-18 0 -33.167 6.66699 -45.5 20s-18.5 30.333 -18.5 51c0 18 3.83301 33.167 11.5 45.5s17.167 18.5 28.5 18.5c2.66699 0 6.66699 -0.5 12 -1.5s9.33301 -1.5 12 -1.5c6 0 11.667 9.33301 17 28
l129 476c6.66699 24.667 24.334 37 53.001 37h49l49 -1c26.667 -0.666992 43 -12.667 49 -36l126 -476c4.66699 -18 9.66699 -27 15 -27c2.66699 0 6.5 0.333008 11.5 1s8.83301 1 11.5 1c27.333 0 41 -20 41 -60c0 -22.667 -6 -40.834 -18 -54.501s-27.667 -20.5 -47 -20.5
c-9.33301 0 -22.833 1 -40.5 3s-31.167 3 -40.5 3s-23.166 -1 -41.499 -3s-32.166 -3 -41.499 -3c-41.333 0 -62 23.667 -62 71c0 37.333 11 56 33 56h13c9.33301 0 14 4.66699 14 14c0 3.33301 -0.333008 5.66602 -1 6.99902zM245.997 879.002
c5.33301 0 13 -2.33398 23 -7.00098l88 -42c19.333 -9.33301 30.333 -15 33 -17c10.667 -7.33301 16 -17.333 16 -30c0 -11.333 -4 -22.833 -12 -34.5s-17.667 -17.5 -29 -17.5c-5.33301 0 -18 3.33301 -38 10l-92 31c-26.667 8.66699 -40 22.334 -40 41.001
c0 18 5 33.5 15 46.5s22 19.5 36 19.5zM257.997 328.001h85l-43 215z" />
    <glyph glyph-name="Aacute" unicode="&#xc1;" horiz-adv-x="601" 
d="M376 145l-10.0029 60.002h-131l-9 -54c-2 -12 -3 -17.333 -3 -16c0 -8 3.66699 -12 11 -12c2 0 3.66699 0.166992 5 0.5l6 1.5h4c9.33301 0 17.333 -6 24 -18s10 -26 10 -42c0 -19.333 -5.66699 -35.5 -17 -48.5s-25.666 -19.5 -42.999 -19.5c-9.33301 0 -23.5 1 -42.5 3
s-33.167 3 -42.5 3c-14 0 -28.833 -1 -44.5 -3s-27.834 -3 -36.501 -3c-18 0 -33.167 6.66699 -45.5 20s-18.5 30.333 -18.5 51c0 18 3.83301 33.167 11.5 45.5s17.167 18.5 28.5 18.5c2.66699 0 6.66699 -0.5 12 -1.5s9.33301 -1.5 12 -1.5c6 0 11.667 9.33301 17 28
l129 476c6.66699 24.667 24.334 37 53.001 37h49l49 -1c26.667 -0.666992 43 -12.667 49 -36l126 -476c4.66699 -18 9.66699 -27 15 -27c2.66699 0 6.5 0.333008 11.5 1s8.83301 1 11.5 1c27.333 0 41 -20 41 -60c0 -22.667 -6 -40.834 -18 -54.501s-27.667 -20.5 -47 -20.5
c-9.33301 0 -22.833 1 -40.5 3s-31.167 3 -40.5 3s-23.166 -1 -41.499 -3s-32.166 -3 -41.499 -3c-41.333 0 -62 23.667 -62 71c0 37.333 11 56 33 56h13c9.33301 0 14 4.66699 14 14c0 3.33301 -0.333008 5.66602 -1 6.99902zM405.997 813.002
c0 -18.667 -13.001 -32.333 -39.001 -41l-92 -31c-20 -6.66699 -32.667 -10 -38 -10c-11.333 0 -21.166 5.5 -29.499 16.5s-12.5 22.5 -12.5 34.5c0 12.667 5.33301 23 16 31c2.66699 2 13.667 7.66699 33 17l88 42c10 4.66699 17.667 7 23 7c14 0 26 -6.5 36 -19.5
s15 -28.5 15 -46.5zM257.996 328.003h85l-43 215z" />
    <glyph glyph-name="Acircumflex" unicode="&#xc2;" horiz-adv-x="601" 
d="M376 145l-10.0029 60.002h-131l-9 -54c-2 -12 -3 -17.333 -3 -16c0 -8 3.66699 -12 11 -12c2 0 3.66699 0.166992 5 0.5l6 1.5h4c9.33301 0 17.333 -6 24 -18s10 -26 10 -42c0 -19.333 -5.66699 -35.5 -17 -48.5s-25.666 -19.5 -42.999 -19.5c-9.33301 0 -23.5 1 -42.5 3
s-33.167 3 -42.5 3c-14 0 -28.833 -1 -44.5 -3s-27.834 -3 -36.501 -3c-18 0 -33.167 6.66699 -45.5 20s-18.5 30.333 -18.5 51c0 18 3.83301 33.167 11.5 45.5s17.167 18.5 28.5 18.5c2.66699 0 6.66699 -0.5 12 -1.5s9.33301 -1.5 12 -1.5c6 0 11.667 9.33301 17 28
l129 476c6.66699 24.667 24.334 37 53.001 37h49l49 -1c26.667 -0.666992 43 -12.667 49 -36l126 -476c4.66699 -18 9.66699 -27 15 -27c2.66699 0 6.5 0.333008 11.5 1s8.83301 1 11.5 1c27.333 0 41 -20 41 -60c0 -22.667 -6 -40.834 -18 -54.501s-27.667 -20.5 -47 -20.5
c-9.33301 0 -22.833 1 -40.5 3s-31.167 3 -40.5 3s-23.166 -1 -41.499 -3s-32.166 -3 -41.499 -3c-41.333 0 -62 23.667 -62 71c0 37.333 11 56 33 56h13c9.33301 0 14 4.66699 14 14c0 3.33301 -0.333008 5.66602 -1 6.99902zM393.997 734.002l-86.001 31l-86 -30
c-13.333 -4.66699 -24 -7 -32 -7c-11.333 0 -21.166 4.33301 -29.499 13s-12.5 19.334 -12.5 32.001c0 21.333 13 38.666 39 51.999l77 40c18 9.33301 32.333 14 43 14c13.333 0 30.333 -5.66699 51 -17l74 -41c23.333 -12.667 35 -29 35 -49c0 -30 -14 -45 -42 -45
c-8 0 -18.333 2.33301 -31 7zM257.996 328.002h85l-43 215z" />
    <glyph glyph-name="Atilde" unicode="&#xc3;" horiz-adv-x="601" 
d="M376 145l-10.0029 60.002h-131l-9 -54c-2 -12 -3 -17.333 -3 -16c0 -8 3.66699 -12 11 -12c2 0 3.66699 0.166992 5 0.5l6 1.5h4c9.33301 0 17.333 -6 24 -18s10 -26 10 -42c0 -19.333 -5.66699 -35.5 -17 -48.5s-25.666 -19.5 -42.999 -19.5c-9.33301 0 -23.5 1 -42.5 3
s-33.167 3 -42.5 3c-14 0 -28.833 -1 -44.5 -3s-27.834 -3 -36.501 -3c-18 0 -33.167 6.66699 -45.5 20s-18.5 30.333 -18.5 51c0 18 3.83301 33.167 11.5 45.5s17.167 18.5 28.5 18.5c2.66699 0 6.66699 -0.5 12 -1.5s9.33301 -1.5 12 -1.5c6 0 11.667 9.33301 17 28
l129 476c6.66699 24.667 24.334 37 53.001 37h49l49 -1c26.667 -0.666992 43 -12.667 49 -36l126 -476c4.66699 -18 9.66699 -27 15 -27c2.66699 0 6.5 0.333008 11.5 1s8.83301 1 11.5 1c27.333 0 41 -20 41 -60c0 -22.667 -6 -40.834 -18 -54.501s-27.667 -20.5 -47 -20.5
c-9.33301 0 -22.833 1 -40.5 3s-31.167 3 -40.5 3s-23.166 -1 -41.499 -3s-32.166 -3 -41.499 -3c-41.333 0 -62 23.667 -62 71c0 37.333 11 56 33 56h13c9.33301 0 14 4.66699 14 14c0 3.33301 -0.333008 5.66602 -1 6.99902zM355.997 846.002
c7.33301 0 14.332 2.66504 20.999 7.99805l25 21c6.66699 5.33301 14 8 22 8c12 0 22.167 -5 30.5 -15s12.5 -22.333 12.5 -37c0 -35.333 -14.667 -63.666 -44 -84.999c-15.333 -11.333 -30.666 -17 -45.999 -17s-44.666 9.66699 -87.999 29c-12 5.33301 -22.333 8 -31 8
s-15.334 -2.33301 -20.001 -7l-20 -19c-8 -7.33301 -17 -11 -27 -11c-11.333 0 -21.333 5.16699 -30 15.5s-13 22.833 -13 37.5c0 26.667 9 50.334 27 71.001s38.333 31 61 31c12.667 0 27.667 -3.66699 45 -11l43 -18c14 -6 24.667 -9 32 -9zM257.996 328h85l-43 215z" />
    <glyph glyph-name="Adieresis" unicode="&#xc4;" horiz-adv-x="601" 
d="M376 145l-10.0029 60.002h-131l-9 -54c-2 -12 -3 -17.333 -3 -16c0 -8 3.66699 -12 11 -12c2 0 3.66699 0.166992 5 0.5l6 1.5h4c9.33301 0 17.333 -6 24 -18s10 -26 10 -42c0 -19.333 -5.66699 -35.5 -17 -48.5s-25.666 -19.5 -42.999 -19.5c-9.33301 0 -23.5 1 -42.5 3
s-33.167 3 -42.5 3c-14 0 -28.833 -1 -44.5 -3s-27.834 -3 -36.501 -3c-18 0 -33.167 6.66699 -45.5 20s-18.5 30.333 -18.5 51c0 18 3.83301 33.167 11.5 45.5s17.167 18.5 28.5 18.5c2.66699 0 6.66699 -0.5 12 -1.5s9.33301 -1.5 12 -1.5c6 0 11.667 9.33301 17 28
l129 476c6.66699 24.667 24.334 37 53.001 37h49l49 -1c26.667 -0.666992 43 -12.667 49 -36l126 -476c4.66699 -18 9.66699 -27 15 -27c2.66699 0 6.5 0.333008 11.5 1s8.83301 1 11.5 1c27.333 0 41 -20 41 -60c0 -22.667 -6 -40.834 -18 -54.501s-27.667 -20.5 -47 -20.5
c-9.33301 0 -22.833 1 -40.5 3s-31.167 3 -40.5 3s-23.166 -1 -41.499 -3s-32.166 -3 -41.499 -3c-41.333 0 -62 23.667 -62 71c0 37.333 11 56 33 56h13c9.33301 0 14 4.66699 14 14c0 3.33301 -0.333008 5.66602 -1 6.99902zM214.997 718.002
c-22.667 0 -40.999 8.16797 -54.999 24.501s-21 37.166 -21 62.499s7.16699 46.333 21.5 63s32.833 25 55.5 25c21.333 0 39.166 -8.16699 53.499 -24.5s21.5 -36.833 21.5 -61.5c0 -25.333 -7.33301 -46.5 -22 -63.5s-32.667 -25.5 -54 -25.5zM399.998 718.003
c-22 0 -40.167 8.16797 -54.5 24.501s-21.5 37.166 -21.5 62.499s7.33301 46.333 22 63s33.334 25 56.001 25c21.333 0 39.166 -8.16699 53.499 -24.5s21.5 -36.833 21.5 -61.5c0 -25.333 -7.33301 -46.5 -22 -63.5s-33 -25.5 -55 -25.5zM257.998 328.004h85l-43 215z" />
    <glyph glyph-name="Aring" unicode="&#xc5;" horiz-adv-x="601" 
d="M376 145l-10.0029 60.002h-131l-9 -54c-2 -12 -3 -17.333 -3 -16c0 -8 3.66699 -12 11 -12c2 0 3.66699 0.166992 5 0.5l6 1.5h4c9.33301 0 17.333 -6 24 -18s10 -26 10 -42c0 -19.333 -5.66699 -35.5 -17 -48.5s-25.666 -19.5 -42.999 -19.5c-9.33301 0 -23.5 1 -42.5 3
s-33.167 3 -42.5 3c-14 0 -28.833 -1 -44.5 -3s-27.834 -3 -36.501 -3c-18 0 -33.167 6.66699 -45.5 20s-18.5 30.333 -18.5 51c0 18 3.83301 33.167 11.5 45.5s17.167 18.5 28.5 18.5c2.66699 0 6.66699 -0.5 12 -1.5s9.33301 -1.5 12 -1.5c6 0 11.667 9.33301 17 28
l129 476c6.66699 24.667 24.334 37 53.001 37h49l49 -1c26.667 -0.666992 43 -12.667 49 -36l126 -476c4.66699 -18 9.66699 -27 15 -27c2.66699 0 6.5 0.333008 11.5 1s8.83301 1 11.5 1c27.333 0 41 -20 41 -60c0 -22.667 -6 -40.834 -18 -54.501s-27.667 -20.5 -47 -20.5
c-9.33301 0 -22.833 1 -40.5 3s-31.167 3 -40.5 3s-23.166 -1 -41.499 -3s-32.166 -3 -41.499 -3c-41.333 0 -62 23.667 -62 71c0 37.333 11 56 33 56h13c9.33301 0 14 4.66699 14 14c0 3.33301 -0.333008 5.66602 -1 6.99902zM306.997 713.002
c-27.333 0 -49.501 9.66895 -66.501 29.002s-25.5 44.666 -25.5 75.999c0 32.667 8.83301 59 26.5 79s40.167 30 67.5 30c26.667 0 48.334 -9.5 65.001 -28.5s25 -43.833 25 -74.5c0 -32.667 -8.66699 -59.334 -26 -80.001s-39.333 -31 -66 -31zM257.996 328.004h85l-43 215
zM306.996 855.004c-16 0 -24 -11.667 -24 -35v-2c0 -22 8.33301 -33 25 -33c16 0 24 11.333 24 34c0 24 -8.33301 36 -25 36z" />
    <glyph glyph-name="AE" unicode="&#xc6;" horiz-adv-x="844" 
d="M390 159l-0.000976562 112.999h-148l-47 -103c-6.66699 -14.667 -10 -24 -10 -28c0 -8 5 -12 15 -12h1l12 2h2c23.333 0 35 -20 35 -60c0 -49.333 -21.667 -74 -65 -74c-8.66699 0 -21.667 0.666992 -39 2s-30.333 2 -39 2s-21.834 -0.666992 -39.501 -2
s-31.167 -2 -40.5 -2c-42.667 0 -64 24.667 -64 74c0 17.333 3.83301 31.666 11.5 42.999s17.5 17 29.5 17h7c2.66699 -0.666992 5.33398 -1 8.00098 -1c4.66699 0 9.33398 3.33301 14.001 10c2 3.33301 6.33301 11.333 13 24l248 476c10.667 20 27.667 30 51 30
c4.66699 0 22.667 -0.666992 54 -2c78 -3.33301 132.667 -5 164 -5c20 0 50.167 1.16699 90.5 3.5s70.5 3.5 90.5 3.5c19.333 0 32.5 -3.66699 39.5 -11s10.5 -20.666 10.5 -39.999c0 -2 -0.666992 -12.333 -2 -31s-2 -44 -2 -76c0 -12.667 0.333008 -23.667 1 -33
c1.33301 -18.667 2 -34 2 -46c0 -45.333 -19.667 -68 -59 -68c-38.667 0 -58 17.667 -58 53c0 6.66699 1.66699 22.667 5 48c2 15.333 3 28 3 38c0 18 -4.33301 29.333 -13 34c-6 3.33301 -16.333 5 -31 5h-63c-20 0 -32.167 -4.16699 -36.5 -12.5s-6.5 -20.5 -6.5 -36.5
v-100c22.667 0 34 8.33301 34 25c0 6 -1 12.333 -3 19c-1.33301 10.667 -2 17 -2 19c0 10.667 4.5 20.167 13.5 28.5s19.5 12.5 31.5 12.5c28.667 0 43 -17 43 -51c0 -11.333 -1 -28.166 -3 -50.499s-3 -39.166 -3 -50.499c0 -12 1.16699 -29.833 3.5 -53.5
s3.5 -41.5 3.5 -53.5c0 -16 -4.5 -29 -13.5 -39s-20.5 -15 -34.5 -15c-26.667 0 -40 12 -40 36c0 4.66699 0.833008 11.5 2.5 20.5s2.5 15.833 2.5 20.5c0 15.333 -8.33301 23 -25 23h-10v-116c0 -20.667 3.66699 -33.667 11 -39c5.33301 -4.66699 18.333 -7 39 -7h52
c20 0 33.667 2 41 6c10 5.33301 15 16.666 15 33.999c0 10 -1.33301 24.833 -4 44.5s-4 34.5 -4 44.5c0 17.333 5.33301 31.5 16 42.5s24.334 16.5 41.001 16.5c39.333 0 59 -23.333 59 -70c0 -8.66699 -1 -28.667 -3 -60c-0.666992 -10.667 -1 -26.667 -1 -48
c0 -10 0.833008 -25.333 2.5 -46s2.5 -36 2.5 -46c0 -29.333 -16.667 -44 -50 -44c-20 0 -50.333 1 -91 3s-71 3 -91 3c-46.667 0 -80 -0.666992 -100 -2c-40 -2.66699 -69 -4 -87 -4c-48 0 -72 24 -72 72c0 17.333 3.66699 32 11 44s16.666 18 27.999 18
c4 0 10.333 -1 19 -3c2 -0.666992 5.33301 -1 10 -1c8 0 12 10.667 12 32zM294.999 385.999h95v183z" />
    <glyph glyph-name="Ccedilla" unicode="&#xc7;" horiz-adv-x="520" 
d="M261 683c40.667 0 78.999 -15.668 114.999 -47.001c8.66699 28 25.667 42 51 42c40.667 0 61 -21 61 -63c0 -3.33301 -1 -14 -3 -32c-2.66699 -24 -4 -44.667 -4 -62c0 -10 1.16699 -24.833 3.5 -44.5s3.5 -34.5 3.5 -44.5c0 -18.667 -6.83301 -34.167 -20.5 -46.5
s-30.5 -18.5 -50.5 -18.5c-40.667 0 -62 21.333 -64 64l-2 38c-1.33301 20.667 -8.33301 38.167 -21 52.5s-27.334 21.5 -44.001 21.5c-68 0 -102 -66.667 -102 -200c0 -145.333 32 -218 96 -218c44 0 66 30 66 90v10c0 52.667 22.333 79 67 79c51.333 0 77 -34.667 77 -104
c0 -44 -11.667 -84.833 -35 -122.5s-53.333 -64.167 -90 -79.5c-15.333 -6.66699 -39 -12 -71 -16l-15 -34c67.333 -0.666992 101 -31 101 -91c0 -36 -12.5 -65.5 -37.5 -88.5s-57.167 -34.5 -96.5 -34.5c-35.333 0 -65.666 7.83301 -90.999 23.5s-38 34.167 -38 55.5
c0 11.333 3.66699 21 11 29s16 12 26 12c8 0 18.333 -4 31 -12c24 -15.333 43.333 -23 58 -23c10.667 0 19.834 3 27.501 9s11.5 13 11.5 21c0 15.333 -10.333 23 -31 23c-3.33301 0 -6 -0.333008 -8 -1c-17.333 -1.33301 -25.333 -2 -24 -2
c-11.333 0 -20.833 4.33301 -28.5 13s-11.5 19.334 -11.5 32.001c0 14 9.33301 39.667 28 77c-118 36 -177 149 -177 339c0 110 20.5 196.333 61.5 259s97.5 94 169.5 94z" />
    <glyph glyph-name="Egrave" unicode="&#xc8;" horiz-adv-x="563" 
d="M241 499v-100.998c5.33301 -2 11.333 -3 18 -3c18 0 27 8.66699 27 26c0 7.33301 -0.333008 12.666 -1 15.999c-2 10.667 -3 18 -3 22c0 10.667 4.16699 20 12.5 28s18.166 12 29.499 12c30.667 0 46 -15.333 46 -46c0 -12.667 -1.66699 -31 -5 -55
c-1.33301 -9.33301 -2 -24.333 -2 -45c0 -22.667 1.33301 -46.334 4 -71.001c2 -18.667 3 -34.334 3 -47.001c0 -33.333 -16 -50 -48 -50c-27.333 0 -41 13 -41 39c0 6.66699 1 14.334 3 23.001c1.33301 4 2 9.66699 2 17c0 15.333 -10.667 23 -32 23
c-0.666992 0 -5 -0.666992 -13 -2v-119c0 -20 4.66699 -32.333 14 -37c5.33301 -2.66699 13.333 -4 24 -4h83c18 0 30.5 2.5 37.5 7.5s10.5 15.5 10.5 31.5c0 8.66699 -1.33301 22 -4 40c-3.33301 22.667 -5 38.334 -5 47.001c0 17.333 5.66699 31.833 17 43.5
s25.666 17.5 42.999 17.5c39.333 0 59 -26.333 59 -79c0 -12.667 -0.666992 -26.334 -2 -41.001c-2 -21.333 -3 -41 -3 -59c0 -10 0.833008 -25.333 2.5 -46s2.5 -36 2.5 -46c0 -18.667 -4.5 -30.834 -13.5 -36.501s-24.167 -8.5 -45.5 -8.5
c-10.667 0 -21.334 0.333008 -32.001 1c-65.333 4 -125.333 6 -180 6c-18 0 -45.167 -1 -81.5 -3s-63.5 -3 -81.5 -3c-19.333 0 -35.166 7 -47.499 21s-18.5 32.333 -18.5 55c0 17.333 4 32 12 44s17.333 18 28 18h5c2.66699 -0.666992 4.83398 -1.16699 6.50098 -1.5
s4.16699 -0.5 7.5 -0.5c9.33301 0 14 6 14 18v364c0 12.667 -4.66699 19 -14 19h-4c-1.33301 -0.666992 -2.66602 -1 -3.99902 -1c-5.33301 -1.33301 -9 -2 -11 -2c-10.667 0 -20 6 -28 18s-12 26.667 -12 44c0 22.667 6.16699 41.167 18.5 55.5s28.166 21.5 47.499 21.5
c14.667 0 42 -1.33301 82 -4c30 -2 62 -3 96 -3c22 0 54.667 1.16699 98 3.5s76 3.5 98 3.5c36 0 54 -15 54 -45c0 -7.33301 -1 -23 -3 -47c-1.33301 -16 -2 -44.667 -2 -86v-20l3 -45c0 -40.667 -20.333 -61 -61 -61c-38 0 -57 17.333 -57 52c0 10 1.33301 24.5 4 43.5
s4 33.167 4 42.5c0 16.667 -3 27.334 -9 32.001s-16.667 7 -32 7h-72c-21.333 0 -34.666 -2.5 -39.999 -7.5s-8 -17.167 -8 -36.5zM215 879.002c5.33301 0 13.001 -2.33398 23.001 -7.00098l88 -42c19.333 -9.33301 30.333 -15 33 -17c10.667 -7.33301 16 -17.333 16 -30
c0 -11.333 -4 -22.833 -12 -34.5s-17.667 -17.5 -29 -17.5c-5.33301 0 -18 3.33301 -38 10l-92 31c-26.667 8.66699 -40 22.334 -40 41.001c0 18 5.16699 33.5 15.5 46.5s22.166 19.5 35.499 19.5z" />
    <glyph glyph-name="Eacute" unicode="&#xc9;" horiz-adv-x="563" 
d="M241 499v-100.998c5.33301 -2 11.333 -3 18 -3c18 0 27 8.66699 27 26c0 7.33301 -0.333008 12.666 -1 15.999c-2 10.667 -3 18 -3 22c0 10.667 4.16699 20 12.5 28s18.166 12 29.499 12c30.667 0 46 -15.333 46 -46c0 -12.667 -1.66699 -31 -5 -55
c-1.33301 -9.33301 -2 -24.333 -2 -45c0 -22.667 1.33301 -46.334 4 -71.001c2 -18.667 3 -34.334 3 -47.001c0 -33.333 -16 -50 -48 -50c-27.333 0 -41 13 -41 39c0 6.66699 1 14.334 3 23.001c1.33301 4 2 9.66699 2 17c0 15.333 -10.667 23 -32 23
c-0.666992 0 -5 -0.666992 -13 -2v-119c0 -20 4.66699 -32.333 14 -37c5.33301 -2.66699 13.333 -4 24 -4h83c18 0 30.5 2.5 37.5 7.5s10.5 15.5 10.5 31.5c0 8.66699 -1.33301 22 -4 40c-3.33301 22.667 -5 38.334 -5 47.001c0 17.333 5.66699 31.833 17 43.5
s25.666 17.5 42.999 17.5c39.333 0 59 -26.333 59 -79c0 -12.667 -0.666992 -26.334 -2 -41.001c-2 -21.333 -3 -41 -3 -59c0 -10 0.833008 -25.333 2.5 -46s2.5 -36 2.5 -46c0 -18.667 -4.5 -30.834 -13.5 -36.501s-24.167 -8.5 -45.5 -8.5
c-10.667 0 -21.334 0.333008 -32.001 1c-65.333 4 -125.333 6 -180 6c-18 0 -45.167 -1 -81.5 -3s-63.5 -3 -81.5 -3c-19.333 0 -35.166 7 -47.499 21s-18.5 32.333 -18.5 55c0 17.333 4 32 12 44s17.333 18 28 18h5c2.66699 -0.666992 4.83398 -1.16699 6.50098 -1.5
s4.16699 -0.5 7.5 -0.5c9.33301 0 14 6 14 18v364c0 12.667 -4.66699 19 -14 19h-4c-1.33301 -0.666992 -2.66602 -1 -3.99902 -1c-5.33301 -1.33301 -9 -2 -11 -2c-10.667 0 -20 6 -28 18s-12 26.667 -12 44c0 22.667 6.16699 41.167 18.5 55.5s28.166 21.5 47.499 21.5
c14.667 0 42 -1.33301 82 -4c30 -2 62 -3 96 -3c22 0 54.667 1.16699 98 3.5s76 3.5 98 3.5c36 0 54 -15 54 -45c0 -7.33301 -1 -23 -3 -47c-1.33301 -16 -2 -44.667 -2 -86v-20l3 -45c0 -40.667 -20.333 -61 -61 -61c-38 0 -57 17.333 -57 52c0 10 1.33301 24.5 4 43.5
s4 33.167 4 42.5c0 16.667 -3 27.334 -9 32.001s-16.667 7 -32 7h-72c-21.333 0 -34.666 -2.5 -39.999 -7.5s-8 -17.167 -8 -36.5zM389 813.002c0 -18.667 -13.333 -32.333 -40 -41l-92 -31c-20 -6.66699 -32.667 -10 -38 -10c-16 0 -28 10 -36 30
c-3.33301 6.66699 -5 13.667 -5 21c0 12.667 5.33301 23 16 31c2.66699 2 13.667 7.66699 33 17l88 42c10 4.66699 17.333 7 22 7c14.667 0 27 -6.5 37 -19.5s15 -28.5 15 -46.5z" />
    <glyph glyph-name="Ecircumflex" unicode="&#xca;" horiz-adv-x="563" 
d="M241 499v-100.998c5.33301 -2 11.333 -3 18 -3c18 0 27 8.66699 27 26c0 7.33301 -0.333008 12.666 -1 15.999c-2 10.667 -3 18 -3 22c0 10.667 4.16699 20 12.5 28s18.166 12 29.499 12c30.667 0 46 -15.333 46 -46c0 -12.667 -1.66699 -31 -5 -55
c-1.33301 -9.33301 -2 -24.333 -2 -45c0 -22.667 1.33301 -46.334 4 -71.001c2 -18.667 3 -34.334 3 -47.001c0 -33.333 -16 -50 -48 -50c-27.333 0 -41 13 -41 39c0 6.66699 1 14.334 3 23.001c1.33301 4 2 9.66699 2 17c0 15.333 -10.667 23 -32 23
c-0.666992 0 -5 -0.666992 -13 -2v-119c0 -20 4.66699 -32.333 14 -37c5.33301 -2.66699 13.333 -4 24 -4h83c18 0 30.5 2.5 37.5 7.5s10.5 15.5 10.5 31.5c0 8.66699 -1.33301 22 -4 40c-3.33301 22.667 -5 38.334 -5 47.001c0 17.333 5.66699 31.833 17 43.5
s25.666 17.5 42.999 17.5c39.333 0 59 -26.333 59 -79c0 -12.667 -0.666992 -26.334 -2 -41.001c-2 -21.333 -3 -41 -3 -59c0 -10 0.833008 -25.333 2.5 -46s2.5 -36 2.5 -46c0 -18.667 -4.5 -30.834 -13.5 -36.501s-24.167 -8.5 -45.5 -8.5
c-10.667 0 -21.334 0.333008 -32.001 1c-65.333 4 -125.333 6 -180 6c-18 0 -45.167 -1 -81.5 -3s-63.5 -3 -81.5 -3c-19.333 0 -35.166 7 -47.499 21s-18.5 32.333 -18.5 55c0 17.333 4 32 12 44s17.333 18 28 18h5c2.66699 -0.666992 4.83398 -1.16699 6.50098 -1.5
s4.16699 -0.5 7.5 -0.5c9.33301 0 14 6 14 18v364c0 12.667 -4.66699 19 -14 19h-4c-1.33301 -0.666992 -2.66602 -1 -3.99902 -1c-5.33301 -1.33301 -9 -2 -11 -2c-10.667 0 -20 6 -28 18s-12 26.667 -12 44c0 22.667 6.16699 41.167 18.5 55.5s28.166 21.5 47.499 21.5
c14.667 0 42 -1.33301 82 -4c30 -2 62 -3 96 -3c22 0 54.667 1.16699 98 3.5s76 3.5 98 3.5c36 0 54 -15 54 -45c0 -7.33301 -1 -23 -3 -47c-1.33301 -16 -2 -44.667 -2 -86v-20l3 -45c0 -40.667 -20.333 -61 -61 -61c-38 0 -57 17.333 -57 52c0 10 1.33301 24.5 4 43.5
s4 33.167 4 42.5c0 16.667 -3 27.334 -9 32.001s-16.667 7 -32 7h-72c-21.333 0 -34.666 -2.5 -39.999 -7.5s-8 -17.167 -8 -36.5zM369 734.002l-85 30.999l-87 -30c-13.333 -4.66699 -23.666 -7 -30.999 -7c-12 0 -22.167 4.33301 -30.5 13s-12.5 19.334 -12.5 32.001
c0 20.667 13.333 38 40 52l77 40c18 9.33301 32.333 14 43 14c14 0 31 -5.66699 51 -17l73 -41c24 -13.333 36 -29.666 36 -48.999c0 -12.667 -4 -23.334 -12 -32.001s-18 -13 -30 -13c-8.66699 0 -19.334 2.33301 -32.001 7z" />
    <glyph glyph-name="Edieresis" unicode="&#xcb;" horiz-adv-x="563" 
d="M241 499v-100.998c5.33301 -2 11.333 -3 18 -3c18 0 27 8.66699 27 26c0 7.33301 -0.333008 12.666 -1 15.999c-2 10.667 -3 18 -3 22c0 10.667 4.16699 20 12.5 28s18.166 12 29.499 12c30.667 0 46 -15.333 46 -46c0 -12.667 -1.66699 -31 -5 -55
c-1.33301 -9.33301 -2 -24.333 -2 -45c0 -22.667 1.33301 -46.334 4 -71.001c2 -18.667 3 -34.334 3 -47.001c0 -33.333 -16 -50 -48 -50c-27.333 0 -41 13 -41 39c0 6.66699 1 14.334 3 23.001c1.33301 4 2 9.66699 2 17c0 15.333 -10.667 23 -32 23
c-0.666992 0 -5 -0.666992 -13 -2v-119c0 -20 4.66699 -32.333 14 -37c5.33301 -2.66699 13.333 -4 24 -4h83c18 0 30.5 2.5 37.5 7.5s10.5 15.5 10.5 31.5c0 8.66699 -1.33301 22 -4 40c-3.33301 22.667 -5 38.334 -5 47.001c0 17.333 5.66699 31.833 17 43.5
s25.666 17.5 42.999 17.5c39.333 0 59 -26.333 59 -79c0 -12.667 -0.666992 -26.334 -2 -41.001c-2 -21.333 -3 -41 -3 -59c0 -10 0.833008 -25.333 2.5 -46s2.5 -36 2.5 -46c0 -18.667 -4.5 -30.834 -13.5 -36.501s-24.167 -8.5 -45.5 -8.5
c-10.667 0 -21.334 0.333008 -32.001 1c-65.333 4 -125.333 6 -180 6c-18 0 -45.167 -1 -81.5 -3s-63.5 -3 -81.5 -3c-19.333 0 -35.166 7 -47.499 21s-18.5 32.333 -18.5 55c0 17.333 4 32 12 44s17.333 18 28 18h5c2.66699 -0.666992 4.83398 -1.16699 6.50098 -1.5
s4.16699 -0.5 7.5 -0.5c9.33301 0 14 6 14 18v364c0 12.667 -4.66699 19 -14 19h-4c-1.33301 -0.666992 -2.66602 -1 -3.99902 -1c-5.33301 -1.33301 -9 -2 -11 -2c-10.667 0 -20 6 -28 18s-12 26.667 -12 44c0 22.667 6.16699 41.167 18.5 55.5s28.166 21.5 47.499 21.5
c14.667 0 42 -1.33301 82 -4c30 -2 62 -3 96 -3c22 0 54.667 1.16699 98 3.5s76 3.5 98 3.5c36 0 54 -15 54 -45c0 -7.33301 -1 -23 -3 -47c-1.33301 -16 -2 -44.667 -2 -86v-20l3 -45c0 -40.667 -20.333 -61 -61 -61c-38 0 -57 17.333 -57 52c0 10 1.33301 24.5 4 43.5
s4 33.167 4 42.5c0 16.667 -3 27.334 -9 32.001s-16.667 7 -32 7h-72c-21.333 0 -34.666 -2.5 -39.999 -7.5s-8 -17.167 -8 -36.5zM190 718.002c-22.667 0 -40.999 8.16797 -54.999 24.501s-21 37.166 -21 62.499s7.16699 46.333 21.5 63s32.833 25 55.5 25
c21.333 0 39.166 -8.16699 53.499 -24.5s21.5 -36.833 21.5 -61.5c0 -25.333 -7.16699 -46.5 -21.5 -63.5s-32.5 -25.5 -54.5 -25.5zM376.001 718.003c-22.667 0 -40.999 8.16797 -54.999 24.501s-21 37.166 -21 62.499s7.16699 46.333 21.5 63s32.833 25 55.5 25
c21.333 0 39.166 -8.16699 53.499 -24.5s21.5 -36.833 21.5 -61.5c0 -25.333 -7.33301 -46.5 -22 -63.5s-32.667 -25.5 -54 -25.5z" />
    <glyph glyph-name="Igrave" unicode="&#xcc;" horiz-adv-x="337" 
d="M244 516l-1.00195 -21l1 -344c0.666992 -12 5 -18 13 -18c4 0 6.83301 0.166992 8.5 0.5s3.5 0.833008 5.5 1.5h5c11.333 0 21 -6 29 -18s12 -26.667 12 -44c0 -22 -6 -40.167 -18 -54.5s-27 -21.5 -45 -21.5c-9.33301 0 -23.666 1 -42.999 3s-33.666 3 -42.999 3
c-17.333 0 -32 -0.666992 -44 -2l-26 -3c-7.33301 -0.666992 -12.666 -1 -15.999 -1c-17.333 0 -32 7.33301 -44 22s-18 32.667 -18 54c0 17.333 4 32 12 44s17.333 18 28 18h5c2.66699 -0.666992 4.83398 -1.16699 6.50098 -1.5s4.16699 -0.5 7.5 -0.5
c9.33301 0 14 6 14 18v365c0 12 -4.66699 18 -14 18c-3.33301 0 -6 -0.333008 -8 -1h-6c-2.66699 -0.666992 -4.33398 -1 -5.00098 -1c-11.333 0 -20.833 6 -28.5 18s-11.5 26.667 -11.5 44c0 22 6 40.167 18 54.5s27.333 21.5 46 21.5c9.33301 0 23.333 -1.16699 42 -3.5
s32.667 -3.5 42 -3.5s23.5 1.16699 42.5 3.5s33.167 3.5 42.5 3.5c18.667 0 34 -7.16699 46 -21.5s18 -32.5 18 -54.5c0 -17.333 -4 -32 -12 -44s-17.333 -18 -28 -18c-2 0 -5.16699 0.333008 -9.5 1s-7.5 1 -9.5 1c-8.66699 0 -13.334 -6 -14.001 -18zM112.998 879
c6 0 13.999 -2.33398 23.999 -7.00098l88 -42c19.333 -9.33301 30.333 -15 33 -17c10.667 -7.33301 16 -17.333 16 -30c0 -12 -4.16699 -23.667 -12.5 -35s-18.166 -17 -29.499 -17c-5.33301 0 -18 3.33301 -38 10l-92 31c-26 8.66699 -39 22.334 -39 41.001
c0 18 5 33.5 15 46.5s21.667 19.5 35 19.5z" />
    <glyph glyph-name="Iacute" unicode="&#xcd;" horiz-adv-x="337" 
d="M244 516l-1.00195 -21l1 -344c0.666992 -12 5 -18 13 -18c4 0 6.83301 0.166992 8.5 0.5s3.5 0.833008 5.5 1.5h5c11.333 0 21 -6 29 -18s12 -26.667 12 -44c0 -22 -6 -40.167 -18 -54.5s-27 -21.5 -45 -21.5c-9.33301 0 -23.666 1 -42.999 3s-33.666 3 -42.999 3
c-17.333 0 -32 -0.666992 -44 -2l-26 -3c-7.33301 -0.666992 -12.666 -1 -15.999 -1c-17.333 0 -32 7.33301 -44 22s-18 32.667 -18 54c0 17.333 4 32 12 44s17.333 18 28 18h5c2.66699 -0.666992 4.83398 -1.16699 6.50098 -1.5s4.16699 -0.5 7.5 -0.5
c9.33301 0 14 6 14 18v365c0 12 -4.66699 18 -14 18c-3.33301 0 -6 -0.333008 -8 -1h-6c-2.66699 -0.666992 -4.33398 -1 -5.00098 -1c-11.333 0 -20.833 6 -28.5 18s-11.5 26.667 -11.5 44c0 22 6 40.167 18 54.5s27.333 21.5 46 21.5c9.33301 0 23.333 -1.16699 42 -3.5
s32.667 -3.5 42 -3.5s23.5 1.16699 42.5 3.5s33.167 3.5 42.5 3.5c18.667 0 34 -7.16699 46 -21.5s18 -32.5 18 -54.5c0 -17.333 -4 -32 -12 -44s-17.333 -18 -28 -18c-2 0 -5.16699 0.333008 -9.5 1s-7.5 1 -9.5 1c-8.66699 0 -13.334 -6 -14.001 -18zM273.998 813
c0 -18.667 -13.334 -32.333 -40.001 -41l-92 -31c-20 -6.66699 -32.333 -10 -37 -10c-11.333 0 -21.166 5.5 -29.499 16.5s-12.5 22.5 -12.5 34.5c0 12.667 5.33301 23 16 31c2.66699 2 13.667 7.66699 33 17l88 42c10 4.66699 17.333 7 22 7c14.667 0 27 -6.5 37 -19.5
s15 -28.5 15 -46.5z" />
    <glyph glyph-name="Icircumflex" unicode="&#xce;" horiz-adv-x="337" 
d="M244 516l-1.00195 -21l1 -344c0.666992 -12 5 -18 13 -18c4 0 6.83301 0.166992 8.5 0.5s3.5 0.833008 5.5 1.5h5c11.333 0 21 -6 29 -18s12 -26.667 12 -44c0 -22 -6 -40.167 -18 -54.5s-27 -21.5 -45 -21.5c-9.33301 0 -23.666 1 -42.999 3s-33.666 3 -42.999 3
c-17.333 0 -32 -0.666992 -44 -2l-26 -3c-7.33301 -0.666992 -12.666 -1 -15.999 -1c-17.333 0 -32 7.33301 -44 22s-18 32.667 -18 54c0 17.333 4 32 12 44s17.333 18 28 18h5c2.66699 -0.666992 4.83398 -1.16699 6.50098 -1.5s4.16699 -0.5 7.5 -0.5
c9.33301 0 14 6 14 18v365c0 12 -4.66699 18 -14 18c-3.33301 0 -6 -0.333008 -8 -1h-6c-2.66699 -0.666992 -4.33398 -1 -5.00098 -1c-11.333 0 -20.833 6 -28.5 18s-11.5 26.667 -11.5 44c0 22 6 40.167 18 54.5s27.333 21.5 46 21.5c9.33301 0 23.333 -1.16699 42 -3.5
s32.667 -3.5 42 -3.5s23.5 1.16699 42.5 3.5s33.167 3.5 42.5 3.5c18.667 0 34 -7.16699 46 -21.5s18 -32.5 18 -54.5c0 -17.333 -4 -32 -12 -44s-17.333 -18 -28 -18c-2 0 -5.16699 0.333008 -9.5 1s-7.5 1 -9.5 1c-8.66699 0 -13.334 -6 -14.001 -18zM254.998 734
l-86 30.999l-86 -30c-13.333 -4.66699 -24 -7 -32 -7c-12 0 -22.167 4.33301 -30.5 13s-12.5 19.334 -12.5 32.001c0 20.667 13.333 38 40 52l77 40c18 9.33301 32.333 14 43 14c13.333 0 30.333 -5.66699 51 -17l74 -41c23.333 -12.667 35 -29 35 -49
c0 -30 -14 -45 -42 -45c-8 0 -18.333 2.33301 -31 7z" />
    <glyph glyph-name="Idieresis" unicode="&#xcf;" horiz-adv-x="337" 
d="M244 516l-1.00195 -21l1 -344c0.666992 -12 5 -18 13 -18c4 0 6.83301 0.166992 8.5 0.5s3.5 0.833008 5.5 1.5h5c11.333 0 21 -6 29 -18s12 -26.667 12 -44c0 -22 -6 -40.167 -18 -54.5s-27 -21.5 -45 -21.5c-9.33301 0 -23.666 1 -42.999 3s-33.666 3 -42.999 3
c-17.333 0 -32 -0.666992 -44 -2l-26 -3c-7.33301 -0.666992 -12.666 -1 -15.999 -1c-17.333 0 -32 7.33301 -44 22s-18 32.667 -18 54c0 17.333 4 32 12 44s17.333 18 28 18h5c2.66699 -0.666992 4.83398 -1.16699 6.50098 -1.5s4.16699 -0.5 7.5 -0.5
c9.33301 0 14 6 14 18v365c0 12 -4.66699 18 -14 18c-3.33301 0 -6 -0.333008 -8 -1h-6c-2.66699 -0.666992 -4.33398 -1 -5.00098 -1c-11.333 0 -20.833 6 -28.5 18s-11.5 26.667 -11.5 44c0 22 6 40.167 18 54.5s27.333 21.5 46 21.5c9.33301 0 23.333 -1.16699 42 -3.5
s32.667 -3.5 42 -3.5s23.5 1.16699 42.5 3.5s33.167 3.5 42.5 3.5c18.667 0 34 -7.16699 46 -21.5s18 -32.5 18 -54.5c0 -17.333 -4 -32 -12 -44s-17.333 -18 -28 -18c-2 0 -5.16699 0.333008 -9.5 1s-7.5 1 -9.5 1c-8.66699 0 -13.334 -6 -14.001 -18zM74.998 718
c-22.667 0 -41 8.16797 -55 24.501s-21 37.166 -21 62.499s7.16699 46.333 21.5 63s32.833 25 55.5 25c22 0 40.167 -8.16699 54.5 -24.5s21.5 -36.833 21.5 -61.5c0 -25.333 -7.33301 -46.5 -22 -63.5s-33 -25.5 -55 -25.5zM260.998 718.001
c-22.667 0 -40.999 8.16797 -54.999 24.501s-21 37.166 -21 62.499s7.16699 46.333 21.5 63s32.833 25 55.5 25c21.333 0 39.166 -8.16699 53.499 -24.5s21.5 -36.833 21.5 -61.5c0 -25.333 -7.16699 -46.5 -21.5 -63.5s-32.5 -25.5 -54.5 -25.5z" />
    <glyph glyph-name="Eth" unicode="&#xd0;" horiz-adv-x="570" 
d="M93 151l-0.00292969 126h-18l-21 -1c-10.667 0 -19.5 5.16699 -26.5 15.5s-10.5 23.833 -10.5 40.5c0 15.333 3.83301 28.5 11.5 39.5s16.834 16.167 27.501 15.5l17 -1c6.66699 -0.666992 13.334 -1 20.001 -1v131c0 12 -4.66699 18 -14 18
c-2 0 -5.16699 -0.333008 -9.5 -1s-7.5 -1 -9.5 -1c-11.333 0 -20.833 6 -28.5 18s-11.5 26.667 -11.5 44c0 22 6 40.167 18 54.5s27.333 21.5 46 21.5c14 0 33.333 -1.33301 58 -4c18.667 -2 37 -3 55 -3c28 0 52.333 1 73 3c28 2.66699 47 4 57 4
c63.333 0 114.666 -30.5 153.999 -91.5s59 -140.167 59 -237.5c0 -104.667 -21 -188.167 -63 -250.5s-98.333 -93.5 -169 -93.5c-13.333 0 -33 1 -59 3s-45.667 3 -59 3c-16 0 -34.667 -1 -56 -3s-37.333 -3 -48 -3c-19.333 0 -35.166 7 -47.499 21s-18.5 32.333 -18.5 55
c0 17.333 4 32 12 44s17.333 18 28 18h5c2.66699 -0.666992 4.83398 -1.16699 6.50098 -1.5s4.16699 -0.5 7.5 -0.5c9.33301 0 14 6 14 18zM279.997 547c-18 0 -29.334 -7.33398 -34.001 -22.001c-2 -6.66699 -3 -22 -3 -46v-97l18 2h3c29.333 0 44 -17.667 44 -53
c0 -36 -16.667 -54 -50 -54c-3.33301 0 -8.33301 0.333008 -15 1v-110c0 -32.667 11.667 -49 35 -49c32.667 0 58.334 19.333 77.001 58s28 91.334 28 158.001c0 64.667 -9.33301 116.167 -28 154.5s-43.667 57.5 -75 57.5z" />
    <glyph glyph-name="Ntilde" unicode="&#xd1;" horiz-adv-x="638" 
d="M360 37l-142.996 444.001l1 -330c0.666992 -12 5 -18 13 -18c4 0 6.83301 0.166992 8.5 0.5s3.5 0.833008 5.5 1.5h5c11.333 0 21 -6 29 -18s12 -26.667 12 -44c0 -22 -6 -40.167 -18 -54.5s-27 -21.5 -45 -21.5c-8 0 -19 1 -33 3s-26.667 3 -38 3
c-8 0 -20.333 -1 -37 -3s-29 -3 -37 -3c-18 0 -33 7.16699 -45 21.5s-18 32.5 -18 54.5c0 17.333 4 32 12 44s17.333 18 28 18h5c2.66699 -0.666992 4.83398 -1.16699 6.50098 -1.5s4.16699 -0.5 7.5 -0.5c9.33301 0 14 6 14 18v365c0 12 -4.66699 18 -14 18
c-2 0 -5.16699 -0.333008 -9.5 -1s-7.5 -1 -9.5 -1c-11.333 0 -20.833 6 -28.5 18s-11.5 26.667 -11.5 44c0 22 6 40.167 18 54.5s27.333 21.5 46 21.5c9.33301 0 23.666 -1.16699 42.999 -3.5s33.666 -3.5 42.999 -3.5c14.667 0 30 1 46 3c21.333 2.66699 34.333 4 39 4
c21.333 0 35.666 -11.667 42.999 -35l126 -440v305c0 15.333 -1.16699 25 -3.5 29s-6.16602 6 -11.499 6h-5c-2.66699 -0.666992 -5.33398 -1 -8.00098 -1c-12.667 0 -22.834 5.66699 -30.501 17s-11.5 25.666 -11.5 42.999c0 50.667 19.333 76 58 76
c5.33301 0 13.333 -0.666992 24 -2c26 -3.33301 43.667 -5 53 -5c13.333 0 25.666 1 36.999 3c14.667 2.66699 27 4 37 4c15.333 0 28 -7 38 -21s15 -31.667 15 -53c0 -17.333 -3.5 -32 -10.5 -44s-15.833 -18 -26.5 -18h-11c-8.66699 0 -13.667 -3.66699 -15 -11
c-0.666992 -2.66699 -1 -10.334 -1 -23.001v-444c0 -24 -4 -40.167 -12 -48.5s-22.667 -12.5 -44 -12.5h-79c-17.333 0 -29.833 2.83301 -37.5 8.5s-14.167 16.834 -19.5 33.501zM367.004 846.001c8 0 14.9961 2.66504 20.9961 7.99805l24 21c6 5.33301 13.333 8 22 8
c12.667 0 23 -4.83301 31 -14.5s12 -22.167 12 -37.5c0 -35.333 -14.667 -63.666 -44 -84.999c-16 -11.333 -31 -17 -45 -17c-16 0 -45.333 9.66699 -88 29c-12 5.33301 -22.333 8 -31 8s-15.667 -2.33301 -21 -7l-19 -19c-9.33301 -7.33301 -18.666 -11 -27.999 -11
c-11.333 0 -21.166 5.16699 -29.499 15.5s-12.5 22.833 -12.5 37.5c0 26.667 8.83301 50.334 26.5 71.001s37.834 31 60.501 31c12.667 0 40.334 -9 83.001 -27c17.333 -7.33301 30 -11 38 -11z" />
    <glyph glyph-name="Ograve" unicode="&#xd2;" horiz-adv-x="555" 
d="M274 -19c-76.667 0 -136.5 30.668 -179.5 92.001s-64.5 146.666 -64.5 255.999c0 110.667 22 197.167 66 259.5s104.667 93.5 182 93.5c76.667 0 137 -30.667 181 -92s66 -145.333 66 -252c0 -150.667 -39 -255 -117 -313c-39.333 -29.333 -84 -44 -134 -44zM222 879.001
c6 0 13.999 -2.33301 23.999 -7l88 -42c19.333 -9.33301 30.333 -15 33 -17c10.667 -7.33301 16 -17.333 16 -30c0 -12 -4.16699 -23.667 -12.5 -35s-18.166 -17 -29.499 -17c-6 0 -18.667 3.33301 -38 10l-91 31c-26.667 9.33301 -40 23 -40 41s5 33.5 15 46.5
s21.667 19.5 35 19.5zM276.999 548.001c-60 0 -92.332 -69.001 -96.999 -207.001v-22c0 -62.667 8.5 -112.167 25.5 -148.5s39.833 -54.5 68.5 -54.5c17.333 0 33.5 6.66699 48.5 20s26.167 31 33.5 53c12 36.667 18 87 18 151c0 64.667 -6.66699 113.334 -20 146.001
c-16.667 41.333 -42.334 62 -77.001 62z" />
    <glyph glyph-name="Oacute" unicode="&#xd3;" horiz-adv-x="555" 
d="M274 -19c-76.667 0 -136.5 30.668 -179.5 92.001s-64.5 146.666 -64.5 255.999c0 110.667 22 197.167 66 259.5s104.667 93.5 182 93.5c76.667 0 137 -30.667 181 -92s66 -145.333 66 -252c0 -150.667 -39 -255 -117 -313c-39.333 -29.333 -84 -44 -134 -44zM383 813.001
c0 -18 -13.334 -31.667 -40.001 -41l-91 -31c-19.333 -6.66699 -32 -10 -38 -10c-11.333 0 -21.166 5.5 -29.499 16.5s-12.5 22.5 -12.5 34.5c0 12.667 5.33301 23 16 31c2.66699 2 13.667 7.66699 33 17l88 42c10 4.66699 17.333 7 22 7c14.667 0 27 -6.5 37 -19.5
s15 -28.5 15 -46.5zM276.999 548.001c-60 0 -92.332 -69.001 -96.999 -207.001v-22c0 -62.667 8.5 -112.167 25.5 -148.5s39.833 -54.5 68.5 -54.5c17.333 0 33.5 6.66699 48.5 20s26.167 31 33.5 53c12 36.667 18 87 18 151c0 64.667 -6.66699 113.334 -20 146.001
c-16.667 41.333 -42.334 62 -77.001 62z" />
    <glyph glyph-name="Ocircumflex" unicode="&#xd4;" horiz-adv-x="555" 
d="M274 -19c-76.667 0 -136.5 30.668 -179.5 92.001s-64.5 146.666 -64.5 255.999c0 110.667 22 197.167 66 259.5s104.667 93.5 182 93.5c76.667 0 137 -30.667 181 -92s66 -145.333 66 -252c0 -150.667 -39 -255 -117 -313c-39.333 -29.333 -84 -44 -134 -44zM364 734.001
l-86.001 31l-86 -30c-13.333 -4.66699 -24 -7 -32 -7c-11.333 0 -21.166 4.33301 -29.499 13s-12.5 19.334 -12.5 32.001c0 21.333 13 38.666 39 51.999l77 40c18 9.33301 32.333 14 43 14c13.333 0 30.333 -5.66699 51 -17l74 -41c23.333 -12.667 35 -29 35 -49
c0 -30 -14 -45 -42 -45c-8 0 -18.333 2.33301 -31 7zM276.999 548.001c-60 0 -92.332 -69.001 -96.999 -207.001v-22c0 -62.667 8.5 -112.167 25.5 -148.5s39.833 -54.5 68.5 -54.5c17.333 0 33.5 6.66699 48.5 20s26.167 31 33.5 53c12 36.667 18 87 18 151
c0 64.667 -6.66699 113.334 -20 146.001c-16.667 41.333 -42.334 62 -77.001 62z" />
    <glyph glyph-name="Otilde" unicode="&#xd5;" horiz-adv-x="555" 
d="M274 -19c-76.667 0 -136.5 30.668 -179.5 92.001s-64.5 146.666 -64.5 255.999c0 110.667 22 197.167 66 259.5s104.667 93.5 182 93.5c76.667 0 137 -30.667 181 -92s66 -145.333 66 -252c0 -150.667 -39 -255 -117 -313c-39.333 -29.333 -84 -44 -134 -44zM326 846.001
c7.33301 0 14.332 2.66504 20.999 7.99805l25 21c6.66699 5.33301 14 8 22 8c12 0 22.167 -5 30.5 -15s12.5 -22.333 12.5 -37c0 -35.333 -14.667 -63.666 -44 -84.999c-15.333 -11.333 -30.666 -17 -45.999 -17s-44.666 9.66699 -87.999 29c-12 5.33301 -22.333 8 -31 8
s-15.334 -2.33301 -20.001 -7l-20 -19c-8 -7.33301 -17 -11 -27 -11c-11.333 0 -21.333 5.16699 -30 15.5s-13 22.833 -13 37.5c0 26.667 9 50.334 27 71.001s38.333 31 61 31c12.667 0 27.667 -3.66699 45 -11l43 -18c14 -6 24.667 -9 32 -9zM276.999 547.999
c-60 0 -92.332 -69.001 -96.999 -207.001v-22c0 -62.667 8.5 -112.167 25.5 -148.5s39.833 -54.5 68.5 -54.5c17.333 0 33.5 6.66699 48.5 20s26.167 31 33.5 53c12 36.667 18 87 18 151c0 64.667 -6.66699 113.334 -20 146.001c-16.667 41.333 -42.334 62 -77.001 62z" />
    <glyph glyph-name="Odieresis" unicode="&#xd6;" horiz-adv-x="555" 
d="M274 -19c-76.667 0 -136.5 30.668 -179.5 92.001s-64.5 146.666 -64.5 255.999c0 110.667 22 197.167 66 259.5s104.667 93.5 182 93.5c76.667 0 137 -30.667 181 -92s66 -145.333 66 -252c0 -150.667 -39 -255 -117 -313c-39.333 -29.333 -84 -44 -134 -44zM185 718.001
c-22.667 0 -41 8.16797 -55 24.501s-21 37.166 -21 62.499s7.16699 46.333 21.5 63s32.833 25 55.5 25c21.333 0 39.333 -8.16699 54 -24.5s22 -36.833 22 -61.5c0 -25.333 -7.33301 -46.5 -22 -63.5s-33 -25.5 -55 -25.5zM371 718.002
c-22.667 0 -40.999 8.16797 -54.999 24.501s-21 37.166 -21 62.499s7.16699 46.333 21.5 63s32.833 25 55.5 25c21.333 0 39.166 -8.16699 53.499 -24.5s21.5 -36.833 21.5 -61.5c0 -25.333 -7.16699 -46.5 -21.5 -63.5s-32.5 -25.5 -54.5 -25.5zM277.001 548.003
c-60 0 -92.332 -69.001 -96.999 -207.001v-22c0 -62.667 8.5 -112.167 25.5 -148.5s39.833 -54.5 68.5 -54.5c17.333 0 33.5 6.66699 48.5 20s26.167 31 33.5 53c12 36.667 18 87 18 151c0 64.667 -6.66699 113.334 -20 146.001c-16.667 41.333 -42.334 62 -77.001 62z" />
    <glyph glyph-name="multiply" unicode="&#xd7;" 
d="M55 452l83 82l109 -109l109 109l89 -89l-109 -109l109 -109l-83 -82l-109 109l-109 -109l-89 89l109 109z" />
    <glyph glyph-name="Oslash" unicode="&#xd8;" horiz-adv-x="585" 
d="M548 706l-62 -115.001c40.667 -63.333 61 -140 61 -230c0 -159.333 -38.333 -269 -115 -329c-42 -32.667 -90.333 -49 -145 -49c-35.333 0 -70.333 9 -105 27l-28 -52c-7.33301 -14 -14.833 -23.167 -22.5 -27.5s-19.5 -6.5 -35.5 -6.5c-21.333 0 -35.333 0.666992 -42 2
c-16.667 4 -25 12.667 -25 26c0 6.66699 2.66699 15 8 25l62 115c-31.333 76.667 -47 153.334 -47 230.001c0 113.333 22.667 201.833 68 265.5s108.333 95.5 189 95.5c34 0 65 -7.66699 93 -23l31 62c10 20.667 28 31 54 31c45.333 0 68 -9.66699 68 -29
c0 -3.33301 -2.33301 -9.33301 -7 -18zM396 354.999c0 130.667 -30.666 195.999 -91.999 195.999c-49.333 0 -80.333 -41.667 -93 -125c-6 -40 -9 -72.667 -9 -98c0 -59.333 8 -110.666 24 -153.999c13.333 -36.667 36.666 -55 69.999 -55c66.667 0 100 78.667 100 236z" />
    <glyph glyph-name="Ugrave" unicode="&#xd9;" horiz-adv-x="587" 
d="M511 516l0.000976562 -308.002c0 -73.333 -18.833 -129.5 -56.5 -168.5s-92.167 -58.5 -163.5 -58.5c-67.333 0 -119.833 19.167 -157.5 57.5s-56.5 91.833 -56.5 160.5v308c0 15.333 -2.66699 24 -8 26c-2 0 -7.66699 0.333008 -17 1c-23.333 1.33301 -35 21.333 -35 60
c0 22 5.5 40.167 16.5 54.5s24.833 21.5 41.5 21.5c8 0 20.667 -1.16699 38 -3.5s30.666 -3.5 39.999 -3.5c12.667 0 25.667 1 39 3c17.333 2.66699 29.666 4 36.999 4c34.667 0 52 -25.667 52 -77c0 -35.333 -8.33301 -54.666 -25 -57.999l-20 -4
c-5.33301 -2 -8 -12 -8 -30v-271c0 -41.333 4.5 -69.833 13.5 -85.5s25.833 -23.5 50.5 -23.5c26.667 0 44.667 8 54 24s14 46.667 14 92v270c0 14.667 -2.66699 22.667 -8 24l-20 6c-14.667 4.66699 -22 22.667 -22 54c0 52.667 17.333 79 52 79
c8.66699 0 21.834 -1.16699 39.501 -3.5s31.167 -3.5 40.5 -3.5c14 0 31.667 1.66699 53 5c10 1.33301 17.667 2 23 2c15.333 0 28 -6.5 38 -19.5s15 -29.833 15 -50.5c0 -37.333 -10.333 -58.666 -31 -63.999l-22 -6zM239.001 878.998c5.33301 0 13 -2.33301 23 -7l88 -42
c19.333 -9.33301 30.333 -15 33 -17c10.667 -7.33301 16 -17.333 16 -30c0 -18.667 -6.66699 -33.334 -20 -44.001c-6.66699 -5.33301 -13.667 -8 -21 -8c-5.33301 0 -18 3.33301 -38 10l-92 31c-26 8.66699 -39 22.334 -39 41.001c0 18 5 33.5 15 46.5s21.667 19.5 35 19.5
z" />
    <glyph glyph-name="Uacute" unicode="&#xda;" horiz-adv-x="587" 
d="M511 516l0.000976562 -308.002c0 -73.333 -18.833 -129.5 -56.5 -168.5s-92.167 -58.5 -163.5 -58.5c-67.333 0 -119.833 19.167 -157.5 57.5s-56.5 91.833 -56.5 160.5v308c0 15.333 -2.66699 24 -8 26c-2 0 -7.66699 0.333008 -17 1c-23.333 1.33301 -35 21.333 -35 60
c0 22 5.5 40.167 16.5 54.5s24.833 21.5 41.5 21.5c8 0 20.667 -1.16699 38 -3.5s30.666 -3.5 39.999 -3.5c12.667 0 25.667 1 39 3c17.333 2.66699 29.666 4 36.999 4c34.667 0 52 -25.667 52 -77c0 -35.333 -8.33301 -54.666 -25 -57.999l-20 -4
c-5.33301 -2 -8 -12 -8 -30v-271c0 -41.333 4.5 -69.833 13.5 -85.5s25.833 -23.5 50.5 -23.5c26.667 0 44.667 8 54 24s14 46.667 14 92v270c0 14.667 -2.66699 22.667 -8 24l-20 6c-14.667 4.66699 -22 22.667 -22 54c0 52.667 17.333 79 52 79
c8.66699 0 21.834 -1.16699 39.501 -3.5s31.167 -3.5 40.5 -3.5c14 0 31.667 1.66699 53 5c10 1.33301 17.667 2 23 2c15.333 0 28 -6.5 38 -19.5s15 -29.833 15 -50.5c0 -37.333 -10.333 -58.666 -31 -63.999l-22 -6zM399.001 812.998
c0 -18.667 -13.001 -32.333 -39.001 -41l-92 -31c-20 -6.66699 -32.667 -10 -38 -10c-16 0 -28.333 10 -37 30c-2.66699 6 -4 13 -4 21c0 12.667 5.33301 23 16 31c2.66699 2 13.667 7.66699 33 17l88 42c10 4.66699 17.333 7 22 7c14.667 0 26.834 -6.5 36.501 -19.5
s14.5 -28.5 14.5 -46.5z" />
    <glyph glyph-name="Ucircumflex" unicode="&#xdb;" horiz-adv-x="587" 
d="M511 516l0.000976562 -308.002c0 -73.333 -18.833 -129.5 -56.5 -168.5s-92.167 -58.5 -163.5 -58.5c-67.333 0 -119.833 19.167 -157.5 57.5s-56.5 91.833 -56.5 160.5v308c0 15.333 -2.66699 24 -8 26c-2 0 -7.66699 0.333008 -17 1c-23.333 1.33301 -35 21.333 -35 60
c0 22 5.5 40.167 16.5 54.5s24.833 21.5 41.5 21.5c8 0 20.667 -1.16699 38 -3.5s30.666 -3.5 39.999 -3.5c12.667 0 25.667 1 39 3c17.333 2.66699 29.666 4 36.999 4c34.667 0 52 -25.667 52 -77c0 -35.333 -8.33301 -54.666 -25 -57.999l-20 -4
c-5.33301 -2 -8 -12 -8 -30v-271c0 -41.333 4.5 -69.833 13.5 -85.5s25.833 -23.5 50.5 -23.5c26.667 0 44.667 8 54 24s14 46.667 14 92v270c0 14.667 -2.66699 22.667 -8 24l-20 6c-14.667 4.66699 -22 22.667 -22 54c0 52.667 17.333 79 52 79
c8.66699 0 21.834 -1.16699 39.501 -3.5s31.167 -3.5 40.5 -3.5c14 0 31.667 1.66699 53 5c10 1.33301 17.667 2 23 2c15.333 0 28 -6.5 38 -19.5s15 -29.833 15 -50.5c0 -37.333 -10.333 -58.666 -31 -63.999l-22 -6zM384.001 733.998l-86.001 31l-86 -30
c-13.333 -4.66699 -24 -7 -32 -7c-11.333 0 -21.166 4.33301 -29.499 13s-12.5 19.334 -12.5 32.001c0 21.333 13 38.666 39 51.999l77 40c18 9.33301 32.333 14 43 14c13.333 0 30.333 -5.66699 51 -17l74 -41c23.333 -12.667 35 -29 35 -49c0 -30 -14 -45 -42 -45
c-8 0 -18.333 2.33301 -31 7z" />
    <glyph glyph-name="Udieresis" unicode="&#xdc;" horiz-adv-x="587" 
d="M511 516l0.000976562 -308.002c0 -73.333 -18.833 -129.5 -56.5 -168.5s-92.167 -58.5 -163.5 -58.5c-67.333 0 -119.833 19.167 -157.5 57.5s-56.5 91.833 -56.5 160.5v308c0 15.333 -2.66699 24 -8 26c-2 0 -7.66699 0.333008 -17 1c-23.333 1.33301 -35 21.333 -35 60
c0 22 5.5 40.167 16.5 54.5s24.833 21.5 41.5 21.5c8 0 20.667 -1.16699 38 -3.5s30.666 -3.5 39.999 -3.5c12.667 0 25.667 1 39 3c17.333 2.66699 29.666 4 36.999 4c34.667 0 52 -25.667 52 -77c0 -35.333 -8.33301 -54.666 -25 -57.999l-20 -4
c-5.33301 -2 -8 -12 -8 -30v-271c0 -41.333 4.5 -69.833 13.5 -85.5s25.833 -23.5 50.5 -23.5c26.667 0 44.667 8 54 24s14 46.667 14 92v270c0 14.667 -2.66699 22.667 -8 24l-20 6c-14.667 4.66699 -22 22.667 -22 54c0 52.667 17.333 79 52 79
c8.66699 0 21.834 -1.16699 39.501 -3.5s31.167 -3.5 40.5 -3.5c14 0 31.667 1.66699 53 5c10 1.33301 17.667 2 23 2c15.333 0 28 -6.5 38 -19.5s15 -29.833 15 -50.5c0 -37.333 -10.333 -58.666 -31 -63.999l-22 -6zM204.001 717.998c-22 0 -40.167 8.16797 -54.5 24.501
s-21.5 37.166 -21.5 62.499s7.33301 46.333 22 63s33.334 25 56.001 25c21.333 0 39.166 -8.16699 53.499 -24.5s21.5 -36.833 21.5 -61.5c0 -25.333 -7.33301 -46.5 -22 -63.5s-33 -25.5 -55 -25.5zM390.001 717.999c-22 0 -40.167 8.16797 -54.5 24.501
s-21.5 37.166 -21.5 62.499s7.16699 46.333 21.5 63s32.833 25 55.5 25c22 0 40.167 -8.16699 54.5 -24.5s21.5 -36.833 21.5 -61.5c0 -25.333 -7.33301 -46.5 -22 -63.5s-33 -25.5 -55 -25.5z" />
    <glyph glyph-name="Yacute" unicode="&#xdd;" horiz-adv-x="562" 
d="M237 510l42.998 -113.999l47 114c4 10 6 16.333 6 19c0 4 -1.33301 7.33301 -4 10l-16 12c-10 7.33301 -15 22.666 -15 45.999c0 22 4.83301 39.667 14.5 53s22.167 20 37.5 20c8 0 20 -1.16699 36 -3.5s28.333 -3.5 37 -3.5c13.333 0 30.333 1.66699 51 5
c8 1.33301 18.333 2 31 2c42.667 0 64 -25.333 64 -76c0 -41.333 -13.333 -61.333 -40 -60l-23 1l-17 -10l-9 -19l-105 -209c-13.333 -26.667 -20 -54.334 -20 -83.001v-47l2 -18c1.33301 -10.667 2.5 -17 3.5 -19s4.16699 -3 9.5 -3c3.33301 0 8 0.666992 14 2
s10.667 2 14 2c32 0 48 -21.333 48 -64c0 -46.667 -20.333 -70 -61 -70c-7.33301 0 -24 1.33301 -50 4c-13.333 1.33301 -35.666 2 -66.999 2c-18.667 0 -31.334 -0.333008 -38.001 -1l-48 -5c-1.33301 -0.666992 -3.66602 -1 -6.99902 -1c-18 0 -32.667 6.83301 -44 20.5
s-17 31.167 -17 52.5c0 41.333 16 62 48 62c3.33301 0 8 -0.666992 14 -2s10.667 -2 14 -2c8.66699 0 13.334 7.33301 14.001 22l1 25v32c0 32.667 -5.33301 59.334 -16 80.001l-11 21l-99 203c-8 16 -15 24 -21 24h-21c-29.333 0 -44 20.333 -44 61c0 50 21 75 63 75
c6.66699 0 15.667 -0.666992 27 -2c28 -3.33301 46.333 -5 55 -5s21.667 1.16699 39 3.5s30.333 3.5 39 3.5c33.333 0 50 -23 50 -69c0 -24 -5 -40 -15 -48l-16 -13c-3.33301 -2 -5 -5.33301 -5 -10c0 -1.33301 2.33301 -8 7 -20zM385.998 802.001
c0 -18.667 -13 -32.333 -39 -41l-92 -31c-20 -6.66699 -32.667 -10 -38 -10c-16 0 -28.333 10 -37 30c-2.66699 6 -4 13 -4 21c0 12.667 5.33301 23 16 31c2.66699 2 13.667 7.66699 33 17l88 42c10 4.66699 17.333 7 22 7c14 0 26 -6.5 36 -19.5s15 -28.5 15 -46.5z" />
    <glyph glyph-name="Thorn" unicode="&#xde;" horiz-adv-x="524" 
d="M272 526c27.333 2.66699 48.0029 3.99805 62.0029 3.99805c52.667 0 95.167 -20 127.5 -60s48.5 -81.667 48.5 -125c0 -60.667 -23 -110.667 -69 -150c-23.333 -20 -51.333 -33 -84 -39c-18 -3.33301 -49 -5.33301 -93 -6c-4 0 -10.667 -0.333008 -20 -1v-1
c1.33301 -10 5.66602 -15 12.999 -15c4 0 6.83301 0.166992 8.5 0.5s3.5 0.833008 5.5 1.5h5c4.66699 0 9 -1 13 -3h5c32.667 0 49 -20.333 49 -61c0 -22 -5.83301 -39.833 -17.5 -53.5s-26.167 -20.5 -43.5 -20.5c-4.66699 0 -11 0.333008 -19 1
c-2.66699 -0.666992 -5.66699 -1 -9 -1c-9.33301 0 -23.666 1 -42.999 3c-12.667 1.33301 -23.334 2.33301 -32.001 3c-10 -0.666992 -23 -1.66699 -39 -3c-24.667 -2 -43 -3 -55 -3h-3h-3c-10.667 0.666992 -20.334 4 -29.001 10
c-4.66699 2.66699 -8.66699 6.33398 -12 11.001c-12 14 -18 32.333 -18 55c0 17.333 4 32 12 44l6 8c6.66699 6.66699 14 10 22 10h5l4 -2h2h8c4 0 7.33301 1.33301 10 4l1 1c1.33301 2 2 4 2 6c0.666992 0.666992 1 1.66699 1 3v4v365c0 12 -4.66699 18 -14 18
c-3.33301 0 -6 -0.333008 -8 -1h-6c-2.66699 -0.666992 -4.33398 -1 -5.00098 -1c-11.333 0 -20.833 6 -28.5 18s-11.5 26.667 -11.5 44c0 22 6 40.167 18 54.5s27.333 21.5 46 21.5c9.33301 0 23.333 -1.16699 42 -3.5s32.667 -3.5 42 -3.5s23.5 1.16699 42.5 3.5
s33.167 3.5 42.5 3.5c18.667 0 34 -7.16699 46 -21.5s18 -32.5 18 -54.5c0 -17.333 -4 -32 -12 -44s-17.333 -18 -28 -18c-2 0 -5.16699 0.333008 -9.5 1s-7.5 1 -9.5 1c-6.66699 0 -11 -3.33301 -13 -10c8 0.666992 17 1.33398 27 2.00098zM268.003 273.998
c57.333 0 86 19.667 86 59c0 28.667 -6.5 46.167 -19.5 52.5s-30.833 9.5 -53.5 9.5c-16 0 -26.333 -4 -31 -12c-4 -6 -6.33301 -9 -7 -9v-98c8 -1.33301 16.333 -2 25 -2z" />
    <glyph glyph-name="germandbls" unicode="&#xdf;" horiz-adv-x="584" 
d="M418 -14c-27.333 0 -57.3301 12.333 -89.9971 37c-6 -23.333 -20.333 -35 -43 -35c-28 0 -42 13.333 -42 40c0 1.33301 1 13.666 3 36.999c1.33301 15.333 2 29 2 41c0 9.33301 -0.833008 22.833 -2.5 40.5s-2.5 31.167 -2.5 40.5c0 29.333 17.667 44 53 44
c32 0 48.333 -12.333 49 -37l1 -39c0.666992 -30 13.667 -45 39 -45c12.667 0 23 5.66699 31 17s12 25.666 12 42.999c0 21.333 -6 39 -18 53s-35.333 31 -70 51c-37.333 21.333 -61 37.5 -71 48.5s-15 26.5 -15 46.5s8 36.333 24 49l22 17
c18.667 14.667 28 34.334 28 59.001c0 44.667 -17.333 67 -52 67c-41.333 0 -62 -41 -62 -123v-398c0 -28.667 -11 -43 -33 -43c-3.33301 0 -11 1 -23 3c-8 1.33301 -16.667 2 -26 2c-12 0 -23.667 -1 -35 -3c-18.667 -1.33301 -28.667 -2 -30 -2
c-14 0 -25.5 5.83301 -34.5 17.5s-13.5 26.834 -13.5 45.501c0 32 10.667 48 32 48c4 0 7.33301 -0.333008 10 -1h5c2 -0.666992 3.33301 -1 4 -1c10 0 15 14 15 42v213c0 15.333 -5.33301 23 -16 23h-15c-24.667 0 -37 18 -37 54c0 16 4 29.5 12 40.5s17.667 16.5 29 16.5
h16c9.33301 0 15 6 17 18l3 18c16.667 101.333 78 152 184 152c58 0 103.667 -15.167 137 -45.5s50 -71.833 50 -124.5c0 -44.667 -12.667 -78.667 -38 -102c-4 -3.33301 -7.66699 -6.83301 -11 -10.5s-5 -7.16699 -5 -10.5c0 -6 7.33301 -11.667 22 -17
c21.333 -7.33301 42.166 -21 62.499 -41s35.166 -41.333 44.499 -64c10.667 -26 16 -55.667 16 -89c0 -54.667 -13.333 -100.5 -40 -137.5s-59.334 -55.5 -98.001 -55.5z" />
    <glyph glyph-name="agrave" unicode="&#xe0;" horiz-adv-x="446" 
d="M361 -14c-36.667 0 -61.333 16.999 -74 50.999c-34.667 -34 -75.667 -51 -123 -51c-42 0 -75.5 13.5 -100.5 40.5s-37.5 63.5 -37.5 109.5c0 48.667 11.167 85.167 33.5 109.5s61.166 41.833 116.499 52.5c29.333 6 49.5 13.333 60.5 22s16.5 21.667 16.5 39
c0 33.333 -12.667 50 -38 50c-14.667 0 -22 -6.33301 -22 -19c0 -6.66699 0.333008 -13 1 -19v-3c0 -16.667 -5.83301 -30.667 -17.5 -42s-26.167 -17 -43.5 -17c-22 0 -40.333 7.83301 -55 23.5s-22 35.167 -22 58.5c0 34.667 14.667 62.5 44 83.5s68.333 31.5 117 31.5
c56.667 0 98.167 -13.167 124.5 -39.5s39.5 -68.166 39.5 -125.499v-198c0 -22.667 4 -34 12 -34c2.66699 0 5.33398 0.333008 8.00098 1c0.666992 0 2 0.333008 4 1h3c21.333 0 32 -15.667 32 -47c0 -22 -7.5 -40.5 -22.5 -55.5s-33.833 -22.5 -56.5 -22.5z
M162.001 718.999c6.66699 0 14.666 -2.33398 23.999 -7.00098l87 -42c20 -9.33301 31 -15 33 -17c11.333 -8 17 -18 17 -30s-4.16699 -23.667 -12.5 -35s-18.166 -17 -29.499 -17c-5.33301 0 -18 3.33301 -38 10l-92 31c-26 8.66699 -39 22.334 -39 41.001
c0 18 5 33.5 15 46.5s21.667 19.5 35 19.5zM253 195.998l0.999023 19l-8 -2l-30 -9c-23.333 -6.66699 -39.166 -14.167 -47.499 -22.5s-12.5 -20.833 -12.5 -37.5c0 -32.667 14 -49 42 -49c16 0 29.167 6 39.5 18s15.5 27.333 15.5 46v37z" />
    <glyph glyph-name="aacute" unicode="&#xe1;" horiz-adv-x="446" 
d="M361 -14c-36.667 0 -61.333 16.999 -74 50.999c-34.667 -34 -75.667 -51 -123 -51c-42 0 -75.5 13.5 -100.5 40.5s-37.5 63.5 -37.5 109.5c0 48.667 11.167 85.167 33.5 109.5s61.166 41.833 116.499 52.5c29.333 6 49.5 13.333 60.5 22s16.5 21.667 16.5 39
c0 33.333 -12.667 50 -38 50c-14.667 0 -22 -6.33301 -22 -19c0 -6.66699 0.333008 -13 1 -19v-3c0 -16.667 -5.83301 -30.667 -17.5 -42s-26.167 -17 -43.5 -17c-22 0 -40.333 7.83301 -55 23.5s-22 35.167 -22 58.5c0 34.667 14.667 62.5 44 83.5s68.333 31.5 117 31.5
c56.667 0 98.167 -13.167 124.5 -39.5s39.5 -68.166 39.5 -125.499v-198c0 -22.667 4 -34 12 -34c2.66699 0 5.33398 0.333008 8.00098 1c0.666992 0 2 0.333008 4 1h3c21.333 0 32 -15.667 32 -47c0 -22 -7.5 -40.5 -22.5 -55.5s-33.833 -22.5 -56.5 -22.5z
M323.001 652.999c0 -18.667 -13.333 -32.333 -40 -41l-92 -31c-20 -6.66699 -32.667 -10 -38 -10c-16 0 -28 10 -36 30c-3.33301 6.66699 -5 13.667 -5 21c0 12.667 5.33301 23 16 31c2.66699 2 13.667 7.66699 33 17l88 42c10 4.66699 17.333 7 22 7
c14.667 0 27 -6.5 37 -19.5s15 -28.5 15 -46.5zM253.001 196l0.999023 19l-8 -2l-30 -9c-23.333 -6.66699 -39.166 -14.167 -47.499 -22.5s-12.5 -20.833 -12.5 -37.5c0 -32.667 14 -49 42 -49c16 0 29.167 6 39.5 18s15.5 27.333 15.5 46v37z" />
    <glyph glyph-name="acircumflex" unicode="&#xe2;" horiz-adv-x="446" 
d="M361 -14c-36.667 0 -61.333 16.999 -74 50.999c-34.667 -34 -75.667 -51 -123 -51c-42 0 -75.5 13.5 -100.5 40.5s-37.5 63.5 -37.5 109.5c0 48.667 11.167 85.167 33.5 109.5s61.166 41.833 116.499 52.5c29.333 6 49.5 13.333 60.5 22s16.5 21.667 16.5 39
c0 33.333 -12.667 50 -38 50c-14.667 0 -22 -6.33301 -22 -19c0 -6.66699 0.333008 -13 1 -19v-3c0 -16.667 -5.83301 -30.667 -17.5 -42s-26.167 -17 -43.5 -17c-22 0 -40.333 7.83301 -55 23.5s-22 35.167 -22 58.5c0 34.667 14.667 62.5 44 83.5s68.333 31.5 117 31.5
c56.667 0 98.167 -13.167 124.5 -39.5s39.5 -68.166 39.5 -125.499v-198c0 -22.667 4 -34 12 -34c2.66699 0 5.33398 0.333008 8.00098 1c0.666992 0 2 0.333008 4 1h3c21.333 0 32 -15.667 32 -47c0 -22 -7.5 -40.5 -22.5 -55.5s-33.833 -22.5 -56.5 -22.5z
M306.001 573.999l-86 30.999l-86 -30c-13.333 -4.66699 -24 -7 -32 -7c-12 0 -22.167 4.33301 -30.5 13s-12.5 19.334 -12.5 32.001c0 20.667 13.333 38 40 52l77 40c18 9.33301 32.333 14 43 14c13.333 0 30.333 -5.66699 51 -17l74 -41c23.333 -12.667 35 -29 35 -49
c0 -30 -14 -45 -42 -45c-8 0 -18.333 2.33301 -31 7zM253.001 195.998l0.999023 19l-8 -2l-30 -9c-23.333 -6.66699 -39.166 -14.167 -47.499 -22.5s-12.5 -20.833 -12.5 -37.5c0 -32.667 14 -49 42 -49c16 0 29.167 6 39.5 18s15.5 27.333 15.5 46v37z" />
    <glyph glyph-name="atilde" unicode="&#xe3;" horiz-adv-x="446" 
d="M361 -14c-36.667 0 -61.333 16.999 -74 50.999c-34.667 -34 -75.667 -51 -123 -51c-42 0 -75.5 13.5 -100.5 40.5s-37.5 63.5 -37.5 109.5c0 48.667 11.167 85.167 33.5 109.5s61.166 41.833 116.499 52.5c29.333 6 49.5 13.333 60.5 22s16.5 21.667 16.5 39
c0 33.333 -12.667 50 -38 50c-14.667 0 -22 -6.33301 -22 -19c0 -6.66699 0.333008 -13 1 -19v-3c0 -16.667 -5.83301 -30.667 -17.5 -42s-26.167 -17 -43.5 -17c-22 0 -40.333 7.83301 -55 23.5s-22 35.167 -22 58.5c0 34.667 14.667 62.5 44 83.5s68.333 31.5 117 31.5
c56.667 0 98.167 -13.167 124.5 -39.5s39.5 -68.166 39.5 -125.499v-198c0 -22.667 4 -34 12 -34c2.66699 0 5.33398 0.333008 8.00098 1c0.666992 0 2 0.333008 4 1h3c21.333 0 32 -15.667 32 -47c0 -22 -7.5 -40.5 -22.5 -55.5s-33.833 -22.5 -56.5 -22.5z
M276.001 685.999c6.66699 0 13.666 2.66504 20.999 7.99805l24 21c6 5.33301 13.333 8 22 8c12 0 22.167 -5 30.5 -15s12.5 -22.333 12.5 -37c0 -35.333 -14.667 -63.666 -44 -84.999c-15.333 -11.333 -30.333 -17 -45 -17c-16 0 -45.667 9.66699 -89 29
c-12 5.33301 -22 8 -30 8c-9.33301 0 -16.333 -2.33301 -21 -7l-20 -19c-8 -7.33301 -17 -11 -27 -11c-11.333 0 -21.333 5.16699 -30 15.5s-13 22.833 -13 37.5c0 26.667 9 50.334 27 71.001s38.333 31 61 31c12.667 0 40.334 -9 83.001 -27c17.333 -7.33301 30 -11 38 -11
zM253 195.997l0.999023 19l-8 -2l-30 -9c-23.333 -6.66699 -39.166 -14.167 -47.499 -22.5s-12.5 -20.833 -12.5 -37.5c0 -32.667 14 -49 42 -49c16 0 29.167 6 39.5 18s15.5 27.333 15.5 46v37z" />
    <glyph glyph-name="adieresis" unicode="&#xe4;" horiz-adv-x="446" 
d="M361 -14c-36.667 0 -61.333 16.999 -74 50.999c-34.667 -34 -75.667 -51 -123 -51c-42 0 -75.5 13.5 -100.5 40.5s-37.5 63.5 -37.5 109.5c0 48.667 11.167 85.167 33.5 109.5s61.166 41.833 116.499 52.5c29.333 6 49.5 13.333 60.5 22s16.5 21.667 16.5 39
c0 33.333 -12.667 50 -38 50c-14.667 0 -22 -6.33301 -22 -19c0 -6.66699 0.333008 -13 1 -19v-3c0 -16.667 -5.83301 -30.667 -17.5 -42s-26.167 -17 -43.5 -17c-22 0 -40.333 7.83301 -55 23.5s-22 35.167 -22 58.5c0 34.667 14.667 62.5 44 83.5s68.333 31.5 117 31.5
c56.667 0 98.167 -13.167 124.5 -39.5s39.5 -68.166 39.5 -125.499v-198c0 -22.667 4 -34 12 -34c2.66699 0 5.33398 0.333008 8.00098 1c0.666992 0 2 0.333008 4 1h3c21.333 0 32 -15.667 32 -47c0 -22 -7.5 -40.5 -22.5 -55.5s-33.833 -22.5 -56.5 -22.5z
M130.001 557.999c-22.667 0 -41 8.16797 -55 24.501s-21 37.166 -21 62.499s7.16699 46.333 21.5 63s32.833 25 55.5 25c21.333 0 39.333 -8.16699 54 -24.5s22 -36.833 22 -61.5c0 -25.333 -7.33301 -46.5 -22 -63.5s-33 -25.5 -55 -25.5zM316.001 558
c-22.667 0 -40.999 8.16797 -54.999 24.501s-21 37.166 -21 62.499s7.16699 46.333 21.5 63s32.833 25 55.5 25c21.333 0 39.166 -8.16699 53.499 -24.5s21.5 -36.833 21.5 -61.5c0 -25.333 -7.16699 -46.5 -21.5 -63.5s-32.5 -25.5 -54.5 -25.5zM253.002 196.001
l0.999023 19l-8 -2l-30 -9c-23.333 -6.66699 -39.166 -14.167 -47.499 -22.5s-12.5 -20.833 -12.5 -37.5c0 -32.667 14 -49 42 -49c16 0 29.167 6 39.5 18s15.5 27.333 15.5 46v37z" />
    <glyph glyph-name="aring" unicode="&#xe5;" horiz-adv-x="446" 
d="M361 -14c-36.667 0 -61.333 16.999 -74 50.999c-34.667 -34 -75.667 -51 -123 -51c-42 0 -75.5 13.5 -100.5 40.5s-37.5 63.5 -37.5 109.5c0 48.667 11.167 85.167 33.5 109.5s61.166 41.833 116.499 52.5c29.333 6 49.5 13.333 60.5 22s16.5 21.667 16.5 39
c0 33.333 -12.667 50 -38 50c-14.667 0 -22 -6.33301 -22 -19c0 -6.66699 0.333008 -13 1 -19v-3c0 -16.667 -5.83301 -30.667 -17.5 -42s-26.167 -17 -43.5 -17c-22 0 -40.333 7.83301 -55 23.5s-22 35.167 -22 58.5c0 34.667 14.667 62.5 44 83.5s68.333 31.5 117 31.5
c56.667 0 98.167 -13.167 124.5 -39.5s39.5 -68.166 39.5 -125.499v-198c0 -22.667 4 -34 12 -34c2.66699 0 5.33398 0.333008 8.00098 1c0.666992 0 2 0.333008 4 1h3c21.333 0 32 -15.667 32 -47c0 -22 -7.5 -40.5 -22.5 -55.5s-33.833 -22.5 -56.5 -22.5z
M219.001 552.999c-26.667 0 -48.502 9.66895 -65.502 29.002s-25.5 44.666 -25.5 75.999c0 32.667 8.66699 59 26 79s40 30 68 30c26.667 0 48.334 -9.5 65.001 -28.5s25 -43.833 25 -74.5c0 -32.667 -8.66699 -59.334 -26 -80.001s-39.666 -31 -66.999 -31z
M252.999 196.001l0.999023 19l-8 -2l-30 -9c-23.333 -6.66699 -39.166 -14.167 -47.499 -22.5s-12.5 -20.833 -12.5 -37.5c0 -32.667 14 -49 42 -49c16 0 29.167 6 39.5 18s15.5 27.333 15.5 46v37zM219.998 695.001c-16.667 0 -25 -11.667 -25 -35v-2
c0 -22 8.33301 -33 25 -33c16 0 24 11.333 24 34c0 24 -8 36 -24 36z" />
    <glyph glyph-name="ae" unicode="&#xe6;" horiz-adv-x="640" 
d="M569 214h-186.001c1.33301 -78 20.333 -117 57 -117c20 0 34 11 42 33l11 31c6 17.333 22.333 26 49 26c42 0 63 -18.667 63 -56c0 -41.333 -15 -75.666 -45 -102.999s-67.667 -41 -113 -41c-65.333 0 -112.666 23 -141.999 69c-29.333 -46.667 -72.333 -70 -129 -70
c-45.333 0 -81.666 14.5 -108.999 43.5s-41 67.5 -41 115.5c0 112 69.667 168 209 168c8.66699 0 17 -0.333008 25 -1v29c0 20 -4.83301 36.5 -14.5 49.5s-21.834 19.5 -36.501 19.5c-13.333 0 -25 -6 -35 -18c1.33301 -9.33301 2 -14.333 2 -15
c0 -14.667 -5.66699 -27.334 -17 -38.001s-24.666 -16 -39.999 -16c-18 0 -32.833 6.5 -44.5 19.5s-17.5 29.5 -17.5 49.5c0 31.333 14 57.833 42 79.5s62.333 32.5 103 32.5c52.667 0 93 -17.667 121 -53c29.333 35.333 70.666 53 123.999 53c48 0 87.333 -20.333 118 -61
s46 -92.667 46 -156c0 -26 -1.33301 -42.667 -4 -50c-5.33301 -15.333 -18 -23 -38 -23zM259.999 180v30c-5.33301 0.666992 -11 1 -17 1c-52.667 0 -79 -19 -79 -57c0 -14.667 4 -26.667 12 -36s18.333 -14 31 -14c35.333 0 53 25.333 53 76zM388.999 312
l94.999 -0.000976562v11c0 20.667 -4.33301 37.5 -13 50.5s-20 19.5 -34 19.5c-25.333 0 -40.666 -21.667 -45.999 -65c0 -1.33301 -0.666992 -6.66602 -2 -15.999z" />
    <glyph glyph-name="ccedilla" unicode="&#xe7;" horiz-adv-x="420" 
d="M391 147c0 -43.333 -14.332 -79.833 -42.999 -109.5s-65.667 -46.834 -111 -51.501l-14 -33c59.333 -1.33301 89 -27 89 -77c0 -26 -10 -47.333 -30 -64s-45.333 -25 -76 -25c-29.333 0 -55.333 7 -78 21s-34 30 -34 48c0 8 3 15.167 9 21.5s12.667 9.5 20 9.5
c4.66699 0 15.5 -4.66699 32.5 -14s31.833 -14 44.5 -14c18 0 27 6.33301 27 19c0 16 -14 24 -42 24c-7.33301 0 -16.666 -1 -27.999 -3h-2c-14.667 0 -22 7.33301 -22 22c0 13.333 5.66699 29.333 17 48l9 15l4 10c-34.667 16 -61.334 34.667 -80.001 56
c-36 42 -54 104 -54 186c0 82.667 18.333 148.5 55 197.5s85.667 73.5 147 73.5c44 0 81.167 -14.167 111.5 -42.5s45.5 -63.166 45.5 -104.499c0 -26.667 -6.83301 -47.834 -20.5 -63.501s-31.834 -23.5 -54.501 -23.5c-40 0 -60 19.667 -60 59
c0 13.333 4 26.666 12 39.999c-10.667 13.333 -22 20 -34 20c-22 0 -39.833 -13.167 -53.5 -39.5s-20.5 -60.833 -20.5 -103.5c0 -43.333 6.33301 -78.666 19 -105.999s28.667 -41 48 -41c22.667 0 39 18.667 49 56c6 22.667 13.333 38.334 22 47.001s21.667 13 39 13
c38 0 57 -23.667 57 -71z" />
    <glyph glyph-name="egrave" unicode="&#xe8;" horiz-adv-x="432" 
d="M361 217h-203v-16c0 -70.667 21.667 -106 65 -106c30 0 49.333 17 58 51c4.66699 18.667 10.334 30.667 17.001 36s19 8 37 8c42 0 63 -21 63 -63c0 -40.667 -15.833 -74.334 -47.5 -101.001s-71.5 -40 -119.5 -40c-64 0 -113.833 21.833 -149.5 65.5
s-53.5 104.834 -53.5 183.501c0 85.333 17.167 151.833 51.5 199.5s82.166 71.5 143.499 71.5c55.333 0 99.333 -20 132 -60s49 -93.667 49 -161c0 -26.667 -3 -44.667 -9 -54s-17.333 -14 -34 -14zM173 719c5.33301 0 13 -2.33301 23 -7l88 -42
c19.333 -9.33301 30.333 -15 33 -17c10.667 -7.33301 16 -17.333 16 -30c0 -18.667 -6.66699 -33.334 -20 -44.001c-6.66699 -5.33301 -13.667 -8 -21 -8c-5.33301 0 -18 3.33301 -38 10l-92 31c-26 8.66699 -39 22.334 -39 41.001c0 18 5 33.5 15 46.5s21.667 19.5 35 19.5
zM164 317h108.998v11c0 20 -4.66699 36.333 -14 49s-21.666 19 -36.999 19c-35.333 0 -54.666 -26.333 -57.999 -79z" />
    <glyph glyph-name="eacute" unicode="&#xe9;" horiz-adv-x="432" 
d="M361 217h-203v-16c0 -70.667 21.667 -106 65 -106c30 0 49.333 17 58 51c4.66699 18.667 10.334 30.667 17.001 36s19 8 37 8c42 0 63 -21 63 -63c0 -40.667 -15.833 -74.334 -47.5 -101.001s-71.5 -40 -119.5 -40c-64 0 -113.833 21.833 -149.5 65.5
s-53.5 104.834 -53.5 183.501c0 85.333 17.167 151.833 51.5 199.5s82.166 71.5 143.499 71.5c55.333 0 99.333 -20 132 -60s49 -93.667 49 -161c0 -26.667 -3 -44.667 -9 -54s-17.333 -14 -34 -14zM327 653c0 -18 -13.334 -31.667 -40.001 -41l-91 -31
c-19.333 -6.66699 -32 -10 -38 -10c-11.333 0 -21.166 5.5 -29.499 16.5s-12.5 22.5 -12.5 34.5c0 12.667 5.33301 23 16 31c2.66699 2 13.667 7.66699 33 17l88 42c10 4.66699 17.333 7 22 7c14.667 0 27 -6.5 37 -19.5s15 -28.5 15 -46.5zM163.999 317h108.998v11
c0 20 -4.66699 36.333 -14 49s-21.666 19 -36.999 19c-35.333 0 -54.666 -26.333 -57.999 -79z" />
    <glyph glyph-name="ecircumflex" unicode="&#xea;" horiz-adv-x="432" 
d="M361 217h-203v-16c0 -70.667 21.667 -106 65 -106c30 0 49.333 17 58 51c4.66699 18.667 10.334 30.667 17.001 36s19 8 37 8c42 0 63 -21 63 -63c0 -40.667 -15.833 -74.334 -47.5 -101.001s-71.5 -40 -119.5 -40c-64 0 -113.833 21.833 -149.5 65.5
s-53.5 104.834 -53.5 183.501c0 85.333 17.167 151.833 51.5 199.5s82.166 71.5 143.499 71.5c55.333 0 99.333 -20 132 -60s49 -93.667 49 -161c0 -26.667 -3 -44.667 -9 -54s-17.333 -14 -34 -14zM310 574l-86 31l-86 -30c-13.333 -4.66699 -24 -7 -32 -7
c-11.333 0 -21.166 4.33301 -29.499 13s-12.5 19.334 -12.5 32.001c0 21.333 13 38.666 39 51.999l77 40c18 9.33301 32.333 14 43 14c13.333 0 30.333 -5.66699 51 -17l74 -41c23.333 -12.667 35 -29 35 -49c0 -30 -13.667 -45 -41 -45
c-8.66699 0 -19.334 2.33301 -32.001 7zM164 317h108.998v11c0 20 -4.66699 36.333 -14 49s-21.666 19 -36.999 19c-35.333 0 -54.666 -26.333 -57.999 -79z" />
    <glyph glyph-name="edieresis" unicode="&#xeb;" horiz-adv-x="432" 
d="M361 217h-203v-16c0 -70.667 21.667 -106 65 -106c30 0 49.333 17 58 51c4.66699 18.667 10.334 30.667 17.001 36s19 8 37 8c42 0 63 -21 63 -63c0 -40.667 -15.833 -74.334 -47.5 -101.001s-71.5 -40 -119.5 -40c-64 0 -113.833 21.833 -149.5 65.5
s-53.5 104.834 -53.5 183.501c0 85.333 17.167 151.833 51.5 199.5s82.166 71.5 143.499 71.5c55.333 0 99.333 -20 132 -60s49 -93.667 49 -161c0 -26.667 -3 -44.667 -9 -54s-17.333 -14 -34 -14zM132 558c-22 0 -40.167 8.16797 -54.5 24.501s-21.5 37.166 -21.5 62.499
s7.16699 46.333 21.5 63s32.833 25 55.5 25c22 0 40.167 -8.16699 54.5 -24.5s21.5 -36.833 21.5 -61.5c0 -25.333 -7.33301 -46.5 -22 -63.5s-33 -25.5 -55 -25.5zM318 558.001c-22.667 0 -41 8.16797 -55 24.501s-21 37.166 -21 62.499s7.16699 46.333 21.5 63
s32.833 25 55.5 25c22 0 40.167 -8.16699 54.5 -24.5s21.5 -36.833 21.5 -61.5c0 -25.333 -7.33301 -46.5 -22 -63.5s-33 -25.5 -55 -25.5zM164 317.002h108.998v11c0 20 -4.66699 36.333 -14 49s-21.666 19 -36.999 19c-35.333 0 -54.666 -26.333 -57.999 -79z" />
    <glyph glyph-name="igrave" unicode="&#xec;" horiz-adv-x="282" 
d="M185 496c18.667 0 28.002 -12 28.002 -36v-312c0 -28 5.33301 -42 16 -42c2 0 5 0.333008 9 1s7 1 9 1c21.333 0 32 -16 32 -48c0 -42.667 -16 -64 -48 -64c-8 0 -19.833 1 -35.5 3s-27.5 3 -35.5 3c-15.333 0 -36 -1.33301 -62 -4c-6.66699 -0.666992 -16 -1 -28 -1
c-34 0 -51 21 -51 63c0 32 10.667 48 32 48c4 0 7.33301 -0.333008 10 -1h5c2 -0.666992 3.33301 -1 4 -1c10 0 15 14 15 42v196c0 28 -4.33301 42 -13 42c-2 0 -5.33301 -0.5 -10 -1.5s-8.33398 -1.5 -11.001 -1.5c-22.667 0 -34 18 -34 54c0 40 15 60 45 60
c6.66699 0 19 -1 37 -3c15.333 -2 27.666 -2.66699 36.999 -2zM80.002 719c5.33301 0 13 -2.33398 23 -7.00098l88 -42c19.333 -9.33301 30.333 -15 33 -17c10.667 -7.33301 16 -17.333 16 -30c0 -11.333 -4 -22.833 -12 -34.5s-17.667 -17.5 -29 -17.5
c-5.33301 0 -18 3.33301 -38 10l-92 31c-26.667 8.66699 -40 22.334 -40 41.001c0 18 5 33.5 15 46.5s22 19.5 36 19.5z" />
    <glyph glyph-name="iacute" unicode="&#xed;" horiz-adv-x="282" 
d="M185 496c18.667 0 28.002 -12 28.002 -36v-312c0 -28 5.33301 -42 16 -42c2 0 5 0.333008 9 1s7 1 9 1c21.333 0 32 -16 32 -48c0 -42.667 -16 -64 -48 -64c-8 0 -19.833 1 -35.5 3s-27.5 3 -35.5 3c-15.333 0 -36 -1.33301 -62 -4c-6.66699 -0.666992 -16 -1 -28 -1
c-34 0 -51 21 -51 63c0 32 10.667 48 32 48c4 0 7.33301 -0.333008 10 -1h5c2 -0.666992 3.33301 -1 4 -1c10 0 15 14 15 42v196c0 28 -4.33301 42 -13 42c-2 0 -5.33301 -0.5 -10 -1.5s-8.33398 -1.5 -11.001 -1.5c-22.667 0 -34 18 -34 54c0 40 15 60 45 60
c6.66699 0 19 -1 37 -3c15.333 -2 27.666 -2.66699 36.999 -2zM227.002 653c0 -18 -13.334 -31.667 -40.001 -41l-91 -31c-19.333 -6.66699 -32 -10 -38 -10c-11.333 0 -21.166 5.5 -29.499 16.5s-12.5 22.5 -12.5 34.5c0 12.667 5.33301 23 16 31
c2.66699 2 13.667 7.66699 33 17l88 42c10 4.66699 17.333 7 22 7c14.667 0 27 -6.5 37 -19.5s15 -28.5 15 -46.5z" />
    <glyph glyph-name="icircumflex" unicode="&#xee;" horiz-adv-x="282" 
d="M185 496c18.667 0 28.002 -12 28.002 -36v-312c0 -28 5.33301 -42 16 -42c2 0 5 0.333008 9 1s7 1 9 1c21.333 0 32 -16 32 -48c0 -42.667 -16 -64 -48 -64c-8 0 -19.833 1 -35.5 3s-27.5 3 -35.5 3c-15.333 0 -36 -1.33301 -62 -4c-6.66699 -0.666992 -16 -1 -28 -1
c-34 0 -51 21 -51 63c0 32 10.667 48 32 48c4 0 7.33301 -0.333008 10 -1h5c2 -0.666992 3.33301 -1 4 -1c10 0 15 14 15 42v196c0 28 -4.33301 42 -13 42c-2 0 -5.33301 -0.5 -10 -1.5s-8.33398 -1.5 -11.001 -1.5c-22.667 0 -34 18 -34 54c0 40 15 60 45 60
c6.66699 0 19 -1 37 -3c15.333 -2 27.666 -2.66699 36.999 -2zM206.002 574l-71.001 30.999l-71 -30c-11.333 -4.66699 -20 -7 -26 -7c-9.33301 0 -17.5 4.33301 -24.5 13s-10.5 19.334 -10.5 32.001c0 20.667 11 38 33 52l63 40c14.667 9.33301 26.667 14 36 14
c10.667 0 24.334 -5.66699 41.001 -17l61 -41c19.333 -12.667 29 -29 29 -49c0 -30 -11.667 -45 -35 -45c-6 0 -14.333 2.33301 -25 7z" />
    <glyph glyph-name="idieresis" unicode="&#xef;" horiz-adv-x="282" 
d="M185 496c18.667 0 28.002 -12 28.002 -36v-312c0 -28 5.33301 -42 16 -42c2 0 5 0.333008 9 1s7 1 9 1c21.333 0 32 -16 32 -48c0 -42.667 -16 -64 -48 -64c-8 0 -19.833 1 -35.5 3s-27.5 3 -35.5 3c-15.333 0 -36 -1.33301 -62 -4c-6.66699 -0.666992 -16 -1 -28 -1
c-34 0 -51 21 -51 63c0 32 10.667 48 32 48c4 0 7.33301 -0.333008 10 -1h5c2 -0.666992 3.33301 -1 4 -1c10 0 15 14 15 42v196c0 28 -4.33301 42 -13 42c-2 0 -5.33301 -0.5 -10 -1.5s-8.33398 -1.5 -11.001 -1.5c-22.667 0 -34 18 -34 54c0 40 15 60 45 60
c6.66699 0 19 -1 37 -3c15.333 -2 27.666 -2.66699 36.999 -2zM42.002 567c-20.667 0 -37.334 7.16797 -50.001 21.501s-19 33.166 -19 56.499s6.5 42.333 19.5 57s29.833 22 50.5 22c19.333 0 35.5 -7.33301 48.5 -22s19.5 -33 19.5 -55
c0 -22.667 -6.66699 -41.667 -20 -57s-29.666 -23 -48.999 -23zM209.002 567.001c-20 0 -36.334 7.33203 -49.001 21.999s-19 33.334 -19 56.001s6.5 41.5 19.5 56.5s29.5 22.5 49.5 22.5c19.333 0 35.5 -7.33301 48.5 -22s19.5 -33 19.5 -55
c0 -22.667 -6.66699 -41.667 -20 -57s-29.666 -23 -48.999 -23z" />
    <glyph glyph-name="eth" unicode="&#xf0;" horiz-adv-x="448" 
d="M183 489l-13.998 -15.001c-8 -7.33301 -17 -11 -27 -11s-19.333 4.33301 -28 13c-7.33301 7.33301 -11 16.5 -11 27.5s3.66699 20.167 11 27.5l13 11c4 3.33301 7.66699 6.66602 11 9.99902l-4 2c-3.33301 0.666992 -10.333 2.33398 -21 5.00098
c-24 6 -40 12.833 -48 20.5s-12 22.5 -12 44.5c0 42 20.333 63 61 63c42.667 0 83.334 -13.667 122.001 -41l5 5c1.33301 1.33301 2.33301 2.66602 3 3.99902l17 19l2 2c21.333 20.667 40.666 22.334 57.999 5.00098c18 -18 15 -38.667 -9 -62
c-2 -2.66699 -6 -6.66699 -12 -12c-1.33301 -0.666992 -3 -1.66699 -5 -3c-2 -2 -3.66699 -3.33301 -5 -4l-2 -2c12.667 -13.333 24.667 -28.333 36 -45c62.667 -89.333 94 -190.333 94 -303h-1c1.33301 -11.333 2 -22.666 2 -33.999c0 -74 -16.833 -130.833 -50.5 -170.5
s-81.834 -59.5 -144.501 -59.5c-62 0 -110.167 19.333 -144.5 58s-51.5 93 -51.5 163c0 72 17.167 127.333 51.5 166s83.166 58 146.499 58c5.33301 0 11 -0.333008 17 -1l-1 1c-11.333 30 -25.333 55.333 -42 76c-5.33301 -6 -11 -12 -17 -18zM226.002 328.999
c-42.667 0 -65 -37.668 -67 -113.001c-0.666992 -2 -1 -5 -1 -9c0 -36.667 5.83301 -65.667 17.5 -87s27.5 -32 47.5 -32c43.333 0 65 40.333 65 121c0 36.667 -5.5 65.834 -16.5 87.501s-26.167 32.5 -45.5 32.5z" />
    <glyph glyph-name="ntilde" unicode="&#xf1;" horiz-adv-x="499" 
d="M187 469l0.000976562 -21.001c34 40.667 73 61 117 61c39.333 0 70.833 -14 94.5 -42s35.5 -66 35.5 -114v-205c0 -28 5 -42 15 -42c1.33301 0 3 0.333008 5 1h4c2.66699 0.666992 6 1 10 1c21.333 0 32 -16 32 -48c0 -18.667 -4.5 -33.834 -13.5 -45.501
s-20.833 -17.5 -35.5 -17.5c-5.33301 0 -17 1 -35 3c-12 1.33301 -24 2 -36 2c-7.33301 0 -18.333 -0.833008 -33 -2.5s-25.667 -2.5 -33 -2.5c-28 0 -42 19.333 -42 58c0 24.667 5.83301 40.334 17.5 47.001s17.5 21 17.5 43v155c0 52.667 -15.333 79 -46 79
c-32.667 0 -49 -29.333 -49 -88v-143c0 -24 5.83301 -39.167 17.5 -45.5s17.5 -20.166 17.5 -41.499c0 -42.667 -14.667 -64 -44 -64c-8 0 -19.5 0.833008 -34.5 2.5s-26.5 2.5 -34.5 2.5c-7.33301 0 -18.333 -0.833008 -33 -2.5s-25.667 -2.5 -33 -2.5
c-32.667 0 -49 21 -49 63c0 32 10.667 48 32 48c4 0 7.33301 -0.333008 10 -1h5c2 -0.666992 3.33301 -1 4 -1c10 0 15 14 15 42v196c0 28 -4.33301 42 -13 42c-2 0 -5.33301 -0.5 -10 -1.5s-8.33398 -1.5 -11.001 -1.5c-22.667 0 -34 18 -34 54c0 40 15.333 60 46 60
c4.66699 0 13.334 -0.666992 26.001 -2c19.333 -2 33.666 -3 42.999 -3c4 0 9.5 0.333008 16.5 1s12.5 1 16.5 1c14.667 0 22 -8.33301 22 -25zM285.001 685.999c7.33301 0 14.3311 2.66504 20.998 7.99805l25 21c6.66699 5.33301 14 8 22 8c12 0 22.167 -5 30.5 -15
s12.5 -22.333 12.5 -37c0 -35.333 -14.667 -63.666 -44 -84.999c-15.333 -11.333 -30.666 -17 -45.999 -17s-44.666 9.66699 -87.999 29c-12 5.33301 -22 8 -30 8c-9.33301 0 -16.333 -2.33301 -21 -7l-20 -19c-8 -7.33301 -17 -11 -27 -11
c-11.333 0 -21.333 5.16699 -30 15.5s-13 22.833 -13 37.5c0 26.667 9 50.334 27 71.001s38.333 31 61 31c12.667 0 27.667 -3.66699 45 -11l43 -18c14 -6 24.667 -9 32 -9z" />
    <glyph glyph-name="ograve" unicode="&#xf2;" horiz-adv-x="448" 
d="M224 -16c-62 0 -110.165 22.668 -144.498 68.001s-51.5 109.333 -51.5 192c0 84 17.167 148.833 51.5 194.5s83.166 68.5 146.499 68.5c61.333 0 108.833 -22.167 142.5 -66.5s50.5 -106.5 50.5 -186.5c0 -86.667 -16.833 -153.334 -50.5 -200.001
s-81.834 -70 -144.501 -70zM169.002 719.001c5.33301 0 13.001 -2.33398 23.001 -7.00098l88 -42c19.333 -9.33301 30.333 -15 33 -17c10.667 -7.33301 16 -17.333 16 -30c0 -11.333 -4 -22.833 -12 -34.5s-17.667 -17.5 -29 -17.5c-5.33301 0 -18 3.33301 -38 10l-92 31
c-26.667 8.66699 -40 22.334 -40 41.001c0 18 5.16699 33.5 15.5 46.5s22.166 19.5 35.499 19.5zM226.003 387c-42.667 0 -65 -44.3311 -67 -132.998c-0.666992 -2.66699 -1 -6.33398 -1 -11.001c0 -42.667 5.83301 -76.5 17.5 -101.5s27.5 -37.5 47.5 -37.5
c43.333 0 65 47.333 65 142c0 43.333 -5.5 77.666 -16.5 102.999s-26.167 38 -45.5 38z" />
    <glyph glyph-name="oacute" unicode="&#xf3;" horiz-adv-x="448" 
d="M224 -16c-62 0 -109.999 22.668 -143.999 68.001s-51 109.333 -51 192c0 84 17.167 148.833 51.5 194.5s82.833 68.5 145.5 68.5c61.333 0 108.833 -22.167 142.5 -66.5s50.5 -106.5 50.5 -186.5c0 -86.667 -16.833 -153.334 -50.5 -200.001s-81.834 -70 -144.501 -70z
M324.001 653.001c0 -18.667 -13.334 -32.333 -40.001 -41l-92 -31c-20 -6.66699 -32.333 -10 -37 -10c-11.333 0 -21.166 5.5 -29.499 16.5s-12.5 22.5 -12.5 34.5c0 12.667 5.33301 23 16 31c2.66699 2 13.667 7.66699 33 17l88 42c10 4.66699 17.333 7 22 7
c14.667 0 27 -6.5 37 -19.5s15 -28.5 15 -46.5zM226 387.002c-42.667 0 -65 -44.332 -67 -132.999c0 -1.33301 -0.333008 -3 -1 -5v-6c0 -42.667 5.83301 -76.5 17.5 -101.5s27.5 -37.5 47.5 -37.5c43.333 0 65 47.333 65 142c0 43.333 -5.5 77.666 -16.5 102.999
s-26.167 38 -45.5 38z" />
    <glyph glyph-name="ocircumflex" unicode="&#xf4;" horiz-adv-x="448" 
d="M224 -16c-62 0 -110.165 22.668 -144.498 68.001s-51.5 109.333 -51.5 192c0 84 17.167 148.833 51.5 194.5s83.166 68.5 146.499 68.5c61.333 0 108.833 -22.167 142.5 -66.5s50.5 -106.5 50.5 -186.5c0 -86.667 -16.833 -153.334 -50.5 -200.001
s-81.834 -70 -144.501 -70zM310.002 574.001l-86.001 30.999l-86 -30c-13.333 -4.66699 -24 -7 -32 -7c-11.333 0 -21.166 4.33301 -29.499 13s-12.5 19.334 -12.5 32.001c0 20.667 13.333 38 40 52l76 40c18 9.33301 32.667 14 44 14c12.667 0 29.334 -5.66699 50.001 -17
l74 -41c24 -13.333 36 -29.666 36 -48.999c0 -12.667 -4 -23.334 -12 -32.001s-18 -13 -30 -13c-8.66699 0 -19.334 2.33301 -32.001 7zM226.001 387c-42.667 0 -65 -44.3311 -67 -132.998c-0.666992 -2.66699 -1 -6.33398 -1 -11.001c0 -42.667 5.83301 -76.5 17.5 -101.5
s27.5 -37.5 47.5 -37.5c43.333 0 65 47.333 65 142c0 43.333 -5.5 77.666 -16.5 102.999s-26.167 38 -45.5 38z" />
    <glyph glyph-name="otilde" unicode="&#xf5;" horiz-adv-x="448" 
d="M224 -16c-62 0 -110.165 22.668 -144.498 68.001s-51.5 109.333 -51.5 192c0 84 17.167 148.833 51.5 194.5s83.166 68.5 146.499 68.5c61.333 0 108.833 -22.167 142.5 -66.5s50.5 -106.5 50.5 -186.5c0 -86.667 -16.833 -153.334 -50.5 -200.001
s-81.834 -70 -144.501 -70zM273.002 686.001c8 0 14.9961 2.66504 20.9961 7.99805l24 21c6 5.33301 13.333 8 22 8c12.667 0 23 -4.83301 31 -14.5s12 -22.167 12 -37.5c0 -35.333 -14.667 -63.666 -44 -84.999c-15.333 -11.333 -30.333 -17 -45 -17
c-16 0 -45.333 9.66699 -88 29c-12 5.33301 -22.333 8 -31 8s-15.667 -2.33301 -21 -7l-19 -19c-9.33301 -7.33301 -18.666 -11 -27.999 -11c-11.333 0 -21.166 5.16699 -29.499 15.5s-12.5 22.833 -12.5 37.5c0 26.667 8.83301 50.334 26.5 71.001s37.834 31 60.501 31
c12.667 0 40.334 -9 83.001 -27c17.333 -7.33301 30 -11 38 -11zM225.998 386.999c-42.667 0 -65 -44.3311 -67 -132.998c-0.666992 -2.66699 -1 -6.33398 -1 -11.001c0 -42.667 5.83301 -76.5 17.5 -101.5s27.5 -37.5 47.5 -37.5c43.333 0 65 47.333 65 142
c0 43.333 -5.5 77.666 -16.5 102.999s-26.167 38 -45.5 38z" />
    <glyph glyph-name="odieresis" unicode="&#xf6;" horiz-adv-x="448" 
d="M224 -16c-62 0 -109.999 22.668 -143.999 68.001s-51 109.333 -51 192c0 84 17.167 148.833 51.5 194.5s82.833 68.5 145.5 68.5c61.333 0 108.833 -22.167 142.5 -66.5s50.5 -106.5 50.5 -186.5c0 -86.667 -16.833 -153.334 -50.5 -200.001s-81.834 -70 -144.501 -70z
M136.001 558.001c-22.667 0 -40.999 8.16797 -54.999 24.501s-21 37.166 -21 62.499s7.16699 46.333 21.5 63s32.833 25 55.5 25c21.333 0 39.166 -8.16699 53.499 -24.5s21.5 -36.833 21.5 -61.5c0 -25.333 -7.33301 -46.5 -22 -63.5s-32.667 -25.5 -54 -25.5z
M322.002 558.002c-22.667 0 -40.999 8.16797 -54.999 24.501s-21 37.166 -21 62.499s7.16699 46.333 21.5 63s32.833 25 55.5 25c21.333 0 39.166 -8.16699 53.499 -24.5s21.5 -36.833 21.5 -61.5c0 -25.333 -7.33301 -46.5 -22 -63.5s-32.667 -25.5 -54 -25.5z
M226.003 387.003c-42.667 0 -65 -44.332 -67 -132.999c0 -1.33301 -0.333008 -3 -1 -5v-6c0 -42.667 5.83301 -76.5 17.5 -101.5s27.5 -37.5 47.5 -37.5c43.333 0 65 47.333 65 142c0 43.333 -5.5 77.666 -16.5 102.999s-26.167 38 -45.5 38z" />
    <glyph glyph-name="divide" unicode="&#xf7;" 
d="M177 510c0 20 7 37.167 21 51.5s31.333 21.5 52 21.5c20 0 37.167 -7.16699 51.5 -21.5s21.5 -31.5 21.5 -51.5s-7.16699 -37.167 -21.5 -51.5s-31.5 -21.5 -51.5 -21.5s-37.167 7.16699 -51.5 21.5s-21.5 31.5 -21.5 51.5zM177 168c0 20.667 7 38 21 52s31.333 21 52 21
c20 0 37.167 -7 51.5 -21s21.5 -31.333 21.5 -52c0 -19.333 -7.16699 -36.166 -21.5 -50.499s-31.5 -21.5 -51.5 -21.5s-37.167 7.16699 -51.5 21.5s-21.5 31.166 -21.5 50.499zM33 281v117h434v-117h-434z" />
    <glyph glyph-name="oslash" unicode="&#xf8;" horiz-adv-x="449" 
d="M409 514l-38.998 -73.001c33.333 -49.333 50 -112.666 50 -189.999c0 -81.333 -17 -146 -51 -194s-79.333 -72 -136 -72c-36.667 0 -68.667 7.33301 -96 22l-16 -32c-8.66699 -17.333 -23.334 -26 -44.001 -26c-0.666992 0 -5.33398 0.333008 -14.001 1l-27 2
c-9.33301 0.666992 -14 7.66699 -14 21c0 6.66699 1.33301 11.667 4 15l44 80c-16.667 30 -28 57.667 -34 83c-4.66699 22 -7 51.667 -7 89c0 85.333 17 151.5 51 198.5s82 70.5 144 70.5c24.667 0 50 -4.66699 76 -14l15 31c10.667 22 27 33 49 33
c35.333 0 53 -7.66699 53 -23c0 -4.66699 -2.66699 -12 -8 -22zM225.002 386.999c-38.667 0 -60 -45 -64 -135v-16c0 -39.333 5.66699 -70.833 17 -94.5s26.333 -35.5 45 -35.5c43.333 0 65 49 65 147c0 89.333 -21 134 -63 134z" />
    <glyph glyph-name="ugrave" unicode="&#xf9;" horiz-adv-x="488" 
d="M306 18v25.001c-36 -36.667 -75 -55 -117 -55c-82.667 0 -124 54.667 -124 164v193c0 28 -5 42 -15 42c-2 0 -5.16699 -0.333008 -9.5 -1s-7.5 -1 -9.5 -1c-21.333 0 -32 16 -32 48c0 42.667 16.667 64 50 64c6.66699 0 18.334 -1 35.001 -3c14 -2 25.333 -2.66699 34 -2
l41 4c1.33301 0.666992 3.66602 1 6.99902 1c19.333 0 29 -9 29 -27v-280c0 -49.333 15 -74 45 -74c34 0 51 30 51 90v139c0 28 -5.33301 42 -16 42c-2 0 -5 -0.333008 -9 -1s-7 -1 -9 -1c-22 0 -33 16 -33 48c0 18.667 4.5 34 13.5 46s20.833 18 35.5 18
c6.66699 0 16.5 -1 29.5 -3s22.833 -3 29.5 -3l48 5c2 0.666992 5.33301 1 10 1c20 0 30 -9 30 -27v-322c0 -28 5 -42 15 -42c1.33301 0 3 0.333008 5 1h4c2.66699 0.666992 6 1 10 1c21.333 0 32 -16 32 -48c0 -18.667 -4.5 -33.834 -13.5 -45.501
s-20.833 -17.5 -35.5 -17.5c-6.66699 0 -17 0.833008 -31 2.5s-24.667 2.5 -32 2.5c-6.66699 0 -18.667 -0.666992 -36 -2c-2 -0.666992 -5 -1 -9 -1c-15.333 0 -23 6.33301 -23 19zM172 719.001c5.33301 0 13 -2.33398 23 -7.00098l88 -42
c19.333 -9.33301 30.333 -15 33 -17c10.667 -7.33301 16 -17.333 16 -30c0 -11.333 -4 -22.833 -12 -34.5s-17.667 -17.5 -29 -17.5c-5.33301 0 -18 3.33301 -38 10l-92 31c-26.667 8.66699 -40 22.334 -40 41.001c0 18 5 33.5 15 46.5s22 19.5 36 19.5z" />
    <glyph glyph-name="uacute" unicode="&#xfa;" horiz-adv-x="488" 
d="M306 18v25.001c-36 -36.667 -75 -55 -117 -55c-82.667 0 -124 54.667 -124 164v193c0 28 -5 42 -15 42c-2 0 -5.16699 -0.333008 -9.5 -1s-7.5 -1 -9.5 -1c-21.333 0 -32 16 -32 48c0 42.667 16.667 64 50 64c6.66699 0 18.334 -1 35.001 -3c14 -2 25.333 -2.66699 34 -2
l41 4c1.33301 0.666992 3.66602 1 6.99902 1c19.333 0 29 -9 29 -27v-280c0 -49.333 15 -74 45 -74c34 0 51 30 51 90v139c0 28 -5.33301 42 -16 42c-2 0 -5 -0.333008 -9 -1s-7 -1 -9 -1c-22 0 -33 16 -33 48c0 18.667 4.5 34 13.5 46s20.833 18 35.5 18
c6.66699 0 16.5 -1 29.5 -3s22.833 -3 29.5 -3l48 5c2 0.666992 5.33301 1 10 1c20 0 30 -9 30 -27v-322c0 -28 5 -42 15 -42c1.33301 0 3 0.333008 5 1h4c2.66699 0.666992 6 1 10 1c21.333 0 32 -16 32 -48c0 -18.667 -4.5 -33.834 -13.5 -45.501
s-20.833 -17.5 -35.5 -17.5c-6.66699 0 -17 0.833008 -31 2.5s-24.667 2.5 -32 2.5c-6.66699 0 -18.667 -0.666992 -36 -2c-2 -0.666992 -5 -1 -9 -1c-15.333 0 -23 6.33301 -23 19zM334 653.001c0 -18.667 -13.001 -32.333 -39.001 -41l-92 -31
c-20 -6.66699 -32.667 -10 -38 -10c-16 0 -28.333 10 -37 30c-2.66699 6 -4 13 -4 21c0 12.667 5.33301 23 16 31c2.66699 2 13.667 7.66699 33 17l88 42c10 4.66699 17.333 7 22 7c14.667 0 26.834 -6.5 36.501 -19.5s14.5 -28.5 14.5 -46.5z" />
    <glyph glyph-name="ucircumflex" unicode="&#xfb;" horiz-adv-x="488" 
d="M306 18v25.001c-36 -36.667 -75 -55 -117 -55c-82.667 0 -124 54.667 -124 164v193c0 28 -5 42 -15 42c-2 0 -5.16699 -0.333008 -9.5 -1s-7.5 -1 -9.5 -1c-21.333 0 -32 16 -32 48c0 42.667 16.667 64 50 64c6.66699 0 18.334 -1 35.001 -3c14 -2 25.333 -2.66699 34 -2
l41 4c1.33301 0.666992 3.66602 1 6.99902 1c19.333 0 29 -9 29 -27v-280c0 -49.333 15 -74 45 -74c34 0 51 30 51 90v139c0 28 -5.33301 42 -16 42c-2 0 -5 -0.333008 -9 -1s-7 -1 -9 -1c-22 0 -33 16 -33 48c0 18.667 4.5 34 13.5 46s20.833 18 35.5 18
c6.66699 0 16.5 -1 29.5 -3s22.833 -3 29.5 -3l48 5c2 0.666992 5.33301 1 10 1c20 0 30 -9 30 -27v-322c0 -28 5 -42 15 -42c1.33301 0 3 0.333008 5 1h4c2.66699 0.666992 6 1 10 1c21.333 0 32 -16 32 -48c0 -18.667 -4.5 -33.834 -13.5 -45.501
s-20.833 -17.5 -35.5 -17.5c-6.66699 0 -17 0.833008 -31 2.5s-24.667 2.5 -32 2.5c-6.66699 0 -18.667 -0.666992 -36 -2c-2 -0.666992 -5 -1 -9 -1c-15.333 0 -23 6.33301 -23 19zM329 574.001l-86.001 31l-86 -30c-13.333 -4.66699 -24 -7 -32 -7
c-11.333 0 -21.166 4.33301 -29.499 13s-12.5 19.334 -12.5 32.001c0 21.333 13 38.666 39 51.999l77 40c18 9.33301 32.333 14 43 14c13.333 0 30.333 -5.66699 51 -17l74 -41c23.333 -12.667 35 -29 35 -49c0 -30 -14 -45 -42 -45c-8 0 -18.333 2.33301 -31 7z" />
    <glyph glyph-name="udieresis" unicode="&#xfc;" horiz-adv-x="488" 
d="M306 18v25.001c-36 -36.667 -75 -55 -117 -55c-82.667 0 -124 54.667 -124 164v193c0 28 -5 42 -15 42c-2 0 -5.16699 -0.333008 -9.5 -1s-7.5 -1 -9.5 -1c-21.333 0 -32 16 -32 48c0 42.667 16.667 64 50 64c6.66699 0 18.334 -1 35.001 -3c14 -2 25.333 -2.66699 34 -2
l41 4c1.33301 0.666992 3.66602 1 6.99902 1c19.333 0 29 -9 29 -27v-280c0 -49.333 15 -74 45 -74c34 0 51 30 51 90v139c0 28 -5.33301 42 -16 42c-2 0 -5 -0.333008 -9 -1s-7 -1 -9 -1c-22 0 -33 16 -33 48c0 18.667 4.5 34 13.5 46s20.833 18 35.5 18
c6.66699 0 16.5 -1 29.5 -3s22.833 -3 29.5 -3l48 5c2 0.666992 5.33301 1 10 1c20 0 30 -9 30 -27v-322c0 -28 5 -42 15 -42c1.33301 0 3 0.333008 5 1h4c2.66699 0.666992 6 1 10 1c21.333 0 32 -16 32 -48c0 -18.667 -4.5 -33.834 -13.5 -45.501
s-20.833 -17.5 -35.5 -17.5c-6.66699 0 -17 0.833008 -31 2.5s-24.667 2.5 -32 2.5c-6.66699 0 -18.667 -0.666992 -36 -2c-2 -0.666992 -5 -1 -9 -1c-15.333 0 -23 6.33301 -23 19zM131 558.001c-22.667 0 -40.999 8.16797 -54.999 24.501s-21 37.166 -21 62.499
s7.16699 46.333 21.5 63s32.833 25 55.5 25c21.333 0 39.166 -8.16699 53.499 -24.5s21.5 -36.833 21.5 -61.5c0 -25.333 -7.33301 -46.5 -22 -63.5s-32.667 -25.5 -54 -25.5zM317.001 558.002c-22.667 0 -40.999 8.16797 -54.999 24.501s-21 37.166 -21 62.499
s7.16699 46.333 21.5 63s32.833 25 55.5 25c21.333 0 39.166 -8.16699 53.499 -24.5s21.5 -36.833 21.5 -61.5c0 -25.333 -7.33301 -46.5 -22 -63.5s-32.667 -25.5 -54 -25.5z" />
    <glyph glyph-name="yacute" unicode="&#xfd;" horiz-adv-x="455" 
d="M190 358l44.001 -193l46 193c2 8.66699 3 14.334 3 17.001c0 5.33301 -5 10.333 -15 15c-14 6 -21 20 -21 42c0 43.333 17.667 65 53 65c7.33301 0 17 -1 29 -3c8 -1.33301 17.667 -2 29 -2c6.66699 0 18.667 1 36 3c11.333 1.33301 18 2 20 2c34 0 51 -19 51 -57
c0 -36.667 -11.667 -55 -35 -55l-12 1c-6.66699 0 -11.334 -4.66699 -14.001 -14l-4 -14l-87 -295c-19.333 -65.333 -43.333 -123 -72 -173c-17.333 -30 -40.333 -54.333 -69 -73s-57.667 -28 -87 -28c-32.667 0 -60 10.5 -82 31.5s-33 47.167 -33 78.5
c0 23.333 7 43.166 21 59.499s31.333 24.5 52 24.5c18 0 32.5 -6.5 43.5 -19.5s16.5 -29.833 16.5 -50.5v-17c22 8.66699 39.667 34 53 76c4 12.667 6 23.667 6 33c0 4 -0.666992 9.33301 -2 16l-104 343c-4 12.667 -8.66699 19.667 -14 21h-17c-26 0 -39 18.333 -39 55
c0 38 15.667 57 47 57c8 0 19.667 -0.833008 35 -2.5s27 -2.5 35 -2.5c19.333 0 33.333 0.666992 42 2c13.333 2 23 3 29 3c32 0 48 -20.333 48 -61c0 -26 -8 -42 -24 -48c-8 -4 -12 -8.33301 -12 -13v-1zM322.001 633c0 -18.667 -13 -32.333 -39 -41l-92 -31
c-20 -6.66699 -32.667 -10 -38 -10c-16 0 -28.333 10 -37 30c-2.66699 6 -4 13 -4 21c0 12.667 5.33301 23 16 31c2.66699 2 13.667 7.66699 33 17l88 42c10 4.66699 17.333 7 22 7c14 0 26 -6.5 36 -19.5s15 -28.5 15 -46.5z" />
    <glyph glyph-name="thorn" unicode="&#xfe;" horiz-adv-x="477" 
d="M296 -15c-28.667 0 -63.002 15.333 -103.002 46v-81c0 -12 1.33301 -20.167 4 -24.5s8.33398 -6.5 17.001 -6.5c2 0 7.33301 0.666992 16 2s15.334 2 20.001 2c26.667 0 40 -18.333 40 -55s-15 -55 -45 -55c-12 0 -29.833 1 -53.5 3s-41.5 3 -53.5 3
c-4.66699 0 -30.667 -1.66699 -78 -5c-10 -0.666992 -18.667 -1 -26 -1c-33.333 0 -50 20 -50 60c0 34.667 13.333 52 40 52c6.66699 0 11.667 -0.5 15 -1.5s7.33301 -1.5 12 -1.5c9.33301 0 14 13.667 14 41v567c0 13.333 -1.16699 22 -3.5 26s-7.5 6 -15.5 6l-5 -1h-2
c-22 0 -33 15.667 -33 47c0 43.333 12.667 65 38 65c6 0 15 -1 27 -3s21 -3 27 -3c5.33301 0 18.666 1.33301 39.999 4h10c16 0 24 -8 24 -24v-206c36 42 76 63 120 63c48.667 0 86.834 -22.5 114.501 -67.5s41.5 -106.167 41.5 -183.5c0 -80.667 -14 -145.5 -42 -194.5
s-64.667 -73.5 -110 -73.5zM257.998 386c-20 0 -35.833 -12.167 -47.5 -36.5s-17.5 -56.833 -17.5 -97.5c0 -41.333 5.66699 -74.833 17 -100.5s26.333 -38.5 45 -38.5c40.667 0 61 47 61 141c0 88 -19.333 132 -58 132z" />
    <glyph glyph-name="ydieresis" unicode="&#xff;" horiz-adv-x="455" 
d="M190 358l44.001 -193l46 193c2 8.66699 3 14.334 3 17.001c0 5.33301 -5 10.333 -15 15c-14 6 -21 20 -21 42c0 43.333 17.667 65 53 65c7.33301 0 17 -1 29 -3c8 -1.33301 17.667 -2 29 -2c6.66699 0 18.667 1 36 3c11.333 1.33301 18 2 20 2c34 0 51 -19 51 -57
c0 -36.667 -11.667 -55 -35 -55l-12 1c-6.66699 0 -11.334 -4.66699 -14.001 -14l-4 -14l-87 -295c-19.333 -65.333 -43.333 -123 -72 -173c-17.333 -30 -40.333 -54.333 -69 -73s-57.667 -28 -87 -28c-32.667 0 -60 10.5 -82 31.5s-33 47.167 -33 78.5
c0 23.333 7 43.166 21 59.499s31.333 24.5 52 24.5c18 0 32.5 -6.5 43.5 -19.5s16.5 -29.833 16.5 -50.5v-17c22 8.66699 39.667 34 53 76c4 12.667 6 23.667 6 33c0 4 -0.666992 9.33301 -2 16l-104 343c-4 12.667 -8.66699 19.667 -14 21h-17c-26 0 -39 18.333 -39 55
c0 38 15.667 57 47 57c8 0 19.667 -0.833008 35 -2.5s27 -2.5 35 -2.5c19.333 0 33.333 0.666992 42 2c13.333 2 23 3 29 3c32 0 48 -20.333 48 -61c0 -26 -8 -42 -24 -48c-8 -4 -12 -8.33301 -12 -13v-1zM144.001 558c-22 0 -40.167 8.16797 -54.5 24.501
s-21.5 37.166 -21.5 62.499s7.16699 46.333 21.5 63s32.833 25 55.5 25c22 0 40.167 -8.16699 54.5 -24.5s21.5 -36.833 21.5 -61.5c0 -25.333 -7.33301 -46.5 -22 -63.5s-33 -25.5 -55 -25.5zM330.001 558.001c-22.667 0 -41 8.16797 -55 24.501s-21 37.166 -21 62.499
s7.16699 46.333 21.5 63s32.833 25 55.5 25c22 0 40.167 -8.16699 54.5 -24.5s21.5 -36.833 21.5 -61.5c0 -25.333 -7.33301 -46.5 -22 -63.5s-33 -25.5 -55 -25.5z" />
    <glyph glyph-name="Amacron" unicode="&#x100;" horiz-adv-x="601" 
d="M376 145l-10.0029 60.002h-131l-9 -54c-2 -12 -3 -17.333 -3 -16c0 -8 3.66699 -12 11 -12c2 0 3.66699 0.166992 5 0.5l6 1.5h4c9.33301 0 17.333 -6 24 -18s10 -26 10 -42c0 -19.333 -5.66699 -35.5 -17 -48.5s-25.666 -19.5 -42.999 -19.5c-9.33301 0 -23.5 1 -42.5 3
s-33.167 3 -42.5 3c-14 0 -28.833 -1 -44.5 -3s-27.834 -3 -36.501 -3c-18 0 -33.167 6.66699 -45.5 20s-18.5 30.333 -18.5 51c0 18 3.83301 33.167 11.5 45.5s17.167 18.5 28.5 18.5c2.66699 0 6.66699 -0.5 12 -1.5s9.33301 -1.5 12 -1.5c6 0 11.667 9.33301 17 28
l129 476c6.66699 24.667 24.334 37 53.001 37h49l49 -1c26.667 -0.666992 43 -12.667 49 -36l126 -476c4.66699 -18 9.66699 -27 15 -27c2.66699 0 6.5 0.333008 11.5 1s8.83301 1 11.5 1c27.333 0 41 -20 41 -60c0 -22.667 -6 -40.834 -18 -54.501s-27.667 -20.5 -47 -20.5
c-9.33301 0 -22.833 1 -40.5 3s-31.167 3 -40.5 3s-23.166 -1 -41.499 -3s-32.166 -3 -41.499 -3c-41.333 0 -62 23.667 -62 71c0 37.333 11 56 33 56h13c9.33301 0 14 4.66699 14 14c0 3.33301 -0.333008 5.66602 -1 6.99902zM257.997 328.002h85l-43 215zM132.997 772.002
c0 43.333 17 63.667 51 61l43 -3c9.33301 -0.666992 30.333 -1 63 -1h20c34 0 55 0.333008 63 1c23.333 2 38.333 3 45 3c32.667 0 49 -18.667 49 -56c0 -38 -17.667 -57 -53 -57c-12.667 0 -31.667 0.666992 -57 2s-44.333 2 -57 2s-31.667 -0.666992 -57 -2
s-44.333 -2 -57 -2c-35.333 0 -53 17.333 -53 52z" />
    <glyph glyph-name="amacron" unicode="&#x101;" horiz-adv-x="446" 
d="M361 -14c-36.667 0 -61.333 16.999 -74 50.999c-34.667 -34 -75.667 -51 -123 -51c-42 0 -75.5 13.5 -100.5 40.5s-37.5 63.5 -37.5 109.5c0 48.667 11.167 85.167 33.5 109.5s61.166 41.833 116.499 52.5c29.333 6 49.5 13.333 60.5 22s16.5 21.667 16.5 39
c0 33.333 -12.667 50 -38 50c-14.667 0 -22 -6.33301 -22 -19c0 -6.66699 0.333008 -13 1 -19v-3c0 -16.667 -5.83301 -30.667 -17.5 -42s-26.167 -17 -43.5 -17c-22 0 -40.333 7.83301 -55 23.5s-22 35.167 -22 58.5c0 34.667 14.667 62.5 44 83.5s68.333 31.5 117 31.5
c56.667 0 98.167 -13.167 124.5 -39.5s39.5 -68.166 39.5 -125.499v-198c0 -22.667 4 -34 12 -34c2.66699 0 5.33398 0.333008 8.00098 1c0.666992 0 2 0.333008 4 1h3c21.333 0 32 -15.667 32 -47c0 -22 -7.5 -40.5 -22.5 -55.5s-33.833 -22.5 -56.5 -22.5z
M253.001 195.999l0.999023 19l-8 -2l-30 -9c-23.333 -6.66699 -39.166 -14.167 -47.499 -22.5s-12.5 -20.833 -12.5 -37.5c0 -32.667 14 -49 42 -49c16 0 29.167 6 39.5 18s15.5 27.333 15.5 46v37zM66 611.999c0 43.333 17 63.667 51 61l43 -3
c9.33301 -0.666992 30.333 -1 63 -1h20c34 0 55 0.333008 63 1c23.333 2 38.333 3 45 3c32.667 0 49 -18.667 49 -56c0 -38 -17.667 -57 -53 -57c-12.667 0 -31.667 0.666992 -57 2s-44.333 2 -57 2s-31.667 -0.666992 -57 -2s-44.333 -2 -57 -2
c-35.333 0 -53 17.333 -53 52z" />
    <glyph glyph-name="Abreve" unicode="&#x102;" horiz-adv-x="601" 
d="M376 145l-10.0029 60.002h-131l-9 -54c-2 -12 -3 -17.333 -3 -16c0 -8 3.66699 -12 11 -12c2 0 3.66699 0.166992 5 0.5l6 1.5h4c9.33301 0 17.333 -6 24 -18s10 -26 10 -42c0 -19.333 -5.66699 -35.5 -17 -48.5s-25.666 -19.5 -42.999 -19.5c-9.33301 0 -23.5 1 -42.5 3
s-33.167 3 -42.5 3c-14 0 -28.833 -1 -44.5 -3s-27.834 -3 -36.501 -3c-18 0 -33.167 6.66699 -45.5 20s-18.5 30.333 -18.5 51c0 18 3.83301 33.167 11.5 45.5s17.167 18.5 28.5 18.5c2.66699 0 6.66699 -0.5 12 -1.5s9.33301 -1.5 12 -1.5c6 0 11.667 9.33301 17 28
l129 476c6.66699 24.667 24.334 37 53.001 37h49l49 -1c26.667 -0.666992 43 -12.667 49 -36l126 -476c4.66699 -18 9.66699 -27 15 -27c2.66699 0 6.5 0.333008 11.5 1s8.83301 1 11.5 1c27.333 0 41 -20 41 -60c0 -22.667 -6 -40.834 -18 -54.501s-27.667 -20.5 -47 -20.5
c-9.33301 0 -22.833 1 -40.5 3s-31.167 3 -40.5 3s-23.166 -1 -41.499 -3s-32.166 -3 -41.499 -3c-41.333 0 -62 23.667 -62 71c0 37.333 11 56 33 56h13c9.33301 0 14 4.66699 14 14c0 3.33301 -0.333008 5.66602 -1 6.99902zM257.997 328.002h85l-43 215zM180.997 882.002
c12 0 23 -5.33398 33 -16.001l23 -24c15.333 -16 36 -24 62 -24c26.667 0 49.334 9.66699 68.001 29l20 21c9.33301 10 21 15 35 15c22.667 0 34 -15 34 -45c0 -17.333 -6.66699 -35.666 -20 -54.999c-28.667 -42 -74 -63 -136 -63c-44.667 0 -81.834 11.333 -111.501 34
s-44.5 51 -44.5 85c0 28.667 12.333 43 37 43z" />
    <glyph glyph-name="abreve" unicode="&#x103;" horiz-adv-x="446" 
d="M361 -14c-36.667 0 -61.333 16.999 -74 50.999c-34.667 -34 -75.667 -51 -123 -51c-42 0 -75.5 13.5 -100.5 40.5s-37.5 63.5 -37.5 109.5c0 48.667 11.167 85.167 33.5 109.5s61.166 41.833 116.499 52.5c29.333 6 49.5 13.333 60.5 22s16.5 21.667 16.5 39
c0 33.333 -12.667 50 -38 50c-14.667 0 -22 -6.33301 -22 -19c0 -6.66699 0.333008 -13 1 -19v-3c0 -16.667 -5.83301 -30.667 -17.5 -42s-26.167 -17 -43.5 -17c-22 0 -40.333 7.83301 -55 23.5s-22 35.167 -22 58.5c0 34.667 14.667 62.5 44 83.5s68.333 31.5 117 31.5
c56.667 0 98.167 -13.167 124.5 -39.5s39.5 -68.166 39.5 -125.499v-198c0 -22.667 4 -34 12 -34c2.66699 0 5.33398 0.333008 8.00098 1c0.666992 0 2 0.333008 4 1h3c21.333 0 32 -15.667 32 -47c0 -22 -7.5 -40.5 -22.5 -55.5s-33.833 -22.5 -56.5 -22.5z
M253.001 195.999l0.999023 19l-8 -2l-30 -9c-23.333 -6.66699 -39.166 -14.167 -47.499 -22.5s-12.5 -20.833 -12.5 -37.5c0 -32.667 14 -49 42 -49c16 0 29.167 6 39.5 18s15.5 27.333 15.5 46v37zM114 721.999c12 0 23 -5.33398 33 -16.001l23 -24
c15.333 -16 36 -24 62 -24c26.667 0 49.334 9.66699 68.001 29l20 21c9.33301 10 21 15 35 15c22.667 0 34 -15 34 -45c0 -17.333 -6.66699 -35.666 -20 -54.999c-28.667 -42 -74 -63 -136 -63c-44.667 0 -81.834 11.333 -111.501 34s-44.5 51 -44.5 85
c0 28.667 12.333 43 37 43z" />
    <glyph glyph-name="Aogonek" unicode="&#x104;" horiz-adv-x="601" 
d="M376 145l-10.0029 60.002h-131l-9 -54c-2 -12 -3 -17.333 -3 -16c0 -8 3.66699 -12 11 -12c2 0 3.66699 0.166992 5 0.5l6 1.5h4c9.33301 0 17.333 -6 24 -18s10 -26 10 -42c0 -19.333 -5.66699 -35.5 -17 -48.5s-25.666 -19.5 -42.999 -19.5c-9.33301 0 -23.5 1 -42.5 3
s-33.167 3 -42.5 3c-14 0 -28.833 -1 -44.5 -3s-27.834 -3 -36.501 -3c-18 0 -33.167 6.66699 -45.5 20s-18.5 30.333 -18.5 51c0 18 3.83301 33.167 11.5 45.5s17.167 18.5 28.5 18.5c2.66699 0 6.66699 -0.5 12 -1.5s9.33301 -1.5 12 -1.5c6 0 11.667 9.33301 17 28
l129 476c6.66699 24.667 24.334 37 53.001 37h49l49 -1c26.667 -0.666992 43 -12.667 49 -36l126 -476c4.66699 -18 9.66699 -27 15 -27c2.66699 0 6.5 0.333008 11.5 1s8.83301 1 11.5 1c27.333 0 41 -20 41 -60c0 -22.667 -6 -40.834 -18 -54.501s-27.667 -20.5 -47 -20.5
c-9.33301 0 -22.833 1 -40.5 3s-31.167 3 -40.5 3s-23.166 -1 -41.499 -3s-32.166 -3 -41.499 -3c-41.333 0 -62 23.667 -62 71c0 37.333 11 56 33 56h13c9.33301 0 14 4.66699 14 14c0 3.33301 -0.333008 5.66602 -1 6.99902zM257.997 328.002h85l-43 215z
M391.997 -115.998c0 41.333 26.665 80 79.998 116h94c-44.667 -31.333 -67 -61.666 -67 -90.999c0 -10 3.5 -18.667 10.5 -26s15.5 -11 25.5 -11c5.33301 0 10 1 14 3l12 6c4 2 8.66699 3 14 3c22 0 33 -12.667 33 -38c0 -18.667 -9.16699 -34.334 -27.5 -47.001
s-41.166 -19 -68.499 -19c-33.333 0 -61.666 10 -84.999 30s-35 44.667 -35 74z" />
    <glyph glyph-name="aogonek" unicode="&#x105;" horiz-adv-x="446" 
d="M361 -14c-36.667 0 -61.333 16.999 -74 50.999c-34.667 -34 -75.667 -51 -123 -51c-42 0 -75.5 13.5 -100.5 40.5s-37.5 63.5 -37.5 109.5c0 48.667 11.167 85.167 33.5 109.5s61.166 41.833 116.499 52.5c29.333 6 49.5 13.333 60.5 22s16.5 21.667 16.5 39
c0 33.333 -12.667 50 -38 50c-14.667 0 -22 -6.33301 -22 -19c0 -6.66699 0.333008 -13 1 -19v-3c0 -16.667 -5.83301 -30.667 -17.5 -42s-26.167 -17 -43.5 -17c-22 0 -40.333 7.83301 -55 23.5s-22 35.167 -22 58.5c0 34.667 14.667 62.5 44 83.5s68.333 31.5 117 31.5
c56.667 0 98.167 -13.167 124.5 -39.5s39.5 -68.166 39.5 -125.499v-198c0 -22.667 4 -34 12 -34c2.66699 0 5.33398 0.333008 8.00098 1c0.666992 0 2 0.333008 4 1h3c21.333 0 32 -15.667 32 -47c0 -22 -7.5 -40.5 -22.5 -55.5s-33.833 -22.5 -56.5 -22.5z
M253.001 195.999l0.999023 19l-8 -2l-30 -9c-23.333 -6.66699 -39.166 -14.167 -47.499 -22.5s-12.5 -20.833 -12.5 -37.5c0 -32.667 14 -49 42 -49c16 0 29.167 6 39.5 18s15.5 27.333 15.5 46v37zM234 -116.001c0 41.333 26.665 80 79.998 116h94
c-44.667 -31.333 -67 -61.666 -67 -90.999c0 -10 3.5 -18.667 10.5 -26s15.5 -11 25.5 -11c5.33301 0 10 1 14 3l12 6c4 2 8.66699 3 14 3c22 0 33 -12.667 33 -38c0 -18.667 -9.16699 -34.334 -27.5 -47.001s-41.166 -19 -68.499 -19c-33.333 0 -61.666 10 -84.999 30
s-35 44.667 -35 74z" />
    </font>
</defs>
</svg>
