<?xml version="1.0" standalone="no"?>
<!DOCTYPE svg PUBLIC "-//W3C//DTD SVG 1.1//EN" "http://www.w3.org/Graphics/SVG/1.1/DTD/svg11.dtd" >
<svg xmlns="http://www.w3.org/2000/svg">
<metadata>
This is a custom SVG webfont generated by Font Squirrel.
Copyright   : Copyright c 1985 1987 1990 1991 Adobe Systems Incorporated  All rights reservedITC New Baskerville is a registered trademark of International Typeface Corporation
Foundry     : Adobe Systems Incorporated
</metadata>
<defs>
<font id="ITCNewBaskervilleBold" horiz-adv-x="1251" >
<font-face units-per-em="2048" ascent="1638" descent="-410" />
<missing-glyph horiz-adv-x="532" />
<glyph unicode=" "  horiz-adv-x="532" />
<glyph unicode="&#x09;" horiz-adv-x="532" />
<glyph unicode="&#xa0;" horiz-adv-x="532" />
<glyph unicode="!" horiz-adv-x="737" d="M203 153.5q0 69.5 48 116.5t118 47q68 0 117 -47t49 -114q0 -70 -48.5 -120t-118 -50t-117.5 49t-48 118.5zM213 1196q0 72 43 130t113 58q72 0 114.5 -57t42.5 -131q0 -70 -24 -154l-39 -153q-51 -197 -51 -457h-82q0 260 -51 457l-39 153q-27 93 -27 154z" />
<glyph unicode="&#x22;" horiz-adv-x="1136" d="M203 1221q-10 55 33 109t104 54t104 -54t33 -109l-90 -490h-94zM659 1221q-10 55 33 109t104.5 54t104.5 -54t33 -109l-90 -490h-94z" />
<glyph unicode="#" horiz-adv-x="1064" d="M-8 408v151h248l59 297h-188v152h215l65 340h150l-66 -340h258l66 340h149l-65 -340h190v-152h-219l-59 -297h194v-151h-221l-78 -408h-145l78 408h-263l-77 -408h-150l78 408h-219zM389 559h260l58 297h-261z" />
<glyph unicode="$" horiz-adv-x="1064" d="M74 215q0 47 30.5 81t77.5 34q57 0 85 -38t42 -102q0 -4 3 -14t4 -14t3.5 -13.5t4.5 -13.5t5 -11t7 -12l8 -11q4 -5 10 -10t15 -9q43 -27 116 -27v502l-143 80q-117 66 -177.5 142.5t-60.5 197.5q0 164 109 264t272 111v151h103v-151q72 2 156.5 -23.5t154.5 -85 t70 -135.5q0 -45 -30 -78t-73 -33q-86 0 -114 115q-20 84 -52 120t-112 38v-432q195 -104 256 -158q147 -123 147 -305q0 -352 -403 -402v-284h-103v284q-63 4 -122.5 16.5t-131 37t-114.5 73.5t-43 115zM299 1085q0 -125 186 -202v387q-78 -4 -132 -56.5t-54 -128.5z M588 55q82 6 140 66.5t58 142.5q0 66 -32.5 116t-63.5 70.5t-102 61.5v-457z" />
<glyph unicode="%" horiz-adv-x="1761" d="M141 1010q0 172 119 321.5t287 149.5q94 0 162 -43l98 -62q72 -43 154 -43q207 0 372 203h76l-983 -1628h-109l859 1415l-5 4q-102 -51 -194 -51q-63 0 -156 27q18 -63 19 -111q0 -117 -44 -226.5t-136.5 -186.5t-210.5 -77q-129 0 -218.5 90.5t-89.5 217.5zM383 940 q0 -59 31.5 -107.5t89.5 -48.5q74 0 135 78t90 170t29 162q0 43 -8.5 86t-37 81t-71.5 38q-78 0 -140.5 -89t-90 -191.5t-27.5 -178.5zM926 268q0 180 124 319.5t302 139.5q127 0 198.5 -73.5t71.5 -198.5q0 -190 -107.5 -346t-287.5 -156q-133 0 -217 91t-84 224zM1167 184 q0 -57 30 -103t83 -46q78 0 141.5 80t91 175t27.5 171q0 70 -28.5 127t-90.5 57q-78 0 -139 -91t-88 -193.5t-27 -176.5z" />
<glyph unicode="&#x26;" horiz-adv-x="1638" d="M94 250q0 139 96.5 242.5t247.5 193.5q-119 197 -119 346q0 152 101.5 252t253.5 100q119 0 210 -72.5t91 -189.5q0 -197 -240 -348l260 -315l127 188q133 203 308 203q76 0 129 -49t53 -125q0 -63 -44 -112.5t-108 -49.5q-57 0 -95 33t-42 88q0 45 -35 45q-31 0 -80 -72 l-145 -219q61 -68 104 -109.5t109.5 -79.5t126.5 -38q23 0 41 4t37.5 16.5t29 20.5t32 28.5t30.5 28.5l61 -57l-2 -4q-59 -66 -82.5 -91.5t-74 -65.5t-101.5 -54.5t-117 -14.5q-125 0 -205.5 47.5t-189.5 151.5q-203 -199 -444 -199q-125 0 -224.5 78t-99.5 199zM360 393 q0 -96 71 -175t165 -79q98 0 199 97l-308 376q-41 -39 -63.5 -64.5t-43 -68.5t-20.5 -86zM530 1151q0 -47 22.5 -101.5t44 -86t62.5 -86.5l25 -35q113 113 113 272q0 70 -38 123t-104 53q-55 0 -90 -42t-35 -97z" />
<glyph unicode="'" horiz-adv-x="569" d="M147 1221q-10 55 33 109t104.5 54t104.5 -54t33 -109l-90 -490h-94z" />
<glyph unicode="(" horiz-adv-x="778" d="M199 506q0 258 111.5 461.5t324.5 416.5l47 -43q-145 -172 -202.5 -373.5t-57.5 -453.5q0 -543 278 -872l-45 -37l-10 10q-115 117 -184.5 201t-136 193.5t-96 230.5t-29.5 266z" />
<glyph unicode=")" horiz-adv-x="778" d="M78 1346l45 38l10 -10q115 -117 185.5 -200.5t137 -193.5t96.5 -231.5t30 -267.5q0 -256 -112 -458.5t-325 -417.5l-49 41q145 172 203.5 374.5t58.5 454.5q1 541 -280 871z" />
<glyph unicode="*" horiz-adv-x="1064" d="M141 784q0 100 150 109q61 2 121 20q70 20 69 41q0 18 -49 31q-80 25 -133 27q-82 4 -106 20q-51 31 -52 86q0 37 31 66.5t68 29.5q57 0 112 -77q96 -143 150 -144q12 0 12 25q0 66 -40 144.5t-40 111.5q0 43 27.5 76.5t68.5 33.5q43 0 70 -32.5t27 -75.5q0 -35 -40 -114 t-40 -144q0 -25 12 -25q31 0 73 44t68 87q23 31 33 45.5t35 29.5t53 15q37 0 69 -29.5t32 -66.5q0 -47 -43 -80q-35 -23 -117 -26q-57 -2 -121 -23q-61 -25 -61 -35q0 -18 57 -36q59 -23 135 -25q147 -10 148 -105q0 -43 -29 -70.5t-70 -27.5q-27 0 -51.5 16.5t-36.5 32 t-33 43.5q-31 49 -59 76q-61 53 -80 53q-12 0 -12 -34q0 -70 38 -144t38 -108q0 -45 -26 -74t-69 -29t-68.5 29t-25.5 74q0 35 38 108.5t38 147.5q0 31 -12 30q-25 0 -68 -43q-39 -35 -72 -86q-16 -25 -23 -33t-23.5 -26t-34 -25.5t-37.5 -7.5q-41 0 -71 27.5t-30 66.5z" />
<glyph unicode="+" horiz-adv-x="1064" d="M51 406v151h406v406h151v-406h406v-151h-406v-406h-151v406h-406z" />
<glyph unicode="," horiz-adv-x="573" d="M121 152q0 76 45 120.5t121 44.5q96 0 145 -73.5t49 -173.5q0 -141 -93 -250t-236 -170l-31 57q59 41 75.5 52.5t59.5 47t58.5 61.5t31.5 67.5t19 91.5q-68 -41 -93 -41q-63 0 -107 50t-44 116z" />
<glyph unicode="-" horiz-adv-x="681" d="M8 350v185h475v-185h-475z" />
<glyph unicode="." horiz-adv-x="573" d="M121 153.5q0 69.5 48 116.5t118 47q68 0 117 -47t49 -114q0 -70 -48.5 -120t-118 -50t-117.5 49t-48 118.5z" />
<glyph unicode="/" horiz-adv-x="1146" d="M88 -276l862 1660h109l-862 -1660h-109z" />
<glyph unicode="0" horiz-adv-x="1138" d="M86 448.5q0 204.5 129 340t354.5 135.5t354.5 -135.5t129 -340t-129 -340t-354.5 -135.5t-354.5 135.5t-129 340zM393 448.5q0 -206.5 40 -300t136.5 -93.5t136 93.5t39.5 300t-39.5 300t-136 93.5t-136.5 -93.5t-40 -300z" />
<glyph unicode="1" horiz-adv-x="1138" d="M246 -4v74q127 2 158.5 30.5t31.5 120.5v463q0 80 -29.5 99.5t-160.5 27.5v74h63q227 0 365 30h61v-704q0 -90 32 -115.5t157 -25.5v-74q-135 4 -334 4q-205 0 -344 -4z" />
<glyph unicode="2" horiz-adv-x="1138" d="M137 -4q23 74 84.5 149.5t133 136t141 122t114.5 132t45 140.5q0 68 -40 117t-109 49q-72 0 -115 -43t-43 -105q0 -92 76 -92q10 0 19.5 3t11.5 3q8 0 8 -12q0 -41 -43 -75t-111 -34q-76 0 -119 50.5t-43 119.5q0 113 109 190t293 77q195 0 304.5 -73t109.5 -202 q0 -72 -39 -126t-102.5 -88t-131 -61.5t-139.5 -62.5t-111 -73q176 -4 277 -5q74 0 237 5l-67 -359h-76q8 57 8 72q0 27 -12 38t-53 11q-359 0 -617 -4z" />
<glyph unicode="3" horiz-adv-x="1138" d="M86 -309q0 55 33 90t82 35q57 0 93 -39t50 -86t47 -86t84 -39q98 0 160.5 91t62.5 269q0 141 -43 218t-116 77q-47 0 -101.5 -72.5t-97.5 -72.5q-25 0 -41 18.5t-16 40.5q0 16 4 28.5t18 24t25.5 19.5t39 24.5t46.5 28.5q233 154 233 369q0 88 -46 140t-119.5 52 t-117.5 -39t-44 -104q0 -88 77 -88q25 0 47.5 8t24.5 8q14 0 14 -22q0 -61 -45 -109.5t-127 -48.5q-80 0 -128 49t-48 129q0 133 118 226.5t306 93.5q174 0 273.5 -72t99.5 -195q0 -102 -74 -189t-184 -132q-57 -23 -58 -33q0 -12 15 -12q2 0 22.5 2t40.5 2q129 0 222.5 -91 t93.5 -245q0 -197 -166 -336t-395 -139q-156 0 -260.5 56.5t-104.5 150.5z" />
<glyph unicode="4" horiz-adv-x="1138" d="M39 0v131l684 821h149v-837h209v-115h-209v-246q0 -100 31 -120.5t168 -24.5v-74q-10 0 -135 2t-215 2q-76 0 -205 -2t-145 -2v74q129 2 165.5 30.5t36.5 139.5v221h-534zM141 115h432v512h-4z" />
<glyph unicode="5" horiz-adv-x="1138" d="M90 -307q0 49 32 83t85 34q55 0 91 -38t50 -84t51 -84t95 -38q90 0 154.5 95t64.5 292q0 145 -53.5 226t-155.5 81q-84 0 -129 -37t-45 -92q0 -12 1 -32.5t1 -28.5q0 -55 -66 -56q-61 0 -61 58q0 51 4 145l31 707h73q111 -86 308 -86q207 0 280 100h57 q-37 -182 -156.5 -262t-318.5 -80q-102 0 -149 20l-15 -331q109 109 293 108q174 0 291 -105.5t117 -295.5q0 -217 -157.5 -362.5t-401.5 -145.5q-184 0 -277.5 60.5t-93.5 148.5z" />
<glyph unicode="6" horiz-adv-x="1138" d="M84 623q0 371 156.5 580.5t435.5 209.5q139 0 226 -54t87 -142q0 -45 -33.5 -79t-85.5 -34q-57 0 -91 36t-46 78t-43 77.5t-82 35.5q-61 0 -102 -39t-62.5 -114.5t-31 -158.5t-11.5 -200q111 82 250 82q176 0 289 -119.5t113 -314.5q0 -209 -139.5 -351.5t-352.5 -142.5 q-221 0 -349 175.5t-128 474.5zM391 489q0 -246 41 -340t127 -94q98 0 142 86t44 293q0 199 -41.5 275.5t-128.5 76.5q-51 0 -101 -28.5t-66.5 -65.5t-16.5 -203z" />
<glyph unicode="7" horiz-adv-x="1138" d="M104 446l121 592h74q-8 -66 -8 -90q0 -31 13 -41t50 -10h674v-66q-287 -600 -344 -1044q-10 -80 -19.5 -123t-30 -91t-55 -68.5t-87.5 -20.5q-68 0 -106 40t-38 103q0 98 73 254t230.5 422t204.5 352h-477q-88 0 -121 -37.5t-72 -171.5h-82z" />
<glyph unicode="8" horiz-adv-x="1138" d="M106 332q0 111 66 190.5t205 145.5q-225 133 -225 366q0 162 118.5 270.5t313.5 108.5q182 0 293.5 -88t111.5 -227q0 -178 -211 -289q129 -78 192.5 -173t63.5 -226q0 -197 -131 -317t-348 -120q-203 0 -326 103.5t-123 255.5zM324 340q0 -133 65.5 -209t185.5 -76 q125 0 192 72t67 170q0 109 -83 179.5t-286 150.5q-141 -101 -141 -287zM352 1135q0 -92 71 -146.5t273 -140.5q100 84 101 221q0 123 -64.5 192.5t-171.5 69.5q-98 0 -153.5 -56t-55.5 -140z" />
<glyph unicode="9" horiz-adv-x="1138" d="M86 430q0 209 139.5 351.5t352.5 142.5q221 0 349 -175.5t128 -474.5q0 -371 -157 -580.5t-435 -209.5q-139 0 -226 54t-87 143q0 45 33.5 78.5t84.5 33.5q57 0 91 -36t46.5 -77.5t43 -77.5t81.5 -36q61 0 102.5 39t63 114.5t30.5 158.5t11 200q-111 -82 -250 -82 q-176 0 -288.5 119.5t-112.5 314.5zM393 463q0 -199 42 -275.5t128 -76.5q51 0 101.5 28.5t67 65.5t16.5 203q0 246 -41 340t-127 94q-98 0 -142.5 -86t-44.5 -293z" />
<glyph unicode=":" horiz-adv-x="573" d="M121 153.5q0 69.5 48 116.5t118 47q68 0 117 -47t49 -114q0 -70 -48.5 -120t-118 -50t-117.5 49t-48 118.5zM121 727q0 70 48 117t118 47q68 0 117 -47t49 -115q0 -70 -48.5 -120t-118 -50t-117.5 49t-48 119z" />
<glyph unicode=";" horiz-adv-x="573" d="M115 -295l6 2q59 41 75.5 52.5t59.5 47t58.5 61.5t31.5 67.5t19 91.5q-68 -41 -93 -41q-63 0 -107 50t-44 116q0 76 45 120.5t121 44.5q96 0 145 -73.5t49 -173.5q0 -141 -93 -250t-236 -170zM121 727q0 70 48 117t118 47q68 0 117 -47t49 -115q0 -70 -48.5 -120 t-118 -50t-117.5 49t-48 119z" />
<glyph unicode="&#x37e;" horiz-adv-x="573" d="M115 -295l6 2q59 41 75.5 52.5t59.5 47t58.5 61.5t31.5 67.5t19 91.5q-68 -41 -93 -41q-63 0 -107 50t-44 116q0 76 45 120.5t121 44.5q96 0 145 -73.5t49 -173.5q0 -141 -93 -250t-236 -170zM121 727q0 70 48 117t118 47q68 0 117 -47t49 -115q0 -70 -48.5 -120 t-118 -50t-117.5 49t-48 119z" />
<glyph unicode="&#x3c;" horiz-adv-x="1064" d="M47 389v184l973 390v-164l-791 -318l791 -317v-164z" />
<glyph unicode="=" horiz-adv-x="1064" d="M51 190v152h963v-152h-963zM51 621v151h963v-151h-963z" />
<glyph unicode="&#x3e;" horiz-adv-x="1064" d="M47 0v164l791 317l-791 318v164l973 -390v-184z" />
<glyph unicode="?" horiz-adv-x="819" d="M82 1257q0 57 49 84t113 27q193 0 343 -149.5t150 -341.5q0 -145 -100 -220t-250 -75q-14 0 -41 1t-41 1v-168h-82v409q117 -6 129 -6q264 0 264 162q0 78 -49 137.5t-127 59.5q-37 0 -107.5 -15.5t-107.5 -15.5q-55 0 -99 28.5t-44 81.5zM109 153.5q0 69.5 48 116.5 t117 47q68 0 117 -47t49 -114q0 -70 -48 -120t-117.5 -50t-117.5 49t-48 118.5z" />
<glyph unicode="@" horiz-adv-x="1904" d="M98 516q4 162 67.5 307.5t172 254t246 184t295 107.5t311.5 15q268 -31 443 -218t175 -459q0 -123 -50 -260.5t-153.5 -245t-230.5 -109.5q-115 -4 -162 39t-82 139q-37 -53 -53 -73.5t-52 -54t-81 -45t-108 -11.5q-143 0 -214 98.5t-67 243.5q0 199 154.5 380t351.5 187 q74 0 107.5 -22.5t78.5 -87.5l21 90h231l-158 -676q-14 -27 -4.5 -71t60.5 -54q102 -20 217 154t112 370q0 244 -152.5 423t-391.5 182q-326 0 -562.5 -239t-252.5 -568q-14 -324 166 -522.5t503 -192.5q199 2 379 69l31 -69q-225 -82 -422 -82q-248 0 -457 94t-339 283.5 t-130 439.5zM852 381q0 -45 1 -65.5t9 -57.5t29.5 -53.5t56.5 -16.5q115 4 168 236l82 360q4 43 -24.5 76t-71.5 33q-98 -10 -174 -198.5t-76 -313.5z" />
<glyph unicode="A" horiz-adv-x="1310" d="M-70 -4v74q31 0 58.5 10t48 22.5t42 38t35 44t30 53t24.5 53t23.5 55.5t19.5 49l405 975h99l422 -1053q66 -160 104 -198q41 -37 139 -49v-74q-61 0 -184 4t-184 4q-53 0 -161 -4t-161 -4v74q8 2 34 4t39 4t34.5 8t33 14.5t20.5 24.5t9 37q0 39 -39 135l-43 117h-452 l-25 -60q-49 -137 -49 -172t14.5 -58.5t45 -33.5t50 -13t60.5 -7v-74q-43 0 -129 4t-129 4q-39 0 -117 -4t-117 -4zM365 516h372l-180 471z" />
<glyph unicode="B" horiz-adv-x="1351" d="M31 -4v74q8 0 16 -1q47 0 79 11q38 12 57.5 27.5t28.5 57.5t10 68.5t1 94.5v692q0 68 -1 94.5t-10 68.5t-28.5 57t-57.5 28q-32 11 -79 10h-16v74q53 -2 148 -5.5t140 -3.5q55 0 166 4.5t166 4.5q545 -10 545 -328q0 -135 -112.5 -209t-264.5 -94v-4q86 -8 161 -28.5 t146.5 -59.5t113.5 -106.5t42 -157.5q0 -369 -627 -369h-34q-51 0 -151.5 4t-152.5 4q-45 0 -139 -3t-147 -5zM537 362q0 -53 1 -81.5t10 -71.5t25.5 -63.5t51 -38t84.5 -17.5q115 0 167 76t52 196q0 154 -74 227t-229 73q-14 0 -44 -1.5t-44 -1.5v-297zM537 756h41 q150 0 214 54t64 196q0 252 -238 251q-7 0 -13 1q-69 0 -68 -41v-461z" />
<glyph unicode="C" horiz-adv-x="1433" d="M100 647q0 315 202 519t515 204q223 0 387 -129l31 117h88l18 -430h-90q-33 154 -133 247t-254 93q-113 0 -196.5 -55.5t-127.5 -147.5t-64.5 -190.5t-20.5 -204.5q0 -113 21.5 -212.5t66.5 -187.5t131 -140t203 -54h6q162 0 260 107q100 110 131 284h82v-461h-82 l-39 119q-162 -152 -444 -152q-307 0 -499 184.5t-192 489.5z" />
<glyph unicode="D" horiz-adv-x="1515" d="M31 -4v74q8 0 16 -1q47 0 79 11q38 12 57.5 27.5t28.5 57.5t10 68.5t1 94.5v692q0 68 -1 94.5t-10 68.5t-28.5 57t-57.5 28q-32 11 -79 10h-16v74h620q342 0 543 -172q231 -203 231 -539q0 -305 -200 -487q-176 -158 -502 -158h-33q-55 0 -163.5 4t-161.5 4 q-55 0 -167 -4t-167 -4zM537 449q0 -205 20 -259q37 -100 166 -100q92 0 157.5 36t101.5 89t57.5 134t26.5 148.5t5 155.5q0 268 -82 426q-94 178 -362 178q-63 0 -82 -18q-8 -8 -8 -49v-741z" />
<glyph unicode="E" horiz-adv-x="1269" d="M31 -4v74q8 0 16 -1q47 0 79 11q38 12 57.5 27.5t28.5 57.5t10 68.5t1 94.5v692q0 68 -1 94.5t-10 68.5t-28.5 57t-57.5 28q-32 11 -79 10h-16v74q59 0 173.5 -4.5t174.5 -4.5q125 0 376 4.5t375 4.5l17 -361h-88q-25 147 -110 206.5t-238 59.5q-156 0 -168 -22 q-6 -10 -6 -117v-379q139 0 206.5 44t73.5 178h82q-2 -47 -4 -141.5t-4 -141.5q2 -43 4 -127t4 -127h-82q-29 139 -83 180t-197 41v-239v-63q0 -13 2 -54t5 -52.5t11 -41t19.5 -39t29 -26.5t41 -23.5t56 -11.5t71.5 -5q174 0 254 64.5t119 236.5h82q-2 -39 -4 -115.5 t-4 -115.5q2 -29 4 -82t4 -82q-141 0 -424 4t-424 4q-59 0 -174 -4t-174 -4z" />
<glyph unicode="F" horiz-adv-x="1146" d="M31 -4v74q8 0 16 -1q47 0 79 11q38 12 57.5 27.5t28.5 57.5t10 68.5t1 94.5v692q0 68 -1 94.5t-10 68.5t-28.5 57t-57.5 28q-32 11 -79 10h-16v74q59 0 173.5 -4.5t174.5 -4.5q127 0 380 4.5t380 4.5l18 -353h-82q-14 70 -42.5 118t-63.5 75t-87.5 42t-99.5 19t-118 4 q-96 0 -112.5 -14t-16.5 -94v-35v-389h77q86 0 137.5 53t71.5 172h82q-2 -45 -4 -137t-4 -137q2 -45 4 -133t4 -131h-82q-20 213 -200 219h-84v-303q0 -59 1 -84t6 -64t17 -53t34.5 -31.5t58.5 -22.5q26 -4 59 -4q13 0 28 1v-74q-61 0 -182 4t-180.5 4t-174 -4t-173.5 -4z " />
<glyph unicode="G" horiz-adv-x="1597" d="M100 649q0 309 194.5 515t502.5 206q250 0 403 -127l33 115h86l18 -426h-90q-39 152 -135 244t-248 92q-94 0 -167.5 -39t-117.5 -100.5t-74 -144.5t-40 -163t-10 -166q0 -102 18.5 -196t60 -184.5t121.5 -144.5t191 -54q137 0 202.5 58.5t65.5 191.5q0 100 -31.5 133 t-136.5 43v73h610v-73q-47 -2 -74.5 -11.5t-38.5 -34t-13.5 -45t-2.5 -67.5v-18v-213q-174 -23 -307 -70q-188 -70 -327 -70q-311 0 -502 183.5t-191 492.5z" />
<glyph unicode="H" horiz-adv-x="1679" d="M31 -4v74q8 0 16 -1q47 0 79 11q38 12 57.5 27.5t28.5 57.5t10 68.5t1 94.5v692q0 68 -1 94.5t-10 68.5t-28.5 57t-57.5 28q-32 11 -79 10h-16v74q55 0 166.5 -4.5t167.5 -4.5q61 0 182 4.5t182 4.5v-74h-16q-47 0 -79 -10q-38 -12 -57.5 -27.5t-28.5 -57.5t-10 -69 t-1 -94v-285h606v285q0 55 -1 78.5t-6.5 62.5t-16.5 54.5t-32.5 34t-55.5 24.5q-25 5 -59 4h-24v74q55 0 162 -4.5t162 -4.5q63 0 188 4.5t189 4.5v-74h-16q-47 0 -80 -10q-38 -12 -57 -27.5t-28.5 -57.5t-10.5 -69t-1 -94v-692q0 -68 1 -94.5t10.5 -68.5t29 -57.5 t56.5 -27.5q32 -11 80 -11q8 0 16 1v-74q-59 0 -179 4t-180 4q-57 0 -170.5 -4t-171.5 -4v74q12 -1 24 -1q34 0 59 5q34 6 55.5 24.5t32.5 33.5t16.5 54t6.5 62.5t1 79.5v305h-606v-305q0 -68 1 -94.5t10 -68.5t28.5 -57.5t57.5 -27.5q32 -11 79 -11q8 0 16 1v-74 q-61 0 -182 4t-180 4q-55 0 -168 -4t-168 -4z" />
<glyph unicode="I" horiz-adv-x="778" d="M41 -4v74q9 0 17 -1q46 0 77 10q37 11 56.5 26.5t29.5 53.5t11 65.5t1 88.5v15v688v14q0 61 -1 90t-11 67t-29.5 53t-56.5 28q-32 11 -78 10h-16v74q57 0 167.5 -4.5t168.5 -4.5q61 2 182 5.5t180 3.5v-74q-29 0 -53 -1t-42.5 -10.5t-33 -12.5t-25 -20t-17.5 -21.5 t-11 -32t-6 -32.5t-3 -41t-1 -42v-49v-697v-67q0 -20 4 -55t11 -48.5t20.5 -34t34 -27.5t51 -12t71.5 -5v-74q-59 0 -179 3t-181 5q-55 0 -168 -4t-170 -4z" />
<glyph unicode="J" horiz-adv-x="778" d="M-238 -336q0 47 35 81t82 34q55 0 88 -33t43 -74t35 -73.5t64 -32.5q106 0 110 160q2 59 7 179t7 179v932v14q0 61 -1 90t-11 67t-29.5 53t-56.5 28q-32 11 -78 10h-16v74q51 0 154.5 -4.5t154.5 -4.5q63 0 194.5 4.5t194.5 4.5v-74h-18q-31 0 -55 -5q-31 -7 -51.5 -13.5 t-34 -31t-20.5 -35.5t-10 -52t-3 -57v-68v-953q0 -104 -1 -151t-18.5 -131t-54.5 -139q-119 -178 -377 -179q-74 0 -143.5 15.5t-130 62.5t-60.5 123z" />
<glyph unicode="K" horiz-adv-x="1392" d="M31 -4v74q57 0 94 11t57.5 26.5t29.5 53.5t10 64.5t1 87.5v15v688v14q0 61 -1 90t-11 67t-29.5 53t-56.5 28q-32 11 -78 10h-16v74q51 -2 150.5 -5.5t148.5 -3.5q63 0 189 4.5t190 4.5v-74q-104 0 -140 -43q-33 -39 -32 -186v-441l139 154q90 98 197.5 238.5t107.5 193.5 q0 12 -3 22.5t-10 17.5t-12.5 13t-18.5 10.5t-19.5 7.5t-21.5 5t-20.5 3t-21.5 3t-18 2v74q41 0 123.5 -4.5t123.5 -4.5q45 0 134.5 4.5t134.5 4.5v-74q-104 -18 -144 -43q-18 -12 -41 -33q-39 -35 -137 -155l-178 -220l465 -594q4 -6 23.5 -31.5t29.5 -37.5t30.5 -32.5 t36 -32t36 -20.5t40.5 -9v-74q-59 0 -175.5 4t-176.5 4q-51 0 -154.5 -4t-154.5 -4v74h12q14 2 20.5 2t20 1t20.5 3t19 5t19.5 7t14.5 10t10 13.5t3 17.5q0 51 -100 178l-229 301l-125 -131v-180v-77q0 -19 5 -54t15 -44t31.5 -24.5t52.5 -19.5t80 -8v-74q-57 0 -174 3 t-176 5q-55 0 -169 -3t-171 -5z" />
<glyph unicode="L" horiz-adv-x="1269" d="M31 -4v74q8 0 16 -1q47 0 79 11q38 12 57.5 27.5t28.5 57.5t10 68.5t1 94.5v692q0 68 -1 94.5t-10 68.5t-28.5 57t-57.5 28q-32 11 -79 10h-16v74q55 0 161.5 -4.5t161.5 -4.5q63 0 188.5 4.5t188.5 4.5v-74q-12 1 -23 0q-34 0 -60 -4q-34 -6 -55.5 -24.5t-32.5 -34 t-16 -54.5t-6 -62.5t-1 -78.5v-596v-85q0 -24 4 -70t13 -64.5t26.5 -47t44 -38.5t65.5 -19.5t92 -9.5q176 0 261 63.5t128 233.5h89l-15 -391q-561 4 -866 8q-59 0 -174 -4t-174 -4z" />
<glyph unicode="M" horiz-adv-x="1802" d="M31 -4v74q37 6 48 8t39.5 10t41 17.5t27 28t20.5 42.5q14 57 14 197v815q-39 78 -190 90v74q37 0 111.5 -4.5t111.5 -4.5q43 0 128 4.5t128 4.5l401 -957l369 957q39 0 117 -4.5t116 -4.5q37 0 122 3.5t137 5.5v-74h-19q-57 0 -91 -11q-40 -13 -57.5 -51t-21.5 -73 t-4 -105v-22v-643q0 -139 14 -197q8 -31 23.5 -50.5t46.5 -30.5t46 -15t60 -10v-74q-61 0 -183 4t-183 4q-51 0 -159.5 -3t-168.5 -5v74q37 6 48.5 8t40 10t41 17.5t26.5 28t20 42.5q14 57 15 197v647h-4l-408 -1024h-98l-428 1038h-4v-628q0 -197 30 -254q37 -70 164 -82 v-74q-43 0 -128 4t-128 4q-39 0 -115.5 -4t-115.5 -4z" />
<glyph unicode="N" horiz-adv-x="1597" d="M29 1278v74q33 0 97 -4.5t97 -4.5q39 0 116 4.5t116 4.5l809 -932v545q0 61 -1 93t-11.5 80t-30 72.5t-58.5 45t-94 22.5v74q39 0 117 -4.5t117 -4.5q41 0 122.5 4.5t122.5 4.5v-74q-102 -18 -133 -49q-10 -10 -18 -25q-31 -59 -31 -252v-985h-100l-930 1059v-633 q0 -61 1 -94t11 -83t29.5 -75.5t58.5 -47t96 -23.5v-74q-41 0 -123.5 4t-123.5 4q-39 0 -117 -4t-117 -4v74q117 12 149.5 66t32.5 179v824q-55 78 -90.5 105.5t-113.5 33.5z" />
<glyph unicode="O" horiz-adv-x="1720" d="M100 672q0 317 220.5 507.5t542 190.5t540.5 -190.5t219 -508t-222 -508t-544 -190.5q-319 0 -537.5 192t-218.5 507zM455 684q0 -111 17 -209t58 -195.5t125 -154.5t201 -57q121 0 206 51t127 140t60.5 186.5t18.5 213.5q0 90 -10.5 170t-38 165t-71.5 144.5t-119 98.5 t-173 39q-117 0 -200 -54.5t-125 -145.5t-59 -187t-17 -205z" />
<glyph unicode="P" horiz-adv-x="1269" d="M31 -4v74q8 0 16 -1q47 0 79 11q38 12 57.5 27.5t28.5 57.5t10 68.5t1 94.5v688v69q0 18 -3 56.5t-10 51.5t-20.5 35.5t-34 30t-52.5 14.5q-25 6 -55 5h-17v74q119 0 340 -9q53 0 160.5 4.5t160.5 4.5q543 -8 543 -371q0 -100 -47 -174t-126 -114t-164 -58.5t-177 -18.5 h-184v-288q0 -59 1 -84t6 -64t17 -53t36 -31.5t59 -22.5q26 -4 59 -4q13 0 28 1v-74q-63 0 -188 4t-186 4q-51 0 -164 -3t-174 -5zM537 711h43q162 0 238.5 59t76.5 217q0 129 -63.5 199.5t-190.5 70.5q-82 -4 -93 -14t-11 -86v-446z" />
<glyph unicode="Q" horiz-adv-x="1720" d="M100 655q0 317 221.5 516t542.5 199q317 0 538.5 -195.5t221.5 -508.5q0 -489 -643 -719l-276 -97l4 -4q16 0 46.5 1t45.5 1q10 0 19 1q163 0 345 -64q197 -70 271 -70q88 0 155 64q10 10 26.5 29.5t26 26.5t17.5 7q29 0 29 -35q0 -133 -100.5 -239.5t-231.5 -106.5 q-104 0 -188.5 40t-184.5 116q-76 55 -110.5 78.5t-100 50.5t-127.5 27q-84 0 -179 -45t-114 -45q-20 0 -34.5 15t-14.5 36q0 47 94 78q43 16 125 44.5t125 45.5l162 67v4q-301 10 -506 196.5t-205 485.5zM455 694q0 -111 18.5 -213t61.5 -202.5t128 -162t201 -61.5 q406 0 406 598q0 111 -19.5 211.5t-62.5 197.5t-128 155.5t-204 58.5q-113 0 -194.5 -53.5t-124.5 -143.5t-62.5 -185.5t-19.5 -199.5z" />
<glyph unicode="R" horiz-adv-x="1433" d="M31 -4v74q8 0 16 -1q47 0 79 11q38 12 57.5 27.5t28.5 57.5t10 68.5t1 94.5v692q0 68 -1 94.5t-10 68.5t-28.5 57t-57.5 28q-32 11 -79 10h-16v74q59 0 173.5 -4.5t174.5 -4.5q55 0 165.5 4.5t166.5 4.5q248 -10 338 -49q203 -82 202 -308q0 -129 -93 -216t-228 -107 l280 -350q106 -147 138 -181q53 -55 131 -71v-74q-33 0 -100.5 4t-102.5 4t-102.5 -4t-100.5 -4l-291 412q-138 193 -210 192h-3q-4 0 -16 -1t-16 -1v-270q0 -55 1 -79t6 -63t16 -54t32.5 -33.5t55.5 -24.5q25 -5 60 -5q11 0 23 1v-74q-59 0 -176 4t-176.5 4t-174 -4 t-173.5 -4zM537 694h77q152 0 224.5 64.5t72.5 214.5q0 143 -64.5 213.5t-205.5 70.5q-92 0 -98 -22.5t-6 -190.5v-350z" />
<glyph unicode="S" horiz-adv-x="1105" d="M74 0v426h82q51 -166 137 -262t242 -96q94 0 163.5 56t69.5 148q0 45 -17.5 85t-37 64.5t-64.5 52.5t-66.5 38t-82 33.5t-72.5 29.5q-160 70 -247 161t-87 247q0 182 122 284.5t308 102.5q199 0 307 -100l27 80h88l12 -369h-88q-29 127 -116.5 211t-214.5 84 q-82 0 -142.5 -45t-60.5 -123q0 -37 13 -68.5t29.5 -52t51.5 -43t53.5 -32t65.5 -29t59 -25.5q82 -35 130 -58.5t112.5 -66.5t98.5 -86t59.5 -108.5t25.5 -145.5q0 -197 -142 -308.5t-343 -111.5q-219 0 -356 140l-29 -113h-90z" />
<glyph unicode="T" horiz-adv-x="1392" d="M25 963l12 389h1319l12 -389h-88q-16 133 -92 209.5t-207 76.5q-100 0 -113 -14q-11 -12 -10 -103v-32v-772v-73q0 -19 4 -57t11.5 -51.5t21.5 -35t35.5 -26.5t54.5 -11q25 -5 56 -5q10 0 22 1v-74q-59 0 -180 4t-182.5 4t-182.5 -4t-180 -4v74q15 -1 28 -1q33 0 59 4 q36 5 59.5 22.5t35.5 31.5t17.5 53t6.5 63.5t1 84.5v772q0 111 -13.5 126t-109.5 23q-20 2 -38 2q-113 0 -174 -65q-71 -76 -97 -223h-88z" />
<glyph unicode="U" horiz-adv-x="1597" d="M31 1278v74q53 0 160.5 -4.5t160.5 -4.5q63 0 190.5 4.5t190.5 4.5v-74h-17q-59 0 -96 -12q-42 -14 -59.5 -57.5t-20.5 -77t-3 -115.5v-494q0 -213 73.5 -314.5t280.5 -101.5q193 0 292 96.5t99 282.5v426q0 223 -37 283q-45 72 -158 84v74q39 0 117 -4.5t117 -4.5 q41 0 124 4.5t124 4.5v-74q-123 -20 -156 -84q-10 -20 -17 -47t-9.5 -62.5t-3.5 -57.5q-1 -11 -0.5 -27t0.5 -38q1 -44 1 -51v-383q0 -555 -567 -555q-289 0 -441.5 124t-152.5 427v492v14q0 61 -1 89t-10 66t-29.5 53t-57.5 27.5t-94 12.5z" />
<glyph unicode="V" horiz-adv-x="1351" d="M-47 1278v74q55 0 167.5 -4.5t168.5 -4.5q61 0 184 4.5t184 4.5v-74q-41 -2 -59 -3t-51 -10.5t-47.5 -30t-14.5 -54.5q0 -18 37 -138l254 -682l195 492q90 219 90 313q0 47 -30 73t-57.5 31t-82.5 9v74q41 0 123 -4.5t123 -4.5q43 0 131 4.5t133 4.5v-74 q-55 -2 -92 -17.5t-64.5 -52.5t-40 -62.5t-39.5 -88.5l-450 -1084h-99l-430 1086q-53 137 -82.5 168t-150.5 51z" />
<glyph unicode="W" horiz-adv-x="1802" d="M-63 1278v74q51 0 154.5 -4.5t154.5 -4.5q61 0 180 4.5t180 4.5v-74q-12 -2 -43 -5t-48 -7t-39.5 -14.5t-33 -29t-10.5 -44.5q0 -41 60 -228l172 -544h4l293 946h92l319 -932h4l105 340q92 297 92 379q0 41 -11.5 67.5t-40 41t-49 18.5t-65.5 12v74q35 0 104.5 -4.5 t104.5 -4.5q39 0 119 4.5t118 4.5v-74q-74 -8 -103.5 -43t-55.5 -117l-377 -1145h-98l-299 883h-5l-303 -883h-100l-387 1123q-39 109 -59 131q-33 37 -129 51z" />
<glyph unicode="X" horiz-adv-x="1392" d="M-45 1278v74q57 0 167.5 -4.5t168.5 -4.5q61 0 186 4.5t187 4.5v-74q-33 -2 -46.5 -3t-45 -7t-46 -22.5t-14.5 -43.5q0 -41 119 -205l129 -168l155 201q78 111 78 160q0 76 -155 88v74q41 0 123.5 -4.5t123.5 -4.5q45 0 137.5 4.5t137.5 4.5v-74q-63 -6 -119.5 -40 t-83.5 -64.5t-84 -100.5l-258 -321l416 -543q45 -61 59.5 -77.5t54 -39t93.5 -22.5v-74q-63 0 -190.5 4t-190.5 4q-55 0 -167 -4t-167 -4v74q84 0 127 16q41 12 41 55q0 39 -92 148l-183 233l-139 -166q-2 -2 -20.5 -25.5t-26.5 -33.5t-23.5 -33.5t-23.5 -39t-15.5 -34 t-7.5 -32.5q0 -16 4.5 -28.5t15.5 -22t20.5 -14.5t27.5 -9t26.5 -6t30 -5t25.5 -3v-74q-47 0 -140.5 4t-140.5 4q-41 0 -122.5 -4t-122.5 -4v74q78 4 138 50t128 128l305 354l-356 473q-72 100 -111 137q-45 43 -133 66z" />
<glyph unicode="Y" horiz-adv-x="1269" d="M-43 1278v74q51 0 154.5 -4.5t154.5 -4.5q57 0 174 4.5t176 4.5v-74q-31 -2 -49 -5t-46.5 -11.5t-43 -26.5t-14.5 -45q0 -37 74 -170l204 -371l197 330q78 143 78 197q0 102 -150 102v74q35 0 103.5 -4.5t103.5 -4.5q41 0 121 4.5t121 4.5v-74q-43 -4 -77 -25.5 t-51.5 -46t-43.5 -71.5l-346 -586v-221v-64q0 -16 2 -51t7 -47t14 -34.5t23.5 -30t36 -17.5t50.5 -13q17 -2 38 -2q14 0 29 1v-74q-63 0 -192 4t-193 4q-55 0 -163.5 -4t-163.5 -4v74h10q124 0 155 47q32 49 33 186v25v180l-354 631q-45 76 -70.5 99.5t-101.5 39.5z" />
<glyph unicode="Z" horiz-adv-x="1187" d="M41 0v74l743 1175h-211q-197 0 -280.5 -66.5t-99.5 -205.5h-89l13 375h1030v-82l-737 -1168h200q76 0 130.5 4.5t116 22.5t100 49t68.5 88.5t36 136.5h86l-8 -403h-1098z" />
<glyph unicode="[" horiz-adv-x="778" d="M203 -276v1660h473v-73h-270v-1514h270v-73h-473z" />
<glyph unicode="\" horiz-adv-x="569" d="M2 1384h113l456 -1384h-112z" />
<glyph unicode="]" horiz-adv-x="778" d="M102 -203h271v1514h-271v73h473v-1660h-473v73z" />
<glyph unicode="^" horiz-adv-x="1189" d="M203 524l315 819h160l311 -819h-166l-227 594l-229 -594h-164z" />
<glyph unicode="_" horiz-adv-x="1024" d="M-8 -154h1032v-102h-1032v102z" />
<glyph unicode="`" horiz-adv-x="696" d="M135 1352q0 33 22.5 56.5t55.5 23.5q14 0 28.5 -6.5t32 -20.5t25.5 -21.5t26.5 -28t20.5 -22.5l229 -250h-65l-246 150l-49 33q-80 49 -80 86z" />
<glyph unicode="a" d="M53 -4v65q68 8 108 50.5t83 140.5l344 772h98l344 -803q37 -88 67.5 -118.5t98.5 -41.5v-65q-2 0 -96 2t-190.5 2t-190.5 -2t-96 -2v65h51q78 0 78 48q0 27 -19 86l-26 84h-355l-22 -62q-20 -47 -21 -86q0 -35 26.5 -51.5t106.5 -18.5v-65q-14 0 -78.5 2t-115.5 2 t-116 -2t-79 -2zM387 360h289l-135 353z" />
<glyph unicode="b" horiz-adv-x="1138" d="M47 -4v65h37q63 0 84.5 31t21.5 129v557q0 98 -21.5 129t-84.5 31h-37v66q127 -4 293 -5q57 0 163.5 2.5t149.5 2.5q180 0 269.5 -67t89.5 -173q0 -109 -89 -170.5t-231 -77.5v-4q190 -18 283.5 -79.5t93.5 -182.5q0 -254 -403 -254q-45 0 -154 2t-172 2q-166 0 -293 -4z M489 190q0 -113 129 -112q72 0 112 51t40 131q0 94 -53 151.5t-166 57.5h-62v-279zM489 551h62q86 0 132 51t46 141q0 88 -49 133.5t-131 45.5q-39 0 -49.5 -10.5t-10.5 -39.5v-321z" />
<glyph unicode="c" horiz-adv-x="1138" d="M70 494q0 240 147.5 389t374.5 149q164 0 328 -102l24 84h82l10 -340h-82q-29 109 -95 182.5t-181 73.5q-285 0 -285 -436q0 -205 78 -308.5t203 -103.5t197.5 80t95.5 194h90v-356h-90l-33 88q-152 -121 -361 -121q-215 0 -359 142.5t-144 384.5z" />
<glyph unicode="d" d="M66 -4v65h36q63 0 85 31t22 129v557q0 98 -21.5 129t-85.5 31h-36v66q127 -4 292 -5q39 0 126 2.5t134 2.5q258 0 415 -145.5t157 -360.5q0 -211 -140.5 -356.5t-383.5 -145.5q-35 0 -137.5 2t-170.5 2q-165 0 -292 -4zM508 246q0 -96 33.5 -132t107.5 -36q217 0 217 420 q0 219 -64.5 321.5t-205.5 102.5q-53 0 -70.5 -11.5t-17.5 -52.5v-612z" />
<glyph unicode="e" horiz-adv-x="1138" d="M66 -4v65h36q63 0 85 31t22 129v557q0 98 -21.5 129t-85.5 31h-36v66q127 -4 292 -5q193 0 400 2.5t248 2.5v-287h-66q-33 119 -94.5 162t-220.5 43q-80 0 -98.5 -9.5t-18.5 -42.5v-309h49q137 0 158 162h65v-393h-65q-20 150 -158 149h-49v-229q0 -96 40 -134t152 -38 q129 0 190.5 57.5t96.5 196.5h66v-336q-47 0 -284 2t-411 2q-165 0 -292 -4z" />
<glyph unicode="f" horiz-adv-x="1024" d="M47 -4v65h37q63 0 84.5 31t21.5 129v557q0 98 -21.5 129t-84.5 31h-37v66q127 -4 293 -5q193 0 399.5 2.5t247.5 2.5v-287h-65q-33 119 -94.5 162t-221.5 43q-80 0 -98.5 -9.5t-18.5 -42.5v-309h50q137 0 157 162h66v-393h-66q-20 150 -157 149h-50v-258q0 -98 21.5 -129 t85.5 -31h37v-65q-127 4 -293 4t-293 -4z" />
<glyph unicode="g" d="M53 493.5q0 239.5 147.5 389t374.5 149.5q164 0 328 -102l25 84h82l10 -340h-82q-29 109 -95.5 182.5t-180.5 73.5q-285 0 -285 -436q0 -424 262 -424q180 0 180 168q0 78 -29.5 100t-101.5 22v66q164 -4 275 -4q172 0 258 4v-66h-17q-63 0 -84.5 -30.5t-21.5 -128.5 q0 -43 6 -123q-109 -14 -258.5 -62.5t-247.5 -48.5q-252 0 -398.5 143.5t-146.5 383z" />
<glyph unicode="h" horiz-adv-x="1366" d="M47 -4v65h37q63 0 84.5 31t21.5 129v557q0 98 -21.5 129t-84.5 31h-37v66q127 -4 293 -4.5t293 4.5v-66h-37q-63 0 -85 -30.5t-22 -129.5v-217h385v217q0 98 -21.5 129t-84.5 31h-37v66q127 -4 293 -4.5t293 4.5v-66h-37q-63 0 -84.5 -30.5t-21.5 -129.5v-557 q0 -98 21.5 -129t84.5 -31h37v-65q-127 4 -293 4t-293 -4v65h37q63 0 84.5 31t21.5 129v258h-385v-258q0 -98 21.5 -129t85.5 -31h37v-65q-127 4 -293 4t-293 -4z" />
<glyph unicode="i" horiz-adv-x="681" d="M47 -4v65h37q63 0 84.5 31t21.5 129v557q0 98 -21.5 129t-84.5 31h-37v66q127 -4 293 -4.5t293 4.5v-66h-37q-63 0 -85 -30.5t-22 -129.5v-557q0 -98 21.5 -129t85.5 -31h37v-65q-127 4 -293 4t-293 -4z" />
<glyph unicode="j" horiz-adv-x="681" d="M-236 -319q0 51 32 81.5t85 30.5q82 0 125 -100q4 -10 11.5 -28.5t11.5 -26t10 -20.5t11 -18.5t13.5 -11.5t17.5 -8t21 -2q51 0 76 66.5t25 220.5v913q0 98 -21.5 129t-85.5 31h-37v66q127 -4 293 -4.5t293 4.5v-66h-37q-63 0 -84.5 -30.5t-21.5 -129.5v-811 q0 -250 -101.5 -360.5t-326.5 -110.5q-143 0 -226.5 52.5t-83.5 132.5z" />
<glyph unicode="k" d="M47 -4v65h37q63 0 84.5 31t21.5 129v557q0 98 -21.5 129t-84.5 31h-37v66q127 -4 293 -5q190 0 268 5v-66h-12q-63 0 -85 -30.5t-22 -129.5v-297l226 230q102 102 102 159q0 39 -25.5 53.5t-80.5 14.5v66q94 -4 213 -5q123 0 209 5v-66q-61 -4 -112.5 -40t-127.5 -120 l-115 -125l361 -491q43 -57 64.5 -78t49.5 -23v-65q-139 4 -260 4q-145 0 -272 -4v65h20q78 0 78 50q0 39 -78 141l-157 209l-95 -94v-146q0 -98 21.5 -129t85.5 -31h12v-65q-78 4 -268 4q-166 0 -293 -4z" />
<glyph unicode="l" horiz-adv-x="1138" d="M66 -4v65h36q63 0 85 31t22 129v557q0 98 -21.5 129t-85.5 31h-36v66q127 -4 292.5 -4.5t292.5 4.5v-66h-37q-63 0 -84.5 -30.5t-21.5 -129.5v-528q0 -96 41 -134t160 -38q129 0 194.5 58.5t102.5 195.5h65l-16 -336q-47 0 -285 2t-412 2q-165 0 -292 -4z" />
<glyph unicode="m" horiz-adv-x="1478" d="M39 938v66q127 -4 213 -5q109 0 223 5l277 -637l262 637q98 -4 209 -5q88 0 215 5v-66h-37q-63 0 -85 -30.5t-22 -129.5v-557q0 -98 21.5 -129t85.5 -31h37v-65q-127 4 -271 4q-201 0 -282 -4v65q74 0 102.5 32t28.5 128v553h-4l-326 -774h-78l-332 786h-4v-522 q0 -125 33 -164t115 -39v-65q-86 4 -193 4q-100 0 -178 -4v65q70 0 101.5 44.5t31.5 158.5v514q0 98 -21.5 129t-84.5 31h-37z" />
<glyph unicode="n" d="M51 -4v65q80 0 113 44.5t33 158.5v578q-61 96 -146 96v66q119 -4 191 -5q80 0 182 5l541 -623v354q0 125 -33 164t-115 39v66q86 -4 193 -5q88 0 190 5v-66q-80 0 -112.5 -44t-32.5 -159v-768h-90l-678 776v-479q0 -125 32.5 -164t114.5 -39v-65q-86 4 -192 4 q-89 0 -191 -4z" />
<glyph unicode="o" d="M61 494q0 242 153 390t411 148q256 0 409.5 -146.5t153.5 -379.5q0 -242 -152.5 -390.5t-410.5 -148.5q-256 0 -410 147t-154 380zM385 494q0 -444 239.5 -444.5t239.5 456.5q0 444 -239.5 444.5t-239.5 -456.5z" />
<glyph unicode="p" horiz-adv-x="1138" d="M66 -4v65h36q63 0 85 31t22 129v557q0 98 -21.5 129t-85.5 31h-36v66q127 -4 292 -5q117 0 318 5h20q164 0 268 -64q110 -68 109 -207q0 -279 -440 -278q-43 0 -125 8v-242q0 -98 21.5 -129t84.5 -31h37v-65q-127 4 -292.5 4t-292.5 -4zM508 537h70q197 0 196 200 q0 184 -194 185q-43 0 -57.5 -12.5t-14.5 -43.5v-329z" />
<glyph unicode="q" d="M61 494q0 242 153 390t411 148q256 0 409.5 -146.5t153.5 -379.5q0 -195 -100.5 -331t-278.5 -181q-109 -63 -174 -107l4 -4q63 10 156 11q135 0 282 -60q147 -63 213 -63q49 0 83 15t48.5 34.5t27.5 35t24 15.5q25 0 24 -33q0 -31 -14.5 -76t-45 -97t-92 -89t-139.5 -37 q-61 0 -119.5 22.5t-91 45t-86.5 67.5q-57 47 -84.5 68.5t-83 45.5t-110.5 24q-70 0 -124 -26t-89 -50.5t-58 -24.5q-41 0 -41 43q0 25 26 42.5t93.5 49t118.5 64.5l96 55l-4 4q-4 -2 -24 -2q-256 0 -410 147t-154 380zM385 494q0 -444 239.5 -444.5t239.5 456.5 q0 444 -239.5 444.5t-239.5 -456.5z" />
<glyph unicode="r" d="M66 -4v65h36q63 0 85 31t22 129v557q0 98 -21.5 129t-85.5 31h-36v66q127 -4 292 -5q55 0 162 2.5t160 2.5q195 0 292 -65t97 -181q0 -201 -231 -248l282 -367q35 -47 56.5 -63.5t48.5 -18.5v-65q-78 4 -156 4q-88 0 -170 -4l-317 450h-74v-225q0 -98 21.5 -129t84.5 -31 h37v-65q-127 4 -292.5 4t-292.5 -4zM508 532q37 -4 70 -4q193 0 192 197q0 106 -48 151.5t-151 45.5q-39 0 -51 -11.5t-12 -46.5v-332z" />
<glyph unicode="s" horiz-adv-x="909" d="M68 -8v338h73q23 -117 100.5 -193t190.5 -76q78 0 125 39t47 103q0 57 -54 98t-133 70.5t-157 66.5t-132 112t-54 183q0 131 99 215t257 84q133 0 246 -82l24 72h82l11 -303h-80q-53 125 -119 178t-162 53q-59 0 -96 -31.5t-37 -84.5q0 -61 56.5 -102.5t135 -72 t158.5 -68.5t136.5 -114t56.5 -186q0 -143 -107.5 -233.5t-298.5 -90.5q-150 0 -270 90l-23 -65h-75z" />
<glyph unicode="t" horiz-adv-x="1138" d="M47 696l14 308q344 -4 508 -4.5t508 4.5l15 -308h-82q-25 113 -74 168.5t-160 57.5q-37 0 -47 -10.5t-10 -39.5v-651q0 -98 21.5 -129t84.5 -31h37v-65q-127 4 -293 4t-293 -4v65h37q63 0 85 31t22 129v651q0 29 -10.5 39.5t-47.5 10.5q-111 -2 -159.5 -57.5 t-73.5 -168.5h-82z" />
<glyph unicode="u" d="M45 938v66q119 -4 289 -5q166 0 293 5v-66h-37q-63 0 -85 -30.5t-22 -129.5v-424q0 -150 51.5 -211t176.5 -61q137 0 201.5 78t64.5 237v338q0 115 -33 159t-113 44v66q102 -4 191 -5q115 0 184 5v-66q-76 0 -107.5 -39t-31.5 -164v-299q0 -246 -101.5 -357.5 t-332.5 -111.5q-238 0 -343.5 98.5t-105.5 329.5v383q0 98 -21.5 129t-84.5 31h-33z" />
<glyph unicode="v" d="M57 938v66q123 -4 285 -5q195 0 289 5v-66h-43q-82 0 -82 -61q0 -27 39 -129l168 -437l180 426q37 86 37 131q0 39 -24.5 54.5t-80.5 15.5h-32v66q111 -4 213 -5q86 0 188 5v-66q-66 -2 -98.5 -29.5t-71.5 -111.5l-377 -830h-82l-350 842q-33 78 -64 103.5t-94 25.5z" />
<glyph unicode="w" horiz-adv-x="1593" d="M39 938v66q135 -4 270 -5q172 0 275 5v-66h-33q-96 0 -96 -59q0 -25 43 -144l131 -358h4l211 627h82l237 -629h4l117 338q35 102 35 147t-29.5 61.5t-91.5 16.5v66q98 -4 188 -5q76 0 166 5v-66q-61 -4 -89.5 -37t-71.5 -151l-293 -783h-76l-223 619h-4l-224 -619h-75 l-312 828q-33 86 -58.5 111.5t-86.5 31.5z" />
<glyph unicode="x" d="M43 938v66q139 -4 285 -5q160 0 290 5v-66h-63q-57 0 -57 -41q0 -33 51 -96l121 -152l98 117q66 78 66 121q0 51 -66 51h-41v66q111 -4 213 -5q125 0 199 5v-66q-74 -4 -113 -29.5t-115 -111.5l-186 -215l344 -430q72 -90 139 -91v-65q-106 4 -278 4q-215 0 -322 -4v65 h37q74 0 74 50q0 29 -47 90l-135 174l-117 -135q-57 -68 -58 -113q0 -66 109 -66v-65q-119 4 -217 4q-76 0 -191 -4v65q84 0 203 138l217 250l-288 380q-51 66 -78 85.5t-74 23.5z" />
<glyph unicode="y" horiz-adv-x="1138" d="M39 938v66q147 -4 276 -5q172 0 263 5v-66h-41q-78 0 -78 -51q0 -35 43 -107l162 -278l135 213q63 98 63 155q0 41 -27.5 54.5t-89.5 13.5v66q123 -4 193 -5q43 0 162 5v-66q-49 -2 -74 -28.5t-88 -131.5l-219 -364v-193q0 -98 21.5 -129t84.5 -31h37v-65q-127 4 -293 4 t-293 -4v65h37q63 0 85 31t22 129v162l-240 428q-47 82 -67.5 101.5t-73.5 25.5z" />
<glyph unicode="z" horiz-adv-x="1024" d="M47 -4v76l578 850h-131q-162 0 -227.5 -45.5t-96.5 -167.5h-70l9 295q147 -4 432 -5q250 0 417 5v-64l-565 -862h221q106 0 169 56t100 198h71l-18 -336q-152 4 -428.5 4t-460.5 -4z" />
<glyph unicode="{" horiz-adv-x="806" d="M90 514v72q178 14 178 178v385q0 68 69 151.5t185 83.5h178v-73h-86q-129 0 -129 -140v-337q0 -109 -97 -196t-185 -83v-4q88 4 185 -83t97 -196v-338q0 -137 129 -137h86v-73h-178q-117 0 -185.5 83.5t-68.5 149.5v381q0 166 -178 176z" />
<glyph unicode="|" horiz-adv-x="450" d="M150 0v1384h151v-1384h-151z" />
<glyph unicode="}" horiz-adv-x="806" d="M106 -203h87q129 0 129 137v338q0 109 97 196t185 83v4q-88 -4 -185 83t-97 196v337q0 139 -129 140h-87v73h179q117 0 185.5 -83.5t68.5 -151.5v-385q0 -164 178 -178v-72q-178 -10 -178 -176v-381q0 -66 -69 -149.5t-185 -83.5h-179v73z" />
<glyph unicode="~" horiz-adv-x="1064" d="M16 403q61 111 130 178.5t167 67.5q78 0 238 -69q160 -72 207 -72q102 0 192 166l99 -113q-59 -104 -128 -167.5t-167 -63.5q-41 0 -88.5 14t-113 44t-71.5 32q-10 4 -38.5 16.5t-45 17.5t-41 11t-45.5 6q-35 0 -64.5 -14.5t-57 -50t-38 -52t-36.5 -63.5z" />
<glyph unicode="&#xa2;" horiz-adv-x="1064" d="M111 674q0 207 141 338t350 131l107 -8l92 233h86l-101 -254q66 -18 112 -62t46 -106q0 -45 -33.5 -78.5t-79.5 -33.5q-82 0 -120 92l-201 -537q45 -51 137 -51q78 0 130 34t110 103l67 -55q-57 -96 -163.5 -146.5t-229.5 -50.5l-112 10l-103 -262h-82l109 283 q-262 111 -262 420zM408 698q0 -154 45 -237l211 559q-29 37 -89 37q-53 0 -89.5 -39t-52 -102.5t-20.5 -114t-5 -103.5z" />
<glyph unicode="&#xa3;" horiz-adv-x="1064" d="M12 152q0 86 63.5 140t151.5 54q23 0 44.5 -4t36 -9t40 -15.5t39.5 -14.5q-2 86 -29 182l-53 166h-237l2 103h209q-39 131 -39 237q0 180 111.5 279.5t291.5 99.5q72 0 147.5 -18.5t140 -69.5t64.5 -127q0 -47 -30.5 -76.5t-77.5 -29.5q-41 0 -65.5 25.5t-32 48 t-17.5 69.5q-10 55 -42 75.5t-93 20.5q-76 0 -123 -42t-47 -116q0 -57 22 -139l64 -237h266l-2 -103h-250q2 -25 7.5 -78t7.5 -77q0 -143 -43 -242q158 -45 268 -45q68 0 113 17.5t59 39t26.5 39t24.5 17.5q25 0 25 -35q0 -119 -77 -216.5t-194 -97.5q-137 0 -303 158 q-111 -158 -272 -158q-82 0 -139.5 49.5t-57.5 129.5zM94 154q0 -45 31 -72t78 -27q63 0 117.5 44t54.5 102q0 14 -62.5 38.5t-105.5 24.5t-78 -33.5t-35 -76.5z" />
<glyph unicode="&#xa5;" horiz-adv-x="1064" d="M-63 1278v74q43 -2 125.5 -5.5t123.5 -3.5q45 0 135.5 4.5t135.5 4.5v-74q-4 0 -31 -3t-45.5 -7t-35.5 -17.5t-17 -36.5q0 -59 153 -321l101 -172l145 229q119 174 119 244q0 39 -39 61.5t-80 22.5v74q35 0 100.5 -4.5t100.5 -4.5t100.5 4.5t99.5 4.5v-74 q-29 -2 -49 -11.5t-40.5 -31t-29 -30.5t-30 -46t-25.5 -41l-186 -280h223v-103h-284l-52 -65v-123h322v-103h-322v-151q0 -147 29 -179t174 -44v-74q-49 0 -159.5 3t-170.5 5q-57 0 -171.5 -4t-172.5 -4v74q143 14 173 47t30 176v151h-297v103h297v102l-49 86h-262v103h207 l-144 239q-4 6 -19.5 35t-22.5 40t-22.5 34.5t-27.5 35t-29.5 27t-37.5 21.5t-43 8z" />
<glyph unicode="&#xa7;" horiz-adv-x="1064" d="M106 -147q0 57 38 99t96 42q51 0 86.5 -35t35.5 -86q0 -41 -36 -84q-2 -4 -12.5 -15.5t-17.5 -21.5t-7 -18q0 -47 86 -67.5t155 -20.5q111 0 188 48t77 150q0 41 -17.5 76t-58.5 64.5t-62.5 43t-74.5 40.5l-156 82q-143 76 -227 163.5t-84 221.5q0 176 176 264 q-135 111 -135 270q0 158 110.5 236.5t274.5 78.5q125 0 238.5 -58t113.5 -173q0 -55 -34 -93t-87 -38q-49 0 -85 31.5t-36 81.5q0 35 28 67.5t28 40.5q0 33 -66 50.5t-111 17.5q-84 0 -155.5 -40t-71.5 -118q0 -23 7 -46.5t17.5 -39.5t31 -36.5t32.5 -32t41 -29t40 -24.5 t43 -23.5t38 -20.5l111 -57q137 -74 215.5 -160t78.5 -215q0 -88 -36.5 -150.5t-114.5 -128.5q135 -106 135 -270q0 -172 -121 -260t-299 -88q-156 0 -286 70t-130 211zM236 612q0 -86 223 -202q10 -6 14 -9q14 -8 275 -163q92 80 92 151q0 39 -41 82t-80 67.5t-108.5 62.5 t-75.5 42q-59 35 -179 109q-120 -50 -120 -140z" />
<glyph unicode="&#xa8;" horiz-adv-x="819" d="M135 1251q0 47 34 78t81 31q43 0 73.5 -32t30.5 -75q0 -47 -31.5 -79.5t-78.5 -32.5q-45 0 -77 31.5t-32 78.5zM471 1251q0 47 34 78t81 31q43 0 73.5 -32t30.5 -75q0 -47 -31.5 -79.5t-78.5 -32.5q-45 0 -77 31.5t-32 78.5z" />
<glyph unicode="&#xa9;" horiz-adv-x="1761" d="M176 672q0 291 206 494.5t499 203.5t498.5 -203.5t205.5 -494.5t-205.5 -495t-498.5 -204t-499 204t-206 495zM319 671.5q0 -235.5 163 -400.5t398.5 -165t398.5 165t163 400.5t-163 400.5t-398.5 165t-398.5 -165t-163 -400.5zM510 659q0 168 107.5 273.5t281.5 116.5 q53 4 141 -13.5t142 -44.5v-203h-82q-16 43 -27.5 68t-33 54.5t-52.5 43t-74 13.5q-100 0 -151 -83t-51 -190q0 -131 61.5 -232.5t181.5 -101.5q63 0 102.5 30t84.5 89l61 -24q-37 -88 -128 -132t-197 -44q-166 0 -266.5 107t-100.5 273z" />
<glyph unicode="&#xaa;" horiz-adv-x="737" d="M63 950q0 18 5.5 36t11.5 31t21.5 26.5t24.5 22.5t30.5 21.5t31 17.5t35 15t32.5 13.5t34.5 12.5t29.5 11q6 2 19.5 6t21 6t15.5 8.5t11 14.5t3 20q0 47 -13.5 72t-56.5 25q-37 0 -50 -13.5t-31 -52.5q-16 -35 -34 -51t-52 -16q-31 0 -54.5 18t-23.5 49q0 127 260 127 q121 0 180 -39q29 -18 42 -46t15 -47t2 -62v-195q0 -68 23 -68q14 0 45 23l33 -43q-23 -37 -71 -57.5t-95 -20.5q-90 0 -117 72q-82 -72 -182 -72q-63 0 -104.5 36t-41.5 99zM250 991q0 -68 59 -67q39 0 59.5 21.5t18.5 58.5v114q-4 -2 -19.5 -8t-20.5 -9t-19.5 -10.5 t-20.5 -11.5t-17 -12t-16.5 -15.5t-12.5 -17.5t-9 -20.5t-2 -22.5z" />
<glyph unicode="&#xab;" horiz-adv-x="942" d="M117 444q0 4 6 10.5t14 12.5l8 6l148 121q10 10 64.5 58t82 70.5t35.5 22.5q14 0 14 -14q0 -18 -89 -147t-101 -142q18 -23 103 -148.5t85 -142t-18 -16.5q-6 0 -174 154l-135 114q-43 29 -43 41zM453 444q0 4 6 10.5t14 12.5l8 6l148 121q10 10 64.5 58t82 70.5 t35.5 22.5q14 0 14 -14q0 -18 -89 -147t-101 -142q18 -23 103 -148.5t85 -142t-18 -16.5q-6 0 -174 154l-135 114q-43 29 -43 41z" />
<glyph unicode="&#xac;" horiz-adv-x="1064" d="M51 621v151h963v-575h-152v424h-811z" />
<glyph unicode="&#xad;" horiz-adv-x="681" d="M8 350v185h475v-185h-475z" />
<glyph unicode="&#xae;" horiz-adv-x="1761" d="M176 674q0 289 207 492.5t500 203.5q291 0 496.5 -203.5t205.5 -492.5q0 -291 -204.5 -496t-497.5 -205t-500 205t-207 496zM319 674q0 -238 163 -403t401 -165q236 0 397.5 165t161.5 403q0 236 -162 399.5t-397 163.5q-238 0 -401 -163.5t-163 -399.5zM555 322v47h26 h22q5 0 15.5 2t13.5 7t6 14t3 24v557q0 8 -2 15t-6 10l-8 7q-4 3 -14 3h-15h-18h-19v51h348q270 0 271 -191q0 -72 -55.5 -124t-127.5 -62v-4q45 -4 86 -53.5t64.5 -105.5t55.5 -103t65 -47v-47h-152q-23 0 -41 8t-31.5 26.5t-21.5 34t-21 43.5l-18 43q-4 10 -15.5 39 t-20.5 46.5t-22.5 40t-29.5 32.5t-35 10h-51v-223q0 -12 1 -21.5t6 -15.5t6 -9t12.5 -5t14.5 -2h19h21v-47h-332zM807 707q20 -6 45 -7q160 0 160 158q0 68 -37 107t-103 39h-32q-16 0 -23.5 -3.5t-8.5 -7.5t-1 -12v-4v-270z" />
<glyph unicode="&#xb0;" horiz-adv-x="819" d="M154 1128q-2 104 73.5 180t182.5 76q104 0 180 -75.5t76 -180.5q0 -106 -76 -181t-180 -75q-106 0 -181 75t-75 181zM258 1128q0 -61 44 -106t108 -45q61 0 106 45t45 106.5t-45 106.5t-108 45q-61 0 -106.5 -45.5t-43.5 -106.5z" />
<glyph unicode="&#xb1;" horiz-adv-x="1064" d="M51 0v152h963v-152h-963zM51 530v152h406v281h151v-281h406v-152h-406v-280h-151v280h-406z" />
<glyph unicode="&#xb4;" horiz-adv-x="696" d="M135 1083l230 250q2 2 20 22.5t26.5 28t26 21.5t31.5 20.5t29 6.5q33 0 55 -24t22 -56q0 -37 -79 -86l-50 -33l-245 -150h-66z" />
<glyph unicode="&#xb5;" horiz-adv-x="1146" d="M16 795v67l396 23v-559q0 -49 4 -81t16 -68t42 -53.5t75 -17.5q188 0 188 287v215q0 127 -18 154q-6 10 -21.5 17t-27 9.5t-34 4.5t-26.5 2v67l396 23v-590q0 -109 20 -141q6 -10 16.5 -17.5t25.5 -10.5t22.5 -4t29 0t23.5 1v-66l-367 -84l-18 199h-4q-70 -111 -156 -155 t-211 -44l43 -170q27 -92 27 -153q0 -72 -43 -130.5t-111 -58.5q-72 0 -116 57.5t-44 131.5v958q0 129 -18 154q-6 8 -16.5 14t-23.5 9t-22.5 4.5t-26 3.5t-20.5 2z" />
<glyph unicode="&#x3bc;" horiz-adv-x="1146" d="M16 795v67l396 23v-559q0 -49 4 -81t16 -68t42 -53.5t75 -17.5q188 0 188 287v215q0 127 -18 154q-6 10 -21.5 17t-27 9.5t-34 4.5t-26.5 2v67l396 23v-590q0 -109 20 -141q6 -10 16.5 -17.5t25.5 -10.5t22.5 -4t29 0t23.5 1v-66l-367 -84l-18 199h-4q-70 -111 -156 -155 t-211 -44l43 -170q27 -92 27 -153q0 -72 -43 -130.5t-111 -58.5q-72 0 -116 57.5t-44 131.5v958q0 129 -18 154q-6 8 -16.5 14t-23.5 9t-22.5 4.5t-26 3.5t-20.5 2z" />
<glyph unicode="&#xb6;" horiz-adv-x="1105" d="M49 981q0 195 139.5 283t343.5 88q33 0 98.5 -4.5t98.5 -4.5q31 0 142.5 3.5t191.5 5.5v-74q-47 -2 -70.5 -4t-56.5 -19.5t-49 -52.5q-18 -37 -19 -117v-1077q0 -217 23 -276q6 -14 14 -24.5t21.5 -17.5t22.5 -11.5t29.5 -6.5t28 -3t29.5 -1h27v-74h-365v1659h-96v-1659 h-385v74h37q29 0 41 1t35.5 5t36 10.5t27 20.5t20.5 33q18 53 18 270v623q-383 0 -383 350z" />
<glyph unicode="&#xb7;" horiz-adv-x="532" d="M139 481q0 51 37 89t90 38t90 -38t37 -89t-37 -89t-90 -38t-90 38t-37 89z" />
<glyph unicode="&#x2219;" horiz-adv-x="532" d="M139 481q0 51 37 89t90 38t90 -38t37 -89t-37 -89t-90 -38t-90 38t-37 89z" />
<glyph unicode="&#xb8;" horiz-adv-x="614" d="M164 -268q0 16 13 29.5t30 13.5q27 0 49.5 -42t69.5 -42q27 0 48 21.5t21 47.5q0 39 -35.5 58.5t-78.5 19.5q-10 0 -32 -3t-32 -3l23 168h69l-14 -113l37 2q68 0 114 -28.5t46 -91.5q0 -61 -53.5 -97.5t-116.5 -36.5q-53 0 -105.5 25t-52.5 72z" />
<glyph unicode="&#xba;" horiz-adv-x="737" d="M74 1096q0 117 87 195.5t206 78.5q121 0 208 -78t87 -198q0 -123 -88.5 -201t-211.5 -78q-121 0 -204.5 80t-83.5 201zM260 1098q0 -221 109 -221q106 0 106 217q0 215 -106 215q-109 0 -109 -211z" />
<glyph unicode="&#xbb;" horiz-adv-x="942" d="M117 737q0 14 14 15q8 0 36 -22.5t82 -71t64 -58.5l148 -121l8 -6q8 -6 14 -12t6 -10q0 -12 -43 -41l-135 -115q-168 -154 -174 -154q-18 0 -18 16.5t85 142.5t103 149q-12 12 -101 141t-89 147zM453 737q0 14 14 15q8 0 35.5 -22.5t82 -71t64.5 -58.5l148 -121l8 -6 q8 -6 14 -12t6 -10q0 -12 -43 -41l-135 -115q-168 -154 -174 -154q-18 0 -18 16.5t85 142.5t103 149q-12 12 -101 141t-89 147z" />
<glyph unicode="&#xc0;" horiz-adv-x="1310" d="M-70 -4v74q31 0 58.5 10t48 22.5t42 38t35 44t30 53t24.5 53t23.5 55.5t19.5 49l405 975h99l422 -1053q66 -160 104 -198q41 -37 139 -49v-74q-61 0 -184 4t-184 4q-53 0 -161 -4t-161 -4v74q8 2 34 4t39 4t34.5 8t33 14.5t20.5 24.5t9 37q0 39 -39 135l-43 117h-452 l-25 -60q-49 -137 -49 -172t14.5 -58.5t45 -33.5t50 -13t60.5 -7v-74q-43 0 -129 4t-129 4q-39 0 -117 -4t-117 -4zM365 516h372l-180 471zM442 1700q0 33 22.5 56.5t55.5 23.5q14 0 28.5 -6.5t32 -20.5t25.5 -21.5t26.5 -28t20.5 -22.5l230 -249h-66l-246 149l-49 33 q-80 49 -80 86z" />
<glyph unicode="&#xc1;" horiz-adv-x="1310" d="M-70 -4v74q31 0 58.5 10t48 22.5t42 38t35 44t30 53t24.5 53t23.5 55.5t19.5 49l405 975h99l422 -1053q66 -160 104 -198q41 -37 139 -49v-74q-61 0 -184 4t-184 4q-53 0 -161 -4t-161 -4v74q8 2 34 4t39 4t34.5 8t33 14.5t20.5 24.5t9 37q0 39 -39 135l-43 117h-452 l-25 -60q-49 -137 -49 -172t14.5 -58.5t45 -33.5t50 -13t60.5 -7v-74q-43 0 -129 4t-129 4q-39 0 -117 -4t-117 -4zM365 516h372l-180 471zM442 1431l230 250q2 2 20 22.5t26.5 28t26 21.5t31.5 20.5t29 6.5q33 0 55 -24t22 -56q0 -37 -79 -86l-50 -33l-245 -150h-66z" />
<glyph unicode="&#xc2;" horiz-adv-x="1310" d="M-70 -4v74q31 0 58.5 10t48 22.5t42 38t35 44t30 53t24.5 53t23.5 55.5t19.5 49l405 975h99l422 -1053q66 -160 104 -198q41 -37 139 -49v-74q-61 0 -184 4t-184 4q-53 0 -161 -4t-161 -4v74q8 2 34 4t39 4t34.5 8t33 14.5t20.5 24.5t9 37q0 39 -39 135l-43 117h-452 l-25 -60q-49 -137 -49 -172t14.5 -58.5t45 -33.5t50 -13t60.5 -7v-74q-43 0 -129 4t-129 4q-39 0 -117 -4t-117 -4zM365 516h372l-180 471zM381 1432l203 337h127l204 -337h-65l-203 192l-198 -192h-68z" />
<glyph unicode="&#xc3;" horiz-adv-x="1310" d="M-70 -4v74q31 0 58.5 10t48 22.5t42 38t35 44t30 53t24.5 53t23.5 55.5t19.5 49l405 975h99l422 -1053q66 -160 104 -198q41 -37 139 -49v-74q-61 0 -184 4t-184 4q-53 0 -161 -4t-161 -4v74q8 2 34 4t39 4t34.5 8t33 14.5t20.5 24.5t9 37q0 39 -39 135l-43 117h-452 l-25 -60q-49 -137 -49 -172t14.5 -58.5t45 -33.5t50 -13t60.5 -7v-74q-43 0 -129 4t-129 4q-39 0 -117 -4t-117 -4zM365 516h372l-180 471zM381 1497q10 72 63.5 136.5t122.5 64.5q49 0 117 -31q92 -39 129 -39q29 0 52.5 21.5t31.5 50.5l49 -6q-12 -78 -60 -138.5 t-120 -60.5q-41 0 -111 31q-104 35 -127 35q-78 0 -100 -70z" />
<glyph unicode="&#xc4;" horiz-adv-x="1310" d="M-70 -4v74q31 0 58.5 10t48 22.5t42 38t35 44t30 53t24.5 53t23.5 55.5t19.5 49l405 975h99l422 -1053q66 -160 104 -198q41 -37 139 -49v-74q-61 0 -184 4t-184 4q-53 0 -161 -4t-161 -4v74q8 2 34 4t39 4t34.5 8t33 14.5t20.5 24.5t9 37q0 39 -39 135l-43 117h-452 l-25 -60q-49 -137 -49 -172t14.5 -58.5t45 -33.5t50 -13t60.5 -7v-74q-43 0 -129 4t-129 4q-39 0 -117 -4t-117 -4zM365 516h372l-180 471zM381 1599q0 47 34 78t81 31q43 0 73.5 -32t30.5 -75q0 -47 -31.5 -79.5t-78.5 -32.5q-45 0 -77 31.5t-32 78.5zM717 1599q0 47 34 78 t81 31q43 0 73.5 -32t30.5 -75q0 -47 -31.5 -79.5t-78.5 -32.5q-45 0 -77 31.5t-32 78.5z" />
<glyph unicode="&#xc5;" horiz-adv-x="1310" d="M-70 -4v74q31 0 58.5 10t48 22.5t42 38t35 44t30 53t24.5 53t23.5 55.5t19.5 49l405 975h99l422 -1053q66 -160 104 -198q41 -37 139 -49v-74q-61 0 -184 4t-184 4q-53 0 -161 -4t-161 -4v74q8 2 34 4t39 4t34.5 8t33 14.5t20.5 24.5t9 37q0 39 -39 135l-43 117h-452 l-25 -60q-49 -137 -49 -172t14.5 -58.5t45 -33.5t50 -13t60.5 -7v-74q-43 0 -129 4t-129 4q-39 0 -117 -4t-117 -4zM365 516h372l-180 471zM442 1599q0 88 63.5 145.5t151.5 57.5q86 0 145.5 -62.5t59.5 -148.5q0 -82 -63.5 -139t-147.5 -57q-86 0 -147.5 59t-61.5 145z M532 1603.5q0 -51.5 34 -89.5t85 -38q47 0 83 35t36 84t-31 88t-80 39q-51 0 -89 -33.5t-38 -85z" />
<glyph unicode="&#xc6;" horiz-adv-x="1802" d="M-72 -4v74q51 2 90 24.5t73 72.5t46.5 74.5t42.5 92.5l340 725q53 113 53 143q0 27 -22.5 43.5t-46 20.5t-61 7t-48.5 5v74h1280v-363h-82q-25 145 -111.5 206.5t-240.5 61.5q-152 0 -168 -26q-6 -10 -6 -117v-379q139 0 206.5 44t74.5 177h82q0 -47 -4.5 -141t-4.5 -141 q0 -43 4.5 -127t4.5 -127h-82q-29 139 -83.5 180t-197.5 41v-240v-56q0 -11 1 -49t4 -47t8 -39t13.5 -37t21.5 -27.5t30.5 -25.5t40 -14.5t51.5 -12.5t66 -3q176 0 255.5 62.5t116.5 234.5h84l-12 -391q-143 2 -430 5t-428 3q-53 0 -164 -4t-164 -4v74q70 -2 110 11t57 50 t21.5 72t4.5 106v19v243h-359l-108 -237q-55 -131 -56 -164q0 -29 15.5 -48.5t46.5 -29.5t49 -14t53 -8v-74q-37 0 -109.5 4t-109.5 4q-41 0 -124 -4t-124 -4zM442 674h312v495q0 88 -27 88q-8 0 -15 -6t-14.5 -18t-11.5 -21.5t-9 -23.5t-5 -17z" />
<glyph unicode="&#xc7;" horiz-adv-x="1433" d="M100 647q0 315 202 519t515 204q223 0 387 -129l31 117h88l18 -430h-90q-33 154 -133 247t-254 93q-113 0 -196.5 -55.5t-127.5 -147.5t-64.5 -190.5t-20.5 -204.5q0 -113 21.5 -212.5t66.5 -187.5t131 -140t203 -54q166 -2 266 107.5t131 283.5h82v-461h-82l-39 119 q-162 -152 -444 -152h-15l-10 -86l37 2q68 0 114 -28.5t46 -91.5q0 -61 -53.5 -97.5t-116.5 -36.5q-53 0 -105.5 25t-52.5 72q0 16 13.5 29.5t29.5 13.5q27 0 49.5 -42t69.5 -42q27 0 48 21.5t21 47.5q0 39 -35.5 58.5t-78.5 19.5q-10 0 -32 -3t-32 -3l21 145 q-274 25 -441.5 205t-167.5 465z" />
<glyph unicode="&#xc8;" horiz-adv-x="1269" d="M31 -4v74q57 -2 95 10t57.5 27.5t28.5 57.5t10 68.5t1 94.5v692q0 68 -1 94.5t-10 68.5t-28.5 57t-57.5 27.5t-95 10.5v74q59 0 173.5 -4.5t174.5 -4.5q125 0 376 4.5t375 4.5l17 -361h-88q-25 147 -110 206.5t-238 59.5q-156 0 -168 -22q-6 -10 -6 -117v-379 q139 0 206.5 44t73.5 178h82q-2 -47 -4 -141.5t-4 -141.5q2 -43 4 -127t4 -127h-82q-29 139 -83 180t-197 41v-239v-63q0 -13 2 -54t5 -52.5t11 -41t19.5 -39t29 -26.5t41 -23.5t56 -11.5t71.5 -5q174 0 254 64.5t119 236.5h82q-2 -39 -4 -115.5t-4 -115.5q2 -29 4 -82 t4 -82q-141 0 -424 4t-424 4q-59 0 -174 -4t-174 -4zM422 1700q0 33 22.5 56.5t55.5 23.5q14 0 28.5 -6.5t32 -20.5t25.5 -21.5t26.5 -28t20.5 -22.5l229 -249h-65l-246 149l-49 33q-80 49 -80 86z" />
<glyph unicode="&#xc9;" horiz-adv-x="1269" d="M31 -4v74q8 0 16 -1q47 0 79 11q38 12 57.5 27.5t28.5 57.5t10 68.5t1 94.5v692q0 68 -1 94.5t-10 68.5t-28.5 57t-57.5 28q-32 11 -79 10h-16v74q59 0 173.5 -4.5t174.5 -4.5q125 0 376 4.5t375 4.5l17 -361h-88q-25 147 -110 206.5t-238 59.5q-156 0 -168 -22 q-6 -10 -6 -117v-379q139 0 206.5 44t73.5 178h82q-2 -47 -4 -141.5t-4 -141.5q2 -43 4 -127t4 -127h-82q-29 139 -83 180t-197 41v-239v-63q0 -13 2 -54t5 -52.5t11 -41t19.5 -39t29 -26.5t41 -23.5t56 -11.5t71.5 -5q174 0 254 64.5t119 236.5h82q-2 -39 -4 -115.5 t-4 -115.5q2 -29 4 -82t4 -82q-141 0 -424 4t-424 4q-59 0 -174 -4t-174 -4zM422 1431l230 250q2 2 20 22.5t26.5 28t26 21.5t31.5 20.5t29 6.5q33 0 55 -24t22 -56q0 -37 -79 -86l-50 -33l-245 -150h-66z" />
<glyph unicode="&#xca;" horiz-adv-x="1269" d="M31 -4v74q57 -2 95 10t57.5 27.5t28.5 57.5t10 68.5t1 94.5v692q0 68 -1 94.5t-10 68.5t-28.5 57t-57.5 27.5t-95 10.5v74q59 0 173.5 -4.5t174.5 -4.5q125 0 376 4.5t375 4.5l17 -361h-88q-25 147 -110 206.5t-238 59.5q-156 0 -168 -22q-6 -10 -6 -117v-379 q139 0 206.5 44t73.5 178h82q-2 -47 -4 -141.5t-4 -141.5q2 -43 4 -127t4 -127h-82q-29 139 -83 180t-197 41v-239v-63q0 -13 2 -54t5 -52.5t11 -41t19.5 -39t29 -26.5t41 -23.5t56 -11.5t71.5 -5q174 0 254 64.5t119 236.5h82q-2 -39 -4 -115.5t-4 -115.5q2 -29 4 -82 t4 -82q-141 0 -424 4t-424 4q-59 0 -174 -4t-174 -4zM360 1432l203 337h127l205 -337h-66l-202 192l-199 -192h-68z" />
<glyph unicode="&#xcb;" horiz-adv-x="1269" d="M31 -4v74q8 0 16 -1q47 0 79 11q38 12 57.5 27.5t28.5 57.5t10 68.5t1 94.5v692q0 68 -1 94.5t-10 68.5t-28.5 57t-57.5 28q-32 11 -79 10h-16v74q59 0 173.5 -4.5t174.5 -4.5q125 0 376 4.5t375 4.5l17 -361h-88q-25 147 -110 206.5t-238 59.5q-156 0 -168 -22 q-6 -10 -6 -117v-379q139 0 206.5 44t73.5 178h82q-2 -47 -4 -141.5t-4 -141.5q2 -43 4 -127t4 -127h-82q-29 139 -83 180t-197 41v-239v-63q0 -13 2 -54t5 -52.5t11 -41t19.5 -39t29 -26.5t41 -23.5t56 -11.5t71.5 -5q174 0 254 64.5t119 236.5h82q-2 -39 -4 -115.5 t-4 -115.5q2 -29 4 -82t4 -82q-141 0 -424 4t-424 4q-59 0 -174 -4t-174 -4zM360 1599q0 47 34 78t81 31q43 0 73.5 -32t30.5 -75q0 -47 -31.5 -79.5t-78.5 -32.5q-45 0 -77 31.5t-32 78.5zM696 1599q0 47 34 78t81 31q43 0 73.5 -32t30.5 -75q0 -47 -31.5 -79.5 t-78.5 -32.5q-45 0 -77 31.5t-32 78.5z" />
<glyph unicode="&#xcc;" horiz-adv-x="778" d="M41 -4v74q57 -2 94 9t56.5 26.5t29.5 53.5t11 65.5t1 88.5v15v688v14q0 61 -1 90t-11 67t-29.5 53t-56.5 27.5t-94 10.5v74q57 0 167.5 -4.5t168.5 -4.5q61 2 182 5.5t180 3.5v-74q-29 0 -53 -1t-42.5 -10.5t-33 -12.5t-25 -20t-17.5 -21.5t-11 -32t-6 -32.5t-3 -41 t-1 -42v-49v-697v-67q0 -20 4 -55t11 -48.5t20.5 -34t34 -27.5t51 -12t71.5 -5v-74q-59 0 -179 3t-181 5q-55 0 -168 -4t-170 -4zM176 1700q0 33 22.5 56.5t55.5 23.5q14 0 28.5 -6.5t32 -20.5t25.5 -21.5t26.5 -28t20.5 -22.5l229 -249h-65l-246 149l-49 33q-80 49 -80 86z " />
<glyph unicode="&#xcd;" horiz-adv-x="778" d="M41 -4v74q9 0 17 -1q46 0 77 10q37 11 56.5 26.5t29.5 53.5t11 65.5t1 88.5v15v688v14q0 61 -1 90t-11 67t-29.5 53t-56.5 28q-32 11 -78 10h-16v74q57 0 167.5 -4.5t168.5 -4.5q61 2 182 5.5t180 3.5v-74q-29 0 -53 -1t-42.5 -10.5t-33 -12.5t-25 -20t-17.5 -21.5 t-11 -32t-6 -32.5t-3 -41t-1 -42v-49v-697v-67q0 -20 4 -55t11 -48.5t20.5 -34t34 -27.5t51 -12t71.5 -5v-74q-59 0 -179 3t-181 5q-55 0 -168 -4t-170 -4zM176 1431l230 250q2 2 20 22.5t26.5 28t26 21.5t31.5 20.5t29 6.5q33 0 55 -24t22 -56q0 -37 -79 -86l-50 -33 l-245 -150h-66z" />
<glyph unicode="&#xce;" horiz-adv-x="778" d="M41 -4v74q57 -2 94 9t56.5 26.5t29.5 53.5t11 65.5t1 88.5v15v688v14q0 61 -1 90t-11 67t-29.5 53t-56.5 27.5t-94 10.5v74q57 0 167.5 -4.5t168.5 -4.5q61 2 182 5.5t180 3.5v-74q-29 0 -53 -1t-42.5 -10.5t-33 -12.5t-25 -20t-17.5 -21.5t-11 -32t-6 -32.5t-3 -41 t-1 -42v-49v-697v-67q0 -20 4 -55t11 -48.5t20.5 -34t34 -27.5t51 -12t71.5 -5v-74q-59 0 -179 3t-181 5q-55 0 -168 -4t-170 -4zM115 1432l202 337h127l205 -337h-65l-203 192l-199 -192h-67z" />
<glyph unicode="&#xcf;" horiz-adv-x="778" d="M41 -4v74q9 0 17 -1q46 0 77 10q37 11 56.5 26.5t29.5 53.5t11 65.5t1 88.5v15v688v14q0 61 -1 90t-11 67t-29.5 53t-56.5 28q-32 11 -78 10h-16v74q57 0 167.5 -4.5t168.5 -4.5q61 2 182 5.5t180 3.5v-74q-29 0 -53 -1t-42.5 -10.5t-33 -12.5t-25 -20t-17.5 -21.5 t-11 -32t-6 -32.5t-3 -41t-1 -42v-49v-697v-67q0 -20 4 -55t11 -48.5t20.5 -34t34 -27.5t51 -12t71.5 -5v-74q-59 0 -179 3t-181 5q-55 0 -168 -4t-170 -4zM115 1599q0 47 34 78t81 31q43 0 73.5 -32t30.5 -75q0 -47 -31.5 -79.5t-78.5 -32.5q-45 0 -77 31.5t-32 78.5z M451 1599q0 47 34 78t81 31q43 0 73.5 -32t30.5 -75q0 -47 -31.5 -79.5t-78.5 -32.5q-45 0 -77 31.5t-32 78.5z" />
<glyph unicode="&#xd0;" horiz-adv-x="1515" d="M31 -4v74q47 0 80.5 5t55 22.5t33 32.5t16.5 52t6 62.5t1 83.5v323h-164v103h164v266q0 57 -1 83.5t-6 63.5t-16.5 51.5t-33 32t-55 22.5t-80.5 5v74h620q342 0 543 -172q231 -197 231 -539q0 -305 -200 -487q-174 -158 -535 -158q-55 0 -163.5 4t-161.5 4q-63 0 -180 -4 t-154 -4zM537 449q0 -205 20 -259q37 -100 166 -100q92 0 157.5 36t101.5 89t57.5 134t26.5 148.5t5 155.5q0 268 -82 426q-92 178 -362 178q-63 0 -82 -18q-8 -8 -8 -49v-436h270v-103h-270v-202z" />
<glyph unicode="&#xd1;" horiz-adv-x="1597" d="M29 1278v74q33 0 97 -4.5t97 -4.5q39 0 116 4.5t116 4.5l809 -932v545q0 61 -1 93t-11.5 80t-30 72.5t-58.5 45t-94 22.5v74q39 0 117 -4.5t117 -4.5q41 0 122.5 4.5t122.5 4.5v-74q-102 -18 -133 -49q-10 -10 -18 -25q-31 -59 -31 -252v-985h-100l-930 1059v-633 q0 -61 1 -94t11 -83t29.5 -75.5t58.5 -47t96 -23.5v-74q-41 0 -123.5 4t-123.5 4q-39 0 -117 -4t-117 -4v74q117 12 149.5 66t32.5 179v824q-55 78 -90.5 105.5t-113.5 33.5zM524 1497q10 72 63.5 136.5t123.5 64.5q49 0 116 -31q92 -39 129 -39q29 0 52.5 21.5t31.5 50.5 l49 -6q-12 -78 -60 -138.5t-120 -60.5q-41 0 -110 31q-104 35 -127 34q-78 0 -101 -69z" />
<glyph unicode="&#xd2;" horiz-adv-x="1720" d="M100 672q0 317 220.5 507.5t542 190.5t540.5 -190.5t219 -508t-222 -508t-544 -190.5q-319 0 -537.5 192t-218.5 507zM455 684q0 -111 17 -209t58 -195.5t125 -154.5t201 -57q121 0 206 51t127 140t60.5 186.5t18.5 213.5q0 90 -10.5 170t-38 165t-71.5 144.5t-119 98.5 t-173 39q-117 0 -200 -54.5t-125 -145.5t-59 -187t-17 -205zM647 1700q0 33 22.5 56.5t55.5 23.5q14 0 28.5 -6.5t32 -20.5t25.5 -21.5t26.5 -28t20.5 -22.5l229 -249h-65l-246 149l-49 33q-80 49 -80 86z" />
<glyph unicode="&#xd3;" horiz-adv-x="1720" d="M100 672q0 317 220.5 507.5t542 190.5t540.5 -190.5t219 -508t-222 -508t-544 -190.5q-319 0 -537.5 192t-218.5 507zM455 684q0 -111 17 -209t58 -195.5t125 -154.5t201 -57q121 0 206 51t127 140t60.5 186.5t18.5 213.5q0 90 -10.5 170t-38 165t-71.5 144.5t-119 98.5 t-173 39q-117 0 -200 -54.5t-125 -145.5t-59 -187t-17 -205zM647 1431l230 250q2 2 20 22.5t26.5 28t26 21.5t31.5 20.5t29 6.5q33 0 55 -24t22 -56q0 -37 -79 -86l-50 -33l-245 -150h-66z" />
<glyph unicode="&#xd4;" horiz-adv-x="1720" d="M100 672q0 317 220.5 507.5t542 190.5t540.5 -190.5t219 -508t-222 -508t-544 -190.5q-319 0 -537.5 192t-218.5 507zM455 684q0 -111 17 -209t58 -195.5t125 -154.5t201 -57q121 0 206 51t127 140t60.5 186.5t18.5 213.5q0 90 -10.5 170t-38 165t-71.5 144.5t-119 98.5 t-173 39q-117 0 -200 -54.5t-125 -145.5t-59 -187t-17 -205zM586 1432l202 337h127l205 -337h-65l-203 192l-199 -192h-67z" />
<glyph unicode="&#xd5;" horiz-adv-x="1720" d="M100 672q0 317 220.5 507.5t542 190.5t540.5 -190.5t219 -508t-222 -508t-544 -190.5q-319 0 -537.5 192t-218.5 507zM455 684q0 -111 17 -209t58 -195.5t125 -154.5t201 -57q121 0 206 51t127 140t60.5 186.5t18.5 213.5q0 90 -10.5 170t-38 165t-71.5 144.5t-119 98.5 t-173 39q-117 0 -200 -54.5t-125 -145.5t-59 -187t-17 -205zM586 1497q10 72 63.5 136.5t123.5 64.5q49 0 116 -31q92 -39 129 -39q29 0 52.5 21.5t31.5 50.5l49 -6q-12 -78 -60 -138.5t-120 -60.5q-41 0 -110 31q-104 35 -127 34q-78 0 -101 -69z" />
<glyph unicode="&#xd6;" horiz-adv-x="1720" d="M100 672q0 317 220.5 507.5t542 190.5t540.5 -190.5t219 -508t-222 -508t-544 -190.5q-319 0 -537.5 192t-218.5 507zM455 684q0 -111 17 -209t58 -195.5t125 -154.5t201 -57q121 0 206 51t127 140t60.5 186.5t18.5 213.5q0 90 -10.5 170t-38 165t-71.5 144.5t-119 98.5 t-173 39q-117 0 -200 -54.5t-125 -145.5t-59 -187t-17 -205zM586 1599q0 47 34 78t81 31q43 0 73.5 -32t30.5 -75q0 -47 -31.5 -79.5t-78.5 -32.5q-45 0 -77 31.5t-32 78.5zM922 1599q0 47 34 78t81 31q43 0 73.5 -32t30.5 -75q0 -47 -31.5 -79.5t-78.5 -32.5 q-45 0 -77 31.5t-32 78.5z" />
<glyph unicode="&#xd8;" horiz-adv-x="1720" d="M100 664q0 326 221.5 516t548.5 190q195 0 359 -70l131 185h108l-155 -232q309 -205 309 -591q0 -205 -108.5 -365t-280.5 -242t-375 -82q-242 0 -379 84l-153 -219h-113l182 264q-145 92 -220 239t-75 323zM455 684q0 -250 71 -391l609 868q-113 115 -283 115 q-94 0 -166 -37t-115 -95.5t-69.5 -138t-36.5 -157.5t-10 -164zM580 203q45 -68 124.5 -101.5t167.5 -33.5q117 0 200 53t123 144t56.5 185.5t16.5 204.5q0 262 -80 422z" />
<glyph unicode="&#xd9;" horiz-adv-x="1597" d="M31 1278v74q53 0 160.5 -4.5t160.5 -4.5q63 0 190.5 4.5t190.5 4.5v-74q-72 2 -113.5 -12.5t-59 -57.5t-20.5 -76.5t-3 -115.5v-494q0 -213 73.5 -314.5t280.5 -101.5q193 0 292 96.5t99 282.5v426q0 223 -37 283q-45 72 -158 84v74q39 0 117 -4.5t117 -4.5q41 0 124 4.5 t124 4.5v-74q-123 -20 -156 -84q-10 -20 -17 -47t-9.5 -62.5t-3.5 -57t0 -65.5t1 -51v-383q0 -555 -567 -555q-289 0 -441.5 124t-152.5 427v492v14q0 61 -1 89t-10 66t-29.5 53t-57.5 27.5t-94 12.5zM586 1700q0 33 22.5 56.5t55.5 23.5q14 0 28.5 -6.5t31.5 -20.5 t25.5 -21.5t27 -28t20.5 -22.5l229 -249h-65l-246 149l-49 33q-80 49 -80 86z" />
<glyph unicode="&#xda;" horiz-adv-x="1597" d="M31 1278v74q53 0 160.5 -4.5t160.5 -4.5q63 0 190.5 4.5t190.5 4.5v-74h-17q-59 0 -96 -12q-42 -14 -59.5 -57.5t-20.5 -77t-3 -115.5v-494q0 -213 73.5 -314.5t280.5 -101.5q193 0 292 96.5t99 282.5v426q0 223 -37 283q-45 72 -158 84v74q39 0 117 -4.5t117 -4.5 q41 0 124 4.5t124 4.5v-74q-123 -20 -156 -84q-10 -20 -17 -47t-9.5 -62.5t-3.5 -57.5q-1 -11 -0.5 -27t0.5 -38q1 -44 1 -51v-383q0 -555 -567 -555q-289 0 -441.5 124t-152.5 427v492v14q0 61 -1 89t-10 66t-29.5 53t-57.5 27.5t-94 12.5zM586 1431l230 250q2 2 20 22.5 t26.5 28t26 21.5t31.5 20.5t29 6.5q33 0 55 -24t22 -56q0 -37 -79 -86l-50 -33l-245 -150h-66z" />
<glyph unicode="&#xdb;" horiz-adv-x="1597" d="M31 1278v74q53 0 160.5 -4.5t160.5 -4.5q63 0 190.5 4.5t190.5 4.5v-74q-72 2 -113.5 -12.5t-59 -57.5t-20.5 -76.5t-3 -115.5v-494q0 -213 73.5 -314.5t280.5 -101.5q193 0 292 96.5t99 282.5v426q0 223 -37 283q-45 72 -158 84v74q39 0 117 -4.5t117 -4.5q41 0 124 4.5 t124 4.5v-74q-123 -20 -156 -84q-10 -20 -17 -47t-9.5 -62.5t-3.5 -57t0 -65.5t1 -51v-383q0 -555 -567 -555q-289 0 -441.5 124t-152.5 427v492v14q0 61 -1 89t-10 66t-29.5 53t-57.5 27.5t-94 12.5zM524 1432l203 337h127l205 -337h-66l-202 192l-199 -192h-68z" />
<glyph unicode="&#xdc;" horiz-adv-x="1597" d="M31 1278v74q53 0 160.5 -4.5t160.5 -4.5q63 0 190.5 4.5t190.5 4.5v-74h-17q-59 0 -96 -12q-42 -14 -59.5 -57.5t-20.5 -77t-3 -115.5v-494q0 -213 73.5 -314.5t280.5 -101.5q193 0 292 96.5t99 282.5v426q0 223 -37 283q-45 72 -158 84v74q39 0 117 -4.5t117 -4.5 q41 0 124 4.5t124 4.5v-74q-123 -20 -156 -84q-10 -20 -17 -47t-9.5 -62.5t-3.5 -57.5q-1 -11 -0.5 -27t0.5 -38q1 -44 1 -51v-383q0 -555 -567 -555q-289 0 -441.5 124t-152.5 427v492v14q0 61 -1 89t-10 66t-29.5 53t-57.5 27.5t-94 12.5zM524 1599q0 47 34 78t81 31 q43 0 73.5 -32t30.5 -75q0 -47 -31.5 -79.5t-78.5 -32.5q-45 0 -77 31.5t-32 78.5zM860 1599q0 47 34 78t81 31q43 0 73.5 -32t30.5 -75q0 -47 -31.5 -79.5t-78.5 -32.5q-45 0 -77 31.5t-32 78.5z" />
<glyph unicode="&#xdd;" horiz-adv-x="1269" d="M-43 1278v74q51 0 154.5 -4.5t154.5 -4.5q57 0 174 4.5t176 4.5v-74q-31 -2 -49 -5t-46.5 -11.5t-43 -26.5t-14.5 -45q0 -37 74 -170l204 -371l197 330q78 143 78 197q0 102 -150 102v74q35 0 103.5 -4.5t103.5 -4.5q41 0 121 4.5t121 4.5v-74q-43 -4 -77 -25.5 t-51.5 -46t-43.5 -71.5l-346 -586v-221v-64q0 -16 2 -51t7 -47t14 -34.5t23.5 -30t36 -17.5t50.5 -13q17 -2 38 -2q14 0 29 1v-74q-63 0 -192 4t-193 4q-55 0 -163.5 -4t-163.5 -4v74h10q124 0 155 47q32 49 33 186v25v180l-354 631q-45 76 -70.5 99.5t-101.5 39.5z M471 1431l230 250q2 2 20 22.5t26.5 28t26 21.5t31.5 20.5t29 6.5q33 0 55 -24t22 -56q0 -37 -79 -86l-50 -33l-245 -150h-66z" />
<glyph unicode="&#xde;" horiz-adv-x="1269" d="M31 -4v74q47 0 80.5 5t55 22.5t33 32.5t16.5 52t6 62.5t1 83.5v692q0 57 -1 82.5t-6 62.5t-16.5 52.5t-33 33t-55 22.5t-80.5 5v74q47 0 165.5 -4.5t172.5 -4.5q72 0 202.5 4.5t171.5 4.5v-74q-76 0 -118.5 -12.5t-62 -49t-22.5 -68.5t-3 -108q27 0 79 1t76 1 q98 0 184.5 -16t172.5 -54t136 -115t50 -185q0 -100 -47 -174t-126 -114t-164 -58.5t-177 -18.5h-184q0 -76 3 -107.5t22.5 -68.5t62.5 -49t118 -12v-74q-41 0 -172 4t-202 4q-53 0 -172 -4t-166 -4zM537 401h43q162 0 238.5 59.5t76.5 217.5q0 129 -63.5 199.5t-190.5 70.5 q-49 0 -72.5 -7t-27.5 -16.5t-4 -29.5v-494z" />
<glyph unicode="&#xdf;" horiz-adv-x="1818" d="M68 -8v338h73q23 -117 100.5 -193t190.5 -76q78 0 125 39t47 103q0 57 -54 98t-133 70.5t-157 66.5t-132 112t-54 183q0 131 99 215t257 84q133 0 246 -82l24 72h82l11 -303h-80q-53 125 -119 178t-162 53q-59 0 -96 -31.5t-37 -84.5q0 -61 56.5 -102.5t135 -72 t158.5 -68.5t136.5 -114t56.5 -186q0 -143 -107.5 -233.5t-298.5 -90.5q-150 0 -270 90l-23 -65h-75zM977 -8v338h74q23 -117 100.5 -193t189.5 -76q78 0 125 39t47 103q0 57 -54 98t-132 70.5t-156.5 66.5t-133 112t-54.5 183q0 131 99.5 215t256.5 84q133 0 246 -82l25 72 h82l10 -303h-80q-53 125 -118.5 178t-162.5 53q-59 0 -96 -31.5t-37 -84.5q0 -61 56.5 -102.5t135.5 -72t158.5 -68.5t136 -114t56.5 -186q0 -143 -107.5 -233.5t-297.5 -90.5q-150 0 -271 90l-22 -65h-76z" />
<glyph unicode="&#xe0;" d="M53 -4v65q68 8 108 50.5t83 140.5l344 772h98l344 -803q37 -88 67.5 -118.5t98.5 -41.5v-65q-2 0 -96 2t-190.5 2t-190.5 -2t-96 -2v65h51q78 0 78 48q0 27 -19 86l-26 84h-355l-22 -62q-20 -47 -21 -86q0 -35 26.5 -51.5t106.5 -18.5v-65q-14 0 -78.5 2t-115.5 2 t-116 -2t-79 -2zM387 360h289l-135 353zM414 1352q0 33 22.5 56.5t55.5 23.5q14 0 28.5 -6.5t31.5 -20.5t25.5 -21.5t27 -28t20.5 -22.5l229 -250h-66l-245 150l-49 33q-80 49 -80 86z" />
<glyph unicode="&#xe1;" d="M53 -4v65q68 8 108 50.5t83 140.5l344 772h98l344 -803q37 -88 67.5 -118.5t98.5 -41.5v-65q-2 0 -96 2t-190.5 2t-190.5 -2t-96 -2v65h51q78 0 78 48q0 27 -19 86l-26 84h-355l-22 -62q-20 -47 -21 -86q0 -35 26.5 -51.5t106.5 -18.5v-65q-14 0 -78.5 2t-115.5 2 t-116 -2t-79 -2zM387 360h289l-135 353zM414 1083l230 250q2 2 20 22.5t26.5 28t26 21.5t31.5 20.5t29 6.5q33 0 55 -24t22 -56q0 -37 -79 -86l-50 -33l-245 -150h-66z" />
<glyph unicode="&#xe2;" d="M53 -4v65q68 8 108 50.5t83 140.5l344 772h98l344 -803q37 -88 67.5 -118.5t98.5 -41.5v-65q-2 0 -96 2t-190.5 2t-190.5 -2t-96 -2v65h51q78 0 78 48q0 27 -19 86l-26 84h-355l-22 -62q-20 -47 -21 -86q0 -35 26.5 -51.5t106.5 -18.5v-65q-14 0 -78.5 2t-115.5 2 t-116 -2t-79 -2zM352 1083l203 338h127l205 -338h-66l-203 193l-198 -193h-68zM387 360h289l-135 353z" />
<glyph unicode="&#xe3;" d="M53 -4v65q68 8 108 50.5t83 140.5l344 772h98l344 -803q37 -88 67.5 -118.5t98.5 -41.5v-65q-2 0 -96 2t-190.5 2t-190.5 -2t-96 -2v65h51q78 0 78 48q0 27 -19 86l-26 84h-355l-22 -62q-20 -47 -21 -86q0 -35 26.5 -51.5t106.5 -18.5v-65q-14 0 -78.5 2t-115.5 2 t-116 -2t-79 -2zM352 1149q10 72 63.5 136.5t123.5 64.5q49 0 116 -31q92 -39 129 -39q29 0 52.5 21.5t31.5 50.5l50 -6q-12 -78 -60.5 -138.5t-120.5 -60.5q-41 0 -110 31q-104 35 -127 34q-78 0 -101 -69zM387 360h289l-135 353z" />
<glyph unicode="&#xe4;" d="M53 -4v65q68 8 108 50.5t83 140.5l344 772h98l344 -803q37 -88 67.5 -118.5t98.5 -41.5v-65q-2 0 -96 2t-190.5 2t-190.5 -2t-96 -2v65h51q78 0 78 48q0 27 -19 86l-26 84h-355l-22 -62q-20 -47 -21 -86q0 -35 26.5 -51.5t106.5 -18.5v-65q-14 0 -78.5 2t-115.5 2 t-116 -2t-79 -2zM387 360h289l-135 353zM352 1251q0 47 34 78t81 31q43 0 73.5 -32t30.5 -75q0 -47 -31.5 -79.5t-78.5 -32.5q-45 0 -77 31.5t-32 78.5zM688 1251q0 47 34 78t81 31q43 0 73.5 -32t30.5 -75q0 -47 -31.5 -79.5t-78.5 -32.5q-45 0 -77 31.5t-32 78.5z" />
<glyph unicode="&#xe5;" d="M53 -4v65q68 8 108 50.5t83 140.5l344 772h98l344 -803q37 -88 67.5 -118.5t98.5 -41.5v-65q-2 0 -96 2t-190.5 2t-190.5 -2t-96 -2v65h51q78 0 78 48q0 27 -19 86l-26 84h-355l-22 -62q-20 -47 -21 -86q0 -35 26.5 -51.5t106.5 -18.5v-65q-14 0 -78.5 2t-115.5 2 t-116 -2t-79 -2zM387 360h289l-135 353zM414 1251q0 88 63.5 145.5t151.5 57.5q86 0 145.5 -62.5t59.5 -148.5q0 -82 -63.5 -139t-147.5 -57q-86 0 -147.5 59t-61.5 145zM504 1255.5q0 -51.5 34 -89.5t85 -38q47 0 83 35t36 84t-31 88t-80 39q-51 0 -89 -33.5t-38 -85z" />
<glyph unicode="&#xe6;" horiz-adv-x="1593" d="M10 -4v65q29 2 47.5 9.5t40 36t30.5 44t42 76.5l266 498q74 139 74 168q0 45 -92 45h-47v66q221 -4 288 -5q160 0 459 2.5t342 2.5v-287h-65q-33 119 -94.5 162t-221.5 43q-80 0 -98 -9.5t-18 -42.5v-309h49q137 0 157 162h66v-393h-66q-20 150 -157 149h-49v-229 q0 -96 39.5 -134t152.5 -38q129 0 190.5 57.5t96.5 196.5h65v-336q-47 0 -283.5 2t-410.5 2q-166 0 -293 -4v65h37q63 0 85 31t22 129v176h-299l-86 -168q-37 -70 -37 -106q0 -61 104 -62v-65q-37 2 -166 2q-125 0 -170 -2zM406 479h258v443h-25z" />
<glyph unicode="&#xe7;" horiz-adv-x="1138" d="M70 494q0 240 147.5 389t374.5 149q164 0 328 -102l24 84h82l10 -340h-82q-29 109 -95 182.5t-181 73.5q-285 0 -285 -436q0 -205 78 -308.5t203 -103.5t197.5 80t95.5 194h90v-356h-90l-33 88q-152 -121 -361 -121h-6l-10 -80l37 2q68 0 114 -28.5t46 -91.5 q0 -61 -53.5 -97.5t-116.5 -36.5q-53 0 -105.5 25t-52.5 72q0 16 13.5 29.5t29.5 13.5q27 0 49.5 -42t69.5 -42q27 0 48 21.5t21 47.5q0 39 -35.5 58.5t-78.5 19.5q-10 0 -32 -3t-32 -3l19 141q-186 25 -307 163.5t-121 357.5z" />
<glyph unicode="&#xe8;" horiz-adv-x="1138" d="M66 -4v65h36q63 0 85 31t22 129v557q0 98 -21.5 129t-85.5 31h-36v66q127 -4 292 -5q193 0 400 2.5t248 2.5v-287h-66q-33 119 -94.5 162t-220.5 43q-80 0 -98.5 -9.5t-18.5 -42.5v-309h49q137 0 158 162h65v-393h-65q-20 150 -158 149h-49v-229q0 -96 40 -134t152 -38 q129 0 190.5 57.5t96.5 196.5h66v-336q-47 0 -284 2t-411 2q-165 0 -292 -4zM356 1352q0 33 22.5 56.5t55.5 23.5q14 0 28.5 -6.5t32 -20.5t25.5 -21.5t26.5 -28t20.5 -22.5l230 -250h-66l-246 150l-49 33q-80 49 -80 86z" />
<glyph unicode="&#xe9;" horiz-adv-x="1138" d="M66 -4v65h36q63 0 85 31t22 129v557q0 98 -21.5 129t-85.5 31h-36v66q127 -4 292 -5q193 0 400 2.5t248 2.5v-287h-66q-33 119 -94.5 162t-220.5 43q-80 0 -98.5 -9.5t-18.5 -42.5v-309h49q137 0 158 162h65v-393h-65q-20 150 -158 149h-49v-229q0 -96 40 -134t152 -38 q129 0 190.5 57.5t96.5 196.5h66v-336q-47 0 -284 2t-411 2q-165 0 -292 -4zM356 1083l230 250q2 2 20 22.5t26.5 28t26 21.5t31.5 20.5t29 6.5q33 0 55 -24t22 -56q0 -37 -79 -86l-50 -33l-245 -150h-66z" />
<glyph unicode="&#xea;" horiz-adv-x="1138" d="M66 -4v65h36q63 0 85 31t22 129v557q0 98 -21.5 129t-85.5 31h-36v66q127 -4 292 -5q193 0 400 2.5t248 2.5v-287h-66q-33 119 -94.5 162t-220.5 43q-80 0 -98.5 -9.5t-18.5 -42.5v-309h49q137 0 158 162h65v-393h-65q-20 150 -158 149h-49v-229q0 -96 40 -134t152 -38 q129 0 190.5 57.5t96.5 196.5h66v-336q-47 0 -284 2t-411 2q-165 0 -292 -4zM295 1083l203 338h127l204 -338h-65l-203 193l-199 -193h-67z" />
<glyph unicode="&#xeb;" horiz-adv-x="1138" d="M66 -4v65h36q63 0 85 31t22 129v557q0 98 -21.5 129t-85.5 31h-36v66q127 -4 292 -5q193 0 400 2.5t248 2.5v-287h-66q-33 119 -94.5 162t-220.5 43q-80 0 -98.5 -9.5t-18.5 -42.5v-309h49q137 0 158 162h65v-393h-65q-20 150 -158 149h-49v-229q0 -96 40 -134t152 -38 q129 0 190.5 57.5t96.5 196.5h66v-336q-47 0 -284 2t-411 2q-165 0 -292 -4zM295 1251q0 47 34 78t81 31q43 0 73.5 -32t30.5 -75q0 -47 -31.5 -79.5t-78.5 -32.5q-45 0 -77 31.5t-32 78.5zM631 1251q0 47 34 78t81 31q43 0 73.5 -32t30.5 -75q0 -47 -31.5 -79.5 t-78.5 -32.5q-45 0 -77 31.5t-32 78.5z" />
<glyph unicode="&#xec;" horiz-adv-x="681" d="M47 -4v65h37q63 0 84.5 31t21.5 129v557q0 98 -21.5 129t-84.5 31h-37v66q127 -4 293 -4.5t293 4.5v-66h-37q-63 0 -85 -30.5t-22 -129.5v-557q0 -98 21.5 -129t85.5 -31h37v-65q-127 4 -293 4t-293 -4zM104 1352q0 33 23 56.5t55 23.5q14 0 28.5 -6.5t32 -20.5 t25.5 -21.5t26.5 -28t20.5 -22.5l230 -250h-66l-246 150l-49 33q-80 49 -80 86z" />
<glyph unicode="&#xed;" horiz-adv-x="681" d="M47 -4v65h37q63 0 84.5 31t21.5 129v557q0 98 -21.5 129t-84.5 31h-37v66q127 -4 293 -4.5t293 4.5v-66h-37q-63 0 -85 -30.5t-22 -129.5v-557q0 -98 21.5 -129t85.5 -31h37v-65q-127 4 -293 4t-293 -4zM153 1083l230 250q2 2 20 22.5t26.5 28t26 21.5t31.5 20.5t29 6.5 q33 0 55 -24t22 -56q0 -37 -79 -86l-50 -33l-245 -150h-66z" />
<glyph unicode="&#xee;" horiz-adv-x="681" d="M47 -4v65h37q63 0 84.5 31t21.5 129v557q0 98 -21.5 129t-84.5 31h-37v66q127 -4 293 -4.5t293 4.5v-66h-37q-63 0 -85 -30.5t-22 -129.5v-557q0 -98 21.5 -129t85.5 -31h37v-65q-127 4 -293 4t-293 -4zM68 1083l202 338h127l205 -338h-65l-203 193l-199 -193h-67z" />
<glyph unicode="&#xef;" horiz-adv-x="681" d="M47 -4v65h37q63 0 84.5 31t21.5 129v557q0 98 -21.5 129t-84.5 31h-37v66q127 -4 293 -4.5t293 4.5v-66h-37q-63 0 -85 -30.5t-22 -129.5v-557q0 -98 21.5 -129t85.5 -31h37v-65q-127 4 -293 4t-293 -4zM67 1251q0 47 34 78t81 31q43 0 73.5 -32t30.5 -75 q0 -47 -31.5 -79.5t-78.5 -32.5q-45 0 -77 31.5t-32 78.5zM403 1251q0 47 34 78t81 31q43 0 73.5 -32t30.5 -75q0 -47 -31.5 -79.5t-78.5 -32.5q-45 0 -77 31.5t-32 78.5z" />
<glyph unicode="&#xf0;" d="M45 492v81h164v205q0 98 -21.5 129t-85.5 31h-36v66q127 -4 292 -5q39 0 126 2.5t134 2.5q258 0 415 -145.5t157 -360.5q0 -211 -140.5 -356.5t-383.5 -145.5q-35 0 -137.5 2t-170.5 2q-166 0 -292 -4v65h36q63 0 85 31t22 129v271h-164zM508 246q0 -96 33.5 -132 t107.5 -36q217 0 217 420q0 219 -64.5 321.5t-205.5 102.5q-53 0 -70.5 -11.5t-17.5 -52.5v-285h209v-81h-209v-246z" />
<glyph unicode="&#xf1;" d="M51 -4v65q80 0 113 44.5t33 158.5v578q-61 96 -146 96v66q119 -4 191 -5q80 0 182 5l541 -623v354q0 125 -33 164t-115 39v66q86 -4 193 -5q88 0 190 5v-66q-80 0 -112.5 -44t-32.5 -159v-768h-90l-678 776v-479q0 -125 32.5 -164t114.5 -39v-65q-86 4 -192 4 q-89 0 -191 -4zM352 1149q10 72 63.5 136.5t123.5 64.5q49 0 116 -31q92 -39 129 -39q29 0 52.5 21.5t31.5 50.5l49 -6q-12 -78 -60 -138.5t-120 -60.5q-41 0 -110 31q-104 35 -127 34q-78 0 -101 -69z" />
<glyph unicode="&#xf2;" d="M61 494q0 242 153 390t411 148q256 0 409.5 -146.5t153.5 -379.5q0 -242 -152.5 -390.5t-410.5 -148.5q-256 0 -410 147t-154 380zM385 494q0 -444 239.5 -444.5t239.5 456.5q0 444 -239.5 444.5t-239.5 -456.5zM414 1352q0 33 22.5 56.5t55.5 23.5q14 0 28.5 -6.5 t31.5 -20.5t25.5 -21.5t27 -28t20.5 -22.5l229 -250h-66l-245 150l-49 33q-80 49 -80 86z" />
<glyph unicode="&#xf3;" d="M61 494q0 242 153 390t411 148q256 0 409.5 -146.5t153.5 -379.5q0 -242 -152.5 -390.5t-410.5 -148.5q-256 0 -410 147t-154 380zM385 494q0 -444 239.5 -444.5t239.5 456.5q0 444 -239.5 444.5t-239.5 -456.5zM414 1083l230 250q2 2 20 22.5t26.5 28t26 21.5t31.5 20.5 t29 6.5q33 0 55 -24t22 -56q0 -37 -79 -86l-50 -33l-245 -150h-66z" />
<glyph unicode="&#xf4;" d="M61 494q0 242 153 390t411 148q256 0 409.5 -146.5t153.5 -379.5q0 -242 -152.5 -390.5t-410.5 -148.5q-256 0 -410 147t-154 380zM352 1083l203 338h127l205 -338h-66l-203 193l-198 -193h-68zM385 494q0 -444 239.5 -444.5t239.5 456.5q0 444 -239.5 444.5 t-239.5 -456.5z" />
<glyph unicode="&#xf5;" d="M61 494q0 242 153 390t411 148q256 0 409.5 -146.5t153.5 -379.5q0 -242 -152.5 -390.5t-410.5 -148.5q-256 0 -410 147t-154 380zM385 494q0 -444 239.5 -444.5t239.5 456.5q0 444 -239.5 444.5t-239.5 -456.5zM352 1149q10 72 63.5 136.5t123.5 64.5q49 0 116 -31 q92 -39 129 -39q29 0 52.5 21.5t31.5 50.5l49 -6q-12 -78 -60 -138.5t-120 -60.5q-41 0 -110 31q-104 35 -127 34q-78 0 -101 -69z" />
<glyph unicode="&#xf6;" d="M61 494q0 242 153 390t411 148q256 0 409.5 -146.5t153.5 -379.5q0 -242 -152.5 -390.5t-410.5 -148.5q-256 0 -410 147t-154 380zM385 494q0 -444 239.5 -444.5t239.5 456.5q0 444 -239.5 444.5t-239.5 -456.5zM352 1251q0 47 34 78t81 31q43 0 73.5 -32t30.5 -75 q0 -47 -31.5 -79.5t-78.5 -32.5q-45 0 -77 31.5t-32 78.5zM688 1251q0 47 34 78t81 31q43 0 73.5 -32t30.5 -75q0 -47 -31.5 -79.5t-78.5 -32.5q-45 0 -77 31.5t-32 78.5z" />
<glyph unicode="&#xf7;" horiz-adv-x="1064" d="M51 406v151h963v-151h-963zM424 110.5q0 47.5 34 78t81 30.5q43 0 73.5 -31.5t30.5 -74.5q0 -47 -31.5 -80t-79.5 -33q-45 0 -76.5 31.5t-31.5 79zM424 854q0 47 34 78t81 31q43 0 73.5 -32t30.5 -75q0 -47 -31.5 -80t-79.5 -33q-45 0 -76.5 32t-31.5 79z" />
<glyph unicode="&#xf8;" d="M61 494q0 242 153 390t411 148q135 0 239 -41l127 205h99l-150 -242q119 -66 183.5 -182.5t64.5 -265.5q0 -242 -152.5 -390.5t-410.5 -148.5q-150 0 -263 53l-133 -217h-98l158 256q-228 144 -228 435zM385 494q0 -143 27 -238l374 608q-57 86 -161 86q-240 1 -240 -456 zM449 160q57 -111 176 -111q240 0 239 457q0 172 -35 270z" />
<glyph unicode="&#xf9;" d="M45 938v66q119 -4 289 -5q166 0 293 5v-66h-37q-63 0 -85 -30.5t-22 -129.5v-424q0 -150 51.5 -211t176.5 -61q137 0 201.5 78t64.5 237v338q0 115 -33 159t-113 44v66q102 -4 191 -5q115 0 184 5v-66q-76 0 -107.5 -39t-31.5 -164v-299q0 -246 -101.5 -357.5 t-332.5 -111.5q-238 0 -343.5 98.5t-105.5 329.5v383q0 98 -21.5 129t-84.5 31h-33zM414 1352q0 33 22.5 56.5t55.5 23.5q14 0 28.5 -6.5t31.5 -20.5t25.5 -21.5t27 -28t20.5 -22.5l229 -250h-66l-245 150l-49 33q-80 49 -80 86z" />
<glyph unicode="&#xfa;" d="M45 938v66q119 -4 289 -5q166 0 293 5v-66h-37q-63 0 -85 -30.5t-22 -129.5v-424q0 -150 51.5 -211t176.5 -61q137 0 201.5 78t64.5 237v338q0 115 -33 159t-113 44v66q102 -4 191 -5q115 0 184 5v-66q-76 0 -107.5 -39t-31.5 -164v-299q0 -246 -101.5 -357.5 t-332.5 -111.5q-238 0 -343.5 98.5t-105.5 329.5v383q0 98 -21.5 129t-84.5 31h-33zM414 1083l230 250q2 2 20 22.5t26.5 28t26 21.5t31.5 20.5t29 6.5q33 0 55 -24t22 -56q0 -37 -79 -86l-50 -33l-245 -150h-66z" />
<glyph unicode="&#xfb;" d="M45 938v66q119 -4 289 -5q166 0 293 5v-66h-37q-63 0 -85 -30.5t-22 -129.5v-424q0 -150 51.5 -211t176.5 -61q137 0 201.5 78t64.5 237v338q0 115 -33 159t-113 44v66q102 -4 191 -5q115 0 184 5v-66q-76 0 -107.5 -39t-31.5 -164v-299q0 -246 -101.5 -357.5 t-332.5 -111.5q-238 0 -343.5 98.5t-105.5 329.5v383q0 98 -21.5 129t-84.5 31h-33zM352 1083l203 338h127l205 -338h-66l-203 193l-198 -193h-68z" />
<glyph unicode="&#xfc;" d="M45 938v66q119 -4 289 -5q166 0 293 5v-66h-37q-63 0 -85 -30.5t-22 -129.5v-424q0 -150 51.5 -211t176.5 -61q137 0 201.5 78t64.5 237v338q0 115 -33 159t-113 44v66q102 -4 191 -5q115 0 184 5v-66q-76 0 -107.5 -39t-31.5 -164v-299q0 -246 -101.5 -357.5 t-332.5 -111.5q-238 0 -343.5 98.5t-105.5 329.5v383q0 98 -21.5 129t-84.5 31h-33zM352 1251q0 47 34 78t81 31q43 0 73.5 -32t30.5 -75q0 -47 -31.5 -79.5t-78.5 -32.5q-45 0 -77 31.5t-32 78.5zM688 1251q0 47 34 78t81 31q43 0 73.5 -32t30.5 -75q0 -47 -31.5 -79.5 t-78.5 -32.5q-45 0 -77 31.5t-32 78.5z" />
<glyph unicode="&#xfd;" horiz-adv-x="1138" d="M39 938v66q147 -4 276 -5q172 0 263 5v-66h-41q-78 0 -78 -51q0 -35 43 -107l162 -278l135 213q63 98 63 155q0 41 -27.5 54.5t-89.5 13.5v66q123 -4 193 -5q43 0 162 5v-66q-49 -2 -74 -28.5t-88 -131.5l-219 -364v-193q0 -98 21.5 -129t84.5 -31h37v-65q-127 4 -293 4 t-293 -4v65h37q63 0 85 31t22 129v162l-240 428q-47 82 -67.5 101.5t-73.5 25.5zM356 1083l230 250q2 2 20 22.5t26.5 28t26 21.5t31.5 20.5t29 6.5q33 0 55 -24t22 -56q0 -37 -79 -86l-50 -33l-245 -150h-66z" />
<glyph unicode="&#xfe;" horiz-adv-x="1138" d="M66 -4v65h36q63 0 85 31t22 129v557q0 98 -21.5 129t-85.5 31h-36v66q127 -4 292.5 -4.5t292.5 4.5v-66h-37q-63 0 -84.5 -27.5t-21.5 -115.5q29 0 156 4q190 4 299.5 -63.5t109.5 -207.5q0 -279 -440 -278q-43 0 -125 8v-37q0 -98 21.5 -129t84.5 -31h37v-65 q-127 4 -292.5 4t-292.5 -4zM508 332h70q197 0 196 200q0 184 -194 185q-43 0 -57.5 -12.5t-14.5 -42.5v-330z" />
<glyph unicode="&#xff;" horiz-adv-x="1138" d="M39 938v66q147 -4 276 -5q172 0 263 5v-66h-41q-78 0 -78 -51q0 -35 43 -107l162 -278l135 213q63 98 63 155q0 41 -27.5 54.5t-89.5 13.5v66q123 -4 193 -5q43 0 162 5v-66q-49 -2 -74 -28.5t-88 -131.5l-219 -364v-193q0 -98 21.5 -129t84.5 -31h37v-65q-127 4 -293 4 t-293 -4v65h37q63 0 85 31t22 129v162l-240 428q-47 82 -67.5 101.5t-73.5 25.5zM295 1251q0 47 33.5 78t81.5 31q43 0 73.5 -32t30.5 -75q0 -47 -31.5 -79.5t-79.5 -32.5q-45 0 -76.5 31.5t-31.5 78.5zM631 1251q0 47 33.5 78t80.5 31q43 0 74 -32t31 -75q0 -47 -32 -79.5 t-79 -32.5q-45 0 -76.5 31.5t-31.5 78.5z" />
<glyph unicode="&#x131;" horiz-adv-x="681" d="M47 -4v65h37q63 0 84.5 31t21.5 129v557q0 98 -21.5 129t-84.5 31h-37v66q127 -4 293 -4.5t293 4.5v-66h-37q-63 0 -85 -30.5t-22 -129.5v-557q0 -98 21.5 -129t85.5 -31h37v-65q-127 4 -293 4t-293 -4z" />
<glyph unicode="&#x152;" horiz-adv-x="2048" d="M86 637q0 313 183.5 516t492.5 199q78 0 229.5 -4.5t229.5 -4.5q115 0 346 4.5t348 4.5v-351h-82q-29 160 -120 210.5t-261 45.5h-31h-24q-6 0 -16.5 -2t-13.5 -2t-8 -6t-5 -10t-2 -15.5t-2 -19.5v-28v-431q137 0 188 43t72 177h82q0 -47 -4.5 -141.5t-4.5 -141.5 q0 -41 4.5 -127t4.5 -127h-82q-20 137 -71.5 180t-188.5 43v-270q0 -86 5 -128t25.5 -85t67.5 -59.5t129 -16.5q162 0 238.5 69.5t107.5 235.5h82l-10 -399q-135 0 -405.5 2t-405.5 2q-70 0 -211.5 -2t-210.5 -2q-315 -18 -481 143q-195 189 -195 498zM440 690 q0 -600 355 -600q100 0 152 23.5t77 103.5q18 78 12 279v362q0 229 -26 301q-27 61 -83.5 79.5t-140.5 18.5q-90 0 -155.5 -37.5t-101 -92t-57 -136.5t-27 -149.5t-5.5 -151.5z" />
<glyph unicode="&#x153;" horiz-adv-x="1705" d="M25 499.5q0 225.5 159.5 370t462.5 144.5q16 0 182 -6q111 -8 181 -9q184 0 373.5 2.5t215.5 2.5v-287h-65q-33 117 -91.5 159t-203.5 42q-80 0 -98.5 -9.5t-18.5 -42.5v-305h49q137 0 158 162h66v-393h-66q-20 150 -158 149h-49v-225q0 -96 40 -134t153 -38 q127 0 178 54t88 196h66v-336q-27 0 -240 2t-397 2q-14 0 -181 -6q-111 -8 -182 -8q-303 0 -462.5 144t-159.5 369.5zM348 500q0 -432 285 -432q102 0 146 41t44 143v496q0 102 -44 143t-146 41q-285 0 -285 -432z" />
<glyph unicode="&#x178;" horiz-adv-x="1269" d="M-43 1278v74q51 0 154.5 -4.5t154.5 -4.5q57 0 174 4.5t176 4.5v-74q-31 -2 -49 -5t-46.5 -11.5t-43 -26.5t-14.5 -45q0 -37 74 -170l204 -371l197 330q78 143 78 197q0 102 -150 102v74q35 0 103.5 -4.5t103.5 -4.5q41 0 121 4.5t121 4.5v-74q-43 -4 -77 -25.5 t-51.5 -46t-43.5 -71.5l-346 -586v-221v-64q0 -16 2 -51t7 -47t14 -34.5t23.5 -30t36 -17.5t50 -13t67.5 -1v-74q-63 0 -192 4t-193 4q-55 0 -163.5 -4t-163.5 -4v74q133 -2 164.5 47t33.5 186v25v180l-354 631q-45 76 -70.5 99.5t-101.5 39.5zM360 1599.5q0 47.5 34 78 t81 30.5q43 0 74 -31.5t31 -74.5q0 -47 -32 -80t-79 -33q-45 0 -77 31.5t-32 79zM696 1599.5q0 47.5 34 78t81 30.5q43 0 73.5 -31.5t30.5 -74.5q0 -47 -31.5 -80t-78.5 -33q-45 0 -77 31.5t-32 79z" />
<glyph unicode="&#x192;" horiz-adv-x="1064" d="M-66 -213q0 47 33 80t78 33q43 0 67.5 -27t31 -58.5t19.5 -58t38 -26.5q82 0 125 336q10 70 26.5 207t26.5 204l65 379h-180l23 82h176q61 258 119 356q131 217 360 217q72 0 131.5 -33.5t59.5 -99.5q0 -47 -33 -78.5t-80 -31.5q-39 0 -62.5 25.5t-31.5 55t-23.5 55.5 t-38.5 26q-37 0 -61 -72l-78 -420h209l-25 -82h-194l-185 -850q-33 -147 -143.5 -252.5t-257.5 -105.5q-74 0 -134.5 35.5t-60.5 103.5z" />
<glyph unicode="&#x2c6;" horiz-adv-x="819" d="M135 1083l203 338h127l205 -338h-66l-203 193l-198 -193h-68z" />
<glyph unicode="&#x2da;" horiz-adv-x="696" d="M135 1251q0 88 63.5 145.5t151.5 57.5q86 0 145.5 -62.5t59.5 -148.5q0 -82 -63.5 -139t-147.5 -57q-86 0 -147.5 59t-61.5 145zM225 1255.5q0 -51.5 34 -89.5t85 -38q47 0 83 35t36 84t-31 88t-80 39q-51 0 -89 -33.5t-38 -85z" />
<glyph unicode="&#x2dc;" horiz-adv-x="819" d="M135 1149q10 72 63.5 136.5t123.5 64.5q49 0 116 -31q92 -39 129 -39q29 0 52.5 21.5t31.5 50.5l49 -6q-12 -78 -60 -138.5t-120 -60.5q-41 0 -110 31q-104 35 -127 34q-78 0 -101 -69z" />
<glyph unicode="&#x2000;" horiz-adv-x="1024" />
<glyph unicode="&#x2001;" horiz-adv-x="2048" />
<glyph unicode="&#x2002;" horiz-adv-x="1024" />
<glyph unicode="&#x2003;" horiz-adv-x="2048" />
<glyph unicode="&#x2004;" horiz-adv-x="681" />
<glyph unicode="&#x2005;" horiz-adv-x="512" />
<glyph unicode="&#x2006;" horiz-adv-x="339" />
<glyph unicode="&#x2007;" horiz-adv-x="1138" />
<glyph unicode="&#x2008;" horiz-adv-x="573" />
<glyph unicode="&#x2009;" horiz-adv-x="204" />
<glyph unicode="&#x200a;" horiz-adv-x="20" />
<glyph unicode="&#x200b;" horiz-adv-x="0" />
<glyph unicode="&#x200c;" horiz-adv-x="0" />
<glyph unicode="&#x200d;" horiz-adv-x="0" />
<glyph unicode="&#x200e;" horiz-adv-x="681" />
<glyph unicode="&#x200f;" horiz-adv-x="681" />
<glyph unicode="&#x2010;" horiz-adv-x="819" d="M205 512v205h409v-205h-409z" />
<glyph unicode="&#x2011;" horiz-adv-x="819" d="M205 512v205h409v-205h-409z" />
<glyph unicode="&#x2012;" horiz-adv-x="1138" d="M205 512v205h729v-205h-729z" />
<glyph unicode="&#x2013;" horiz-adv-x="1138" d="M0 367v151h1139v-151h-1139z" />
<glyph unicode="&#x2014;" horiz-adv-x="2048" d="M256 367v151h1536v-151h-1536z" />
<glyph unicode="&#x2015;" horiz-adv-x="4096" d="M205 512v205h3686v-205h-3686z" />
<glyph unicode="&#x2016;" horiz-adv-x="901" d="M601 0v1384h151v-1384h-151zM150 0v1384h151v-1384h-151z" />
<glyph unicode="&#x2018;" horiz-adv-x="532" d="M84 983q0 33 6 63.5t10 53t22.5 50.5t26 42t37 38.5t35.5 33t45 33t43 28.5t50.5 30.5t48.5 28.5l28 -57q-74 -49 -115.5 -83t-79.5 -97.5t-36 -134.5q47 37 100 37q66 0 105 -40t39 -105.5t-44.5 -110.5t-111.5 -45q-96 0 -152.5 68.5t-56.5 166.5z" />
<glyph unicode="&#x2019;" horiz-adv-x="532" d="M84 1228.5q0 65.5 44 110.5t112 45q96 0 152.5 -69.5t56.5 -167.5q0 -76 -20.5 -132.5t-74 -106.5t-86 -72.5t-116.5 -71.5q-18 -10 -27 -16l-29 57q109 70 171.5 141.5t60.5 173.5q-47 -37 -101 -37q-66 0 -104.5 40t-38.5 105.5z" />
<glyph unicode="&#x201a;" horiz-adv-x="532" d="M84 133.5q0 65.5 44 110.5t112 45q96 0 152.5 -69.5t56.5 -168.5q0 -76 -20.5 -132t-74 -106.5t-86 -73t-116.5 -71.5q-18 -10 -27 -16l-29 57q109 70 171.5 141.5t60.5 174.5q-47 -37 -101 -37q-66 0 -104.5 40t-38.5 105.5z" />
<glyph unicode="&#x201c;" horiz-adv-x="1024" d="M100 983q0 33 6.5 63.5t10.5 53t22.5 50.5t25.5 42t36.5 38.5t36 33t45.5 33t43 28.5t50 30.5t48 28.5l29 -57q-74 -49 -116 -83t-80 -97.5t-36 -134.5q47 37 101 37q66 0 104.5 -40t38.5 -105.5t-44 -110.5t-112 -45q-96 0 -152.5 68.5t-56.5 166.5zM559 983 q0 33 6 63.5t10.5 53t22.5 50.5t25.5 42t37 38.5t35.5 33t45 33t43 28.5t50.5 30.5t48.5 28.5l28 -57q-74 -49 -115.5 -83t-79.5 -97.5t-36 -134.5q47 37 100 37q66 0 105 -40t39 -105.5t-44 -110.5t-112 -45q-96 0 -152.5 68.5t-56.5 166.5z" />
<glyph unicode="&#x201d;" horiz-adv-x="1024" d="M100 1228.5q0 65.5 44 110.5t112 45q96 0 152.5 -69.5t56.5 -167.5q0 -76 -20.5 -132.5t-74 -106.5t-86 -72.5t-116.5 -71.5q-18 -10 -27 -16l-28 57q109 70 171 141.5t60 173.5q-47 -37 -100 -37q-66 0 -105 40t-39 105.5zM559 1228.5q0 65.5 44 110.5t112 45 q96 0 152.5 -69.5t56.5 -167.5q0 -76 -20.5 -132.5t-74 -106.5t-86 -72.5t-116.5 -71.5q-18 -10 -27 -16l-29 57q109 70 171.5 141.5t60.5 173.5q-47 -37 -101 -37q-66 0 -104.5 40t-38.5 105.5z" />
<glyph unicode="&#x201e;" horiz-adv-x="1024" d="M100 131q0 68 44 112t112 44q96 0 148.5 -67.5t52.5 -168.5q0 -129 -86 -237q-57 -68 -219 -156l-11 -6l-28 57l6 4q109 70 168 139.5t57 172.5q-45 -39 -100 -39q-66 0 -105 39.5t-39 105.5zM567 131q0 68 44 112t112 44q96 0 148.5 -67.5t52.5 -168.5q0 -133 -86 -237 q-57 -68 -220 -156l-10 -6l-28 57l6 4q109 70 168 139.5t57 172.5q-45 -39 -100 -39q-66 0 -105 39.5t-39 105.5z" />
<glyph unicode="&#x2020;" horiz-adv-x="1064" d="M72 823q0 31 18.5 53.5t48.5 22.5q29 0 45.5 -17.5t16.5 -43.5q0 -10 -4 -25.5t-4 -21.5q0 -14 14 -15q8 0 16 7.5t13.5 13.5t11.5 18t8 14q31 59 55 72q14 6 33 6q35 0 64.5 -23.5t49 -47t29.5 -23.5q18 0 19 16q0 8 -39 82t-39 133q0 70 47 125l10 11q8 8 14.5 16 t6.5 14.5t-25 30.5q-41 33 -41 66q0 35 28 56t64.5 21t64.5 -21.5t28 -55.5q0 -33 -35 -62q-29 -29 -29 -35q0 -2 23 -32q53 -61 53 -134q0 -59 -39 -133.5t-39 -79.5q0 -18 16 -18q10 0 55.5 47t90.5 47q49 0 84 -69q0 -2 6 -13.5t10 -16.5t10.5 -14.5t13.5 -13.5t13 -4 q14 0 14 17q0 6 -4 20t-4 25q0 27 17.5 44t44.5 17q31 0 50 -22.5t19 -53.5q0 -43 -28.5 -74.5t-69.5 -31.5q-53 0 -106 35q-57 33 -86 32q-33 0 -68 -21.5t-51 -51.5l84 -76q-47 -166 -78 -473l-35 -613h-47l-35 613q-31 307 -78 473l82 76q-16 31 -50 52t-69 21 q-29 0 -86 -33.5t-106 -33.5q-41 0 -68.5 31.5t-27.5 74.5z" />
<glyph unicode="&#x2021;" horiz-adv-x="1064" d="M121 -84q0 39 23.5 68.5t62.5 29.5q49 0 115 -34q74 -35 118 -35q25 0 45 10l-67 72q23 72 50.5 210t43.5 197h41q16 -59 44 -197.5t50 -209.5l-67 -72q18 -10 43 -10q47 0 120 35q70 35 111 34.5t66.5 -29t25.5 -69.5q0 -35 -18.5 -57.5t-50.5 -22.5q-25 0 -43.5 17.5 t-18.5 42.5q0 6 3 18t3 18q0 18 -14 19q-18 0 -37 -43q-31 -72 -86 -72q-14 0 -63 17q-4 -76 -39 -121q0 -2 -10.5 -16.5t-10.5 -18.5q0 -8 19 -19q35 -25 34 -59q0 -31 -25.5 -50.5t-56.5 -19.5q-33 0 -57 19.5t-24 50.5q0 35 32 55q18 18 19 23q0 8 -21 35q-33 47 -37 121 q-49 -16 -63 -17q-57 0 -84 68q-2 2 -7 12l-8 16q-3 6 -10.5 11.5t-13.5 5.5q-14 0 -14 -19q0 -4 3 -16t3 -18q0 -25 -18.5 -42.5t-43.5 -17.5q-67 0 -67 80zM121 1018q0 80 67 80q25 0 43.5 -17.5t18.5 -42.5q0 -6 -3 -18t-3 -19q0 -18 14 -18q6 0 13.5 5t10.5 10.5t7 15.5 t6 12q31 72 86 72q8 0 63 -19q4 76 37 123q20 31 21 35q0 10 -17 18q-35 25 -34 60q0 31 24.5 50t56.5 19q31 0 56.5 -19t25.5 -50q0 -35 -32 -58q-20 -14 -20.5 -20t9.5 -20l11 -15q35 -47 39 -123q55 18 63 19q57 0 84 -68q2 -2 7 -12l8 -17q3 -6 10.5 -12t13.5 -6 q14 0 14 18q0 6 -3 18.5t-3 18.5q0 25 18.5 42.5t43.5 17.5q33 0 51 -22.5t18 -57.5q0 -39 -24.5 -69.5t-63.5 -30.5q-45 0 -115 36q-78 35 -120 35q-23 0 -43 -10l67 -72q-23 -72 -50.5 -210t-43.5 -197h-41q-16 59 -44 197.5t-50 209.5l67 72q-18 10 -43 10 q-47 0 -120 -35q-70 -37 -111 -36.5t-65.5 30t-24.5 70.5z" />
<glyph unicode="&#x2022;" horiz-adv-x="716" d="M23 671.5q0 139.5 98 237t239 97.5q135 0 234.5 -95.5t99.5 -232.5q0 -141 -96 -242.5t-237.5 -101.5t-239.5 99t-98 238.5z" />
<glyph unicode="&#x2024;" horiz-adv-x="573" d="M121 153.5q0 69.5 48 116.5t118 47q68 0 117 -47t49 -114q0 -70 -48.5 -120t-118 -50t-117.5 49t-48 118.5z" />
<glyph unicode="&#x2025;" horiz-adv-x="1146" d="M694 153.5q0 69.5 48 116.5t118 47q68 0 117 -47t49 -114q0 -70 -48.5 -120t-118 -50t-117.5 49t-48 118.5zM121 153.5q0 69.5 48 116.5t118 47q68 0 117 -47t49 -114q0 -70 -48.5 -120t-118 -50t-117.5 49t-48 118.5z" />
<glyph unicode="&#x2026;" horiz-adv-x="2048" d="M174 153.5q0 69.5 48 116.5t118 47q68 0 117 -47t49 -114q0 -70 -48 -120t-118 -50t-118 49t-48 118.5zM856 153.5q0 69.5 48 116.5t118 47q68 0 117 -47t49 -114q0 -70 -48 -120t-118 -50t-118 49t-48 118.5zM1538 154q0 68 49 115.5t117 47.5t117 -47t49 -114 q0 -70 -48 -120t-118 -50q-68 0 -117 49t-49 119z" />
<glyph unicode="&#x202a;" horiz-adv-x="0" />
<glyph unicode="&#x202f;" horiz-adv-x="360" />
<glyph unicode="&#x2030;" horiz-adv-x="2580" d="M147 1010q0 172 119 321.5t287 149.5q94 0 162 -43l98 -62q72 -43 154 -43q207 0 372 203h76l-983 -1628h-108l858 1415l-4 4q-102 -51 -195 -51q-63 0 -156 27q18 -63 19 -111q0 -117 -44 -226.5t-136.5 -186.5t-210.5 -77q-129 0 -218.5 90.5t-89.5 217.5zM389 940 q0 -59 32 -107.5t89 -48.5q74 0 135.5 78t90 170t28.5 162q0 43 -8 86t-37 81t-72 38q-78 0 -140.5 -89t-90 -191.5t-27.5 -178.5zM932 268q0 180 124 319.5t302 139.5q127 0 198.5 -73.5t71.5 -198.5q0 -190 -107.5 -346t-287.5 -156q-133 0 -217 91t-84 224zM1176.5 213 q-7.5 -74 19.5 -126t90 -52q78 0 141.5 80t91 175t27.5 171q0 70 -28.5 127t-90 57t-112.5 -59.5t-84 -132.5q-16 -41 -31.5 -103.5t-23 -136.5zM1739 268q0 180 124 319.5t302 139.5q125 0 197.5 -73.5t72.5 -198.5q0 -121 -44 -232.5t-137 -190.5t-216 -79q-131 0 -215 92 t-84 223zM1982.5 213q-8.5 -74 18.5 -126t90 -52q78 0 141.5 80t92 175t28.5 171q0 68 -28.5 126t-90 58t-112.5 -59.5t-84 -132.5q-16 -39 -31.5 -102.5t-24 -137.5z" />
<glyph unicode="&#x2032;" horiz-adv-x="569" d="M147 1221q-10 55 33 109t104.5 54t104.5 -54t33 -109l-90 -490h-94z" />
<glyph unicode="&#x2033;" horiz-adv-x="1138" d="M716 1221q-10 55 33 109t104.5 54t104.5 -54t33 -109l-90 -490h-94zM147 1221q-10 55 33 109t104.5 54t104.5 -54t33 -109l-90 -490h-94z" />
<glyph unicode="&#x2034;" horiz-adv-x="1708" d="M1286 1221q-10 55 33 109t104.5 54t104.5 -54t33 -109l-90 -490h-94zM716 1221q-10 55 33 109t104.5 54t104.5 -54t33 -109l-90 -490h-94zM147 1221q-10 55 33 109t104.5 54t104.5 -54t33 -109l-90 -490h-94z" />
<glyph unicode="&#x2035;" horiz-adv-x="696" d="M135 1352q0 33 22.5 56.5t55.5 23.5q14 0 28.5 -6.5t32 -20.5t25.5 -21.5t26.5 -28t20.5 -22.5l229 -250h-65l-246 150l-49 33q-80 49 -80 86z" />
<glyph unicode="&#x2036;" horiz-adv-x="1392" d="M831 1352q0 33 22.5 56.5t55.5 23.5q14 0 28.5 -6.5t32 -20.5t25.5 -21.5t26.5 -28t20.5 -22.5l229 -250h-65l-246 150l-49 33q-80 49 -80 86zM135 1352q0 33 22.5 56.5t55.5 23.5q14 0 28.5 -6.5t32 -20.5t25.5 -21.5t26.5 -28t20.5 -22.5l229 -250h-65l-246 150l-49 33 q-80 49 -80 86z" />
<glyph unicode="&#x2037;" horiz-adv-x="2088" d="M1528 1352q0 33 22.5 56.5t55.5 23.5q14 0 28.5 -6.5t32 -20.5t25.5 -21.5t26.5 -28t20.5 -22.5l229 -250h-65l-246 150l-49 33q-80 49 -80 86zM831 1352q0 33 22.5 56.5t55.5 23.5q14 0 28.5 -6.5t32 -20.5t25.5 -21.5t26.5 -28t20.5 -22.5l229 -250h-65l-246 150 l-49 33q-80 49 -80 86zM135 1352q0 33 22.5 56.5t55.5 23.5q14 0 28.5 -6.5t32 -20.5t25.5 -21.5t26.5 -28t20.5 -22.5l229 -250h-65l-246 150l-49 33q-80 49 -80 86z" />
<glyph unicode="&#x2039;" horiz-adv-x="614" d="M121 444q0 4 6 10.5t14 12.5l9 6l147 121q10 10 64.5 58t82 70.5t35.5 22.5q14 0 15 -14q0 -18 -89.5 -147t-101.5 -142q18 -23 103.5 -148.5t85.5 -142t-19 -16.5q-6 0 -174 154l-135 114q-43 29 -43 41z" />
<glyph unicode="&#x203a;" horiz-adv-x="614" d="M121 737q0 14 14 15q8 0 36 -22.5t82 -71t64 -58.5l148 -121l8 -6q8 -6 14.5 -12t6.5 -10q0 -12 -43 -41l-136 -115q-168 -154 -174 -154q-18 0 -18 16.5t85 142.5t103 149q-12 12 -101 141t-89 147z" />
<glyph unicode="&#x203c;" horiz-adv-x="1474" d="M940 153.5q0 69.5 48 116.5t118 47q68 0 117 -47t49 -114q0 -70 -48.5 -120t-118 -50t-117.5 49t-48 118.5zM950 1196q0 72 43 130t113 58q72 0 114.5 -57t42.5 -131q0 -70 -24 -154l-39 -153q-51 -197 -51 -457h-82q0 260 -51 457l-39 153q-27 93 -27 154zM203 153.5 q0 69.5 48 116.5t118 47q68 0 117 -47t49 -114q0 -70 -48.5 -120t-118 -50t-117.5 49t-48 118.5zM213 1196q0 72 43 130t113 58q72 0 114.5 -57t42.5 -131q0 -70 -24 -154l-39 -153q-51 -197 -51 -457h-82q0 260 -51 457l-39 153q-27 93 -27 154z" />
<glyph unicode="&#x2044;" horiz-adv-x="286" d="M-401 0l985 1348h106l-983 -1348h-108z" />
<glyph unicode="&#x2215;" horiz-adv-x="286" d="M-401 0l985 1348h106l-983 -1348h-108z" />
<glyph unicode="&#x2047;" horiz-adv-x="1638" d="M901 1257q0 57 49 84t113 27q193 0 343 -149.5t150 -341.5q0 -145 -100 -220t-250 -75q-14 0 -41 1t-41 1v-168h-82v409q117 -6 129 -6q264 0 264 162q0 78 -49 137.5t-127 59.5q-37 0 -107.5 -15.5t-107.5 -15.5q-55 0 -99 28.5t-44 81.5zM928 153.5q0 69.5 48 116.5 t117 47q68 0 117 -47t49 -114q0 -70 -48 -120t-117.5 -50t-117.5 49t-48 118.5zM82 1257q0 57 49 84t113 27q193 0 343 -149.5t150 -341.5q0 -145 -100 -220t-250 -75q-14 0 -41 1t-41 1v-168h-82v409q117 -6 129 -6q264 0 264 162q0 78 -49 137.5t-127 59.5 q-37 0 -107.5 -15.5t-107.5 -15.5q-55 0 -99 28.5t-44 81.5zM109 153.5q0 69.5 48 116.5t117 47q68 0 117 -47t49 -114q0 -70 -48 -120t-117.5 -50t-117.5 49t-48 118.5z" />
<glyph unicode="&#x2048;" horiz-adv-x="1556" d="M1022 153.5q0 69.5 48 116.5t118 47q68 0 117 -47t49 -114q0 -70 -48.5 -120t-118 -50t-117.5 49t-48 118.5zM1032 1196q0 72 43 130t113 58q72 0 114.5 -57t42.5 -131q0 -70 -24 -154l-39 -153q-51 -197 -51 -457h-82q0 260 -51 457l-39 153q-27 93 -27 154zM82 1257 q0 57 49 84t113 27q193 0 343 -149.5t150 -341.5q0 -145 -100 -220t-250 -75q-14 0 -41 1t-41 1v-168h-82v409q117 -6 129 -6q264 0 264 162q0 78 -49 137.5t-127 59.5q-37 0 -107.5 -15.5t-107.5 -15.5q-55 0 -99 28.5t-44 81.5zM109 153.5q0 69.5 48 116.5t117 47 q68 0 117 -47t49 -114q0 -70 -48 -120t-117.5 -50t-117.5 49t-48 118.5z" />
<glyph unicode="&#x2049;" horiz-adv-x="1556" d="M819 1257q0 57 49 84t113 27q193 0 343 -149.5t150 -341.5q0 -145 -100 -220t-250 -75q-14 0 -41 1t-41 1v-168h-82v409q117 -6 129 -6q264 0 264 162q0 78 -49 137.5t-127 59.5q-37 0 -107.5 -15.5t-107.5 -15.5q-55 0 -99 28.5t-44 81.5zM846 153.5q0 69.5 48 116.5 t117 47q68 0 117 -47t49 -114q0 -70 -48 -120t-117.5 -50t-117.5 49t-48 118.5zM203 153.5q0 69.5 48 116.5t118 47q68 0 117 -47t49 -114q0 -70 -48.5 -120t-118 -50t-117.5 49t-48 118.5zM213 1196q0 72 43 130t113 58q72 0 114.5 -57t42.5 -131q0 -70 -24 -154l-39 -153 q-51 -197 -51 -457h-82q0 260 -51 457l-39 153q-27 93 -27 154z" />
<glyph unicode="&#x2057;" horiz-adv-x="2277" d="M1855 1221q-10 55 33 109t104.5 54t104.5 -54t33 -109l-90 -490h-94zM1286 1221q-10 55 33 109t104.5 54t104.5 -54t33 -109l-90 -490h-94zM716 1221q-10 55 33 109t104.5 54t104.5 -54t33 -109l-90 -490h-94zM147 1221q-10 55 33 109t104.5 54t104.5 -54t33 -109 l-90 -490h-94z" />
<glyph unicode="&#x205f;" horiz-adv-x="450" />
<glyph unicode="&#x2060;" horiz-adv-x="0" />
<glyph unicode="&#x20a8;" horiz-adv-x="2342" d="M1502 -8v338h73q23 -117 100.5 -193t190.5 -76q78 0 125 39t47 103q0 57 -54 98t-133 70.5t-157 66.5t-132 112t-54 183q0 131 99 215t257 84q133 0 246 -82l24 72h82l11 -303h-80q-53 125 -119 178t-162 53q-59 0 -96 -31.5t-37 -84.5q0 -61 56.5 -102.5t135 -72 t158.5 -68.5t136.5 -114t56.5 -186q0 -143 -107.5 -233.5t-298.5 -90.5q-150 0 -270 90l-23 -65h-75zM31 -4v74q8 0 16 -1q47 0 79 11q38 12 57.5 27.5t28.5 57.5t10 68.5t1 94.5v692q0 68 -1 94.5t-10 68.5t-28.5 57t-57.5 28q-32 11 -79 10h-16v74q59 0 173.5 -4.5 t174.5 -4.5q55 0 165.5 4.5t166.5 4.5q248 -10 338 -49q203 -82 202 -308q0 -129 -93 -216t-228 -107l280 -350q106 -147 138 -181q53 -55 131 -71v-74q-33 0 -100.5 4t-102.5 4t-102.5 -4t-100.5 -4l-291 412q-138 193 -210 192h-3q-4 0 -16 -1t-16 -1v-270q0 -55 1 -79 t6 -63t16 -54t32.5 -33.5t55.5 -24.5q25 -5 60 -5q11 0 23 1v-74q-59 0 -176 4t-176.5 4t-174 -4t-173.5 -4zM537 694h77q152 0 224.5 64.5t72.5 214.5q0 143 -64.5 213.5t-205.5 70.5q-92 0 -98 -22.5t-6 -190.5v-350z" />
<glyph unicode="&#x2122;" horiz-adv-x="2048" d="M61 1126v217h789v-217h-72q0 82 -33.5 113t-117.5 31h-88v-608q4 -63 21.5 -77t105.5 -14v-55h-433v55q90 0 109.5 12.5t22.5 78.5v608h-80q-84 0 -118 -31t-34 -113h-72zM915 516v55q74 0 89.5 18.5t15.5 98.5v524q0 55 -11.5 65.5t-74.5 10.5v55h301l227 -526l219 526 h306v-55q-72 0 -87.5 -9t-15.5 -67v-530q0 -74 15.5 -90.5t87.5 -20.5v-55h-381v55q72 2 88 18.5t16 90.5v537h-4l-283 -701h-24l-299 701h-4v-574q0 -33 16 -49t33.5 -19.5t50.5 -3.5v-55h-281z" />
<glyph unicode="&#x2260;" horiz-adv-x="1064" d="M47 -350l862 1660h109l-862 -1660h-109zM51 190v152h963v-152h-963zM51 621v151h963v-151h-963z" />
<glyph unicode="&#xe000;" horiz-adv-x="1004" d="M0 1005h1005v-1005h-1005v1005z" />
<glyph unicode="&#xfb01;" horiz-adv-x="1705" d="M47 -4v65h37q63 0 84.5 31t21.5 129v557q0 98 -21.5 129t-84.5 31h-37v66q127 -4 293 -5q193 0 399.5 2.5t247.5 2.5v-287h-65q-33 119 -94.5 162t-221.5 43q-80 0 -98.5 -9.5t-18.5 -42.5v-309h50q137 0 157 162h66v-393h-66q-20 150 -157 149h-50v-258q0 -98 21.5 -129 t85.5 -31h37v-65q-127 4 -293 4t-293 -4zM1071 -4v65h37q63 0 84.5 31t21.5 129v557q0 98 -21.5 129t-84.5 31h-37v66q127 -4 293 -4.5t293 4.5v-66h-37q-63 0 -85 -30.5t-22 -129.5v-557q0 -98 21.5 -129t85.5 -31h37v-65q-127 4 -293 4t-293 -4z" />
<glyph unicode="&#xfb02;" horiz-adv-x="2162" d="M47 -4v65h37q63 0 84.5 31t21.5 129v557q0 98 -21.5 129t-84.5 31h-37v66q127 -4 293 -5q193 0 399.5 2.5t247.5 2.5v-287h-65q-33 119 -94.5 162t-221.5 43q-80 0 -98.5 -9.5t-18.5 -42.5v-309h50q137 0 157 162h66v-393h-66q-20 150 -157 149h-50v-258q0 -98 21.5 -129 t85.5 -31h37v-65q-127 4 -293 4t-293 -4zM1090 -4v65h36q63 0 85 31t22 129v557q0 98 -21.5 129t-85.5 31h-36v66q127 -4 292.5 -4.5t292.5 4.5v-66h-37q-63 0 -84.5 -30.5t-21.5 -129.5v-528q0 -96 41 -134t160 -38q129 0 194.5 58.5t102.5 195.5h65l-16 -336q-47 0 -285 2 t-412 2q-165 0 -292 -4z" />
</font>
</defs>
</svg>
