<?xml version="1.0" standalone="no"?>
<!DOCTYPE svg PUBLIC "-//W3C//DTD SVG 1.1//EN" "http://www.w3.org/Graphics/SVG/1.1/DTD/svg11.dtd" >
<svg xmlns="http://www.w3.org/2000/svg">
<metadata>
This is a custom SVG webfont generated by Font Squirrel.
Copyright   : Copyright c 1985 1987 1990 1991 Adobe Systems Incorporated  All rights reservedITC New Baskerville is a registered trademark of International Typeface Corporation
Foundry     : Adobe Systems Incorporated
</metadata>
<defs>
<font id="ITCNewBaskervilleRegular" horiz-adv-x="1138" >
<font-face units-per-em="2048" ascent="1638" descent="-410" />
<missing-glyph horiz-adv-x="532" />
<glyph unicode=" "  horiz-adv-x="532" />
<glyph unicode="&#x09;" horiz-adv-x="532" />
<glyph unicode="&#xa0;" horiz-adv-x="532" />
<glyph unicode="!" horiz-adv-x="655" d="M211 88q0 47 31.5 83t79.5 36q49 0 85.5 -32t36.5 -81t-33.5 -85t-82.5 -36q-47 0 -82 34t-35 81zM215 1241q0 53 29.5 94t81.5 41q55 0 82.5 -43t27.5 -100q0 -74 -30 -213q-61 -305 -56 -698h-49q10 387 -53 698q-33 141 -33 221z" />
<glyph unicode="&#x22;" horiz-adv-x="778" d="M115 1307q-6 33 22.5 61.5t65.5 28.5t65.5 -29t22.5 -61l-68 -402h-41zM485 1307q-6 33 23 61.5t65.5 28.5t65.5 -29t23 -61l-68 -402h-41z" />
<glyph unicode="#" horiz-adv-x="1064" d="M4 457l14 94h256l43 301h-258l15 94h260l63 438h115l-63 -438h256l61 438h115l-62 -438h242l-14 -94h-244l-41 -301h248l-15 -94h-252l-63 -457h-115l64 457h-258l-68 -457h-115l68 457h-252zM389 551h258l41 301h-256z" />
<glyph unicode="$" horiz-adv-x="1064" d="M68 186q0 41 25.5 67t64.5 26q82 0 82 -93l-2 -34q0 -111 163 -127v657q-129 47 -214 131t-85 205q0 127 85 216t214 118v168h58v-156q57 4 86 4q27 0 76 -4v156h57v-154q90 -6 184 -65.5t94 -141.5q0 -41 -23.5 -66.5t-64.5 -25.5q-33 0 -55 23.5t-22 58.5q0 14 4 38.5 t4 37.5q0 68 -121 92v-547q78 -43 123 -72.5t97 -79t75.5 -109.5t23.5 -138q0 -139 -90 -238.5t-229 -142.5v-293h-57v285q-10 0 -29 -2.5t-34 -3.5t-30 -1q-25 0 -69 5v-283h-58v283q-68 4 -138 23.5t-132.5 68t-62.5 114.5zM236 1092q0 -127 165 -205v416 q-165 -68 -165 -211zM459 25q6 0 26.5 -2.5t30.5 0.5q35 2 105 10v549l-162 73v-630zM459 862l162 -65v522q-27 2 -78 2q-55 0 -84 -2v-457zM678 47q82 29 131 99.5t49 160.5q0 76 -47 130.5t-133 111.5v-502z" />
<glyph unicode="%" horiz-adv-x="1843" d="M182 967q0 170 122 321.5t288 151.5q96 0 196.5 -71t206.5 -71q201 0 377 199h68l-979 -1647h-84l866 1463l-4 4q-133 -74 -240 -74q-63 0 -159 31q23 -61 22 -141q0 -168 -104.5 -329t-261.5 -161q-139 0 -226.5 92.5t-87.5 231.5zM336 897q0 -78 42 -138.5t118 -60.5 q94 0 166.5 84t103.5 186.5t31 192.5q0 88 -41 155.5t-123 67.5q-86 0 -158 -92t-105.5 -201.5t-33.5 -193.5zM975 215q0 178 122 329.5t296 151.5q125 0 195.5 -83t70.5 -210q0 -113 -41 -224t-130 -194t-204 -83q-135 0 -222 89t-87 224zM1128 156q0 -80 43 -139.5 t119 -59.5q92 0 165 83t105.5 186.5t32.5 191.5t-45 155.5t-129 67.5t-153.5 -93t-103.5 -202.5t-34 -189.5z" />
<glyph unicode="&#x26;" horiz-adv-x="1515" d="M94 223q0 98 55.5 183.5t119 132.5t163.5 106q-143 201 -143 393q0 139 90 238.5t227 99.5q123 0 201 -73.5t78 -194.5q0 -207 -275 -393l293 -348l107 178q37 68 53 94.5t55 78.5t82 73.5t96 21.5q59 0 103.5 -40t44.5 -97q0 -43 -32 -78t-75 -35t-67.5 27.5t-24.5 71.5 q0 2 1 12t0 17t-2 15.5t-6 12.5t-13 4q-61 0 -154 -184l-108 -187l-19 -28l36 -36q32 -32 46 -45.5t45 -43t52.5 -44t50 -33t54 -26.5t50.5 -8q80 0 168 100l35 -32q-137 -176 -310 -176q-72 0 -140 31.5t-108 64.5t-108 96q-178 -199 -424 -199q-115 0 -206 69.5t-91 180.5 zM279 317q0 -102 64.5 -175.5t164.5 -73.5q137 0 268 143l-10 10l-307 381q-6 -6 -38 -33.5t-40 -36t-30.5 -33t-31 -39t-20.5 -39t-16 -50t-4 -54.5zM412 1128q0 -147 166 -370q82 55 129 143t47 189q0 92 -41 161.5t-129 69.5q-84 0 -128 -55.5t-44 -137.5z" />
<glyph unicode="'" horiz-adv-x="450" d="M137 1307q-6 33 22.5 61.5t65.5 28.5t65.5 -29t22.5 -61l-67 -402h-41z" />
<glyph unicode="(" horiz-adv-x="901" d="M289 508q0 479 409 889l45 -39q-172 -233 -234.5 -401.5t-62.5 -440.5q0 -535 312 -872l-45 -41q-424 418 -424 905z" />
<glyph unicode=")" horiz-adv-x="901" d="M143 1358l43 39q424 -408 424 -903q0 -76 -9 -148t-18.5 -122t-40 -116.5t-45 -98.5t-63.5 -102.5t-65.5 -92t-82 -105.5t-83.5 -106l-45 41q168 223 231.5 397t63.5 444q-1 533 -310 873z" />
<glyph unicode="*" horiz-adv-x="1024" d="M125 776q0 68 86 88q31 6 55.5 9.5t34.5 3.5t29.5 7t48.5 21q78 41 78 51.5t-78 49.5q-29 16 -98.5 26t-112.5 31.5t-43 71.5q0 31 24.5 54t55.5 23q39 0 67.5 -31.5t66.5 -80.5t85 -76q53 -27 57 -27q10 0 11 62q0 80 -29 147.5t-29 93.5q0 35 22.5 59.5t55.5 24.5 t55.5 -24.5t22.5 -59.5q0 -29 -29 -98t-29 -131q0 -74 10.5 -74t67.5 33q45 25 80 72t62.5 78.5t66.5 31.5q31 0 55.5 -22.5t24.5 -52.5q0 -51 -38 -70.5t-111.5 -32t-118.5 -37.5q-63 -31 -64 -41q0 -8 74 -49q39 -23 110.5 -34t109.5 -29.5t38 -67.5q0 -31 -24.5 -54.5 t-55.5 -23.5q-39 0 -66.5 32t-65.5 80t-87 75q-47 29 -57 28q-16 0 -11 -82q2 -63 29 -123.5t29 -93.5q-2 -37 -21.5 -62.5t-56.5 -25.5q-33 0 -55.5 26t-22.5 58q0 31 29 100.5t29 129.5q0 74 -11 73q-14 0 -45 -20q-57 -31 -97 -81t-67.5 -82t-66.5 -32q-31 0 -55.5 23.5 t-24.5 54.5z" />
<glyph unicode="+" horiz-adv-x="1064" d="M68 473v94h417v467h95v-467h417v-94h-417v-473h-95v473h-417z" />
<glyph unicode="," horiz-adv-x="532" d="M123 -276q59 43 99 76.5t75 94t27 119.5q-33 -23 -64 -22q-47 0 -77.5 29.5t-30.5 76.5t32.5 79t79.5 32q68 0 108 -52.5t40 -123.5q0 -31 -4.5 -58.5t-14.5 -52t-18 -43t-28.5 -40t-31 -33t-39 -33t-39 -28.5t-46 -30.5t-46.5 -29.5z" />
<glyph unicode="-" horiz-adv-x="681" d="M0 391v137h494v-137h-494z" />
<glyph unicode="." horiz-adv-x="532" d="M150 88q0 47 31.5 83t78.5 36q49 0 86 -32t37 -81t-34 -85t-83 -36q-47 0 -81.5 34t-34.5 81z" />
<glyph unicode="/" horiz-adv-x="1187" d="M76 -276l897 1673h92l-903 -1673h-86z" />
<glyph unicode="0" d="M72 450.5q0 192.5 144 335t353 142.5t353.5 -142.5t144.5 -335t-144.5 -335t-353.5 -142.5t-353 142.5t-144 335zM276 450.5q0 -75.5 13.5 -145t43 -139.5t90 -111t146.5 -41t146.5 41t90.5 111t43 139.5t13 145t-13 145.5t-43 139.5t-90.5 110.5t-146.5 41t-146.5 -41 t-90 -110.5t-43 -139.5t-13.5 -145.5z" />
<glyph unicode="1" d="M285 -4v41q193 0 192 113v614q0 51 -22.5 70.5t-75.5 21.5l-92 2v41q252 8 375 29v-43v-735q0 -113 192 -113v-41q-233 4 -284.5 4t-284.5 -4z" />
<glyph unicode="2" d="M162 -4q31 82 103.5 157.5t151.5 132t153.5 115t122.5 131t48 154.5q0 86 -54 143.5t-157 57.5q-86 0 -149.5 -53.5t-63.5 -126.5q0 -51 33 -87t80 -36q29 0 53 6q-4 -31 -46 -56.5t-95 -25.5q-72 0 -115 47t-43 119q0 84 60.5 144.5t138.5 85t158 24.5q170 0 287.5 -70 t117.5 -196q0 -92 -60.5 -158t-141 -100.5t-200.5 -99t-202 -138.5h379q78 0 205 8l-72 -291h-39q0 2 7 40t7 61q0 16 -106 16h-256q-225 0 -305 -4z" />
<glyph unicode="3" d="M117 -313q0 37 26.5 61.5t61.5 24.5q51 0 75.5 -38t31.5 -83t49 -83t122 -38q166 0 234.5 112.5t68.5 280.5q0 330 -211 330q-55 0 -93 -24.5t-52 -55.5t-35.5 -55.5t-52.5 -24.5q-45 0 -45 43q0 23 42 52.5t102.5 66.5t121 85t102.5 126t42 172q0 242 -197 242 q-90 0 -156.5 -59.5t-66.5 -143.5q0 -63 39 -106.5t94 -43.5q63 0 106 25q-10 -51 -61 -79t-111 -28q-76 0 -130 45.5t-54 126.5q0 133 116.5 221.5t284.5 88.5q139 0 232.5 -70t93.5 -186q0 -231 -309 -363v-14q403 0 403 -330q0 -199 -161.5 -340t-372.5 -141 q-152 0 -246 58.5t-94 144.5z" />
<glyph unicode="4" d="M49 -27v58l723 897h43v-889h275v-66h-275v-344q0 -98 199 -98v-41q-246 4 -291 4t-291 -4v41q102 0 150.5 22.5t48.5 75.5v344h-582zM123 39h508v627h-4z" />
<glyph unicode="5" d="M111 -319q0 37 27.5 64.5t64.5 27.5q45 0 64.5 -26t24.5 -62.5t14 -72.5t46 -61.5t109 -25.5q78 0 138 29.5t96 75.5t58.5 111.5t31 129t8.5 137.5q0 141 -61.5 230.5t-188.5 89.5q-84 0 -155 -49.5t-71 -106.5q0 -12 -1 -40t-1 -42q0 -47 -43 -47q-41 0 -41 49v35 l39 801q178 -111 301 -111q207 0 291 133h2q-4 -145 -109.5 -223t-250.5 -78q-84 0 -199 31l-16 -434q76 76 145.5 109.5t169.5 33.5q186 0 289.5 -100.5t103.5 -263.5q0 -233 -155.5 -387t-380.5 -154q-145 0 -247.5 51.5t-102.5 145.5z" />
<glyph unicode="6" d="M92 639q0 197 59.5 369t189.5 288.5t306 116.5q100 0 198.5 -41t98.5 -127q0 -43 -25.5 -67.5t-68.5 -24.5t-69.5 34t-38 72.5t-52.5 72.5t-108.5 34t-118.5 -33t-81 -94t-48.5 -120.5t-25.5 -145.5t-9 -132t-2 -114v-4h4q141 172 336 172q184 0 297 -116.5t113 -301.5 q0 -213 -129.5 -358.5t-337.5 -145.5q-133 0 -232.5 60.5t-153 161t-78 211t-24.5 233.5zM287 551q0 -70 2 -119t10 -117.5t27.5 -114.5t48 -90t78 -67t112.5 -23q276 0 277 433q0 182 -56.5 281.5t-197.5 99.5q-119 0 -211 -93q-57 -57 -73.5 -92t-16.5 -98z" />
<glyph unicode="7" d="M125 483l117 582h37q0 -18 -3.5 -45t-3.5 -37q0 -49 15.5 -65.5t62.5 -16.5h660v-43q-279 -532 -398 -1167q-8 -43 -14 -66.5t-21.5 -62.5t-41 -58.5t-60.5 -19.5q-45 0 -74.5 27.5t-27.5 80.5q2 20 8 46t18.5 60t23.5 59.5t29.5 66.5t27.5 59.5t29.5 58.5t22.5 44 l369 747h-493q-109 0 -147 -24.5t-64 -124.5l-27 -101h-45z" />
<glyph unicode="8" d="M123 332q0 74 26.5 134t79 108.5t88 74t97.5 60.5q-258 129 -258 344q0 152 111.5 256t283.5 104q186 0 295.5 -90t109.5 -233q0 -72 -34.5 -133.5t-71.5 -92t-119 -92.5q72 -41 109 -67.5t84 -74.5t68.5 -111.5t21.5 -149.5q0 -172 -122 -284t-335 -112 q-193 0 -313.5 94.5t-120.5 264.5zM254 334q0 -131 77 -225.5t234 -94.5q135 0 226.5 78t91.5 215q0 63 -27 115.5t-79 90.5t-98 63.5t-116.5 58.5t-103.5 51q-205 -131 -205 -352zM287 1135q0 -106 85 -177t316 -163q137 94 137 274q0 139 -68.5 221t-205.5 82 q-117 0 -190.5 -67.5t-73.5 -169.5z" />
<glyph unicode="9" d="M92 467q0 197 136.5 329t334.5 132q133 0 231.5 -59.5t150.5 -157t77 -200.5t25 -210q0 -102 -15.5 -206.5t-56.5 -216t-102.5 -198t-161 -141.5t-224.5 -55q-129 0 -207.5 44t-78.5 107q0 41 24.5 67t63.5 26q43 0 68.5 -31t35.5 -68t46 -67.5t100 -30.5q252 0 282 426 q2 35 5 111.5t5 101.5l-4 4q-47 -53 -79.5 -83t-103.5 -60.5t-155 -30.5q-190 0 -293.5 132t-103.5 335zM297 469q0 -68 3 -113t16.5 -106.5t38 -98t73.5 -63.5t117 -27q119 0 211 93q63 63 74.5 91.5t11.5 110.5q0 119 -9.5 202t-38 163t-88 120t-149.5 40q-78 0 -132 -39 t-81 -104.5t-37 -130t-10 -138.5z" />
<glyph unicode=":" horiz-adv-x="532" d="M150 88q0 47 31.5 83t78.5 36q49 0 86 -32t37 -81t-34 -85t-83 -36q-47 0 -81.5 34t-34.5 81zM150 776q0 47 31.5 83t78.5 36q49 0 86 -32t37 -81t-34 -84.5t-83 -35.5q-47 0 -81.5 33.5t-34.5 80.5z" />
<glyph unicode=";" horiz-adv-x="532" d="M123 -283q59 43 99 77t75 94.5t27 119.5q-33 -23 -64 -22q-47 0 -77.5 29.5t-30.5 76.5t32.5 79t79.5 32q68 0 108 -52.5t40 -123.5q0 -31 -4.5 -58.5t-14.5 -52.5t-18 -43t-28.5 -39.5t-31 -33t-39 -33t-39 -28.5t-46 -30.5t-46.5 -30.5zM154 776q0 47 31.5 83t78.5 36 q49 0 86 -32t37 -81t-34 -84.5t-83 -35.5q-47 0 -81.5 33.5t-34.5 80.5z" />
<glyph unicode="&#x37e;" horiz-adv-x="532" d="M123 -283q59 43 99 77t75 94.5t27 119.5q-33 -23 -64 -22q-47 0 -77.5 29.5t-30.5 76.5t32.5 79t79.5 32q68 0 108 -52.5t40 -123.5q0 -31 -4.5 -58.5t-14.5 -52.5t-18 -43t-28.5 -39.5t-31 -33t-39 -33t-39 -28.5t-46 -30.5t-46.5 -30.5zM154 776q0 47 31.5 83t78.5 36 q49 0 86 -32t37 -81t-34 -84.5t-83 -35.5q-47 0 -81.5 33.5t-34.5 80.5z" />
<glyph unicode="&#x3c;" horiz-adv-x="1064" d="M63 434v131l938 475v-108l-851 -432l851 -437v-104z" />
<glyph unicode="=" horiz-adv-x="1064" d="M68 301v94h929v-94h-929zM68 641v94h929v-94h-929z" />
<glyph unicode="&#x3e;" horiz-adv-x="1064" d="M63 -41v104l852 437l-852 432v108l938 -475v-131z" />
<glyph unicode="?" horiz-adv-x="819" d="M96 1284q0 45 35 68.5t82 23.5q190 0 335.5 -153.5t145.5 -345.5q0 -178 -113.5 -259t-297.5 -81v-207h-56v383h125q276 0 277 223q0 113 -68.5 201t-179.5 88q-31 0 -91.5 -11.5t-88.5 -11.5q-41 0 -73 21.5t-32 60.5zM150 88q0 47 31.5 83t78.5 36q49 0 86 -32t37 -81 t-34 -85t-83 -36q-47 0 -81.5 34t-34.5 81z" />
<glyph unicode="@" horiz-adv-x="1679" d="M123 676q0 285 218 492.5t525 207.5q285 0 487.5 -163.5t202.5 -424.5q0 -197 -141 -362q-66 -76 -159 -122t-193 -46q-59 0 -109.5 27.5t-58.5 79.5q-115 -106 -248 -107q-113 0 -179.5 78t-66.5 184q0 125 55.5 253t167 220t250.5 92q70 0 129.5 -28.5t75.5 -85.5h4 l25 86h174l-192 -518q-51 -131 -52 -177q0 -43 52 -43q55 0 122.5 30t112.5 69q166 139 166 375q0 205 -170 361.5t-444 156.5q-272 0 -450.5 -183.5t-178.5 -443.5q0 -268 174 -456.5t450 -188.5q193 0 350.5 91t245.5 241h68q-76 -180 -263.5 -289t-402.5 -109 q-313 0 -530 206t-217 497zM561 426q0 -49 32 -81t85 -32q152 0 244 246l102 279q16 41 16 59q0 55 -31.5 94t-90.5 39q-98 0 -185.5 -119.5t-129.5 -257t-42 -227.5z" />
<glyph unicode="A" horiz-adv-x="1351" d="M-47 -4v47q84 10 125 40t72 105q29 66 85 196t84 196l314 804h69l414 -1040q6 -12 28.5 -66.5t42 -96.5t36.5 -62q45 -61 176 -76v-47q-47 0 -145.5 4t-145.5 4q-49 0 -148.5 -4t-148.5 -4v47h18q14 0 20.5 1t21 2t21.5 2t19.5 4t18.5 7l15 11q9 6 13.5 13t7.5 16.5 t3 21.5q0 55 -41 160l-80 211h-506l-18 -52q-4 -8 -21.5 -52t-27 -69.5t-23.5 -64.5t-20.5 -69.5t-6.5 -53.5q0 -20 9.5 -36.5t19.5 -25t31.5 -13.5t34 -7t39 -4t32.5 -2v-47q-39 0 -112.5 4t-112.5 4q-35 0 -106.5 -4t-106.5 -4zM369 557h452l-225 578z" />
<glyph unicode="B" horiz-adv-x="1310" d="M57 -4v47q37 0 54.5 1t47 6t47 21.5t25.5 41.5q18 55 19 272v578q0 217 -19 272q-8 25 -25.5 41t-47 21.5t-47 6.5t-54.5 1v47q49 0 146.5 -4.5t146.5 -4.5q41 0 122 4.5t122 4.5h25q76 0 146 -11q81 -12 160 -44.5t126 -101.5t47 -165q0 -221 -307 -313v-4 q205 -18 299 -84q158 -106 157 -283q0 -190 -198 -297q-51 -27 -128 -39t-115 -13t-134 -1q-45 0 -134 4t-135 4q-57 0 -173 -4t-173 -4zM461 395q0 -197 24 -258q12 -31 35 -50t58.5 -26.5t57 -8.5t64.5 -1q291 0 291 314q0 193 -147 272q-20 10 -41 17.5t-47.5 12.5t-43 8 t-50 4t-44.5 1h-50h-44h-63v-285zM461 735h65h26h27h24q19 0 25.5 1t23 3t24.5 4t22.5 5.5t24.5 7.5t22 10l25 12q104 68 104 242q0 272 -280 272q-109 0 -121 -10t-12 -86v-461z" />
<glyph unicode="C" horiz-adv-x="1392" d="M96 659.5q0 311.5 203 514t514 202.5q123 0 214 -28.5t202 -98.5l33 97h30l17 -404h-47q-27 174 -142.5 280.5t-290.5 106.5q-131 0 -228 -60.5t-148.5 -160.5t-76 -212t-24.5 -237q0 -123 25.5 -231.5t79 -202.5t149.5 -149.5t228 -55.5q104 0 182 34t129 100.5 t84 140.5t57 176h37v-448h-27l-49 104q-195 -154 -452 -154q-313 0 -506 187.5t-193 499z" />
<glyph unicode="D" horiz-adv-x="1515" d="M57 -4v47q45 0 72 2t59.5 18.5t42.5 49.5q18 55 19 272v573q0 217 -19 273q-8 25 -25.5 41t-47 21t-47 6t-54.5 1v52q41 0 128 -3t130 -6q55 0 166 4.5t166 4.5h20q316 0 525 -187q215 -193 215 -520q0 -319 -192 -488q-183 -161 -485 -161h-30q-61 0 -182 4t-182 4 q-47 -2 -140.5 -5t-138.5 -3zM460 261q1 -13 4 -44t10 -51.5t20 -36.5q53 -78 229 -78q129 0 217 43t132 126t61.5 175t17.5 217q0 332 -123 508t-432 176q-109 0 -123 -14q-12 -12 -12 -63v-863q0 -2 -1 -42q-1 -20 -1 -33t1 -20z" />
<glyph unicode="E" horiz-adv-x="1269" d="M53 0v47q45 0 72 2t59.5 18.5t44.5 49.5q20 55 21 272v565q0 217 -21 273q-18 45 -62 57t-114 12v56h1018v-310h-47q-14 88 -40 140.5t-77 77t-101 30.5t-144 6h-148q-47 0 -51 -8q-2 -6 -2 -76v-485q22 -1 42 -1q158 0 216 57q66 65 76 196h47q-4 -188 -8 -279 q4 -82 8 -254h-47q-20 150 -92 188t-242 38v-336q0 -158 37 -207q56 -74 242 -74h20q92 2 147.5 11.5t109.5 36t82.5 83t39.5 144.5h47l-19 -330h-1114z" />
<glyph unicode="F" horiz-adv-x="1105" d="M39 -4v47q45 0 71.5 2t59.5 18.5t45 49.5q20 55 21 272v578q0 217 -21 272q-18 45 -62 57.5t-114 12.5v47q63 -2 185 -5.5t182 -3.5q111 0 329.5 4.5t327.5 4.5l33 -322h-47q-14 49 -20.5 67.5t-23 54.5t-39 56.5t-55.5 34.5q-84 37 -303 37h-45h-18q-71 0 -84 -14 q-12 -12 -15 -88v-13v-458q22 -1 43 -1q157 0 216 55q66 62 75 193h47q-4 -188 -8 -278q4 -82 8 -254h-47q-8 63 -28.5 105t-43 64.5t-69.5 34t-84 13.5t-109 2v-258q0 -215 21 -270q8 -23 24.5 -38.5t41 -21.5t42 -8t50.5 -2h45v-47q-51 0 -157.5 4t-158 4t-156 -3 t-159.5 -5z" />
<glyph unicode="G" horiz-adv-x="1515" d="M96 641q0 317 200 526t517 209q254 0 426 -129l43 92h23l-23 -405h-43q-10 176 -118.5 285.5t-282.5 109.5q-115 0 -203 -42t-140.5 -107.5t-86 -159.5t-45 -185.5t-11.5 -197.5q0 -121 24.5 -225.5t77 -192.5t146.5 -139t219 -51q160 0 251 76.5t91 230.5q0 98 -38 132 t-138 42v47h537v-47h-8q-71 0 -95 -35q-25 -37 -24 -121v-217q-29 0 -51.5 -1t-38 -2t-35 -6t-27.5 -7t-30.5 -12.5t-28.5 -13.5t-36 -20.5t-42 -23.5q-154 -78 -322 -78q-303 0 -495.5 183.5t-192.5 484.5z" />
<glyph unicode="H" horiz-adv-x="1679" d="M68 -4v47q45 0 71.5 2t59 18.5t45.5 49.5q20 55 20 272v578q0 217 -20 272q-18 45 -62.5 57.5t-113.5 12.5v47q47 0 145 -3t147 -6q53 0 155.5 4.5t156.5 4.5v-47q-45 0 -72 -2.5t-59.5 -18.5t-44.5 -49q-20 -55 -21 -272v-238h731v238q0 217 -20 272q-18 45 -62.5 57.5 t-113.5 12.5v47q51 0 149 -4.5t149.5 -4.5t153 4.5t152.5 4.5v-47q-45 0 -71.5 -2.5t-59.5 -18.5t-45 -49q-20 -55 -21 -272v-578q0 -217 21 -272q18 -45 62 -57.5t114 -12.5v-47q-49 0 -148.5 4t-148.5 4q-51 0 -153.5 -4t-153.5 -4v47q45 0 71.5 2t59.5 18.5t45 49.5 q20 55 20 272v274h-731v-274q0 -217 21 -272q18 -45 62 -57.5t114 -12.5v-47q-49 0 -148.5 4t-148.5 4q-51 -2 -154.5 -5t-152.5 -3z" />
<glyph unicode="I" horiz-adv-x="737" d="M68 -4v47q45 0 71.5 2t59 18.5t45.5 49.5q20 55 20 272v578q0 217 -20 272q-18 45 -62.5 57.5t-113.5 12.5v47q49 0 147 -4.5t147 -4.5q53 2 156 5.5t154 3.5v-47q-45 0 -72 -2.5t-59.5 -18.5t-44.5 -49q-20 -55 -21 -272v-578q0 -217 21 -272q18 -45 62 -57.5t114 -12.5 v-47q-47 0 -146.5 3t-148.5 5q-51 0 -154.5 -4t-154.5 -4z" />
<glyph unicode="J" horiz-adv-x="696" d="M-299 -389q0 35 24.5 57.5t59.5 22.5q63 0 102 -86q20 -53 50 -76t88 -23q170 0 206 172q12 57 13 134v1302q0 72 -21 121q-12 33 -46 49t-59.5 18.5t-70.5 2.5v47q49 0 147.5 -4.5t147.5 -4.5q51 0 153.5 3.5t155.5 5.5v-47q-145 0 -176 -70q-20 -45 -20 -227v-1096 q-8 -197 -70 -289q-109 -162 -362 -162q-47 0 -92.5 5.5t-102.5 18.5t-92 46t-35 80z" />
<glyph unicode="K" horiz-adv-x="1351" d="M53 -4v47q45 0 72 2t59.5 18.5t44.5 49.5q20 55 21 272v578q0 217 -21 272q-18 45 -62 57.5t-114 12.5v47q49 0 146.5 -4.5t146.5 -4.5q53 0 158.5 4.5t159.5 4.5v-47q-145 -12 -174 -44t-29 -178v-499q494 514 493 639q0 20 -8 35.5t-17 22.5t-28.5 12t-32 6t-36 3.5 t-31.5 2.5v47q41 0 122 -4.5t121 -4.5q37 0 107 4.5t106 4.5v-47q-80 -2 -115.5 -23.5t-90.5 -91.5l-328 -406l285 -327q0 -2 25 -34l51 -64q26 -32 64 -79t70.5 -83.5t67.5 -71.5t57 -51q12 -8 22.5 -14.5t25 -9.5t21.5 -4t25.5 -2t26.5 -1v-47q-55 0 -163.5 4t-162 4 t-155.5 -4t-156 -4v47q172 0 172 61q0 41 -161 234l-250 301l-127 -133v-242q0 -147 27.5 -178t175.5 -43v-47q-49 0 -149.5 4t-149.5 4q-53 0 -156 -4t-156 -4z" />
<glyph unicode="L" horiz-adv-x="1269" d="M53 -4v47q45 0 72 2t59.5 18.5t44.5 49.5q20 55 21 272v578q0 217 -21 272q-18 45 -62 57.5t-114 12.5v47q49 0 146.5 -4.5t146.5 -4.5q51 0 155.5 4.5t155.5 4.5v-47q-45 0 -71.5 -2.5t-59 -18.5t-45.5 -49q-20 -55 -20 -272v-607q0 -197 53 -251t248 -54h18 q195 0 273 51q49 31 76.5 73t36 77t20.5 106h51l-18 -362q-74 4 -107 8q-174 -2 -1059 -8z" />
<glyph unicode="M" horiz-adv-x="1802" d="M59 1305v47q72 -4 207 -9q123 4 189 9l450 -1049l438 1049q61 -4 193 -9q131 4 203 9v-49q-145 0 -176 -70q-20 -45 -21 -227v-742q0 -147 27.5 -178t175.5 -43v-47q-55 2 -157.5 5t-149.5 3q-51 0 -154.5 -4t-155.5 -4v47q147 12 175 43t28 178v893h-4l-233 -571 q-43 -98 -128 -295t-128 -295h-21l-498 1161h-4v-862q0 -129 40 -187.5t157 -64.5v-47q-37 0 -112.5 4t-114.5 4q-35 0 -107 -4t-108 -4v47q184 0 184 186v873q0 86 -18 133q-18 45 -62.5 57.5t-114.5 12.5z" />
<glyph unicode="N" horiz-adv-x="1556" d="M45 1305v47q33 0 97.5 -4.5t97.5 -4.5q27 0 81 4.5t80 4.5l865 -1055h4v569q0 231 -19 316q-6 25 -12 42t-17.5 29.5t-19.5 19.5t-27.5 12t-28.5 7t-37 6.5t-40 6.5v47q37 0 112.5 -4.5t112.5 -4.5q35 0 107 3.5t110 5.5v-47q-6 0 -29.5 -2.5t-29.5 -4.5t-23.5 -5 t-24.5 -9t-18.5 -15t-17.5 -22.5t-12 -32.5q-25 -78 -25 -358v-883h-61q-45 55 -135 170l-801 971h-4v-688q0 -229 30 -299q8 -16 16.5 -28.5t22 -21.5t22.5 -14.5t27.5 -8.5t26.5 -5t31.5 -4t32.5 -2v-47q-39 0 -118 4t-118 4q-37 0 -112.5 -4t-114.5 -4v47q43 4 60.5 7 t48 12.5t45 30t22.5 50.5q16 74 16 283v756q-49 70 -95 95.5t-128 27.5z" />
<glyph unicode="O" horiz-adv-x="1679" d="M96 670q0 299 224.5 502.5t527.5 203.5q301 0 518 -197.5t217 -494.5q0 -311 -214 -511t-529 -200q-307 0 -525.5 197t-218.5 500zM352 670q0 -127 27 -236.5t83 -203t155.5 -147.5t234.5 -54q131 0 227.5 57t148.5 153.5t75.5 205t23.5 231.5q0 96 -15.5 185t-52 174 t-92 147.5t-139.5 100.5t-188 38q-127 0 -224.5 -58.5t-152.5 -154.5t-83 -207.5t-28 -230.5z" />
<glyph unicode="P" horiz-adv-x="1187" d="M57 -4v47q45 0 72 2t59.5 18.5t42.5 49.5q18 55 19 272v576q0 219 -19 274q-8 25 -25.5 41t-48 21.5t-47 6.5t-53.5 1v47q53 -2 155.5 -5.5t154.5 -3.5q49 0 146 4.5t146 4.5q123 -4 222.5 -36t174 -114t74.5 -205q0 -86 -32.5 -152.5t-83.5 -107.5t-124 -66.5 t-142.5 -34.5t-149.5 -9q-23 0 -80 4l-57 2v-248q0 -217 20 -272q8 -23 23.5 -37.5t39 -20.5t40 -8t50.5 -3t44 -1v-47q-53 0 -159.5 4t-160.5 4q-49 0 -149.5 -3t-151.5 -5zM461 688q12 0 54 -4t65 -4q160 0 237.5 73.5t77.5 237.5q0 301 -293 301q-115 -4 -127 -12 q-14 -16 -14 -84v-508z" />
<glyph unicode="Q" horiz-adv-x="1638" d="M96 657q0 305 225.5 512t534.5 207q297 0 515 -192.5t218 -485.5q0 -201 -112.5 -369.5t-296.5 -269.5q-94 -51 -256 -83.5t-250 -92.5v-4q27 0 71 4q145 0 378 -87t368 -87q74 0 129 20.5t78.5 45t40 45t20.5 20.5q12 0 13 -53q0 -129 -103.5 -215t-241.5 -86 q-94 0 -184 35t-158.5 85t-133 101t-135.5 86t-138.5 35t-153.5 -53.5t-106 -53.5q-39 0 -39 43q0 53 149 89l207 116q-285 70 -462 242t-177 446zM352 674q0 -123 25.5 -233.5t80 -208t154 -155t230.5 -57.5q162 0 277.5 99.5t164.5 240t49 299.5q0 119 -25.5 230.5 t-79.5 211t-150.5 160t-223.5 60.5q-131 0 -231.5 -56.5t-157.5 -150.5t-85 -205.5t-28 -234.5z" />
<glyph unicode="R" horiz-adv-x="1351" d="M57 -4v47q45 0 72 2t59.5 18.5t42.5 49.5q18 55 19 272v578q0 217 -19 272q-8 25 -25.5 41t-47 21.5t-47 6.5t-54.5 1v47q57 0 176 -4.5t177 -4.5q43 0 130 4.5t130 4.5q98 0 174 -13.5t146.5 -48.5t109.5 -104.5t39 -171.5q0 -158 -104.5 -248t-266.5 -104l434 -498 q53 -61 90 -85t111 -36v-47q-31 0 -92.5 4t-91.5 4q-27 0 -78 -4t-76 -4l-96 119l-340 422q-8 10 -26.5 32.5t-24 26.5t-17.5 14.5t-24.5 11.5t-30 3t-45.5 2v-242q0 -217 18 -272q8 -25 25.5 -41.5t48.5 -21.5t47 -6t53 -1v-47q-45 0 -141 3t-147 5q-51 0 -154 -4t-154 -4z M461 682q96 0 146 3t117 18.5t99.5 46t56 90t23.5 145.5q0 139 -75.5 223t-211.5 84q-129 0 -133 -2q-23 -10 -22 -73v-535z" />
<glyph unicode="S" horiz-adv-x="1064" d="M92 10v400h47q76 -381 387 -381q125 0 209 67.5t84 188.5q0 66 -25.5 118t-76.5 89.5t-95 60t-114 51.5q-84 33 -141.5 62.5t-119 77t-93 114t-31.5 150.5q0 170 115.5 269t289.5 99q162 0 310 -104l47 80h22l11 -355h-48q-90 324 -342 324q-100 0 -169.5 -59.5 t-69.5 -157.5q0 -47 18.5 -86t39 -62.5t67.5 -51t68 -37.5l79 -33q102 -43 163.5 -75t137.5 -87.5t113 -130t37 -170.5q0 -188 -146.5 -293t-343.5 -105q-193 0 -358 123l-49 -86h-23z" />
<glyph unicode="T" horiz-adv-x="1351" d="M43 1032v320h1257l19 -320h-55q-8 147 -72 200.5t-211 53.5h-35h-39q-12 0 -35.5 -1t-36 -5t-26.5 -10t-20.5 -15.5t-6.5 -23.5v-971q0 -121 42 -166t186 -51v-47q-55 0 -170 4t-170 4q-53 0 -162 -3t-164 -5v47q143 6 185 51t42 166v971q0 20 -11 32.5t-37.5 16.5t-45 5 t-57.5 1h-21q-90 0 -135 -6t-90 -29.5t-63.5 -76t-20.5 -142.5h-47z" />
<glyph unicode="U" horiz-adv-x="1597" d="M57 1305v47q49 0 145.5 -4.5t145.5 -4.5q53 0 155.5 4.5t155.5 4.5v-47q-37 0 -54 -1t-47 -6.5t-48 -21.5t-27 -41q-18 -55 -18 -272v-504q0 -205 90 -308.5t293 -103.5q424 0 424 422v449q0 229 -21 292q-18 57 -66 76t-124 19v47q41 0 118.5 -4.5t118.5 -4.5 q37 0 114 3.5t116 5.5v-47q-102 -4 -133 -29q-23 -16 -33 -45q-29 -74 -29 -313v-379q0 -287 -125 -426.5t-409 -139.5q-283 0 -414 114t-131 386v490q0 217 -21 272q-18 45 -62 57.5t-114 12.5z" />
<glyph unicode="V" horiz-adv-x="1310" d="M-61 1305v47q47 0 144 -4.5t144 -4.5q51 0 151.5 4.5t149.5 4.5v-47q-33 0 -52 -2.5t-48 -8.5t-44 -25.5t-15 -47.5q0 -61 155 -471l209 -521l195 476q154 418 153 499q0 37 -12 58.5t-41 29.5t-47 10.5t-59 2.5v47q39 0 116.5 -4.5t116.5 -4.5q37 0 108.5 4.5t106.5 4.5 v-47q-43 0 -79 -15.5t-57.5 -32t-45 -57.5t-31.5 -61.5t-27.5 -75.5t-25.5 -70l-416 -1034h-61l-441 1094q-6 12 -19 47t-18.5 47t-18.5 39.5t-23.5 39t-29 30t-36.5 26.5t-44.5 14.5t-57.5 8.5z" />
<glyph unicode="W" horiz-adv-x="1843" d="M-41 1305v47q49 0 147.5 -4.5t147.5 -4.5t151.5 4.5t151.5 4.5v-47q-4 0 -26.5 -2.5t-30.5 -3.5t-29.5 -4t-31 -7t-25 -12t-22.5 -17.5t-13 -23.5t-6 -31q0 -31 61 -250l215 -702h4l322 1100h65l336 -1084h4l140 447q109 367 108 452q0 43 -9 70t-38 40t-46 17t-67 9 q-10 2 -16 2v47q37 0 110.5 -4.5t110.5 -4.5q35 0 106.5 4.5t106.5 4.5v-47q-27 0 -51.5 -7.5t-40.5 -16.5t-32.5 -31.5t-26 -34t-21.5 -45t-15 -44t-13.5 -49.5t-12.5 -43l-338 -1075h-71l-320 1047h-4l-162 -557q-29 -82 -84 -245t-84 -245h-69l-359 1102l-18 55 q-16 55 -29.5 87t-28.5 48q-16 23 -42.5 34t-45 14.5t-59.5 5.5z" />
<glyph unicode="X" horiz-adv-x="1515" d="M29 1305v47q45 0 139 -4.5t139 -4.5q49 0 151.5 4.5t151.5 4.5v-47h-19q-13 0 -21.5 -1t-21.5 -2.5t-22.5 -2.5t-20.5 -4t-18.5 -7t-14.5 -9t-10 -12t-3 -18q0 -29 71 -129l263 -336l81 113q4 4 27 34t35 47t35.5 49t38 55.5t30 51t22.5 50t7 39.5q0 29 -16.5 46t-35 21 t-50 7t-45.5 8v47q41 0 122.5 -4.5t122.5 -4.5q37 0 106.5 4.5t106.5 4.5v-47q-100 -16 -141 -50q-16 -12 -40.5 -40.5t-42 -52t-44.5 -59.5t-35 -46l-250 -320l453 -569q35 -45 58.5 -68.5t63.5 -42.5q33 -15 70 -15q8 0 17 1v-47q-47 0 -143.5 4t-145.5 4q-51 0 -154.5 -4 t-154.5 -4v47q6 2 49 2t73.5 8t30.5 31q0 41 -108 180l-246 320l-137 -174q-174 -227 -174 -299q0 -14 6 -26.5t18.5 -20t23.5 -11.5t29.5 -6t30 -3t29.5 -1h23v-47q-41 0 -124 4t-124 4t-121 -4t-119 -4v47q96 8 151.5 48t125.5 130l321 410l-422 536q-35 43 -44 54.5 t-36.5 38t-54 35t-63.5 10.5z" />
<glyph unicode="Y" horiz-adv-x="1064" d="M-137 1305v47q47 0 139 -4.5t139 -4.5t143.5 4.5t145.5 4.5v-47q-154 0 -154 -66q0 -45 54 -143l266 -494l131 209q203 338 203 408q0 12 -3 22t-10.5 18.5t-12.5 14.5t-17.5 10t-19.5 7t-22.5 5t-21.5 3t-21.5 3.5t-19.5 2.5v47q37 0 110 -4.5t109 -4.5q35 0 100.5 4.5 t100.5 4.5v-47q-55 -4 -98 -35t-61.5 -57.5t-57.5 -90.5l-354 -585v-273q0 -147 27.5 -178t175.5 -43v-47q-51 0 -153.5 4t-154 4t-156 -4t-157.5 -4v47q147 12 177 44t30 177v254l-189 326l-36 69q-37 72 -71 132.5t-76 129t-66 93.5q-16 18 -32 24t-46.5 8.5t-40.5 4.5z " />
<glyph unicode="Z" horiz-adv-x="1228" d="M72 0l784 1296h-297q-96 0 -149.5 -7t-105.5 -33.5t-79.5 -82t-42.5 -149.5h-55l20 328h975l-780 -1297h346q209 0 289 57.5t121 260.5h55l-31 -373h-1050z" />
<glyph unicode="[" horiz-adv-x="901" d="M322 -307v1704h432v-66h-297v-1573h297v-65h-432z" />
<glyph unicode="\" horiz-adv-x="532" d="M-168 1397h107l761 -1397h-106z" />
<glyph unicode="]" horiz-adv-x="901" d="M147 -242h297v1573h-297v66h433v-1704h-433v65z" />
<glyph unicode="^" horiz-adv-x="1064" d="M70 514l391 829h143l391 -829h-104l-359 727l-366 -727h-96z" />
<glyph unicode="_" horiz-adv-x="1024" d="M0 -154h1024v-102h-1024v102z" />
<glyph unicode="`" horiz-adv-x="737" d="M135 1315q0 29 20.5 50t49.5 21q33 0 90 -47l321 -254h-75l-277 119q-2 0 -25.5 10.5t-30.5 13.5t-25.5 13t-25.5 19.5t-14.5 24t-7.5 30.5z" />
<glyph unicode="a" d="M12 -4v41q43 0 76 15.5t58.5 55t41 70.5t41 98.5t41.5 102.5l262 598h60l315 -768q4 -8 16.5 -40t15.5 -38t14.5 -27.5t16.5 -25.5t18 -16.5t25.5 -15.5t31 -6t40.5 -3v-41q-156 4 -231.5 4t-226.5 -4v41q37 0 54 1t39.5 5t32 14.5t9.5 26.5q0 25 -17 70l-71 186h-365 l-26 -72q-47 -123 -47 -162q0 -33 25.5 -49t47 -18t60.5 -2v-41q-119 4 -178.5 4t-178.5 -4zM340 395h309l-149 375z" />
<glyph unicode="b" d="M92 -4v41q111 0 135.5 36t24.5 158v488q0 123 -24.5 158.5t-135.5 35.5v41q147 -4 252 -4q45 0 126 2t112 2q145 0 248.5 -55t103.5 -164q0 -43 -20.5 -78.5t-47 -57t-69.5 -40t-69 -26t-64 -17.5v-4q365 -43 364 -260q0 -256 -401 -256q-35 0 -130.5 2t-152.5 2 q-105 0 -252 -4zM436 143q0 -59 38 -82.5t118 -23.5q231 0 231 213q0 131 -77.5 182t-245.5 51q-43 0 -53.5 -4t-10.5 -28v-308zM436 563q0 -29 15.5 -34t83.5 -5q215 0 215 197q0 193 -224 192q-63 0 -76.5 -6t-13.5 -30v-314z" />
<glyph unicode="c" d="M94 475q0 225 147.5 363.5t385.5 138.5q156 0 311 -76l27 49h20l23 -286h-33q-31 125 -116 198.5t-210 73.5t-206 -71.5t-109.5 -170t-28.5 -221.5q0 -92 16.5 -169t53.5 -144.5t105.5 -106.5t162.5 -39q141 0 226 96.5t118 223.5h31v-338h-25l-37 84 q-172 -106 -354 -107q-250 0 -379 129t-129 373z" />
<glyph unicode="d" horiz-adv-x="1251" d="M78 -4v41q111 0 135.5 36t24.5 158v488q0 123 -25 158.5t-135 35.5v41q156 -4 233 -4q51 0 151.5 2t139.5 2q252 0 404.5 -130t152.5 -353t-152.5 -349t-404.5 -126q-45 0 -134 2t-138 2q-84 0 -252 -4zM422 172q0 -78 47 -106.5t133 -28.5q197 0 271.5 102.5t74.5 304.5 q0 469 -391 469q-98 0 -116.5 -6t-18.5 -43v-692z" />
<glyph unicode="e" horiz-adv-x="1024" d="M59 -4v41q111 0 135.5 36t24.5 158v488q0 123 -24.5 158.5t-135.5 35.5v41q168 -4 252 -4q199 0 576 4v-243h-35q-16 123 -63.5 162.5t-172.5 39.5h-176q-37 0 -37 -26v-367q139 0 185.5 39t54.5 170h41q-4 -139 -4 -213q0 -70 4 -213h-41q-6 111 -53 143.5t-187 32.5 v-301q0 -78 48.5 -109.5t154.5 -31.5q158 0 224.5 41t89.5 180h41l-13 -262q-418 4 -637 4q-84 0 -252 -4z" />
<glyph unicode="f" horiz-adv-x="909" d="M45 -4v41q111 0 135.5 36t24.5 158v488q0 123 -24.5 158.5t-135.5 35.5v41q168 -4 252 -4q199 0 575 4l21 -243h-35q-27 109 -80 155.5t-176 46.5h-176q-37 0 -37 -26v-389q135 0 183.5 34.5t56.5 159.5h41q-4 -131 -4 -198q0 -70 4 -213h-41q-6 111 -53.5 143.5 t-186.5 32.5v-226q0 -123 24.5 -158.5t135.5 -35.5v-41q-168 4 -252 4t-252 -4z" />
<glyph unicode="g" horiz-adv-x="1251" d="M104 475q0 225 147.5 363.5t385.5 138.5q156 0 311 -76l27 49h20l23 -286h-33q-31 125 -116 198.5t-209.5 73.5t-205.5 -71.5t-110 -170t-29 -221.5q0 -92 16.5 -169t53.5 -144.5t105.5 -106.5t162.5 -39q129 0 188.5 62.5t59.5 152.5q0 68 -35 94.5t-110 26.5v41h461 v-41q-72 0 -102 -19.5t-30 -78.5v-162q-78 -4 -215 -60.5t-258 -56.5q-250 0 -379 129t-129 373z" />
<glyph unicode="h" horiz-adv-x="1366" d="M74 -4v41q111 0 135 36t24 158v488q0 123 -24.5 158.5t-134.5 35.5v41q168 -4 252 -4t252 4v-41q-111 0 -135.5 -35.5t-24.5 -158.5v-199h530v199q0 123 -24.5 158.5t-135.5 35.5v41q168 -4 252 -4t252 4v-41q-111 0 -135 -35.5t-24 -158.5v-488q0 -123 24.5 -158.5 t134.5 -35.5v-41q-168 4 -252 4t-252 -4v41q111 0 135.5 36t24.5 158v234h-530v-234q0 -123 24.5 -158.5t135.5 -35.5v-41q-168 4 -252 4t-252 -4z" />
<glyph unicode="i" horiz-adv-x="681" d="M88 -4v41q111 0 135.5 36t24.5 158v488q0 123 -24.5 158.5t-135.5 35.5v41q168 -4 252 -4t252 4v-41q-111 0 -135.5 -35.5t-24.5 -158.5v-488q0 -123 24.5 -158.5t135.5 -35.5v-41q-168 4 -252 4t-252 -4z" />
<glyph unicode="j" horiz-adv-x="681" d="M-223 -365q0 33 18.5 54.5t48.5 21.5q39 0 59.5 -26.5t29 -57t42 -57.5t97.5 -27q119 0 166 79t47 269v828q0 123 -24.5 158.5t-135.5 35.5v41q168 -4 252 -4t252 4v-41q-111 0 -135.5 -35.5t-24.5 -158.5v-848q0 -106 -40 -184t-103.5 -117t-126 -56.5t-125.5 -17.5 q-129 0 -213 40t-84 99z" />
<glyph unicode="k" d="M78 -4v41q111 0 135.5 36t24.5 158v488q0 123 -25 158.5t-135 35.5v41q168 -4 252 -4q104 0 231 4v-41q-96 0 -117.5 -36.5t-21.5 -157.5v-281q27 20 97.5 86t160.5 171.5t90 154.5q0 18 -13.5 31.5t-26.5 17.5t-40.5 8t-34.5 6v41q131 -4 195 -4q66 0 192 4v-41 q-74 -6 -117.5 -34.5t-97.5 -87.5l-194 -220l366 -456q31 -39 59.5 -55.5t82.5 -22.5v-41q-39 0 -117 2t-117 2t-117.5 -2t-117.5 -2v41h45q12 0 35.5 3t33 11t9.5 23q0 31 -58 102l-225 281l-90 -80v-146q0 -121 21.5 -157.5t117.5 -36.5v-41q-127 4 -231 4q-84 0 -252 -4z " />
<glyph unicode="l" horiz-adv-x="1024" d="M72 -4v41q111 0 135 36t24 158v488q0 123 -24.5 158.5t-134.5 35.5v41q168 -4 252 -4t251 4v-41q-111 0 -135 -35.5t-24 -158.5v-471q0 -129 42 -170t199 -41q70 0 121 15.5t79 32.5t48.5 56t26.5 62.5t18 75.5h39l-10 -283q-221 4 -426 4q-260 0 -481 -4z" />
<glyph unicode="m" horiz-adv-x="1478" d="M57 -4v41q104 0 137 33.5t33 154.5v539q0 150 -166 149v41q119 -4 168 -4q57 0 177 4l335 -718l334 718q119 -4 176 -4q47 0 170 4v-41q-168 0 -168 -149v-533q0 -123 25 -158.5t135 -35.5v-41q-168 4 -252 4t-252 -4v41q111 0 135.5 36t24.5 158v566h-4l-379 -789h-22 l-371 805h-4v-588q0 -121 32.5 -154.5t137.5 -33.5v-41q-131 4 -207 4q-64 0 -195 -4z" />
<glyph unicode="n" horiz-adv-x="1251" d="M57 -4v41q104 0 137 33.5t33 154.5v619q-51 66 -166 69v41q66 -4 127 -4q51 0 166 4l602 -731h5v502q0 121 -33 154.5t-137 33.5v41q131 -4 194 -4q74 0 209 4v-41q-106 0 -139 -33.5t-33 -154.5v-752h-61l-668 793h-4v-541q0 -121 32.5 -154.5t137.5 -33.5v-41 q-131 4 -207 4q-64 0 -195 -4z" />
<glyph unicode="o" horiz-adv-x="1251" d="M92 475q0 227 144.5 364.5t390 137.5t389 -137.5t143.5 -364.5t-143.5 -364.5t-389 -137.5t-390 137.5t-144.5 364.5zM303 475.5q0 -196.5 78 -329t244 -132.5q168 0 245.5 132.5t77.5 329t-77.5 328.5t-245.5 132q-166 0 -244 -132t-78 -328.5z" />
<glyph unicode="p" horiz-adv-x="1024" d="M74 -4v41q111 0 135 36t24 158v488q0 123 -24.5 158.5t-134.5 35.5v41q168 -4 252 -4q43 0 128 2t128 2q174 0 285.5 -63.5t111.5 -194.5q0 -260 -447 -260q-72 0 -114 4v-209q0 -123 24.5 -158.5t135.5 -35.5v-41q-168 4 -252 4t-252 -4zM418 481q90 -4 108 -4 q123 0 182.5 50.5t59.5 170.5q0 119 -60.5 167t-181.5 48q-27 0 -41 -1t-32.5 -4t-26.5 -12t-8 -24v-391z" />
<glyph unicode="q" horiz-adv-x="1251" d="M92 475q0 227 144.5 364.5t390 137.5t389 -137.5t143.5 -364.5q0 -111 -34.5 -194.5t-107.5 -145t-148.5 -101.5t-194.5 -85l-123 -47v-4q109 0 193.5 -27t126.5 -59.5t94.5 -59t101.5 -26.5q41 0 61.5 17t23.5 38.5t8 39t20 17.5q37 0 37 -92t-59.5 -147.5t-147.5 -55.5 q-72 0 -135.5 49.5t-104.5 107.5t-98.5 107.5t-114.5 49.5q-49 0 -123 -43q-70 -45 -86 -45q-47 0 -47 43q0 25 25.5 34t67.5 15t65 20l149 90v4q-240 4 -378 141.5t-138 358.5zM303 475.5q0 -196.5 78 -329t244 -132.5q168 0 245.5 132.5t77.5 329t-77.5 328.5t-245.5 132 q-166 0 -244 -132t-78 -328.5z" />
<glyph unicode="r" d="M74 -4v41q111 0 135 36t24 158v488q0 123 -24.5 158.5t-134.5 35.5v41q168 -4 252 -4q43 0 130 2t130 2q176 0 282.5 -57t106.5 -184q0 -98 -80 -167t-213 -77l264 -313q37 -43 57.5 -63.5t57.5 -38t82 -17.5v-41q-94 4 -144 4q-47 0 -145 -4l-311 379q-31 37 -49.5 44 t-75.5 7v-195q0 -123 24.5 -158.5t135.5 -35.5v-41q-168 4 -252 4t-252 -4zM418 473h71q137 0 206 57.5t69 159.5q0 109 -62.5 166t-179.5 57q-104 0 -104 -41v-399z" />
<glyph unicode="s" horiz-adv-x="909" d="M106 0v303h39q16 -123 92 -206t193 -83q102 0 158.5 48.5t56.5 134.5q0 70 -55 117.5t-133 78.5t-156 65t-133 99.5t-55 159.5q0 111 85 185.5t228 74.5q129 0 248 -86l31 67h16l18 -272h-32q-68 141 -107 184q-63 66 -168 66q-72 0 -118 -41t-46 -107q0 -61 55.5 -107 t133.5 -79t155.5 -70.5t133 -104.5t55.5 -159q0 -150 -109.5 -222.5t-267.5 -72.5q-59 0 -130 26t-120 62l-49 -61h-19z" />
<glyph unicode="t" d="M53 707v247q369 -4 516.5 -4t515.5 4v-247h-41q-6 102 -51 149t-155 47h-117q-59 0 -59 -29v-643q0 -123 24.5 -158.5t134.5 -35.5v-41q-168 4 -252 4t-252 -4v41q111 0 135.5 36t24.5 158v643q0 29 -59 29h-117q-111 0 -156 -47t-51 -149h-41z" />
<glyph unicode="u" horiz-adv-x="1251" d="M55 913v41q168 -4 252 -4t252 4v-41q-111 0 -135.5 -35.5t-24.5 -158.5v-420q0 -264 265 -264q301 0 301 313v377q0 121 -33 154.5t-137 33.5v41q131 -4 194 -4q76 0 207 4v-41q-104 0 -137 -33.5t-33 -154.5v-367q0 -193 -96 -289t-305 -96q-410 0 -410 328v418 q0 123 -24.5 158.5t-135.5 35.5z" />
<glyph unicode="v" d="M37 913v41q156 -4 235 -4q102 0 238 4v-41q-137 0 -137 -55q0 -35 55 -186l195 -492l184 422q76 166 76 229q0 25 -6.5 39.5t-22.5 22.5t-27.5 11t-39 5t-37.5 4v41q86 -4 170 -4q59 0 182 4v-41q-41 -2 -69.5 -13t-51.5 -42t-34 -53.5t-34 -77.5l-327 -754h-62l-331 795 q-37 92 -63.5 118.5t-92.5 26.5z" />
<glyph unicode="w" horiz-adv-x="1593" d="M37 913v41q152 -4 229 -4q82 0 242 4v-41q-139 0 -139 -67q0 -23 4 -42.5t15 -51t13 -39.5l170 -508h4l263 745h49l258 -745h4l158 432q45 121 45 178q0 39 -24.5 60.5t-48.5 26.5t-71 11v41q98 -4 170 -4q59 0 178 4v-41q-63 -2 -90.5 -30.5t-52.5 -96.5l-301 -813h-61 l-250 707h-4l-254 -707h-62l-239 668q-10 27 -27.5 79t-24 67.5t-21.5 46t-30.5 41t-41 21.5t-60.5 17z" />
<glyph unicode="x" horiz-adv-x="1251" d="M51 913v41q106 -4 254 -4q80 0 240 4v-41q-121 0 -121 -36q0 -8 3 -15.5t9 -16.5t11.5 -15.5t14.5 -18.5t15 -18l174 -218l123 144q4 4 14.5 16.5t13.5 16.5t11 14l12 15q4 5 9.5 14.5t8.5 15.5t6 13t4 14.5t1 15.5q0 35 -23.5 46t-72.5 13h-15v41q106 -4 181 -4 q68 0 202 4v-41q-53 0 -100 -23.5t-68.5 -44t-60.5 -65.5l-213 -248l289 -348q117 -147 227 -147v-41q-106 4 -254 4q-80 0 -239 -4v41q121 0 120 37q0 8 -3 15t-9 16.5t-11 15.5t-14.5 18.5t-15.5 18.5l-209 248l-139 -175q-4 -4 -14.5 -16t-13.5 -16t-11 -15l-12 -15 q-4 -5 -9.5 -14.5t-8.5 -15.5t-6 -13t-4 -14.5t-1 -15.5q0 -35 23.5 -46t72.5 -13h15v-41q-106 4 -181 4q-68 0 -202 -4v41q53 0 100 23.5t68.5 44t60.5 65.5l229 272l-253 324q-117 147 -228 147z" />
<glyph unicode="y" d="M45 913v41q156 -4 235.5 -4t235.5 4v-41q-59 0 -91 -13t-30 -42q2 -43 62 -147l161 -271l177 265q63 96 63 135q0 20 -7 33.5t-22.5 20.5t-26.5 10t-36 5t-31 4v41q119 -4 178 -4q57 0 181 4v-41q-68 -8 -104 -31.5t-70 -76.5l-271 -404v-170q0 -123 24.5 -158.5 t135.5 -35.5v-41q-168 4 -252 4t-252 -4v41q111 0 135.5 36t24.5 158v140l-252 424q-45 76 -64.5 90t-103.5 28z" />
<glyph unicode="z" horiz-adv-x="1024" d="M70 0l612 909h-266q-106 0 -175 -48t-77 -150h-41l20 239h779l-617 -909h268q147 0 223 45t105 184h37l-18 -270h-850z" />
<glyph unicode="{" horiz-adv-x="573" d="M72 545v8q94 18 124.5 65.5t30.5 151.5v330q0 170 57.5 237.5t217.5 59.5v-4q-78 -20 -111 -73.5t-33 -148.5v-348q0 -119 -33.5 -184.5t-136.5 -85.5v-8q98 -18 134 -76.5t36 -169.5v-381q0 -98 32 -147.5t118 -73.5v-4q-158 0 -219.5 56t-61.5 210v369q1 203 -155 217z " />
<glyph unicode="|" horiz-adv-x="532" d="M199 0v1397h137v-1397h-137z" />
<glyph unicode="}" horiz-adv-x="573" d="M66 1393v4q158 0 219 -56.5t61 -210.5v-368q0 -203 156 -217v-8q-94 -18 -125 -65.5t-31 -152.5v-329q0 -170 -57.5 -237.5t-216.5 -59.5v4q78 20 110.5 73.5t32.5 147.5v348q0 119 34 184.5t136 86.5v8q-98 18 -134 76.5t-36 169.5v380q0 98 -31.5 147.5t-117.5 74.5z " />
<glyph unicode="~" horiz-adv-x="1064" d="M25 412q61 111 127.5 176t164.5 65q76 0 240 -71q164 -74 211 -74q113 0 203 174l69 -76q-127 -227 -290 -227q-25 0 -58 9t-51 17.5t-66.5 31t-58.5 26.5q-131 57 -215 57q-37 0 -65.5 -12t-57 -46t-39 -48.5t-37.5 -61.5q-6 -10 -10 -16z" />
<glyph unicode="&#xa2;" horiz-adv-x="1064" d="M147 653q0 207 142.5 347.5t349.5 140.5q14 -2 42 -2t42 -2l92 227h76l-94 -240q49 -14 87 -45.5t38 -77.5q0 -29 -19.5 -48t-48.5 -19q-78 0 -90 110h-4l-277 -710q94 -57 179 -58q109 0 245 134l41 -41q-129 -158 -338 -158q-78 0 -168 27l-100 -261h-76l113 287 q-106 47 -169 157.5t-63 231.5zM352 668q0 -184 76 -277l274 692q-31 10 -61 11q-82 0 -141.5 -39t-90 -105.5t-44 -136t-13.5 -145.5z" />
<glyph unicode="&#xa3;" horiz-adv-x="1064" d="M37 109q0 72 47 115.5t121 43.5q111 0 201 -53l10 117q0 31 -4 64.5t-14.5 73.5t-16.5 62.5t-23 71.5l-20 62h-246v73h223q-47 168 -47 269q0 168 103.5 268t271.5 100q162 0 258 -80q66 -57 66 -120q0 -35 -21.5 -60.5t-56.5 -25.5q-74 0 -94 102q-14 61 -25 76 q-41 61 -133 61t-147.5 -61.5t-55.5 -155.5q0 -76 23 -172l49 -201h323v-73h-307q29 -111 29 -193q0 -162 -66 -283q137 -57 283 -57q170 0 262 152q6 -119 -62.5 -215.5t-185.5 -96.5q-53 0 -115.5 20.5t-95 38t-102.5 58.5l-35 21q-39 -61 -105.5 -99.5t-138.5 -38.5 q-63 0 -108 37.5t-45 98.5zM88 113q0 -84 113 -84q123 0 186 116q-10 6 -41 22.5t-46 24t-41 14.5t-50 7q-49 0 -85 -26.5t-36 -73.5z" />
<glyph unicode="&#xa5;" horiz-adv-x="1064" d="M-27 1305v47q43 0 127 -4.5t125 -4.5q43 0 129 4.5t129 4.5v-47q-156 0 -155 -66q0 -20 11 -53t33.5 -78t37 -72.5t42 -77t29.5 -51.5l101 -172l145 230q119 190 119 254q0 18 -8.5 32.5t-16.5 22.5t-28.5 14t-29.5 8t-33.5 5.5t-29.5 3.5v47q33 0 100.5 -4.5t102.5 -4.5 q31 0 94.5 4.5t96.5 4.5v-47q-41 -8 -77 -36t-55.5 -54.5t-46.5 -71.5l-210 -332h237v-74h-285l-43 -65v-129h314v-74h-314v-268q0 -100 29 -123t176 -35v-47q-49 0 -145 4t-145.5 4t-148.5 -4t-149 -4v47q147 12 178 35.5t31 122.5v268h-303v74h303v108l-53 86h-262v74h219 l-156 270q-102 174 -139 201q-23 15 -76 23z" />
<glyph unicode="&#xa7;" horiz-adv-x="1024" d="M111 -131q0 51 32.5 90t83.5 39q45 0 79 -35t34 -80q0 -43 -39 -90q-41 -45 -41 -57q0 -53 90 -80t162 -27q117 0 200 59.5t83 172.5q0 37 -17.5 71.5t-35 55t-61.5 49.5t-58.5 36t-65.5 33l-108 58q-154 80 -243 169t-89 226q0 88 49 155.5t133 100.5q-133 115 -133 275 q0 145 94 226t244 81q76 0 151.5 -21.5t135 -77t59.5 -133.5q0 -49 -32 -85t-79 -36t-76.5 29t-29.5 74q0 41 37 80t37 51q0 37 -74 54.5t-127 17.5q-98 0 -170 -48.5t-72 -140.5q0 -45 19.5 -83t60.5 -70.5t67.5 -49t77.5 -45.5l111 -61q143 -80 228 -170t85 -219 q0 -145 -157 -264q139 -104 139 -271q0 -162 -112.5 -254t-278.5 -92q-145 0 -269 75t-124 212zM193 623q0 -41 35.5 -82t65.5 -60.5t83 -50.5q6 -4 10 -6l182 -105l148 -92q119 90 119 179q0 96 -207 208q-8 6 -13 9l-133 73l-147 92q-35 -18 -52.5 -29t-43 -32.5 t-36.5 -47t-11 -56.5z" />
<glyph unicode="&#xa8;" horiz-adv-x="778" d="M135 1245q0 43 31 72t74 29q41 0 72.5 -30t31.5 -71q0 -45 -29.5 -76.5t-74.5 -31.5t-75 31.5t-30 76.5zM416 1245q0 41 31.5 71t72.5 30t73 -30t32 -71q0 -45 -30 -76.5t-75 -31.5t-74.5 31.5t-29.5 76.5z" />
<glyph unicode="&#xa9;" horiz-adv-x="1515" d="M72 672q0 289 198.5 496.5t481.5 207.5q287 0 489.5 -205.5t202.5 -496.5t-202 -496t-488 -205q-283 0 -482.5 206t-199.5 493zM162 672q0 -252 172 -430.5t419.5 -178.5t417.5 177.5t183 433.5q12 254 -168 433t-434 179q-248 0 -419 -180t-171 -434zM385 666 q0 180 108.5 291.5t284.5 111.5q125 0 273 -51v-207h-52q-2 98 -55 152.5t-151 54.5q-135 0 -207 -96.5t-72 -237.5q0 -137 75 -245.5t204 -108.5q166 0 233 149l41 -16q-35 -90 -122 -140.5t-187 -50.5q-166 0 -269.5 111t-103.5 283z" />
<glyph unicode="&#xaa;" horiz-adv-x="696" d="M92 930q0 23 6 43t22.5 38.5t27 30t38 27.5t36.5 21.5t44 20.5t37 17l88 43q10 8 10 27q0 72 -17 106.5t-81 34.5q-102 0 -104 -51q-4 -74 -54 -74q-23 0 -37 14.5t-14 35.5q0 61 72 86.5t147 25.5q115 0 158 -40t43 -150v-178q0 -123 37 -123q6 0 12 2t11.5 7t8.5 9 t8 12.5t7 10.5l31 -19q-14 -35 -47 -62.5t-66 -27.5q-35 0 -65.5 23.5t-40.5 58.5q-100 -82 -195 -82q-51 0 -87 31t-36 82zM209 958q0 -33 18.5 -56t51.5 -23q61 0 122 65v184q-4 -2 -44 -21.5t-55 -28.5t-43 -29.5t-39 -42t-11 -48.5z" />
<glyph unicode="&#xab;" horiz-adv-x="983" d="M143 453q63 53 187 159l121 115q2 2 10 9t15 12.5t13 5.5q16 0 17 -17q0 -39 -113 -170l-94 -114l90 -113q115 -145 115 -176q0 -20 -19 -21q-8 0 -15 5.5t-16 14.5l-12 11zM477 453q63 53 187 159l120 115q2 2 10.5 9t15.5 12.5t13 5.5q16 0 17 -17q0 -39 -113 -170 l-94 -114l90 -113q115 -145 115 -176q0 -20 -19 -21q-8 0 -15 5.5t-17 14.5l-11 11z" />
<glyph unicode="&#xac;" horiz-adv-x="1064" d="M68 641v94h929v-510h-94v416h-835z" />
<glyph unicode="&#xad;" horiz-adv-x="681" d="M0 391v137h494v-137h-494z" />
<glyph unicode="&#xae;" horiz-adv-x="1515" d="M72 676q0 289 201.5 494.5t486 205.5t484.5 -205.5t200 -494.5q0 -291 -200 -497t-484 -206q-287 0 -487.5 206t-200.5 497zM162 676q0 -256 174 -434.5t424 -178.5t422 178.5t172 434.5q0 254 -172 432t-422 178t-424 -178t-174 -432zM438 1051v30h342q248 0 248 -192 q0 -86 -60.5 -138.5t-148.5 -62.5v-4h4v-2h4q12 0 24.5 -5t24 -14.5t20.5 -18.5t18.5 -24.5t16.5 -25.5t16 -28.5t14 -27.5l12 -28q8 -18 10 -25q47 -100 61 -118q25 -23 74 -23v-31h-86q-55 0 -82 23q-33 27 -78 147q-4 8 -20 48t-30.5 67t-30.5 41q-31 29 -119 29h-35 v-252q0 -47 14.5 -58.5t61.5 -13.5h18v-31h-291v31q10 0 28.5 2t25 2t16.5 4t13 10.5t6 16.5t3 27v585q0 10 -1 18.5t-3 14.5t-7 10t-8 6t-13 4l-16 4q-5 1 -21.5 2t-24.5 1zM637 705h53q231 0 232 174q0 84 -48.5 126t-130.5 42h-53q-27 0 -39 -14.5t-13 -26t-1 -43.5v-258 z" />
<glyph unicode="&#xb0;" horiz-adv-x="819" d="M154 1120q-2 104 73.5 180t182.5 76q104 0 180 -75.5t76 -180.5q0 -106 -76 -181t-180 -75q-106 0 -181 75t-75 181zM221 1120q0 -78 55.5 -133t133 -55t133 55t55.5 133t-56.5 133.5t-133.5 55.5q-76 0 -131.5 -55.5t-55.5 -133.5z" />
<glyph unicode="&#xb1;" horiz-adv-x="1064" d="M68 0v94h929v-94h-929zM68 575v95h417v364h95v-364h417v-95h-417v-370h-95v370h-417z" />
<glyph unicode="&#xb4;" horiz-adv-x="737" d="M135 1085l320 254q57 47 90 47q31 0 51 -21.5t20 -49.5q0 -18 -7 -33.5t-25.5 -29t-28.5 -18.5t-38 -16.5t-32 -13.5l-274 -119h-76z" />
<glyph unicode="&#xb5;" horiz-adv-x="1187" d="M39 844v39q29 -2 85 -4t85 -5q27 2 81 5.5t79 3.5v-559q0 -57 5 -97.5t19.5 -88.5t51 -73.5t94.5 -25.5q119 0 199.5 91t80.5 212v274q0 131 -12 158q-23 51 -143 70v41q29 -2 85 -5t85 -6q27 2 80 5.5t79 5.5v-660q0 -39 2 -62.5t20.5 -49t53.5 -25.5q10 0 23.5 1t30 3 t24.5 2v-47l-285 -74l-43 193q-57 -86 -149 -139.5t-193 -53.5q-72 0 -123 23q10 -100 37 -229q25 -139 25 -179q0 -57 -28 -100t-83 -43q-51 0 -80.5 41t-29.5 94v1036q0 131 -13 158q-22 52 -143 70z" />
<glyph unicode="&#x3bc;" horiz-adv-x="1187" d="M39 844v39q29 -2 85 -4t85 -5q27 2 81 5.5t79 3.5v-559q0 -57 5 -97.5t19.5 -88.5t51 -73.5t94.5 -25.5q119 0 199.5 91t80.5 212v274q0 131 -12 158q-23 51 -143 70v41q29 -2 85 -5t85 -6q27 2 80 5.5t79 5.5v-660q0 -39 2 -62.5t20.5 -49t53.5 -25.5q10 0 23.5 1t30 3 t24.5 2v-47l-285 -74l-43 193q-57 -86 -149 -139.5t-193 -53.5q-72 0 -123 23q10 -100 37 -229q25 -139 25 -179q0 -57 -28 -100t-83 -43q-51 0 -80.5 41t-29.5 94v1036q0 131 -13 158q-22 52 -143 70z" />
<glyph unicode="&#xb6;" horiz-adv-x="1228" d="M68 983q0 102 41 175t112.5 112t152.5 56t177 17h496v-47q-25 2 -51.5 0t-50 -6t-44 -18.5t-31.5 -38.5q-18 -43 -18 -221v-963q0 -217 22 -276q8 -18 21.5 -31.5t34 -19t36 -7.5t43 -3t38.5 -3v-47h-328v1616h-94v-1616h-349v47h36q30 0 41.5 1t36 5t36.5 11.5 t26.5 20.5t20.5 32q18 55 19 270v584q-8 0 -29 -1t-29 -1q-174 0 -270 89t-96 263z" />
<glyph unicode="&#xb7;" horiz-adv-x="655" d="M197 520q0 53 37.5 93t91.5 40q55 0 94 -39t39 -94q0 -53 -38 -94t-93 -41q-53 0 -92 40t-39 95z" />
<glyph unicode="&#x2219;" horiz-adv-x="655" d="M197 520q0 53 37.5 93t91.5 40q55 0 94 -39t39 -94q0 -53 -38 -94t-93 -41q-53 0 -92 40t-39 95z" />
<glyph unicode="&#xb8;" horiz-adv-x="614" d="M135 -248q0 16 11.5 28.5t25.5 12.5q31 0 47 -47q18 -53 72 -53q37 0 60.5 19.5t23.5 54.5q0 88 -123 88q-8 0 -24.5 -1t-24.5 -1l55 147h57l-36 -102q70 2 127 -29t57 -96q0 -59 -47 -92t-111 -33q-53 0 -111.5 28.5t-58.5 75.5z" />
<glyph unicode="&#xba;" horiz-adv-x="737" d="M80 1104q0 115 86 193.5t201 78.5q117 0 203.5 -81t86.5 -195q0 -121 -84 -202t-206 -81q-119 0 -203 84t-84 203zM209 1108q0 -254 168 -254q82 0 116.5 72.5t34.5 165.5q0 96 -35.5 171.5t-121.5 75.5q-88 0 -125 -68.5t-37 -162.5z" />
<glyph unicode="&#xbb;" horiz-adv-x="983" d="M143 168q0 39 113 170l94 115l-90 112q-115 145 -115 176q0 20 19 21q8 0 15 -5t17 -15l11 -11l299 -278q-63 -53 -187 -160l-120 -115q-2 -2 -10.5 -9t-15.5 -12t-13 -5q-17 0 -17 16zM477 168q0 39 113 170l94 115l-90 112q-115 145 -115 176q0 20 19 21q8 0 15 -5 t16 -15l12 -11l299 -278q-63 -53 -187 -160l-121 -115q-2 -2 -10 -9t-15 -12t-13 -5q-17 0 -17 16z" />
<glyph unicode="&#xc0;" horiz-adv-x="1351" d="M-47 -4v47q84 10 125 40t72 105q29 66 85 196t84 196l314 804h69l414 -1040q6 -12 28.5 -66.5t42 -96.5t36.5 -62q45 -61 176 -76v-47q-47 0 -145.5 4t-145.5 4q-49 0 -148.5 -4t-148.5 -4v47h18q14 0 20.5 1t21 2t21.5 2t19.5 4t18.5 7l15 11q9 6 13.5 13t7.5 16.5 t3 21.5q0 55 -41 160l-80 211h-506l-18 -52q-4 -8 -21.5 -52t-27 -69.5t-23.5 -64.5t-20.5 -69.5t-6.5 -53.5q0 -20 9.5 -36.5t19.5 -25t31.5 -13.5t34 -7t39 -4t32.5 -2v-47q-39 0 -112.5 4t-112.5 4q-35 0 -106.5 -4t-106.5 -4zM369 557h452l-225 578zM442 1712 q0 29 20.5 50.5t49.5 21.5q33 0 90 -47l322 -254h-76l-277 119q-2 0 -25.5 10t-30.5 13t-25.5 13.5t-25.5 19.5t-14.5 23.5t-7.5 30.5z" />
<glyph unicode="&#xc1;" horiz-adv-x="1351" d="M-47 -4v47q84 10 125 40t72 105q29 66 85 196t84 196l314 804h69l414 -1040q6 -12 28.5 -66.5t42 -96.5t36.5 -62q45 -61 176 -76v-47q-47 0 -145.5 4t-145.5 4q-49 0 -148.5 -4t-148.5 -4v47h18q14 0 20.5 1t21 2t21.5 2t19.5 4t18.5 7l15 11q9 6 13.5 13t7.5 16.5 t3 21.5q0 55 -41 160l-80 211h-506l-18 -52q-4 -8 -21.5 -52t-27 -69.5t-23.5 -64.5t-20.5 -69.5t-6.5 -53.5q0 -20 9.5 -36.5t19.5 -25t31.5 -13.5t34 -7t39 -4t32.5 -2v-47q-39 0 -112.5 4t-112.5 4q-35 0 -106.5 -4t-106.5 -4zM369 557h452l-225 578zM442 1482l320 254 q57 47 90 47q31 0 51 -21.5t20 -49.5q0 -18 -7 -33.5t-25.5 -29t-28.5 -18.5t-38 -16.5t-32 -13.5l-274 -119h-76z" />
<glyph unicode="&#xc2;" horiz-adv-x="1351" d="M-47 -4v47q84 10 125 40t72 105q29 66 85 196t84 196l314 804h69l414 -1040q6 -12 28.5 -66.5t42 -96.5t36.5 -62q45 -61 176 -76v-47q-47 0 -145.5 4t-145.5 4q-49 0 -148.5 -4t-148.5 -4v47h18q14 0 20.5 1t21 2t21.5 2t19.5 4t18.5 7l15 11q9 6 13.5 13t7.5 16.5 t3 21.5q0 55 -41 160l-80 211h-506l-18 -52q-4 -8 -21.5 -52t-27 -69.5t-23.5 -64.5t-20.5 -69.5t-6.5 -53.5q0 -20 9.5 -36.5t19.5 -25t31.5 -13.5t34 -7t39 -4t32.5 -2v-47q-39 0 -112.5 4t-112.5 4q-35 0 -106.5 -4t-106.5 -4zM369 557h452l-225 578zM381 1483l233 301 h113l225 -301h-63l-219 164l-228 -164h-61z" />
<glyph unicode="&#xc3;" horiz-adv-x="1351" d="M-47 -4v47q84 10 125 40t72 105q29 66 85 196t84 196l314 804h69l414 -1040q6 -12 28.5 -66.5t42 -96.5t36.5 -62q45 -61 176 -76v-47q-47 0 -145.5 4t-145.5 4q-49 0 -148.5 -4t-148.5 -4v47h18q14 0 20.5 1t21 2t21.5 2t19.5 4t18.5 7l15 11q9 6 13.5 13t7.5 16.5 t3 21.5q0 55 -41 160l-80 211h-506l-18 -52q-4 -8 -21.5 -52t-27 -69.5t-23.5 -64.5t-20.5 -69.5t-6.5 -53.5q0 -20 9.5 -36.5t19.5 -25t31.5 -13.5t34 -7t39 -4t32.5 -2v-47q-39 0 -112.5 4t-112.5 4q-35 0 -106.5 -4t-106.5 -4zM369 557h452l-225 578zM381 1577 q12 72 64.5 126t121.5 54q43 0 144 -41q100 -39 127 -39q51 0 71 72h54q-6 -66 -56 -125q-53 -61 -116 -61q-51 0 -154 43q-94 41 -129 41q-47 0 -72 -70h-55z" />
<glyph unicode="&#xc4;" horiz-adv-x="1351" d="M-47 -4v47q84 10 125 40t72 105q29 66 85 196t84 196l314 804h69l414 -1040q6 -12 28.5 -66.5t42 -96.5t36.5 -62q45 -61 176 -76v-47q-47 0 -145.5 4t-145.5 4q-49 0 -148.5 -4t-148.5 -4v47h18q14 0 20.5 1t21 2t21.5 2t19.5 4t18.5 7l15 11q9 6 13.5 13t7.5 16.5 t3 21.5q0 55 -41 160l-80 211h-506l-18 -52q-4 -8 -21.5 -52t-27 -69.5t-23.5 -64.5t-20.5 -69.5t-6.5 -53.5q0 -20 9.5 -36.5t19.5 -25t31.5 -13.5t34 -7t39 -4t32.5 -2v-47q-39 0 -112.5 4t-112.5 4q-35 0 -106.5 -4t-106.5 -4zM369 557h452l-225 578zM422 1642 q0 43 31 72t74 29q41 0 72.5 -30t31.5 -71q0 -45 -29.5 -76.5t-74.5 -31.5t-75 31.5t-30 76.5zM703 1642q0 41 31.5 71t72.5 30t73 -30t32 -71q0 -45 -30 -76.5t-75 -31.5t-74.5 31.5t-29.5 76.5z" />
<glyph unicode="&#xc5;" horiz-adv-x="1351" d="M-47 -4v47q84 10 125 40t72 105q29 66 85 196t84 196l314 804h69l414 -1040q6 -12 28.5 -66.5t42 -96.5t36.5 -62q45 -61 176 -76v-47q-47 0 -145.5 4t-145.5 4q-49 0 -148.5 -4t-148.5 -4v47h18q14 0 20.5 1t21 2t21.5 2t19.5 4t18.5 7l15 11q9 6 13.5 13t7.5 16.5 t3 21.5q0 55 -41 160l-80 211h-506l-18 -52q-4 -8 -21.5 -52t-27 -69.5t-23.5 -64.5t-20.5 -69.5t-6.5 -53.5q0 -20 9.5 -36.5t19.5 -25t31.5 -13.5t34 -7t39 -4t32.5 -2v-47q-39 0 -112.5 4t-112.5 4q-35 0 -106.5 -4t-106.5 -4zM369 557h452l-225 578zM483 1658.5 q0 75.5 56.5 130t132.5 54.5q78 0 136 -52.5t58 -127.5q0 -82 -55 -136.5t-137 -54.5q-78 0 -134.5 55.5t-56.5 131zM553 1659q0 -53 37 -90t88 -37q49 0 84 37.5t35 87.5q0 53 -36 91t-89 38q-51 0 -85 -38t-34 -89z" />
<glyph unicode="&#xc6;" horiz-adv-x="1802" d="M-61 -4v51q74 6 127 43t153 223l459 877q2 4 13 25.5t18.5 39t7.5 25.5q0 16 -64 16h-127v56h1092v-310h-47q-14 88 -40 140.5t-77 77t-101 30.5t-145 6h-147q-47 0 -51 -8q-2 -6 -2 -76v-485q193 -8 258 56.5t75 195.5h48q-4 -188 -9 -279q4 -82 9 -254h-48 q-20 150 -91.5 188t-241.5 38v-336q0 -158 36 -207q59 -78 263 -74q92 2 147 11.5t109.5 36t83 83t39.5 144.5h47l-19 -330h-1114v47q45 0 71.5 2t59.5 18.5t45 49.5q20 55 21 272v268h-322l-205 -395q-45 -78 -47 -123q-2 -25 9.5 -43t25.5 -27.5t41 -14.5t42 -6t44 -1v-51 q-135 10 -233 8q-88 2 -213 -8zM508 723h289v559h-4z" />
<glyph unicode="&#xc7;" horiz-adv-x="1392" d="M96 659q0 311 203 514t514 203q123 0 214 -28.5t202 -98.5l33 97h30l17 -404h-47q-27 174 -142.5 280.5t-290.5 106.5q-131 0 -228 -60.5t-148.5 -160.5t-76 -212t-24.5 -237q0 -123 25.5 -231.5t79 -202.5t149.5 -149.5t228 -55.5q104 0 182 34t129 100.5t84 140.5 t57 176h37v-448h-27l-49 104q-195 -154 -450 -154l-27 -75q70 2 127 -29t57 -96q0 -59 -47 -92t-110 -33q-53 0 -111.5 28.5t-58.5 75.5q0 16 11 28.5t26 12.5q31 0 47 -47q18 -53 71 -53q37 0 60.5 19.5t23.5 54.5q0 88 -123 88q-8 0 -24.5 -1t-24.5 -1l47 122 q-293 16 -469 201.5t-176 482.5z" />
<glyph unicode="&#xc8;" horiz-adv-x="1269" d="M53 0v47q45 0 72 2t59.5 18.5t44.5 49.5q20 55 21 272v565q0 217 -21 273q-18 45 -62 57t-114 12v56h1018v-310h-47q-14 88 -40 140.5t-77 77t-101 30.5t-144 6h-148q-47 0 -51 -8q-2 -6 -2 -76v-485q193 -8 258 56.5t76 195.5h47q-4 -188 -8 -279q4 -82 8 -254h-47 q-20 150 -92 188t-242 38v-336q0 -158 37 -207q59 -78 262 -74q92 2 147.5 11.5t109.5 36t82.5 83t39.5 144.5h47l-19 -330h-1114zM401 1712q0 29 20.5 50.5t49.5 21.5q33 0 90 -47l322 -254h-76l-277 119q-2 0 -25.5 10t-30.5 13t-25.5 13.5t-25.5 19.5t-14.5 23.5 t-7.5 30.5z" />
<glyph unicode="&#xc9;" horiz-adv-x="1269" d="M53 0v47q45 0 72 2t59.5 18.5t44.5 49.5q20 55 21 272v565q0 217 -21 273q-18 45 -62 57t-114 12v56h1018v-310h-47q-14 88 -40 140.5t-77 77t-101 30.5t-144 6h-148q-47 0 -51 -8q-2 -6 -2 -76v-485q22 -1 42 -1q158 0 216 57q66 65 76 196h47q-4 -188 -8 -279 q4 -82 8 -254h-47q-20 150 -92 188t-242 38v-336q0 -158 37 -207q56 -74 242 -74h20q92 2 147.5 11.5t109.5 36t82.5 83t39.5 144.5h47l-19 -330h-1114zM401 1482l320 254q57 47 90 47q31 0 51 -21.5t20 -49.5q0 -18 -7 -33.5t-25.5 -29t-28.5 -18.5t-38 -16.5t-32 -13.5 l-274 -119h-76z" />
<glyph unicode="&#xca;" horiz-adv-x="1269" d="M53 0v47q45 0 72 2t59.5 18.5t44.5 49.5q20 55 21 272v565q0 217 -21 273q-18 45 -62 57t-114 12v56h1018v-310h-47q-14 88 -40 140.5t-77 77t-101 30.5t-144 6h-148q-47 0 -51 -8q-2 -6 -2 -76v-485q193 -8 258 56.5t76 195.5h47q-4 -188 -8 -279q4 -82 8 -254h-47 q-20 150 -92 188t-242 38v-336q0 -158 37 -207q59 -78 262 -74q92 2 147.5 11.5t109.5 36t82.5 83t39.5 144.5h47l-19 -330h-1114zM340 1483l233 301h113l225 -301h-63l-219 164l-228 -164h-61z" />
<glyph unicode="&#xcb;" horiz-adv-x="1269" d="M53 0v47q45 0 72 2t59.5 18.5t44.5 49.5q20 55 21 272v565q0 217 -21 273q-18 45 -62 57t-114 12v56h1018v-310h-47q-14 88 -40 140.5t-77 77t-101 30.5t-144 6h-148q-47 0 -51 -8q-2 -6 -2 -76v-485q22 -1 42 -1q158 0 216 57q66 65 76 196h47q-4 -188 -8 -279 q4 -82 8 -254h-47q-20 150 -92 188t-242 38v-336q0 -158 37 -207q56 -74 242 -74h20q92 2 147.5 11.5t109.5 36t82.5 83t39.5 144.5h47l-19 -330h-1114zM381 1642q0 43 31 72t74 29q41 0 72.5 -30t31.5 -71q0 -45 -29.5 -76.5t-74.5 -31.5t-75 31.5t-30 76.5zM662 1642 q0 41 31.5 71t72.5 30t73 -30t32 -71q0 -45 -30 -76.5t-75 -31.5t-74.5 31.5t-29.5 76.5z" />
<glyph unicode="&#xcc;" horiz-adv-x="737" d="M68 -4v47q45 0 71.5 2t59 18.5t45.5 49.5q20 55 20 272v578q0 217 -20 272q-18 45 -62.5 57.5t-113.5 12.5v47q49 0 147 -4.5t147 -4.5q53 2 156 5.5t154 3.5v-47q-45 0 -72 -2.5t-59.5 -18.5t-44.5 -49q-20 -55 -21 -272v-578q0 -217 21 -272q18 -45 62 -57.5t114 -12.5 v-47q-47 0 -146.5 3t-148.5 5q-51 0 -154.5 -4t-154.5 -4zM135 1712q0 29 20.5 50.5t49.5 21.5q33 0 90 -47l321 -254h-75l-277 119q-2 0 -25.5 10t-30.5 13t-25.5 13.5t-25.5 19.5t-14.5 23.5t-7.5 30.5z" />
<glyph unicode="&#xcd;" horiz-adv-x="737" d="M68 -4v47q45 0 71.5 2t59 18.5t45.5 49.5q20 55 20 272v578q0 217 -20 272q-18 45 -62.5 57.5t-113.5 12.5v47q49 0 147 -4.5t147 -4.5q53 2 156 5.5t154 3.5v-47q-45 0 -72 -2.5t-59.5 -18.5t-44.5 -49q-20 -55 -21 -272v-578q0 -217 21 -272q18 -45 62 -57.5t114 -12.5 v-47q-47 0 -146.5 3t-148.5 5q-51 0 -154.5 -4t-154.5 -4zM135 1482l320 254q57 47 90 47q31 0 51 -21.5t20 -49.5q0 -18 -7 -33.5t-25.5 -29t-28.5 -18.5t-38 -16.5t-32 -13.5l-274 -119h-76z" />
<glyph unicode="&#xce;" horiz-adv-x="737" d="M68 -4v47q45 0 71.5 2t59 18.5t45.5 49.5q20 55 20 272v578q0 217 -20 272q-18 45 -62.5 57.5t-113.5 12.5v47q49 0 147 -4.5t147 -4.5q53 2 156 5.5t154 3.5v-47q-45 0 -72 -2.5t-59.5 -18.5t-44.5 -49q-20 -55 -21 -272v-578q0 -217 21 -272q18 -45 62 -57.5t114 -12.5 v-47q-47 0 -146.5 3t-148.5 5q-51 0 -154.5 -4t-154.5 -4zM74 1483l233 301h113l225 -301h-63l-220 164l-227 -164h-61z" />
<glyph unicode="&#xcf;" horiz-adv-x="737" d="M68 -4v47q45 0 71.5 2t59 18.5t45.5 49.5q20 55 20 272v578q0 217 -20 272q-18 45 -62.5 57.5t-113.5 12.5v47q49 0 147 -4.5t147 -4.5q53 2 156 5.5t154 3.5v-47q-45 0 -72 -2.5t-59.5 -18.5t-44.5 -49q-20 -55 -21 -272v-578q0 -217 21 -272q18 -45 62 -57.5t114 -12.5 v-47q-47 0 -146.5 3t-148.5 5q-51 0 -154.5 -4t-154.5 -4zM115 1642q0 43 31 72t74 29q41 0 72.5 -30t31.5 -71q0 -45 -29.5 -76.5t-74.5 -31.5t-75 31.5t-30 76.5zM396 1642q0 41 31.5 71t72.5 30t73 -30t32 -71q0 -45 -30 -76.5t-75 -31.5t-74.5 31.5t-29.5 76.5z" />
<glyph unicode="&#xd0;" horiz-adv-x="1515" d="M57 -4v47q45 0 72 2t59.5 18.5t42.5 49.5q18 55 19 272v283h-162v73h162v217q0 217 -19 273q-8 25 -25.5 41t-47 21t-47 6t-54.5 1v52q41 0 128 -3t130 -6q55 0 166 4.5t166 4.5q330 6 545 -186.5t215 -520.5q0 -319 -191.5 -488t-515.5 -161q-61 0 -182 4t-182 4 q-47 -2 -140.5 -5t-138.5 -3zM460 261q1 -13 4 -44t10 -51.5t20 -36.5q53 -78 229 -78q129 0 217 43t132 126t61.5 175t17.5 217q0 332 -123 508t-432 176q-109 0 -123 -14q-12 -12 -12 -63v-478h205v-73h-205v-312q0 -2 -1 -42t0 -53z" />
<glyph unicode="&#xd1;" horiz-adv-x="1556" d="M45 1305v47q33 0 97.5 -4.5t97.5 -4.5q27 0 81 4.5t80 4.5l865 -1055h4v569q0 231 -19 316q-6 25 -12 42t-17.5 29.5t-19.5 19.5t-27.5 12t-28.5 7t-37 6.5t-40 6.5v47q37 0 112.5 -4.5t112.5 -4.5q35 0 107 3.5t110 5.5v-47q-6 0 -29.5 -2.5t-29.5 -4.5t-23.5 -5 t-24.5 -9t-18.5 -15t-17.5 -22.5t-12 -32.5q-25 -78 -25 -358v-883h-61q-45 55 -135 170l-801 971h-4v-688q0 -229 30 -299q8 -16 16.5 -28.5t22 -21.5t22.5 -14.5t27.5 -8.5t26.5 -5t31.5 -4t32.5 -2v-47q-39 0 -118 4t-118 4q-37 0 -112.5 -4t-114.5 -4v47q43 4 60.5 7 t48 12.5t45 30t22.5 50.5q16 74 16 283v756q-49 70 -95 95.5t-128 27.5zM483 1577q12 72 64.5 126t122.5 54q43 0 143 -41q100 -39 127 -39q51 0 72 72h53q-6 -66 -55 -125q-53 -61 -117 -62q-51 0 -154 43q-94 41 -129 41q-47 0 -72 -69h-55z" />
<glyph unicode="&#xd2;" horiz-adv-x="1679" d="M96 670q0 299 224.5 502.5t527.5 203.5q301 0 518 -197.5t217 -494.5q0 -311 -214 -511t-529 -200q-307 0 -525.5 197t-218.5 500zM352 670q0 -127 27 -236.5t83 -203t155.5 -147.5t234.5 -54q131 0 227.5 57t148.5 153.5t75.5 205t23.5 231.5q0 96 -15.5 185t-52 174 t-92 147.5t-139.5 100.5t-188 38q-127 0 -224.5 -58.5t-152.5 -154.5t-83 -207.5t-28 -230.5zM606 1712q0 29 20.5 50.5t49.5 21.5q33 0 90 -47l321 -254h-75l-277 119q-2 0 -25.5 10t-30.5 13t-25.5 13.5t-25.5 19.5t-14.5 23.5t-7.5 30.5z" />
<glyph unicode="&#xd3;" horiz-adv-x="1679" d="M96 670q0 299 224.5 502.5t527.5 203.5q301 0 518 -197.5t217 -494.5q0 -311 -214 -511t-529 -200q-307 0 -525.5 197t-218.5 500zM352 670q0 -127 27 -236.5t83 -203t155.5 -147.5t234.5 -54q131 0 227.5 57t148.5 153.5t75.5 205t23.5 231.5q0 96 -15.5 185t-52 174 t-92 147.5t-139.5 100.5t-188 38q-127 0 -224.5 -58.5t-152.5 -154.5t-83 -207.5t-28 -230.5zM606 1482l320 254q57 47 90 47q31 0 51 -21.5t20 -49.5q0 -18 -7 -33.5t-25.5 -29t-28.5 -18.5t-38 -16.5t-32 -13.5l-274 -119h-76z" />
<glyph unicode="&#xd4;" horiz-adv-x="1679" d="M96 670q0 299 224.5 502.5t527.5 203.5q301 0 518 -197.5t217 -494.5q0 -311 -214 -511t-529 -200q-307 0 -525.5 197t-218.5 500zM352 670q0 -127 27 -236.5t83 -203t155.5 -147.5t234.5 -54q131 0 227.5 57t148.5 153.5t75.5 205t23.5 231.5q0 96 -15.5 185t-52 174 t-92 147.5t-139.5 100.5t-188 38q-127 0 -224.5 -58.5t-152.5 -154.5t-83 -207.5t-28 -230.5zM545 1483l233 301h113l225 -301h-63l-219 164l-228 -164h-61z" />
<glyph unicode="&#xd5;" horiz-adv-x="1679" d="M96 670q0 299 224.5 502.5t527.5 203.5q301 0 518 -197.5t217 -494.5q0 -311 -214 -511t-529 -200q-307 0 -525.5 197t-218.5 500zM352 670q0 -127 27 -236.5t83 -203t155.5 -147.5t234.5 -54q131 0 227.5 57t148.5 153.5t75.5 205t23.5 231.5q0 96 -15.5 185t-52 174 t-92 147.5t-139.5 100.5t-188 38q-127 0 -224.5 -58.5t-152.5 -154.5t-83 -207.5t-28 -230.5zM545 1577q12 72 64.5 126t122.5 54q43 0 143 -41q100 -39 127 -39q51 0 72 72h53q-6 -66 -55 -125q-53 -61 -117 -62q-51 0 -154 43q-94 41 -129 41q-47 0 -72 -69h-55z" />
<glyph unicode="&#xd6;" horiz-adv-x="1679" d="M96 670q0 299 224.5 502.5t527.5 203.5q301 0 518 -197.5t217 -494.5q0 -311 -214 -511t-529 -200q-307 0 -525.5 197t-218.5 500zM352 670q0 -127 27 -236.5t83 -203t155.5 -147.5t234.5 -54q131 0 227.5 57t148.5 153.5t75.5 205t23.5 231.5q0 96 -15.5 185t-52 174 t-92 147.5t-139.5 100.5t-188 38q-127 0 -224.5 -58.5t-152.5 -154.5t-83 -207.5t-28 -230.5zM586 1642q0 43 31 72t74 29q41 0 72.5 -30t31.5 -71q0 -45 -29.5 -76.5t-74.5 -31.5t-75 31.5t-30 76.5zM867 1642q0 41 31.5 71t72.5 30t73 -30t32 -71q0 -45 -30 -76.5 t-75 -31.5t-74.5 31.5t-29.5 76.5z" />
<glyph unicode="&#xd8;" horiz-adv-x="1679" d="M96 662q0 305 220.5 509.5t529.5 204.5q201 0 356 -88l135 197h107l-170 -242q309 -203 309 -571q0 -297 -218 -498t-521 -201q-221 0 -379 90l-156 -223h-108l188 269q-139 98 -216 240.5t-77 312.5zM352 682q0 -272 117 -457l672 979q-117 117 -297 117 q-127 0 -225.5 -56.5t-154.5 -149.5t-84 -203.5t-28 -229.5zM526 156q139 -127 301 -127q176 0 292 92t162 229t46 312q0 305 -127 473z" />
<glyph unicode="&#xd9;" horiz-adv-x="1597" d="M57 1305v47q49 0 145.5 -4.5t145.5 -4.5q53 0 155.5 4.5t155.5 4.5v-47q-37 0 -54 -1t-47 -6.5t-48 -21.5t-27 -41q-18 -55 -18 -272v-504q0 -205 90 -308.5t293 -103.5q424 0 424 422v449q0 229 -21 292q-18 57 -66 76t-124 19v47q41 0 118.5 -4.5t118.5 -4.5 q37 0 114 3.5t116 5.5v-47q-102 -4 -133 -29q-23 -16 -33 -45q-29 -74 -29 -313v-379q0 -287 -125 -426.5t-409 -139.5q-283 0 -414 114t-131 386v490q0 217 -21 272q-18 45 -62 57.5t-114 12.5zM565 1712q0 29 20.5 50.5t49.5 21.5q33 0 90 -47l322 -254h-76l-277 119 q-2 0 -25.5 10t-30.5 13t-25.5 13.5t-25.5 19.5t-14.5 23.5t-7.5 30.5z" />
<glyph unicode="&#xda;" horiz-adv-x="1597" d="M57 1305v47q49 0 145.5 -4.5t145.5 -4.5q53 0 155.5 4.5t155.5 4.5v-47q-37 0 -54 -1t-47 -6.5t-48 -21.5t-27 -41q-18 -55 -18 -272v-504q0 -205 90 -308.5t293 -103.5q424 0 424 422v449q0 229 -21 292q-18 57 -66 76t-124 19v47q41 0 118.5 -4.5t118.5 -4.5 q37 0 114 3.5t116 5.5v-47q-102 -4 -133 -29q-23 -16 -33 -45q-29 -74 -29 -313v-379q0 -287 -125 -426.5t-409 -139.5q-283 0 -414 114t-131 386v490q0 217 -21 272q-18 45 -62 57.5t-114 12.5zM565 1482l320 254q57 47 90 47q31 0 51 -21.5t20 -49.5q0 -18 -7 -33.5 t-25.5 -29t-28.5 -18.5t-38 -16.5t-32 -13.5l-274 -119h-76z" />
<glyph unicode="&#xdb;" horiz-adv-x="1597" d="M57 1305v47q49 0 145.5 -4.5t145.5 -4.5q53 0 155.5 4.5t155.5 4.5v-47q-37 0 -54 -1t-47 -6.5t-48 -21.5t-27 -41q-18 -55 -18 -272v-504q0 -205 90 -308.5t293 -103.5q424 0 424 422v449q0 229 -21 292q-18 57 -66 76t-124 19v47q41 0 118.5 -4.5t118.5 -4.5 q37 0 114 3.5t116 5.5v-47q-102 -4 -133 -29q-23 -16 -33 -45q-29 -74 -29 -313v-379q0 -287 -125 -426.5t-409 -139.5q-283 0 -414 114t-131 386v490q0 217 -21 272q-18 45 -62 57.5t-114 12.5zM504 1483l233 301h113l225 -301h-63l-219 164l-228 -164h-61z" />
<glyph unicode="&#xdc;" horiz-adv-x="1597" d="M57 1305v47q49 0 145.5 -4.5t145.5 -4.5q53 0 155.5 4.5t155.5 4.5v-47q-37 0 -54 -1t-47 -6.5t-48 -21.5t-27 -41q-18 -55 -18 -272v-504q0 -205 90 -308.5t293 -103.5q424 0 424 422v449q0 229 -21 292q-18 57 -66 76t-124 19v47q41 0 118.5 -4.5t118.5 -4.5 q37 0 114 3.5t116 5.5v-47q-102 -4 -133 -29q-23 -16 -33 -45q-29 -74 -29 -313v-379q0 -287 -125 -426.5t-409 -139.5q-283 0 -414 114t-131 386v490q0 217 -21 272q-18 45 -62 57.5t-114 12.5zM545 1642q0 43 31 72t74 29q41 0 72.5 -30t31.5 -71q0 -45 -29.5 -76.5 t-74.5 -31.5t-75 31.5t-30 76.5zM826 1642q0 41 31.5 71t72.5 30t73 -30t32 -71q0 -45 -30 -76.5t-75 -31.5t-74.5 31.5t-29.5 76.5z" />
<glyph unicode="&#xdd;" horiz-adv-x="1064" d="M-137 1305v47q47 0 139 -4.5t139 -4.5t143.5 4.5t145.5 4.5v-47q-154 0 -154 -66q0 -45 54 -143l266 -494l131 209q203 338 203 408q0 12 -3 22t-10.5 18.5t-12.5 14.5t-17.5 10t-19.5 7t-22.5 5t-21.5 3t-21.5 3.5t-19.5 2.5v47q37 0 110 -4.5t109 -4.5q35 0 100.5 4.5 t100.5 4.5v-47q-55 -4 -98 -35t-61.5 -57.5t-57.5 -90.5l-354 -585v-273q0 -147 27.5 -178t175.5 -43v-47q-51 0 -153.5 4t-154 4t-156 -4t-157.5 -4v47q147 12 177 44t30 177v254l-189 326l-36 69q-37 72 -71 132.5t-76 129t-66 93.5q-16 18 -32 24t-46.5 8.5t-40.5 4.5z M348 1482l320 254q57 47 90 47q31 0 51 -21.5t20 -49.5q0 -18 -7 -33.5t-25.5 -29t-28.5 -18.5t-38 -16.5t-32 -13.5l-274 -119h-76z" />
<glyph unicode="&#xde;" horiz-adv-x="1187" d="M57 -4v47q45 0 72 2t59.5 18.5t42.5 49.5q18 55 19 272v576q0 219 -19 274q-8 25 -25.5 41t-48 21.5t-47 6.5t-53.5 1v47q59 -2 160.5 -5.5t128.5 -3.5q53 2 155.5 5.5t153.5 3.5v-47q-45 0 -71.5 -2.5t-59 -18.5t-45.5 -49q-18 -51 -18 -141v-58q76 2 198 6 q123 -4 222.5 -35.5t174 -113.5t74.5 -205q0 -86 -32.5 -152.5t-83.5 -107.5t-124 -66.5t-142.5 -35t-149.5 -9.5q-23 0 -80 2l-57 5q4 -170 20 -211q8 -23 23.5 -37.5t39 -20.5t40 -8t50.5 -3t44 -1v-47q-53 0 -159.5 4t-160.5 4q-49 0 -149.5 -3t-151.5 -5zM461 373 q12 0 54 -4t65 -4q160 0 237.5 73.5t77.5 237.5q0 301 -293 301q-115 -4 -127 -12q-14 -16 -14 -84v-508z" />
<glyph unicode="&#xdf;" horiz-adv-x="1818" d="M106 0v303h39q16 -123 92 -206t193 -83q102 0 158.5 48.5t56.5 134.5q0 70 -55 117.5t-133 78.5t-156 65t-133 99.5t-55 159.5q0 111 85 185.5t228 74.5q129 0 248 -86l31 67h16l18 -272h-32q-68 141 -107 184q-63 66 -168 66q-72 0 -118 -41t-46 -107q0 -61 55.5 -107 t133.5 -79t155.5 -70.5t133 -104.5t55.5 -159q0 -150 -109.5 -222.5t-267.5 -72.5q-59 0 -130 26t-120 62l-49 -61h-19zM1016 0v303h39q16 -123 92 -206t192 -83q102 0 158.5 48.5t56.5 134.5q0 70 -55 117.5t-133 78.5t-155.5 65t-133 99.5t-55.5 159.5q0 111 85 185.5 t228 74.5q129 0 248 -86l31 67h16l19 -272h-33q-68 141 -107 184q-63 66 -168 66q-72 0 -117.5 -41t-45.5 -107q0 -61 55 -107t133 -79t155.5 -70.5t133 -104.5t55.5 -159q0 -150 -109.5 -222.5t-267.5 -72.5q-59 0 -129.5 26t-120.5 62l-49 -61h-18z" />
<glyph unicode="&#xe0;" d="M12 -4v41q43 0 76 15.5t58.5 55t41 70.5t41 98.5t41.5 102.5l262 598h60l315 -768q4 -8 16.5 -40t15.5 -38t14.5 -27.5t16.5 -25.5t18 -16.5t25.5 -15.5t31 -6t40.5 -3v-41q-156 4 -231.5 4t-226.5 -4v41q37 0 54 1t39.5 5t32 14.5t9.5 26.5q0 25 -17 70l-71 186h-365 l-26 -72q-47 -123 -47 -162q0 -33 25.5 -49t47 -18t60.5 -2v-41q-119 4 -178.5 4t-178.5 -4zM336 1315q0 29 20.5 50t49.5 21q33 0 90 -47l321 -254h-76l-276 119q-2 0 -25.5 10.5t-31 13.5t-25.5 13t-25.5 19.5t-14.5 24t-7 30.5zM340 395h309l-149 375z" />
<glyph unicode="&#xe1;" d="M12 -4v41q43 0 76 15.5t58.5 55t41 70.5t41 98.5t41.5 102.5l262 598h60l315 -768q4 -8 16.5 -40t15.5 -38t14.5 -27.5t16.5 -25.5t18 -16.5t25.5 -15.5t31 -6t40.5 -3v-41q-156 4 -231.5 4t-226.5 -4v41q37 0 54 1t39.5 5t32 14.5t9.5 26.5q0 25 -17 70l-71 186h-365 l-26 -72q-47 -123 -47 -162q0 -33 25.5 -49t47 -18t60.5 -2v-41q-119 4 -178.5 4t-178.5 -4zM340 395h309l-149 375zM336 1085l320 254q57 47 90 47q31 0 51 -21.5t20 -49.5q0 -18 -7 -33.5t-25.5 -29t-28.5 -18.5t-38 -16.5t-32 -13.5l-274 -119h-76z" />
<glyph unicode="&#xe2;" d="M12 -4v41q43 0 76 15.5t58.5 55t41 70.5t41 98.5t41.5 102.5l262 598h60l315 -768q4 -8 16.5 -40t15.5 -38t14.5 -27.5t16.5 -25.5t18 -16.5t25.5 -15.5t31 -6t40.5 -3v-41q-156 4 -231.5 4t-226.5 -4v41q37 0 54 1t39.5 5t32 14.5t9.5 26.5q0 25 -17 70l-71 186h-365 l-26 -72q-47 -123 -47 -162q0 -33 25.5 -49t47 -18t60.5 -2v-41q-119 4 -178.5 4t-178.5 -4zM274 1085l234 301h113l225 -301h-64l-219 164l-227 -164h-62zM340 395h309l-149 375z" />
<glyph unicode="&#xe3;" d="M12 -4v41q43 0 76 15.5t58.5 55t41 70.5t41 98.5t41.5 102.5l262 598h60l315 -768q4 -8 16.5 -40t15.5 -38t14.5 -27.5t16.5 -25.5t18 -16.5t25.5 -15.5t31 -6t40.5 -3v-41q-156 4 -231.5 4t-226.5 -4v41q37 0 54 1t39.5 5t32 14.5t9.5 26.5q0 25 -17 70l-71 186h-365 l-26 -72q-47 -123 -47 -162q0 -33 25.5 -49t47 -18t60.5 -2v-41q-119 4 -178.5 4t-178.5 -4zM295 1180q12 72 64.5 126t121.5 54q43 0 144 -41q100 -39 127 -39q51 0 71 72h54q-6 -66 -56 -125q-53 -61 -116 -62q-51 0 -154 43q-94 41 -129 41q-47 0 -72 -69h-55zM340 395 h309l-149 375z" />
<glyph unicode="&#xe4;" d="M12 -4v41q43 0 76 15.5t58.5 55t41 70.5t41 98.5t41.5 102.5l262 598h60l315 -768q4 -8 16.5 -40t15.5 -38t14.5 -27.5t16.5 -25.5t18 -16.5t25.5 -15.5t31 -6t40.5 -3v-41q-156 4 -231.5 4t-226.5 -4v41q37 0 54 1t39.5 5t32 14.5t9.5 26.5q0 25 -17 70l-71 186h-365 l-26 -72q-47 -123 -47 -162q0 -33 25.5 -49t47 -18t60.5 -2v-41q-119 4 -178.5 4t-178.5 -4zM340 395h309l-149 375zM336 1245q0 43 31 72t74 29q41 0 72.5 -30t31.5 -71q0 -45 -29.5 -76.5t-74.5 -31.5t-75 31.5t-30 76.5zM617 1245q0 41 31.5 71t72.5 30t73 -30t32 -71 q0 -45 -30 -76.5t-75 -31.5t-74.5 31.5t-29.5 76.5z" />
<glyph unicode="&#xe5;" d="M12 -4v41q43 0 76 15.5t58.5 55t41 70.5t41 98.5t41.5 102.5l262 598h60l315 -768q4 -8 16.5 -40t15.5 -38t14.5 -27.5t16.5 -25.5t18 -16.5t25.5 -15.5t31 -6t40.5 -3v-41q-156 4 -231.5 4t-226.5 -4v41q37 0 54 1t39.5 5t32 14.5t9.5 26.5q0 25 -17 70l-71 186h-365 l-26 -72q-47 -123 -47 -162q0 -33 25.5 -49t47 -18t60.5 -2v-41q-119 4 -178.5 4t-178.5 -4zM340 395h309l-149 375zM377 1261.5q0 75.5 56.5 130t132.5 54.5q78 0 136 -52.5t58 -127.5q0 -82 -55 -136.5t-137 -54.5q-78 0 -134.5 55.5t-56.5 131zM447 1262q0 -53 37 -90 t88 -37q49 0 84 37.5t35 87.5q0 53 -36 91t-89 38q-51 0 -85 -38t-34 -89z" />
<glyph unicode="&#xe6;" horiz-adv-x="1478" d="M10 -4v41q31 4 58.5 24.5t42 40t36.5 54.5l431 684q25 39 24 47q0 16 -47 20l-92 6v41q201 -4 299 -4q199 0 575 4v-243h-34q-16 123 -63.5 162.5t-172.5 39.5h-176q-37 0 -37 -26v-367q139 0 185 39t55 170h41q-4 -139 -5 -213q0 -70 5 -213h-41q-6 111 -53.5 143.5 t-186.5 32.5v-301q0 -78 47 -109.5t154 -31.5q158 0 224.5 41t88.5 180h41l-12 -262q-414 4 -635 4q-84 0 -252 -4v41q111 0 135.5 36t24.5 158v187h-297l-152 -242q-27 -45 -26 -72q0 -10 3 -18t10 -15.5t12 -11.5t18.5 -7t20.5 -5t24.5 -5t23.5 -5v-41q-90 4 -137 4 q-54 0 -160 -4zM408 473h262v406h-6z" />
<glyph unicode="&#xe7;" d="M94 475q0 225 147.5 363.5t385.5 138.5q156 0 311 -76l27 49h20l23 -286h-33q-31 125 -116 198.5t-210 73.5t-206 -71.5t-109.5 -170t-28.5 -221.5q0 -92 16.5 -169t53.5 -144.5t105.5 -106.5t162.5 -39q141 0 226 96.5t118 223.5h31v-338h-25l-37 84 q-172 -106 -354 -107q-35 0 -49 4l-29 -79q70 2 127.5 -29t57.5 -96q0 -59 -47.5 -92t-110.5 -33q-53 0 -111.5 28.5t-58.5 75.5q0 16 11 28.5t26 12.5q20 0 31.5 -16.5t15.5 -36t22.5 -35.5t49.5 -16q37 0 60.5 19.5t23.5 53.5q0 94 -123 95q-8 0 -24.5 -1t-24.5 -1l49 127 q-404 53 -404 493z" />
<glyph unicode="&#xe8;" horiz-adv-x="1024" d="M59 -4v41q111 0 135.5 36t24.5 158v488q0 123 -24.5 158.5t-135.5 35.5v41q168 -4 252 -4q199 0 576 4v-243h-35q-16 123 -63.5 162.5t-172.5 39.5h-176q-37 0 -37 -26v-367q139 0 185.5 39t54.5 170h41q-4 -139 -4 -213q0 -70 4 -213h-41q-6 111 -53 143.5t-187 32.5 v-301q0 -78 48.5 -109.5t154.5 -31.5q158 0 224.5 41t89.5 180h41l-13 -262q-418 4 -637 4q-84 0 -252 -4zM279 1315q0 29 20 50t49 21q33 0 90 -47l322 -254h-76l-276 119q-2 0 -26 10.5t-31 13.5t-25.5 13t-25.5 19.5t-14 24t-7 30.5z" />
<glyph unicode="&#xe9;" horiz-adv-x="1024" d="M59 -4v41q111 0 135.5 36t24.5 158v488q0 123 -24.5 158.5t-135.5 35.5v41q168 -4 252 -4q199 0 576 4v-243h-35q-16 123 -63.5 162.5t-172.5 39.5h-176q-37 0 -37 -26v-367q139 0 185.5 39t54.5 170h41q-4 -139 -4 -213q0 -70 4 -213h-41q-6 111 -53 143.5t-187 32.5 v-301q0 -78 48.5 -109.5t154.5 -31.5q158 0 224.5 41t89.5 180h41l-13 -262q-418 4 -637 4q-84 0 -252 -4zM278 1085l320 254q57 47 90 47q31 0 51 -21.5t20 -49.5q0 -18 -7 -33.5t-25.5 -29t-28.5 -18.5t-38 -16.5t-32 -13.5l-274 -119h-76z" />
<glyph unicode="&#xea;" horiz-adv-x="1024" d="M59 -4v41q111 0 135.5 36t24.5 158v488q0 123 -24.5 158.5t-135.5 35.5v41q168 -4 252 -4q199 0 576 4v-243h-35q-16 123 -63.5 162.5t-172.5 39.5h-176q-37 0 -37 -26v-367q139 0 185.5 39t54.5 170h41q-4 -139 -4 -213q0 -70 4 -213h-41q-6 111 -53 143.5t-187 32.5 v-301q0 -78 48.5 -109.5t154.5 -31.5q158 0 224.5 41t89.5 180h41l-13 -262q-418 4 -637 4q-84 0 -252 -4zM217 1085l234 301h112l225 -301h-63l-219 164l-227 -164h-62z" />
<glyph unicode="&#xeb;" horiz-adv-x="1024" d="M59 -4v41q111 0 135.5 36t24.5 158v488q0 123 -24.5 158.5t-135.5 35.5v41q168 -4 252 -4q199 0 576 4v-243h-35q-16 123 -63.5 162.5t-172.5 39.5h-176q-37 0 -37 -26v-367q139 0 185.5 39t54.5 170h41q-4 -139 -4 -213q0 -70 4 -213h-41q-6 111 -53 143.5t-187 32.5 v-301q0 -78 48.5 -109.5t154.5 -31.5q158 0 224.5 41t89.5 180h41l-13 -262q-418 4 -637 4q-84 0 -252 -4zM258 1245q0 43 31 72t74 29q41 0 72.5 -30t31.5 -71q0 -45 -29.5 -76.5t-74.5 -31.5t-75 31.5t-30 76.5zM539 1245q0 41 31.5 71t72.5 30t73 -30t32 -71 q0 -45 -30 -76.5t-75 -31.5t-74.5 31.5t-29.5 76.5z" />
<glyph unicode="&#xec;" horiz-adv-x="681" d="M88 -4v41q111 0 135.5 36t24.5 158v488q0 123 -24.5 158.5t-135.5 35.5v41q168 -4 252 -4t252 4v-41q-111 0 -135.5 -35.5t-24.5 -158.5v-488q0 -123 24.5 -158.5t135.5 -35.5v-41q-168 4 -252 4t-252 -4zM109 1315q0 29 20.5 50t48.5 21q33 0 90 -47l322 -254h-76 l-276 119q-2 0 -26 10.5t-31 13.5t-25.5 13t-25.5 19.5t-14 24t-7 30.5z" />
<glyph unicode="&#xed;" horiz-adv-x="681" d="M88 -4v41q111 0 135.5 36t24.5 158v488q0 123 -24.5 158.5t-135.5 35.5v41q168 -4 252 -4t252 4v-41q-111 0 -135.5 -35.5t-24.5 -158.5v-488q0 -123 24.5 -158.5t135.5 -35.5v-41q-168 4 -252 4t-252 -4zM108 1085l320 254q57 47 90 47q31 0 51 -21.5t20 -49.5 q0 -18 -7 -33.5t-25.5 -29t-28.5 -18.5t-38 -16.5t-32 -13.5l-274 -119h-76z" />
<glyph unicode="&#xee;" horiz-adv-x="681" d="M47 1085l234 301h112l225 -301h-63l-219 164l-227 -164h-62zM88 -4v41q111 0 135.5 36t24.5 158v488q0 123 -24.5 158.5t-135.5 35.5v41q168 -4 252 -4t252 4v-41q-111 0 -135.5 -35.5t-24.5 -158.5v-488q0 -123 24.5 -158.5t135.5 -35.5v-41q-168 4 -252 4t-252 -4z" />
<glyph unicode="&#xef;" horiz-adv-x="681" d="M88 -4v41q111 0 135.5 36t24.5 158v488q0 123 -24.5 158.5t-135.5 35.5v41q168 -4 252 -4t252 4v-41q-111 0 -135.5 -35.5t-24.5 -158.5v-488q0 -123 24.5 -158.5t135.5 -35.5v-41q-168 4 -252 4t-252 -4zM88 1245q0 43 31 72t74 29q41 0 72.5 -30t31.5 -71 q0 -45 -29.5 -76.5t-74.5 -31.5t-75 31.5t-30 76.5zM369 1245q0 41 31.5 71t72.5 30t73 -30t32 -71q0 -45 -30 -76.5t-75 -31.5t-74.5 31.5t-29.5 76.5z" />
<glyph unicode="&#xf0;" horiz-adv-x="1251" d="M78 -4v41q111 0 135.5 36t24.5 158v297h-160v52h160v139q0 123 -25 158.5t-135 35.5v41q156 -4 233 -4q51 0 151.5 2t139.5 2q252 0 404.5 -130t152.5 -353t-152.5 -349t-404.5 -126q-45 0 -134 2t-138 2q-84 0 -252 -4zM422 172q0 -78 47 -106.5t133 -28.5 q197 0 271.5 102.5t74.5 304.5q0 469 -391 469q-98 0 -116.5 -6t-18.5 -43v-284h299v-52h-299v-356z" />
<glyph unicode="&#xf1;" horiz-adv-x="1251" d="M57 -4v41q104 0 137 33.5t33 154.5v619q-51 66 -166 69v41q66 -4 127 -4q51 0 166 4l602 -731h5v502q0 121 -33 154.5t-137 33.5v41q131 -4 194 -4q74 0 209 4v-41q-106 0 -139 -33.5t-33 -154.5v-752h-61l-668 793h-4v-541q0 -121 32.5 -154.5t137.5 -33.5v-41 q-131 4 -207 4q-64 0 -195 -4zM332 1180q12 72 64.5 126t122.5 54q43 0 143 -41q100 -39 127 -39q51 0 72 72h53q-6 -66 -55 -125q-53 -61 -117 -62q-51 0 -154 43q-94 41 -129 41q-47 0 -72 -69h-55z" />
<glyph unicode="&#xf2;" horiz-adv-x="1251" d="M92 475q0 227 144.5 364.5t390 137.5t389 -137.5t143.5 -364.5t-143.5 -364.5t-389 -137.5t-390 137.5t-144.5 364.5zM303 475.5q0 -196.5 78 -329t244 -132.5q168 0 245.5 132.5t77.5 329t-77.5 328.5t-245.5 132q-166 0 -244 -132t-78 -328.5zM393 1315q0 29 20.5 50 t49.5 21q33 0 90 -47l321 -254h-75l-277 119q-2 0 -25.5 10.5t-30.5 13.5t-25.5 13t-25.5 19.5t-14.5 24t-7.5 30.5z" />
<glyph unicode="&#xf3;" horiz-adv-x="1251" d="M92 475q0 227 144.5 364.5t390 137.5t389 -137.5t143.5 -364.5t-143.5 -364.5t-389 -137.5t-390 137.5t-144.5 364.5zM303 475.5q0 -196.5 78 -329t244 -132.5q168 0 245.5 132.5t77.5 329t-77.5 328.5t-245.5 132q-166 0 -244 -132t-78 -328.5zM393 1085l320 254 q57 47 90 47q31 0 51 -21.5t20 -49.5q0 -18 -7 -33.5t-25.5 -29t-28.5 -18.5t-38 -16.5t-32 -13.5l-274 -119h-76z" />
<glyph unicode="&#xf4;" horiz-adv-x="1251" d="M92 475q0 227 144.5 364.5t390 137.5t389 -137.5t143.5 -364.5t-143.5 -364.5t-389 -137.5t-390 137.5t-144.5 364.5zM303 475.5q0 -196.5 78 -329t244 -132.5q168 0 245.5 132.5t77.5 329t-77.5 328.5t-245.5 132q-166 0 -244 -132t-78 -328.5zM332 1085l233 301h113 l225 -301h-63l-219 164l-228 -164h-61z" />
<glyph unicode="&#xf5;" horiz-adv-x="1251" d="M92 475q0 227 144.5 364.5t390 137.5t389 -137.5t143.5 -364.5t-143.5 -364.5t-389 -137.5t-390 137.5t-144.5 364.5zM303 475.5q0 -196.5 78 -329t244 -132.5q168 0 245.5 132.5t77.5 329t-77.5 328.5t-245.5 132q-166 0 -244 -132t-78 -328.5zM332 1180q12 72 64.5 126 t122.5 54q43 0 143 -41q100 -39 127 -39q51 0 72 72h53q-6 -66 -55 -125q-53 -61 -117 -62q-51 0 -154 43q-94 41 -129 41q-47 0 -72 -69h-55z" />
<glyph unicode="&#xf6;" horiz-adv-x="1251" d="M92 475q0 227 144.5 364.5t390 137.5t389 -137.5t143.5 -364.5t-143.5 -364.5t-389 -137.5t-390 137.5t-144.5 364.5zM303 475.5q0 -196.5 78 -329t244 -132.5q168 0 245.5 132.5t77.5 329t-77.5 328.5t-245.5 132q-166 0 -244 -132t-78 -328.5zM373 1245q0 43 31 72 t74 29q41 0 72.5 -30t31.5 -71q0 -45 -29.5 -76.5t-74.5 -31.5t-75 31.5t-30 76.5zM654 1245q0 41 31.5 71t72.5 30t73 -30t32 -71q0 -45 -30 -76.5t-75 -31.5t-74.5 31.5t-29.5 76.5z" />
<glyph unicode="&#xf7;" horiz-adv-x="1064" d="M68 473v94h929v-94h-929zM430 115q0 43 31 71.5t74 28.5q41 0 72.5 -29.5t31.5 -70.5q0 -45 -29.5 -77t-75 -32t-75 32t-29.5 77zM430 934q0 43 31 71.5t74 28.5q41 0 72.5 -29.5t31.5 -70.5q0 -45 -29.5 -77t-75 -32t-75 32t-29.5 77z" />
<glyph unicode="&#xf8;" horiz-adv-x="1251" d="M92 475q0 227 144.5 364.5t390.5 137.5q115 0 213 -33l159 293h80l-176 -319q123 -61 189.5 -176t66.5 -267q0 -227 -143.5 -364.5t-388.5 -137.5q-123 0 -219 37l-168 -307h-78l182 334q-121 59 -186.5 173.5t-65.5 264.5zM303 475q0 -225 92 -346l408 748 q-70 59 -178 59q-166 0 -244 -132t-78 -329zM444 78q70 -63 181 -64q168 0 245.5 132.5t77.5 328.5q0 229 -94 350z" />
<glyph unicode="&#xf9;" horiz-adv-x="1251" d="M55 913v41q168 -4 252 -4t252 4v-41q-111 0 -135.5 -35.5t-24.5 -158.5v-420q0 -264 265 -264q301 0 301 313v377q0 121 -33 154.5t-137 33.5v41q131 -4 194 -4q76 0 207 4v-41q-104 0 -137 -33.5t-33 -154.5v-367q0 -193 -96 -289t-305 -96q-410 0 -410 328v418 q0 123 -24.5 158.5t-135.5 35.5zM393 1315q0 29 20.5 50t49.5 21q33 0 90 -47l321 -254h-75l-277 119q-2 0 -25.5 10.5t-30.5 13.5t-25.5 13t-25.5 19.5t-14.5 24t-7.5 30.5z" />
<glyph unicode="&#xfa;" horiz-adv-x="1251" d="M55 913v41q168 -4 252 -4t252 4v-41q-111 0 -135.5 -35.5t-24.5 -158.5v-420q0 -264 265 -264q301 0 301 313v377q0 121 -33 154.5t-137 33.5v41q131 -4 194 -4q76 0 207 4v-41q-104 0 -137 -33.5t-33 -154.5v-367q0 -193 -96 -289t-305 -96q-410 0 -410 328v418 q0 123 -24.5 158.5t-135.5 35.5zM393 1085l320 254q57 47 90 47q31 0 51 -21.5t20 -49.5q0 -18 -7 -33.5t-25.5 -29t-28.5 -18.5t-38 -16.5t-32 -13.5l-274 -119h-76z" />
<glyph unicode="&#xfb;" horiz-adv-x="1251" d="M55 913v41q168 -4 252 -4t252 4v-41q-111 0 -135.5 -35.5t-24.5 -158.5v-420q0 -264 265 -264q301 0 301 313v377q0 121 -33 154.5t-137 33.5v41q131 -4 194 -4q76 0 207 4v-41q-104 0 -137 -33.5t-33 -154.5v-367q0 -193 -96 -289t-305 -96q-410 0 -410 328v418 q0 123 -24.5 158.5t-135.5 35.5zM332 1085l233 301h113l225 -301h-63l-219 164l-228 -164h-61z" />
<glyph unicode="&#xfc;" horiz-adv-x="1251" d="M55 913v41q168 -4 252 -4t252 4v-41q-111 0 -135.5 -35.5t-24.5 -158.5v-420q0 -264 265 -264q301 0 301 313v377q0 121 -33 154.5t-137 33.5v41q131 -4 194 -4q76 0 207 4v-41q-104 0 -137 -33.5t-33 -154.5v-367q0 -193 -96 -289t-305 -96q-410 0 -410 328v418 q0 123 -24.5 158.5t-135.5 35.5zM393 1245q0 43 31 72t74 29q41 0 72.5 -30t31.5 -71q0 -45 -29.5 -76.5t-74.5 -31.5t-75 31.5t-30 76.5zM674 1245q0 41 31.5 71t72.5 30t73 -30t32 -71q0 -45 -30 -76.5t-75 -31.5t-74.5 31.5t-29.5 76.5z" />
<glyph unicode="&#xfd;" d="M45 913v41q156 -4 235.5 -4t235.5 4v-41q-59 0 -91 -13t-30 -42q2 -43 62 -147l161 -271l177 265q63 96 63 135q0 20 -7 33.5t-22.5 20.5t-26.5 10t-36 5t-31 4v41q119 -4 178 -4q57 0 181 4v-41q-68 -8 -104 -31.5t-70 -76.5l-271 -404v-170q0 -123 24.5 -158.5 t135.5 -35.5v-41q-168 4 -252 4t-252 -4v41q111 0 135.5 36t24.5 158v140l-252 424q-45 76 -64.5 90t-103.5 28zM336 1085l320 254q57 47 90 47q31 0 51 -21.5t20 -49.5q0 -18 -7 -33.5t-25.5 -29t-28.5 -18.5t-38 -16.5t-32 -13.5l-274 -119h-76z" />
<glyph unicode="&#xfe;" horiz-adv-x="1024" d="M74 -4v41q111 0 135 36t24 158v488q0 123 -24.5 158.5t-134.5 35.5v41q168 -4 252 -4t252 4v-41q-96 0 -126 -27.5t-34 -107.5h114q197 0 322 -54t125 -175q0 -229 -447 -230h-114v-88q0 -123 24.5 -158.5t135.5 -35.5v-41q-168 4 -252 4t-252 -4zM418 365q57 -4 108 -5 q121 0 181.5 43t60.5 145.5t-60.5 145.5t-181.5 43q-66 0 -108 -8v-10v-354z" />
<glyph unicode="&#xff;" d="M45 913v41q156 -4 235.5 -4t235.5 4v-41q-59 0 -91 -13t-30 -42q2 -43 62 -147l161 -271l177 265q63 96 63 135q0 20 -7 33.5t-22.5 20.5t-26.5 10t-36 5t-31 4v41q119 -4 178 -4q57 0 181 4v-41q-68 -8 -104 -31.5t-70 -76.5l-271 -404v-170q0 -123 24.5 -158.5 t135.5 -35.5v-41q-168 4 -252 4t-252 -4v41q111 0 135.5 36t24.5 158v140l-252 424q-45 76 -64.5 90t-103.5 28zM336 1245q0 43 30.5 72t73.5 29q41 0 73 -30t32 -71q0 -45 -30 -76.5t-75 -31.5t-74.5 31.5t-29.5 76.5zM616 1245q0 41 32 71t73 30t72.5 -30t31.5 -71 q0 -45 -29.5 -76.5t-74.5 -31.5t-75 31.5t-30 76.5z" />
<glyph unicode="&#x131;" horiz-adv-x="681" d="M88 -4v41q111 0 135.5 36t24.5 158v488q0 123 -24.5 158.5t-135.5 35.5v41q168 -4 252 -4t252 4v-41q-111 0 -135.5 -35.5t-24.5 -158.5v-488q0 -123 24.5 -158.5t135.5 -35.5v-41q-168 4 -252 4t-252 -4z" />
<glyph unicode="&#x152;" horiz-adv-x="2048" d="M86 657q0 311 196.5 503t510.5 192h155q55 0 170 -4.5t170 -4.5q80 0 278.5 3.5t321.5 5.5v-301h-47q-12 72 -33.5 117.5t-46 71.5t-74 38t-90.5 15t-118 3h-148q-47 -4 -50 -9t-3 -73v-491q193 -8 258.5 56.5t75.5 195.5h47q-4 -188 -8 -279q4 -82 8 -254h-47 q-20 150 -92 188t-242 38v-336q0 -160 37 -207q63 -78 262 -74q92 2 147.5 11.5t109.5 36t83 83t39 144.5h47l-18 -330q-131 2 -362.5 5t-334.5 3q-90 0 -269 -4t-269 -4q-291 -8 -477.5 180t-186.5 481zM342 698q0 -139 18.5 -244.5t65.5 -204.5t142.5 -152.5t234.5 -53.5 q55 0 98 12.5t70.5 34t48 51t29 65.5t13.5 77t5 83v85v47v497q-6 160 -60.5 235t-207.5 75q-457 -1 -457 -607z" />
<glyph unicode="&#x153;" horiz-adv-x="1705" d="M78 475q0 219 166 349t397 130q55 0 169 -2t171 -2q199 0 575 4v-243h-34q-16 123 -63.5 162.5t-172.5 39.5h-176q-37 0 -37 -26v-367q139 0 185.5 39t54.5 170h41q-4 -139 -4 -213q0 -70 4 -213h-41q-6 111 -53.5 143.5t-186.5 32.5v-301q0 -78 47 -109.5t154 -31.5 q158 0 224.5 41t88.5 180h41l-12 -262q-406 4 -635 4q-57 0 -171 -2t-169 -2q-231 0 -397 129t-166 350zM289 475q0 -86 17.5 -160.5t55 -139t107.5 -101.5t166 -37q141 0 197.5 57.5t56.5 173.5v416q0 115 -56.5 172t-197.5 57q-96 0 -166 -36.5t-107.5 -101t-55 -139.5 t-17.5 -161z" />
<glyph unicode="&#x178;" horiz-adv-x="1064" d="M-137 1305v47q47 0 139 -4.5t139 -4.5t143.5 4.5t145.5 4.5v-47q-154 0 -154 -66q0 -45 54 -143l266 -494l131 209q203 338 203 408q0 12 -3 22t-10.5 18.5t-12.5 14.5t-17.5 10t-19.5 7t-22.5 5t-21.5 3t-21.5 3.5t-19.5 2.5v47q37 0 110 -4.5t109 -4.5q35 0 100.5 4.5 t100.5 4.5v-47q-55 -4 -98 -35t-61.5 -57.5t-57.5 -90.5l-354 -585v-273q0 -147 27.5 -178t175.5 -43v-47q-51 0 -153.5 4t-154 4t-156 -4t-157.5 -4v47q147 12 177 44t30 177v254l-189 326l-36 69q-37 72 -71 132.5t-76 129t-66 93.5q-16 18 -32 24t-46.5 8.5t-40.5 4.5z M279 1642q0 43 30.5 72t73.5 29q41 0 72.5 -30t31.5 -71q0 -45 -29.5 -76.5t-74.5 -31.5t-74.5 31.5t-29.5 76.5zM559 1642q0 41 32 71t73 30t72.5 -30t31.5 -71q0 -45 -29.5 -76.5t-75 -31.5t-75 31.5t-29.5 76.5z" />
<glyph unicode="&#x192;" horiz-adv-x="1064" d="M-80 -150q0 39 25.5 66t64.5 27q35 0 55.5 -22.5t27.5 -51.5t23.5 -51.5t43.5 -22.5q33 0 61.5 22.5t51 69.5t38 89t29.5 111t20.5 102.5t15.5 98t9 66.5l96 637h-186l16 56h181l20 106q16 74 24.5 107.5t31 83t59.5 96.5q137 172 325 172q55 0 102.5 -29t47.5 -80 q0 -37 -26.5 -62.5t-63.5 -25.5q-33 0 -56.5 20.5t-36 45t-29 45t-36.5 20.5q-80 0 -117 -116q-29 -84 -61 -281l-19 -102h224l-15 -56h-213l-61 -377q-70 -420 -148 -585q-66 -137 -142.5 -213t-201.5 -76q-70 0 -125 25.5t-55 84.5z" />
<glyph unicode="&#x2c6;" horiz-adv-x="860" d="M135 1085l234 301h112l226 -301h-64l-219 164l-227 -164h-62z" />
<glyph unicode="&#x2da;" horiz-adv-x="655" d="M135 1261.5q0 75.5 56.5 130t132.5 54.5q78 0 136 -52.5t58 -127.5q0 -82 -55 -136.5t-137 -54.5q-78 0 -134.5 55.5t-56.5 131zM205 1262q0 -53 37 -90t88 -37q49 0 84 37.5t35 87.5q0 53 -36 91t-89 38q-51 0 -85 -38t-34 -89z" />
<glyph unicode="&#x2dc;" horiz-adv-x="860" d="M135 1180q12 72 64.5 126t122.5 54q43 0 143 -41q100 -39 127 -39q51 0 72 72h53q-6 -66 -55 -125q-53 -61 -117 -62q-51 0 -154 43q-94 41 -129 41q-47 0 -72 -69h-55z" />
<glyph unicode="&#x2000;" horiz-adv-x="1024" />
<glyph unicode="&#x2001;" horiz-adv-x="2048" />
<glyph unicode="&#x2002;" horiz-adv-x="1024" />
<glyph unicode="&#x2003;" horiz-adv-x="2048" />
<glyph unicode="&#x2004;" horiz-adv-x="681" />
<glyph unicode="&#x2005;" horiz-adv-x="512" />
<glyph unicode="&#x2006;" horiz-adv-x="339" />
<glyph unicode="&#x2007;" />
<glyph unicode="&#x2008;" horiz-adv-x="532" />
<glyph unicode="&#x2009;" horiz-adv-x="204" />
<glyph unicode="&#x200a;" horiz-adv-x="20" />
<glyph unicode="&#x200b;" horiz-adv-x="0" />
<glyph unicode="&#x200c;" horiz-adv-x="0" />
<glyph unicode="&#x200d;" horiz-adv-x="0" />
<glyph unicode="&#x200e;" horiz-adv-x="681" />
<glyph unicode="&#x200f;" horiz-adv-x="681" />
<glyph unicode="&#x2010;" horiz-adv-x="819" d="M205 512v205h409v-205h-409z" />
<glyph unicode="&#x2011;" horiz-adv-x="819" d="M205 512v205h409v-205h-409z" />
<glyph unicode="&#x2012;" d="M205 512v205h729v-205h-729z" />
<glyph unicode="&#x2013;" d="M0 391v137h1139v-137h-1139z" />
<glyph unicode="&#x2014;" horiz-adv-x="2048" d="M256 391v137h1536v-137h-1536z" />
<glyph unicode="&#x2015;" horiz-adv-x="4096" d="M205 512v205h3686v-205h-3686z" />
<glyph unicode="&#x2016;" horiz-adv-x="1064" d="M731 0v1397h137v-1397h-137zM199 0v1397h137v-1397h-137z" />
<glyph unicode="&#x2018;" horiz-adv-x="614" d="M180 1083q0 106 52.5 175t156.5 139l27 -35q-59 -51 -86 -79t-47.5 -77t-18.5 -112q33 27 68 26q45 0 74.5 -32.5t29.5 -77.5t-34.5 -76t-82.5 -31q-63 0 -101 57t-38 123z" />
<glyph unicode="&#x2019;" horiz-adv-x="614" d="M180 1290q0 45 35 76t82 31q63 0 101 -57.5t38 -122.5q0 -106 -52 -175t-157 -139l-26 35q59 51 85.5 78.5t47 77t18.5 112.5q-33 -27 -67 -26q-45 0 -75 32.5t-30 77.5z" />
<glyph unicode="&#x201a;" horiz-adv-x="614" d="M180 88q0 45 35 76t82 31q63 0 101 -57.5t38 -123.5q0 -106 -52 -174.5t-157 -138.5l-26 35q59 51 85.5 78.5t47 77t18.5 112.5q-33 -27 -67 -27q-45 0 -75 33t-30 78z" />
<glyph unicode="&#x201c;" horiz-adv-x="819" d="M106 1083q0 106 52.5 175t156.5 139l27 -35q-59 -51 -86 -79t-47.5 -77t-18.5 -112q33 27 68 26q45 0 74.5 -32.5t29.5 -77.5t-34.5 -76t-81.5 -31q-63 0 -101.5 57t-38.5 123zM457 1083q0 106 52 175t157 139l26 -35q-59 -51 -85.5 -79t-47 -77t-18.5 -112q33 27 67 26 q45 0 75 -32.5t30 -77.5t-35 -76t-82 -31q-63 0 -101 57t-38 123z" />
<glyph unicode="&#x201d;" horiz-adv-x="819" d="M106 1290q0 45 35 76t82 31q63 0 101 -57.5t38 -122.5q0 -106 -52 -175t-156 -139l-27 35q59 51 86 78.5t47.5 77t18.5 112.5q-33 -27 -68 -26q-45 0 -75 32.5t-30 77.5zM457 1290q0 45 34.5 76t81.5 31q63 0 101.5 -57.5t38.5 -122.5q0 -106 -52.5 -175t-156.5 -139 l-27 35q59 51 86 78.5t47.5 77t18.5 112.5q-33 -27 -68 -26q-45 0 -74.5 32.5t-29.5 77.5z" />
<glyph unicode="&#x201e;" horiz-adv-x="819" d="M106 88q0 45 35 76t82 31q63 0 101 -57.5t38 -123.5q0 -106 -52 -174.5t-156 -138.5l-27 35q59 51 86 78.5t47.5 77t18.5 112.5q-33 -27 -68 -27q-45 0 -75 33t-30 78zM457 88q0 45 34.5 76t81.5 31q63 0 101.5 -57.5t38.5 -123.5q0 -106 -52.5 -174.5t-156.5 -138.5 l-27 35q59 51 86 78.5t47.5 77t18.5 112.5q-33 -27 -68 -27q-45 0 -74.5 33t-29.5 78z" />
<glyph unicode="&#x2020;" horiz-adv-x="1024" d="M66 842q0 27 17 43t44 16q61 0 55 -61q0 -41 13 -41q6 0 12 3t10 9t8 11t9.5 15.5t9.5 16.5q33 47 86 47q51 0 88 -37q43 -43 49 -43q20 0 20 25q0 16 -28.5 93t-28.5 120q0 51 27.5 108.5t27.5 61.5q0 10 -21.5 38.5t-21.5 59.5t21.5 50.5t52.5 19.5q25 0 46.5 -19.5 t21.5 -46.5q0 -29 -22.5 -59.5t-22.5 -40.5t28.5 -65.5t28.5 -106.5q0 -45 -27.5 -121t-27.5 -98q0 -20 12 -21q14 0 59 45q41 37 88 37q49 0 82 -47q35 -55 49 -55q18 0 13 32q-4 70 51 70q66 0 66 -65q0 -39 -29 -67t-70 -28q-35 0 -96 31q-53 31 -90 31q-72 0 -117 -86 l66 -68l-82 -1089h-49q-6 104 -14.5 314t-14.5 314l-59 461l63 68q-16 35 -51 62.5t-70 27.5t-88 -31q-53 -33 -94 -33t-70.5 29t-29.5 70z" />
<glyph unicode="&#x2021;" horiz-adv-x="1024" d="M117 -70q0 39 26.5 61.5t65.5 22.5q35 0 96 -32q61 -35 109 -35q33 0 61 12l-59 66l73 424h48l75 -424l-61 -66q31 -12 61 -12q51 0 109 35q66 33 102.5 32.5t61 -24t24.5 -60.5q0 -31 -15 -52t-44 -21q-31 0 -42 16t-15 49q0 27 -15 27q-10 0 -28 -25q-57 -68 -121 -67 q-20 0 -45 10q0 -84 -23 -119l-10 -15q-6 -9 -9 -15.5t-3 -16.5q0 -6 18 -31q20 -23 21 -49q0 -25 -20.5 -44t-43.5 -19q-27 0 -46 20.5t-19 46.5q0 18 24 51q14 18 14 29q0 6 -24 47q-23 43 -21 115q-25 -10 -45 -10q-63 0 -123 73q-18 18 -28 19q-6 0 -8 -5t-4.5 -20.5 t-2.5 -19.5q-8 -47 -49 -47q-65 -1 -65 73zM117 1024q0 74 65 74q31 0 41 -22.5t12.5 -46t10.5 -23.5q10 0 28 18q59 74 123 74q20 0 45 -11q-2 72 21 115q25 45 24 47q0 10 -14 29q-25 33 -24 51q0 27 19 47.5t46 20.5q23 0 43.5 -19.5t20.5 -44.5q0 -27 -21 -49 q-18 -25 -18 -31q0 -8 3 -15t9 -15.5t10 -16.5q23 -35 23 -119q25 10 45 11q63 0 121 -68q18 -25 28 -24q14 0 15 26q4 33 15 49.5t42 16.5q29 0 44 -21.5t15 -52.5q0 -37 -24.5 -60.5t-61.5 -23.5q-41 0 -102 35q-61 33 -109 33q-31 0 -61 -13l61 -65l-75 -424h-48l-73 424 l59 65q-29 12 -61 13q-43 0 -109 -33q-57 -35 -96 -35t-65.5 22.5t-26.5 61.5z" />
<glyph unicode="&#x2022;" horiz-adv-x="942" d="M119 698.5q0 145.5 105.5 247t252.5 101.5q141 0 243.5 -101.5t102.5 -247t-104.5 -248t-253.5 -102.5q-139 0 -242.5 102.5t-103.5 248z" />
<glyph unicode="&#x2024;" horiz-adv-x="532" d="M150 88q0 47 31.5 83t78.5 36q49 0 86 -32t37 -81t-34 -85t-83 -36q-47 0 -81.5 34t-34.5 81z" />
<glyph unicode="&#x2025;" horiz-adv-x="1064" d="M682 88q0 47 31.5 83t78.5 36q49 0 86 -32t37 -81t-34 -85t-83 -36q-47 0 -81.5 34t-34.5 81zM150 88q0 47 31.5 83t78.5 36q49 0 86 -32t37 -81t-34 -85t-83 -36q-47 0 -81.5 34t-34.5 81z" />
<glyph unicode="&#x2026;" horiz-adv-x="2048" d="M225 88q0 47 32 83t79 36q49 0 86 -32t37 -81t-34 -85t-83 -36q-47 0 -82 34t-35 81zM907 88q0 47 32 83t79 36q49 0 86 -32t37 -81t-34 -85t-83 -36q-47 0 -82 34t-35 81zM1589 88q0 47 32 83t79 36q49 0 86 -32t37 -81t-34 -85t-83 -36q-47 0 -82 34t-35 81z" />
<glyph unicode="&#x202a;" horiz-adv-x="0" />
<glyph unicode="&#x202f;" horiz-adv-x="368" />
<glyph unicode="&#x2030;" horiz-adv-x="2662" d="M190 967q0 170 122 321.5t288 151.5q96 0 196.5 -71t207.5 -71q201 0 376 199h68l-979 -1647h-84l866 1463l-4 4q-133 -74 -239 -74q-63 0 -160 31q23 -61 22 -141q0 -168 -104 -329t-262 -161q-139 0 -226.5 92.5t-87.5 231.5zM344 897q0 -78 42 -136.5t118 -58.5 q94 0 166.5 83t103.5 184.5t31 191.5q0 88 -41 155.5t-123 67.5q-86 0 -157.5 -92t-105.5 -201.5t-34 -193.5zM983 215q0 178 122 329.5t296 151.5q125 0 195.5 -83t70.5 -210q0 -113 -41 -224t-130 -194t-204 -83q-135 0 -222 89t-87 224zM1137 156q0 -80 43 -139.5 t118 -59.5q92 0 165 83t106 186.5t33 191.5t-45.5 155.5t-129.5 67.5t-153.5 -93t-103 -202.5t-33.5 -189.5zM1790 215q0 178 121 329.5t295 151.5q125 0 195.5 -83t70.5 -210q0 -113 -41 -224t-130 -194t-204 -83q-135 0 -221 89t-86 224zM1944 156q0 -80 42 -139.5 t119 -59.5q92 0 164 83t104.5 186.5t32.5 191.5t-44 155.5t-128 67.5t-153.5 -93t-103 -202.5t-33.5 -189.5z" />
<glyph unicode="&#x2032;" horiz-adv-x="450" d="M137 1307q-6 33 22.5 61.5t65.5 28.5t65.5 -29t22.5 -61l-67 -402h-41z" />
<glyph unicode="&#x2033;" horiz-adv-x="901" d="M588 1307q-6 33 22.5 61.5t65.5 28.5t65.5 -29t22.5 -61l-67 -402h-41zM137 1307q-6 33 22.5 61.5t65.5 28.5t65.5 -29t22.5 -61l-67 -402h-41z" />
<glyph unicode="&#x2034;" horiz-adv-x="1351" d="M1038 1307q-6 33 22.5 61.5t65.5 28.5t65.5 -29t22.5 -61l-67 -402h-41zM588 1307q-6 33 22.5 61.5t65.5 28.5t65.5 -29t22.5 -61l-67 -402h-41zM137 1307q-6 33 22.5 61.5t65.5 28.5t65.5 -29t22.5 -61l-67 -402h-41z" />
<glyph unicode="&#x2035;" horiz-adv-x="737" d="M135 1315q0 29 20.5 50t49.5 21q33 0 90 -47l321 -254h-75l-277 119q-2 0 -25.5 10.5t-30.5 13.5t-25.5 13t-25.5 19.5t-14.5 24t-7.5 30.5z" />
<glyph unicode="&#x2036;" horiz-adv-x="1474" d="M872 1315q0 29 20.5 50t49.5 21q33 0 90 -47l321 -254h-75l-277 119q-2 0 -25.5 10.5t-30.5 13.5t-25.5 13t-25.5 19.5t-14.5 24t-7.5 30.5zM135 1315q0 29 20.5 50t49.5 21q33 0 90 -47l321 -254h-75l-277 119q-2 0 -25.5 10.5t-30.5 13.5t-25.5 13t-25.5 19.5t-14.5 24 t-7.5 30.5z" />
<glyph unicode="&#x2037;" horiz-adv-x="2211" d="M1610 1315q0 29 20.5 50t49.5 21q33 0 90 -47l321 -254h-75l-277 119q-2 0 -25.5 10.5t-30.5 13.5t-25.5 13t-25.5 19.5t-14.5 24t-7.5 30.5zM872 1315q0 29 20.5 50t49.5 21q33 0 90 -47l321 -254h-75l-277 119q-2 0 -25.5 10.5t-30.5 13.5t-25.5 13t-25.5 19.5 t-14.5 24t-7.5 30.5zM135 1315q0 29 20.5 50t49.5 21q33 0 90 -47l321 -254h-75l-277 119q-2 0 -25.5 10.5t-30.5 13.5t-25.5 13t-25.5 19.5t-14.5 24t-7.5 30.5z" />
<glyph unicode="&#x2039;" horiz-adv-x="655" d="M147 453q63 53 187 159l121 115q2 2 10 9t15 12.5t14 5.5q16 0 16 -17q0 -39 -113 -170l-94 -114l90 -113q115 -145 115 -176q0 -20 -19 -21q-8 0 -15 5.5t-16 14.5l-12 11z" />
<glyph unicode="&#x203a;" horiz-adv-x="655" d="M145 168q0 39 113 170l94 115l-90 112q-115 145 -115 176q0 20 19 21q8 0 15 -5t17 -15l11 -11l299 -278q-63 -53 -186 -160l-121 -115q-2 -2 -10.5 -9t-15.5 -12t-13 -5q-17 0 -17 16z" />
<glyph unicode="&#x203c;" horiz-adv-x="1310" d="M866 88q0 47 31.5 83t79.5 36q49 0 85.5 -32t36.5 -81t-33.5 -85t-82.5 -36q-47 0 -82 34t-35 81zM870 1241q0 53 29.5 94t81.5 41q55 0 82.5 -43t27.5 -100q0 -74 -30 -213q-61 -305 -56 -698h-49q10 387 -53 698q-33 141 -33 221zM211 88q0 47 31.5 83t79.5 36 q49 0 85.5 -32t36.5 -81t-33.5 -85t-82.5 -36q-47 0 -82 34t-35 81zM215 1241q0 53 29.5 94t81.5 41q55 0 82.5 -43t27.5 -100q0 -74 -30 -213q-61 -305 -56 -698h-49q10 387 -53 698q-33 141 -33 221z" />
<glyph unicode="&#x2044;" horiz-adv-x="245" d="M-420 0l977 1384h111l-979 -1384h-109z" />
<glyph unicode="&#x2215;" horiz-adv-x="245" d="M-420 0l977 1384h111l-979 -1384h-109z" />
<glyph unicode="&#x2047;" horiz-adv-x="1638" d="M915 1284q0 45 35 68.5t82 23.5q190 0 335.5 -153.5t145.5 -345.5q0 -178 -113.5 -259t-297.5 -81v-207h-56v383h125q276 0 277 223q0 113 -68.5 201t-179.5 88q-31 0 -91.5 -11.5t-88.5 -11.5q-41 0 -73 21.5t-32 60.5zM969 88q0 47 31.5 83t78.5 36q49 0 86 -32t37 -81 t-34 -85t-83 -36q-47 0 -81.5 34t-34.5 81zM96 1284q0 45 35 68.5t82 23.5q190 0 335.5 -153.5t145.5 -345.5q0 -178 -113.5 -259t-297.5 -81v-207h-56v383h125q276 0 277 223q0 113 -68.5 201t-179.5 88q-31 0 -91.5 -11.5t-88.5 -11.5q-41 0 -73 21.5t-32 60.5zM150 88 q0 47 31.5 83t78.5 36q49 0 86 -32t37 -81t-34 -85t-83 -36q-47 0 -81.5 34t-34.5 81z" />
<glyph unicode="&#x2048;" horiz-adv-x="1474" d="M1030 88q0 47 31.5 83t79.5 36q49 0 85.5 -32t36.5 -81t-33.5 -85t-82.5 -36q-47 0 -82 34t-35 81zM1034 1241q0 53 29.5 94t81.5 41q55 0 82.5 -43t27.5 -100q0 -74 -30 -213q-61 -305 -56 -698h-49q10 387 -53 698q-33 141 -33 221zM96 1284q0 45 35 68.5t82 23.5 q190 0 335.5 -153.5t145.5 -345.5q0 -178 -113.5 -259t-297.5 -81v-207h-56v383h125q276 0 277 223q0 113 -68.5 201t-179.5 88q-31 0 -91.5 -11.5t-88.5 -11.5q-41 0 -73 21.5t-32 60.5zM150 88q0 47 31.5 83t78.5 36q49 0 86 -32t37 -81t-34 -85t-83 -36q-47 0 -81.5 34 t-34.5 81z" />
<glyph unicode="&#x2049;" horiz-adv-x="1474" d="M751 1284q0 45 35 68.5t82 23.5q190 0 335.5 -153.5t145.5 -345.5q0 -178 -113.5 -259t-297.5 -81v-207h-56v383h125q276 0 277 223q0 113 -68.5 201t-179.5 88q-31 0 -91.5 -11.5t-88.5 -11.5q-41 0 -73 21.5t-32 60.5zM805 88q0 47 31.5 83t78.5 36q49 0 86 -32t37 -81 t-34 -85t-83 -36q-47 0 -81.5 34t-34.5 81zM211 88q0 47 31.5 83t79.5 36q49 0 85.5 -32t36.5 -81t-33.5 -85t-82.5 -36q-47 0 -82 34t-35 81zM215 1241q0 53 29.5 94t81.5 41q55 0 82.5 -43t27.5 -100q0 -74 -30 -213q-61 -305 -56 -698h-49q10 387 -53 698 q-33 141 -33 221z" />
<glyph unicode="&#x2057;" horiz-adv-x="1802" d="M1489 1307q-6 33 22.5 61.5t65.5 28.5t65.5 -29t22.5 -61l-67 -402h-41zM1038 1307q-6 33 22.5 61.5t65.5 28.5t65.5 -29t22.5 -61l-67 -402h-41zM588 1307q-6 33 22.5 61.5t65.5 28.5t65.5 -29t22.5 -61l-67 -402h-41zM137 1307q-6 33 22.5 61.5t65.5 28.5t65.5 -29 t22.5 -61l-67 -402h-41z" />
<glyph unicode="&#x205f;" horiz-adv-x="460" />
<glyph unicode="&#x2060;" horiz-adv-x="0" />
<glyph unicode="&#x20a8;" horiz-adv-x="2260" d="M1458 0v303h39q16 -123 92 -206t193 -83q102 0 158.5 48.5t56.5 134.5q0 70 -55 117.5t-133 78.5t-156 65t-133 99.5t-55 159.5q0 111 85 185.5t228 74.5q129 0 248 -86l31 67h16l18 -272h-32q-68 141 -107 184q-63 66 -168 66q-72 0 -118 -41t-46 -107q0 -61 55.5 -107 t133.5 -79t155.5 -70.5t133 -104.5t55.5 -159q0 -150 -109.5 -222.5t-267.5 -72.5q-59 0 -130 26t-120 62l-49 -61h-19zM57 -4v47q45 0 72 2t59.5 18.5t42.5 49.5q18 55 19 272v578q0 217 -19 272q-8 25 -25.5 41t-47 21.5t-47 6.5t-54.5 1v47q57 0 176 -4.5t177 -4.5 q43 0 130 4.5t130 4.5q98 0 174 -13.5t146.5 -48.5t109.5 -104.5t39 -171.5q0 -158 -104.5 -248t-266.5 -104l434 -498q53 -61 90 -85t111 -36v-47q-31 0 -92.5 4t-91.5 4q-27 0 -78 -4t-76 -4l-96 119l-340 422q-8 10 -26.5 32.5t-24 26.5t-17.5 14.5t-24.5 11.5t-30 3 t-45.5 2v-242q0 -217 18 -272q8 -25 25.5 -41.5t48.5 -21.5t47 -6t53 -1v-47q-45 0 -141 3t-147 5q-51 0 -154 -4t-154 -4zM461 682q96 0 146 3t117 18.5t99.5 46t56 90t23.5 145.5q0 139 -75.5 223t-211.5 84q-129 0 -133 -2q-23 -10 -22 -73v-535z" />
<glyph unicode="&#x2122;" horiz-adv-x="2007" d="M70 1200v197h692v-197h-47q0 88 -33 117t-125 29h-84v-646q0 -63 23 -77q18 -12 106 -13v-41h-373v41q88 0 107 13q23 14 22 77v646h-84q-92 0 -124.5 -29t-32.5 -117h-47zM901 569v41q72 2 86 19q12 14 12 49v606q0 55 -8 63.5t-73 8.5v41h223l264 -631l270 631h230v-41 q-2 0 -22.5 1t-29 0t-21.5 -4t-19.5 -11.5t-6.5 -22.5v-612q0 -61 16.5 -77t82.5 -20v-41h-318v41q39 2 53.5 4t30 11.5t18.5 27t3 52.5v610h-4l-308 -746h-16l-309 746h-4v-635q0 -45 23.5 -57.5t78.5 -12.5v-41h-252z" />
<glyph unicode="&#x2260;" horiz-adv-x="1064" d="M39 -317l897 1673h92l-903 -1673h-86zM68 301v94h929v-94h-929zM68 641v94h929v-94h-929z" />
<glyph unicode="&#xe000;" horiz-adv-x="955" d="M0 955h955v-955h-955v955z" />
<glyph unicode="&#xfb01;" horiz-adv-x="1591" d="M45 -4v41q111 0 135.5 36t24.5 158v488q0 123 -24.5 158.5t-135.5 35.5v41q168 -4 252 -4q199 0 575 4l21 -243h-35q-27 109 -80 155.5t-176 46.5h-176q-37 0 -37 -26v-389q135 0 183.5 34.5t56.5 159.5h41q-4 -131 -4 -198q0 -70 4 -213h-41q-6 111 -53.5 143.5 t-186.5 32.5v-226q0 -123 24.5 -158.5t135.5 -35.5v-41q-168 4 -252 4t-252 -4zM997 -4v41q111 0 135.5 36t24.5 158v488q0 123 -24.5 158.5t-135.5 35.5v41q168 -4 252 -4t252 4v-41q-111 0 -135.5 -35.5t-24.5 -158.5v-488q0 -123 25 -158.5t135 -35.5v-41q-168 4 -252 4 t-252 -4z" />
<glyph unicode="&#xfb02;" horiz-adv-x="1933" d="M45 -4v41q111 0 135.5 36t24.5 158v488q0 123 -24.5 158.5t-135.5 35.5v41q168 -4 252 -4q199 0 575 4l21 -243h-35q-27 109 -80 155.5t-176 46.5h-176q-37 0 -37 -26v-389q135 0 183.5 34.5t56.5 159.5h41q-4 -131 -4 -198q0 -70 4 -213h-41q-6 111 -53.5 143.5 t-186.5 32.5v-226q0 -123 24.5 -158.5t135.5 -35.5v-41q-168 4 -252 4t-252 -4zM981 -4v41q111 0 135.5 36t24.5 158v488q0 123 -24.5 158.5t-135.5 35.5v41q168 -4 252 -4t252 4v-41q-111 0 -135.5 -35.5t-24.5 -158.5v-471q0 -129 42 -170t200 -41q70 0 121 15.5 t78.5 32.5t48 56t26.5 62.5t19 75.5h38l-10 -283q-221 4 -426 4q-260 0 -481 -4z" />
</font>
</defs>
</svg>
