<?xml version="1.0" standalone="no"?>
<!DOCTYPE svg PUBLIC "-//W3C//DTD SVG 1.1//EN" "http://www.w3.org/Graphics/SVG/1.1/DTD/svg11.dtd" >
<svg xmlns="http://www.w3.org/2000/svg">
<metadata>
This is a custom SVG webfont generated by Font Squirrel.
Copyright   :  1987 1991 1993 2002 Adobe Systems Incorporated All rights reserved
Designer    : Paul Renner
Foundry URL : httpwwwadobecomtype
</metadata>
<defs>
<font id="FuturaStdLightOblique" horiz-adv-x="1269" >
<font-face units-per-em="2048" ascent="1690" descent="-358" />
<missing-glyph horiz-adv-x="634" />
<glyph unicode=" "  horiz-adv-x="634" />
<glyph unicode="&#x09;" horiz-adv-x="634" />
<glyph unicode="&#xa0;" horiz-adv-x="634" />
<glyph unicode="!" horiz-adv-x="655" d="M254 63.5q6 34.5 33.5 59t62.5 24.5t56.5 -24.5t15.5 -59t-35 -59t-63.5 -24.5t-55 24.5t-14.5 59zM326 293l196 1251h99l-197 -1251h-98z" />
<glyph unicode="&#x22;" horiz-adv-x="569" d="M305 1053l57 491h99l-101 -491h-55zM539 1053l57 491h98l-100 -491h-55z" />
<glyph unicode="#" d="M195 467l16 98h262l98 332h-252l17 98h266l135 435h103l-135 -435h278l135 435h103l-138 -435h226l-17 -98h-241l-105 -332h242l-17 -98h-258l-149 -467h-94l147 467h-276l-142 -467h-98l141 467h-247zM571 565h279l100 332h-278z" />
<glyph unicode="$" d="M219 313l90 39q27 -125 112 -202.5t210 -71.5l112 708q-162 88 -213 134q-111 102 -86 254q27 164 142.5 271t279.5 120l35 215h92l-35 -219q94 -12 170 -69.5t109 -143.5l-86 -62q-68 164 -209 180l-96 -614q166 -92 196 -115q147 -109 127 -286q0 -10 -2 -21 q-25 -162 -159 -289t-299 -157l-37 -232h-92l34 228q-160 4 -262 91.5t-133 241.5zM543 1178q-10 -70 20.5 -124.5t71.5 -84t104 -64.5q14 -6 21 -10l90 571q-109 0 -199 -87.5t-108 -200.5zM723 82q131 31 229.5 130t118.5 226q10 59 -7 106.5t-62.5 86.5t-79 59.5 t-95.5 50.5z" />
<glyph unicode="%" horiz-adv-x="1359" d="M188 2l1164 1577l61 -35l-1167 -1579zM256 1253q20 133 124.5 219.5t236 86.5t207 -86.5t55.5 -219.5q-20 -129 -124 -215t-235 -86t-207.5 86t-56.5 215zM342 1253q-14 -88 43 -151.5t147 -63.5q92 0 169 63.5t92 151.5q14 92 -42.5 156t-148.5 64t-169 -65t-91 -155z M725 287q20 133 124.5 219t236 86t207 -86t55.5 -219q-20 -129 -124 -215t-235 -86t-207.5 86t-56.5 215zM811 287q-14 -88 43 -151.5t149.5 -63.5t168 63.5t90.5 151.5q14 90 -42.5 154.5t-148.5 64.5t-169 -63.5t-91 -155.5z" />
<glyph unicode="&#x26;" horiz-adv-x="1314" d="M104 377q12 78 55.5 151.5t89.5 122.5t133 110.5t135 90.5t147 86q-6 10 -21.5 36.5t-23 40t-20.5 39t-19.5 42t-14.5 41t-11 45t-3 45t4 49.5q18 123 121.5 210t226.5 87q119 0 186.5 -84t47.5 -203q-10 -63 -40 -117.5t-84.5 -102.5t-100.5 -81t-124 -80l299 -520 l230 215l69 -41l-253 -246l186 -313h-107l-153 256q-383 -287 -615 -287q-170 0 -268.5 120t-71.5 288zM205 387q-23 -133 49 -229.5t205 -96.5q84 0 193.5 49.5t180 96.5t181.5 127l-305 526l-111 -65q-82 -47 -129 -79t-112.5 -85t-103.5 -113.5t-48 -130.5zM651 1266 q-6 -39 2.5 -80t20.5 -67.5t35.5 -70.5t33.5 -67q23 14 74 48t79 54.5t63.5 53t55 69.5t25.5 82q12 80 -32.5 136.5t-124.5 56.5q-82 0 -151 -65.5t-81 -149.5z" />
<glyph unicode="'" horiz-adv-x="454" d="M365 1053l57 491h98l-100 -491h-55z" />
<glyph unicode="(" horiz-adv-x="491" d="M187.5 113.5q5.5 248.5 43.5 490.5q39 252 118 528.5t186 464.5l65 -53q-199 -451 -276 -940q-72 -457 -17 -915l-84 -51q-41 227 -35.5 475.5z" />
<glyph unicode=")" horiz-adv-x="491" d="M86 -311q205 473 274 915q76 479 19 940l86 53q43 -242 35 -490.5t-47 -502.5q-39 -242 -118 -512t-181 -454z" />
<glyph unicode="*" horiz-adv-x="1267" d="M467 1243l47 96l274 -102l39 307h101l-56 -307l308 102l14 -96l-309 -88l149 -244l-90 -59l-133 254l-217 -254l-72 57l226 246z" />
<glyph unicode="+" d="M186 475l15 98h475l76 476h98l-76 -476h475l-14 -98h-475l-76 -475h-98l76 475h-476z" />
<glyph unicode="," horiz-adv-x="634" d="M123 -317l215 469l88 -29l-244 -463z" />
<glyph unicode="-" horiz-adv-x="389" d="M96 608l15 92h389l-15 -92h-389z" />
<glyph unicode="." horiz-adv-x="634" d="M244 63.5q6 34.5 33.5 59t62.5 24.5t56.5 -24.5t15.5 -59t-35 -59t-63.5 -24.5t-55 24.5t-14.5 59z" />
<glyph unicode="/" horiz-adv-x="1310" d="M33 -252l1403 1942l65 -37l-1399 -1944z" />
<glyph unicode="0" d="M186 576.5q2 107.5 13 205.5q20 127 75.5 260.5t140.5 252t207.5 194.5t260.5 76q111 0 197.5 -50.5t137 -132.5t82 -185t31.5 -208.5t-10 -206.5q-20 -127 -75.5 -261t-139.5 -258t-210 -203.5t-265 -79.5q-113 0 -201 53t-136 138t-79 191.5t-29 214zM286.5 554 q12.5 -124 45.5 -231.5t115.5 -179t199.5 -71.5t221.5 70.5t174 181t115.5 229.5t65 229q6 76 8 166t-22.5 183.5t-62.5 169t-110.5 124t-167.5 48.5q-117 0 -222 -73t-175 -182.5t-115 -223t-59 -212.5q-23 -104 -10.5 -228z" />
<glyph unicode="1" d="M616 1452l62 92h295l-244 -1544h-98l229 1452h-244z" />
<glyph unicode="2" d="M141 0l676 633q86 80 117 110.5t99.5 106.5t101 140.5t43.5 127.5q25 150 -66.5 252.5t-241.5 102.5q-160 0 -280.5 -103.5t-140.5 -261.5h-99q35 186 142 293q80 76 186 120t207 44q193 0 307.5 -130t83.5 -323q-14 -96 -83 -200.5t-124 -160t-166 -159.5l-528 -500h733 l-14 -92h-953z" />
<glyph unicode="3" d="M246 379h98q-8 -137 66.5 -222t214.5 -85q145 0 267 105.5t144 250.5q25 147 -62 238.5t-235 91.5l15 92q139 4 247.5 93t131.5 228q20 125 -57 213.5t-202 88.5q-131 0 -224 -80t-122 -213h-98q41 178 162 281.5t299 103.5q166 0 265 -116t73 -282q-18 -119 -95 -215 t-192 -143q109 -43 161 -147.5t34 -227.5q-31 -193 -182.5 -323.5t-344.5 -130.5q-178 0 -285.5 112.5t-78.5 286.5z" />
<glyph unicode="4" d="M72 293l2 12l1124 1292h12l-192 -1212h217l-14 -92h-217l-48 -293h-98l47 293h-833zM266 385h654l143 913h-12l-783 -901z" />
<glyph unicode="5" d="M106 236l97 36q47 -92 138 -146t200 -54q195 0 346 130t182 324q29 182 -85 307t-298 125q-119 0 -246 -69l303 655h588l-14 -92h-516l-195 -418q55 16 119 17q221 0 349 -153t93 -374q-39 -236 -224 -390t-421 -154q-139 0 -250 67.5t-166 188.5z" />
<glyph unicode="6" d="M168 518q29 180 166 340l610 707l70 -60l-416 -481l4 -4q104 41 211 41q221 0 354 -161t99 -382q-33 -205 -213 -371q-180 -168 -424 -167q-225 0 -360.5 156.5t-100.5 381.5zM266 520q-29 -186 83 -317t298 -131q184 0 338 131t182 317q29 184 -82.5 316.5t-296.5 132.5 q-186 0 -339.5 -132.5t-182.5 -316.5z" />
<glyph unicode="7" d="M88 43l1223 1409h-938l14 92h1120l-1351 -1560z" />
<glyph unicode="8" d="M250 403q43 279 315 402q-92 49 -135 145.5t-27 206.5q29 174 166.5 291t313.5 117t276.5 -117t71.5 -291q-16 -111 -91 -207t-182 -145q231 -121 189 -402q-29 -182 -180.5 -302.5t-336 -120.5t-297 120.5t-83.5 302.5zM350.5 413.5q-22.5 -141.5 65.5 -241.5t231 -100 q141 0 261 100t142.5 241.5t-65.5 242t-231.5 100.5t-262 -100.5t-141 -242zM503.5 1159q-20.5 -129 57.5 -220t209 -91q129 0 236.5 91t128 220t-59.5 221.5t-207 92.5q-129 0 -236.5 -92.5t-128 -221.5z" />
<glyph unicode="9" d="M250 1028q35 223 222 380t413 157q231 0 364 -158t97 -389q-27 -168 -166 -330l-609 -704l-71 59l420 481l-5 4q-106 -41 -213 -41q-221 0 -354 160t-98 381zM346 1026q-29 -184 85 -315t298 -131t337 131t181 315q31 184 -80.5 315.5t-296 131.5t-339 -131.5 t-185.5 -315.5z" />
<glyph unicode=":" horiz-adv-x="634" d="M244 63.5q6 34.5 33.5 59t62.5 24.5t56.5 -24.5t15.5 -59t-35 -59t-63.5 -24.5t-55 24.5t-14.5 59zM373 883q6 35 34.5 59.5t63.5 24.5t55.5 -24.5t14.5 -59.5q-4 -35 -33 -59.5t-63.5 -24.5t-55 24.5t-16.5 59.5z" />
<glyph unicode=";" horiz-adv-x="634" d="M123 -317l215 469l88 -29l-244 -463zM385 883q6 35 35 59.5t63.5 24.5t55 -24.5t14.5 -59.5q-4 -35 -32.5 -59.5t-63.5 -24.5t-55.5 24.5t-16.5 59.5z" />
<glyph unicode="&#x3c;" d="M184 471l19 109l1120 456l-14 -94l-1008 -418l870 -440l-14 -94z" />
<glyph unicode="=" d="M158 301l16 98h1049l-17 -98h-1048zM213 649l16 99h1049l-16 -99h-1049z" />
<glyph unicode="&#x3e;" d="M109 -10l14 94l1014 440l-877 418l14 94l977 -456l-18 -109z" />
<glyph unicode="?" horiz-adv-x="1005" d="M274 596q23 133 111 205.5t231 107.5q70 18 104 27.5t84 32t75.5 49t49 71t32.5 103.5q18 117 -45.5 199t-182.5 82q-115 0 -204 -75t-103 -186q-10 -66 -8 -108h-94q0 86 8 131q23 143 145.5 236.5t272.5 93.5q164 0 249.5 -103.5t59.5 -265.5q-25 -162 -123 -243 t-274 -124q-53 -12 -81 -20t-70 -26.5t-64.5 -40t-44 -57.5t-27.5 -83q-14 -94 40 -156.5t154.5 -62.5t170 69.5t83.5 168.5h99q-16 -141 -122 -235.5t-251 -94.5q-135 0 -215 87t-60 218zM424 63.5q6 34.5 33.5 59t62.5 24.5t56.5 -24.5t15.5 -59t-35 -59t-63.5 -24.5 t-55 24.5t-14.5 59z" />
<glyph unicode="@" horiz-adv-x="1638" d="M205 778q35 213 168 395.5t326.5 287t398.5 104.5q297 0 472 -188.5t130 -473.5q-39 -238 -219.5 -416t-352.5 -178q-121 0 -137 101q-135 -100 -282 -101q-129 0 -187.5 85t-38.5 216q37 229 210 432t386 203q156 0 226 -137l45 96h90l-316 -663q-35 -53 -31.5 -99.5 t78.5 -46.5q125 0 270.5 173t172.5 343q20 123 -15.5 231.5t-110.5 180.5t-179.5 114t-221.5 42q-283 0 -518 -214t-280 -501q-45 -283 129 -490.5t450 -207.5q176 0 337 71.5t268 206.5h114q-115 -166 -309.5 -265t-423.5 -99q-328 0 -515 233t-134 565zM571 623 q-14 -96 33 -163t150 -65q94 2 189 78t136 166l146 301q29 63 -21.5 141t-152.5 78q-152 0 -302.5 -183t-177.5 -353z" />
<glyph unicode="A" horiz-adv-x="1312" d="M10 0l899 1595l394 -1595h-101l-127 508h-678l-286 -508h-101zM449 600h604l-183 746z" />
<glyph unicode="B" horiz-adv-x="1157" d="M166 0l244 1544h309q106 0 179 -17.5t126 -72.5q87 -87 87 -233q0 -41 -7 -86q-35 -215 -230 -316q139 -29 210 -135q54 -81 54 -185q0 -33 -5 -69q-29 -197 -193 -319q-150 -111 -379 -111h-395zM279 92h235q82 0 116 1t97.5 15.5t112.5 43.5q166 100 194 274q5 28 5 55 q0 57 -21 109q-31 76 -100 112q-90 49 -318 50h-217zM397 844h170h34h34q6 0 30.5 1t33 2t29 4t32.5 7t29.5 10t33 14.5t31.5 18.5q129 82 154 248q6 34 5 65q0 125 -93 189q-70 49 -256 49h-170z" />
<glyph unicode="C" horiz-adv-x="1513" d="M197 770q51 328 326.5 561.5t604.5 233.5q139 0 265.5 -53.5t214.5 -147.5l-21 -135q-72 109 -204 176.5t-275 67.5q-287 0 -528.5 -212t-286.5 -499q-9 -54 -9 -105q0 -208 140 -372q86 -96 208 -154.5t255 -58.5q135 0 294.5 66.5t260.5 168.5l-23 -135 q-260 -193 -545 -192q-324 0 -526 234q-162 187 -162 430q1 61 11 126z" />
<glyph unicode="D" horiz-adv-x="1335" d="M166 0l244 1544h278q184 0 313 -42t230 -152q167 -182 167 -440q0 -68 -12 -140q-55 -336 -327 -565q-139 -117 -283.5 -161t-331.5 -44h-278zM279 92h178q328 0 549 187q236 203 282 491q10 63 10 122q0 229 -153 392q-88 94 -203 131t-270 37h-178z" />
<glyph unicode="E" horiz-adv-x="1038" d="M166 0l244 1544h737l-14 -92h-639l-88 -561h622l-14 -92h-623l-112 -707h639l-15 -92h-737z" />
<glyph unicode="F" horiz-adv-x="909" d="M166 0l244 1544h622l-14 -92h-524l-88 -561h509l-14 -92h-510l-127 -799h-98z" />
<glyph unicode="G" horiz-adv-x="1687" d="M195 766q35 217 172 401.5t339.5 291t419.5 106.5q406 0 613 -361l-90 -63q-80 158 -219.5 245t-323.5 87q-283 0 -525.5 -211t-285.5 -490q-10 -61 -10 -118q0 -212 137 -375q174 -207 463 -207q244 0 481 170q201 152 252 409h-553l14 92h652q-23 -162 -76 -285.5 t-166 -228.5q-129 -119 -296 -184t-331 -65q-211 0 -377 106.5t-244 288.5q-56 129 -56 271q0 59 10 120z" />
<glyph unicode="H" horiz-adv-x="1466" d="M166 0l244 1544h98l-102 -655h937l103 655h98l-244 -1544h-98l127 797h-938l-127 -797h-98z" />
<glyph unicode="I" horiz-adv-x="430" d="M166 0l244 1544h98l-244 -1544h-98z" />
<glyph unicode="J" horiz-adv-x="446" d="M-272 -156l82 56q18 -57 64 -94t106 -37q55 0 94 22.5t60.5 65.5t32.5 80.5t19 91.5l240 1515h98l-239 -1515q-27 -166 -99.5 -259.5t-228.5 -93.5q-84 0 -145 46t-84 122z" />
<glyph unicode="K" horiz-adv-x="1165" d="M166 0l244 1544h98l-113 -721l846 721h131l-872 -743l676 -801h-129l-625 737l-47 -41l-111 -696h-98z" />
<glyph unicode="L" horiz-adv-x="669" d="M166 0l244 1544h98l-229 -1452h393l-15 -92h-491z" />
<glyph unicode="M" horiz-adv-x="1837" d="M18 0l584 1595l346 -1405l791 1405l80 -1595h-95l-61 1278h-4l-750 -1329l-325 1329h-4l-467 -1278h-95z" />
<glyph unicode="N" horiz-adv-x="1726" d="M166 0l248 1565l1079 -1368l213 1347h98l-252 -1595l-1077 1378l-211 -1327h-98z" />
<glyph unicode="O" horiz-adv-x="1748" d="M197 772q51 326 324.5 559.5t600.5 233.5q213 0 381 -106.5t248 -290.5q57 -130 57 -274q0 -59 -10 -122q-35 -213 -173 -396t-340 -289.5t-415 -106.5q-326 0 -525 233q-159 186 -159 430q1 63 11 129zM295 772q-9 -57 -9 -112q0 -124 48 -236q70 -162 217 -257t336 -95 q287 0 526.5 207.5t286.5 492.5q9 59 9 114q0 215 -139 380q-175 207 -462 207q-289 0 -528.5 -207t-284.5 -494z" />
<glyph unicode="P" horiz-adv-x="966" d="M166 0l244 1544h272q111 0 187.5 -17.5t131.5 -72.5q96 -93 97 -239q0 -37 -6 -78q-33 -199 -179 -306q-127 -98 -358 -98h-174l-117 -733h-98zM395 825h178q176 0 283 84q115 90 137 232q5 33 6 63q0 116 -81 187q-72 61 -263 61h-161z" />
<glyph unicode="Q" horiz-adv-x="1748" d="M197 772q35 215 172 398.5t338.5 289t416.5 105.5q326 0 526 -232q159 -184 159 -427q0 -62 -11 -128q-49 -303 -313 -559l168 -219h-133l-113 164q-254 -184 -537 -184q-332 0 -528 231q-156 184 -156 429q0 64 11 132zM295 772q-9 -60 -9 -115q0 -217 139 -381 q175 -205 468 -204q227 0 455 161l-322 400h139l260 -340q233 217 273 467q10 64 10 123q0 215 -133 380q-170 210 -465 210q-287 0 -528.5 -208t-286.5 -493z" />
<glyph unicode="R" horiz-adv-x="999" d="M166 0l244 1544h192q80 0 127 -3t108.5 -21.5t104.5 -53.5q111 -88 111 -247q0 -40 -6 -84q-31 -197 -170 -302q-134 -102 -322 -102h-14l389 -731h-113l-387 731h-49l-117 -731h-98zM395 823h125q186 0 281 72q123 88 147 244q5 29 5 57q0 58 -20 110q-30 77 -104 111 q-68 35 -272 35h-63z" />
<glyph unicode="S" horiz-adv-x="1114" d="M137 311l92 39q31 -129 113 -203.5t217 -74.5q154 0 284 106.5t154 257.5q3 18 3 36q0 37 -12 70q-17 48 -57 82.5t-79 59.5t-92 53l-25 13l-256 147q-119 84 -119 220q0 27 5 57q27 172 154.5 281.5t301.5 109.5q117 0 210 -58.5t132 -158.5l-78 -58q-88 182 -284 183 q-123 0 -220.5 -86.5t-117.5 -208.5q-3 -20 -3 -39q0 -35 10 -64q15 -45 60 -82t74 -54t92 -50l271 -154q132 -94 132 -246q0 -30 -5 -61q-31 -188 -197 -318t-358 -130q-158 0 -264.5 89.5t-137.5 241.5z" />
<glyph unicode="T" horiz-adv-x="921" d="M242 1452l14 92h897l-14 -92h-400l-229 -1452h-98l229 1452h-399z" />
<glyph unicode="U" horiz-adv-x="1351" d="M222 359v26q0 101 22 197l151 962h99l-148 -934q-14 -92 -20 -144q-3 -22 -3 -49q0 -35 5 -76q8 -73 37 -120q43 -70 136 -109.5t187 -39.5q96 0 200.5 40t168.5 109q45 47 74.5 121t40 123t26.5 145l148 934h98l-152 -962q-16 -100 -28.5 -155.5t-48 -130.5t-95.5 -136 q-90 -86 -208.5 -133t-239.5 -47q-119 0 -223.5 46t-167.5 134q-56 85 -59 199z" />
<glyph unicode="V" horiz-adv-x="1136" d="M254 1544h98l250 -1319h4l666 1319h98l-813 -1595z" />
<glyph unicode="W" horiz-adv-x="2263" d="M268 1544h99l225 -1327l799 1405l356 -1405l637 1327h98l-772 -1595l-364 1427l-814 -1427z" />
<glyph unicode="X" horiz-adv-x="1011" d="M25 0l546 788l-286 756h108l250 -663l459 663h108l-522 -756l299 -788h-106l-267 698l-483 -698h-106z" />
<glyph unicode="Y" horiz-adv-x="1144" d="M252 1544h108l332 -782l578 782h108l-653 -885l-104 -659h-99l105 659z" />
<glyph unicode="Z" horiz-adv-x="1163" d="M25 0l1171 1452h-852l14 92h1024l-1171 -1452h915l-14 -92h-1087z" />
<glyph unicode="[" horiz-adv-x="614" d="M68 -416l309 1960h348l-16 -104h-250l-277 -1751h250l-16 -105h-348z" />
<glyph unicode="\" horiz-adv-x="1310" d="M334 1653l78 37l833 -1651l-82 -39z" />
<glyph unicode="]" horiz-adv-x="614" d="M68 -416l16 105h250l276 1751h-250l17 104h348l-309 -1960h-348z" />
<glyph unicode="^" d="M209 616l616 928h107l325 -928h-94l-299 836l-559 -836h-96z" />
<glyph unicode="_" horiz-adv-x="1024" d="M-41 -256l16 102h1024l-16 -102h-1024z" />
<glyph unicode="`" horiz-adv-x="641" d="M379 1423l131 39l160 -301l-84 -35z" />
<glyph unicode="a" horiz-adv-x="1146" d="M141 479q33 211 182.5 349.5t358.5 138.5q111 0 201 -48.5t135 -136.5h4l25 164h92l-150 -946h-92l27 170h-4q-63 -88 -173 -139t-219 -51q-211 0 -315 143q-80 109 -80 258q0 47 8 98zM233 479q-6 -41 -6 -79q0 -120 64 -213q84 -122 250 -121q174 0 292.5 121.5 t147.5 301.5q6 39 6 76q0 118 -66 204q-87 112 -257 112q-158 0 -282 -121t-149 -281z" />
<glyph unicode="b" horiz-adv-x="1146" d="M158 0l268 1690h92l-143 -908h4q72 88 177.5 136.5t215.5 48.5q209 0 313 -139q80 -105 80 -252q0 -46 -8 -97q-33 -213 -184.5 -356t-362.5 -143q-109 0 -201 51t-128 139h-5l-26 -170h-92zM319 477q-7 -42 -6 -81q0 -120 62 -211q82 -120 252 -119q168 0 289.5 121.5 t148.5 291.5q6 36 5 71q0 118 -65 211q-85 120 -245 120q-174 0 -294 -115t-147 -289z" />
<glyph unicode="c" horiz-adv-x="976" d="M141 475q33 207 196 349.5t370 142.5q193 0 311 -117l-21 -123q-115 154 -309 154q-166 0 -298 -121t-157 -285q-6 -36 -5 -71q0 -120 72 -216q93 -123 257 -122q209 0 375 170l-19 -125q-172 -131 -366 -131q-209 0 -325 143q-89 110 -89 259q0 45 8 93z" />
<glyph unicode="d" horiz-adv-x="1146" d="M141 479q33 211 182.5 349.5t358.5 138.5q111 0 201 -48.5t135 -136.5h4l143 908h92l-268 -1690h-92l27 170h-4q-63 -88 -173 -139t-219 -51q-211 0 -315 143q-80 109 -80 258q0 47 8 98zM233 479q-6 -41 -6 -79q0 -120 64 -213q84 -122 250 -121q174 0 292.5 121.5 t147.5 301.5q6 39 6 76q0 118 -66 204q-87 112 -257 112q-158 0 -282 -121t-149 -281z" />
<glyph unicode="e" horiz-adv-x="1044" d="M141 475q31 203 182.5 347.5t354.5 144.5q209 0 309 -146q75 -108 75 -252q0 -50 -9 -104h-822q-9 -47 -8 -89q0 -117 66 -199q90 -112 258 -111q106 0 203.5 58t164.5 157l70 -45q-82 -123 -204 -189.5t-261 -66.5q-205 0 -308 144q-79 110 -79 255q0 46 8 96zM246 551 h729v12q0 127 -82 220q-86 97 -227 98q-143 0 -265 -97.5t-155 -232.5z" />
<glyph unicode="f" horiz-adv-x="491" d="M158 0l137 860h-105l13 86h104l68 424q25 164 74 232q84 115 229 114q43 0 80 -14l-15 -84q-8 2 -22 5t-26.5 5t-24.5 2q-57 0 -96 -24.5t-60.5 -73.5t-30 -84t-18.5 -96l-66 -406h238l-12 -86h-238l-137 -860h-92z" />
<glyph unicode="g" horiz-adv-x="1161" d="M45 -133h92q-2 -22 -2 -42q0 -115 78 -190q92 -88 240 -88q205 0 325 142q104 125 142 358l18 117h-4q-78 -84 -185.5 -134t-213.5 -50q-201 0 -307 145q-80 111 -80 256q0 45 8 94q33 207 188.5 349.5t360.5 142.5q219 0 327 -185h4l25 164h92l-143 -901 q-20 -135 -52 -226t-106 -175q-160 -182 -406 -183q-193 0 -306 109q-98 93 -98 246q0 25 3 51zM248 479q-6 -41 -7 -79q0 -120 64 -213q84 -122 250 -121q174 0 293 121.5t147 301.5q6 39 7 76q0 118 -67 204q-87 112 -257 112q-158 0 -281.5 -121t-148.5 -281z" />
<glyph unicode="h" horiz-adv-x="1003" d="M158 0l268 1690h92l-141 -891h4q115 168 307 168q174 0 226 -100q33 -63 33 -163q0 -59 -11 -133l-90 -571h-92l90 571q11 95 11 159q0 68 -45 109q-46 42 -144 42q-276 0 -342 -414l-74 -467h-92z" />
<glyph unicode="i" horiz-adv-x="479" d="M193 0l149 946h92l-149 -946h-92zM356 1262q4 35 33 59.5t63.5 24.5t55.5 -25q17 -20 17 -48q0 -6 -1 -11q-6 -35 -34.5 -59.5t-63.5 -24.5t-55 24q-16 19 -16 44q0 8 1 16z" />
<glyph unicode="j" horiz-adv-x="479" d="M104 -553l238 1499h92l-237 -1499h-93zM356 1262q4 35 33 59.5t63.5 24.5t55.5 -25q17 -20 17 -48q0 -6 -1 -11q-6 -35 -34.5 -59.5t-63.5 -24.5t-55 24q-16 19 -16 44q0 8 1 16z" />
<glyph unicode="k" horiz-adv-x="874" d="M158 0l268 1690h92l-182 -1145l452 401h119l-463 -409l447 -537h-121l-393 473l-62 -53l-65 -420h-92z" />
<glyph unicode="l" horiz-adv-x="407" d="M158 0l268 1690h92l-268 -1690h-92z" />
<glyph unicode="m" horiz-adv-x="1484" d="M158 0l149 946h92l-18 -119h4q43 66 113.5 103t146.5 37q90 0 152.5 -45t85.5 -127q106 172 305 172q168 0 215 -98q29 -60 29 -152q0 -56 -11 -123l-94 -594h-92l96 606q8 76 8 136.5t-41 99.5t-127 39q-242 0 -297 -336l-86 -545h-92l92 584q10 76 10.5 142.5 t-43.5 110.5t-130 44q-236 0 -293 -361l-82 -520h-92z" />
<glyph unicode="n" horiz-adv-x="1003" d="M158 0l149 946h92l-22 -147h4q115 168 307 168q174 0 226 -100q33 -63 33 -163q0 -59 -11 -133l-90 -571h-92l90 571q11 95 11 159q0 68 -45 109q-46 42 -144 42q-276 0 -342 -414l-74 -467h-92z" />
<glyph unicode="o" horiz-adv-x="1120" d="M139 471q33 205 200 350.5t372 145.5q209 0 330 -143q96 -112 96 -265q0 -41 -7 -86q-33 -209 -200.5 -351t-376.5 -142q-203 0 -324 144q-96 115 -96 267q0 39 6 80zM231 471q-5 -34 -5 -65q0 -123 76 -220q95 -121 259 -120q174 0 311.5 116.5t163.5 288.5q6 37 6 72 q0 128 -77 220q-98 118 -275 118q-166 0 -299 -121t-160 -289z" />
<glyph unicode="p" horiz-adv-x="1146" d="M70 -553l237 1499h92l-26 -170h4q63 88 172.5 139.5t218.5 51.5q211 0 315 -145q80 -110 80 -259q0 -47 -8 -98q-33 -211 -181.5 -348t-359.5 -137q-113 0 -201.5 48t-131.5 136h-5l-114 -717h-92zM315 453q-6 -39 -6 -76q0 -118 67 -202q87 -110 255 -109 q162 0 283.5 116.5t148.5 280.5q6 41 6 80q0 120 -62 214q-83 124 -251 124q-174 0 -293 -124t-148 -304z" />
<glyph unicode="q" horiz-adv-x="1146" d="M139 463q33 215 184.5 359.5t362.5 144.5q109 0 201 -51.5t129 -139.5h4l27 170h92l-238 -1499h-92l115 717h-4q-72 -88 -177.5 -136t-218.5 -48q-209 0 -313 136q-80 104 -80 250q0 47 8 97zM229 453q-6 -39 -6 -76q0 -118 67 -202q87 -110 255 -109q162 0 283.5 116.5 t148.5 280.5q6 41 6 80q0 120 -62 214q-83 124 -251 124q-174 0 -293 -124t-148 -304z" />
<glyph unicode="r" horiz-adv-x="569" d="M158 0l149 946h92l-18 -123h4q82 143 227 144q47 0 97 -23l-62 -82q-31 18 -63 19q-55 0 -99.5 -28t-69 -60.5t-44 -95t-25.5 -94.5t-16 -95q-2 -16 -4 -25l-76 -483h-92z" />
<glyph unicode="s" horiz-adv-x="768" d="M94 229l94 29q29 -193 205 -192q88 0 160 61t88 152q2 16 2 31q0 22 -5 41q-9 32 -36 53.5t-51.5 33t-65.5 27.5q-61 25 -94 40t-76 47t-58 75q-10 28 -10 62q0 18 3 38q16 104 103 172t194 68q74 0 135 -43t82 -109l-86 -41q-33 106 -150 107q-61 0 -118.5 -44 t-65.5 -104q-2 -12 -2 -23q0 -46 33 -77q41 -39 105.5 -62.5t128 -51t100.5 -89.5q27 -44 26 -105q0 -24 -4 -51q-20 -129 -121.5 -211.5t-230.5 -82.5q-119 0 -197 67t-88 182z" />
<glyph unicode="t" horiz-adv-x="428" d="M168 0l137 860h-104l12 86h104l54 338h92l-53 -338h165l-12 -86h-166l-137 -860h-92z" />
<glyph unicode="u" horiz-adv-x="966" d="M189 278q3 28 14 101l90 567h92l-84 -534q-13 -102 -13 -174q0 -75 49 -123q50 -49 157 -49q82 0 138 26.5t88 79.5t48 106.5t29 133.5l84 534h92l-90 -567q-10 -63 -17.5 -98t-29 -86.5t-54.5 -88.5q-115 -127 -303 -126q-184 0 -262 126q-23 37 -27 91q-2 30 -2 52 q0 17 1 29z" />
<glyph unicode="v" horiz-adv-x="886" d="M160 946h94l219 -780l459 780h94l-590 -997z" />
<glyph unicode="w" horiz-adv-x="1540" d="M160 946h94l211 -776l465 827l205 -827l450 776h94l-585 -997l-205 817l-461 -817z" />
<glyph unicode="x" horiz-adv-x="907" d="M8 0l465 500l-283 446h111l242 -383l362 383h111l-422 -446l305 -500h-108l-269 434l-405 -434h-109z" />
<glyph unicode="y" horiz-adv-x="942" d="M125 -553l313 537l-303 962h96l269 -856l497 856h95l-873 -1499h-94z" />
<glyph unicode="z" horiz-adv-x="983" d="M6 0l912 860h-650l13 86h841l-907 -860h768l-14 -86h-963z" />
<glyph unicode="{" horiz-adv-x="614" d="M166 522l14 90q88 55 131 104.5t58 131.5l55 360q31 182 104.5 257t245.5 79l-14 -94q-197 0 -225 -164l-60 -381q-23 -145 -68 -211.5t-135 -122.5l-2 -10q72 -51 95.5 -122.5t1.5 -221.5l-62 -379q-14 -98 36 -131t138 -33l-14 -90q-172 6 -222 80t-22 254l58 361 q12 84 -15.5 135t-97.5 108z" />
<glyph unicode="|" horiz-adv-x="794" d="M479 -604v2419h86v-2419h-86z" />
<glyph unicode="}" horiz-adv-x="614" d="M18 -416l15 90q199 0 223 164l61 379q23 150 69 221.5t134 122.5l2 10q-72 53 -95.5 121t-0.5 213l59 381q29 164 -172 164l15 94q172 -4 223 -79.5t20 -256.5l-55 -360q-14 -82 12.5 -131t98.5 -105l-15 -90q-86 -55 -130 -107.5t-56 -135.5l-57 -361 q-29 -178 -104 -253t-247 -81z" />
<glyph unicode="~" d="M178 432q2 2 32 33t37 38t35.5 33.5t42 35t41 26.5t48 25.5t47 13.5t53.5 6q80 0 227 -74q18 -8 54 -27.5t55.5 -28.5t45.5 -17.5t44 -8.5q109 0 223 164l92 -47q-178 -223 -335 -223q-76 0 -211 78q-139 78 -213 78q-63 0 -114.5 -39t-113.5 -113z" />
<glyph unicode="&#xa2;" d="M342 776q31 197 172 340.5t336 163.5l39 240h92l-39 -238q162 -6 279 -119l-21 -123q-106 143 -272 156l-129 -817q188 16 331 170h5l-19 -125q-164 -123 -330 -131l-43 -262h-92l43 264q-178 18 -279.5 157.5t-72.5 323.5zM436.5 786.5q-22.5 -149.5 53 -267.5 t217.5 -138l129 811q-147 -20 -262 -138t-137.5 -267.5z" />
<glyph unicode="&#xa3;" d="M141 59q59 59 140 97.5t155 36.5q147 113 170 243l2 60h-254l15 92h229l-121 282q-43 88 -58.5 156t-2.5 152q25 166 165 276.5t308 110.5q170 0 265 -120t63 -288h-99q23 137 -48 226.5t-208 89.5q-123 0 -226.5 -91.5t-123.5 -214.5q-14 -94 57 -239q10 -20 37 -80 l40 -89q13 -30 30.5 -79t28.5 -92h278l-14 -92h-260l-7 -68q-20 -139 -157 -258l20 -6q14 -4 82 -32t119 -44t84 -16q127 0 244 168l75 -50q-61 -88 -148 -149t-175 -61q-74 0 -221 61q-139 59 -199 59q-102 0 -244 -120z" />
<glyph unicode="&#xa5;" d="M258 567l14 92h418l-63 154h-330l14 92h275l-271 639h119l324 -772l565 772h119l-471 -639h274l-14 -92h-328l-115 -154h418l-14 -92h-418l-90 -567h-98l90 567h-418z" />
<glyph unicode="&#xa7;" d="M289 -43l2 20h98l-4 -26q-18 -129 28 -191.5t173 -62.5q117 0 199.5 63.5t101.5 176.5q10 63 -6.5 108t-65.5 78t-81 47t-103 39q-158 55 -230.5 135t-48.5 238q18 121 94 214t193 138q-94 49 -130 121.5t-17 185.5q25 154 139 239t270 85q182 0 239.5 -90.5t43.5 -280.5 h-99q43 279 -208 279q-111 0 -191 -67t-98 -177q-8 -51 2 -91t26.5 -62.5t58.5 -47t64.5 -33t79.5 -28.5q23 -8 35 -13q66 -23 106.5 -45t83.5 -63t56.5 -107.5t-0.5 -156.5q-35 -227 -285 -342q205 -86 168 -318q-25 -156 -140.5 -236.5t-275.5 -80.5q-180 0 -244.5 87 t-33.5 265zM451 588q-16 -111 53 -191t182 -80q111 0 205 80t110 191q18 111 -50 192.5t-179 81.5q-113 0 -208 -81.5t-113 -192.5z" />
<glyph unicode="&#xa8;" horiz-adv-x="862" d="M362 1298q6 35 35 58.5t62 23.5q35 0 54 -24.5t13 -57.5q-4 -33 -31.5 -57t-62.5 -24q-33 0 -53.5 23t-16.5 58zM745 1298q6 35 35 58.5t62 23.5q35 0 54 -24.5t13 -57.5q-4 -33 -31.5 -57t-62.5 -24q-33 0 -53.5 23t-16.5 58z" />
<glyph unicode="&#xa9;" horiz-adv-x="1638" d="M150 774q53 328 322 559.5t597 231.5t522.5 -231.5t143 -559.5t-320.5 -561t-597 -233q-215 0 -381 106.5t-243.5 289.5t-42.5 398zM248 774q-45 -291 125 -493.5t461 -202.5q289 0 523 202.5t279 493.5q45 289 -125 490.5t-458 201.5q-291 0 -524.5 -201.5 t-280.5 -490.5zM541 780q33 201 170 328t336 127q145 0 235 -80t88 -219h-98q-2 90 -72 145.5t-168 55.5q-154 0 -260 -101.5t-131 -253.5q-25 -147 54 -253.5t229 -106.5q98 0 185 56.5t116 152.5h98q-35 -139 -154.5 -223t-261.5 -84q-195 0 -296 129.5t-70 326.5z" />
<glyph unicode="&#xaa;" horiz-adv-x="688" d="M246 1272q20 127 115.5 210t232.5 83q158 0 217 -111h4l16 98h60l-90 -567h-60l17 102h-4q-41 -53 -112 -83.5t-140 -30.5q-137 0 -205.5 86t-50.5 213zM315 1270q-14 -92 37 -160t152 -68q109 0 183.5 68t90.5 166q14 92 -44 155.5t-163 63.5q-94 0 -168 -67.5 t-88 -157.5z" />
<glyph unicode="&#xab;" horiz-adv-x="813" d="M176 655l352 346l52 -55l-293 -291l200 -290l-67 -56zM422 655l352 346l51 -55l-293 -291l201 -290l-67 -56z" />
<glyph unicode="&#xac;" d="M213 649l16 99h1049l-86 -545h-98l69 446h-950z" />
<glyph unicode="&#xad;" horiz-adv-x="389" d="M96 608l15 92h389l-15 -92h-389z" />
<glyph unicode="&#xae;" horiz-adv-x="1638" d="M150 774q53 328 322 559.5t597 231.5t522.5 -231.5t143 -559.5t-320.5 -561t-597 -233q-215 0 -381 106.5t-243.5 289.5t-42.5 398zM248 774q-45 -291 125 -493.5t461 -202.5q289 0 523 202.5t279 493.5q45 289 -125 490.5t-458 201.5q-291 0 -524.5 -201.5 t-280.5 -490.5zM584 324l137 866h379q166 0 227.5 -58.5t42.5 -170.5q-37 -229 -309 -238l199 -399h-127l-185 399h-203l-63 -399h-98zM762 821h170q2 0 54 -1t64.5 1t56.5 5t61.5 12.5t45 25t41 41t17.5 58.5q12 76 -49.5 102.5t-163.5 26.5h-256z" />
<glyph unicode="&#xaf;" horiz-adv-x="933" d="M358 1288l15 92h624l-14 -92h-625z" />
<glyph unicode="&#xb0;" horiz-adv-x="819" d="M301 1257q18 125 123.5 216.5t232.5 91.5q125 0 202 -90.5t56.5 -217.5t-125 -217t-231.5 -90t-202.5 90t-55.5 217zM387 1257q-14 -94 39 -157.5t147 -63.5q92 0 167 64.5t89.5 157t-40 157t-148.5 64.5q-92 0 -165 -65t-89 -157z" />
<glyph unicode="&#xb1;" d="M111 0l16 98h1049l-17 -98h-1048zM199 557l16 98h475l62 394h98l-62 -394h476l-17 -98h-475l-61 -393h-99l62 393h-475z" />
<glyph unicode="&#xb4;" horiz-adv-x="641" d="M338 1161l254 301l119 -39l-301 -297z" />
<glyph unicode="&#xb5;" horiz-adv-x="966" d="M55 -553l238 1499h92l-74 -467q-10 -92 -11 -184t48 -160.5t146 -68.5q82 0 138 26.5t88 79.5t48 106.5t29 133.5l84 534h92l-90 -567q-10 -63 -17.5 -98t-29 -86.5t-54.5 -88.5q-115 -127 -303 -126q-70 0 -135 45t-82 122h-4l-111 -700h-92z" />
<glyph unicode="&#xb6;" d="M408 1147q61 397 477 397h403l-14 -92h-82l-287 -1817h-98l287 1817h-189l-287 -1817h-98l178 1123q-156 -2 -236.5 112.5t-53.5 276.5z" />
<glyph unicode="&#xb7;" horiz-adv-x="634" d="M317 524q4 35 33 59.5t64 24.5t55 -24.5t16 -59.5q-6 -35 -34.5 -59.5t-63.5 -24.5t-55.5 24.5t-14.5 59.5z" />
<glyph unicode="&#xb8;" horiz-adv-x="612" d="M100 -336l238 295l106 -45l-272 -289z" />
<glyph unicode="&#xba;" horiz-adv-x="671" d="M215 1268q20 123 127 210t240 87q135 0 216 -85t60 -210q-20 -127 -127.5 -212t-243.5 -85q-131 0 -210.5 87t-61.5 208zM295 1266q-14 -90 44 -157t157 -67q102 0 185 64.5t97 159.5q16 96 -45 162.5t-166 66.5q-98 0 -178 -68.5t-94 -160.5z" />
<glyph unicode="&#xbb;" horiz-adv-x="813" d="M195 365l294 290l-202 291l67 55l246 -346l-354 -346zM440 365l295 290l-203 291l68 55l246 -346l-354 -346z" />
<glyph unicode="&#xc0;" horiz-adv-x="1312" d="M10 0l899 1595l394 -1595h-101l-127 508h-678l-286 -508h-101zM449 600h604l-183 746zM799 1950l131 39l160 -301l-84 -35z" />
<glyph unicode="&#xc1;" horiz-adv-x="1312" d="M10 0l899 1595l394 -1595h-101l-127 508h-678l-286 -508h-101zM449 600h604l-183 746zM758 1688l254 301l118 -39l-301 -297z" />
<glyph unicode="&#xc2;" horiz-adv-x="1312" d="M10 0l899 1595l394 -1595h-101l-127 508h-678l-286 -508h-101zM449 600h604l-183 746zM649 1731l318 217l247 -217l-88 -60l-180 158l-233 -158z" />
<glyph unicode="&#xc3;" horiz-adv-x="1312" d="M10 0l899 1595l394 -1595h-101l-127 508h-678l-286 -508h-101zM449 600h604l-183 746zM641 1772q31 55 79 93t101 38q51 0 137 -39q100 -41 123 -41q70 0 111 84l53 -45q-23 -55 -77 -94t-109 -39q-37 0 -127 40.5t-133 40.5q-61 0 -103 -84z" />
<glyph unicode="&#xc4;" horiz-adv-x="1312" d="M10 0l899 1595l394 -1595h-101l-127 508h-678l-286 -508h-101zM449 600h604l-183 746zM672 1825q6 35 33.5 58.5t60.5 23.5q35 0 55.5 -24.5t14.5 -57.5q-4 -33 -32 -57.5t-63 -24.5q-33 0 -53 23.5t-16 58.5zM1055 1825q6 35 33.5 58.5t60.5 23.5q35 0 55.5 -24.5 t14.5 -57.5q-4 -33 -32 -57.5t-63 -24.5q-33 0 -53 23.5t-16 58.5z" />
<glyph unicode="&#xc5;" horiz-adv-x="1312" d="M10 0l899 1595l394 -1595h-101l-127 508h-678l-286 -508h-101zM449 600h604l-183 746zM766 1810.5q12 73.5 72.5 126t134.5 52.5t118 -52.5t31.5 -126t-73 -126t-134 -52.5t-117.5 52.5t-32 126zM848 1810q-6 -39 17.5 -67.5t64.5 -28.5q39 0 71.5 27.5t38.5 68.5 q6 39 -17.5 68t-64.5 29q-39 0 -71.5 -28t-38.5 -69z" />
<glyph unicode="&#xc6;" horiz-adv-x="1929" d="M10 0l867 1544h673l21 -92h-637l141 -561h621l24 -92h-620l174 -707h639l22 -92h-747l-125 508h-662l-280 -508h-111zM455 600h583l-178 727z" />
<glyph unicode="&#xc7;" horiz-adv-x="1513" d="M197 770q51 328 326.5 561.5t604.5 233.5q139 0 265.5 -53.5t214.5 -147.5l-21 -135q-72 109 -204 176.5t-275 67.5q-287 0 -528.5 -212t-286.5 -499q-43 -272 131 -477q86 -96 208 -154.5t255 -58.5q135 0 294.5 66.5t260.5 168.5l-23 -135q-260 -193 -545 -192 q-324 0 -526 234t-151 556zM551 -336l237 295l107 -45l-272 -289z" />
<glyph unicode="&#xc8;" horiz-adv-x="1038" d="M166 0l244 1544h737l-14 -92h-639l-88 -561h622l-14 -92h-623l-112 -707h639l-15 -92h-737zM662 1950l131 39l159 -301l-84 -35z" />
<glyph unicode="&#xc9;" horiz-adv-x="1038" d="M166 0l244 1544h737l-14 -92h-639l-88 -561h622l-14 -92h-623l-112 -707h639l-15 -92h-737zM662 1688l253 301l119 -39l-301 -297z" />
<glyph unicode="&#xca;" horiz-adv-x="1038" d="M166 0l244 1544h737l-14 -92h-639l-88 -561h622l-14 -92h-623l-112 -707h639l-15 -92h-737zM512 1731l317 217l248 -217l-88 -60l-180 158l-234 -158z" />
<glyph unicode="&#xcb;" horiz-adv-x="1038" d="M166 0l244 1544h737l-14 -92h-639l-88 -561h622l-14 -92h-623l-112 -707h639l-15 -92h-737zM535 1825q6 35 33.5 58.5t60.5 23.5q35 0 55.5 -24.5t13.5 -57.5q-4 -33 -31.5 -57.5t-62.5 -24.5q-33 0 -53 23.5t-16 58.5zM918 1825q6 35 33.5 58.5t60.5 23.5q35 0 55 -24.5 t14 -57.5q-4 -33 -31.5 -57.5t-62.5 -24.5q-33 0 -53 23.5t-16 58.5z" />
<glyph unicode="&#xcc;" horiz-adv-x="430" d="M166 0l244 1544h98l-244 -1544h-98zM358 1950l131 39l160 -301l-84 -35z" />
<glyph unicode="&#xcd;" horiz-adv-x="430" d="M166 0l244 1544h98l-244 -1544h-98zM317 1688l254 301l119 -39l-301 -297z" />
<glyph unicode="&#xce;" horiz-adv-x="430" d="M166 0l244 1544h98l-244 -1544h-98zM207 1731l317 217l248 -217l-88 -60l-180 158l-234 -158z" />
<glyph unicode="&#xcf;" horiz-adv-x="430" d="M166 0l244 1544h98l-244 -1544h-98zM231 1825q6 35 34 58.5t61 23.5q35 0 55 -24.5t14 -57.5q-4 -33 -31.5 -57.5t-62.5 -24.5q-33 0 -53.5 23.5t-16.5 58.5zM614 1825q6 35 34 58.5t61 23.5q35 0 55 -24.5t14 -57.5q-4 -33 -31.5 -57.5t-62.5 -24.5q-33 0 -53.5 23.5 t-16.5 58.5z" />
<glyph unicode="&#xd0;" horiz-adv-x="1335" d="M127 797l14 92h166l103 655h278q184 0 313 -42t230 -152q211 -229 155 -580q-55 -336 -327 -565q-139 -117 -283.5 -161t-331.5 -44h-278l127 797h-166zM279 92h178q328 0 549 187q236 203 282 491q49 309 -143 514q-88 94 -203 131t-270 37h-178l-88 -563h354l-15 -92 h-354z" />
<glyph unicode="&#xd1;" horiz-adv-x="1726" d="M166 0l248 1565l1079 -1368l213 1347h98l-252 -1595l-1077 1378l-211 -1327h-98zM848 1772q31 55 79 93t101 38q51 0 137 -39q100 -41 123 -41q70 0 111 84l53 -45q-23 -55 -77 -94t-109 -39q-37 0 -127 40.5t-133 40.5q-61 0 -103 -84z" />
<glyph unicode="&#xd2;" horiz-adv-x="1748" d="M196.5 772q51.5 326 325 559.5t600.5 233.5q213 0 381 -106.5t248 -290t47 -396.5q-35 -213 -173 -396t-340 -289.5t-415 -106.5q-326 0 -525.5 233t-148 559zM295 772q-31 -186 38.5 -348t217 -257t336.5 -95q287 0 526.5 207.5t286.5 492.5q45 287 -130 494t-462 207 q-289 0 -528.5 -207t-284.5 -494zM1018 1950l131 39l160 -301l-84 -35z" />
<glyph unicode="&#xd3;" horiz-adv-x="1748" d="M196.5 772q51.5 326 325 559.5t600.5 233.5q213 0 381 -106.5t248 -290t47 -396.5q-35 -213 -173 -396t-340 -289.5t-415 -106.5q-326 0 -525.5 233t-148 559zM295 772q-31 -186 38.5 -348t217 -257t336.5 -95q287 0 526.5 207.5t286.5 492.5q45 287 -130 494t-462 207 q-289 0 -528.5 -207t-284.5 -494zM977 1688l254 301l119 -39l-301 -297z" />
<glyph unicode="&#xd4;" horiz-adv-x="1748" d="M196.5 772q51.5 326 325 559.5t600.5 233.5q213 0 381 -106.5t248 -290t47 -396.5q-35 -213 -173 -396t-340 -289.5t-415 -106.5q-326 0 -525.5 233t-148 559zM295 772q-31 -186 38.5 -348t217 -257t336.5 -95q287 0 526.5 207.5t286.5 492.5q45 287 -130 494t-462 207 q-289 0 -528.5 -207t-284.5 -494zM866 1731l318 217l248 -217l-89 -60l-180 158l-233 -158z" />
<glyph unicode="&#xd5;" horiz-adv-x="1748" d="M196.5 772q51.5 326 325 559.5t600.5 233.5q213 0 381 -106.5t248 -290t47 -396.5q-35 -213 -173 -396t-340 -289.5t-415 -106.5q-326 0 -525.5 233t-148 559zM295 772q-31 -186 38.5 -348t217 -257t336.5 -95q287 0 526.5 207.5t286.5 492.5q45 287 -130 494t-462 207 q-289 0 -528.5 -207t-284.5 -494zM860 1772q31 55 79 93t101 38q51 0 138 -39q100 -41 122 -41q70 0 111 84l53 -45q-23 -55 -77 -94t-109 -39q-37 0 -127 40.5t-133 40.5q-61 0 -103 -84z" />
<glyph unicode="&#xd6;" horiz-adv-x="1748" d="M196.5 772q51.5 326 325 559.5t600.5 233.5q213 0 381 -106.5t248 -290t47 -396.5q-35 -213 -173 -396t-340 -289.5t-415 -106.5q-326 0 -525.5 233t-148 559zM295 772q-31 -186 38.5 -348t217 -257t336.5 -95q287 0 526.5 207.5t286.5 492.5q45 287 -130 494t-462 207 q-289 0 -528.5 -207t-284.5 -494zM891 1825q6 35 33.5 58.5t60.5 23.5q35 0 55.5 -24.5t14.5 -57.5q-4 -33 -32 -57.5t-62 -24.5q-33 0 -53.5 23.5t-16.5 58.5zM1274 1825q6 35 33.5 58.5t60.5 23.5q35 0 55.5 -24.5t14.5 -57.5q-4 -33 -32 -57.5t-63 -24.5q-33 0 -53 23.5 t-16 58.5z" />
<glyph unicode="&#xd8;" horiz-adv-x="1748" d="M111 59l213 185q-176 229 -127 528q51 326 324.5 559.5t600.5 233.5q299 0 496 -203l217 186l51 -53l-219 -188q180 -229 131 -535q-35 -213 -173 -396t-340 -289.5t-415 -106.5q-309 0 -499 206l-215 -186zM295 772q-43 -266 104 -463l1141 985q-168 178 -432 179 q-289 0 -528.5 -207t-284.5 -494zM446 252q176 -180 441 -180q287 0 526.5 207.5t286.5 492.5q41 270 -111 467z" />
<glyph unicode="&#xd9;" horiz-adv-x="1351" d="M222 359.5q-3 113.5 22 222.5l151 962h99l-148 -934q-14 -92 -20.5 -144t2 -125t37.5 -120q43 -70 136 -109.5t187 -39.5q96 0 200.5 40t168.5 109q45 47 74.5 121t40 123t26.5 145l148 934h98l-152 -962q-16 -100 -28.5 -155.5t-48 -130.5t-95.5 -136 q-90 -86 -208.5 -133t-239.5 -47q-119 0 -223.5 46t-167.5 134q-56 86 -59 199.5zM788 1950l132 39l159 -301l-84 -35z" />
<glyph unicode="&#xda;" horiz-adv-x="1351" d="M222 359.5q-3 113.5 22 222.5l151 962h99l-148 -934q-14 -92 -20.5 -144t2 -125t37.5 -120q43 -70 136 -109.5t187 -39.5q96 0 200.5 40t168.5 109q45 47 74.5 121t40 123t26.5 145l148 934h98l-152 -962q-16 -100 -28.5 -155.5t-48 -130.5t-95.5 -136 q-90 -86 -208.5 -133t-239.5 -47q-119 0 -223.5 46t-167.5 134q-56 86 -59 199.5zM809 1688l254 301l119 -39l-301 -297z" />
<glyph unicode="&#xdb;" horiz-adv-x="1351" d="M222 359.5q-3 113.5 22 222.5l151 962h99l-148 -934q-14 -92 -20.5 -144t2 -125t37.5 -120q43 -70 136 -109.5t187 -39.5q96 0 200.5 40t168.5 109q45 47 74.5 121t40 123t26.5 145l148 934h98l-152 -962q-16 -100 -28.5 -155.5t-48 -130.5t-95.5 -136 q-90 -86 -208.5 -133t-239.5 -47q-119 0 -223.5 46t-167.5 134q-56 86 -59 199.5zM668 1731l317 217l248 -217l-88 -60l-180 158l-234 -158z" />
<glyph unicode="&#xdc;" horiz-adv-x="1351" d="M222 359.5q-3 113.5 22 222.5l151 962h99l-148 -934q-14 -92 -20.5 -144t2 -125t37.5 -120q43 -70 136 -109.5t187 -39.5q96 0 200.5 40t168.5 109q45 47 74.5 121t40 123t26.5 145l148 934h98l-152 -962q-16 -100 -28.5 -155.5t-48 -130.5t-95.5 -136 q-90 -86 -208.5 -133t-239.5 -47q-119 0 -223.5 46t-167.5 134q-56 86 -59 199.5zM692 1825q6 35 34 58.5t60 23.5q35 0 55.5 -24.5t14.5 -57.5q-4 -33 -31.5 -57.5t-62.5 -24.5q-33 0 -53.5 23.5t-16.5 58.5zM1075 1825q6 35 34 58.5t60 23.5q35 0 55.5 -24.5t14.5 -57.5 q-4 -33 -31.5 -57.5t-62.5 -24.5q-33 0 -53.5 23.5t-16.5 58.5z" />
<glyph unicode="&#xdd;" horiz-adv-x="1144" d="M252 1544h108l332 -782l578 782h108l-653 -885l-104 -659h-99l105 659zM735 1688l254 301l119 -39l-301 -297z" />
<glyph unicode="&#xde;" horiz-adv-x="966" d="M166 0l244 1544h98l-51 -327h174q111 0 186.5 -17.5t132.5 -73.5q121 -117 90 -317q-33 -199 -178 -305q-127 -98 -360 -98h-174l-64 -406h-98zM342 498h178q176 0 285 84q115 90 137 231q25 166 -78 250q-70 61 -260 61h-162z" />
<glyph unicode="&#xdf;" horiz-adv-x="1093" d="M158 0l137 860h-100l12 86h100l62 385q29 184 112 268q111 117 291 117q141 0 218 -95t54 -237q-14 -94 -74.5 -170.5t-148.5 -107.5l-2 -4q162 -47 245 -199.5t54 -333.5q-37 -229 -225 -394t-422 -187l14 86q199 29 354.5 166t186.5 329q31 201 -78.5 332t-308.5 152 l14 86q117 2 200 71.5t101 184.5q16 104 -44 169.5t-167 65.5q-139 0 -213 -98q-49 -68 -75 -234l-205 -1298h-92z" />
<glyph unicode="&#xe0;" horiz-adv-x="1146" d="M141 479q33 211 182.5 349.5t358.5 138.5q111 0 201 -48.5t135 -136.5h4l25 164h92l-150 -946h-92l27 170h-4q-63 -88 -173 -139t-219 -51q-211 0 -315.5 143t-71.5 356zM233 479q-27 -170 57.5 -291.5t250.5 -121.5q174 0 292.5 121.5t147.5 301.5q27 168 -60 280 t-257 112q-158 0 -282 -121t-149 -281zM602 1423l131 39l160 -301l-84 -35z" />
<glyph unicode="&#xe1;" horiz-adv-x="1146" d="M141 479q33 211 182.5 349.5t358.5 138.5q111 0 201 -48.5t135 -136.5h4l25 164h92l-150 -946h-92l27 170h-4q-63 -88 -173 -139t-219 -51q-211 0 -315.5 143t-71.5 356zM233 479q-27 -170 57.5 -291.5t250.5 -121.5q174 0 292.5 121.5t147.5 301.5q27 168 -60 280 t-257 112q-158 0 -282 -121t-149 -281zM623 1161l254 301l118 -39l-301 -297z" />
<glyph unicode="&#xe2;" horiz-adv-x="1146" d="M141 479q33 211 182.5 349.5t358.5 138.5q111 0 201 -48.5t135 -136.5h4l25 164h92l-150 -946h-92l27 170h-4q-63 -88 -173 -139t-219 -51q-211 0 -315.5 143t-71.5 356zM233 479q-27 -170 57.5 -291.5t250.5 -121.5q174 0 292.5 121.5t147.5 301.5q27 168 -60 280 t-257 112q-158 0 -282 -121t-149 -281zM481 1204l318 217l248 -217l-86 -59l-181 158l-233 -158z" />
<glyph unicode="&#xe3;" horiz-adv-x="1146" d="M141 479q33 211 182.5 349.5t358.5 138.5q111 0 201 -48.5t135 -136.5h4l25 164h92l-150 -946h-92l27 170h-4q-63 -88 -173 -139t-219 -51q-211 0 -315.5 143t-71.5 356zM233 479q-27 -170 57.5 -291.5t250.5 -121.5q174 0 292.5 121.5t147.5 301.5q27 168 -60 280 t-257 112q-158 0 -282 -121t-149 -281zM475 1245q31 55 79 93t101 38q51 0 138 -39q100 -41 122 -41q70 0 113 84l51 -45q-23 -55 -76 -94t-110 -39q-33 0 -127 41q-86 41 -133 41q-61 0 -103 -84z" />
<glyph unicode="&#xe4;" horiz-adv-x="1146" d="M141 479q33 211 182.5 349.5t358.5 138.5q111 0 201 -48.5t135 -136.5h4l25 164h92l-150 -946h-92l27 170h-4q-63 -88 -173 -139t-219 -51q-211 0 -315.5 143t-71.5 356zM233 479q-27 -170 57.5 -291.5t250.5 -121.5q174 0 292.5 121.5t147.5 301.5q27 168 -60 280 t-257 112q-158 0 -282 -121t-149 -281zM506 1298q6 35 34.5 58.5t61.5 23.5q35 0 54.5 -24.5t13.5 -57.5q-4 -33 -32 -57t-63 -24q-33 0 -53 23t-16 58zM889 1298q6 35 34.5 58.5t61.5 23.5q35 0 54.5 -24.5t13.5 -57.5q-4 -33 -32 -57t-63 -24q-33 0 -53 23t-16 58z" />
<glyph unicode="&#xe5;" horiz-adv-x="1146" d="M141 479q33 211 182.5 349.5t358.5 138.5q111 0 201 -48.5t135 -136.5h4l25 164h92l-150 -946h-92l27 170h-4q-63 -88 -173 -139t-219 -51q-211 0 -315.5 143t-71.5 356zM233 479q-27 -170 57.5 -291.5t250.5 -121.5q174 0 292.5 121.5t147.5 301.5q27 168 -60 280 t-257 112q-158 0 -282 -121t-149 -281zM598 1284q12 74 72.5 126t134.5 52t118 -52t31 -126q-10 -74 -70.5 -126t-134 -52t-117.5 52t-34 126zM680 1284q-6 -39 17.5 -67.5t64.5 -28.5q39 0 71.5 27.5t39 68.5t-17.5 68.5t-62 27.5q-41 0 -74 -28.5t-39 -67.5z" />
<glyph unicode="&#xe6;" horiz-adv-x="1738" d="M86 274q25 147 163 222t296 75q188 0 289 -100q31 180 -33 295t-238 115q-133 0 -332 -86l17 94q164 78 348 78q131 0 217 -69t111 -193q70 119 192.5 190.5t251.5 71.5q207 0 309.5 -146.5t69.5 -357.5h-821q-23 -166 62 -281.5t247 -115.5q104 0 203.5 58t169.5 155 l69 -54q-90 -115 -209.5 -180t-250.5 -65q-123 0 -221.5 62t-129.5 171h-4q-49 -117 -172 -175t-258 -58q-152 0 -260.5 75.5t-85.5 218.5zM178 276q-12 -78 31 -128t105.5 -66t140.5 -16q70 0 141.5 19t134 69.5t72.5 121.5q18 109 -66 159t-205 50q-125 0 -230.5 -49 t-123.5 -160zM938 549h729q4 133 -84 232.5t-223 99.5q-143 0 -265 -98.5t-157 -233.5z" />
<glyph unicode="&#xe7;" horiz-adv-x="976" d="M141 475q33 207 196 349.5t370 142.5q193 0 311 -117l-21 -123q-115 154 -309 154q-166 0 -298 -121t-157 -285q-27 -164 66.5 -286.5t257.5 -122.5q209 0 375 170l-19 -125q-172 -131 -366 -131q-209 0 -325 143t-81 352zM283 -336l237 295l107 -45l-273 -289z" />
<glyph unicode="&#xe8;" horiz-adv-x="1044" d="M141 475q31 203 182.5 347.5t354.5 144.5q209 0 309 -145.5t66 -356.5h-822q-33 -176 57.5 -287.5t258.5 -111.5q106 0 203.5 58t164.5 157l70 -45q-82 -123 -204 -189.5t-261 -66.5q-205 0 -308.5 144t-70.5 351zM246 551h729q4 135 -82 232.5t-227 97.5 q-143 0 -265 -97.5t-155 -232.5zM551 1423l131 39l160 -301l-84 -35z" />
<glyph unicode="&#xe9;" horiz-adv-x="1044" d="M141 475q31 203 182.5 347.5t354.5 144.5q209 0 309 -145.5t66 -356.5h-822q-33 -176 57.5 -287.5t258.5 -111.5q106 0 203.5 58t164.5 157l70 -45q-82 -123 -204 -189.5t-261 -66.5q-205 0 -308.5 144t-70.5 351zM246 551h729q4 135 -82 232.5t-227 97.5 q-143 0 -265 -97.5t-155 -232.5zM571 1161l254 301l119 -39l-301 -297z" />
<glyph unicode="&#xea;" horiz-adv-x="1044" d="M141 475q31 203 182.5 347.5t354.5 144.5q209 0 309 -145.5t66 -356.5h-822q-33 -176 57.5 -287.5t258.5 -111.5q106 0 203.5 58t164.5 157l70 -45q-82 -123 -204 -189.5t-261 -66.5q-205 0 -308.5 144t-70.5 351zM246 551h729q4 135 -82 232.5t-227 97.5 q-143 0 -265 -97.5t-155 -232.5zM430 1204l318 217l247 -217l-86 -59l-180 158l-233 -158z" />
<glyph unicode="&#xeb;" horiz-adv-x="1044" d="M141 475q31 203 182.5 347.5t354.5 144.5q209 0 309 -145.5t66 -356.5h-822q-33 -176 57.5 -287.5t258.5 -111.5q106 0 203.5 58t164.5 157l70 -45q-82 -123 -204 -189.5t-261 -66.5q-205 0 -308.5 144t-70.5 351zM246 551h729q4 135 -82 232.5t-227 97.5 q-143 0 -265 -97.5t-155 -232.5zM455 1298q6 35 34.5 58.5t61.5 23.5q35 0 54.5 -24.5t12.5 -57.5q-4 -33 -31.5 -57t-62.5 -24q-33 0 -53 23t-16 58zM838 1298q6 35 34.5 58.5t61.5 23.5q35 0 54.5 -24.5t12.5 -57.5q-4 -33 -31.5 -57t-62.5 -24q-33 0 -53 23t-16 58z" />
<glyph unicode="&#xec;" horiz-adv-x="479" d="M193 0l149 946h92l-149 -946h-92zM266 1423l131 39l160 -301l-84 -35z" />
<glyph unicode="&#xed;" horiz-adv-x="479" d="M193 0l149 946h92l-149 -946h-92zM287 1161l254 301l118 -39l-301 -297z" />
<glyph unicode="&#xee;" horiz-adv-x="479" d="M147 1204l318 217l248 -217l-86 -59l-181 158l-233 -158zM193 0l149 946h92l-149 -946h-92z" />
<glyph unicode="&#xef;" horiz-adv-x="479" d="M172 1298q6 35 35 58.5t61 23.5q35 0 54.5 -24.5t13.5 -57.5q-4 -33 -32 -57t-62 -24q-33 0 -53.5 23t-16.5 58zM193 0l149 946h92l-149 -946h-92zM555 1298q6 35 34.5 58.5t61.5 23.5q35 0 54.5 -24.5t13.5 -57.5q-4 -33 -32 -57t-62 -24q-33 0 -53.5 23t-16.5 58z" />
<glyph unicode="&#xf0;" horiz-adv-x="1120" d="M141 473q31 201 199 348.5t377 147.5q190 0 323 -144q-31 166 -96 295t-205 277l-325 -168l-41 69l305 154q-82 80 -238 182l76 62q139 -90 254 -195l346 178l41 -67l-328 -168q180 -186 265.5 -418.5t44.5 -493.5q-43 -272 -212 -412t-374 -140t-325 145t-87 348z M231 471q-25 -164 70.5 -284.5t259.5 -120.5q174 0 311.5 116.5t163.5 288.5q27 174 -71.5 292t-274.5 118q-166 0 -299 -121t-160 -289z" />
<glyph unicode="&#xf1;" horiz-adv-x="1003" d="M158 0l149 946h92l-22 -147h4q115 168 307 168q174 0 226.5 -99.5t21.5 -296.5l-90 -571h-92l90 571q10 86 11 156t-45 112t-144 42q-276 0 -342 -414l-74 -467h-92zM403 1245q31 55 79 93t102 38q51 0 137 -39q100 -41 123 -41q70 0 112 84l52 -45q-23 -55 -76 -94 t-111 -39q-33 0 -127 41q-86 41 -133 41q-61 0 -102 -84z" />
<glyph unicode="&#xf2;" horiz-adv-x="1120" d="M139 471q33 205 200 350.5t372 145.5q209 0 330.5 -142.5t89 -351.5t-200.5 -351t-377 -142q-203 0 -324 144t-90 347zM231 471q-25 -164 70.5 -284.5t259.5 -120.5q174 0 311.5 116.5t163.5 288.5q27 174 -71.5 292t-274.5 118q-166 0 -299 -121t-160 -289zM588 1423 l131 39l160 -301l-84 -35z" />
<glyph unicode="&#xf3;" horiz-adv-x="1120" d="M139 471q33 205 200 350.5t372 145.5q209 0 330.5 -142.5t89 -351.5t-200.5 -351t-377 -142q-203 0 -324 144t-90 347zM231 471q-25 -164 70.5 -284.5t259.5 -120.5q174 0 311.5 116.5t163.5 288.5q27 174 -71.5 292t-274.5 118q-166 0 -299 -121t-160 -289zM608 1161 l254 301l119 -39l-301 -297z" />
<glyph unicode="&#xf4;" horiz-adv-x="1120" d="M139 471q33 205 200 350.5t372 145.5q209 0 330.5 -142.5t89 -351.5t-200.5 -351t-377 -142q-203 0 -324 144t-90 347zM231 471q-25 -164 70.5 -284.5t259.5 -120.5q174 0 311.5 116.5t163.5 288.5q27 174 -71.5 292t-274.5 118q-166 0 -299 -121t-160 -289zM469 1204 l317 217l248 -217l-86 -59l-180 158l-233 -158z" />
<glyph unicode="&#xf5;" horiz-adv-x="1120" d="M139 471q33 205 200 350.5t372 145.5q209 0 330.5 -142.5t89 -351.5t-200.5 -351t-377 -142q-203 0 -324 144t-90 347zM231 471q-25 -164 70.5 -284.5t259.5 -120.5q174 0 311.5 116.5t163.5 288.5q27 174 -71.5 292t-274.5 118q-166 0 -299 -121t-160 -289zM461 1245 q31 55 79 93t101 38q51 0 137 -39q100 -41 123 -41q70 0 113 84l51 -45q-23 -55 -76 -94t-110 -39q-33 0 -127 41q-86 41 -134 41q-61 0 -102 -84z" />
<glyph unicode="&#xf6;" horiz-adv-x="1120" d="M139 471q33 205 200 350.5t372 145.5q209 0 330.5 -142.5t89 -351.5t-200.5 -351t-377 -142q-203 0 -324 144t-90 347zM231 471q-25 -164 70.5 -284.5t259.5 -120.5q174 0 311.5 116.5t163.5 288.5q27 174 -71.5 292t-274.5 118q-166 0 -299 -121t-160 -289zM492 1298 q6 35 34.5 58.5t61.5 23.5q35 0 54.5 -24.5t12.5 -57.5q-4 -33 -31.5 -57t-62.5 -24q-33 0 -53 23t-16 58zM874 1298q6 35 35 58.5t62 23.5q35 0 54 -24.5t13 -57.5q-4 -33 -31.5 -57t-62.5 -24q-33 0 -53.5 23t-16.5 58z" />
<glyph unicode="&#xf7;" d="M186 475l15 98h1048l-14 -98h-1049zM563 84q6 35 35 59.5t63.5 24.5t55 -24.5t14.5 -59.5q-4 -35 -32.5 -59.5t-63.5 -24.5t-55.5 24.5t-16.5 59.5zM705 965q4 35 32.5 59.5t63.5 24.5t55.5 -25t15.5 -59q-6 -35 -34.5 -59.5t-63.5 -24.5t-55 24.5t-14 59.5z" />
<glyph unicode="&#xf8;" horiz-adv-x="1120" d="M63 35l142 123q-94 135 -66 313q33 205 200 350.5t372 145.5q184 0 301 -113l149 129l47 -59l-145 -127q96 -131 67 -324q-33 -209 -200.5 -351t-376.5 -142q-184 0 -301 122l-143 -122zM231 471q-23 -141 48 -250l659 570q-96 90 -248 90q-166 0 -299 -121t-160 -289z M324 164q92 -98 237 -98q174 0 311.5 116.5t163.5 288.5q25 150 -49 260z" />
<glyph unicode="&#xf9;" horiz-adv-x="966" d="M189.5 277.5q3.5 27.5 13.5 101.5l90 567h92l-84 -534q-12 -94 -13 -171t49 -126t157 -49q82 0 138 26.5t88 79.5t48 106.5t29 133.5l84 534h92l-90 -567q-10 -63 -17.5 -98t-29 -86.5t-54.5 -88.5q-115 -127 -303 -126q-184 0 -262 126q-23 37 -27 90.5t-0.5 81z M492 1423l131 39l159 -301l-84 -35z" />
<glyph unicode="&#xfa;" horiz-adv-x="966" d="M189.5 277.5q3.5 27.5 13.5 101.5l90 567h92l-84 -534q-12 -94 -13 -171t49 -126t157 -49q82 0 138 26.5t88 79.5t48 106.5t29 133.5l84 534h92l-90 -567q-10 -63 -17.5 -98t-29 -86.5t-54.5 -88.5q-115 -127 -303 -126q-184 0 -262 126q-23 37 -27 90.5t-0.5 81z M553 1161l254 301l119 -39l-301 -297z" />
<glyph unicode="&#xfb;" horiz-adv-x="966" d="M189.5 277.5q3.5 27.5 13.5 101.5l90 567h92l-84 -534q-12 -94 -13 -171t49 -126t157 -49q82 0 138 26.5t88 79.5t48 106.5t29 133.5l84 534h92l-90 -567q-10 -63 -17.5 -98t-29 -86.5t-54.5 -88.5q-115 -127 -303 -126q-184 0 -262 126q-23 37 -27 90.5t-0.5 81z M391 1204l318 217l247 -217l-86 -59l-180 158l-233 -158z" />
<glyph unicode="&#xfc;" horiz-adv-x="966" d="M189.5 277.5q3.5 27.5 13.5 101.5l90 567h92l-84 -534q-12 -94 -13 -171t49 -126t157 -49q82 0 138 26.5t88 79.5t48 106.5t29 133.5l84 534h92l-90 -567q-10 -63 -17.5 -98t-29 -86.5t-54.5 -88.5q-115 -127 -303 -126q-184 0 -262 126q-23 37 -27 90.5t-0.5 81z M416 1298q6 35 34.5 58.5t61.5 23.5q35 0 54.5 -24.5t13.5 -57.5q-4 -33 -32 -57t-63 -24q-33 0 -53 23t-16 58zM799 1298q6 35 34.5 58.5t61.5 23.5q35 0 54.5 -24.5t13.5 -57.5q-4 -33 -32 -57t-63 -24q-33 0 -53 23t-16 58z" />
<glyph unicode="&#xfd;" horiz-adv-x="942" d="M125 -553l313 537l-303 962h96l269 -856l497 856h95l-873 -1499h-94zM551 1161l254 301l119 -39l-301 -297z" />
<glyph unicode="&#xfe;" horiz-adv-x="1146" d="M70 -553l356 2243h92l-145 -914h4q63 88 172.5 139.5t218.5 51.5q211 0 315.5 -144.5t71.5 -357.5q-33 -211 -181.5 -348t-359.5 -137q-113 0 -201.5 48t-131.5 136h-5l-114 -717h-92zM315 453q-27 -168 60.5 -277.5t255.5 -109.5q162 0 283.5 116.5t148.5 280.5 q27 170 -56 294t-251 124q-174 0 -293 -124t-148 -304z" />
<glyph unicode="&#xff;" horiz-adv-x="942" d="M125 -553l313 537l-303 962h96l269 -856l497 856h95l-873 -1499h-94zM414 1298q6 35 34.5 58.5t61.5 23.5q35 0 54.5 -24.5t13.5 -57.5q-4 -33 -32 -57t-63 -24q-33 0 -53 23t-16 58zM797 1298q6 35 34.5 58.5t61.5 23.5q35 0 54.5 -24.5t13.5 -57.5q-4 -33 -32 -57 t-63 -24q-33 0 -53 23t-16 58z" />
<glyph unicode="&#x131;" horiz-adv-x="479" d="M193 0l149 946h92l-149 -946h-92z" />
<glyph unicode="&#x152;" horiz-adv-x="2443" d="M197 772q51 328 326.5 560.5t604.5 232.5q215 0 385 -116t234 -306h4l64 401h737l-15 -92h-639l-88 -561h625l-14 -92h-625l-113 -707h639l-14 -92h-737l63 397h-4q-123 -193 -333 -305t-429 -112q-152 0 -287 59t-229 164q-208 231 -155 569zM295 772q-23 -141 12 -272 t123 -228q80 -94 201 -147t256 -53q293 0 536 217q223 203 269 483q45 287 -125 494t-455 207t-528.5 -208t-288.5 -493z" />
<glyph unicode="&#x153;" horiz-adv-x="1935" d="M139 471q33 209 203 352.5t379 143.5q139 0 248.5 -75t146.5 -200q68 129 191 202t262 73q213 0 311 -143.5t64 -358.5h-818q-35 -164 56.5 -281.5t253.5 -117.5q227 0 368 219l70 -47q-80 -123 -201 -190.5t-260 -67.5q-135 0 -236.5 76.5t-129.5 201.5 q-80 -125 -214.5 -201.5t-273.5 -76.5q-207 0 -330 142t-90 349zM231 465q-27 -160 72.5 -279.5t261.5 -119.5q170 0 306.5 118.5t162.5 286.5q27 166 -68.5 288t-260.5 122q-174 0 -309.5 -120t-164.5 -296zM1141 551h725q4 135 -82 232.5t-228 97.5q-143 0 -262.5 -97.5 t-152.5 -232.5z" />
<glyph unicode="&#x178;" horiz-adv-x="1144" d="M252 1544h108l332 -782l578 782h108l-653 -885l-104 -659h-99l105 659zM612 1825q6 35 34 58.5t61 23.5q35 0 55 -24.5t14 -57.5q-4 -33 -31.5 -57.5t-62.5 -24.5q-33 0 -53.5 23.5t-16.5 58.5zM995 1825q6 35 34 58.5t61 23.5q35 0 55 -24.5t14 -57.5 q-4 -33 -31.5 -57.5t-62.5 -24.5q-33 0 -53.5 23.5t-16.5 58.5z" />
<glyph unicode="&#x192;" d="M104 -252l31 86q70 -29 133 -29q90 0 129 52q47 63 97 204l294 842h-141l33 92h139l152 439q47 137 88 188q78 94 209 94q66 0 127 -30l-31 -84q-49 23 -102 22q-33 0 -58.5 -7t-46 -24.5t-35 -31t-28 -45t-19.5 -46t-18.5 -53.5t-16.5 -51l-127 -371h238l-33 -92h-235 l-271 -778q-4 -14 -17 -53t-20.5 -57.5t-21.5 -54.5t-24.5 -55.5t-28 -50t-33.5 -47t-40 -37t-47.5 -31.5t-54 -18.5t-63.5 -7.5q-74 0 -158 35z" />
<glyph unicode="&#x2c6;" horiz-adv-x="872" d="M344 1204l318 217l247 -217l-86 -59l-180 158l-233 -158z" />
<glyph unicode="&#x2da;" horiz-adv-x="663" d="M356 1284q12 74 72.5 126t134.5 52t118 -52t32 -126q-10 -74 -70.5 -126t-134.5 -52t-118 52t-34 126zM438 1284q-6 -39 17.5 -67.5t64.5 -28.5q39 0 72 27.5t39 68.5t-17.5 68.5t-62.5 27.5q-41 0 -74 -28.5t-39 -67.5z" />
<glyph unicode="&#x2dc;" horiz-adv-x="899" d="M350 1245q31 55 79 93t101 38q51 0 138 -39q100 -41 123 -41q70 0 112 84l51 -45q-23 -55 -76 -94t-110 -39q-33 0 -127 41q-86 41 -133 41q-61 0 -102 -84z" />
<glyph unicode="&#x3a9;" horiz-adv-x="1669" d="M129 0l12 78h363v6q-125 117 -188.5 303t-26.5 416q53 334 282.5 540.5t515.5 206.5q289 0 444 -215t105 -526q-39 -240 -167 -431.5t-283 -293.5v-6h366l-12 -78h-516l8 57q180 98 324.5 294t185.5 448q18 115 -1 231.5t-72.5 217t-157 164t-238.5 63.5 q-260 0 -454.5 -198t-239.5 -482q-37 -240 46 -440.5t226 -297.5l-8 -57h-514z" />
<glyph unicode="&#x3c0;" horiz-adv-x="1257" d="M145 0q90 160 191.5 474t155.5 575q-203 0 -281 -33l-14 61q106 51 305 51h882l-24 -79h-201l-115 -723q-33 -217 -16 -326h-90q-29 57 12 307l117 742h-481q-53 -258 -158.5 -585t-189.5 -464h-93z" />
<glyph unicode="&#x2000;" horiz-adv-x="1024" />
<glyph unicode="&#x2001;" horiz-adv-x="2048" />
<glyph unicode="&#x2002;" horiz-adv-x="1024" />
<glyph unicode="&#x2003;" horiz-adv-x="2048" />
<glyph unicode="&#x2004;" horiz-adv-x="681" />
<glyph unicode="&#x2005;" horiz-adv-x="512" />
<glyph unicode="&#x2006;" horiz-adv-x="339" />
<glyph unicode="&#x2007;" />
<glyph unicode="&#x2008;" horiz-adv-x="634" />
<glyph unicode="&#x2009;" horiz-adv-x="204" />
<glyph unicode="&#x200a;" horiz-adv-x="20" />
<glyph unicode="&#x200b;" horiz-adv-x="0" />
<glyph unicode="&#x200c;" horiz-adv-x="0" />
<glyph unicode="&#x200d;" horiz-adv-x="0" />
<glyph unicode="&#x200e;" horiz-adv-x="681" />
<glyph unicode="&#x200f;" horiz-adv-x="681" />
<glyph unicode="&#x2010;" horiz-adv-x="389" d="M96 608l15 92h389l-15 -92h-389z" />
<glyph unicode="&#x2011;" horiz-adv-x="389" d="M96 608v92h404v-92h-404z" />
<glyph unicode="&#x2012;" d="M96 608v92h1284v-92h-1284z" />
<glyph unicode="&#x2013;" horiz-adv-x="1024" d="M96 608l15 92h1024l-15 -92h-1024z" />
<glyph unicode="&#x2014;" horiz-adv-x="2048" d="M362 608l15 92h1515l-14 -92h-1516z" />
<glyph unicode="&#x2015;" horiz-adv-x="4096" d="M96 608v92h4111v-92h-4111z" />
<glyph unicode="&#x2016;" horiz-adv-x="1589" d="M1274 -604v2419h86v-2419h-86zM479 -604v2419h86v-2419h-86z" />
<glyph unicode="&#x2018;" horiz-adv-x="530" d="M324 1100l243 465l58 -23l-213 -469z" />
<glyph unicode="&#x2019;" horiz-adv-x="530" d="M324 1096l213 469l88 -27l-244 -465z" />
<glyph unicode="&#x201a;" horiz-adv-x="530" d="M98 -317l215 469l88 -29l-243 -463z" />
<glyph unicode="&#x201c;" horiz-adv-x="798" d="M324 1100l243 465l58 -23l-213 -469zM592 1100l244 465l57 -23l-213 -469z" />
<glyph unicode="&#x201d;" horiz-adv-x="798" d="M324 1096l213 469l88 -27l-244 -465zM592 1096l213 469l88 -27l-244 -465z" />
<glyph unicode="&#x201e;" horiz-adv-x="798" d="M98 -317l215 469l88 -29l-243 -463zM367 -317l215 469l88 -29l-244 -463z" />
<glyph unicode="&#x2020;" d="M381 1044l14 93h371l63 407h99l-64 -407h371l-14 -93h-371l-223 -1409h-99l224 1409h-371z" />
<glyph unicode="&#x2021;" d="M227 76l15 92h370l140 876h-371l14 93h371l63 407h99l-64 -407h371l-14 -93h-371l-139 -876h370l-14 -92h-371l-69 -441h-99l70 441h-371z" />
<glyph unicode="&#x2022;" d="M373 772q25 162 154.5 274.5t293.5 112.5t256 -112.5t68 -274.5q-27 -160 -155 -272.5t-291.5 -112.5t-258 112.5t-67.5 272.5z" />
<glyph unicode="&#x2024;" horiz-adv-x="634" d="M244 63.5q6 34.5 33.5 59t62.5 24.5t56.5 -24.5t15.5 -59t-35 -59t-63.5 -24.5t-55 24.5t-14.5 59z" />
<glyph unicode="&#x2025;" d="M879 63.5q6 34.5 33.5 59t62.5 24.5t56.5 -24.5t15.5 -59t-35 -59t-63.5 -24.5t-55 24.5t-14.5 59zM244 63.5q6 34.5 33.5 59t62.5 24.5t56.5 -24.5t15.5 -59t-35 -59t-63.5 -24.5t-55 24.5t-14.5 59z" />
<glyph unicode="&#x2026;" horiz-adv-x="2048" d="M268 70q6 35 35 59.5t63.5 24.5t55 -25t14.5 -59q-4 -35 -32.5 -59.5t-63.5 -24.5t-55.5 24.5t-16.5 59.5zM950 70q6 35 35 59.5t63.5 24.5t55 -25t14.5 -59q-4 -35 -32.5 -59.5t-63.5 -24.5t-55.5 24.5t-16.5 59.5zM1632 70q6 35 35 59.5t63.5 24.5t55 -25t14.5 -59 q-4 -35 -32.5 -59.5t-63.5 -24.5t-55.5 24.5t-16.5 59.5z" />
<glyph unicode="&#x202a;" horiz-adv-x="0" />
<glyph unicode="&#x202f;" horiz-adv-x="397" />
<glyph unicode="&#x2030;" horiz-adv-x="2117" d="M188 2l1164 1577l61 -35l-1167 -1579zM256 1253q20 133 124.5 219.5t236 86.5t207 -86.5t55.5 -219.5q-20 -129 -124 -215t-235 -86t-207.5 86t-56.5 215zM342 1253q-14 -88 43 -151.5t147 -63.5q92 0 169 63.5t92 151.5q14 92 -42.5 156t-148.5 64t-169 -65t-91 -155z M725 287q20 133 124.5 219t236 86t207 -86t55.5 -219q-20 -129 -124 -215t-235 -86t-207.5 86t-56.5 215zM811 287q-14 -88 43 -151.5t149.5 -63.5t168 63.5t90.5 151.5q14 90 -42.5 154.5t-148.5 64.5t-169 -63.5t-91 -155.5zM1483 287q20 133 124.5 219t235.5 86t207 -86 t55 -219q-20 -129 -123.5 -215t-234.5 -86t-207.5 86t-56.5 215zM1569 287q-14 -88 43 -151.5t149 -63.5t168 63.5t90 151.5q14 90 -42 154.5t-148 64.5t-169 -63.5t-91 -155.5z" />
<glyph unicode="&#x2032;" horiz-adv-x="454" d="M365 1053l57 491h98l-100 -491h-55z" />
<glyph unicode="&#x2033;" horiz-adv-x="909" d="M820 1053l57 491h98l-100 -491h-55zM365 1053l57 491h98l-100 -491h-55z" />
<glyph unicode="&#x2034;" horiz-adv-x="1363" d="M1274 1053l57 491h98l-100 -491h-55zM820 1053l57 491h98l-100 -491h-55zM365 1053l57 491h98l-100 -491h-55z" />
<glyph unicode="&#x2035;" horiz-adv-x="641" d="M379 1423l131 39l160 -301l-84 -35z" />
<glyph unicode="&#x2036;" horiz-adv-x="1282" d="M1020 1423l131 39l160 -301l-84 -35zM379 1423l131 39l160 -301l-84 -35z" />
<glyph unicode="&#x2037;" horiz-adv-x="1923" d="M1661 1423l131 39l160 -301l-84 -35zM1020 1423l131 39l160 -301l-84 -35zM379 1423l131 39l160 -301l-84 -35z" />
<glyph unicode="&#x2039;" horiz-adv-x="567" d="M176 655l352 346l52 -55l-293 -291l200 -290l-67 -56z" />
<glyph unicode="&#x203a;" horiz-adv-x="567" d="M195 365l294 290l-202 291l67 55l246 -346l-354 -346z" />
<glyph unicode="&#x203c;" horiz-adv-x="1310" d="M909 63.5q6 34.5 33.5 59t62.5 24.5t56.5 -24.5t15.5 -59t-35 -59t-63.5 -24.5t-55 24.5t-14.5 59zM981 293l196 1251h99l-197 -1251h-98zM254 63.5q6 34.5 33.5 59t62.5 24.5t56.5 -24.5t15.5 -59t-35 -59t-63.5 -24.5t-55 24.5t-14.5 59zM326 293l196 1251h99 l-197 -1251h-98z" />
<glyph unicode="&#x203e;" horiz-adv-x="634" d="M-293 123l15 92h624l-14 -92h-625z" />
<glyph unicode="&#x2044;" horiz-adv-x="264" d="M-358 2l1165 1579l59 -37l-1165 -1579z" />
<glyph unicode="&#x2047;" horiz-adv-x="2011" d="M1280 596q23 133 111 205.5t231 107.5q70 18 104 27.5t84 32t75.5 49t49 71t32.5 103.5q18 117 -45.5 199t-182.5 82q-115 0 -204 -75t-103 -186q-10 -66 -8 -108h-94q0 86 8 131q23 143 145.5 236.5t272.5 93.5q164 0 249.5 -103.5t59.5 -265.5q-25 -162 -123 -243 t-274 -124q-53 -12 -81 -20t-70 -26.5t-64.5 -40t-44 -57.5t-27.5 -83q-14 -94 40 -156.5t154.5 -62.5t170 69.5t83.5 168.5h99q-16 -141 -122 -235.5t-251 -94.5q-135 0 -215 87t-60 218zM1430 63.5q6 34.5 33.5 59t62.5 24.5t56.5 -24.5t15.5 -59t-35 -59t-63.5 -24.5 t-55 24.5t-14.5 59zM274 596q23 133 111 205.5t231 107.5q70 18 104 27.5t84 32t75.5 49t49 71t32.5 103.5q18 117 -45.5 199t-182.5 82q-115 0 -204 -75t-103 -186q-10 -66 -8 -108h-94q0 86 8 131q23 143 145.5 236.5t272.5 93.5q164 0 249.5 -103.5t59.5 -265.5 q-25 -162 -123 -243t-274 -124q-53 -12 -81 -20t-70 -26.5t-64.5 -40t-44 -57.5t-27.5 -83q-14 -94 40 -156.5t154.5 -62.5t170 69.5t83.5 168.5h99q-16 -141 -122 -235.5t-251 -94.5q-135 0 -215 87t-60 218zM424 63.5q6 34.5 33.5 59t62.5 24.5t56.5 -24.5t15.5 -59 t-35 -59t-63.5 -24.5t-55 24.5t-14.5 59z" />
<glyph unicode="&#x2048;" horiz-adv-x="1660" d="M1260 63.5q6 34.5 33.5 59t62.5 24.5t56.5 -24.5t15.5 -59t-35 -59t-63.5 -24.5t-55 24.5t-14.5 59zM1332 293l196 1251h99l-197 -1251h-98zM274 596q23 133 111 205.5t231 107.5q70 18 104 27.5t84 32t75.5 49t49 71t32.5 103.5q18 117 -45.5 199t-182.5 82 q-115 0 -204 -75t-103 -186q-10 -66 -8 -108h-94q0 86 8 131q23 143 145.5 236.5t272.5 93.5q164 0 249.5 -103.5t59.5 -265.5q-25 -162 -123 -243t-274 -124q-53 -12 -81 -20t-70 -26.5t-64.5 -40t-44 -57.5t-27.5 -83q-14 -94 40 -156.5t154.5 -62.5t170 69.5t83.5 168.5 h99q-16 -141 -122 -235.5t-251 -94.5q-135 0 -215 87t-60 218zM424 63.5q6 34.5 33.5 59t62.5 24.5t56.5 -24.5t15.5 -59t-35 -59t-63.5 -24.5t-55 24.5t-14.5 59z" />
<glyph unicode="&#x2049;" horiz-adv-x="1660" d="M929 596q23 133 111 205.5t231 107.5q70 18 104 27.5t84 32t75.5 49t49 71t32.5 103.5q18 117 -45.5 199t-182.5 82q-115 0 -204 -75t-103 -186q-10 -66 -8 -108h-94q0 86 8 131q23 143 145.5 236.5t272.5 93.5q164 0 249.5 -103.5t59.5 -265.5q-25 -162 -123 -243 t-274 -124q-53 -12 -81 -20t-70 -26.5t-64.5 -40t-44 -57.5t-27.5 -83q-14 -94 40 -156.5t154.5 -62.5t170 69.5t83.5 168.5h99q-16 -141 -122 -235.5t-251 -94.5q-135 0 -215 87t-60 218zM1079 63.5q6 34.5 33.5 59t62.5 24.5t56.5 -24.5t15.5 -59t-35 -59t-63.5 -24.5 t-55 24.5t-14.5 59zM254 63.5q6 34.5 33.5 59t62.5 24.5t56.5 -24.5t15.5 -59t-35 -59t-63.5 -24.5t-55 24.5t-14.5 59zM326 293l196 1251h99l-197 -1251h-98z" />
<glyph unicode="&#x2057;" horiz-adv-x="1818" d="M1729 1053l57 491h98l-100 -491h-55zM1274 1053l57 491h98l-100 -491h-55zM820 1053l57 491h98l-100 -491h-55zM365 1053l57 491h98l-100 -491h-55z" />
<glyph unicode="&#x205f;" horiz-adv-x="495" />
<glyph unicode="&#x2060;" horiz-adv-x="0" />
<glyph unicode="&#x20a8;" horiz-adv-x="1767" d="M1093 229l94 29q29 -193 205 -192q88 0 160 61t88 152q2 16 2 31q0 22 -5 41q-9 32 -36 53.5t-51.5 33t-65.5 27.5q-61 25 -94 40t-76 47t-58 75q-10 28 -10 62q0 18 3 38q16 104 103 172t194 68q74 0 135 -43t82 -109l-86 -41q-33 106 -150 107q-61 0 -118.5 -44 t-65.5 -104q-2 -12 -2 -23q0 -46 33 -77q41 -39 105.5 -62.5t128 -51t100.5 -89.5q27 -44 26 -105q0 -24 -4 -51q-20 -129 -121.5 -211.5t-230.5 -82.5q-119 0 -197 67t-88 182zM166 0l244 1544h192q80 0 127 -3t108.5 -21.5t104.5 -53.5q111 -88 111 -247q0 -40 -6 -84 q-31 -197 -170 -302q-134 -102 -322 -102h-14l389 -731h-113l-387 731h-49l-117 -731h-98zM395 823h125q186 0 281 72q123 88 147 244q5 29 5 57q0 58 -20 110q-30 77 -104 111q-68 35 -272 35h-63z" />
<glyph unicode="&#x20ac;" d="M166 596l41 82h115q4 35 12 94q4 35 18 96h-143l41 82h121q78 276 243.5 444.5t423.5 168.5q238 0 357 -123l-17 -107q-121 139 -348 140q-213 0 -356.5 -148.5t-204.5 -374.5h731l-43 -82h-708q-10 -43 -19 -96q-8 -49 -12 -94h639l-41 -82h-600q-10 -252 90 -390 t303 -138q217 0 391 139l-16 -107q-152 -119 -396 -118q-242 0 -362.5 153.5t-108.5 460.5h-151z" />
<glyph unicode="&#x2122;" horiz-adv-x="1925" d="M350 1458l12 86h656l-12 -86h-285l-123 -776h-86l123 776h-285zM1053 682l135 862h147l176 -670h5l389 670h147l-135 -862h-86l123 776h-8l-461 -776h-4l-211 776h-8l-123 -776h-86z" />
<glyph unicode="&#x2202;" horiz-adv-x="1202" d="M180 487q39 242 206 394.5t357 152.5q80 0 150 -27.5t113 -68.5t69.5 -78t36.5 -69h2q2 8 23 114q53 330 -51.5 529.5t-290.5 199.5q-170 0 -324 -106l-33 63q172 119 373 119q223 0 349 -214t65 -609q-61 -383 -247.5 -641t-459.5 -258q-201 0 -286 147t-52 352z M274 494q-29 -186 42 -308.5t219 -122.5h2q178 0 325.5 175.5t216.5 437.5q-20 102 -111 191t-229 89q-158 0 -296 -134.5t-169 -327.5z" />
<glyph unicode="&#x2206;" horiz-adv-x="1468" d="M78 0l12 82l844 1491h104l367 -1491l-12 -82h-1315zM182 78h1121l-234 960q-4 18 -48 189.5t-52 232.5h-11q-20 -47 -107 -199.5t-103 -183.5z" />
<glyph unicode="&#x220f;" horiz-adv-x="1804" d="M303 1442v84h1442v-84h-262v-1653h-92v1653h-734v-1653h-90v1653h-264z" />
<glyph unicode="&#x2211;" horiz-adv-x="1495" d="M293 -145l653 798l-622 807v66h1083v-84h-942v-6l594 -772l-635 -779v-6h1018v-90h-1149v66z" />
<glyph unicode="&#x221a;" horiz-adv-x="1509" d="M330 713l258 98l327 -897q23 -78 35 -137h2q4 23 14.5 74t12.5 57l446 1894h80l-501 -2142h-99l-379 1051l-172 -64z" />
<glyph unicode="&#x221e;" horiz-adv-x="1900" d="M272 629q0 143 97.5 239.5t242.5 96.5q80 0 164 -47.5t133 -95.5t129 -138q74 80 101.5 108.5t90 81t119 72t121.5 19.5q143 0 228.5 -91.5t85.5 -236.5v-2q0 -147 -99.5 -242.5t-232.5 -95.5q-72 0 -144.5 39t-123.5 86t-154 151q-70 -76 -97.5 -103.5t-90 -79.5 t-120.5 -72.5t-124 -20.5q-133 0 -229.5 97.5t-96.5 234.5zM356 625q0 -106 70 -180t184 -74h2q45 0 88 15t86 49t70 58.5t73 71.5t60 62q-4 6 -31.5 36.5t-35 39t-33 36t-36.5 36.5t-35.5 31.5t-41 31t-41 22.5t-45 20.5t-46.5 11.5t-50 5q-111 0 -175.5 -80.5 t-62.5 -191.5zM1079 635q102 -106 146.5 -147.5t110 -79t124.5 -37.5q111 0 177.5 77.5t66.5 180.5q0 127 -68.5 197.5t-175.5 70.5h-2q-57 0 -117.5 -33t-98.5 -66.5t-93.5 -91t-69.5 -71.5z" />
<glyph unicode="&#x222b;" horiz-adv-x="997" d="M268 -297l25 70q55 -31 106 -31q66 0 109 53q88 106 88 402q0 168 -14.5 569t-14.5 565q0 176 25.5 280.5t87.5 164.5q74 76 176 75q72 0 115 -34l-27 -66q-33 25 -84 25q-72 0 -117 -47q-86 -94 -86 -406q0 -168 14.5 -565.5t14.5 -564.5q0 -303 -104 -445 q-68 -84 -183 -84q-78 0 -131 39z" />
<glyph unicode="&#x2248;" horiz-adv-x="1445" d="M264 360q106 205 301 205q39 0 81 -11t65.5 -23.5t65.5 -35t52 -28.5q8 -4 28 -14.5t28 -15.5t25.5 -13t27.5 -11t26.5 -9.5t30 -8.5t30.5 -4t34 -2q70 0 121 40t102 130l47 -41q-102 -199 -280 -199q-45 0 -93.5 14.5t-76 28t-107.5 56.5q-143 78 -221 78 q-76 0 -130 -45t-106 -129zM264 723q109 203 301 203q39 0 81 -12.5t66.5 -23.5t64.5 -33.5t52 -29.5q10 -4 38 -19t37 -19.5t33 -14.5t39 -14t36.5 -7t44.5 -3q70 0 122 40.5t103 131.5l47 -41q-104 -201 -280 -201q-18 0 -36 2t-30 4t-32.5 9t-31 10.5t-34.5 15.5l-33 16 q-8 4 -40 20.5t-40 20.5q-139 78 -223 78q-127 0 -234 -172z" />
<glyph unicode="&#x2260;" horiz-adv-x="1478" d="M301 377v72h399l164 346h-563v73h596l127 269l59 -31l-112 -238h389v-73h-420l-168 -346h588v-72h-619l-131 -277l-59 31l115 246h-365z" />
<glyph unicode="&#x2264;" horiz-adv-x="1505" d="M324 25v73h1058v-73h-1058zM340 705v73l1038 508v-90l-952 -451v-4l952 -456v-90z" />
<glyph unicode="&#x2265;" horiz-adv-x="1505" d="M326 25v73h1056v-73h-1056zM340 195v90l948 452v6l-948 453v90l1038 -508v-73z" />
<glyph unicode="&#x25ca;" horiz-adv-x="1515" d="M379 762l465 864h78l462 -864l-464 -862h-78zM469 766l371 -682q33 -68 41 -100h6q20 63 41 100l364 676l-366 680q-18 33 -45 102h-4q-18 -53 -46 -102z" />
<glyph unicode="&#xe000;" horiz-adv-x="945" d="M0 945h945v-945h-945v945z" />
<glyph unicode="&#xfb01;" horiz-adv-x="972" d="M158 0l137 860h-105l13 86h104l68 424q25 164 74 232q84 115 229 114q43 0 80 -14l-15 -84q-8 2 -22 5t-26.5 5t-24.5 2q-57 0 -96 -24.5t-60.5 -73.5t-30 -84t-18.5 -96l-66 -406h238l-12 -86h-238l-137 -860h-92zM686 0l150 946h92l-150 -946h-92zM850 1262 q4 35 32.5 59.5t63.5 24.5t55.5 -25t16.5 -59q-6 -35 -35 -59.5t-63.5 -24.5t-55 24.5t-14.5 59.5z" />
<glyph unicode="&#xfb02;" horiz-adv-x="899" d="M158 0l137 860h-105l13 86h104l68 424q25 164 74 232q84 115 229 114q43 0 80 -14l-15 -84q-8 2 -22 5t-26.5 5t-24.5 2q-57 0 -96 -24.5t-60.5 -73.5t-30 -84t-18.5 -96l-66 -406h238l-12 -86h-238l-137 -860h-92zM649 0l269 1690h92l-269 -1690h-92z" />
</font>
</defs>
</svg>
