<?xml version="1.0" standalone="no"?>
<!DOCTYPE svg PUBLIC "-//W3C//DTD SVG 1.1//EN" "http://www.w3.org/Graphics/SVG/1.1/DTD/svg11.dtd" >
<svg xmlns="http://www.w3.org/2000/svg">
<metadata>
This is a custom SVG webfont generated by Font Squirrel.
Copyright   :  1987 1991 1993 2002 Adobe Systems Incorporated All rights reserved
Designer    : Paul Renner
Foundry URL : httpwwwadobecomtype
</metadata>
<defs>
<font id="FuturaStdMediumOblique" horiz-adv-x="1183" >
<font-face units-per-em="2048" ascent="1690" descent="-358" />
<missing-glyph horiz-adv-x="591" />
<glyph unicode=" "  horiz-adv-x="591" />
<glyph unicode="&#x09;" horiz-adv-x="591" />
<glyph unicode="&#xa0;" horiz-adv-x="591" />
<glyph unicode="!" horiz-adv-x="657" d="M225 86q8 47 48 83t89.5 36t79 -36t21.5 -83q-8 -49 -49 -84t-90.5 -35t-78 35t-20.5 84zM295 356l186 1188h185l-187 -1188h-184z" />
<glyph unicode="&#x22;" horiz-adv-x="899" d="M358 872l70 672h201l-144 -672h-127zM688 872l70 672h200l-143 -672h-127z" />
<glyph unicode="#" d="M119 430l26 164h236l104 315h-215l27 164h244l137 397h158l-138 -397h254l135 397h162l-135 -397h189l-27 -164h-219l-105 -315h207l-26 -164h-240l-145 -430h-156l143 430h-252l-149 -430h-154l144 430h-205zM541 594h252l104 315h-252z" />
<glyph unicode="$" d="M166 397l190 39q4 -135 60.5 -203.5t185.5 -85.5l98 615l-67 37q-133 74 -195.5 155.5t-40.5 219.5q23 154 151 272.5t281 130.5l29 184h103l-29 -184q229 -23 313 -238l-178 -92q-39 113 -164 152l-76 -481q170 -80 261.5 -190t64.5 -282q-29 -168 -169 -312t-308 -167 l-31 -194h-102l30 194q-178 2 -292.5 127t-114.5 303zM578 1188q-23 -145 155 -221l68 432q-84 -12 -147.5 -71.5t-75.5 -139.5zM707 160q98 20 170.5 100t89.5 178q27 164 -172 277z" />
<glyph unicode="%" horiz-adv-x="1449" d="M229 18l1151 1559l84 -53l-1149 -1557zM229.5 1224.5q22.5 145.5 145.5 249t270.5 103.5t237.5 -103.5t67.5 -249t-146.5 -248t-269.5 -102.5t-236.5 102.5t-68.5 248zM352 1225q-14 -92 45.5 -160t155.5 -68t178 68t96 160q14 94 -46 161.5t-156.5 67.5t-177.5 -67.5 t-95 -161.5zM747.5 317.5q22.5 145.5 145.5 249t270.5 103.5t237.5 -103.5t67.5 -249t-147.5 -248t-270.5 -102.5t-235.5 102.5t-67.5 248zM870 317q-14 -92 45.5 -159.5t155.5 -67.5t178 67.5t97 159.5q14 94 -46.5 162t-156.5 68t-177.5 -68t-95.5 -162z" />
<glyph unicode="&#x26;" horiz-adv-x="1417" d="M176 422q20 133 102 223t232 186l108 70q-141 178 -116 338q25 156 139.5 247t269.5 91q147 0 238.5 -87t67.5 -235q-10 -61 -42 -117.5t-87.5 -106.5t-99.5 -83t-114 -78l261 -389l213 209l104 -127l-225 -221l223 -342h-238l-135 209q-242 -242 -502 -242 q-197 0 -314.5 129t-84.5 326zM356 424q-18 -111 56.5 -198t185.5 -87q68 0 142.5 35t122.5 71t122 99l-276 418l-21 -12q-6 -4 -41 -26t-47 -29t-45 -28.5t-48 -35t-42 -35t-40 -39.5t-30.5 -40.5t-26 -45t-12.5 -47.5zM686 1262q-12 -78 62 -193l40 -65l27 16q8 6 44 30.5 t50.5 35t42 34t41 41t26.5 44t17 52.5q14 80 -29.5 124t-123.5 44q-72 0 -129.5 -45.5t-67.5 -117.5z" />
<glyph unicode="'" horiz-adv-x="567" d="M358 872l70 672h201l-144 -672h-127z" />
<glyph unicode="(" horiz-adv-x="598" d="M182.5 105.5q-10.5 289.5 34.5 525.5q41 268 137.5 542.5t237.5 483.5l133 -113q-233 -373 -319 -913q-86 -547 30 -914l-170 -112q-73 211 -83.5 500.5z" />
<glyph unicode=")" horiz-adv-x="598" d="M72 -283q236 371 321 914q86 549 -33 913l170 113q74 -209 84.5 -500t-32.5 -526q-43 -268 -139.5 -541.5t-237.5 -484.5z" />
<glyph unicode="*" horiz-adv-x="884" d="M307 1124l191 101l-156 102l82 117l166 -101l31 201h141l-31 -194l182 98l54 -121l-191 -102l158 -103l-90 -118l-150 102l-32 -197h-142l33 199l-195 -100z" />
<glyph unicode="+" d="M137 436l27 176h436l70 437h176l-70 -437h436l-26 -176h-436l-70 -436h-176l69 436h-436z" />
<glyph unicode="," horiz-adv-x="591" d="M59 -319l316 563l149 -64l-358 -547z" />
<glyph unicode="-" horiz-adv-x="679" d="M209 580l24 153h449l-25 -153h-448z" />
<glyph unicode="." horiz-adv-x="591" d="M193 86q8 47 48 83t89 36t78.5 -36t21.5 -83q-8 -49 -49 -84t-90 -35t-77.5 35t-20.5 84z" />
<glyph unicode="/" horiz-adv-x="1128" d="M35 -193l1163 1971l137 -66l-1165 -1970z" />
<glyph unicode="0" d="M162 567.5q4 108.5 14 204.5q20 129 70.5 261t129.5 258t201.5 206t264.5 80q115 0 200.5 -53.5t131 -138.5t72 -192.5t22.5 -215t-15 -205.5q-20 -127 -71.5 -260t-131 -259t-201.5 -206t-263 -80q-115 0 -201 53.5t-130 139.5t-70.5 192.5t-22.5 215zM347 584.5 q5 -109.5 23.5 -207.5t82 -168t162 -70t182.5 67.5t137 172t87 205t48 190.5q10 70 13 148.5t-9 168t-38.5 160t-83 116.5t-136.5 46q-98 0 -182 -68.5t-138.5 -173t-87 -206t-47.5 -191.5q-18 -80 -13 -189.5z" />
<glyph unicode="1" d="M469 1368l133 176h346l-243 -1544h-185l217 1368h-268z" />
<glyph unicode="2" d="M92 0l807 829q166 170 182 277q18 121 -59.5 208t-198.5 87q-117 0 -215 -82t-127 -201h-192q57 209 206.5 334t356.5 125q201 0 322.5 -132t91.5 -331q-29 -176 -164 -317l-606 -621h622l-28 -176h-998z" />
<glyph unicode="3" d="M168 381h186q-2 -111 72 -178.5t188 -67.5q127 0 225.5 88t118.5 215q23 145 -55 227.5t-223 71.5l25 160q303 0 344 248q18 117 -46.5 190.5t-181.5 73.5q-104 0 -182 -60.5t-109 -160.5h-190q57 190 190.5 289.5t323.5 99.5t301 -113.5t80 -302.5q-39 -238 -252 -348 q203 -104 158 -383q-33 -211 -194 -337t-374 -126q-186 0 -304.5 115t-100.5 299z" />
<glyph unicode="4" d="M49 225l1165 1385l-192 -1217h176l-27 -168h-176l-34 -225h-185l35 225h-762zM399 393h439l102 637h-4z" />
<glyph unicode="5" d="M98 238l166 135q20 -96 110.5 -163t194.5 -67q156 0 282 112t150 267q25 150 -67 258.5t-242 108.5q-180 0 -311 -137h-37l363 792h618l-27 -176h-485l-147 -317l110 6q217 0 331 -160t79 -381q-37 -240 -227.5 -394.5t-432.5 -154.5q-145 0 -263 73t-165 198z" />
<glyph unicode="6" d="M156 461q29 182 231 407l639 709l125 -94l-500 -557l2 -4q80 37 158 36q186 0 293.5 -146t77.5 -337q-33 -211 -207 -359.5t-385 -148.5q-203 0 -335 146.5t-99 347.5zM340 465q-20 -133 61.5 -229.5t214.5 -96.5q131 0 244 94.5t133 221.5q23 139 -62 235t-212 96 t-243 -98t-136 -223z" />
<glyph unicode="7" d="M106 59l1006 1309h-799l27 176h1112l-1212 -1577z" />
<glyph unicode="8" d="M176 430q20 129 100 229.5t203 141.5q-184 115 -147 346q29 186 176 308t333.5 122t295 -122t80.5 -308q-18 -113 -86 -202t-173 -144q111 -41 158 -141.5t27 -229.5q-33 -209 -194 -336t-363.5 -127t-322.5 127t-87 336zM360 430q-18 -115 61 -203t193.5 -88t220 88 t123.5 203q20 121 -56.5 206t-195 85t-222.5 -85t-124 -206zM512 1147q-16 -92 53.5 -177t165.5 -85t192.5 84t112.5 178q16 111 -50 188.5t-171 77.5q-106 0 -196.5 -78.5t-106.5 -187.5z" />
<glyph unicode="9" d="M276 1069q33 211 206 359.5t384 148.5q203 0 336 -146.5t101 -347.5q-29 -184 -234 -407l-639 -709l-123 96l500 555l-4 5q-63 -29 -154 -29q-188 0 -296 143.5t-77 331.5zM463 1081q-23 -133 64 -228t212 -95q143 0 251 96t128 227q18 125 -60.5 224.5t-203.5 99.5 q-139 0 -255 -96.5t-136 -227.5z" />
<glyph unicode=":" horiz-adv-x="591" d="M193 86q8 47 48 83t89 36t78.5 -36t21.5 -83q-8 -49 -49 -84t-90 -35t-77.5 35t-20.5 84zM315 868q8 47 48 83t89.5 36t79 -36t21.5 -83q-8 -49 -48 -83.5t-89 -34.5t-79 34.5t-22 83.5z" />
<glyph unicode=";" horiz-adv-x="591" d="M43 -319l315 563l150 -64l-358 -547zM412 868q8 47 48 83t89 36t78.5 -36t21.5 -83q-8 -49 -48 -83.5t-89 -34.5t-78.5 34.5t-21.5 83.5z" />
<glyph unicode="&#x3c;" d="M139 453l23 143l1116 424l-31 -193l-833 -303l737 -303l-31 -192z" />
<glyph unicode="=" d="M109 260l28 176h1049l-29 -176h-1048zM164 612l29 176h1048l-29 -176h-1048z" />
<glyph unicode="&#x3e;" d="M72 29l30 192l836 303l-739 303l30 193l981 -424l-22 -143z" />
<glyph unicode="?" horiz-adv-x="927" d="M252 705q23 131 99.5 193.5t207.5 107.5q10 4 49 17t50.5 17t44 17.5t45 23t35 25.5t31.5 31.5t19.5 37t14.5 46.5q14 84 -31 133t-129 49q-72 0 -132 -52.5t-71 -123.5q-2 -14 2 -66h-192l6 68q14 145 143 246.5t279 101.5q156 0 246 -104.5t65 -258.5 q-25 -158 -151 -253q-70 -55 -273 -115q-156 -47 -172 -150q-10 -61 24 -104t95 -43q66 0 114 46t58 112h186q-14 -131 -132.5 -230.5t-252.5 -99.5q-137 0 -217.5 95.5t-60.5 232.5zM367 86q8 47 48 83t89 36t78.5 -36t21.5 -83q-8 -49 -49 -84t-90 -35t-77.5 35t-20.5 84z " />
<glyph unicode="@" horiz-adv-x="1638" d="M197 772q53 342 316 573.5t593 231.5q287 0 453 -178q197 -197 155 -471q-41 -266 -196 -434q-86 -92 -176.5 -137.5t-167.5 -41.5q-90 4 -91 127q-145 -127 -299 -127q-137 0 -223 112t-59 267q31 195 170 341.5t323 146.5q160 0 250 -146l49 127h146l-187 -526 q-45 -127 -30 -158q8 -18 32 -18q74 0 166 123t117 270q41 254 -92 406.5t-373 152.5q-258 0 -465 -187.5t-248 -453.5q-43 -276 117 -458.5t428 -182.5q266 0 398 98l133 -123q-141 -70 -266.5 -104.5t-307.5 -34.5q-334 0 -527 229.5t-138 575.5zM664 709 q-16 -94 29.5 -164t137.5 -70q127 0 206 81t114 206q35 123 -12 191.5t-156 68.5q-119 0 -210 -97t-109 -216z" />
<glyph unicode="A" horiz-adv-x="1439" d="M-16 0l991 1610l483 -1610h-207l-114 387h-709l-238 -387h-206zM537 563h548l-176 625z" />
<glyph unicode="B" horiz-adv-x="1095" d="M131 0l244 1544h188q119 0 210 -18.5t168 -62.5t110 -131q20 -54 20 -121q0 -42 -8 -91q-14 -88 -72.5 -173t-140.5 -120v-4q129 -25 199 -139q53 -87 52 -186q0 -32 -5 -66q-23 -147 -118 -247.5t-219 -142.5t-267 -42h-361zM350 172h148q365 0 407 272q4 25 4 47 q0 48 -18 86q-27 54 -84 80.5t-118.5 38t-133.5 11.5h-119zM461 860h49q158 0 252 53.5t119 204.5q5 33 5 62q0 38 -9 68q-16 52 -60.5 79t-95.5 36t-127 9h-53z" />
<glyph unicode="C" horiz-adv-x="1353" d="M182 764q53 342 331 577.5t620 235.5q217 0 372 -104l-35 -224q-147 152 -385 152q-256 0 -461.5 -185.5t-246.5 -445.5q-9 -56 -9 -109q0 -188 113 -332q145 -185 402 -186q236 0 436 160l-35 -227q-205 -109 -424 -109q-332 0 -530 232q-158 184 -158 432q0 65 10 133z " />
<glyph unicode="D" horiz-adv-x="1361" d="M131 0l244 1544h319q180 0 327.5 -48t253 -140t150.5 -241q27 -88 27 -190q0 -69 -12 -145q-59 -379 -335 -579.5t-661 -200.5h-313zM352 176h68q156 0 287 31t245.5 98.5t191.5 186t103 280.5q11 66 11 124q0 87 -24 159q-40 119 -133 185.5t-215 97t-278 30.5h-67z" />
<glyph unicode="E" horiz-adv-x="1067" d="M147 0l244 1544h830l-27 -176h-637l-70 -432h619l-27 -176h-618l-92 -584h637l-29 -176h-830z" />
<glyph unicode="F" horiz-adv-x="970" d="M145 0l244 1544h748l-27 -176h-555l-70 -434h537l-27 -176h-536l-121 -758h-193z" />
<glyph unicode="G" horiz-adv-x="1597" d="M164 768q53 334 325.5 571.5t604.5 237.5q182 0 336.5 -79t244.5 -220l-155 -129q-66 115 -187 183.5t-260 68.5q-258 0 -466 -183.5t-249 -443.5q-8 -52 -8 -101q0 -186 116 -338q146 -191 392 -192q184 0 363.5 137.5t216.5 321.5h-400l27 176h612l-10 -61 q-49 -322 -288.5 -536t-561 -214t-513.5 239q-151 188 -151 429q0 65 11 133z" />
<glyph unicode="H" horiz-adv-x="1382" d="M131 0l244 1544h192l-98 -622h735l99 622h192l-244 -1544h-192l117 741h-736l-116 -741h-193z" />
<glyph unicode="I" horiz-adv-x="475" d="M141 0l244 1544h193l-244 -1544h-193z" />
<glyph unicode="J" horiz-adv-x="741" d="M-33 35l121 164q61 -51 145 -52q53 0 95.5 17.5t72 57.5t48 72t34 94.5t20.5 87t15 87.5l154 981h192l-153 -981q-20 -125 -51 -220t-87.5 -186t-151.5 -140.5t-224 -49.5q-128 0 -230 68z" />
<glyph unicode="K" horiz-adv-x="1228" d="M147 0l244 1544h193l-105 -670l760 670h252l-803 -694l572 -850h-261l-467 719l-90 -74l-102 -645h-193z" />
<glyph unicode="L" horiz-adv-x="788" d="M147 0l244 1544h193l-215 -1368h469l-29 -176h-662z" />
<glyph unicode="M" horiz-adv-x="1742" d="M27 0l569 1610l338 -1217l723 1217l61 -1610h-198l-19 1020h-4l-631 -1053l-295 1053h-4l-342 -1020h-198z" />
<glyph unicode="N" horiz-adv-x="1607" d="M129 0l256 1618l967 -1215l180 1141h192l-254 -1607l-966 1214l-182 -1151h-193z" />
<glyph unicode="O" horiz-adv-x="1695" d="M162 772q35 217 173 402.5t342 294t421 108.5q332 0 532 -237q160 -188 160 -437q0 -64 -10 -131q-55 -342 -327.5 -573.5t-610.5 -231.5t-537 232q-155 181 -155 429q0 70 12 144zM354 772q-9 -57 -9 -111q0 -191 120 -332q154 -181 405.5 -181.5t462.5 181t254 443.5 q9 57 9 110q0 190 -114 332q-146 182 -413 183q-268 0 -471 -182.5t-244 -442.5z" />
<glyph unicode="P" horiz-adv-x="1013" d="M147 0l244 1544h221q342 0 465 -111q96 -87 96 -242q0 -44 -8 -93q-37 -229 -204.5 -340t-407.5 -111h-111l-102 -647h-193zM469 819h61q84 0 151 10.5t134.5 38t111.5 87t58 147.5q4 26 4 49q0 40 -11 72q-17 51 -52 78.5t-92.5 44t-108.5 21.5t-117 5h-51z" />
<glyph unicode="Q" horiz-adv-x="1695" d="M162 772q35 217 173 402.5t342 294t421 108.5q332 0 532 -237q160 -188 160 -437q0 -64 -10 -131q-27 -164 -114 -312.5t-218 -256.5l201 -236h-234l-110 137q-221 -137 -463 -137q-338 0 -537 232q-155 181 -155 429q0 70 12 144zM354 772q-9 -57 -9 -111 q0 -191 120 -332q154 -181 405 -182q170 0 322 89l-299 346h240l204 -242q98 76 164 195.5t86 236.5q9 57 9 110q0 190 -114 332q-146 182 -413 183q-268 0 -471 -182.5t-244 -442.5z" />
<glyph unicode="R" horiz-adv-x="1112" d="M147 0l244 1544h234q88 0 142 -3t128 -19.5t127 -48.5q86 -55 124 -156q25 -68 25 -141q0 -36 -6 -72q-27 -168 -148.5 -290t-289.5 -142l381 -672h-234l-350 653h-80l-104 -653h-193zM469 813h61q84 0 151 10.5t134.5 38t111.5 87t58 147.5q4 26 4 50q0 54 -19 94 q-28 58 -90.5 85t-126 37t-145.5 10h-51z" />
<glyph unicode="S" horiz-adv-x="1099" d="M129 399l201 41q-5 -28 -5 -53q0 -92 57 -157q73 -83 200 -83q123 0 218 89.5t115 212.5q4 26 5 49q0 78 -48 128q-61 65 -178 115l-98 45q-94 43 -153.5 87.5t-98.5 122.5q-27 55 -27 123q0 28 5 59q29 180 181 289.5t337 109.5q264 0 360 -234l-168 -92 q-66 145 -225 146q-98 0 -187.5 -61.5t-105.5 -157.5q-2 -13 -2 -26q0 -122 182 -196l105 -43q172 -72 255 -178q62 -79 61 -199q0 -41 -7 -87q-33 -209 -198 -345.5t-373 -136.5q-186 0 -299 122q-109 118 -109 297v13z" />
<glyph unicode="T" horiz-adv-x="933" d="M221 1368l27 176h926l-27 -176h-367l-217 -1368h-192l217 1368h-367z" />
<glyph unicode="U" horiz-adv-x="1370" d="M211 567l154 977h192l-143 -911q-14 -85 -14 -156q0 -330 309 -330q371 0 450 486l144 911h192l-154 -977q-41 -262 -221 -431t-440 -169t-385 169q-94 127 -94 308q0 58 10 123z" />
<glyph unicode="V" horiz-adv-x="1310" d="M229 1544h211l281 -1143l639 1143h211l-926 -1626z" />
<glyph unicode="W" horiz-adv-x="2103" d="M219 1544h209l258 -1106l617 1139l256 -1139l606 1106h209l-895 -1605l-256 1132l-617 -1132z" />
<glyph unicode="X" horiz-adv-x="1175" d="M0 0l614 809l-311 735h219l228 -563l424 563h219l-559 -735l340 -809h-216l-264 633l-479 -633h-215z" />
<glyph unicode="Y" horiz-adv-x="1173" d="M231 1544h222l274 -659l483 659h222l-641 -872l-107 -672h-192l106 672z" />
<glyph unicode="Z" horiz-adv-x="1130" d="M18 0l1000 1368h-672l27 176h985l-998 -1368h783l-29 -176h-1096z" />
<glyph unicode="[" horiz-adv-x="636" d="M61 -395l326 2052h389l-26 -172h-201l-270 -1708h200l-28 -172h-390z" />
<glyph unicode="\" horiz-adv-x="1128" d="M344 1778h172l547 -1778h-172z" />
<glyph unicode="]" horiz-adv-x="636" d="M59 -395l29 172h201l270 1708h-201l27 172h389l-325 -2052h-390z" />
<glyph unicode="^" d="M168 631l553 913h229l267 -913h-193l-215 741l-451 -741h-190z" />
<glyph unicode="_" horiz-adv-x="1024" d="M-41 -256l16 102h1024l-16 -102h-1024z" />
<glyph unicode="`" horiz-adv-x="737" d="M379 1413l184 90l203 -340l-98 -55z" />
<glyph unicode="a" horiz-adv-x="1138" d="M131 485q33 205 180.5 353.5t350.5 148.5q209 0 303 -188h4l24 159h185l-152 -958h-184l24 150h-4q-156 -182 -356 -183q-211 0 -310 152q-74 112 -74 259q0 51 9 107zM313 479q-6 -37 -5 -70q0 -99 48 -176q66 -102 205 -102q145 0 243.5 100.5t123.5 247.5q6 36 5 70 q0 100 -50 175q-68 99 -211 99q-137 0 -236.5 -101.5t-122.5 -242.5z" />
<glyph unicode="b" horiz-adv-x="1138" d="M113 0l280 1778h185l-154 -979h4q156 188 363 188q201 0 303 -148q78 -112 77 -258q0 -46 -8 -96q-35 -217 -182 -367.5t-360 -150.5q-98 0 -175 49.5t-120 133.5h-4l-25 -150h-184zM362 479q-6 -37 -5 -70q0 -99 49 -176q66 -102 204 -102q145 0 243.5 100.5 t123.5 247.5q6 36 6 70q0 100 -51 175q-68 99 -211 99q-137 0 -236.5 -101.5t-122.5 -242.5z" />
<glyph unicode="c" horiz-adv-x="903" d="M127 471q35 221 209 368.5t397 147.5q147 0 244 -63l-37 -238q-92 129 -254 129q-133 0 -241.5 -100.5t-131.5 -235.5q-5 -33 -5 -63q0 -105 61 -180q78 -96 223 -97q150 0 282 127l-38 -235q-127 -63 -275 -64q-213 0 -340 146q-101 116 -101 274q0 40 7 84z" />
<glyph unicode="d" horiz-adv-x="1138" d="M131 485q33 205 180.5 353.5t347.5 148.5q211 0 306 -188h4l153 979h185l-281 -1778h-184l24 150h-4q-156 -182 -356 -183q-213 0 -311 151q-73 111 -73 258q0 52 9 109zM313 479q-6 -37 -5 -70q0 -99 48 -176q66 -102 205 -102q145 0 243.5 100.5t123.5 247.5q6 36 5 70 q0 100 -50 175q-68 99 -211 99q-137 0 -236.5 -101.5t-122.5 -242.5z" />
<glyph unicode="e" horiz-adv-x="999" d="M127 471q37 229 180.5 372.5t368.5 143.5q219 0 311 -142q67 -103 67 -251q0 -56 -10 -117l-4 -28h-731q-4 -29 -4 -56q0 -94 50 -168q65 -94 192 -94q100 0 173 46t144 140l142 -88q-86 -123 -216.5 -192.5t-271.5 -69.5q-215 0 -319 144q-80 109 -80 261q0 47 8 99z M340 588h537q2 111 -57.5 175t-168.5 64q-106 0 -191 -67.5t-120 -171.5z" />
<glyph unicode="f" horiz-adv-x="563" d="M164 0l125 786h-84l26 172h84l74 467q59 377 369 377q70 0 125 -24l-29 -187q-82 39 -117 39q-37 0 -66.5 -19.5t-46 -44t-29.5 -65.5t-18.5 -66.5t-11.5 -64.5l-65 -412h254l-27 -172h-254l-125 -786h-184z" />
<glyph unicode="g" horiz-adv-x="1136" d="M76 -115h184q-5 -30 -5 -56q0 -88 52 -142q68 -72 197 -72q158 0 230.5 92t99.5 260l30 183h-4q-156 -182 -356 -183q-213 0 -311 151q-73 111 -73 258q0 52 9 109q33 205 180.5 353.5t347.5 148.5q213 0 304 -192h4l26 163h185l-150 -940q-43 -272 -168 -419.5 t-387 -147.5q-203 0 -313 118q-88 94 -88 238q0 37 6 78zM311 479q-6 -37 -5 -70q0 -99 48 -176q66 -102 205 -102q145 0 243.5 100.5t123.5 247.5q6 36 5 70q0 100 -50 175q-68 99 -211 99q-137 0 -236.5 -101.5t-122.5 -242.5z" />
<glyph unicode="h" horiz-adv-x="1071" d="M127 0l281 1778h184l-150 -949h4q53 76 138.5 117t175.5 41q188 0 247 -110q38 -72 38 -181q0 -57 -11 -125l-90 -571h-184l86 549q10 62 10 110q0 61 -16 98q-29 67 -160 66q-68 0 -120 -25.5t-79.5 -56t-50 -93t-30 -99.5t-19.5 -109l-70 -440h-184z" />
<glyph unicode="i" horiz-adv-x="520" d="M168 0l151 958h185l-152 -958h-184zM354 1397q10 53 53.5 91t94.5 38q53 0 84 -38q24 -30 24 -70q0 -11 -2 -21q-8 -51 -51 -88t-96 -37q-51 0 -83 36q-25 28 -25 68q-1 10 1 21z" />
<glyph unicode="j" horiz-adv-x="520" d="M82 -549l237 1507h185l-238 -1507h-184zM354 1397q10 53 53.5 91t94.5 38q53 0 84 -38q24 -30 24 -70q0 -11 -2 -21q-8 -51 -51 -88t-96 -37q-51 0 -83 36q-25 28 -25 68q-1 10 1 21z" />
<glyph unicode="k" horiz-adv-x="946" d="M139 0l281 1778h184l-186 -1180l418 360h243l-473 -397l363 -561h-240l-272 436l-74 -63l-59 -373h-185z" />
<glyph unicode="l" horiz-adv-x="454" d="M135 0l281 1778h184l-281 -1778h-184z" />
<glyph unicode="m" horiz-adv-x="1570" d="M121 0l151 958h185l-19 -120h4q51 66 126 107.5t151 41.5q178 0 250 -170q57 78 144 124t177 46q263 0 263 -284q0 -59 -11 -130l-90 -573h-184l86 543q9 101 9 138q0 56 -32 97q-35 45 -110 45q-70 0 -120 -31.5t-80 -91t-43 -109.5t-26 -120l-73 -471h-185l80 508 q10 61 13 104q1 13 1 27q0 33 -5 72q-7 55 -40.5 83.5t-93.5 28.5q-70 0 -121 -31.5t-79.5 -90t-43 -109.5t-26.5 -121l-74 -471h-184z" />
<glyph unicode="n" horiz-adv-x="1071" d="M127 0l152 958h184l-21 -129h4q53 76 138.5 117t175.5 41q188 0 247 -110q38 -72 38 -181q0 -57 -11 -125l-90 -571h-184l86 549q10 62 10 110q0 61 -16 98q-29 67 -160 66q-68 0 -120 -25.5t-79.5 -56t-50 -93t-30 -99.5t-19.5 -109l-70 -440h-184z" />
<glyph unicode="o" horiz-adv-x="1105" d="M117 477q33 215 205 362.5t387 147.5t340 -147q99 -117 99 -276q0 -42 -7 -87q-33 -215 -206 -362.5t-388 -147.5t-339 147q-98 116 -98 275q0 43 7 88zM301 477q-5 -29 -5 -57q0 -100 63 -177q81 -99 216.5 -99.5t247 99t133.5 234.5q5 30 5 58q0 101 -63 178 q-81 98 -216 98q-137 0 -247.5 -98.5t-133.5 -235.5z" />
<glyph unicode="p" horiz-adv-x="1138" d="M27 -549l237 1507h185l-25 -159h4q156 188 363 188q201 0 303 -148q78 -112 77 -258q0 -46 -8 -96q-35 -217 -182 -367.5t-360 -150.5q-98 0 -175 49.5t-120 133.5h-4l-111 -699h-184zM362 479q-6 -37 -5 -70q0 -99 49 -176q66 -102 204 -102q145 0 243.5 100.5 t123.5 247.5q6 36 6 70q0 100 -51 175q-68 99 -211 99q-137 0 -236.5 -101.5t-122.5 -242.5z" />
<glyph unicode="q" horiz-adv-x="1138" d="M131 485q33 205 180.5 353.5t347.5 148.5q211 0 306 -188h4l24 159h185l-238 -1507h-184l110 699h-4q-156 -182 -356 -183q-213 0 -311 151q-73 111 -73 258q0 52 9 109zM313 479q-6 -37 -5 -70q0 -99 48 -176q66 -102 205 -102q145 0 243.5 100.5t123.5 247.5q6 36 5 70 q0 100 -50 175q-68 99 -211 99q-137 0 -236.5 -101.5t-122.5 -242.5z" />
<glyph unicode="r" horiz-adv-x="718" d="M139 0l152 958h184l-24 -155h6q104 184 291 184q78 0 145 -47l-111 -168q-39 39 -106 39q-72 0 -124 -29.5t-82 -84t-46 -106.5t-27 -120l-73 -471h-185z" />
<glyph unicode="s" horiz-adv-x="786" d="M100 182l170 72q45 -123 154 -123q59 0 108.5 38t59.5 97q6 35 -7.5 57.5t-43.5 47.5l-166 96q-86 51 -123 101q-27 36 -27 93q0 22 4 48q18 117 113.5 197.5t212.5 80.5q86 0 147.5 -44t88.5 -124l-162 -80q-10 37 -40 60.5t-69 23.5t-73.5 -27.5t-43.5 -66.5 q-2 -18 1.5 -33.5t15.5 -29t22.5 -23.5t34 -23.5t35.5 -20.5t44 -21.5t44 -20.5q96 -47 145 -108q37 -46 37 -116q0 -23 -4 -48q-20 -135 -133 -226.5t-248 -91.5q-106 0 -190 58.5t-107 156.5z" />
<glyph unicode="t" horiz-adv-x="491" d="M154 0l125 786h-101l27 172h100l57 367h185l-58 -367h181l-27 -172h-180l-125 -786h-184z" />
<glyph unicode="u" horiz-adv-x="1048" d="M184 408l86 550h185l-84 -530q-8 -50 -9 -92q0 -197 185 -197q125 0 185.5 78t80.5 211l84 530h184l-86 -550q-33 -205 -152.5 -323t-324.5 -118t-286 118q-58 84 -57 212q0 52 9 111z" />
<glyph unicode="v" horiz-adv-x="911" d="M125 958h207l180 -598l371 598h207l-641 -991z" />
<glyph unicode="w" horiz-adv-x="1470" d="M119 958h209l182 -610l387 664l176 -664l375 610h209l-645 -991l-178 641l-385 -641z" />
<glyph unicode="x" horiz-adv-x="1001" d="M-29 0l510 520l-274 438h217l178 -309l297 309h223l-422 -438l330 -520h-215l-254 389l-366 -389h-224z" />
<glyph unicode="y" horiz-adv-x="991" d="M-51 -549l489 713l-313 794h215l227 -608l398 608h206l-1013 -1507h-209z" />
<glyph unicode="z" horiz-adv-x="1013" d="M4 0l774 786h-538l26 172h897l-774 -786h623l-27 -172h-981z" />
<glyph unicode="{" horiz-adv-x="684" d="M186 555l23 150q168 68 203 309l59 372q18 113 91 192t126 79h160l-27 -172h-82q-31 0 -48 -20.5t-23 -42t-13 -64.5l-59 -377q-16 -106 -67.5 -192.5t-82 -113t-61.5 -46.5q23 -16 46.5 -45t47 -114t6.5 -191l-61 -377q-12 -51 -5 -89t50 -38h82l-29 -172h-160 q-53 0 -100 78.5t-31 191.5l60 373q38 241 -105 309z" />
<glyph unicode="|" horiz-adv-x="827" d="M465 -608v2435h147v-2435h-147z" />
<glyph unicode="}" horiz-adv-x="684" d="M35 -397l28 172h82q31 0 48.5 20.5t22.5 41t11 65.5l62 377q16 106 65 190t84 114.5t62 45.5q-16 12 -31.5 29.5t-42.5 64.5t-31 106.5t4 151.5l60 377q12 51 6 89t-49 38h-82l26 172h160q53 0 101.5 -79t29.5 -192l-59 -372q-35 -242 104 -309l-22 -150 q-164 -68 -203 -309l-59 -373q-16 -113 -90 -191.5t-127 -78.5h-160z" />
<glyph unicode="~" d="M141 465q121 143 187 190q84 61 166 62q113 0 233 -105q12 -10 33.5 -29.5t34 -29.5t29 -22.5t30.5 -17.5t29 -5q72 0 186 154q12 14 18 22l121 -102q-178 -250 -350 -250q-82 0 -219 104q-12 10 -38 29.5t-39 30t-31.5 22.5t-33 17.5t-26.5 5.5q-86 0 -215 -168z" />
<glyph unicode="&#xa2;" d="M328 772q29 193 171 337t335 173l26 160h98l-26 -156q150 -6 242 -63l-39 -236h-5q-76 125 -225 129l-106 -672q154 20 270 127l-37 -239q-113 -49 -225 -58l-35 -2l-27 -174h-98l29 183q-182 29 -280.5 166t-67.5 325zM508 780q-18 -115 35 -211t159 -118l103 653 q-104 -12 -191.5 -115t-105.5 -209z" />
<glyph unicode="&#xa3;" d="M31 49q80 111 159.5 169t192.5 63q92 203 37 335h-264l18 119h205q-84 221 -62 369q31 195 208 334t374 139q215 0 326.5 -132t89.5 -347l-195 -70l8 57q20 129 -50 220.5t-199 91.5q-125 0 -243 -97.5t-136 -212.5q-4 -51 -3 -80.5t14 -73.5t23.5 -69.5t29 -65.5 t26.5 -63h303l-19 -119h-253q25 -170 -58 -352l144 -53q12 -4 53 -22.5t71.5 -27.5t59.5 -9q39 0 79 27.5t60.5 52t52.5 71.5l140 -94q-61 -109 -154.5 -175.5t-204.5 -66.5q-96 0 -256 68q-154 66 -227 65q-127 0 -203 -133z" />
<glyph unicode="&#xa5;" d="M96 532l19 119h483l4 21l-80 192h-372l18 119h303l-235 561h221l274 -659l483 659h222l-412 -561h303l-18 -119h-371l-143 -192l-4 -21h483l-19 -119h-483l-84 -532h-192l84 532h-484z" />
<glyph unicode="&#xa7;" d="M162 211l6 31h182q-25 -127 39 -215t191 -88q100 0 188 65.5t102 165.5q6 43 -5 78t-44 63.5t-56.5 43t-68.5 38.5l-266 142q-63 35 -96 56t-70 60t-47 88t0 117q31 186 250 332q-74 102 -55 227q25 154 160 258.5t288 104.5q164 0 266.5 -93.5t87.5 -250.5h-178 q8 84 -52 133t-148 49q-86 0 -156 -59.5t-84 -145.5q-10 -74 29 -121t112 -86l252 -137q78 -43 122 -72.5t84 -93t28 -139.5q-16 -100 -81 -192.5t-157 -153.5q92 -100 70 -250q-29 -176 -174.5 -285.5t-325.5 -109.5q-203 0 -313.5 118.5t-79.5 321.5zM403 877 q-8 -49 15.5 -88t50.5 -56.5t78 -46.5l330 -178q59 35 103 93t54 122q8 45 -11 82t-45 55.5t-71 42.5l-346 191q-138 -80 -158 -217z" />
<glyph unicode="&#xa8;" horiz-adv-x="962" d="M346 1298q10 51 52 87t93.5 36t81 -35.5t21.5 -87t-49 -88t-92.5 -36.5t-83 35.5t-23.5 88.5zM778 1298q10 51 52 87t93.5 36t81 -35.5t21.5 -87t-49 -88t-92 -36.5t-83 35.5t-24 88.5z" />
<glyph unicode="&#xa9;" horiz-adv-x="1638" d="M135 772q51 336 323.5 570.5t610.5 234.5t535.5 -234.5t144.5 -570.5t-325.5 -570.5t-610.5 -234.5t-534.5 234.5t-143.5 570.5zM266 772q-45 -283 123 -478.5t446.5 -195.5t508 195.5t274.5 478.5t-123 478.5t-446.5 195.5t-508 -195.5t-274.5 -478.5zM526 778 q33 205 174.5 335t346.5 130q143 0 234 -82t97 -223h-125q-6 84 -66.5 129t-162.5 45q-156 0 -250 -97t-115 -233q-25 -147 45 -241.5t220 -94.5q205 0 280 183h125q-41 -141 -163 -227.5t-265 -86.5q-201 0 -303.5 133t-71.5 330z" />
<glyph unicode="&#xaa;" horiz-adv-x="684" d="M227 1276q18 123 114.5 212t227.5 89t199 -113h2l16 95h121l-92 -574h-121l15 88h-4q-98 -109 -228 -108q-137 0 -203.5 90t-46.5 221zM346 1272q-12 -86 31 -147.5t133 -61.5q94 0 158.5 60.5t76.5 148.5q14 88 -30.5 147.5t-139.5 59.5q-88 0 -151.5 -61.5 t-77.5 -145.5z" />
<glyph unicode="&#xab;" horiz-adv-x="1071" d="M166 655l450 492l101 -84l-369 -408l242 -391l-127 -84zM559 655l451 492l100 -84l-369 -408l242 -391l-127 -84z" />
<glyph unicode="&#xac;" d="M164 612l29 176h1048l-88 -552h-176l59 376h-872z" />
<glyph unicode="&#xad;" horiz-adv-x="679" d="M209 580l24 153h449l-25 -153h-448z" />
<glyph unicode="&#xae;" horiz-adv-x="1638" d="M135 772q51 336 323.5 570.5t610.5 234.5t535.5 -234.5t144.5 -570.5t-325.5 -570.5t-610.5 -234.5t-534.5 234.5t-143.5 570.5zM266 772q-45 -283 123 -478.5t446.5 -195.5t508 195.5t274.5 478.5t-123 478.5t-446.5 195.5t-508 -195.5t-274.5 -478.5zM557 313l143 906 h381q139 0 217 -54.5t58 -185.5q-20 -123 -99 -183.5t-182 -64.5l162 -418h-150l-163 418h-168l-68 -418h-131zM776 862h139q14 0 53.5 -1t59 0t53 3t52 8.5t40 17.5t34 30.5t16.5 44.5q4 33 -4.5 56t-22.5 36.5t-43 19.5t-53.5 8t-63.5 2h-225z" />
<glyph unicode="&#xaf;" horiz-adv-x="1024" d="M346 1282l23 139h739l-23 -139h-739z" />
<glyph unicode="&#xb0;" horiz-adv-x="819" d="M303 1270q18 125 123.5 216t232.5 91q125 0 202 -90t56.5 -217t-125 -217t-231.5 -90t-202.5 90t-55.5 217zM406 1270q-14 -88 34.5 -146.5t137.5 -58.5q86 0 154.5 58.5t82.5 146.5q14 86 -36 145.5t-138 59.5q-86 0 -154.5 -59.5t-80.5 -145.5z" />
<glyph unicode="&#xb1;" d="M68 0l28 176h1049l-29 -176h-1048zM166 621l29 176h436l55 354h176l-55 -354h436l-29 -176h-436l-55 -355h-176l55 355h-436z" />
<glyph unicode="&#xb4;" horiz-adv-x="737" d="M340 1163l309 340l156 -90l-383 -305z" />
<glyph unicode="&#xb5;" horiz-adv-x="1048" d="M33 -549l237 1507h185l-84 -530q-47 -289 176 -289q125 0 185.5 78t80.5 211l84 530h184l-86 -550q-33 -205 -152.5 -323t-324.5 -118q-113 0 -207 90l-94 -606h-184z" />
<glyph unicode="&#xb6;" d="M246 1018q16 195 171.5 360.5t350.5 165.5h578l-27 -172h-125l-266 -1685h-172l266 1685h-127l-266 -1685h-172l141 893q-176 0 -273 116.5t-79 321.5z" />
<glyph unicode="&#xb7;" horiz-adv-x="591" d="M262 524q6 47 47 83t90.5 36t78 -35t22.5 -84q-10 -49 -50 -83.5t-89.5 -34.5t-78 34.5t-20.5 83.5z" />
<glyph unicode="&#xb8;" horiz-adv-x="675" d="M127 -315l221 280l137 -59l-260 -277z" />
<glyph unicode="&#xba;" horiz-adv-x="663" d="M201 1270q20 131 130.5 219t250.5 88q141 0 223 -89t61.5 -218t-131 -217t-250 -88t-222 88t-62.5 217zM322 1270q-12 -80 40 -139.5t140 -59.5t159.5 59.5t83.5 139.5q14 84 -39 142t-141 58t-158.5 -58t-84.5 -142z" />
<glyph unicode="&#xbb;" horiz-adv-x="1071" d="M170 264l369 391l-242 408l129 84l295 -492l-449 -475zM563 264l369 391l-242 408l129 84l295 -492l-448 -475z" />
<glyph unicode="&#xc0;" horiz-adv-x="1439" d="M-16 0l991 1610l483 -1610h-207l-114 387h-709l-238 -387h-206zM537 563h548l-176 625zM735 1948l185 90l200 -340l-98 -56z" />
<glyph unicode="&#xc1;" horiz-adv-x="1439" d="M-16 0l991 1610l483 -1610h-207l-114 387h-709l-238 -387h-206zM537 563h548l-176 625zM858 1698l311 340l156 -90l-385 -306z" />
<glyph unicode="&#xc2;" horiz-adv-x="1439" d="M-16 0l991 1610l483 -1610h-207l-114 387h-709l-238 -387h-206zM537 563h548l-176 625zM670 1741l372 297l283 -297l-137 -94l-176 196l-240 -196z" />
<glyph unicode="&#xc3;" horiz-adv-x="1439" d="M-16 0l991 1610l483 -1610h-207l-114 387h-709l-238 -387h-206zM537 563h548l-176 625zM612 1790l9 10q63 76 117.5 116t127.5 40q82 0 174 -53q94 -55 140 -56q74 0 145 99l84 -80q-106 -168 -268 -168q-59 0 -162 53q-102 51 -152 51q-35 0 -71.5 -28.5t-59.5 -65.5z " />
<glyph unicode="&#xc4;" horiz-adv-x="1439" d="M-16 0l991 1610l483 -1610h-207l-114 387h-709l-238 -387h-206zM537 563h548l-176 625zM672 1833q8 51 50 87t93 36t82 -36t22.5 -87t-50.5 -88t-93 -37q-53 0 -82.5 37t-21.5 88zM1104 1833q8 51 50 87t93 36t82 -36t22.5 -87t-50 -88t-93.5 -37q-53 0 -82.5 37 t-21.5 88z" />
<glyph unicode="&#xc5;" horiz-adv-x="1439" d="M-16 0l991 1610l483 -1610h-207l-114 387h-709l-238 -387h-206zM537 563h548l-176 625zM827.5 1831q12.5 78 75 132t137.5 54q78 0 124 -54t34 -132t-75.5 -131t-141.5 -53q-76 0 -121 53t-32.5 131zM919.5 1831q-6.5 -39 16 -65.5t59.5 -26.5q39 0 72 26.5t39 65.5 t-17.5 66.5t-62.5 27.5q-37 0 -68.5 -27.5t-38 -66.5z" />
<glyph unicode="&#xc6;" horiz-adv-x="2041" d="M0 0l985 1544h676l51 -176h-633l117 -432h616l56 -176h-619l156 -584h637l49 -176h-831l-109 387h-702l-238 -387h-211zM559 563h549l-172 598z" />
<glyph unicode="&#xc7;" horiz-adv-x="1353" d="M182 764q53 342 331 577.5t620 235.5q217 0 372 -104l-35 -224q-147 152 -385 152q-256 0 -461.5 -185.5t-246.5 -445.5q-41 -256 104.5 -441.5t401.5 -185.5q236 0 436 160l-35 -227q-205 -109 -424 -109q-332 0 -530.5 231.5t-147.5 565.5zM467 -315l221 280l137 -59 l-260 -277z" />
<glyph unicode="&#xc8;" horiz-adv-x="1067" d="M147 0l244 1544h830l-27 -176h-637l-70 -432h619l-27 -176h-618l-92 -584h637l-29 -176h-830zM590 1948l184 90l201 -340l-98 -56z" />
<glyph unicode="&#xc9;" horiz-adv-x="1067" d="M147 0l244 1544h830l-27 -176h-637l-70 -432h619l-27 -176h-618l-92 -584h637l-29 -176h-830zM672 1698l311 340l156 -90l-385 -306z" />
<glyph unicode="&#xca;" horiz-adv-x="1067" d="M147 0l244 1544h830l-27 -176h-637l-70 -432h619l-27 -176h-618l-92 -584h637l-29 -176h-830zM508 1741l373 297l282 -297l-137 -94l-176 196l-240 -196z" />
<glyph unicode="&#xcb;" horiz-adv-x="1067" d="M147 0l244 1544h830l-27 -176h-637l-70 -432h619l-27 -176h-618l-92 -584h637l-29 -176h-830zM510 1833q8 51 50 87t93.5 36t82 -36t22.5 -87t-50 -88t-94 -37q-53 0 -82.5 37t-21.5 88zM942 1833q8 51 50 87t93.5 36t82 -36t22.5 -87t-50 -88t-93 -37q-53 0 -83 37 t-22 88z" />
<glyph unicode="&#xcc;" horiz-adv-x="475" d="M141 0l244 1544h193l-244 -1544h-193zM272 1948l185 90l200 -340l-98 -56z" />
<glyph unicode="&#xcd;" horiz-adv-x="475" d="M141 0l244 1544h193l-244 -1544h-193zM354 1698l312 340l155 -90l-385 -306z" />
<glyph unicode="&#xce;" horiz-adv-x="475" d="M141 0l244 1544h193l-244 -1544h-193zM186 1741l373 297l283 -297l-137 -94l-177 196l-239 -196z" />
<glyph unicode="&#xcf;" horiz-adv-x="475" d="M141 0l244 1544h193l-244 -1544h-193zM188.5 1833q8.5 51 50.5 87t93 36t81.5 -36t22.5 -87t-50 -88t-93 -37q-53 0 -83 37t-21.5 88zM620.5 1833q8.5 51 50.5 87t93 36t82 -36t22.5 -87t-50.5 -88t-93 -37q-53 0 -83 37t-21.5 88z" />
<glyph unicode="&#xd0;" horiz-adv-x="1361" d="M117 741l26 164h131l101 639h319q180 0 327.5 -48t253 -140t150.5 -240.5t15 -335.5q-59 -379 -335 -579.5t-661 -200.5h-313l117 741h-131zM352 176h68q156 0 287 31t245.5 98.5t191.5 186t103 280.5q27 164 -13 283t-133 185.5t-215 97t-278 30.5h-67l-74 -463h274 l-26 -164h-275z" />
<glyph unicode="&#xd1;" horiz-adv-x="1607" d="M129 0l256 1618l967 -1215l180 1141h192l-254 -1607l-966 1214l-182 -1151h-193zM696 1790l9 10q63 76 117.5 116t127.5 40q82 0 174 -53q94 -55 140 -56q74 0 145 99l84 -80q-106 -168 -268 -168q-59 0 -162 53q-102 51 -152 51q-35 0 -71.5 -28.5t-59.5 -65.5z" />
<glyph unicode="&#xd2;" horiz-adv-x="1695" d="M162 772q35 217 173 402.5t342 294t421 108.5q332 0 532.5 -236.5t149.5 -568.5q-55 -342 -327.5 -573.5t-610.5 -231.5t-536.5 231.5t-143.5 573.5zM354 772q-43 -262 110.5 -443.5t405.5 -181.5t463 181.5t254 443.5q41 260 -105.5 442.5t-412.5 182.5 q-268 0 -471 -182.5t-244 -442.5zM883 1948l184 90l201 -340l-99 -56z" />
<glyph unicode="&#xd3;" horiz-adv-x="1695" d="M162 772q35 217 173 402.5t342 294t421 108.5q332 0 532.5 -236.5t149.5 -568.5q-55 -342 -327.5 -573.5t-610.5 -231.5t-536.5 231.5t-143.5 573.5zM354 772q-43 -262 110.5 -443.5t405.5 -181.5t463 181.5t254 443.5q41 260 -105.5 442.5t-412.5 182.5 q-268 0 -471 -182.5t-244 -442.5zM965 1698l311 340l156 -90l-385 -306z" />
<glyph unicode="&#xd4;" horiz-adv-x="1695" d="M162 772q35 217 173 402.5t342 294t421 108.5q332 0 532.5 -236.5t149.5 -568.5q-55 -342 -327.5 -573.5t-610.5 -231.5t-536.5 231.5t-143.5 573.5zM354 772q-43 -262 110.5 -443.5t405.5 -181.5t463 181.5t254 443.5q41 260 -105.5 442.5t-412.5 182.5 q-268 0 -471 -182.5t-244 -442.5zM797 1741l372 297l283 -297l-137 -94l-176 196l-240 -196z" />
<glyph unicode="&#xd5;" horiz-adv-x="1695" d="M162 772q35 217 173 402.5t342 294t421 108.5q332 0 532.5 -236.5t149.5 -568.5q-55 -342 -327.5 -573.5t-610.5 -231.5t-536.5 231.5t-143.5 573.5zM354 772q-43 -262 110.5 -443.5t405.5 -181.5t463 181.5t254 443.5q41 260 -105.5 442.5t-412.5 182.5 q-268 0 -471 -182.5t-244 -442.5zM739 1790l9 10q63 76 117.5 116t127.5 40q82 0 174 -53q94 -55 140 -56q74 0 145 99l84 -80q-106 -168 -268 -168q-59 0 -162 53q-102 51 -152 51q-35 0 -71.5 -28.5t-59.5 -65.5z" />
<glyph unicode="&#xd6;" horiz-adv-x="1695" d="M162 772q35 217 173 402.5t342 294t421 108.5q332 0 532.5 -236.5t149.5 -568.5q-55 -342 -327.5 -573.5t-610.5 -231.5t-536.5 231.5t-143.5 573.5zM354 772q-43 -262 110.5 -443.5t405.5 -181.5t463 181.5t254 443.5q41 260 -105.5 442.5t-412.5 182.5 q-268 0 -471 -182.5t-244 -442.5zM799 1833q8 51 50 87t93 36t82 -36t22.5 -87t-50.5 -88t-93 -37q-53 0 -82.5 37t-21.5 88zM1231 1833q8 51 50 87t93 36t82 -36t22.5 -87t-50.5 -88t-93 -37q-53 0 -82.5 37t-21.5 88z" />
<glyph unicode="&#xd8;" horiz-adv-x="1695" d="M20 43l246 209q-154 221 -104 520q35 217 173 402.5t342 294t421 108.5q299 0 495 -197l228 195l92 -109l-232 -196q141 -223 99 -498q-55 -342 -327.5 -573.5t-610.5 -231.5q-285 0 -482 176l-245 -209zM354 772q-37 -217 72 -385l1018 866q-139 143 -375 144 q-268 0 -471 -182.5t-244 -442.5zM516 276q145 -129 354 -129q252 0 463 181.5t254 443.5q31 211 -57 369z" />
<glyph unicode="&#xd9;" horiz-adv-x="1370" d="M211 567l154 977h192l-143 -911q-80 -485 295 -486q371 0 450 486l144 911h192l-154 -977q-41 -262 -221 -431t-440 -169t-385 169t-84 431zM721 1948l184 90l201 -340l-98 -56z" />
<glyph unicode="&#xda;" horiz-adv-x="1370" d="M211 567l154 977h192l-143 -911q-80 -485 295 -486q371 0 450 486l144 911h192l-154 -977q-41 -262 -221 -431t-440 -169t-385 169t-84 431zM803 1698l311 340l156 -90l-385 -306z" />
<glyph unicode="&#xdb;" horiz-adv-x="1370" d="M211 567l154 977h192l-143 -911q-80 -485 295 -486q371 0 450 486l144 911h192l-154 -977q-41 -262 -221 -431t-440 -169t-385 169t-84 431zM635 1741l373 297l282 -297l-137 -94l-176 196l-240 -196z" />
<glyph unicode="&#xdc;" horiz-adv-x="1370" d="M211 567l154 977h192l-143 -911q-80 -485 295 -486q371 0 450 486l144 911h192l-154 -977q-41 -262 -221 -431t-440 -169t-385 169t-84 431zM637 1833q8 51 50 87t93 36t82 -36t23 -87t-50 -88t-94 -37q-53 0 -82.5 37t-21.5 88zM1069 1833q8 51 50 87t93.5 36t82 -36 t22.5 -87t-50 -88t-93 -37q-53 0 -83 37t-22 88z" />
<glyph unicode="&#xdd;" horiz-adv-x="1173" d="M231 1544h222l274 -659l483 659h222l-641 -872l-107 -672h-192l106 672zM766 1698l311 340l156 -90l-385 -306z" />
<glyph unicode="&#xde;" horiz-adv-x="1013" d="M147 0l244 1544h193l-45 -287h28q342 0 465 -111.5t88 -334.5q-37 -229 -204.5 -340t-407.5 -111h-111l-57 -360h-193zM424 532h61q84 0 150.5 10.5t134.5 38t112 87t58 147.5q10 70 -7.5 121t-52 78.5t-92 44t-108.5 21.5t-117 5h-51z" />
<glyph unicode="&#xdf;" horiz-adv-x="1187" d="M139 0l125 791h-82l27 172h82l49 303q84 537 539 536q190 0 297.5 -125t76.5 -317q-35 -227 -249 -342q139 -47 203.5 -187.5t37.5 -302.5q-39 -240 -238.5 -405.5t-435.5 -155.5l29 172q160 0 297 115t164 274q27 172 -69.5 269.5t-270.5 109.5l29 180q117 -2 210 81 t111 202q18 113 -48.5 186.5t-176.5 73.5q-55 0 -102.5 -18.5t-78 -42t-57 -70.5t-41 -78.5t-29 -95t-18.5 -89.5l-14 -91l-182 -1145h-185z" />
<glyph unicode="&#xe0;" horiz-adv-x="1138" d="M131 485q33 205 180.5 353.5t350.5 148.5q209 0 303 -188h4l24 159h185l-152 -958h-184l24 150h-4q-156 -182 -356 -183q-211 0 -310.5 151.5t-64.5 366.5zM313 479q-23 -143 43 -245.5t205 -102.5q145 0 243.5 100.5t123.5 247.5q23 145 -45 244.5t-211 99.5 q-137 0 -236.5 -101.5t-122.5 -242.5zM549 1413l184 90l203 -340l-98 -55z" />
<glyph unicode="&#xe1;" horiz-adv-x="1138" d="M131 485q33 205 180.5 353.5t350.5 148.5q209 0 303 -188h4l24 159h185l-152 -958h-184l24 150h-4q-156 -182 -356 -183q-211 0 -310.5 151.5t-64.5 366.5zM313 479q-23 -143 43 -245.5t205 -102.5q145 0 243.5 100.5t123.5 247.5q23 145 -45 244.5t-211 99.5 q-137 0 -236.5 -101.5t-122.5 -242.5zM623 1163l309 340l155 -90l-382 -305z" />
<glyph unicode="&#xe2;" horiz-adv-x="1138" d="M131 485q33 205 180.5 353.5t350.5 148.5q209 0 303 -188h4l24 159h185l-152 -958h-184l24 150h-4q-156 -182 -356 -183q-211 0 -310.5 151.5t-64.5 366.5zM313 479q-23 -143 43 -245.5t205 -102.5q145 0 243.5 100.5t123.5 247.5q23 145 -45 244.5t-211 99.5 q-137 0 -236.5 -101.5t-122.5 -242.5zM432 1206l373 297l282 -297l-135 -94l-178 197l-237 -197z" />
<glyph unicode="&#xe3;" horiz-adv-x="1138" d="M131 485q33 205 180.5 353.5t350.5 148.5q209 0 303 -188h4l24 159h185l-152 -958h-184l24 150h-4q-156 -182 -356 -183q-211 0 -310.5 151.5t-64.5 366.5zM313 479q-23 -143 43 -245.5t205 -102.5q145 0 243.5 100.5t123.5 247.5q23 145 -45 244.5t-211 99.5 q-137 0 -236.5 -101.5t-122.5 -242.5zM377 1255l8 11q63 76 117.5 115.5t128.5 39.5q82 0 174 -53q94 -55 139 -55q68 0 146 98l84 -80q-106 -168 -269 -168q-59 0 -162 54q-102 51 -151 51q-35 0 -72 -29t-59 -65z" />
<glyph unicode="&#xe4;" horiz-adv-x="1138" d="M131 485q33 205 180.5 353.5t350.5 148.5q209 0 303 -188h4l24 159h185l-152 -958h-184l24 150h-4q-156 -182 -356 -183q-211 0 -310.5 151.5t-64.5 366.5zM313 479q-23 -143 43 -245.5t205 -102.5q145 0 243.5 100.5t123.5 247.5q23 145 -45 244.5t-211 99.5 q-137 0 -236.5 -101.5t-122.5 -242.5zM434 1298q10 51 52 87t93.5 36t81 -35.5t21.5 -87t-49 -88t-92.5 -36.5t-83 35.5t-23.5 88.5zM866 1298q10 51 52.5 87t93.5 36t80.5 -35.5t21.5 -87t-49 -88t-92 -36.5t-83 35.5t-24 88.5z" />
<glyph unicode="&#xe5;" horiz-adv-x="1138" d="M131 485q33 205 180.5 353.5t350.5 148.5q209 0 303 -188h4l24 159h185l-152 -958h-184l24 150h-4q-156 -182 -356 -183q-211 0 -310.5 151.5t-64.5 366.5zM313 479q-23 -143 43 -245.5t205 -102.5q145 0 243.5 100.5t123.5 247.5q23 145 -45 244.5t-211 99.5 q-137 0 -236.5 -101.5t-122.5 -242.5zM594 1317q12 78 74.5 132t138.5 54q78 0 124 -54t33.5 -132t-75 -131t-140 -53t-122.5 54t-33 130zM686 1317q-6 -39 17.5 -65.5t60.5 -26.5q39 0 70.5 26.5t38 65.5t-17.5 66.5t-62 27.5q-37 0 -69 -27.5t-38 -66.5z" />
<glyph unicode="&#xe6;" horiz-adv-x="1652" d="M98 281q25 150 142.5 235.5t271.5 85.5q182 0 276 -88l11 66q39 248 -213 247q-164 0 -267 -30l25 164q141 27 293 26q98 0 185 -40t118 -118q152 158 389 158q219 0 311.5 -142.5t57.5 -367.5l-4 -28h-731q-18 -129 46 -223.5t191 -94.5q100 0 173 46t145 140l141 -88 q-86 -123 -216 -192.5t-272 -69.5q-213 0 -340 178q-72 -86 -178 -132t-217 -46q-156 0 -259.5 81t-78.5 233zM270.5 284.5q-12.5 -77.5 55 -115.5t153.5 -38q88 0 169 40t93 120q14 78 -57.5 116.5t-159.5 38.5q-84 0 -162.5 -42t-91 -119.5zM997 588h537q2 111 -57.5 175 t-167.5 64q-106 0 -191.5 -67.5t-120.5 -171.5z" />
<glyph unicode="&#xe7;" horiz-adv-x="903" d="M127 471q35 221 209 368.5t397 147.5q147 0 244 -63l-37 -238q-92 129 -254 129q-133 0 -241.5 -100.5t-131.5 -235.5q-23 -147 55 -243.5t224 -96.5q150 0 282 127l-38 -235q-127 -63 -275 -64q-213 0 -340 145.5t-94 358.5zM242 -315l221 280l137 -59l-260 -277z" />
<glyph unicode="&#xe8;" horiz-adv-x="999" d="M127 471q37 229 180.5 372.5t368.5 143.5q219 0 311 -142.5t57 -367.5l-4 -28h-731q-18 -129 46.5 -223.5t191.5 -94.5q100 0 173 46t144 140l142 -88q-86 -123 -216.5 -192.5t-271.5 -69.5q-215 0 -319.5 143.5t-71.5 360.5zM340 588h537q2 111 -57.5 175t-168.5 64 q-106 0 -191 -67.5t-120 -171.5zM479 1413l185 90l202 -340l-98 -55z" />
<glyph unicode="&#xe9;" horiz-adv-x="999" d="M127 471q37 229 180.5 372.5t368.5 143.5q219 0 311 -142.5t57 -367.5l-4 -28h-731q-18 -129 46.5 -223.5t191.5 -94.5q100 0 173 46t144 140l142 -88q-86 -123 -216.5 -192.5t-271.5 -69.5q-215 0 -319.5 143.5t-71.5 360.5zM340 588h537q2 111 -57.5 175t-168.5 64 q-106 0 -191 -67.5t-120 -171.5zM553 1163l309 340l156 -90l-383 -305z" />
<glyph unicode="&#xea;" horiz-adv-x="999" d="M127 471q37 229 180.5 372.5t368.5 143.5q219 0 311 -142.5t57 -367.5l-4 -28h-731q-18 -129 46.5 -223.5t191.5 -94.5q100 0 173 46t144 140l142 -88q-86 -123 -216.5 -192.5t-271.5 -69.5q-215 0 -319.5 143.5t-71.5 360.5zM340 588h537q2 111 -57.5 175t-168.5 64 q-106 0 -191 -67.5t-120 -171.5zM362 1206l373 297l283 -297l-135 -94l-178 197l-238 -197z" />
<glyph unicode="&#xeb;" horiz-adv-x="999" d="M127 471q37 229 180.5 372.5t368.5 143.5q219 0 311 -142.5t57 -367.5l-4 -28h-731q-18 -129 46.5 -223.5t191.5 -94.5q100 0 173 46t144 140l142 -88q-86 -123 -216.5 -192.5t-271.5 -69.5q-215 0 -319.5 143.5t-71.5 360.5zM340 588h537q2 111 -57.5 175t-168.5 64 q-106 0 -191 -67.5t-120 -171.5zM365 1298q10 51 52 87t93 36t81 -35.5t21.5 -87t-49.5 -88t-92 -36.5t-82.5 35.5t-23.5 88.5zM797 1298q10 51 52 87t93 36t81 -35.5t21.5 -87t-49.5 -88t-92 -36.5t-82.5 35.5t-23.5 88.5z" />
<glyph unicode="&#xec;" horiz-adv-x="520" d="M168 0l151 958h185l-152 -958h-184zM209 1413l184 90l203 -340l-98 -55z" />
<glyph unicode="&#xed;" horiz-adv-x="520" d="M168 0l151 958h185l-152 -958h-184zM293 1163l309 340l156 -90l-383 -305z" />
<glyph unicode="&#xee;" horiz-adv-x="520" d="M123 1206l373 297l282 -297l-135 -94l-178 197l-238 -197zM168 0l151 958h185l-152 -958h-184z" />
<glyph unicode="&#xef;" horiz-adv-x="520" d="M125 1298q10 51 52 87t93.5 36t81 -35.5t21.5 -87t-49 -88t-92.5 -36.5t-83 35.5t-23.5 88.5zM168 0l151 958h185l-152 -958h-184zM557 1298q10 51 52 87t93.5 36t81 -35.5t21.5 -87t-49 -88t-92.5 -36.5t-83 35.5t-23.5 88.5z" />
<glyph unicode="&#xf0;" horiz-adv-x="1105" d="M117 477q33 215 205 362.5t387 147.5q20 0 39.5 -2t34 -5t30.5 -8t25.5 -9.5t24 -12.5t19.5 -10t18 -11t15 -11q-82 246 -213 450l-329 -172l-72 111l324 170q-86 117 -193 215l133 104q111 -88 228 -231l323 170l68 -113l-314 -166q152 -219 232 -470t45 -470 q-41 -254 -210 -401.5t-390 -147.5q-215 0 -339 146.5t-91 363.5zM301 477q-23 -135 58 -234.5t216.5 -99.5t247 99.5t133.5 234.5q23 137 -58 235.5t-216 98.5q-137 0 -247.5 -98.5t-133.5 -235.5z" />
<glyph unicode="&#xf1;" horiz-adv-x="1071" d="M127 0l152 958h184l-21 -129h4q53 76 138.5 117t175.5 41q188 0 246.5 -110.5t27.5 -305.5l-90 -571h-184l86 549q23 141 -6 207.5t-160 66.5q-68 0 -120 -25.5t-79.5 -56t-50 -93t-30 -99.5t-19.5 -109l-70 -440h-184zM344 1255l8 11q63 76 117.5 115.5t128.5 39.5 q82 0 174 -53q94 -55 139 -55q68 0 146 98l84 -80q-106 -168 -269 -168q-59 0 -161 54q-102 51 -152 51q-35 0 -71.5 -29t-59.5 -65z" />
<glyph unicode="&#xf2;" horiz-adv-x="1105" d="M117 477q33 215 205 362.5t387 147.5t340 -147.5t92 -362.5t-206 -362.5t-388 -147.5t-339 146.5t-91 363.5zM301 477q-23 -135 58 -234.5t216.5 -99.5t247 99.5t133.5 234.5q23 137 -58 235.5t-216 98.5q-137 0 -247.5 -98.5t-133.5 -235.5zM481 1413l185 90l202 -340 l-98 -55z" />
<glyph unicode="&#xf3;" horiz-adv-x="1105" d="M117 477q33 215 205 362.5t387 147.5t340 -147.5t92 -362.5t-206 -362.5t-388 -147.5t-339 146.5t-91 363.5zM301 477q-23 -135 58 -234.5t216.5 -99.5t247 99.5t133.5 234.5q23 137 -58 235.5t-216 98.5q-137 0 -247.5 -98.5t-133.5 -235.5zM606 1163l309 340l156 -90 l-383 -305z" />
<glyph unicode="&#xf4;" horiz-adv-x="1105" d="M117 477q33 215 205 362.5t387 147.5t340 -147.5t92 -362.5t-206 -362.5t-388 -147.5t-339 146.5t-91 363.5zM301 477q-23 -135 58 -234.5t216.5 -99.5t247 99.5t133.5 234.5q23 137 -58 235.5t-216 98.5q-137 0 -247.5 -98.5t-133.5 -235.5zM416 1206l372 297l283 -297 l-135 -94l-178 197l-238 -197z" />
<glyph unicode="&#xf5;" horiz-adv-x="1105" d="M117 477q33 215 205 362.5t387 147.5t340 -147.5t92 -362.5t-206 -362.5t-388 -147.5t-339 146.5t-91 363.5zM301 477q-23 -135 58 -234.5t216.5 -99.5t247 99.5t133.5 234.5q23 137 -58 235.5t-216 98.5q-137 0 -247.5 -98.5t-133.5 -235.5zM360 1255l9 11 q63 76 117.5 115.5t127.5 39.5q82 0 174 -53q94 -55 140 -55q68 0 145 98l84 -80q-106 -168 -268 -168q-59 0 -162 54q-102 51 -152 51q-35 0 -71.5 -29t-59.5 -65z" />
<glyph unicode="&#xf6;" horiz-adv-x="1105" d="M117 477q33 215 205 362.5t387 147.5t340 -147.5t92 -362.5t-206 -362.5t-388 -147.5t-339 146.5t-91 363.5zM301 477q-23 -135 58 -234.5t216.5 -99.5t247 99.5t133.5 234.5q23 137 -58 235.5t-216 98.5q-137 0 -247.5 -98.5t-133.5 -235.5zM418 1298q10 51 52 87t93 36 t81 -35.5t21.5 -87t-49.5 -88t-92 -36.5t-82.5 35.5t-23.5 88.5zM850 1298q10 51 52 87t93.5 36t81 -35.5t21.5 -87t-49 -88t-92.5 -36.5t-83 35.5t-23.5 88.5z" />
<glyph unicode="&#xf7;" d="M137 436l27 176h1048l-26 -176h-1049zM485 125q8 53 51.5 91t96.5 38q51 0 83 -38t23 -91q-8 -51 -51 -88t-96 -37t-84 37t-23 88zM610 919.5q8 53.5 51.5 91.5t96.5 38t83.5 -38t22.5 -91q-8 -51 -51 -88t-96 -37q-51 0 -83 35.5t-24 89z" />
<glyph unicode="&#xf8;" horiz-adv-x="1105" d="M18 18l160 138q-92 139 -61 321q33 215 205 362.5t387 147.5q178 0 301 -106l145 125l80 -88l-148 -130q80 -137 54 -311q-33 -215 -206 -362.5t-388 -147.5q-174 0 -289 99l-164 -144zM301 477q-16 -106 29 -188l530 461q-76 61 -178 61q-137 0 -247.5 -98.5 t-133.5 -235.5zM408 197q72 -53 167 -54q135 0 247 99.5t134 234.5q16 100 -22 176z" />
<glyph unicode="&#xf9;" horiz-adv-x="1048" d="M184 408l86 550h185l-84 -530q-47 -289 176 -289q125 0 185.5 78t80.5 211l84 530h184l-86 -550q-33 -205 -152.5 -323t-324.5 -118t-286 118t-48 323zM453 1413l184 90l203 -340l-99 -55z" />
<glyph unicode="&#xfa;" horiz-adv-x="1048" d="M184 408l86 550h185l-84 -530q-47 -289 176 -289q125 0 185.5 78t80.5 211l84 530h184l-86 -550q-33 -205 -152.5 -323t-324.5 -118t-286 118t-48 323zM578 1163l309 340l155 -90l-383 -305z" />
<glyph unicode="&#xfb;" horiz-adv-x="1048" d="M184 408l86 550h185l-84 -530q-47 -289 176 -289q125 0 185.5 78t80.5 211l84 530h184l-86 -550q-33 -205 -152.5 -323t-324.5 -118t-286 118t-48 323zM387 1206l373 297l282 -297l-135 -94l-178 197l-237 -197z" />
<glyph unicode="&#xfc;" horiz-adv-x="1048" d="M184 408l86 550h185l-84 -530q-47 -289 176 -289q125 0 185.5 78t80.5 211l84 530h184l-86 -550q-33 -205 -152.5 -323t-324.5 -118t-286 118t-48 323zM389 1298q10 51 52 87t93.5 36t81 -35.5t21.5 -87t-49 -88t-92.5 -36.5t-83 35.5t-23.5 88.5zM821 1298q10 51 52 87 t93.5 36t81 -35.5t21.5 -87t-49 -88t-92 -36.5t-83 35.5t-24 88.5z" />
<glyph unicode="&#xfd;" horiz-adv-x="991" d="M-51 -549l489 713l-313 794h215l227 -608l398 608h206l-1013 -1507h-209zM590 1163l309 340l156 -90l-383 -305z" />
<glyph unicode="&#xfe;" horiz-adv-x="1138" d="M27 -549l366 2327h185l-154 -979h4q156 188 363 188q201 0 303 -148.5t69 -353.5q-35 -217 -182 -367.5t-360 -150.5q-98 0 -175 49.5t-120 133.5h-4l-111 -699h-184zM362 479q-23 -143 43 -245.5t205 -102.5q145 0 243.5 100.5t123.5 247.5q23 145 -45 244.5t-211 99.5 q-137 0 -236.5 -101.5t-122.5 -242.5z" />
<glyph unicode="&#xff;" horiz-adv-x="991" d="M-51 -549l489 713l-313 794h215l227 -608l398 608h206l-1013 -1507h-209zM381 1298q10 51 52 87t93.5 36t81 -35.5t21.5 -87t-49 -88t-92.5 -36.5t-83 35.5t-23.5 88.5zM813 1298q10 51 52 87t93.5 36t81 -35.5t21.5 -87t-49 -88t-92.5 -36.5t-83 35.5t-23.5 88.5z" />
<glyph unicode="&#x131;" horiz-adv-x="520" d="M168 0l151 958h185l-152 -958h-184z" />
<glyph unicode="&#x152;" horiz-adv-x="2340" d="M162 772q35 217 173 402.5t342 294t421 108.5q184 -6 338.5 -84t232.5 -219h4l41 270h809l-26 -176h-635l-70 -432h616l-26 -176h-617l-92 -584h635l-29 -176h-809l41 258h-4q-127 -139 -302 -216t-363 -75q-338 0 -536.5 231.5t-143.5 573.5zM354 772 q-43 -262 110.5 -443.5t405.5 -181.5t463 181.5t254 443.5q41 260 -105.5 442.5t-412.5 182.5q-268 0 -471 -182.5t-244 -442.5z" />
<glyph unicode="&#x153;" horiz-adv-x="1837" d="M117 477q33 215 205 362.5t387 147.5q119 -4 222 -61.5t154 -153.5q160 205 428 215q219 0 311.5 -142.5t57.5 -367.5l-4 -28h-731q-18 -129 46 -223.5t191 -94.5q100 0 173 46t145 140l141 -88q-86 -123 -216 -192.5t-271 -69.5q-123 -2 -222.5 54.5t-142.5 156.5 q-84 -100 -203.5 -156.5t-240.5 -54.5q-215 0 -339 146.5t-91 363.5zM301 477q-23 -135 58 -234.5t216.5 -99.5t247 99.5t133.5 234.5q23 137 -58 235.5t-216 98.5q-137 0 -247.5 -98.5t-133.5 -235.5zM1176 588h536q2 111 -57.5 175t-167.5 64q-106 0 -191 -67.5 t-120 -171.5z" />
<glyph unicode="&#x178;" horiz-adv-x="1173" d="M231 1544h222l274 -659l483 659h222l-641 -872l-107 -672h-192l106 672zM563 1833q8 51 50 87t93.5 36t82 -36t22.5 -87t-50 -88t-93 -37q-53 0 -83 37t-22 88zM995.5 1833q8.5 51 50 87t93 36t82 -36t22.5 -87t-50 -88t-93 -37q-53 0 -83 37t-21.5 88z" />
<glyph unicode="&#x192;" d="M-20 -305l59 176h39q70 0 124 23.5t87 53t64.5 92t46 102.5t40.5 122l209 631h-133l41 139h143l84 254q66 205 171.5 314.5t297.5 109.5q70 0 121 -14l-59 -172q-35 14 -82 14q-59 0 -102.5 -20.5t-74 -67.5t-46 -82t-37.5 -104l-82 -232h264l-41 -139h-268l-211 -621 q-33 -98 -56.5 -159.5t-61.5 -137t-80 -119.5t-100 -85t-135 -59.5t-173 -18.5h-49z" />
<glyph unicode="&#x2c6;" horiz-adv-x="962" d="M344 1206l373 297l282 -297l-135 -94l-178 197l-237 -197z" />
<glyph unicode="&#x2da;" horiz-adv-x="737" d="M393 1317q12 78 74.5 132t138.5 54q78 0 124 -54t34 -132t-74.5 -131t-140.5 -53t-123 54t-33 130zM485.5 1317q-6.5 -39 17 -65.5t60.5 -26.5q39 0 71 26.5t38 65.5t-17.5 66.5t-62.5 27.5q-37 0 -68.5 -27.5t-38 -66.5z" />
<glyph unicode="&#x2dc;" horiz-adv-x="1044" d="M330 1255l8 11q63 76 117.5 115.5t128.5 39.5q82 0 174 -53q94 -55 139 -55q68 0 145 98l84 -80q-106 -168 -268 -168q-59 0 -162 54q-102 51 -151 51q-35 0 -72 -29t-59 -65z" />
<glyph unicode="&#x3a9;" horiz-adv-x="1525" d="M102 0l23 143h315l2 7q-106 117 -159.5 295t-18.5 393q51 324 265 530.5t490.5 206.5t416 -215t92.5 -512q-35 -223 -148.5 -406.5t-251.5 -291.5l-2 -7h318l-23 -143h-516l17 104q147 94 267 278.5t159 432.5q25 152 -2 288t-118 231.5t-233 95.5q-209 0 -364.5 -177.5 t-196.5 -443.5q-37 -233 23.5 -424.5t175.5 -280.5l-17 -104h-514z" />
<glyph unicode="&#x3c0;" horiz-adv-x="1224" d="M127 0q86 172 176 470t137 536q-164 0 -239 -27l-6 117q98 59 319 59h850l-37 -149h-170l-108 -682q-33 -205 -21 -324h-166q-25 66 15 309l110 697h-379q-45 -233 -139 -543.5t-174 -462.5h-168z" />
<glyph unicode="&#x2000;" horiz-adv-x="1024" />
<glyph unicode="&#x2001;" horiz-adv-x="2048" />
<glyph unicode="&#x2002;" horiz-adv-x="1024" />
<glyph unicode="&#x2003;" horiz-adv-x="2048" />
<glyph unicode="&#x2004;" horiz-adv-x="681" />
<glyph unicode="&#x2005;" horiz-adv-x="512" />
<glyph unicode="&#x2006;" horiz-adv-x="339" />
<glyph unicode="&#x2007;" />
<glyph unicode="&#x2008;" horiz-adv-x="591" />
<glyph unicode="&#x2009;" horiz-adv-x="204" />
<glyph unicode="&#x200a;" horiz-adv-x="20" />
<glyph unicode="&#x200b;" horiz-adv-x="0" />
<glyph unicode="&#x200c;" horiz-adv-x="0" />
<glyph unicode="&#x200d;" horiz-adv-x="0" />
<glyph unicode="&#x200e;" horiz-adv-x="681" />
<glyph unicode="&#x200f;" horiz-adv-x="681" />
<glyph unicode="&#x2010;" horiz-adv-x="679" d="M209 580l24 153h449l-25 -153h-448z" />
<glyph unicode="&#x2011;" horiz-adv-x="679" d="M209 580v153h473v-153h-473z" />
<glyph unicode="&#x2012;" d="M209 580v153h977v-153h-977z" />
<glyph unicode="&#x2013;" horiz-adv-x="1024" d="M92 580l25 153h1024l-25 -153h-1024z" />
<glyph unicode="&#x2014;" horiz-adv-x="2048" d="M358 580l25 153h1515l-24 -153h-1516z" />
<glyph unicode="&#x2015;" horiz-adv-x="4096" d="M209 580v153h3889v-153h-3889z" />
<glyph unicode="&#x2016;" horiz-adv-x="1654" d="M1292 -608v2435h147v-2435h-147zM465 -608v2435h147v-2435h-147z" />
<glyph unicode="&#x2018;" horiz-adv-x="567" d="M287 1030l358 547l107 -47l-314 -563z" />
<glyph unicode="&#x2019;" horiz-adv-x="567" d="M217 1014l315 563l152 -64l-358 -546z" />
<glyph unicode="&#x201a;" horiz-adv-x="567" d="M59 -319l316 563l149 -64l-358 -547z" />
<glyph unicode="&#x201c;" horiz-adv-x="899" d="M287 1030l358 547l107 -47l-314 -563zM627 1030l358 547l107 -47l-314 -563z" />
<glyph unicode="&#x201d;" horiz-adv-x="899" d="M209 1014l315 563l152 -64l-359 -546zM549 1014l315 563l152 -64l-359 -546z" />
<glyph unicode="&#x201e;" horiz-adv-x="899" d="M51 -319l316 563l149 -64l-358 -547zM391 -319l316 563l149 -64l-358 -547z" />
<glyph unicode="&#x2020;" d="M293 1038l29 176h370l88 564h185l-88 -564h370l-28 -176h-371l-193 -1218h-184l193 1218h-371z" />
<glyph unicode="&#x2021;" d="M238 686l28 176h371l39 250h-371l29 176h371l75 490h185l-76 -490h371l-29 -176h-371l-39 -250h371l-29 -176h-370l-138 -864h-184l137 864h-370z" />
<glyph unicode="&#x2022;" d="M330 772q23 162 153.5 274.5t292.5 112.5t256 -112.5t70 -274.5q-27 -160 -158 -272.5t-290.5 -112.5t-255 112.5t-68.5 272.5z" />
<glyph unicode="&#x2024;" horiz-adv-x="591" d="M193 86q8 47 48 83t89 36t78.5 -36t21.5 -83q-8 -49 -49 -84t-90 -35t-77.5 35t-20.5 84z" />
<glyph unicode="&#x2025;" d="M785 86q8 47 48 83t89 36t78.5 -36t21.5 -83q-8 -49 -49 -84t-90 -35t-77.5 35t-20.5 84zM193 86q8 47 48 83t89 36t78.5 -36t21.5 -83q-8 -49 -49 -84t-90 -35t-77.5 35t-20.5 84z" />
<glyph unicode="&#x2026;" horiz-adv-x="2048" d="M236 86q8 47 48 83t89 36t78.5 -36t21.5 -83q-8 -49 -49 -84t-90 -35t-77.5 35t-20.5 84zM920 86q8 47 48 83t89 36t78.5 -36t21.5 -83q-8 -49 -49 -84t-90 -35t-77.5 35t-20.5 84zM1604 86q8 47 48 83t89 36t78.5 -36t21.5 -83q-8 -49 -49 -84t-90 -35t-77.5 35 t-20.5 84z" />
<glyph unicode="&#x202a;" horiz-adv-x="0" />
<glyph unicode="&#x202f;" horiz-adv-x="407" />
<glyph unicode="&#x2030;" horiz-adv-x="2273" d="M240 18l1151 1559l84 -53l-1149 -1557zM239.5 1224.5q22.5 145.5 145.5 249t270.5 103.5t237.5 -103.5t67.5 -249t-146.5 -248t-269.5 -102.5t-236.5 102.5t-68.5 248zM362 1225q-14 -92 45.5 -160t155.5 -68t178 68t97 160q14 94 -46.5 161.5t-156.5 67.5t-177.5 -67.5 t-95.5 -161.5zM757.5 317.5q22.5 145.5 145.5 249t270.5 103.5t237.5 -103.5t67.5 -249t-147.5 -248t-270.5 -102.5t-235.5 102.5t-67.5 248zM881 317q-14 -92 45 -159.5t155.5 -67.5t178 67.5t96.5 159.5q14 94 -46.5 162t-156.5 68t-177 -68t-95 -162zM1560.5 317.5 q22.5 145.5 145.5 249t270.5 103.5t237.5 -103.5t67.5 -249t-147.5 -248t-270.5 -102.5t-235.5 102.5t-67.5 248zM1683 317q-14 -92 45.5 -159.5t155.5 -67.5t178 67.5t97 159.5q14 94 -46.5 162t-156.5 68t-177.5 -68t-95.5 -162z" />
<glyph unicode="&#x2032;" horiz-adv-x="567" d="M358 872l70 672h201l-144 -672h-127z" />
<glyph unicode="&#x2033;" horiz-adv-x="1134" d="M925 872l70 672h201l-144 -672h-127zM358 872l70 672h201l-144 -672h-127z" />
<glyph unicode="&#x2034;" horiz-adv-x="1701" d="M1493 872l70 672h201l-144 -672h-127zM925 872l70 672h201l-144 -672h-127zM358 872l70 672h201l-144 -672h-127z" />
<glyph unicode="&#x2035;" horiz-adv-x="737" d="M379 1413l184 90l203 -340l-98 -55z" />
<glyph unicode="&#x2036;" horiz-adv-x="1474" d="M1116 1413l184 90l203 -340l-98 -55zM379 1413l184 90l203 -340l-98 -55z" />
<glyph unicode="&#x2037;" horiz-adv-x="2211" d="M1854 1413l184 90l203 -340l-98 -55zM1116 1413l184 90l203 -340l-98 -55zM379 1413l184 90l203 -340l-98 -55z" />
<glyph unicode="&#x2039;" horiz-adv-x="688" d="M150 655l450 492l100 -84l-368 -408l241 -391l-127 -84z" />
<glyph unicode="&#x203a;" horiz-adv-x="688" d="M197 264l368 391l-241 408l129 84l295 -492l-449 -475z" />
<glyph unicode="&#x203c;" horiz-adv-x="1314" d="M882 86q8 47 48 83t89.5 36t79 -36t21.5 -83q-8 -49 -49 -84t-90.5 -35t-78 35t-20.5 84zM952 356l186 1188h185l-187 -1188h-184zM225 86q8 47 48 83t89.5 36t79 -36t21.5 -83q-8 -49 -49 -84t-90.5 -35t-78 35t-20.5 84zM295 356l186 1188h185l-187 -1188h-184z" />
<glyph unicode="&#x203e;" horiz-adv-x="591" d="M-350 123l23 139h739l-23 -139h-739z" />
<glyph unicode="&#x2044;" horiz-adv-x="337" d="M-330 25l1147 1552l96 -53l-1149 -1557z" />
<glyph unicode="&#x2047;" horiz-adv-x="1855" d="M1180 705q23 131 99.5 193.5t207.5 107.5q10 4 49 17t50.5 17t44 17.5t45 23t35 25.5t31.5 31.5t19.5 37t14.5 46.5q14 84 -31 133t-129 49q-72 0 -132 -52.5t-71 -123.5q-2 -14 2 -66h-192l6 68q14 145 143 246.5t279 101.5q156 0 246 -104.5t65 -258.5 q-25 -158 -151 -253q-70 -55 -273 -115q-156 -47 -172 -150q-10 -61 24 -104t95 -43q66 0 114 46t58 112h186q-14 -131 -132.5 -230.5t-252.5 -99.5q-137 0 -217.5 95.5t-60.5 232.5zM1295 86q8 47 48 83t89 36t78.5 -36t21.5 -83q-8 -49 -49 -84t-90 -35t-77.5 35t-20.5 84 zM252 705q23 131 99.5 193.5t207.5 107.5q10 4 49 17t50.5 17t44 17.5t45 23t35 25.5t31.5 31.5t19.5 37t14.5 46.5q14 84 -31 133t-129 49q-72 0 -132 -52.5t-71 -123.5q-2 -14 2 -66h-192l6 68q14 145 143 246.5t279 101.5q156 0 246 -104.5t65 -258.5q-25 -158 -151 -253 q-70 -55 -273 -115q-156 -47 -172 -150q-10 -61 24 -104t95 -43q66 0 114 46t58 112h186q-14 -131 -132.5 -230.5t-252.5 -99.5q-137 0 -217.5 95.5t-60.5 232.5zM367 86q8 47 48 83t89 36t78.5 -36t21.5 -83q-8 -49 -49 -84t-90 -35t-77.5 35t-20.5 84z" />
<glyph unicode="&#x2048;" horiz-adv-x="1585" d="M1153 86q8 47 48 83t89.5 36t79 -36t21.5 -83q-8 -49 -49 -84t-90.5 -35t-78 35t-20.5 84zM1223 356l186 1188h185l-187 -1188h-184zM252 705q23 131 99.5 193.5t207.5 107.5q10 4 49 17t50.5 17t44 17.5t45 23t35 25.5t31.5 31.5t19.5 37t14.5 46.5q14 84 -31 133 t-129 49q-72 0 -132 -52.5t-71 -123.5q-2 -14 2 -66h-192l6 68q14 145 143 246.5t279 101.5q156 0 246 -104.5t65 -258.5q-25 -158 -151 -253q-70 -55 -273 -115q-156 -47 -172 -150q-10 -61 24 -104t95 -43q66 0 114 46t58 112h186q-14 -131 -132.5 -230.5t-252.5 -99.5 q-137 0 -217.5 95.5t-60.5 232.5zM367 86q8 47 48 83t89 36t78.5 -36t21.5 -83q-8 -49 -49 -84t-90 -35t-77.5 35t-20.5 84z" />
<glyph unicode="&#x2049;" horiz-adv-x="1585" d="M909 705q23 131 99.5 193.5t207.5 107.5q10 4 49 17t50.5 17t44 17.5t45 23t35 25.5t31.5 31.5t19.5 37t14.5 46.5q14 84 -31 133t-129 49q-72 0 -132 -52.5t-71 -123.5q-2 -14 2 -66h-192l6 68q14 145 143 246.5t279 101.5q156 0 246 -104.5t65 -258.5 q-25 -158 -151 -253q-70 -55 -273 -115q-156 -47 -172 -150q-10 -61 24 -104t95 -43q66 0 114 46t58 112h186q-14 -131 -132.5 -230.5t-252.5 -99.5q-137 0 -217.5 95.5t-60.5 232.5zM1024 86q8 47 48 83t89 36t78.5 -36t21.5 -83q-8 -49 -49 -84t-90 -35t-77.5 35t-20.5 84 zM225 86q8 47 48 83t89.5 36t79 -36t21.5 -83q-8 -49 -49 -84t-90.5 -35t-78 35t-20.5 84zM295 356l186 1188h185l-187 -1188h-184z" />
<glyph unicode="&#x2057;" horiz-adv-x="2269" d="M2060 872l70 672h201l-144 -672h-127zM1493 872l70 672h201l-144 -672h-127zM925 872l70 672h201l-144 -672h-127zM358 872l70 672h201l-144 -672h-127z" />
<glyph unicode="&#x205f;" horiz-adv-x="507" />
<glyph unicode="&#x2060;" horiz-adv-x="0" />
<glyph unicode="&#x20a8;" horiz-adv-x="1898" d="M1212 182l170 72q45 -123 154 -123q59 0 108.5 38t59.5 97q6 35 -7.5 57.5t-43.5 47.5l-166 96q-86 51 -123 101q-27 36 -27 93q0 22 4 48q18 117 113.5 197.5t212.5 80.5q86 0 147.5 -44t88.5 -124l-162 -80q-10 37 -40 60.5t-69 23.5t-73.5 -27.5t-43.5 -66.5 q-2 -18 1.5 -33.5t15.5 -29t22.5 -23.5t34 -23.5t35.5 -20.5t44 -21.5t44 -20.5q96 -47 145 -108q37 -46 37 -116q0 -23 -4 -48q-20 -135 -133 -226.5t-248 -91.5q-106 0 -190 58.5t-107 156.5zM147 0l244 1544h234q88 0 142 -3t128 -19.5t127 -48.5q86 -55 124 -156 q25 -68 25 -141q0 -36 -6 -72q-27 -168 -148.5 -290t-289.5 -142l381 -672h-234l-350 653h-80l-104 -653h-193zM469 813h61q84 0 151 10.5t134.5 38t111.5 87t58 147.5q4 26 4 50q0 54 -19 94q-28 58 -90.5 85t-126 37t-145.5 10h-51z" />
<glyph unicode="&#x20ac;" d="M143 551l70 141h98q0 27 8 84q0 6 15 80h-144l70 141h109q168 578 632 578q221 0 324 -94l-29 -178q-100 109 -299 108q-170 0 -281.5 -111.5t-162.5 -302.5h604l-70 -141h-575q-12 -68 -14 -80q-8 -55 -11 -84h519l-70 -141h-453q-10 -205 70 -312.5t244 -107.5 q195 0 331 109l-30 -183q-117 -88 -350 -88q-465 0 -445 582h-160z" />
<glyph unicode="&#x2122;" horiz-adv-x="1925" d="M293 1413l20 131h697l-21 -131h-282l-115 -731h-131l114 731h-282zM1032 682l135 862h215l152 -608l352 608h213l-135 -862h-131l115 731h-4l-410 -731h-80l-172 731h-4l-115 -731h-131z" />
<glyph unicode="&#x2202;" horiz-adv-x="1173" d="M170 489q41 254 199.5 412t347.5 158q127 0 207 -66.5t104 -136.5h4q4 20 17 94q45 281 -41 461t-254 180q-158 0 -299 -106l-37 129q166 123 377 123q106 0 194 -50.5t150.5 -153.5t81 -262t-14.5 -374q-66 -412 -252 -666t-454 -254q-197 0 -280 151.5t-50 360.5z M340 489q-27 -162 27.5 -264t171.5 -102h4q141 0 262 165t180 398q-14 84 -84 158t-180 74q-129 0 -240.5 -126.5t-140.5 -302.5z" />
<glyph unicode="&#x2206;" horiz-adv-x="1384" d="M68 0l18 117l762 1474h199l286 -1472l-18 -119h-1247zM262 141h893l-170 834q-8 55 -37.5 205.5t-36.5 203.5h-8q-18 -45 -89 -185t-95 -191z" />
<glyph unicode="&#x220f;" horiz-adv-x="1740" d="M303 1393v157h1383v-157h-230v-1608h-170v1608h-584v-1608h-170v1608h-229z" />
<glyph unicode="&#x2211;" horiz-adv-x="1427" d="M297 -98l569 766l-544 762v120h1026v-149h-793v-6l506 -701l-549 -737v-6h870v-166h-1085v117z" />
<glyph unicode="&#x221a;" horiz-adv-x="1478" d="M324 741l301 117l266 -807q8 -33 22.5 -94t16.5 -74h2q2 12 29 168l395 1796h125l-475 -2177h-150l-340 1026l-160 -61z" />
<glyph unicode="&#x221e;" horiz-adv-x="1835" d="M264 635q0 150 97.5 248t244.5 98q113 0 206 -66.5t196 -189.5q123 137 184 182q102 74 219 74q141 0 229.5 -93t88.5 -243v-2q0 -154 -99.5 -251t-234.5 -97q-98 0 -187.5 60.5t-208.5 195.5q-72 -82 -120 -128t-126.5 -87t-162.5 -41q-133 0 -229.5 98.5t-96.5 241.5z M379 633q0 -96 63.5 -164t163.5 -68h2q29 0 56.5 6.5t55.5 24t47 29.5t49 39.5t42 41t43 47.5t39 42q-55 70 -76.5 93.5t-72 70.5t-97.5 65.5t-102 18.5q-98 0 -156.5 -72t-56.5 -174zM1063 641q121 -135 189.5 -187.5t150.5 -52.5q96 0 154.5 72t58.5 162 q0 113 -60.5 178.5t-156.5 65.5h-2q-49 0 -105.5 -31t-83 -54.5t-85 -87t-60.5 -65.5z" />
<glyph unicode="&#x222b;" horiz-adv-x="1032" d="M283 -324l28 127q53 -27 97 -26q61 0 100 51q72 96 72 379q0 186 -15.5 570t-15.5 560q0 346 117 471q80 88 208 88q74 0 119 -28l-26 -121q-37 20 -78 20q-72 0 -109 -53q-72 -84 -71 -393q0 -174 14 -552t14 -562q0 -309 -92 -449q-68 -119 -219 -118q-84 -1 -143 36z " />
<glyph unicode="&#x2248;" horiz-adv-x="1355" d="M248 375q49 96 127 152.5t170 56.5q31 0 59.5 -5.5t56 -16.5t44 -19t44 -24.5t35.5 -20.5q6 -4 29 -16.5t30 -16.5t25.5 -14.5t29.5 -13.5t26.5 -8t31 -7t31.5 -2q61 0 107.5 39t93.5 123l69 -62q-102 -207 -278 -207q-59 0 -111.5 20.5t-138.5 69.5q-129 74 -199 74 q-68 0 -114.5 -42t-96.5 -122zM248 745q49 98 127 154.5t170 56.5q37 0 77 -11t58 -19t60 -32t44 -26q4 -2 27 -14t27 -15t22.5 -12.5t25.5 -12.5t22.5 -9t25.5 -7t23.5 -3t27.5 -2q63 0 109.5 38.5t93.5 122.5l69 -61q-102 -209 -278 -209q-59 0 -107.5 19.5t-142.5 70.5 q-125 74 -199 74q-68 0 -115.5 -42t-95.5 -120z" />
<glyph unicode="&#x2260;" horiz-adv-x="1384" d="M291 362v111h364l142 313h-506v113h549l112 248l88 -39l-96 -209h332v-113h-375l-143 -313h518v-111h-561l-115 -251l-88 39l98 212h-319z" />
<glyph unicode="&#x2264;" horiz-adv-x="1411" d="M319 16v115h986v-115h-986zM330 711v116l966 490v-133l-847 -412v-4l849 -416v-133z" />
<glyph unicode="&#x2265;" horiz-adv-x="1411" d="M322 16v115h981v-115h-981zM332 1184v133l968 -490v-116l-966 -492v133l848 414v4z" />
<glyph unicode="&#x25ca;" horiz-adv-x="1482" d="M367 774l432 875h141l426 -875l-432 -872h-141zM524 778l301 -614q25 -61 37 -117h8q14 63 39 115l299 608l-299 610q-23 53 -41 119h-6q-14 -57 -41 -119z" />
<glyph unicode="&#xe000;" horiz-adv-x="960" d="M0 960h960v-960h-960v960z" />
<glyph unicode="&#xfb01;" horiz-adv-x="1048" d="M164 0l125 786h-84l26 172h84l74 467q59 377 369 377q70 0 125 -24l-29 -187q-82 39 -117 39q-37 0 -66.5 -19.5t-46 -44t-29.5 -65.5t-18.5 -66.5t-11.5 -64.5l-65 -412h254l-27 -172h-254l-125 -786h-184zM696 0l152 958h184l-151 -958h-185zM883 1397q10 53 53 91 t94 38q53 0 84 -38t23 -91q-8 -51 -51.5 -88t-96.5 -37q-51 0 -82.5 36t-23.5 89z" />
<glyph unicode="&#xfb02;" horiz-adv-x="1017" d="M164 0l125 786h-84l26 172h84l74 467q59 377 369 377q70 0 125 -24l-29 -187q-82 39 -117 39q-37 0 -66.5 -19.5t-46 -44t-29.5 -65.5t-18.5 -66.5t-11.5 -64.5l-65 -412h254l-27 -172h-254l-125 -786h-184zM698 0l281 1778h184l-280 -1778h-185z" />
</font>
</defs>
</svg>
